0
SECTION
2
HEADER
9
$INSUNITS
70
4
0
ENDSEC
0
SECTION
2
TABLES
0
TABLE
2
LAYER
0
LAYER
2
0
70
0
62
7
6
CONTINUOUS
0
LAYER
2
PIEZAS
70
0
62
1
6
CONTINUOUS
0
LAYER
2
CHAPA
70
0
62
5
6
CONTINUOUS
0
ENDTAB
0
ENDSEC
0
SECTION
2
ENTITIES
0
LWPOLYLINE
8
CHAPA
90
4
70
1
10
0.000000
20
0.000000
10
1200.000000
20
0.000000
10
1200.000000
20
803.500000
10
0.000000
20
803.500000
0
LWPOLYLINE
8
PIEZAS
90
4
70
1
10
1005.391381
20
5.000000
10
1005.391381
20
802.000000
10
5.000000
20
802.000000
10
5.000000
20
5.000000
0
LWPOLYLINE
8
PIEZAS
90
48
70
1
10
654.784583
20
391.500000
10
657.468655
20
391.626284
10
660.102511
20
392.002775
10
662.636875
20
392.622429
10
665.024332
20
393.473652
10
667.220215
20
394.540520
10
669.183443
20
395.803072
10
670.877284
20
397.237687
10
672.270051
20
398.817527
10
673.335685
20
400.513033
10
674.054250
20
402.292485
10
674.412302
20
404.122591
10
674.403143
20
405.969112
10
674.026944
20
407.797503
10
673.290743
20
409.573556
10
672.208314
20
411.264043
10
670.799907
20
412.837337
10
669.091873
20
414.264003
10
667.116166
20
415.517352
10
664.909750
20
416.573933
10
662.513905
20
417.413979
10
659.973452
20
418.021775
10
657.335922
20
418.385949
10
654.650660
20
418.500000
10
653.379110
20
418.499687
10
650.707880
20
418.362005
10
648.088677
20
417.976490
10
645.570084
20
417.350292
10
643.198813
20
416.495027
10
641.018846
20
415.426556
10
639.070615
20
414.164699
10
637.390257
20
412.732858
10
636.008936
20
411.157592
10
634.952275
20
409.468117
10
634.239870
20
407.695769
10
633.884936
20
405.873422
10
633.894055
20
404.034874
10
634.267059
20
402.214228
10
634.997029
20
400.445250
10
636.070426
20
398.760753
10
637.467341
20
397.191978
10
639.161865
20
395.768023
10
641.122568
20
394.515299
10
643.313084
20
393.457040
10
645.692784
20
392.612876
10
648.217532
20
391.998462
10
650.840497
20
391.625196
10
653.513032
20
391.500000
0
LWPOLYLINE
8
PIEZAS
90
64
70
1
10
864.881829
20
405.000000
10
864.816822
20
406.323231
10
864.622430
20
407.633719
10
864.300523
20
408.918843
10
863.854202
20
410.166226
10
863.287766
20
411.363856
10
862.606668
20
412.500198
10
861.817470
20
413.564309
10
860.927770
20
414.545942
10
859.946138
20
415.435641
10
858.882027
20
416.224840
10
857.745685
20
416.905937
10
856.548055
20
417.472374
10
855.300672
20
417.918695
10
854.015548
20
418.240601
10
852.705060
20
418.434994
10
851.381829
20
418.500000
10
850.058597
20
418.434994
10
848.748109
20
418.240601
10
847.462985
20
417.918695
10
846.215602
20
417.472374
10
845.017973
20
416.905937
10
843.881630
20
416.224840
10
842.817519
20
415.435641
10
841.835887
20
414.545942
10
840.946187
20
413.564309
10
840.156989
20
412.500198
10
839.475892
20
411.363856
10
838.909455
20
410.166226
10
838.463134
20
408.918843
10
838.141227
20
407.633719
10
837.946835
20
406.323231
10
837.881829
20
405.000000
10
837.946835
20
403.676769
10
838.141227
20
402.366281
10
838.463134
20
401.081157
10
838.909455
20
399.833774
10
839.475892
20
398.636144
10
840.156989
20
397.499802
10
840.946187
20
396.435691
10
841.835887
20
395.454058
10
842.817519
20
394.564359
10
843.881630
20
393.775160
10
845.017973
20
393.094063
10
846.215602
20
392.527626
10
847.462985
20
392.081305
10
848.748109
20
391.759399
10
850.058597
20
391.565006
10
851.381829
20
391.500000
10
852.705060
20
391.565006
10
854.015548
20
391.759399
10
855.300672
20
392.081305
10
856.548055
20
392.527626
10
857.745685
20
393.094063
10
858.882027
20
393.775160
10
859.946138
20
394.564359
10
860.927770
20
395.454058
10
861.817470
20
396.435691
10
862.606668
20
397.499802
10
863.287766
20
398.636144
10
863.854202
20
399.833774
10
864.300523
20
401.081157
10
864.622430
20
402.366281
10
864.816822
20
403.676769
0
LWPOLYLINE
8
PIEZAS
90
64
70
1
10
518.695691
20
652.000000
10
518.630685
20
653.323231
10
518.436292
20
654.633719
10
518.114385
20
655.918843
10
517.668064
20
657.166226
10
517.101628
20
658.363856
10
516.420531
20
659.500198
10
515.631332
20
660.564309
10
514.741632
20
661.545942
10
513.760000
20
662.435641
10
512.695889
20
663.224840
10
511.559547
20
663.905937
10
510.361917
20
664.472374
10
509.114534
20
664.918695
10
507.829410
20
665.240601
10
506.518922
20
665.434994
10
505.195691
20
665.500000
10
503.872459
20
665.434994
10
502.561971
20
665.240601
10
501.276848
20
664.918695
10
500.029464
20
664.472374
10
498.831835
20
663.905937
10
497.695493
20
663.224840
10
496.631381
20
662.435641
10
495.649749
20
661.545942
10
494.760050
20
660.564309
10
493.970851
20
659.500198
10
493.289754
20
658.363856
10
492.723317
20
657.166226
10
492.276996
20
655.918843
10
491.955089
20
654.633719
10
491.760697
20
653.323231
10
491.695691
20
652.000000
10
491.760697
20
650.676769
10
491.955089
20
649.366281
10
492.276996
20
648.081157
10
492.723317
20
646.833774
10
493.289754
20
645.636144
10
493.970851
20
644.499802
10
494.760050
20
643.435691
10
495.649749
20
642.454058
10
496.631381
20
641.564359
10
497.695493
20
640.775160
10
498.831835
20
640.094063
10
500.029464
20
639.527626
10
501.276848
20
639.081305
10
502.561971
20
638.759399
10
503.872459
20
638.565006
10
505.195691
20
638.500000
10
506.518922
20
638.565006
10
507.829410
20
638.759399
10
509.114534
20
639.081305
10
510.361917
20
639.527626
10
511.559547
20
640.094063
10
512.695889
20
640.775160
10
513.760000
20
641.564359
10
514.741632
20
642.454058
10
515.631332
20
643.435691
10
516.420531
20
644.499802
10
517.101628
20
645.636144
10
517.668064
20
646.833774
10
518.114385
20
648.081157
10
518.436292
20
649.366281
10
518.630685
20
650.676769
0
LWPOLYLINE
8
PIEZAS
90
64
70
1
10
917.605541
20
75.000000
10
917.557389
20
75.980171
10
917.413394
20
76.950903
10
917.174945
20
77.902847
10
916.844337
20
78.826834
10
916.424754
20
79.713967
10
915.920237
20
80.555702
10
915.335646
20
81.343933
10
914.676609
20
82.071068
10
913.949474
20
82.730105
10
913.161244
20
83.314696
10
912.319509
20
83.819213
10
911.432376
20
84.238795
10
910.508388
20
84.569403
10
909.556445
20
84.807853
10
908.585713
20
84.951847
10
907.605541
20
85.000000
10
906.625370
20
84.951847
10
905.654638
20
84.807853
10
904.702695
20
84.569403
10
903.778707
20
84.238795
10
902.891574
20
83.819213
10
902.049839
20
83.314696
10
901.261609
20
82.730105
10
900.534474
20
82.071068
10
899.875437
20
81.343933
10
899.290845
20
80.555702
10
898.786329
20
79.713967
10
898.366746
20
78.826834
10
898.036138
20
77.902847
10
897.797689
20
76.950903
10
897.653694
20
75.980171
10
897.605541
20
75.000000
10
897.653694
20
74.019829
10
897.797689
20
73.049097
10
898.036138
20
72.097153
10
898.366746
20
71.173166
10
898.786329
20
70.286033
10
899.290845
20
69.444298
10
899.875437
20
68.656067
10
900.534474
20
67.928932
10
901.261609
20
67.269895
10
902.049839
20
66.685304
10
902.891574
20
66.180787
10
903.778707
20
65.761205
10
904.702695
20
65.430597
10
905.654638
20
65.192147
10
906.625370
20
65.048153
10
907.605541
20
65.000000
10
908.585713
20
65.048153
10
909.556445
20
65.192147
10
910.508388
20
65.430597
10
911.432376
20
65.761205
10
912.319509
20
66.180787
10
913.161244
20
66.685304
10
913.949474
20
67.269895
10
914.676609
20
67.928932
10
915.335646
20
68.656067
10
915.920237
20
69.444298
10
916.424754
20
70.286033
10
916.844337
20
71.173166
10
917.174945
20
72.097153
10
917.413394
20
73.049097
10
917.557389
20
74.019829
0
LWPOLYLINE
8
PIEZAS
90
4
70
1
10
1140.000000
20
295.000000
10
1010.000000
20
295.000000
10
1010.000000
20
5.000000
10
1140.000000
20
5.000000
0
LWPOLYLINE
8
PIEZAS
90
68
70
1
10
1059.000000
20
271.500000
10
1058.144496
20
271.459247
10
1057.296739
20
271.337358
10
1056.464407
20
271.135437
10
1055.655038
20
270.855311
10
1054.875961
20
270.499519
10
1054.134233
20
270.071282
10
1053.436569
20
269.574478
10
1052.789289
20
269.013606
10
1052.198254
20
268.393747
10
1051.668816
20
267.720512
10
1051.205771
20
267.000000
10
1050.813312
20
266.238735
10
1050.494993
20
265.443612
10
1050.253696
20
264.621830
10
1050.091607
20
263.780834
10
1050.010194
20
262.928237
10
1050.010194
20
262.071763
10
1050.091607
20
261.219166
10
1050.253696
20
260.378170
10
1050.494993
20
259.556388
10
1050.813312
20
258.761265
10
1051.205771
20
258.000000
10
1051.668816
20
257.279488
10
1052.198254
20
256.606253
10
1052.789289
20
255.986394
10
1053.436569
20
255.425522
10
1054.134233
20
254.928718
10
1054.875961
20
254.500481
10
1055.655038
20
254.144689
10
1056.464407
20
253.864563
10
1057.296739
20
253.662642
10
1058.144496
20
253.540753
10
1059.000000
20
253.500000
10
1091.000000
20
253.500000
10
1091.855504
20
253.540753
10
1092.703261
20
253.662642
10
1093.535593
20
253.864563
10
1094.344962
20
254.144689
10
1095.124039
20
254.500481
10
1095.865767
20
254.928718
10
1096.563431
20
255.425522
10
1097.210711
20
255.986394
10
1097.801746
20
256.606253
10
1098.331184
20
257.279488
10
1098.794229
20
258.000000
10
1099.186688
20
258.761265
10
1099.505007
20
259.556388
10
1099.746304
20
260.378170
10
1099.908393
20
261.219166
10
1099.989806
20
262.071763
10
1099.989806
20
262.928237
10
1099.908393
20
263.780834
10
1099.746304
20
264.621830
10
1099.505007
20
265.443612
10
1099.186688
20
266.238735
10
1098.794229
20
267.000000
10
1098.331184
20
267.720512
10
1097.801746
20
268.393747
10
1097.210711
20
269.013606
10
1096.563431
20
269.574478
10
1095.865767
20
270.071282
10
1095.124039
20
270.499519
10
1094.344962
20
270.855311
10
1093.535593
20
271.135437
10
1092.703261
20
271.337358
10
1091.855504
20
271.459247
10
1091.000000
20
271.500000
0
LWPOLYLINE
8
PIEZAS
90
68
70
1
10
1091.000000
20
28.500000
10
1091.855504
20
28.540753
10
1092.703261
20
28.662642
10
1093.535593
20
28.864563
10
1094.344962
20
29.144689
10
1095.124039
20
29.500481
10
1095.865767
20
29.928718
10
1096.563431
20
30.425522
10
1097.210711
20
30.986394
10
1097.801746
20
31.606253
10
1098.331184
20
32.279488
10
1098.794229
20
33.000000
10
1099.186688
20
33.761265
10
1099.505007
20
34.556388
10
1099.746304
20
35.378170
10
1099.908393
20
36.219166
10
1099.989806
20
37.071763
10
1099.989806
20
37.928237
10
1099.908393
20
38.780834
10
1099.746304
20
39.621830
10
1099.505007
20
40.443612
10
1099.186688
20
41.238735
10
1098.794229
20
42.000000
10
1098.331184
20
42.720512
10
1097.801746
20
43.393747
10
1097.210711
20
44.013606
10
1096.563431
20
44.574478
10
1095.865767
20
45.071282
10
1095.124039
20
45.499519
10
1094.344962
20
45.855311
10
1093.535593
20
46.135437
10
1092.703261
20
46.337358
10
1091.855504
20
46.459247
10
1091.000000
20
46.500000
10
1059.000000
20
46.500000
10
1058.144496
20
46.459247
10
1057.296739
20
46.337358
10
1056.464407
20
46.135437
10
1055.655038
20
45.855311
10
1054.875961
20
45.499519
10
1054.134233
20
45.071282
10
1053.436569
20
44.574478
10
1052.789289
20
44.013606
10
1052.198254
20
43.393747
10
1051.668816
20
42.720512
10
1051.205771
20
42.000000
10
1050.813312
20
41.238735
10
1050.494993
20
40.443612
10
1050.253696
20
39.621830
10
1050.091607
20
38.780834
10
1050.010194
20
37.928237
10
1050.010194
20
37.071763
10
1050.091607
20
36.219166
10
1050.253696
20
35.378170
10
1050.494993
20
34.556388
10
1050.813312
20
33.761265
10
1051.205771
20
33.000000
10
1051.668816
20
32.279488
10
1052.198254
20
31.606253
10
1052.789289
20
30.986394
10
1053.436569
20
30.425522
10
1054.134233
20
29.928718
10
1054.875961
20
29.500481
10
1055.655038
20
29.144689
10
1056.464407
20
28.864563
10
1057.296739
20
28.662642
10
1058.144496
20
28.540753
10
1059.000000
20
28.500000
0
LWPOLYLINE
8
PIEZAS
90
4
70
1
10
1141.545642
20
400.369591
10
1121.471724
20
422.663936
10
1010.000000
20
322.294345
10
1030.073918
20
300.000000
0
LWPOLYLINE
8
PIEZAS
90
251
70
1
10
1066.312950
20
362.673008
10
1071.222185
20
352.401823
10
1069.405472
20
353.499884
10
1064.668022
20
363.426160
10
1068.538321
20
366.910993
10
1068.996065
20
366.402617
10
1068.985154
20
366.376568
10
1068.974214
20
366.350533
10
1068.963213
20
366.324529
10
1068.952122
20
366.298569
10
1068.940911
20
366.272670
10
1068.929550
20
366.246845
10
1068.918009
20
366.221110
10
1068.906258
20
366.195479
10
1068.894266
20
366.169969
10
1068.882004
20
366.144593
10
1068.869442
20
366.119366
10
1068.856565
20
366.094297
10
1068.843392
20
366.069377
10
1068.829946
20
366.044594
10
1068.816252
20
366.019938
10
1068.802333
20
365.995398
10
1068.788213
20
365.970963
10
1068.773916
20
365.946622
10
1068.759464
20
365.922365
10
1068.744883
20
365.898180
10
1068.730195
20
365.874056
10
1068.715427
20
365.849981
10
1068.700616
20
365.825935
10
1068.685810
20
365.801892
10
1068.671054
20
365.777826
10
1068.656394
20
365.753713
10
1068.641874
20
365.729526
10
1068.627542
20
365.705242
10
1068.613442
20
365.680834
10
1068.599621
20
365.656276
10
1068.586123
20
365.631545
10
1068.572983
20
365.606621
10
1068.560174
20
365.581518
10
1068.547654
20
365.556258
10
1068.535384
20
365.530864
10
1068.523321
20
365.505359
10
1068.511424
20
365.479763
10
1068.499651
20
365.454101
10
1068.487960
20
365.428394
10
1068.476312
20
365.402664
10
1068.468953
20
365.377245
10
1068.461693
20
365.351813
10
1068.454631
20
365.326353
10
1068.447864
20
365.300853
10
1068.441491
20
365.275298
10
1068.435612
20
365.249676
10
1068.430325
20
365.223972
10
1068.425728
20
365.198173
10
1068.421920
20
365.172266
10
1068.418999
20
365.146236
10
1068.417042
20
365.120080
10
1068.416042
20
365.093826
10
1068.415980
20
365.067507
10
1068.416832
20
365.041159
10
1068.418578
20
365.014815
10
1068.421196
20
364.988511
10
1068.424665
20
364.962280
10
1068.428962
20
364.936158
10
1068.434067
20
364.910178
10
1068.439959
20
364.884374
10
1068.446623
20
364.858774
10
1068.454051
20
364.833402
10
1068.462231
20
364.808283
10
1068.471155
20
364.783440
10
1068.480812
20
364.758899
10
1068.491193
20
364.734683
10
1068.502287
20
364.710817
10
1068.514085
20
364.687324
10
1068.526576
20
364.664230
10
1068.539744
20
364.641549
10
1068.553538
20
364.619258
10
1068.567895
20
364.597316
10
1068.582752
20
364.575685
10
1068.598047
20
364.554325
10
1068.613717
20
364.533199
10
1068.629699
20
364.512268
10
1068.645932
20
364.491491
10
1068.662353
20
364.470831
10
1068.678898
20
364.450249
10
1068.695507
20
364.429706
10
1076.994700
20
355.212517
10
1077.015320
20
355.191497
10
1077.035985
20
355.170532
10
1077.056737
20
355.149678
10
1077.077622
20
355.128990
10
1077.098684
20
355.108522
10
1077.119966
20
355.088331
10
1077.141513
20
355.068471
10
1077.163370
20
355.048998
10
1077.185579
20
355.029967
10
1077.208187
20
355.011434
10
1077.231236
20
354.993453
10
1077.254767
20
354.976077
10
1077.278785
20
354.959334
10
1077.303272
20
354.943233
10
1077.328210
20
354.927785
10
1077.353582
20
354.913001
10
1077.379368
20
354.898892
10
1077.405552
20
354.885467
10
1077.432115
20
354.872738
10
1077.459040
20
354.860714
10
1077.486307
20
354.849406
10
1077.513899
20
354.838828
10
1077.541790
20
354.829015
10
1077.569946
20
354.820026
10
1077.598337
20
354.811915
10
1077.626931
20
354.804740
10
1077.655696
20
354.798557
10
1077.684599
20
354.793421
10
1077.713608
20
354.789389
10
1077.742693
20
354.786518
10
1077.771820
20
354.784861
10
1077.800973
20
354.784386
10
1077.830147
20
354.784967
10
1077.859341
20
354.786471
10
1077.888550
20
354.788766
10
1077.917772
20
354.791722
10
1077.947006
20
354.795204
10
1077.976247
20
354.799083
10
1078.005494
20
354.803226
10
1078.034744
20
354.807500
10
1078.064136
20
354.815138
10
1078.093512
20
354.822824
10
1078.122856
20
354.830608
10
1078.152154
20
354.838536
10
1078.181388
20
354.846659
10
1078.210543
20
354.855024
10
1078.239604
20
354.863680
10
1078.268554
20
354.872676
10
1078.297378
20
354.882058
10
1078.326069
20
354.891849
10
1078.354635
20
354.902019
10
1078.383085
20
354.912533
10
1078.411428
20
354.923358
10
1078.439675
20
354.934459
10
1078.467834
20
354.945803
10
1078.495916
20
354.957354
10
1078.523929
20
354.969079
10
1078.551884
20
354.980945
10
1078.579790
20
354.992916
10
1078.607659
20
355.004958
10
1078.635506
20
355.017039
10
1078.663346
20
355.029124
10
1078.691191
20
355.041180
10
1078.719057
20
355.053173
10
1078.746958
20
355.065069
10
1078.774908
20
355.076835
10
1078.802921
20
355.088436
10
1078.831011
20
355.099839
10
1078.859193
20
355.111011
10
1078.887472
20
355.121937
10
1078.915842
20
355.132636
10
1078.944293
20
355.143130
10
1078.972817
20
355.153443
10
1079.001403
20
355.163598
10
1079.030044
20
355.173616
10
1079.058730
20
355.183520
10
1079.087452
20
355.193334
10
1079.116201
20
355.203080
10
1079.144968
20
355.212780
10
1079.173744
20
355.222458
10
1079.631488
20
354.714082
10
1075.122525
20
350.654193
10
1074.664781
20
351.162569
10
1074.675345
20
351.189078
10
1074.685935
20
351.215575
10
1074.696578
20
351.242046
10
1074.707302
20
351.268480
10
1074.718133
20
351.294863
10
1074.729097
20
351.321183
10
1074.740222
20
351.347427
10
1074.751535
20
351.373584
10
1074.763061
20
351.399639
10
1074.774828
20
351.425582
10
1074.786862
20
351.451398
10
1074.799173
20
351.477084
10
1074.811734
20
351.502653
10
1074.824513
20
351.528120
10
1074.837478
20
351.553501
10
1074.850598
20
351.578812
10
1074.863839
20
351.604067
10
1074.877171
20
351.629282
10
1074.890561
20
351.654472
10
1074.903977
20
351.679654
10
1074.917388
20
351.704843
10
1074.930762
20
351.730053
10
1074.944066
20
351.755298
10
1074.957269
20
351.780593
10
1074.970339
20
351.805950
10
1074.983244
20
351.831382
10
1074.995953
20
351.856904
10
1075.008432
20
351.882529
10
1075.020652
20
351.908270
10
1075.032579
20
351.934141
10
1075.044182
20
351.960154
10
1075.055447
20
351.986317
10
1075.066406
20
352.012614
10
1075.077098
20
352.039029
10
1075.087560
20
352.065545
10
1075.097831
20
352.092145
10
1075.107949
20
352.118812
10
1075.117952
20
352.145530
10
1075.127879
20
352.172282
10
1075.137767
20
352.199051
10
1075.144349
20
352.227707
10
1075.150814
20
352.256373
10
1075.157045
20
352.285060
10
1075.162925
20
352.313777
10
1075.168336
20
352.342536
10
1075.173161
20
352.371345
10
1075.177284
20
352.400216
10
1075.180586
20
352.429158
10
1075.182952
20
352.458182
10
1075.184267
20
352.487296
10
1075.184491
20
352.516486
10
1075.183651
20
352.545715
10
1075.181776
20
352.574945
10
1075.178895
20
352.604138
10
1075.175036
20
352.633257
10
1075.170229
20
352.662264
10
1075.164503
20
352.691120
10
1075.157886
20
352.719789
10
1075.150408
20
352.748232
10
1075.142095
20
352.776418
10
1075.132969
20
352.804329
10
1075.123051
20
352.831947
10
1075.112361
20
352.859258
10
1075.100921
20
352.886245
10
1075.088751
20
352.912892
10
1075.075872
20
352.939183
10
1075.062305
20
352.965102
10
1075.048071
20
352.990633
10
1075.033191
20
353.015760
10
1075.017695
20
353.040483
10
1075.001638
20
353.064835
10
1074.985076
20
353.088853
10
1074.968065
20
353.112575
10
1074.950661
20
353.136036
10
1074.932920
20
353.159276
10
1074.914899
20
353.182329
10
1074.896652
20
353.205235
10
1074.878238
20
353.228029
10
1074.859711
20
353.250749
10
1074.841128
20
353.273432
10
1066.348716
20
362.705211
0
LWPOLYLINE
8
PIEZAS
90
166
70
1
10
1088.306227
20
384.710096
10
1091.795883
20
387.852196
10
1102.827739
20
375.600080
10
1099.338082
20
372.457979
10
1098.880339
20
372.966355
10
1098.892855
20
372.994077
10
1098.905402
20
373.021783
10
1098.918013
20
373.049454
10
1098.930718
20
373.077073
10
1098.943550
20
373.104624
10
1098.956538
20
373.132089
10
1098.969717
20
373.159452
10
1098.983115
20
373.186694
10
1098.996766
20
373.213799
10
1099.010701
20
373.240750
10
1099.024951
20
373.267530
10
1099.039536
20
373.294127
10
1099.054431
20
373.320557
10
1099.069597
20
373.346841
10
1099.084995
20
373.373002
10
1099.100588
20
373.399062
10
1099.116337
20
373.425041
10
1099.132203
20
373.450963
10
1099.148148
20
373.476849
10
1099.164134
20
373.502721
10
1099.180123
20
373.528600
10
1099.196075
20
373.554509
10
1099.211947
20
373.580470
10
1099.227690
20
373.606503
10
1099.243257
20
373.632632
10
1099.258599
20
373.658877
10
1099.273670
20
373.685261
10
1099.288422
20
373.711805
10
1099.302806
20
373.738531
10
1099.316775
20
373.765461
10
1099.330280
20
373.792617
10
1099.343293
20
373.820011
10
1099.355853
20
373.847625
10
1099.368017
20
373.875430
10
1099.379841
20
373.903401
10
1099.391382
20
373.931508
10
1099.402696
20
373.959725
10
1099.413841
20
373.988024
10
1099.424872
20
374.016378
10
1099.435847
20
374.044759
10
1099.442722
20
374.073865
10
1099.449461
20
374.102982
10
1099.455927
20
374.132120
10
1099.461983
20
374.161291
10
1099.467492
20
374.190506
10
1099.472318
20
374.219774
10
1099.476324
20
374.249108
10
1099.479373
20
374.278518
10
1099.481330
20
374.308015
10
1099.482074
20
374.337604
10
1099.481606
20
374.367256
10
1099.479968
20
374.396929
10
1099.477205
20
374.426580
10
1099.473361
20
374.456166
10
1099.468479
20
374.485645
10
1099.462605
20
374.514973
10
1099.455783
20
374.544108
10
1099.448056
20
374.573008
10
1099.439467
20
374.601631
10
1099.430052
20
374.629953
10
1099.419838
20
374.657964
10
1099.408850
20
374.685656
10
1099.397116
20
374.713019
10
1099.384664
20
374.740045
10
1099.371518
20
374.766723
10
1099.357708
20
374.793044
10
1099.343258
20
374.819001
10
1099.328197
20
374.844582
10
1099.312552
20
374.869781
10
1099.296364
20
374.894615
10
1099.279681
20
374.919115
10
1099.262553
20
374.943315
10
1099.245029
20
374.967249
10
1099.227159
20
374.990950
10
1099.208993
20
375.014450
10
1099.190579
20
375.037785
10
1099.171968
20
375.060986
10
1099.153208
20
375.084087
10
1099.134350
20
375.107121
10
1099.115442
20
375.130123
10
1090.940460
20
384.209360
10
1090.919561
20
384.230568
10
1090.898624
20
384.251731
10
1090.877611
20
384.272803
10
1090.856482
20
384.293737
10
1090.835200
20
384.314489
10
1090.813727
20
384.335013
10
1090.792024
20
384.355262
10
1090.770053
20
384.375191
10
1090.747776
20
384.394755
10
1090.725154
20
384.413908
10
1090.702149
20
384.432603
10
1090.678723
20
384.450797
10
1090.654856
20
384.468449
10
1090.630552
20
384.485533
10
1090.605818
20
384.502019
10
1090.580660
20
384.517881
10
1090.555085
20
384.533090
10
1090.529098
20
384.547620
10
1090.502706
20
384.561442
10
1090.475916
20
384.574529
10
1090.448733
20
384.586853
10
1090.421165
20
384.598386
10
1090.393231
20
384.609091
10
1090.364969
20
384.618922
10
1090.336415
20
384.627829
10
1090.307608
20
384.635765
10
1090.278586
20
384.642681
10
1090.249387
20
384.648528
10
1090.220048
20
384.653259
10
1090.190607
20
384.656824
10
1090.161102
20
384.659177
10
1090.131562
20
384.660314
10
1090.101994
20
384.660356
10
1090.072402
20
384.659438
10
1090.042790
20
384.657698
10
1090.013159
20
384.655272
10
1089.983515
20
384.652299
10
1089.953861
20
384.648915
10
1089.924199
20
384.645256
10
1089.894534
20
384.641461
10
1089.865106
20
384.633637
10
1089.835704
20
384.625746
10
1089.806353
20
384.617717
10
1089.777078
20
384.609483
10
1089.747905
20
384.600975
10
1089.718860
20
384.592125
10
1089.689968
20
384.582863
10
1089.661254
20
384.573123
10
1089.632744
20
384.562834
10
1089.604454
20
384.551952
10
1089.576369
20
384.540523
10
1089.548460
20
384.528621
10
1089.520702
20
384.516316
10
1089.493067
20
384.503681
10
1089.465530
20
384.490789
10
1089.438063
20
384.477710
10
1089.410641
20
384.464517
10
1089.383236
20
384.451282
10
1089.355822
20
384.438076
10
1089.328379
20
384.424952
10
1089.300899
20
384.411933
10
1089.273371
20
384.399039
10
1089.245787
20
384.386292
10
1089.218138
20
384.373712
10
1089.190415
20
384.361321
10
1089.162609
20
384.349139
10
1089.134710
20
384.337187
10
1089.106711
20
384.325487
10
1089.078602
20
384.314058
10
1089.050377
20
384.302915
10
1089.022044
20
384.292038
10
1088.993614
20
384.281400
10
1088.965097
20
384.270974
10
1088.936505
20
384.260735
10
1088.907848
20
384.250655
10
1088.879138
20
384.240709
10
1088.850384
20
384.230868
10
1088.821597
20
384.221108
10
1088.792790
20
384.211400
10
1088.763971
20
384.201720
0
LWPOLYLINE
8
PIEZAS
90
207
70
1
10
1040.125469
20
341.327946
10
1043.487392
20
344.355035
10
1052.672171
20
334.154305
10
1052.729160
20
334.091034
10
1052.786341
20
334.027946
10
1052.843906
20
333.965224
10
1052.902048
20
333.903051
10
1052.960938
20
333.841591
10
1053.020511
20
333.780782
10
1053.080558
20
333.720421
10
1053.140869
20
333.660305
10
1053.201430
20
333.600440
10
1053.262787
20
333.541419
10
1053.325583
20
333.483940
10
1053.390694
20
333.429080
10
1053.459398
20
333.378574
10
1053.532503
20
333.334142
10
1053.609686
20
333.297316
10
1053.690473
20
333.269603
10
1053.774180
20
333.252168
10
1053.859446
20
333.245067
10
1053.944773
20
333.248125
10
1054.029073
20
333.260594
10
1054.112078
20
333.280584
10
1054.193617
20
333.306070
10
1054.273617
20
333.335518
10
1054.352190
20
333.368336
10
1054.429466
20
333.404036
10
1054.505601
20
333.442112
10
1054.580834
20
333.481997
10
1054.655421
20
333.523107
10
1054.729616
20
333.564868
10
1054.803615
20
333.606917
10
1054.877559
20
333.649074
10
1054.951590
20
333.691168
10
1055.025863
20
333.732977
10
1055.100648
20
333.773869
10
1055.176272
20
333.813021
10
1055.253061
20
333.849605
10
1055.331254
20
333.883005
10
1055.410619
20
333.913731
10
1055.490766
20
333.942674
10
1055.571304
20
333.970725
10
1056.029048
20
333.462349
10
1051.157324
20
329.075829
10
1050.699580
20
329.584205
10
1050.706173
20
329.608272
10
1050.712839
20
329.632308
10
1050.719650
20
329.656281
10
1050.726679
20
329.680159
10
1050.733998
20
329.703912
10
1050.741680
20
329.727507
10
1050.749798
20
329.750914
10
1050.758424
20
329.774101
10
1050.767631
20
329.797037
10
1050.777491
20
329.819689
10
1050.788031
20
329.842046
10
1050.799195
20
329.864128
10
1050.810914
20
329.885959
10
1050.823122
20
329.907565
10
1050.835751
20
329.928971
10
1050.848734
20
329.950202
10
1050.862004
20
329.971282
10
1050.875494
20
329.992236
10
1050.889136
20
330.013090
10
1050.902864
20
330.033867
10
1050.916628
20
330.054591
10
1050.930406
20
330.075277
10
1050.944178
20
330.095943
10
1050.957924
20
330.116605
10
1050.971623
20
330.137280
10
1050.985255
20
330.157985
10
1050.998799
20
330.178736
10
1051.012235
20
330.199551
10
1051.025544
20
330.220445
10
1051.038704
20
330.241435
10
1051.051702
20
330.262534
10
1051.064550
20
330.283734
10
1051.077263
20
330.305023
10
1051.089860
20
330.326391
10
1051.102356
20
330.347826
10
1051.114768
20
330.369318
10
1051.127113
20
330.390854
10
1051.139409
20
330.412424
10
1051.151670
20
330.434017
10
1051.163915
20
330.455621
10
1051.187823
20
330.501673
10
1051.211207
20
330.547945
10
1051.233543
20
330.594654
10
1051.254306
20
330.642021
10
1051.272972
20
330.690264
10
1051.289035
20
330.739566
10
1051.302130
20
330.789839
10
1051.311954
20
330.840868
10
1051.318206
20
330.892439
10
1051.320585
20
330.944339
10
1051.318896
20
330.996311
10
1051.313187
20
331.048015
10
1051.303539
20
331.099094
10
1051.290032
20
331.149193
10
1051.272807
20
331.198013
10
1051.252342
20
331.245573
10
1051.229235
20
331.292008
10
1051.204084
20
331.337451
10
1051.177481
20
331.382035
10
1051.149792
20
331.425862
10
1051.121130
20
331.468999
10
1051.091591
20
331.511511
10
1051.061272
20
331.553463
10
1051.030271
20
331.594919
10
1050.998686
20
331.635946
10
1050.966613
20
331.676607
10
1050.934149
20
331.716968
10
1050.901393
20
331.757094
10
1050.868440
20
331.797050
10
1050.835353
20
331.836879
10
1050.802148
20
331.876594
10
1050.768837
20
331.916208
10
1050.735432
20
331.955730
10
1050.701944
20
331.995174
10
1050.668385
20
332.034549
10
1050.634767
20
332.073868
10
1050.601102
20
332.113141
10
1050.567402
20
332.152380
10
1050.533678
20
332.191597
10
1050.499942
20
332.230802
10
1043.187543
20
340.352045
10
1043.160777
20
340.381579
10
1043.133988
20
340.411090
10
1043.107151
20
340.440555
10
1043.080241
20
340.469953
10
1043.053235
20
340.499260
10
1043.026109
20
340.528453
10
1042.998839
20
340.557511
10
1042.971400
20
340.586409
10
1042.943778
20
340.615133
10
1042.915970
20
340.643680
10
1042.887977
20
340.672047
10
1042.859797
20
340.700232
10
1042.831431
20
340.728233
10
1042.802877
20
340.756046
10
1042.774134
20
340.783669
10
1042.745193
20
340.811086
10
1042.716029
20
340.838264
10
1042.686616
20
340.865167
10
1042.656931
20
340.891761
10
1042.626949
20
340.918011
10
1042.596644
20
340.943883
10
1042.566008
20
340.969362
10
1042.535055
20
340.994460
10
1042.503800
20
341.019193
10
1042.472258
20
341.043576
10
1042.440446
20
341.067623
10
1042.408359
20
341.091317
10
1042.375936
20
341.114539
10
1042.343108
20
341.137149
10
1042.309801
20
341.159012
10
1042.275946
20
341.179988
10
1042.241476
20
341.199945
10
1042.206329
20
341.218754
10
1042.170442
20
341.236287
10
1042.133759
20
341.252366
10
1042.096270
20
341.266369
10
1042.057993
20
341.277428
10
1042.018953
20
341.284751
10
1041.979320
20
341.288843
10
1041.939390
20
341.291301
10
1041.903434
20
341.287562
10
1041.867522
20
341.283559
10
1041.831695
20
341.279029
10
1041.795996
20
341.273708
10
1041.760468
20
341.267337
10
1041.725142
20
341.259822
10
1041.690039
20
341.251230
10
1041.655179
20
341.241642
10
1041.620581
20
341.231133
10
1041.586264
20
341.219783
10
1041.552227
20
341.207668
10
1041.518452
20
341.194860
10
1041.484919
20
341.181434
10
1041.451609
20
341.167464
10
1041.418503
20
341.153025
10
1041.385579
20
341.138186
10
1041.352810
20
341.123012
10
1041.320169
20
341.107565
10
1041.287626
20
341.091909
10
1041.255154
20
341.076105
10
1041.222725
20
341.060217
10
1041.190314
20
341.044300
10
1041.157898
20
341.028394
10
1041.125459
20
341.012537
10
1041.092975
20
340.996766
10
1041.060427
20
340.981120
10
1041.027794
20
340.965637
10
1040.995045
20
340.950387
10
1040.962137
20
340.935491
10
1040.929024
20
340.921073
10
1040.895658
20
340.907257
10
1040.861994
20
340.894167
10
1040.828008
20
340.881901
10
1040.793716
20
340.870502
10
1040.759143
20
340.860005
10
1040.724311
20
340.850446
10
1040.689247
20
340.841833
10
1040.654003
20
340.833987
10
1040.618638
20
340.826651
10
1040.583213
20
340.819570
0
LWPOLYLINE
8
PIEZAS
90
324
70
1
10
1105.251117
20
381.061778
10
1105.229561
20
381.211422
10
1105.206306
20
381.360707
10
1105.179657
20
381.509270
10
1105.147926
20
381.656755
10
1105.110317
20
381.802942
10
1105.067520
20
381.947847
10
1105.020367
20
382.091506
10
1104.969683
20
382.233957
10
1104.916005
20
382.375212
10
1104.859402
20
382.515244
10
1104.799901
20
382.654022
10
1104.737531
20
382.791516
10
1104.672351
20
382.927710
10
1104.604559
20
383.062650
10
1104.534390
20
383.196402
10
1104.462079
20
383.329029
10
1104.387859
20
383.460597
10
1104.311902
20
383.591146
10
1104.234256
20
383.720680
10
1104.154955
20
383.849195
10
1104.074032
20
383.976686
10
1103.991522
20
384.103152
10
1103.907471
20
384.228597
10
1103.821956
20
384.353055
10
1103.735062
20
384.476564
10
1103.646875
20
384.599161
10
1103.557479
20
384.720885
10
1103.466956
20
384.841772
10
1103.375360
20
384.961842
10
1103.282715
20
385.081098
10
1103.189043
20
385.199543
10
1103.094367
20
385.317181
10
1102.998710
20
385.434014
10
1102.902099
20
385.550047
10
1102.804618
20
385.665346
10
1102.706411
20
385.780030
10
1102.607622
20
385.894222
10
1102.508397
20
386.008045
10
1102.408882
20
386.121623
10
1102.309221
20
386.235078
10
1102.174133
20
386.383027
10
1102.038511
20
386.530471
10
1101.901821
20
386.676904
10
1101.763537
20
386.821826
10
1101.623429
20
386.965006
10
1101.481656
20
387.106557
10
1101.338406
20
387.246617
10
1101.193818
20
387.385284
10
1101.047849
20
387.522486
10
1100.900409
20
387.658110
10
1100.751397
20
387.792024
10
1100.600623
20
387.923951
10
1100.447851
20
388.053541
10
1100.292868
20
388.180470
10
1100.135688
20
388.304681
10
1099.976459
20
388.426282
10
1099.815292
20
388.545318
10
1099.651982
20
388.661372
10
1099.486190
20
388.773823
10
1099.317675
20
388.882175
10
1099.146529
20
388.986347
10
1098.972899
20
389.086327
10
1098.796822
20
389.181911
10
1098.618219
20
389.272701
10
1098.436990
20
389.358171
10
1098.252969
20
389.437415
10
1098.066013
20
389.509499
10
1097.876264
20
389.573897
10
1097.683993
20
389.630272
10
1097.489478
20
389.678357
10
1097.293001
20
389.717890
10
1097.094859
20
389.747828
10
1096.895376
20
389.766453
10
1096.695087
20
389.773294
10
1096.494709
20
389.768921
10
1096.294964
20
389.752889
10
1096.096601
20
389.724073
10
1095.900665
20
389.681991
10
1095.708002
20
389.627324
10
1095.517357
20
389.565499
10
1095.448218
20
389.536859
10
1095.379157
20
389.508051
10
1095.310251
20
389.478904
10
1095.241578
20
389.449250
10
1095.173214
20
389.418921
10
1095.105236
20
389.387747
10
1095.037721
20
389.355567
10
1094.970706
20
389.322327
10
1094.904204
20
389.288040
10
1094.838232
20
389.252723
10
1094.772800
20
389.216392
10
1094.707925
20
389.179063
10
1094.643620
20
389.140752
10
1094.579917
20
389.101449
10
1094.516865
20
389.061126
10
1094.454510
20
389.019750
10
1094.392902
20
388.977293
10
1094.332089
20
388.933724
10
1094.272114
20
388.889017
10
1094.212964
20
388.843219
10
1094.154578
20
388.796436
10
1094.096892
20
388.748773
10
1094.039846
20
388.700337
10
1093.983377
20
388.651234
10
1093.927421
20
388.601569
10
1093.871901
20
388.551437
10
1093.816732
20
388.500927
10
1093.761829
20
388.450129
10
1093.707107
20
388.399133
10
1093.652485
20
388.348024
10
1093.597993
20
388.296773
10
1093.543783
20
388.245227
10
1093.490012
20
388.193228
10
1093.436838
20
388.140616
10
1093.384403
20
388.087257
10
1093.332794
20
388.033095
10
1093.282088
20
387.978094
10
1093.232346
20
387.922232
10
1093.183378
20
387.865688
10
1093.134800
20
387.808802
10
1092.513741
20
388.498558
10
1093.356776
20
389.257631
10
1093.478950
20
389.363500
10
1093.601498
20
389.468893
10
1093.724799
20
389.573333
10
1093.849226
20
389.676343
10
1093.975157
20
389.777447
10
1094.102961
20
389.876174
10
1094.232791
20
389.972293
10
1094.364517
20
390.065883
10
1094.497991
20
390.157043
10
1094.633064
20
390.245872
10
1094.769587
20
390.332472
10
1094.907453
20
390.416884
10
1095.046681
20
390.498970
10
1095.187319
20
390.578558
10
1095.329411
20
390.655474
10
1095.473004
20
390.729544
10
1095.618127
20
390.800612
10
1095.764745
20
390.868589
10
1095.912802
20
390.933407
10
1096.062246
20
390.994996
10
1096.213020
20
391.053287
10
1096.365070
20
391.108201
10
1096.518332
20
391.159620
10
1096.672739
20
391.207419
10
1096.828227
20
391.251474
10
1096.984731
20
391.291660
10
1097.142176
20
391.327932
10
1097.300467
20
391.360405
10
1097.459508
20
391.389210
10
1097.619204
20
391.414479
10
1097.779456
20
391.436331
10
1097.940164
20
391.454646
10
1098.101216
20
391.469071
10
1098.262506
20
391.479247
10
1098.423923
20
391.484813
10
1098.585367
20
391.485530
10
1098.746809
20
391.482048
10
1098.908249
20
391.475414
10
1099.069687
20
391.466680
10
1099.231124
20
391.456896
10
1099.391116
20
391.437359
10
1099.550945
20
391.416874
10
1099.710449
20
391.394497
10
1099.869465
20
391.369278
10
1100.027831
20
391.340278
10
1100.185414
20
391.306963
10
1100.342133
20
391.269493
10
1100.497908
20
391.228091
10
1100.652664
20
391.182983
10
1100.806324
20
391.134387
10
1100.958845
20
391.082458
10
1101.110210
20
391.027301
10
1101.260399
20
390.969021
10
1101.409394
20
390.907724
10
1101.557165
20
390.843494
10
1101.703622
20
390.776312
10
1101.848652
20
390.706122
10
1101.992144
20
390.632869
10
1102.133986
20
390.556497
10
1102.274100
20
390.477002
10
1102.412506
20
390.394549
10
1102.549246
20
390.309332
10
1102.684358
20
390.221545
10
1102.817886
20
390.131384
10
1102.949864
20
390.039014
10
1103.080319
20
389.944528
10
1103.209275
20
389.848000
10
1103.336754
20
389.749510
10
1103.462781
20
389.649132
10
1103.587355
20
389.546923
10
1103.710373
20
389.442844
10
1103.831707
20
389.336833
10
1103.951229
20
389.228829
10
1104.068808
20
389.118771
10
1104.184337
20
389.006613
10
1104.297984
20
388.892554
10
1104.410122
20
388.776971
10
1104.521127
20
388.660245
10
1104.631378
20
388.542757
10
1104.741251
20
388.424887
10
1104.847222
20
388.303052
10
1104.952776
20
388.180882
10
1105.057496
20
388.058044
10
1105.160965
20
387.934203
10
1105.262765
20
387.809025
10
1105.362484
20
387.682180
10
1105.459906
20
387.553519
10
1105.555092
20
387.423147
10
1105.648121
20
387.291187
10
1105.739074
20
387.157763
10
1105.828030
20
387.022998
10
1105.915042
20
386.886992
10
1106.000038
20
386.749743
10
1106.082918
20
386.611226
10
1106.163583
20
386.471416
10
1106.241930
20
386.330285
10
1106.317854
20
386.187811
10
1106.391211
20
386.043984
10
1106.461842
20
385.898801
10
1106.529589
20
385.752259
10
1106.594293
20
385.604354
10
1106.655817
20
385.455094
10
1106.714138
20
385.304545
10
1106.769274
20
385.152794
10
1106.821241
20
384.999928
10
1106.870056
20
384.846032
10
1106.915717
20
384.691183
10
1106.958164
20
384.535429
10
1106.997322
20
384.378810
10
1107.033119
20
384.221367
10
1107.065480
20
384.063140
10
1107.094272
20
383.904192
10
1107.119277
20
383.744620
10
1107.140271
20
383.584522
10
1107.157030
20
383.423995
10
1107.169394
20
383.263138
10
1107.177899
20
383.102026
10
1107.183505
20
382.940722
10
1107.187178
20
382.779291
10
1107.189886
20
382.617796
10
1107.182742
20
382.456220
10
1107.174553
20
382.294753
10
1107.164275
20
382.133504
10
1107.150863
20
381.972583
10
1107.133275
20
381.812098
10
1107.110866
20
381.652147
10
1107.083887
20
381.492805
10
1107.052706
20
381.334142
10
1107.017693
20
381.176230
10
1106.979209
20
381.019139
10
1106.937387
20
380.862960
10
1106.892115
20
380.707801
10
1106.843274
20
380.553771
10
1106.790743
20
380.400981
10
1106.734418
20
380.249535
10
1106.674352
20
380.099503
10
1106.610674
20
379.950938
10
1106.543517
20
379.803891
10
1106.473011
20
379.658414
10
1106.399278
20
379.514558
10
1106.322405
20
379.372371
10
1106.242466
20
379.231900
10
1106.159536
20
379.093191
10
1106.073688
20
378.956291
10
1105.985014
20
378.821228
10
1105.893667
20
378.687954
10
1105.799814
20
378.556406
10
1105.703624
20
378.426521
10
1105.605264
20
378.298234
10
1105.504868
20
378.171510
10
1105.402406
20
378.046462
10
1105.297794
20
377.923249
10
1105.190948
20
377.802027
10
1105.081785
20
377.682955
10
1104.970239
20
377.566171
10
1104.856526
20
377.451499
10
1104.741073
20
377.338520
10
1104.624317
20
377.226812
10
1104.506692
20
377.115951
10
1104.388632
20
377.005514
10
1103.545596
20
376.246441
10
1102.917636
20
376.943862
10
1103.018041
20
377.017307
10
1103.117589
20
377.091878
10
1103.215619
20
377.168436
10
1103.312317
20
377.246701
10
1103.408090
20
377.326095
10
1103.503190
20
377.406277
10
1103.597747
20
377.487087
10
1103.691825
20
377.568442
10
1103.785192
20
377.650622
10
1103.877525
20
377.734014
10
1103.968445
20
377.819028
10
1104.057287
20
377.906186
10
1104.143294
20
377.996046
10
1104.225783
20
378.089103
10
1104.304846
20
378.185156
10
1104.381046
20
378.283587
10
1104.454952
20
378.383771
10
1104.526879
20
378.485323
10
1104.596679
20
378.588298
10
1104.664155
20
378.692795
10
1104.729109
20
378.798908
10
1104.791341
20
378.906668
10
1104.850649
20
379.016073
10
1104.906833
20
379.127117
10
1104.959693
20
379.239790
10
1105.009044
20
379.354046
10
1105.054707
20
379.469829
10
1105.096502
20
379.587081
10
1105.134228
20
379.705735
10
1105.167612
20
379.825683
10
1105.196362
20
379.946807
10
1105.220186
20
380.068990
10
1105.238900
20
380.192082
10
1105.252629
20
380.315852
10
1105.261556
20
380.440050
10
1105.265864
20
380.564427
10
1105.265953
20
380.688796
10
1105.262806
20
380.813138
10
1105.257501
20
380.937462
0
LWPOLYLINE
8
PIEZAS
90
46
70
1
10
1072.974062
20
348.719708
10
1071.957310
20
347.804221
10
1058.776541
20
355.558765
10
1058.701199
20
355.529643
10
1058.625849
20
355.500545
10
1058.550481
20
355.471492
10
1058.475087
20
355.442509
10
1058.399658
20
355.413619
10
1058.324186
20
355.384844
10
1058.248661
20
355.356207
10
1058.173076
20
355.327731
10
1058.097431
20
355.299415
10
1058.021744
20
355.271209
10
1057.946034
20
355.243065
10
1057.870320
20
355.214930
10
1057.794620
20
355.186754
10
1057.718955
20
355.158486
10
1057.643342
20
355.130075
10
1057.567781
20
355.101526
10
1057.492237
20
355.072929
10
1057.416677
20
355.044380
10
1057.341063
20
355.015975
10
1057.265363
20
354.987811
10
1057.189538
20
354.959984
10
1057.113578
20
354.932529
10
1057.037521
20
354.905336
10
1056.961417
20
354.878270
10
1056.885314
20
354.851199
10
1056.809262
20
354.823988
10
1056.733299
20
354.796528
10
1056.657400
20
354.768895
10
1056.581504
20
354.741252
10
1056.505555
20
354.713762
10
1056.429491
20
354.686588
10
1056.353271
20
354.659856
10
1056.276887
20
354.633588
10
1056.200341
20
354.607794
10
1056.123634
20
354.582481
10
1056.046758
20
354.557685
10
1055.969695
20
354.533484
10
1055.892426
20
354.509958
10
1055.814969
20
354.487054
10
1055.737415
20
354.464475
10
1055.279671
20
354.972851
10
1059.167853
20
358.473786
10
1071.901668
20
350.969038
0
LWPOLYLINE
8
PIEZAS
90
324
70
1
10
1085.710427
20
365.275942
10
1085.703028
20
365.212352
10
1085.695632
20
365.148761
10
1085.688242
20
365.085170
10
1085.680861
20
365.021578
10
1085.673492
20
364.957985
10
1085.666138
20
364.894390
10
1085.658801
20
364.830793
10
1085.651487
20
364.767194
10
1085.644216
20
364.703589
10
1085.637015
20
364.639977
10
1085.629911
20
364.576354
10
1085.622933
20
364.512716
10
1085.616108
20
364.449061
10
1085.609463
20
364.385385
10
1085.603027
20
364.321686
10
1085.596833
20
364.257964
10
1085.590912
20
364.194216
10
1085.585299
20
364.130442
10
1085.580024
20
364.066641
10
1085.575121
20
364.002813
10
1085.570573
20
363.938959
10
1085.566285
20
363.875086
10
1085.562155
20
363.811200
10
1085.558079
20
363.747308
10
1085.553955
20
363.683418
10
1085.549726
20
363.619533
10
1085.545526
20
363.555647
10
1085.541540
20
363.491751
10
1085.537952
20
363.427836
10
1085.534946
20
363.363892
10
1085.532624
20
363.299918
10
1085.530957
20
363.235918
10
1085.529903
20
363.171900
10
1085.529422
20
363.107870
10
1085.529538
20
363.043839
10
1085.530405
20
362.979821
10
1085.532189
20
362.915830
10
1085.535006
20
362.851880
10
1085.538612
20
362.787962
10
1085.542611
20
362.724059
10
1085.793311
20
360.262212
10
1085.328365
20
359.843572
10
1084.031986
20
361.627556
10
1084.023963
20
361.848993
10
1084.016030
20
362.070432
10
1084.008278
20
362.291878
10
1084.000795
20
362.513332
10
1083.993662
20
362.734799
10
1083.986867
20
362.956276
10
1083.980345
20
363.177762
10
1083.974032
20
363.399253
10
1083.967866
20
363.620749
10
1083.961810
20
363.842247
10
1083.955843
20
364.063747
10
1083.949941
20
364.285251
10
1083.944136
20
364.506759
10
1083.938671
20
364.728275
10
1083.933849
20
364.949803
10
1083.929952
20
365.171348
10
1083.926927
20
365.392908
10
1083.924388
20
365.614477
10
1083.921941
20
365.836045
10
1083.919394
20
366.057611
10
1083.916886
20
366.279178
10
1083.914591
20
366.500751
10
1083.912865
20
366.722330
10
1083.912319
20
366.943910
10
1083.913501
20
367.165483
10
1083.916147
20
367.387050
10
1083.919512
20
367.608612
10
1083.922708
20
367.830174
10
1083.924616
20
368.051743
10
1083.924648
20
368.273322
10
1083.923864
20
368.494906
10
1083.923052
20
368.716487
10
1083.921030
20
368.938059
10
1083.916481
20
369.159599
10
1083.908813
20
369.381046
10
1083.898582
20
369.602394
10
1083.887183
20
369.823684
10
1083.873299
20
370.044833
10
1083.854815
20
370.265641
10
1083.831728
20
370.486018
10
1083.819138
20
370.574129
10
1083.806326
20
370.662201
10
1083.793071
20
370.750198
10
1083.779151
20
370.838081
10
1083.764344
20
370.925813
10
1083.748431
20
371.013355
10
1083.731299
20
371.100679
10
1083.712960
20
371.187769
10
1083.693437
20
371.274608
10
1083.672752
20
371.361180
10
1083.650926
20
371.447468
10
1083.627982
20
371.533459
10
1083.603938
20
371.619145
10
1083.578814
20
371.704519
10
1083.552627
20
371.789574
10
1083.525396
20
371.874305
10
1083.497128
20
371.958700
10
1083.467767
20
372.042719
10
1083.437233
20
372.126317
10
1083.405449
20
372.209445
10
1083.372336
20
372.292057
10
1083.337824
20
372.374105
10
1083.301886
20
372.455543
10
1083.264506
20
372.536328
10
1083.225671
20
372.616416
10
1083.185365
20
372.695760
10
1083.143592
20
372.774331
10
1083.100417
20
372.852143
10
1083.055917
20
372.929219
10
1083.010167
20
373.005584
10
1082.963244
20
373.081260
10
1082.915143
20
373.156205
10
1082.865732
20
373.230274
10
1082.814865
20
373.303312
10
1082.762397
20
373.375162
10
1082.708206
20
373.445689
10
1082.652470
20
373.515014
10
1082.595571
20
373.583435
10
1082.537896
20
373.651252
10
1082.479834
20
373.718768
10
1082.404516
20
373.801062
10
1082.328737
20
373.882910
10
1082.252036
20
373.963869
10
1082.173978
20
374.043516
10
1082.094497
20
374.121767
10
1082.013802
20
374.198791
10
1081.932105
20
374.274756
10
1081.849478
20
374.349692
10
1081.765803
20
374.423440
10
1081.680951
20
374.495828
10
1081.594809
20
374.566687
10
1081.507293
20
374.635853
10
1081.418320
20
374.703158
10
1081.327771
20
374.768335
10
1081.235493
20
374.831003
10
1081.141353
20
374.890814
10
1081.045475
20
374.947830
10
1080.948133
20
375.002354
10
1080.849506
20
375.054506
10
1080.749495
20
375.103897
10
1080.647964
20
375.150066
10
1080.544914
20
375.192786
10
1080.440443
20
375.231990
10
1080.334601
20
375.267333
10
1080.227351
20
375.297969
10
1080.118717
20
375.323254
10
1080.008966
20
375.343462
10
1079.898414
20
375.358924
10
1079.787309
20
375.368978
10
1079.675875
20
375.372710
10
1079.564314
20
375.370660
10
1079.452833
20
375.364131
10
1079.341854
20
375.352557
10
1079.231959
20
375.333982
10
1079.123332
20
375.308533
10
1079.015769
20
375.278445
10
1078.909471
20
375.244439
10
1078.805202
20
375.205076
10
1078.703163
20
375.160145
10
1078.602314
20
375.112257
10
1077.932950
20
375.855662
10
1078.010305
20
375.918506
10
1078.087861
20
375.981083
10
1078.165819
20
376.043123
10
1078.244378
20
376.104359
10
1078.323740
20
376.164521
10
1078.404102
20
376.223345
10
1078.485548
20
376.280698
10
1078.568012
20
376.336619
10
1078.651419
20
376.391161
10
1078.735692
20
376.444373
10
1078.820755
20
376.496308
10
1078.906551
20
376.546996
10
1078.993077
20
376.596400
10
1079.080344
20
376.644467
10
1079.168364
20
376.691144
10
1079.257146
20
376.736380
10
1079.346703
20
376.780108
10
1079.437050
20
376.822193
10
1079.528206
20
376.862476
10
1079.620188
20
376.900798
10
1079.713013
20
376.937001
10
1079.806683
20
376.970966
10
1079.901133
20
377.002735
10
1079.996279
20
377.032398
10
1080.092038
20
377.060042
10
1080.188325
20
377.085755
10
1080.285075
20
377.109595
10
1080.382262
20
377.131538
10
1080.479869
20
377.151551
10
1080.577878
20
377.169597
10
1080.676269
20
377.185640
10
1080.775006
20
377.199573
10
1080.874028
20
377.211194
10
1080.973271
20
377.220301
10
1081.072674
20
377.226687
10
1081.172177
20
377.230200
10
1081.271747
20
377.231184
10
1081.371367
20
377.230269
10
1081.471020
20
377.228089
10
1081.570690
20
377.225276
10
1081.655284
20
377.217195
10
1081.739823
20
377.208722
10
1081.824252
20
377.199467
10
1081.908515
20
377.189039
10
1081.992557
20
377.177046
10
1082.076327
20
377.163159
10
1082.159788
20
377.147369
10
1082.242911
20
377.129761
10
1082.325666
20
377.110425
10
1082.408022
20
377.089447
10
1082.489948
20
377.066899
10
1082.571410
20
377.042780
10
1082.652373
20
377.017068
10
1082.732801
20
376.989741
10
1082.812658
20
376.960779
10
1082.891906
20
376.930164
10
1082.970500
20
376.897890
10
1083.048390
20
376.863956
10
1083.125530
20
376.828358
10
1083.201871
20
376.791094
10
1083.277382
20
376.752185
10
1083.352061
20
376.711697
10
1083.425911
20
376.669703
10
1083.498937
20
376.626275
10
1083.571140
20
376.581485
10
1083.642500
20
376.535367
10
1083.712957
20
376.487892
10
1083.782447
20
376.439027
10
1083.850908
20
376.388738
10
1083.918276
20
376.336992
10
1083.984519
20
376.283799
10
1084.049642
20
376.229231
10
1084.113655
20
376.173362
10
1084.176570
20
376.116269
10
1084.238395
20
376.058027
10
1084.299207
20
375.998755
10
1084.359196
20
375.938653
10
1084.418569
20
375.877928
10
1084.477532
20
375.816788
10
1084.536289
20
375.755440
10
1084.683947
20
375.581827
10
1084.823849
20
375.402297
10
1084.952000
20
375.213985
10
1085.071665
20
375.019932
10
1085.183867
20
374.821683
10
1085.286134
20
374.618283
10
1085.379148
20
374.410315
10
1085.466206
20
374.199688
10
1085.547201
20
373.986797
10
1085.619613
20
373.770938
10
1085.683955
20
373.552418
10
1085.743326
20
373.332416
10
1085.798726
20
373.111459
10
1085.848465
20
372.889241
10
1085.891593
20
372.665615
10
1085.929436
20
372.440961
10
1085.963484
20
372.215700
10
1085.993749
20
371.989949
10
1086.019548
20
371.763679
10
1086.040820
20
371.536922
10
1086.058598
20
371.309826
10
1086.073928
20
371.082538
10
1086.086723
20
370.855119
10
1086.096162
20
370.627570
10
1086.101640
20
370.399896
10
1086.103788
20
370.172137
10
1086.103641
20
369.944341
10
1086.101944
20
369.716556
10
1086.098292
20
369.488819
10
1086.091999
20
369.261163
10
1086.082604
20
369.033615
10
1086.070633
20
368.806165
10
1086.056875
20
368.578795
10
1086.042006
20
368.351492
10
1086.025838
20
368.124293
10
1086.007787
20
367.897258
10
1085.987292
20
367.670443
10
1085.964432
20
367.443845
10
1085.939972
20
367.217394
10
1085.914713
20
366.991015
10
1085.909462
20
366.948155
10
1085.904212
20
366.905296
10
1085.898963
20
366.862436
10
1085.893716
20
366.819575
10
1085.888473
20
366.776715
10
1085.883232
20
366.733854
10
1085.877996
20
366.690992
10
1085.872765
20
366.648130
10
1085.867539
20
366.605268
10
1085.862320
20
366.562404
10
1085.857108
20
366.519540
10
1085.851904
20
366.476674
10
1085.846708
20
366.433808
10
1085.841521
20
366.390941
10
1085.836344
20
366.348072
10
1085.831178
20
366.305202
10
1085.826023
20
366.262331
10
1085.820880
20
366.219459
10
1085.815750
20
366.176585
10
1085.810633
20
366.133709
10
1085.805530
20
366.090832
10
1085.800442
20
366.047953
10
1085.795367
20
366.005072
10
1085.790304
20
365.962190
10
1085.785254
20
365.919306
10
1085.780215
20
365.876421
10
1085.775186
20
365.833535
10
1085.770167
20
365.790648
10
1085.765157
20
365.747759
10
1085.760156
20
365.704870
10
1085.755161
20
365.661980
10
1085.750174
20
365.619089
10
1085.745192
20
365.576197
10
1085.740216
20
365.533304
10
1085.735245
20
365.490411
10
1085.730277
20
365.447518
10
1085.725312
20
365.404624
10
1085.720349
20
365.361730
10
1085.715388
20
365.318836
0
LWPOLYLINE
8
PIEZAS
90
284
70
1
10
1049.465599
20
339.154051
10
1049.525080
20
339.208380
10
1049.584448
20
339.262827
10
1049.643587
20
339.317506
10
1049.702384
20
339.372536
10
1049.760724
20
339.428033
10
1049.818495
20
339.484114
10
1049.875589
20
339.540885
10
1049.931996
20
339.598353
10
1049.987764
20
339.656456
10
1050.042941
20
339.715137
10
1050.097575
20
339.774333
10
1050.151715
20
339.833986
10
1050.205401
20
339.894043
10
1050.258593
20
339.954528
10
1050.311218
20
340.015497
10
1050.363200
20
340.077008
10
1050.414463
20
340.139119
10
1050.464932
20
340.201888
10
1050.514534
20
340.265360
10
1050.563196
20
340.329559
10
1050.610849
20
340.394508
10
1050.657421
20
340.460227
10
1050.702841
20
340.526738
10
1050.747067
20
340.594046
10
1050.790131
20
340.662108
10
1050.832072
20
340.730877
10
1050.872932
20
340.800306
10
1050.912749
20
340.870348
10
1050.951432
20
340.941020
10
1050.988744
20
341.012413
10
1051.024441
20
341.084620
10
1051.058278
20
341.157735
10
1051.090026
20
341.231824
10
1051.119509
20
341.306854
10
1051.146565
20
341.382767
10
1051.171032
20
341.459505
10
1051.192846
20
341.536996
10
1051.212512
20
341.615076
10
1051.230746
20
341.693548
10
1051.248265
20
341.772217
10
1051.256710
20
341.848879
10
1051.264413
20
341.925569
10
1051.270634
20
342.002315
10
1051.274630
20
342.079144
10
1051.275720
20
342.156078
10
1051.273816
20
342.233063
10
1051.269178
20
342.310008
10
1051.262071
20
342.386817
10
1051.252757
20
342.463397
10
1051.241362
20
342.539660
10
1051.227813
20
342.615525
10
1051.212021
20
342.690914
10
1051.193898
20
342.765748
10
1051.173387
20
342.839958
10
1051.150640
20
342.913537
10
1051.125881
20
342.986501
10
1051.099334
20
343.058868
10
1051.071226
20
343.130652
10
1051.041714
20
343.201853
10
1051.010782
20
343.272423
10
1050.978387
20
343.342308
10
1050.944486
20
343.411452
10
1050.909035
20
343.479801
10
1050.872041
20
343.547329
10
1050.833622
20
343.614075
10
1050.793913
20
343.680085
10
1050.753049
20
343.745408
10
1050.711164
20
343.810091
10
1050.668376
20
343.874173
10
1050.624715
20
343.937649
10
1050.580174
20
344.000493
10
1050.534746
20
344.062684
10
1050.488427
20
344.124196
10
1050.441210
20
344.185006
10
1050.393125
20
344.245124
10
1050.344302
20
344.304651
10
1050.294888
20
344.363705
10
1050.245032
20
344.422406
10
1050.194881
20
344.480870
10
1050.144582
20
344.539216
10
1050.052153
20
344.637580
10
1049.958927
20
344.735155
10
1049.864108
20
344.831152
10
1049.767017
20
344.924878
10
1049.667571
20
345.016141
10
1049.565882
20
345.104910
10
1049.462027
20
345.191119
10
1049.355951
20
345.274565
10
1049.247563
20
345.355008
10
1049.136724
20
345.432067
10
1049.023207
20
345.505093
10
1048.906795
20
345.573433
10
1048.787551
20
345.636731
10
1048.665707
20
345.694819
10
1048.541486
20
345.747591
10
1048.415098
20
345.795066
10
1048.286720
20
345.837057
10
1048.156391
20
345.872226
10
1048.024139
20
345.899009
10
1047.890385
20
345.917525
10
1047.755799
20
345.928958
10
1047.620879
20
345.933616
10
1047.485930
20
345.930858
10
1047.351329
20
345.920227
10
1047.217588
20
345.901673
10
1047.085170
20
345.875359
10
1046.954354
20
345.841951
10
1046.825367
20
345.802186
10
1046.698283
20
345.756671
10
1046.573142
20
345.705939
10
1046.450254
20
345.650010
10
1046.330154
20
345.588476
10
1046.213099
20
345.521361
10
1046.098572
20
345.449856
10
1045.985972
20
345.375284
10
1045.875319
20
345.297951
10
1045.767145
20
345.217323
10
1045.661815
20
345.133059
10
1045.558633
20
345.046074
10
1045.456525
20
344.957728
10
1045.439843
20
344.942308
10
1045.423167
20
344.926884
10
1045.406501
20
344.911450
10
1045.389850
20
344.896002
10
1045.373218
20
344.880535
10
1045.356612
20
344.865045
10
1045.340035
20
344.849526
10
1045.323493
20
344.833974
10
1045.306991
20
344.818384
10
1045.290534
20
344.802752
10
1045.274127
20
344.787073
10
1045.257774
20
344.771341
10
1045.241481
20
344.755553
10
1045.225253
20
344.739704
10
1045.209095
20
344.723788
10
1045.193011
20
344.707801
10
1045.177007
20
344.691739
10
1045.161088
20
344.675597
10
1045.145258
20
344.659369
10
1045.129523
20
344.643052
10
1045.113887
20
344.626640
10
1045.098356
20
344.610129
10
1045.082925
20
344.593523
10
1045.067590
20
344.576826
10
1045.052346
20
344.560043
10
1045.037185
20
344.543180
10
1045.022104
20
344.526242
10
1045.007096
20
344.509235
10
1044.992155
20
344.492164
10
1044.977276
20
344.475034
10
1044.962454
20
344.457850
10
1044.947682
20
344.440619
10
1044.932955
20
344.423345
10
1044.918267
20
344.406033
10
1044.903614
20
344.388689
10
1044.888988
20
344.371319
10
1044.874385
20
344.353927
10
1044.859799
20
344.336519
10
1044.845224
20
344.319101
10
1044.830655
20
344.301677
10
1044.202695
20
344.999097
10
1044.953763
20
345.675362
10
1045.078733
20
345.785212
10
1045.204119
20
345.894571
10
1045.330337
20
346.002950
10
1045.457778
20
346.109885
10
1045.586529
20
346.215257
10
1045.716473
20
346.319175
10
1045.847497
20
346.421744
10
1045.979649
20
346.522847
10
1046.113159
20
346.622123
10
1046.248258
20
346.719208
10
1046.384993
20
346.813990
10
1046.523179
20
346.906674
10
1046.662628
20
346.997471
10
1046.803385
20
347.086208
10
1046.945737
20
347.172327
10
1047.089949
20
347.255296
10
1047.235992
20
347.335033
10
1047.383665
20
347.411715
10
1047.532806
20
347.485467
10
1047.683396
20
347.556219
10
1047.835450
20
347.623843
10
1047.989091
20
347.687779
10
1048.144547
20
347.747041
10
1048.301919
20
347.801009
10
1048.460867
20
347.850303
10
1048.621008
20
347.895642
10
1048.782347
20
347.936336
10
1048.945086
20
347.970966
10
1049.109161
20
347.998823
10
1049.274221
20
348.019970
10
1049.439952
20
348.034711
10
1049.606137
20
348.043710
10
1049.772541
20
348.046999
10
1049.938869
20
348.043038
10
1050.104804
20
348.030611
10
1050.269994
20
348.010118
10
1050.434067
20
347.982098
10
1050.596602
20
347.946542
10
1050.757426
20
347.904044
10
1050.917290
20
347.857783
10
1051.050106
20
347.809479
10
1051.181943
20
347.759008
10
1051.311824
20
347.704204
10
1051.438822
20
347.643045
10
1051.562645
20
347.575306
10
1051.683425
20
347.501949
10
1051.801298
20
347.423961
10
1051.916301
20
347.341995
10
1052.028292
20
347.256108
10
1052.137107
20
347.166289
10
1052.242603
20
347.072560
10
1052.344763
20
346.975146
10
1052.443627
20
346.874358
10
1052.539233
20
346.770505
10
1052.631657
20
346.663871
10
1052.721049
20
346.554682
10
1052.807569
20
346.443159
10
1052.891336
20
346.329500
10
1052.971999
20
346.213632
10
1053.048892
20
346.095298
10
1053.121341
20
345.974241
10
1053.188968
20
345.850393
10
1053.251954
20
345.724057
10
1053.310546
20
345.595578
10
1053.364871
20
345.465246
10
1053.414573
20
345.333132
10
1053.459177
20
345.199254
10
1053.498269
20
345.063654
10
1053.531854
20
344.926547
10
1053.560113
20
344.788221
10
1053.583211
20
344.648956
10
1053.601151
20
344.508956
10
1053.613835
20
344.368379
10
1053.621161
20
344.227383
10
1053.623019
20
344.086190
10
1053.619287
20
343.945077
10
1053.609857
20
343.804320
10
1053.595307
20
343.664033
10
1053.577282
20
343.524072
10
1053.557520
20
343.384276
10
1053.533273
20
343.266963
10
1053.508169
20
343.149881
10
1053.481350
20
343.033259
10
1053.451961
20
342.917328
10
1053.419200
20
342.802305
10
1053.382980
20
342.688257
10
1053.343693
20
342.575149
10
1053.301740
20
342.462944
10
1053.257522
20
342.351604
10
1053.211310
20
342.241121
10
1053.163077
20
342.131552
10
1053.112751
20
342.022966
10
1053.060262
20
341.915429
10
1053.005544
20
341.809006
10
1052.948642
20
341.703715
10
1052.889686
20
341.599536
10
1052.828810
20
341.496449
10
1052.766146
20
341.394431
10
1052.701820
20
341.293465
10
1052.635892
20
341.193552
10
1052.568395
20
341.094703
10
1052.499361
20
340.996929
10
1052.428824
20
340.900238
10
1052.356818
20
340.804640
10
1052.283397
20
340.710124
10
1052.208622
20
340.616667
10
1052.132558
20
340.524248
10
1052.055266
20
340.432845
10
1051.976810
20
340.342437
10
1051.897230
20
340.253019
10
1051.816546
20
340.164602
10
1051.734775
20
340.077198
10
1051.651935
20
339.990819
10
1051.568044
20
339.905478
10
1051.483138
20
339.821164
10
1051.397357
20
339.737743
10
1051.310875
20
339.655035
10
1051.223868
20
339.572862
10
1051.136511
20
339.491047
10
1051.048978
20
339.409410
10
1050.047554
20
338.507723
0
LWPOLYLINE
8
PIEZAS
90
166
70
1
10
1065.879566
20
345.625351
10
1058.015114
20
354.359711
10
1059.332187
20
354.874871
10
1066.847006
20
346.528819
10
1066.872171
20
346.503049
10
1066.897378
20
346.477330
10
1066.922670
20
346.451711
10
1066.948087
20
346.426243
10
1066.973672
20
346.400976
10
1066.999467
20
346.375961
10
1067.025514
20
346.351248
10
1067.051855
20
346.326886
10
1067.078532
20
346.302927
10
1067.105587
20
346.279421
10
1067.133062
20
346.256417
10
1067.160999
20
346.233967
10
1067.189422
20
346.212108
10
1067.218327
20
346.190856
10
1067.247706
20
346.170225
10
1067.277550
20
346.150229
10
1067.307850
20
346.130882
10
1067.338600
20
346.112197
10
1067.369790
20
346.094188
10
1067.401412
20
346.076870
10
1067.433458
20
346.060256
10
1067.465920
20
346.044360
10
1067.498786
20
346.029213
10
1067.532033
20
346.014891
10
1067.565636
20
346.001482
10
1067.599572
20
345.989070
10
1067.633816
20
345.977741
10
1067.668344
20
345.967581
10
1067.703130
20
345.958675
10
1067.738152
20
345.951110
10
1067.773383
20
345.944969
10
1067.808802
20
345.940305
10
1067.844385
20
345.936997
10
1067.880113
20
345.934875
10
1067.915965
20
345.933771
10
1067.951920
20
345.933515
10
1067.987957
20
345.933937
10
1068.024057
20
345.934868
10
1068.060198
20
345.936137
10
1068.096359
20
345.937577
10
1068.127900
20
345.943594
10
1068.159422
20
345.949675
10
1068.190910
20
345.955883
10
1068.222344
20
345.962281
10
1068.253708
20
345.968933
10
1068.284983
20
345.975903
10
1068.316152
20
345.983253
10
1068.347197
20
345.991048
10
1068.378100
20
345.999351
10
1068.408846
20
346.008220
10
1068.439432
20
346.017653
10
1068.469868
20
346.027604
10
1068.500165
20
346.038025
10
1068.530333
20
346.048871
10
1068.560381
20
346.060092
10
1068.590320
20
346.071644
10
1068.620159
20
346.083477
10
1068.649909
20
346.095546
10
1068.679579
20
346.107803
10
1068.709182
20
346.120202
10
1068.738733
20
346.132694
10
1068.768254
20
346.145234
10
1068.797763
20
346.157773
10
1068.827281
20
346.170265
10
1068.856826
20
346.182662
10
1068.886420
20
346.194918
10
1068.916080
20
346.206985
10
1068.945827
20
346.218815
10
1068.975680
20
346.230363
10
1069.005659
20
346.241585
10
1069.035761
20
346.252482
10
1069.065975
20
346.263087
10
1069.096289
20
346.273433
10
1069.126690
20
346.283551
10
1069.157166
20
346.293475
10
1069.187704
20
346.303236
10
1069.218291
20
346.312868
10
1069.248916
20
346.322402
10
1069.279566
20
346.331871
10
1069.310228
20
346.341308
10
1069.767972
20
345.832932
10
1066.311527
20
342.720735
10
1065.853783
20
343.229111
10
1065.865164
20
343.256728
10
1065.876579
20
343.284327
10
1065.888063
20
343.311892
10
1065.899652
20
343.339404
10
1065.911378
20
343.366846
10
1065.923278
20
343.394200
10
1065.935384
20
343.421449
10
1065.947733
20
343.448575
10
1065.960358
20
343.475561
10
1065.973295
20
343.502389
10
1065.986574
20
343.529044
10
1066.000184
20
343.555532
10
1066.014086
20
343.581876
10
1066.028237
20
343.608098
10
1066.042596
20
343.634222
10
1066.057122
20
343.660270
10
1066.071773
20
343.686266
10
1066.086507
20
343.712233
10
1066.101285
20
343.738193
10
1066.116063
20
343.764170
10
1066.130800
20
343.790186
10
1066.145446
20
343.816264
10
1066.159941
20
343.842425
10
1066.174224
20
343.868691
10
1066.188236
20
343.895082
10
1066.201915
20
343.921620
10
1066.215203
20
343.948327
10
1066.228038
20
343.975224
10
1066.240361
20
344.002332
10
1066.252111
20
344.029672
10
1066.263234
20
344.057265
10
1066.273743
20
344.085103
10
1066.283705
20
344.113159
10
1066.293189
20
344.141407
10
1066.302263
20
344.169818
10
1066.310996
20
344.198366
10
1066.319455
20
344.227023
10
1066.327710
20
344.255762
10
1066.335828
20
344.284556
10
1066.343877
20
344.313377
10
1066.349875
20
344.349431
10
1066.355678
20
344.385482
10
1066.361094
20
344.421527
10
1066.365927
20
344.457565
10
1066.369983
20
344.493592
10
1066.373069
20
344.529606
10
1066.374990
20
344.565605
10
1066.375552
20
344.601584
10
1066.374562
20
344.637543
10
1066.371924
20
344.673468
10
1066.367723
20
344.709327
10
1066.362065
20
344.745086
10
1066.355057
20
344.780712
10
1066.346806
20
344.816170
10
1066.337416
20
344.851428
10
1066.326995
20
344.886450
10
1066.315648
20
344.921204
10
1066.303483
20
344.955654
10
1066.290584
20
344.989773
10
1066.276973
20
345.023549
10
1066.262656
20
345.056970
10
1066.247641
20
345.090030
10
1066.231935
20
345.122718
10
1066.215546
20
345.155025
10
1066.198481
20
345.186942
10
1066.180747
20
345.218460
10
1066.162352
20
345.249570
10
1066.143302
20
345.280262
10
1066.123612
20
345.310533
10
1066.103325
20
345.340409
10
1066.082495
20
345.369927
10
1066.061177
20
345.399121
10
1066.039425
20
345.428028
10
1066.017294
20
345.456684
10
1065.994836
20
345.485124
10
1065.972108
20
345.513385
10
1065.949162
20
345.541502
10
1065.926054
20
345.569512
10
1065.902837
20
345.597450
0
LWPOLYLINE
8
PIEZAS
90
85
70
1
10
1092.578470
20
366.371597
10
1086.577590
20
360.968380
10
1086.299562
20
363.373241
10
1087.773597
20
364.700468
10
1087.834013
20
364.756209
10
1087.894326
20
364.812056
10
1087.954431
20
364.868116
10
1088.014227
20
364.924495
10
1088.073608
20
364.981300
10
1088.132471
20
365.038637
10
1088.190714
20
365.096611
10
1088.248265
20
365.155287
10
1088.305099
20
365.214670
10
1088.361196
20
365.274756
10
1088.416535
20
365.335545
10
1088.471096
20
365.397035
10
1088.524857
20
365.459225
10
1088.577794
20
365.522117
10
1088.629873
20
365.585718
10
1088.681057
20
365.650036
10
1088.731312
20
365.715082
10
1088.780603
20
365.780863
10
1088.828890
20
365.847389
10
1088.876094
20
365.914691
10
1088.922110
20
365.982810
10
1088.966834
20
366.051786
10
1089.010161
20
366.121660
10
1089.051985
20
366.192473
10
1089.092160
20
366.264248
10
1089.130516
20
366.336998
10
1089.166885
20
366.410735
10
1089.201095
20
366.485471
10
1089.232999
20
366.561211
10
1089.262541
20
366.637917
10
1089.289688
20
366.715543
10
1089.314405
20
366.794046
10
1089.336625
20
366.873375
10
1089.355973
20
366.953447
10
1089.371906
20
367.034164
10
1089.383883
20
367.115425
10
1089.391502
20
367.197128
10
1089.395468
20
367.279167
10
1089.396995
20
367.361428
10
1089.397304
20
367.443801
10
1089.392441
20
367.504241
10
1089.387313
20
367.564645
10
1089.381654
20
367.624978
10
1089.375198
20
367.685202
10
1089.367680
20
367.745284
10
1089.358894
20
367.805193
10
1089.348926
20
367.864936
10
1089.337957
20
367.924532
10
1089.326164
20
367.983998
10
1089.313728
20
368.043352
10
1089.300803
20
368.102607
10
1089.287337
20
368.161731
10
1089.273162
20
368.220664
10
1089.258107
20
368.279351
10
1089.242005
20
368.337734
10
1089.224690
20
368.395755
10
1089.206170
20
368.453412
10
1089.186677
20
368.510772
10
1089.166458
20
368.567906
10
1089.145758
20
368.624884
10
1089.124826
20
368.681779
10
1089.103884
20
368.738656
10
1089.083013
20
368.795543
10
1089.062240
20
368.852454
10
1089.041591
20
368.909403
10
1089.021094
20
368.966405
10
1089.000775
20
369.023473
10
1088.980662
20
369.080621
10
1088.960787
20
369.137855
10
1088.941180
20
369.195184
10
1088.921874
20
369.252616
10
1088.902899
20
369.310158
10
1088.884284
20
369.367818
10
1088.866059
20
369.425601
10
1088.848250
20
369.483512
10
1088.830886
20
369.541555
10
1088.813972
20
369.599730
10
1088.797413
20
369.658008
10
1088.781093
20
369.716356
10
1088.764891
20
369.774739
10
1089.178745
20
370.147374
0
LWPOLYLINE
8
PIEZAS
90
321
70
1
10
1076.029637
20
372.282347
10
1076.034075
20
372.362580
10
1076.038845
20
372.442784
10
1076.044280
20
372.522929
10
1076.050712
20
372.602987
10
1076.058472
20
372.682928
10
1076.067817
20
372.762719
10
1076.078795
20
372.842320
10
1076.091418
20
372.921686
10
1076.105697
20
373.000775
10
1076.121645
20
373.079543
10
1076.139264
20
373.157950
10
1076.158543
20
373.235963
10
1076.179468
20
373.313547
10
1076.202026
20
373.390669
10
1076.226202
20
373.467296
10
1076.251962
20
373.543405
10
1076.279248
20
373.618982
10
1076.308003
20
373.694018
10
1076.338169
20
373.768498
10
1076.369690
20
373.842411
10
1076.402528
20
373.915744
10
1076.436654
20
373.988485
10
1076.472041
20
374.060619
10
1076.508664
20
374.132133
10
1076.546495
20
374.203014
10
1076.585515
20
374.273247
10
1076.625710
20
374.342816
10
1076.667062
20
374.411706
10
1076.709557
20
374.479901
10
1076.753180
20
374.547385
10
1076.797912
20
374.614140
10
1076.843737
20
374.680149
10
1076.890636
20
374.745390
10
1076.938591
20
374.809846
10
1076.987582
20
374.873499
10
1077.037516
20
374.936404
10
1077.088210
20
374.998705
10
1077.139473
20
375.060555
10
1077.191116
20
375.122102
10
1077.242949
20
375.183499
10
1077.831806
20
374.529508
10
1077.800050
20
374.494426
10
1077.768364
20
374.459292
10
1077.736819
20
374.424051
10
1077.705486
20
374.388650
10
1077.674434
20
374.353036
10
1077.643735
20
374.317156
10
1077.613458
20
374.280955
10
1077.583674
20
374.244381
10
1077.554453
20
374.207381
10
1077.525866
20
374.169902
10
1077.497983
20
374.131889
10
1077.470845
20
374.093320
10
1077.444445
20
374.054214
10
1077.418776
20
374.014594
10
1077.393830
20
373.974483
10
1077.369598
20
373.933905
10
1077.346071
20
373.892882
10
1077.323242
20
373.851439
10
1077.301100
20
373.809598
10
1077.279639
20
373.767382
10
1077.258850
20
373.724815
10
1077.238743
20
373.681914
10
1077.219364
20
373.638686
10
1077.200761
20
373.595138
10
1077.182985
20
373.551276
10
1077.166082
20
373.507105
10
1077.150104
20
373.462632
10
1077.135097
20
373.417863
10
1077.121112
20
373.372804
10
1077.108198
20
373.327462
10
1077.096397
20
373.281843
10
1077.085661
20
373.235966
10
1077.075875
20
373.189859
10
1077.066919
20
373.143552
10
1077.058675
20
373.097074
10
1077.051024
20
373.050451
10
1077.043847
20
373.003715
10
1077.037026
20
372.956892
10
1077.030443
20
372.910012
10
1077.023978
20
372.863103
10
1077.022266
20
372.823695
10
1077.020627
20
372.784289
10
1077.019135
20
372.744888
10
1077.017864
20
372.705497
10
1077.016888
20
372.666116
10
1077.016279
20
372.626749
10
1077.016111
20
372.587399
10
1077.016458
20
372.548068
10
1077.017393
20
372.508759
10
1077.018991
20
372.469476
10
1077.021324
20
372.430220
10
1077.024450
20
372.390999
10
1077.028383
20
372.351829
10
1077.033126
20
372.312729
10
1077.038687
20
372.273719
10
1077.045069
20
372.234817
10
1077.052279
20
372.196042
10
1077.060320
20
372.157414
10
1077.069199
20
372.118951
10
1077.078921
20
372.080671
10
1077.089491
20
372.042595
10
1077.100916
20
372.004746
10
1077.113211
20
371.967165
10
1077.126394
20
371.929894
10
1077.140479
20
371.892975
10
1077.155483
20
371.856452
10
1077.171422
20
371.820367
10
1077.188312
20
371.784764
10
1077.206170
20
371.749684
10
1077.225011
20
371.715170
10
1077.244848
20
371.681263
10
1077.265630
20
371.647943
10
1077.287252
20
371.615147
10
1077.309609
20
371.582810
10
1077.332598
20
371.550865
10
1077.356111
20
371.519248
10
1077.380045
20
371.487893
10
1077.404295
20
371.456735
10
1077.428754
20
371.425707
10
1077.453318
20
371.394745
10
1077.482148
20
371.396274
10
1077.510974
20
371.397840
10
1077.539792
20
371.399479
10
1077.568598
20
371.401228
10
1077.597388
20
371.403123
10
1077.626159
20
371.405202
10
1077.654906
20
371.407499
10
1077.683626
20
371.410053
10
1077.712314
20
371.412900
10
1077.740967
20
371.416075
10
1077.769584
20
371.419585
10
1077.798164
20
371.423409
10
1077.826711
20
371.427524
10
1077.855225
20
371.431906
10
1077.883707
20
371.436533
10
1077.912159
20
371.441382
10
1077.940582
20
371.446430
10
1077.968976
20
371.451654
10
1077.997344
20
371.457030
10
1078.025687
20
371.462535
10
1078.054009
20
371.468139
10
1078.082316
20
371.473798
10
1078.110617
20
371.479470
10
1078.138918
20
371.485111
10
1078.167227
20
371.490680
10
1078.195551
20
371.496131
10
1078.223898
20
371.501424
10
1078.252275
20
371.506514
10
1078.280690
20
371.511359
10
1078.309149
20
371.515916
10
1078.337658
20
371.520157
10
1078.366214
20
371.524107
10
1078.394810
20
371.527796
10
1078.423442
20
371.531259
10
1078.452104
20
371.534526
10
1078.480792
20
371.537631
10
1078.509501
20
371.540606
10
1078.538225
20
371.543483
10
1078.566960
20
371.546296
10
1078.595699
20
371.549076
10
1078.626075
20
371.550391
10
1078.656446
20
371.551638
10
1078.686809
20
371.552750
10
1078.717158
20
371.553660
10
1078.747490
20
371.554298
10
1078.777800
20
371.554599
10
1078.808083
20
371.554494
10
1078.838335
20
371.553916
10
1078.868551
20
371.552797
10
1078.898728
20
371.551070
10
1078.928860
20
371.548666
10
1078.958942
20
371.545531
10
1078.988960
20
371.541660
10
1079.018900
20
371.537062
10
1079.048746
20
371.531744
10
1079.078483
20
371.525715
10
1079.108095
20
371.518984
10
1079.137569
20
371.511558
10
1079.166889
20
371.503447
10
1079.196040
20
371.494658
10
1079.225007
20
371.485200
10
1079.253770
20
371.475078
10
1079.282289
20
371.464274
10
1079.310518
20
371.452764
10
1079.338408
20
371.440525
10
1079.365912
20
371.427532
10
1079.392983
20
371.413763
10
1079.419573
20
371.399193
10
1079.445636
20
371.383799
10
1079.471123
20
371.367555
10
1079.495990
20
371.350442
10
1079.520245
20
371.332493
10
1079.543956
20
371.313798
10
1079.567188
20
371.294450
10
1079.590012
20
371.274543
10
1079.612495
20
371.254170
10
1079.634706
20
371.233424
10
1079.656711
20
371.212398
10
1079.678581
20
371.191186
10
1079.700382
20
371.169881
10
1079.726253
20
371.139064
10
1079.751973
20
371.108135
10
1079.777389
20
371.076981
10
1079.802350
20
371.045491
10
1079.826705
20
371.013551
10
1079.850302
20
370.981050
10
1079.873034
20
370.947919
10
1079.894879
20
370.914174
10
1079.915823
20
370.879836
10
1079.935852
20
370.844929
10
1079.954952
20
370.809478
10
1079.973083
20
370.773500
10
1079.990106
20
370.736995
10
1080.005860
20
370.699962
10
1080.020185
20
370.662396
10
1080.032921
20
370.624294
10
1080.043966
20
370.585671
10
1080.053413
20
370.546596
10
1080.061394
20
370.507151
10
1080.068040
20
370.467419
10
1080.073481
20
370.427481
10
1080.077708
20
370.387405
10
1080.080551
20
370.347246
10
1080.081829
20
370.307056
10
1080.081361
20
370.266888
10
1080.078995
20
370.226793
10
1080.074810
20
370.186816
10
1080.068980
20
370.146997
10
1080.061683
20
370.107377
10
1080.053096
20
370.067996
10
1080.043340
20
370.028901
10
1080.032389
20
369.990155
10
1080.020188
20
369.951824
10
1080.006686
20
369.913976
10
1079.991831
20
369.876675
10
1079.975671
20
369.839931
10
1079.958451
20
369.803641
10
1079.940436
20
369.767691
10
1079.921891
20
369.731969
10
1079.903080
20
369.696361
10
1079.895811
20
369.685699
10
1079.888538
20
369.675041
10
1079.881253
20
369.664392
10
1079.873953
20
369.653756
10
1079.866632
20
369.643137
10
1079.859285
20
369.632541
10
1079.851906
20
369.621972
10
1079.844491
20
369.611433
10
1079.837034
20
369.600930
10
1079.829530
20
369.590467
10
1079.821973
20
369.580048
10
1079.814359
20
369.569678
10
1079.806682
20
369.559361
10
1079.798937
20
369.549101
10
1079.791119
20
369.538903
10
1079.783223
20
369.528772
10
1079.775242
20
369.518712
10
1079.767173
20
369.508727
10
1079.759009
20
369.498821
10
1079.750747
20
369.489000
10
1079.742383
20
369.479264
10
1079.733924
20
369.469609
10
1079.725373
20
369.460031
10
1079.716737
20
369.450525
10
1079.708020
20
369.441088
10
1079.699227
20
369.431716
10
1079.690363
20
369.422403
10
1079.681433
20
369.413145
10
1079.672443
20
369.403939
10
1079.663398
20
369.394780
10
1079.654302
20
369.385664
10
1079.645160
20
369.376586
10
1079.635978
20
369.367542
10
1079.626760
20
369.358529
10
1079.617513
20
369.349541
10
1079.608240
20
369.340574
10
1079.598946
20
369.331624
10
1079.589638
20
369.322688
10
1079.580319
20
369.313760
10
1079.570996
20
369.304836
10
1079.458001
20
369.213582
10
1079.341957
20
369.126899
10
1079.219855
20
369.049321
10
1079.090504
20
368.983719
10
1078.955201
20
368.930680
10
1078.815408
20
368.890905
10
1078.672494
20
368.866213
10
1078.527823
20
368.858409
10
1078.382875
20
368.866480
10
1078.239186
20
368.887885
10
1078.097989
20
368.921113
10
1077.960139
20
368.965928
10
1077.826419
20
369.021999
10
1077.697448
20
369.088411
10
1077.573778
20
369.164122
10
1077.455522
20
369.247988
10
1077.342476
20
369.338792
10
1077.234418
20
369.435405
10
1077.131081
20
369.537033
10
1077.032188
20
369.642960
10
1076.937389
20
369.752512
10
1076.846191
20
369.865106
10
1076.758089
20
369.980182
10
1076.673122
20
370.097571
10
1076.592091
20
370.217657
10
1076.515818
20
370.340832
10
1076.444706
20
370.467100
10
1076.378892
20
370.596212
10
1076.318489
20
370.727922
10
1076.263560
20
370.862006
10
1076.214172
20
370.998245
10
1076.170528
20
371.136426
10
1076.132914
20
371.276338
10
1076.101382
20
371.417742
10
1076.075568
20
371.560346
10
1076.055180
20
371.703858
10
1076.040605
20
371.848023
10
1076.032412
20
371.992604
10
1076.029646
20
372.137418
0
LWPOLYLINE
8
PIEZAS
90
240
70
1
10
1062.298359
20
339.389435
10
1062.267816
20
339.392130
10
1062.237290
20
339.394908
10
1062.206798
20
339.397853
10
1062.176358
20
339.401048
10
1062.145986
20
339.404577
10
1062.115699
20
339.408523
10
1062.085516
20
339.412969
10
1062.055452
20
339.417999
10
1062.025525
20
339.423696
10
1061.995753
20
339.430144
10
1061.966149
20
339.437400
10
1061.936724
20
339.445446
10
1061.907486
20
339.454249
10
1061.878441
20
339.463777
10
1061.849599
20
339.473998
10
1061.820968
20
339.484877
10
1061.792554
20
339.496384
10
1061.764367
20
339.508484
10
1061.736415
20
339.521146
10
1061.708704
20
339.534338
10
1061.681252
20
339.548043
10
1061.654080
20
339.562270
10
1061.627215
20
339.577028
10
1061.600681
20
339.592327
10
1061.574504
20
339.608177
10
1061.548708
20
339.624587
10
1061.523317
20
339.641567
10
1061.498358
20
339.659127
10
1061.473854
20
339.677276
10
1061.449830
20
339.696023
10
1061.426273
20
339.715342
10
1061.403138
20
339.735179
10
1061.380379
20
339.755476
10
1061.357947
20
339.776175
10
1061.335798
20
339.797218
10
1061.313882
20
339.818549
10
1061.292155
20
339.840109
10
1061.270568
20
339.861842
10
1061.249075
20
339.883690
10
1061.227629
20
339.905595
10
1061.197145
20
339.940879
10
1061.166939
20
339.976359
10
1061.137288
20
340.012233
10
1061.108470
20
340.048697
10
1061.080762
20
340.085948
10
1061.054426
20
340.124170
10
1061.029487
20
340.163364
10
1061.005782
20
340.203390
10
1060.983147
20
340.244100
10
1060.961414
20
340.285350
10
1060.940430
20
340.327000
10
1060.920253
20
340.369019
10
1060.901142
20
340.411477
10
1060.883361
20
340.454446
10
1060.867173
20
340.498000
10
1060.852823
20
340.542201
10
1060.840346
20
340.587010
10
1060.829649
20
340.632328
10
1060.820642
20
340.678054
10
1060.813231
20
340.724087
10
1060.807350
20
340.770333
10
1060.803048
20
340.816724
10
1060.800408
20
340.863201
10
1060.799511
20
340.909702
10
1060.800436
20
340.956169
10
1060.803150
20
341.002561
10
1060.807445
20
341.048866
10
1060.813097
20
341.095076
10
1060.819883
20
341.141181
10
1060.827587
20
341.187173
10
1060.836186
20
341.233000
10
1060.845869
20
341.278567
10
1060.856837
20
341.323779
10
1060.869289
20
341.368539
10
1060.883419
20
341.412753
10
1060.899191
20
341.456415
10
1060.916292
20
341.499632
10
1060.934388
20
341.542514
10
1060.953147
20
341.585173
10
1060.972239
20
341.627720
10
1060.994934
20
341.668861
10
1061.017857
20
341.709838
10
1061.041237
20
341.750488
10
1061.065304
20
341.790649
10
1061.090285
20
341.830155
10
1061.116408
20
341.868845
10
1061.143902
20
341.906556
10
1061.172860
20
341.943203
10
1061.203172
20
341.978825
10
1061.234709
20
342.013470
10
1061.267341
20
342.047187
10
1061.300941
20
342.080023
10
1061.335378
20
342.112027
10
1061.370528
20
342.143245
10
1061.406334
20
342.173661
10
1061.442819
20
342.203187
10
1061.480008
20
342.231735
10
1061.517927
20
342.259215
10
1061.556602
20
342.285539
10
1061.596058
20
342.310617
10
1061.636318
20
342.334364
10
1061.677361
20
342.356765
10
1061.719124
20
342.377874
10
1061.761542
20
342.397745
10
1061.804550
20
342.416433
10
1061.848084
20
342.433993
10
1061.892080
20
342.450480
10
1061.936477
20
342.465929
10
1061.981240
20
342.480247
10
1062.026345
20
342.493290
10
1062.071767
20
342.504914
10
1062.117481
20
342.514977
10
1062.163464
20
342.523333
10
1062.209691
20
342.529842
10
1062.256133
20
342.534542
10
1062.302754
20
342.537717
10
1062.349519
20
342.539674
10
1062.396391
20
342.540716
10
1062.443335
20
342.541148
10
1062.490315
20
342.541276
10
1062.521189
20
342.538376
10
1062.552045
20
342.535394
10
1062.582866
20
342.532247
10
1062.613635
20
342.528852
10
1062.644334
20
342.525127
10
1062.674945
20
342.520990
10
1062.705452
20
342.516356
10
1062.735836
20
342.511145
10
1062.766080
20
342.505274
10
1062.796167
20
342.498659
10
1062.826080
20
342.491236
10
1062.855811
20
342.483017
10
1062.885351
20
342.474035
10
1062.914693
20
342.464322
10
1062.943829
20
342.453911
10
1062.972751
20
342.442837
10
1063.001453
20
342.431132
10
1063.029926
20
342.418829
10
1063.058162
20
342.405961
10
1063.086154
20
342.392561
10
1063.113889
20
342.378649
10
1063.141343
20
342.364217
10
1063.168491
20
342.349257
10
1063.195310
20
342.333757
10
1063.221773
20
342.317709
10
1063.247856
20
342.301103
10
1063.273535
20
342.283928
10
1063.298784
20
342.266176
10
1063.323580
20
342.247836
10
1063.347897
20
342.228899
10
1063.371742
20
342.209384
10
1063.395159
20
342.189346
10
1063.418196
20
342.168843
10
1063.440900
20
342.147935
10
1063.463319
20
342.126677
10
1063.485501
20
342.105130
10
1063.507492
20
342.083350
10
1063.529341
20
342.061396
10
1063.551094
20
342.039325
10
1063.572801
20
342.017197
10
1063.602592
20
341.982212
10
1063.632179
20
341.947071
10
1063.661357
20
341.911616
10
1063.689919
20
341.875691
10
1063.717662
20
341.839139
10
1063.744384
20
341.801809
10
1063.769959
20
341.763643
10
1063.794331
20
341.724677
10
1063.817445
20
341.684946
10
1063.839249
20
341.644488
10
1063.859689
20
341.603340
10
1063.878749
20
341.561547
10
1063.896454
20
341.519162
10
1063.912836
20
341.476238
10
1063.927922
20
341.432830
10
1063.941736
20
341.388991
10
1063.954226
20
341.344758
10
1063.965280
20
341.300157
10
1063.974789
20
341.255215
10
1063.982641
20
341.209957
10
1063.988744
20
341.164417
10
1063.993093
20
341.118662
10
1063.995707
20
341.072767
10
1063.996607
20
341.026811
10
1063.995814
20
340.980870
10
1063.993372
20
340.935005
10
1063.989366
20
340.889250
10
1063.983887
20
340.843633
10
1063.977028
20
340.798185
10
1063.968879
20
340.752934
10
1063.959472
20
340.707926
10
1063.948771
20
340.663221
10
1063.936736
20
340.618883
10
1063.923325
20
340.574975
10
1063.908502
20
340.531558
10
1063.892355
20
340.488627
10
1063.875139
20
340.446089
10
1063.857122
20
340.403847
10
1063.838571
20
340.361802
10
1063.819753
20
340.319855
10
1063.796459
20
340.278897
10
1063.772947
20
340.238097
10
1063.748997
20
340.197612
10
1063.724392
20
340.157600
10
1063.698913
20
340.118219
10
1063.672341
20
340.079625
10
1063.644461
20
340.041975
10
1063.615191
20
340.005345
10
1063.584639
20
339.969700
10
1063.552924
20
339.934997
10
1063.520167
20
339.901190
10
1063.486488
20
339.868238
10
1063.452009
20
339.836096
10
1063.416846
20
339.804723
10
1063.381055
20
339.774126
10
1063.344617
20
339.744365
10
1063.307511
20
339.715505
10
1063.269716
20
339.687610
10
1063.231212
20
339.660743
10
1063.191977
20
339.634967
10
1063.151992
20
339.610346
10
1063.111272
20
339.586916
10
1063.069855
20
339.564695
10
1063.027777
20
339.543704
10
1062.985077
20
339.523961
10
1062.941793
20
339.505485
10
1062.897962
20
339.488295
10
1062.853623
20
339.472414
10
1062.808822
20
339.457890
10
1062.763606
20
339.444777
10
1062.718024
20
339.433130
10
1062.672122
20
339.423003
10
1062.625947
20
339.414449
10
1062.579548
20
339.407520
10
1062.532965
20
339.402134
10
1062.486228
20
339.398041
10
1062.439368
20
339.394984
10
1062.392416
20
339.392703
10
1062.345403
20
339.390939
0
LWPOLYLINE
8
PIEZAS
90
240
70
1
10
1095.324915
20
369.126679
10
1095.294372
20
369.129374
10
1095.263846
20
369.132152
10
1095.233354
20
369.135098
10
1095.202913
20
369.138293
10
1095.172542
20
369.141822
10
1095.142255
20
369.145767
10
1095.112072
20
369.150214
10
1095.082008
20
369.155243
10
1095.052081
20
369.160941
10
1095.022309
20
369.167388
10
1094.992705
20
369.174644
10
1094.963280
20
369.182690
10
1094.934042
20
369.191494
10
1094.904997
20
369.201022
10
1094.876155
20
369.211242
10
1094.847524
20
369.222122
10
1094.819110
20
369.233628
10
1094.790923
20
369.245729
10
1094.762971
20
369.258391
10
1094.735260
20
369.271582
10
1094.707807
20
369.285287
10
1094.680636
20
369.299514
10
1094.653771
20
369.314272
10
1094.627237
20
369.329571
10
1094.601060
20
369.345421
10
1094.575264
20
369.361831
10
1094.549873
20
369.378811
10
1094.524914
20
369.396371
10
1094.500410
20
369.414520
10
1094.476386
20
369.433267
10
1094.452829
20
369.452587
10
1094.429694
20
369.472424
10
1094.406934
20
369.492720
10
1094.384503
20
369.513419
10
1094.362354
20
369.534462
10
1094.340438
20
369.555793
10
1094.318711
20
369.577354
10
1094.297124
20
369.599087
10
1094.275631
20
369.620934
10
1094.254185
20
369.642840
10
1094.223701
20
369.678123
10
1094.193495
20
369.713604
10
1094.163844
20
369.749478
10
1094.135026
20
369.785942
10
1094.107318
20
369.823192
10
1094.080982
20
369.861414
10
1094.056042
20
369.900609
10
1094.032338
20
369.940634
10
1094.009703
20
369.981345
10
1093.987970
20
370.022595
10
1093.966985
20
370.064245
10
1093.946809
20
370.106264
10
1093.927698
20
370.148722
10
1093.909917
20
370.191691
10
1093.893729
20
370.235244
10
1093.879379
20
370.279445
10
1093.866902
20
370.324254
10
1093.856205
20
370.369572
10
1093.847198
20
370.415298
10
1093.839787
20
370.461332
10
1093.833906
20
370.507578
10
1093.829604
20
370.553969
10
1093.826964
20
370.600445
10
1093.826066
20
370.646947
10
1093.826992
20
370.693414
10
1093.829706
20
370.739805
10
1093.834001
20
370.786110
10
1093.839653
20
370.832320
10
1093.846439
20
370.878426
10
1093.854143
20
370.924417
10
1093.862742
20
370.970244
10
1093.872425
20
371.015812
10
1093.883393
20
371.061024
10
1093.895845
20
371.105784
10
1093.909975
20
371.149997
10
1093.925747
20
371.193660
10
1093.942847
20
371.236876
10
1093.960943
20
371.279758
10
1093.979703
20
371.322417
10
1093.998795
20
371.364965
10
1094.021490
20
371.406105
10
1094.044413
20
371.447082
10
1094.067793
20
371.487733
10
1094.091860
20
371.527893
10
1094.116840
20
371.567400
10
1094.142964
20
371.606090
10
1094.170458
20
371.643800
10
1094.199416
20
371.680448
10
1094.229728
20
371.716070
10
1094.261264
20
371.750715
10
1094.293897
20
371.784431
10
1094.327497
20
371.817267
10
1094.361934
20
371.849271
10
1094.397083
20
371.880490
10
1094.432890
20
371.910905
10
1094.469375
20
371.940431
10
1094.506564
20
371.968979
10
1094.544483
20
371.996460
10
1094.583158
20
372.022784
10
1094.622614
20
372.047862
10
1094.662874
20
372.071608
10
1094.703917
20
372.094009
10
1094.745680
20
372.115118
10
1094.788098
20
372.134989
10
1094.831106
20
372.153678
10
1094.874640
20
372.171238
10
1094.918636
20
372.187725
10
1094.963033
20
372.203173
10
1095.007796
20
372.217491
10
1095.052900
20
372.230534
10
1095.098322
20
372.242159
10
1095.144037
20
372.252221
10
1095.190020
20
372.260577
10
1095.236247
20
372.267086
10
1095.282689
20
372.271786
10
1095.329310
20
372.274962
10
1095.376075
20
372.276918
10
1095.422947
20
372.277960
10
1095.469891
20
372.278392
10
1095.516871
20
372.278520
10
1095.547745
20
372.275621
10
1095.578601
20
372.272639
10
1095.609422
20
372.269492
10
1095.640191
20
372.266097
10
1095.670890
20
372.262372
10
1095.701501
20
372.258234
10
1095.732008
20
372.253601
10
1095.762392
20
372.248390
10
1095.792636
20
372.242518
10
1095.822723
20
372.235904
10
1095.852636
20
372.228481
10
1095.882367
20
372.220262
10
1095.911907
20
372.211279
10
1095.941249
20
372.201566
10
1095.970385
20
372.191156
10
1095.999307
20
372.180082
10
1096.028009
20
372.168376
10
1096.056481
20
372.156073
10
1096.084718
20
372.143205
10
1096.112710
20
372.129806
10
1096.140445
20
372.115893
10
1096.167899
20
372.101462
10
1096.195047
20
372.086501
10
1096.221866
20
372.071002
10
1096.248329
20
372.054954
10
1096.274412
20
372.038347
10
1096.300091
20
372.021173
10
1096.325340
20
372.003420
10
1096.350136
20
371.985080
10
1096.374453
20
371.966143
10
1096.398298
20
371.946628
10
1096.421715
20
371.926590
10
1096.444752
20
371.906088
10
1096.467456
20
371.885179
10
1096.489875
20
371.863922
10
1096.512057
20
371.842374
10
1096.534048
20
371.820594
10
1096.555897
20
371.798640
10
1096.577650
20
371.776570
10
1096.599356
20
371.754442
10
1096.629148
20
371.719457
10
1096.658735
20
371.684315
10
1096.687913
20
371.648860
10
1096.716475
20
371.612935
10
1096.744218
20
371.576384
10
1096.770940
20
371.539053
10
1096.796515
20
371.500888
10
1096.820887
20
371.461921
10
1096.844001
20
371.422190
10
1096.865804
20
371.381732
10
1096.886245
20
371.340585
10
1096.905305
20
371.298791
10
1096.923010
20
371.256406
10
1096.939391
20
371.213483
10
1096.954478
20
371.170075
10
1096.968292
20
371.126236
10
1096.980782
20
371.082003
10
1096.991836
20
371.037402
10
1097.001345
20
370.992459
10
1097.009197
20
370.947202
10
1097.015300
20
370.901662
10
1097.019649
20
370.855906
10
1097.022263
20
370.810012
10
1097.023163
20
370.764056
10
1097.022370
20
370.718114
10
1097.019928
20
370.672249
10
1097.015921
20
370.626494
10
1097.010443
20
370.580878
10
1097.003584
20
370.535429
10
1096.995435
20
370.490179
10
1096.986028
20
370.445170
10
1096.975327
20
370.400466
10
1096.963291
20
370.356128
10
1096.949881
20
370.312219
10
1096.935058
20
370.268802
10
1096.918911
20
370.225871
10
1096.901695
20
370.183334
10
1096.883678
20
370.141092
10
1096.865127
20
370.099046
10
1096.846309
20
370.057099
10
1096.823015
20
370.016142
10
1096.799503
20
369.975342
10
1096.775553
20
369.934857
10
1096.750948
20
369.894845
10
1096.725469
20
369.855463
10
1096.698897
20
369.816869
10
1096.671017
20
369.779220
10
1096.641747
20
369.742590
10
1096.611195
20
369.706945
10
1096.579480
20
369.672241
10
1096.546723
20
369.638435
10
1096.513044
20
369.605483
10
1096.478565
20
369.573341
10
1096.443402
20
369.541967
10
1096.407611
20
369.511370
10
1096.371173
20
369.481610
10
1096.334067
20
369.452750
10
1096.296272
20
369.424854
10
1096.257768
20
369.397987
10
1096.218532
20
369.372212
10
1096.178548
20
369.347591
10
1096.137828
20
369.324160
10
1096.096411
20
369.301940
10
1096.054333
20
369.280949
10
1096.011633
20
369.261206
10
1095.968349
20
369.242729
10
1095.924517
20
369.225539
10
1095.880179
20
369.209659
10
1095.835378
20
369.195135
10
1095.790162
20
369.182022
10
1095.744580
20
369.170375
10
1095.698678
20
369.160247
10
1095.652503
20
369.151694
10
1095.606104
20
369.144765
10
1095.559521
20
369.139378
10
1095.512784
20
369.135286
10
1095.465924
20
369.132228
10
1095.418972
20
369.129947
10
1095.371959
20
369.128184
0
LWPOLYLINE
8
PIEZAS
90
240
70
1
10
1081.591099
20
356.760696
10
1081.560556
20
356.763391
10
1081.530030
20
356.766170
10
1081.499539
20
356.769115
10
1081.469098
20
356.772310
10
1081.438726
20
356.775839
10
1081.408440
20
356.779785
10
1081.378256
20
356.784231
10
1081.348193
20
356.789261
10
1081.318266
20
356.794958
10
1081.288493
20
356.801405
10
1081.258890
20
356.808661
10
1081.229465
20
356.816707
10
1081.200226
20
356.825511
10
1081.171182
20
356.835039
10
1081.142340
20
356.845259
10
1081.113708
20
356.856139
10
1081.085295
20
356.867645
10
1081.057108
20
356.879746
10
1081.029155
20
356.892408
10
1081.001445
20
356.905599
10
1080.973992
20
356.919304
10
1080.946821
20
356.933531
10
1080.919956
20
356.948289
10
1080.893422
20
356.963588
10
1080.867245
20
356.979438
10
1080.841448
20
356.995848
10
1080.816058
20
357.012828
10
1080.791098
20
357.030388
10
1080.766595
20
357.048537
10
1080.742570
20
357.067284
10
1080.719013
20
357.086604
10
1080.695879
20
357.106441
10
1080.673119
20
357.126737
10
1080.650688
20
357.147436
10
1080.628538
20
357.168480
10
1080.606623
20
357.189810
10
1080.584895
20
357.211371
10
1080.563309
20
357.233104
10
1080.541816
20
357.254951
10
1080.520370
20
357.276857
10
1080.489886
20
357.312141
10
1080.459680
20
357.347621
10
1080.430029
20
357.383495
10
1080.401211
20
357.419959
10
1080.373503
20
357.457209
10
1080.347167
20
357.495431
10
1080.322227
20
357.534626
10
1080.298523
20
357.574651
10
1080.275887
20
357.615362
10
1080.254155
20
357.656612
10
1080.233170
20
357.698262
10
1080.212994
20
357.740281
10
1080.193883
20
357.782739
10
1080.176101
20
357.825708
10
1080.159914
20
357.869261
10
1080.145564
20
357.913462
10
1080.133086
20
357.958272
10
1080.122390
20
358.003590
10
1080.113382
20
358.049315
10
1080.105971
20
358.095349
10
1080.100090
20
358.141595
10
1080.095789
20
358.187986
10
1080.093149
20
358.234462
10
1080.092251
20
358.280964
10
1080.093176
20
358.327431
10
1080.095891
20
358.373822
10
1080.100186
20
358.420127
10
1080.105838
20
358.466337
10
1080.112624
20
358.512443
10
1080.120327
20
358.558435
10
1080.128926
20
358.604261
10
1080.138610
20
358.649829
10
1080.149578
20
358.695041
10
1080.162030
20
358.739801
10
1080.176160
20
358.784014
10
1080.191932
20
358.827677
10
1080.209032
20
358.870893
10
1080.227128
20
358.913775
10
1080.245888
20
358.956434
10
1080.264980
20
358.998982
10
1080.287674
20
359.040122
10
1080.310597
20
359.081100
10
1080.333978
20
359.121750
10
1080.358044
20
359.161910
10
1080.383025
20
359.201417
10
1080.409149
20
359.240107
10
1080.436643
20
359.277818
10
1080.465601
20
359.314465
10
1080.495913
20
359.350087
10
1080.527449
20
359.384732
10
1080.560082
20
359.418448
10
1080.593681
20
359.451284
10
1080.628119
20
359.483288
10
1080.663268
20
359.514507
10
1080.699074
20
359.544922
10
1080.735559
20
359.574449
10
1080.772749
20
359.602997
10
1080.810668
20
359.630477
10
1080.849343
20
359.656801
10
1080.888799
20
359.681879
10
1080.929059
20
359.705625
10
1080.970102
20
359.728027
10
1081.011865
20
359.749135
10
1081.054282
20
359.769006
10
1081.097291
20
359.787695
10
1081.140825
20
359.805255
10
1081.184821
20
359.821742
10
1081.229217
20
359.837191
10
1081.273980
20
359.851508
10
1081.319085
20
359.864552
10
1081.364507
20
359.876176
10
1081.410222
20
359.886238
10
1081.456205
20
359.894594
10
1081.502432
20
359.901104
10
1081.548874
20
359.905803
10
1081.595495
20
359.908979
10
1081.642259
20
359.910935
10
1081.689132
20
359.911977
10
1081.736076
20
359.912410
10
1081.783056
20
359.912537
10
1081.813929
20
359.909638
10
1081.844786
20
359.906656
10
1081.875607
20
359.903509
10
1081.906376
20
359.900114
10
1081.937075
20
359.896389
10
1081.967686
20
359.892251
10
1081.998193
20
359.887618
10
1082.028577
20
359.882407
10
1082.058821
20
359.876535
10
1082.088908
20
359.869921
10
1082.118821
20
359.862498
10
1082.148552
20
359.854279
10
1082.178092
20
359.845296
10
1082.207433
20
359.835583
10
1082.236569
20
359.825173
10
1082.265492
20
359.814099
10
1082.294193
20
359.802394
10
1082.322666
20
359.790090
10
1082.350902
20
359.777223
10
1082.378895
20
359.763823
10
1082.406629
20
359.749911
10
1082.434084
20
359.735479
10
1082.461232
20
359.720518
10
1082.488050
20
359.705019
10
1082.514513
20
359.688971
10
1082.540597
20
359.672365
10
1082.566276
20
359.655190
10
1082.591525
20
359.637438
10
1082.616321
20
359.619097
10
1082.640638
20
359.600160
10
1082.664483
20
359.580645
10
1082.687900
20
359.560607
10
1082.710937
20
359.540105
10
1082.733641
20
359.519196
10
1082.756060
20
359.497939
10
1082.778241
20
359.476391
10
1082.800233
20
359.454611
10
1082.822081
20
359.432657
10
1082.843835
20
359.410587
10
1082.865541
20
359.388459
10
1082.895333
20
359.353474
10
1082.924920
20
359.318332
10
1082.954097
20
359.282877
10
1082.982660
20
359.246953
10
1083.010403
20
359.210401
10
1083.037125
20
359.173070
10
1083.062700
20
359.134905
10
1083.087071
20
359.095938
10
1083.110186
20
359.056208
10
1083.131989
20
359.015750
10
1083.152430
20
358.974602
10
1083.171489
20
358.932808
10
1083.189195
20
358.890423
10
1083.205576
20
358.847500
10
1083.220662
20
358.804092
10
1083.234477
20
358.760253
10
1083.246966
20
358.716020
10
1083.258021
20
358.671419
10
1083.267529
20
358.626476
10
1083.275382
20
358.581219
10
1083.281485
20
358.535679
10
1083.285833
20
358.489923
10
1083.288447
20
358.444029
10
1083.289348
20
358.398073
10
1083.288555
20
358.352131
10
1083.286112
20
358.306267
10
1083.282106
20
358.260511
10
1083.276628
20
358.214895
10
1083.269769
20
358.169446
10
1083.261619
20
358.124196
10
1083.252212
20
358.079187
10
1083.241511
20
358.034483
10
1083.229476
20
357.990145
10
1083.216066
20
357.946237
10
1083.201242
20
357.902819
10
1083.185095
20
357.859888
10
1083.167880
20
357.817351
10
1083.149863
20
357.775109
10
1083.131312
20
357.733063
10
1083.112493
20
357.691117
10
1083.089200
20
357.650159
10
1083.065687
20
357.609359
10
1083.041738
20
357.568874
10
1083.017133
20
357.528862
10
1082.991654
20
357.489480
10
1082.965082
20
357.450887
10
1082.937202
20
357.413237
10
1082.907932
20
357.376607
10
1082.877379
20
357.340962
10
1082.845664
20
357.306258
10
1082.812907
20
357.272452
10
1082.779229
20
357.239500
10
1082.744749
20
357.207358
10
1082.709587
20
357.175985
10
1082.673795
20
357.145387
10
1082.637357
20
357.115627
10
1082.600251
20
357.086767
10
1082.562457
20
357.058871
10
1082.523952
20
357.032004
10
1082.484717
20
357.006229
10
1082.444733
20
356.981608
10
1082.404013
20
356.958177
10
1082.362595
20
356.935957
10
1082.320518
20
356.914966
10
1082.277818
20
356.895223
10
1082.234533
20
356.876747
10
1082.190702
20
356.859556
10
1082.146363
20
356.843676
10
1082.101562
20
356.829152
10
1082.056347
20
356.816039
10
1082.010764
20
356.804392
10
1081.964862
20
356.794264
10
1081.918688
20
356.785711
10
1081.872289
20
356.778782
10
1081.825705
20
356.773395
10
1081.778968
20
356.769303
10
1081.732108
20
356.766246
10
1081.685157
20
356.763965
10
1081.638143
20
356.762201
0
ENDSEC
0
EOF
