  0
SECTION
  2
HEADER
  9
$ACADVER
  1
AC1027
  9
$ACADMAINTVER
 70
   105
  9
$DWGCODEPAGE
  3
ANSI_1252
  9
$REQUIREDVERSIONS
160
                 0
  9
$INSBASE
 10
0.0
 20
0.0
 30
0.0
  9
$EXTMIN
 10
-75.0
 20
-15.0
 30
0.0
  9
$EXTMAX
 10
75.0
 20
15.0
 30
0.0
  9
$LIMMIN
 10
0.0
 20
0.0
  9
$LIMMAX
 10
420.0
 20
297.0
  9
$ORTHOMODE
 70
     0
  9
$REGENMODE
 70
     1
  9
$FILLMODE
 70
     1
  9
$QTEXTMODE
 70
     0
  9
$MIRRTEXT
 70
     1
  9
$LTSCALE
 40
1.0
  9
$ATTMODE
 70
     1
  9
$TEXTSIZE
 40
3.5
  9
$TRACEWID
 40
1.0
  9
$TEXTSTYLE
  7
Standard
  9
$CLAYER
  8
0
  9
$CELTYPE
  6
ByLayer
  9
$CECOLOR
 62
   256
  9
$CELTSCALE
 40
1.0
  9
$DISPSILH
 70
     0
  9
$DIMSCALE
 40
1.0
  9
$DIMASZ
 40
3.302
  9
$DIMEXO
 40
1.0
  9
$DIMDLI
 40
3.75
  9
$DIMRND
 40
0.0
  9
$DIMDLE
 40
0.0
  9
$DIMEXE
 40
1.0
  9
$DIMTP
 40
0.0
  9
$DIMTM
 40
0.0
  9
$DIMTXT
 40
3.5
  9
$DIMCEN
 40
2.5
  9
$DIMTSZ
 40
0.0
  9
$DIMTOL
 70
     0
  9
$DIMLIM
 70
     0
  9
$DIMTIH
 70
     1
  9
$DIMTOH
 70
     1
  9
$DIMSE1
 70
     0
  9
$DIMSE2
 70
     0
  9
$DIMTAD
 70
     1
  9
$DIMZIN
 70
     1
  9
$DIMBLK
  1

  9
$DIMASO
 70
     1
  9
$DIMSHO
 70
     1
  9
$DIMPOST
  1

  9
$DIMAPOST
  1

  9
$DIMALT
 70
     0
  9
$DIMALTD
 70
     3
  9
$DIMALTF
 40
0.0393700787
  9
$DIMLFAC
 40
1.0
  9
$DIMTOFL
 70
     1
  9
$DIMTVP
 40
0.0
  9
$DIMTIX
 70
     0
  9
$DIMSOXD
 70
     0
  9
$DIMSAH
 70
     0
  9
$DIMBLK1
  1

  9
$DIMBLK2
  1

  9
$DIMSTYLE
  2
ISO-25
  9
$DIMCLRD
 70
     0
  9
$DIMCLRE
 70
     0
  9
$DIMCLRT
 70
     0
  9
$DIMTFAC
 40
1.0
  9
$DIMGAP
 40
1.524
  9
$DIMJUST
 70
     0
  9
$DIMSD1
 70
     0
  9
$DIMSD2
 70
     0
  9
$DIMTOLJ
 70
     0
  9
$DIMTZIN
 70
     1
  9
$DIMALTZ
 70
     0
  9
$DIMALTTZ
 70
     0
  9
$DIMUPT
 70
     0
  9
$DIMDEC
 70
     2
  9
$DIMTDEC
 70
     2
  9
$DIMALTU
 70
     2
  9
$DIMALTTD
 70
     3
  9
$DIMTXSTY
  7
Standard
  9
$DIMAUNIT
 70
     0
  9
$DIMADEC
 70
     2
  9
$DIMALTRND
 40
0.0
  9
$DIMAZIN
 70
     0
  9
$DIMDSEP
 70
    44
  9
$DIMATFIT
 70
     3
  9
$DIMFRAC
 70
     0
  9
$DIMLDRBLK
  1

  9
$DIMLUNIT
 70
     2
  9
$DIMLWD
 70
    -2
  9
$DIMLWE
 70
    -2
  9
$DIMTMOVE
 70
     0
  9
$DIMFXL
 40
1.0
  9
$DIMFXLON
 70
     0
  9
$DIMJOGANG
 40
0.7853981634
  9
$DIMTFILL
 70
     0
  9
$DIMTFILLCLR
 70
     0
  9
$DIMARCSYM
 70
     0
  9
$DIMLTYPE
  6

  9
$DIMLTEX1
  6

  9
$DIMLTEX2
  6

  9
$DIMTXTDIRECTION
 70
     0
  9
$LUNITS
 70
     2
  9
$LUPREC
 70
     2
  9
$SKETCHINC
 40
1.0
  9
$FILLETRAD
 40
10.0
  9
$AUNITS
 70
     0
  9
$AUPREC
 70
     2
  9
$MENU
  1
.
  9
$ELEVATION
 40
0.0
  9
$PELEVATION
 40
0.0
  9
$THICKNESS
 40
0.0
  9
$LIMCHECK
 70
     0
  9
$CHAMFERA
 40
0.0
  9
$CHAMFERB
 40
0.0
  9
$CHAMFERC
 40
0.0
  9
$CHAMFERD
 40
0.0
  9
$SKPOLY
 70
     0
  9
$TDCREATE
 40
2461229.448604236
  9
$TDUCREATE
 40
2461229.573604236
  9
$TDUPDATE
 40
2461229.448616308
  9
$TDUUPDATE
 40
2461229.573616308
  9
$TDINDWG
 40
0.0000000116
  9
$TDUSRTIMER
 40
0.0000000116
  9
$USRTIMER
 70
     1
  9
$ANGBASE
 50
0.0
  9
$ANGDIR
 70
     0
  9
$PDMODE
 70
     0
  9
$PDSIZE
 40
-1.0
  9
$PLINEWID
 40
0.0
  9
$SPLFRAME
 70
     0
  9
$SPLINETYPE
 70
     6
  9
$SPLINESEGS
 70
     8
  9
$HANDSEED
  5
D3
  9
$SURFTAB1
 70
     6
  9
$SURFTAB2
 70
     6
  9
$SURFTYPE
 70
     6
  9
$SURFU
 70
     6
  9
$SURFV
 70
     6
  9
$UCSBASE
  2

  9
$UCSNAME
  2

  9
$UCSORG
 10
0.0
 20
0.0
 30
0.0
  9
$UCSXDIR
 10
1.0
 20
0.0
 30
0.0
  9
$UCSYDIR
 10
0.0
 20
1.0
 30
0.0
  9
$UCSORTHOREF
  2

  9
$UCSORTHOVIEW
 70
     0
  9
$UCSORGTOP
 10
0.0
 20
0.0
 30
0.0
  9
$UCSORGBOTTOM
 10
0.0
 20
0.0
 30
0.0
  9
$UCSORGLEFT
 10
0.0
 20
0.0
 30
0.0
  9
$UCSORGRIGHT
 10
0.0
 20
0.0
 30
0.0
  9
$UCSORGFRONT
 10
0.0
 20
0.0
 30
0.0
  9
$UCSORGBACK
 10
0.0
 20
0.0
 30
0.0
  9
$PUCSBASE
  2

  9
$PUCSNAME
  2

  9
$PUCSORG
 10
0.0
 20
0.0
 30
0.0
  9
$PUCSXDIR
 10
1.0
 20
0.0
 30
0.0
  9
$PUCSYDIR
 10
0.0
 20
1.0
 30
0.0
  9
$PUCSORTHOREF
  2

  9
$PUCSORTHOVIEW
 70
     0
  9
$PUCSORGTOP
 10
0.0
 20
0.0
 30
0.0
  9
$PUCSORGBOTTOM
 10
0.0
 20
0.0
 30
0.0
  9
$PUCSORGLEFT
 10
0.0
 20
0.0
 30
0.0
  9
$PUCSORGRIGHT
 10
0.0
 20
0.0
 30
0.0
  9
$PUCSORGFRONT
 10
0.0
 20
0.0
 30
0.0
  9
$PUCSORGBACK
 10
0.0
 20
0.0
 30
0.0
  9
$USERI1
 70
     0
  9
$USERI2
 70
     0
  9
$USERI3
 70
     0
  9
$USERI4
 70
     0
  9
$USERI5
 70
     0
  9
$USERR1
 40
0.0
  9
$USERR2
 40
0.0
  9
$USERR3
 40
0.0
  9
$USERR4
 40
0.0
  9
$USERR5
 40
0.0
  9
$WORLDVIEW
 70
     1
  9
$SHADEDGE
 70
     3
  9
$SHADEDIF
 70
    70
  9
$TILEMODE
 70
     1
  9
$MAXACTVP
 70
    64
  9
$PINSBASE
 10
0.0
 20
0.0
 30
0.0
  9
$PLIMCHECK
 70
     0
  9
$PEXTMIN
 10
1.0000000000E+20
 20
1.0000000000E+20
 30
1.0000000000E+20
  9
$PEXTMAX
 10
-1.0000000000E+20
 20
-1.0000000000E+20
 30
-1.0000000000E+20
  9
$PLIMMIN
 10
0.0
 20
0.0
  9
$PLIMMAX
 10
420.0
 20
297.0
  9
$UNITMODE
 70
     0
  9
$VISRETAIN
 70
     1
  9
$PLINEGEN
 70
     0
  9
$PSLTSCALE
 70
     1
  9
$TREEDEPTH
 70
  3020
  9
$CMLSTYLE
  2
Standard
  9
$CMLJUST
 70
     0
  9
$CMLSCALE
 40
20.0
  9
$PROXYGRAPHICS
 70
     1
  9
$MEASUREMENT
 70
     1
  9
$CELWEIGHT
370
    -1
  9
$ENDCAPS
280
     0
  9
$JOINSTYLE
280
     0
  9
$LWDISPLAY
290
     1
  9
$INSUNITS
 70
     4
  9
$HYPERLINKBASE
  1

  9
$STYLESHEET
  1

  9
$XEDIT
290
     1
  9
$CEPSNTYPE
380
     0
  9
$PSTYLEMODE
290
     1
  9
$FINGERPRINTGUID
  2
{142ef666-adf1-4f0f-86f9-b8fcd1fc9b2d}
  9
$VERSIONGUID
  2
{FAEB1C32-E019-11D5-929B-00C0DF256EC4}
  9
$EXTNAMES
290
     1
  9
$PSVPSCALE
 40
0.0
  9
$OLESTARTUP
290
     0
  9
$SORTENTS
280
   127
  9
$INDEXCTL
280
     0
  9
$HIDETEXT
280
     1
  9
$XCLIPFRAME
280
     2
  9
$HALOGAP
280
     0
  9
$OBSCOLOR
 70
   257
  9
$OBSLTYPE
280
     0
  9
$INTERSECTIONDISPLAY
280
     0
  9
$INTERSECTIONCOLOR
 70
   257
  9
$DIMASSOC
280
     2
  9
$PROJECTNAME
  1

  9
$CAMERADISPLAY
290
     0
  9
$LENSLENGTH
 40
50.0
  9
$CAMERAHEIGHT
 40
0.0
  9
$STEPSPERSEC
 40
2.0
  9
$STEPSIZE
 40
6.0
  9
$3DDWFPREC
 40
2.0
  9
$PSOLWIDTH
 40
5.0
  9
$PSOLHEIGHT
 40
80.0
  9
$LOFTANG1
 40
1.5707963268
  9
$LOFTANG2
 40
1.5707963268
  9
$LOFTMAG1
 40
0.0
  9
$LOFTMAG2
 40
0.0
  9
$LOFTPARAM
 70
     7
  9
$LOFTNORMALS
280
     1
  9
$LATITUDE
 40
37.795
  9
$LONGITUDE
 40
-122.394
  9
$NORTHDIRECTION
 40
0.0
  9
$TIMEZONE
 70
 -8000
  9
$LIGHTGLYPHDISPLAY
280
     1
  9
$TILEMODELIGHTSYNCH
280
     1
  9
$CMATERIAL
347
44
  9
$SOLIDHIST
280
     0
  9
$SHOWHIST
280
     1
  9
$DWFFRAME
280
     2
  9
$DGNFRAME
280
     2
  9
$REALWORLDSCALE
290
     1
  9
$INTERFERECOLOR
 62
   256
  9
$CSHADOW
280
     0
  9
$SHADOWPLANELOCATION
 40
0.0
  0
ENDSEC
  0
SECTION
  2
CLASSES
  0
CLASS
  1
ACDBDICTIONARYWDFLT
  2
AcDbDictionaryWithDefault
  3
ObjectDBX Classes
 90
        0
 91
        3
280
     0
281
     0
  0
CLASS
  1
VISUALSTYLE
  2
AcDbVisualStyle
  3
ObjectDBX Classes
 90
     4095
 91
        3
280
     0
281
     0
  0
CLASS
  1
MATERIAL
  2
AcDbMaterial
  3
ObjectDBX Classes
 90
     1153
 91
        3
280
     0
281
     0
  0
CLASS
  1
SCALE
  2
AcDbScale
  3
ObjectDBX Classes
 90
     1153
 91
        3
280
     0
281
     0
  0
CLASS
  1
TABLESTYLE
  2
AcDbTableStyle
  3
ObjectDBX Classes
 90
     4095
 91
        3
280
     0
281
     0
  0
CLASS
  1
MLEADERSTYLE
  2
AcDbMLeaderStyle
  3
ACDB_MLEADERSTYLE_CLASS
 90
     4095
 91
        3
280
     0
281
     0
  0
CLASS
  1
SUN
  2
AcDbSun
  3
SCENEOE
 90
     1153
 91
        3
280
     0
281
     0
  0
CLASS
  1
DICTIONARYVAR
  2
AcDbDictionaryVar
  3
ObjectDBX Classes
 90
        0
 91
        3
280
     0
281
     0
  0
CLASS
  1
CELLSTYLEMAP
  2
AcDbCellStyleMap
  3
ObjectDBX Classes
 90
     1152
 91
        3
280
     0
281
     0
  0
ENDSEC
  0
SECTION
  2
TABLES
  0
TABLE
  2
VPORT
  5
8
330
0
100
AcDbSymbolTable
 70
     1
  0
VPORT
  5
29
330
8
100
AcDbSymbolTableRecord
100
AcDbViewportTableRecord
  2
*Active
 70
     0
 10
0.0
 20
0.0
 11
1.0
 21
1.0
 12
0.0
 22
0.0
 13
0.0
 23
0.0
 14
10.0
 24
10.0
 15
10.0
 25
10.0
 16
0.0
 26
0.0
 36
1.0
 17
0.0
 27
0.0
 37
0.0
 40
30.6
 41
5.0
 42
50.0
 43
0.0
 44
0.0
 50
0.0
 51
0.0
 71
     0
 72
   100
 73
     1
 74
     3
 75
     0
 76
     0
 77
     0
 78
     0
281
     0
 65
     1
110
0.0
120
0.0
130
0.0
111
1.0
121
0.0
131
0.0
112
0.0
122
1.0
132
0.0
 79
     0
146
0.0
348
2F
 60
     3
 61
     5
292
     1
282
     1
141
0.0
142
0.0
 63
   250
361
6D
  0
ENDTAB
  0
TABLE
  2
LTYPE
  5
5
330
0
100
AcDbSymbolTable
 70
     6
  0
LTYPE
  5
14
330
5
100
AcDbSymbolTableRecord
100
AcDbLinetypeTableRecord
  2
ByBlock
 70
     0
  3

 72
    65
 73
     0
 40
0.0
  0
LTYPE
  5
15
330
5
100
AcDbSymbolTableRecord
100
AcDbLinetypeTableRecord
  2
ByLayer
 70
     0
  3

 72
    65
 73
     0
 40
0.0
  0
LTYPE
  5
16
330
5
100
AcDbSymbolTableRecord
100
AcDbLinetypeTableRecord
  2
Continuous
 70
     0
  3
Solid line
 72
    65
 73
     0
 40
0.0
  0
LTYPE
  5
6E
330
5
100
AcDbSymbolTableRecord
100
AcDbLinetypeTableRecord
  2
HIDDEN
 70
     0
  3
Hidden __ __ __ __ __ __ __ __ __ __ __ __ __ __
 72
    65
 73
     2
 40
1.905
 49
1.27
 74
     0
 49
-0.635
 74
     0
  0
LTYPE
  5
6F
330
5
100
AcDbSymbolTableRecord
100
AcDbLinetypeTableRecord
  2
PHANTOM
 70
     0
  3
Phantom ______  __  __  ______  __  __  ______
 72
    65
 73
     6
 40
12.7
 49
6.35
 74
     0
 49
-1.27
 74
     0
 49
1.27
 74
     0
 49
-1.27
 74
     0
 49
1.27
 74
     0
 49
-1.27
 74
     0
  0
LTYPE
  5
70
330
5
100
AcDbSymbolTableRecord
100
AcDbLinetypeTableRecord
  2
CENTER
 70
     0
  3
Center ____ _ ____ _ ____ _ ____ _ ____ _ ____
 72
    65
 73
     4
 40
10.16
 49
6.35
 74
     0
 49
-1.27
 74
     0
 49
1.27
 74
     0
 49
-1.27
 74
     0
  0
LTYPE
  5
71
330
5
100
AcDbSymbolTableRecord
100
AcDbLinetypeTableRecord
  2
CENTERX2
 70
     0
  3
Center (2x) ________  __  ________  __  _____
 72
    65
 73
     4
 40
20.32
 49
12.7
 74
     0
 49
-2.54
 74
     0
 49
2.54
 74
     0
 49
-2.54
 74
     0
  0
LTYPE
  5
72
330
5
100
AcDbSymbolTableRecord
100
AcDbLinetypeTableRecord
  2
DOT2
 70
     0
  3
Dot (.5x) ........................................
 72
    65
 73
     2
 40
0.635
 49
0.0
 74
     0
 49
-0.635
 74
     0
  0
ENDTAB
  0
TABLE
  2
LAYER
  5
2
330
0
100
AcDbSymbolTable
 70
     1
  0
LAYER
  5
10
330
2
100
AcDbSymbolTableRecord
100
AcDbLayerTableRecord
  2
0
 70
     0
 62
     7
  6
Continuous
370
    -3
390
F
347
46
348
0
  0
ENDTAB
  0
TABLE
  2
STYLE
  5
3
330
0
100
AcDbSymbolTable
 70
     1
  0
STYLE
  5
11
330
3
100
AcDbSymbolTableRecord
100
AcDbTextStyleTableRecord
  2
Standard
 70
     0
 40
0.0
 41
1.0
 50
0.0
 71
     0
 42
3.5
  3
txt
  4

  0
ENDTAB
  0
TABLE
  2
VIEW
  5
6
330
0
100
AcDbSymbolTable
 70
     0
  0
ENDTAB
  0
TABLE
  2
UCS
  5
7
330
0
100
AcDbSymbolTable
 70
     0
  0
ENDTAB
  0
TABLE
  2
APPID
  5
9
330
0
100
AcDbSymbolTable
 70
     1
  0
APPID
  5
12
330
9
100
AcDbSymbolTableRecord
100
AcDbRegAppTableRecord
  2
ACAD
 70
     0
  0
ENDTAB
  0
TABLE
  2
DIMSTYLE
  5
A
330
0
100
AcDbSymbolTable
 70
     1
100
AcDbDimStyleTable
  0
DIMSTYLE
105
27
330
A
100
AcDbSymbolTableRecord
100
AcDbDimStyleTableRecord
  2
ISO-25
 70
     0
 41
2.5
 42
0.625
 43
3.75
 44
1.25
 73
     0
 74
     0
 77
     1
 78
     8
140
2.5
141
2.5
143
0.0393700787
147
0.625
171
     3
172
     1
178
     0
271
     2
272
     2
274
     3
278
    44
283
     0
284
     8
340
11
  0
ENDTAB
  0
TABLE
  2
BLOCK_RECORD
  5
1
330
0
100
AcDbSymbolTable
 70
     1
  0
BLOCK_RECORD
  5
1F
330
1
100
AcDbSymbolTableRecord
100
AcDbBlockTableRecord
  2
*Model_Space
340
22
 70
     0
280
     1
281
     0
  0
BLOCK_RECORD
  5
1B
330
1
100
AcDbSymbolTableRecord
100
AcDbBlockTableRecord
  2
*Paper_Space
340
1E
 70
     0
280
     1
281
     0
  0
BLOCK_RECORD
  5
23
330
1
100
AcDbSymbolTableRecord
100
AcDbBlockTableRecord
  2
*Paper_Space0
340
26
 70
     0
280
     1
281
     0
  0
ENDTAB
  0
ENDSEC
  0
SECTION
  2
BLOCKS
  0
BLOCK
  5
20
330
1F
100
AcDbEntity
  8
0
100
AcDbBlockBegin
  2
*Model_Space
 70
     0
 10
0.0
 20
0.0
 30
0.0
  3
*Model_Space
  1

  0
ENDBLK
  5
21
330
1F
100
AcDbEntity
  8
0
100
AcDbBlockEnd
  0
BLOCK
  5
1C
330
1B
100
AcDbEntity
 67
     1
  8
0
100
AcDbBlockBegin
  2
*Paper_Space
 70
     0
 10
0.0
 20
0.0
 30
0.0
  3
*Paper_Space
  1

  0
ENDBLK
  5
1D
330
1B
100
AcDbEntity
 67
     1
  8
0
100
AcDbBlockEnd
  0
BLOCK
  5
24
330
23
100
AcDbEntity
  8
0
100
AcDbBlockBegin
  2
*Paper_Space0
 70
     0
 10
0.0
 20
0.0
 30
0.0
  3
*Paper_Space0
  1

  0
ENDBLK
  5
25
330
23
100
AcDbEntity
  8
0
100
AcDbBlockEnd
  0
ENDSEC
  0
SECTION
  2
ENTITIES
  0
LINE
  5
73
330
1F
100
AcDbEntity
  8
0
  6
Continuous
 62
     7
370
    25
100
AcDbLine
 10
75.0
 20
-15.0
 30
0.0
 11
75.0
 21
15.0
 31
0.0
  0
LINE
  5
74
330
1F
100
AcDbEntity
  8
0
  6
Continuous
 62
     7
370
    25
100
AcDbLine
 10
75.0
 20
15.0
 30
0.0
 11
-75.0
 21
15.0
 31
0.0
  0
LINE
  5
75
330
1F
100
AcDbEntity
  8
0
  6
Continuous
 62
     7
370
    25
100
AcDbLine
 10
-75.0
 20
15.0
 30
0.0
 11
-75.0
 21
-15.0
 31
0.0
  0
LINE
  5
76
330
1F
100
AcDbEntity
  8
0
  6
Continuous
 62
     7
370
    25
100
AcDbLine
 10
-75.0
 20
-15.0
 30
0.0
 11
75.0
 21
-15.0
 31
0.0
  0
SPLINE
  5
77
330
1F
100
AcDbEntity
  8
0
  6
Continuous
 62
     7
370
    25
100
AcDbSpline
210
0.0
220
0.0
230
1.0
 70
     8
 71
     3
 72
    23
 73
    19
 74
     0
 42
0.000000001
 43
0.00000001
 40
0.0
 40
0.0
 40
0.0
 40
0.0
 40
0.0784461550548298
 40
0.1522617289642865
 40
0.2212449727755535
 40
0.2863179264206424
 40
0.34792225273696
 40
0.4068365367914435
 40
0.4632620686442439
 40
0.5181743771826246
 40
0.5723194135994332
 40
0.6269611405833355
 40
0.6821223002908544
 40
0.7394712803166041
 40
0.7991449634971216
 40
0.8623368564737953
 40
0.928900626310533
 40
1.0
 40
1.0
 40
1.0
 40
1.0
 10
-14.33833340392166
 20
1.620018825366625
 30
0.0
 10
-14.19159099569434
 20
1.622856226180125
 30
0.0
 10
-13.90676820516421
 20
1.628363539487274
 30
0.0
 10
-13.49406081827886
 20
1.665041477869042
 30
0.0
 10
-13.11041697104221
 20
1.730776364422359
 30
0.0
 10
-12.75496434844598
 20
1.819576341646903
 30
0.0
 10
-12.42606388813307
 20
1.932265138610089
 30
0.0
 10
-12.12529791720387
 20
2.072403445890429
 30
0.0
 10
-11.85534287968019
 20
2.242805511718656
 30
0.0
 10
-11.61276868261763
 20
2.436119215048211
 30
0.0
 10
-11.39702740901592
 20
2.654557850552548
 30
0.0
 10
-11.21088821497195
 20
2.899405963442227
 30
0.0
 10
-11.05487204691975
 20
3.171308358169806
 30
0.0
 10
-10.92830254002796
 20
3.468192690003113
 30
0.0
 10
-10.82836136869189
 20
3.790716047555231
 30
0.0
 10
-10.75652061005954
 20
4.138246310516225
 30
0.0
 10
-10.71561723508592
 20
4.512366928888799
 30
0.0
 10
-10.71072713208752
 20
4.76992741273851
 30
0.0
 10
-10.70820152318772
 20
4.902950592507645
 30
0.0
  0
SPLINE
  5
78
330
1F
100
AcDbEntity
  8
0
  6
Continuous
 62
     7
370
    25
100
AcDbSpline
210
0.0
220
0.0
230
1.0
 70
     8
 71
     3
 72
    23
 73
    19
 74
     0
 42
0.000000001
 43
0.00000001
 40
0.0
 40
0.0
 40
0.0
 40
0.0
 40
0.0732560878441966
 40
0.1428567218472891
 40
0.2078604517320822
 40
0.2695678950549162
 40
0.3277775208238986
 40
0.3843471087698789
 40
0.4397417850989254
 40
0.4939115600029196
 40
0.5491340597557239
 40
0.6048794396969653
 40
0.6623231159641466
 40
0.7221463338538491
 40
0.7855949481063941
 40
0.8525620655744697
 40
0.9240835105836808
 40
1.0
 40
1.0
 40
1.0
 40
1.0
 10
-10.70820152318772
 20
4.902950592507645
 30
0.0
 10
-10.71096004180957
 20
5.029097273108933
 30
0.0
 10
-10.71633942991324
 20
5.275095957900079
 30
0.0
 10
-10.75446115494345
 20
5.631363586899739
 30
0.0
 10
-10.81480237056878
 20
5.964344702248317
 30
0.0
 10
-10.9039578923413
 20
6.270676429667132
 30
0.0
 10
-11.01893296206613
 20
6.552432774126815
 30
0.0
 10
-11.15551478771611
 20
6.812348277946565
 30
0.0
 10
-11.32088313004132
 20
7.046851536767271
 30
0.0
 10
-11.51357411472282
 20
7.255979261839466
 30
0.0
 10
-11.72945494425771
 20
7.442189695248463
 30
0.0
 10
-11.97316255564079
 20
7.600715382966216
 30
0.0
 10
-12.23955027958596
 20
7.735176518267872
 30
0.0
 10
-12.53101636865457
 20
7.845767804770739
 30
0.0
 10
-12.84790680705835
 20
7.930295180450448
 30
0.0
 10
-13.19030676714643
 20
7.99314002880637
 30
0.0
 10
-13.55852728104155
 20
8.025286259331613
 30
0.0
 10
-13.81232493177457
 20
8.031452063106766
 30
0.0
 10
-13.94300654190992
 20
8.034626864618083
 30
0.0
  0
SPLINE
  5
79
330
1F
100
AcDbEntity
  8
0
  6
Continuous
 62
     7
370
    25
100
AcDbSpline
210
0.0
220
0.0
230
1.0
 70
     8
 71
     3
 72
    11
 73
     7
 74
     0
 42
0.000000001
 43
0.00000001
 40
0.0
 40
0.0
 40
0.0
 40
0.0
 40
0.3105937880944604
 40
0.581069460025897
 40
0.80763482151211
 40
1.0
 40
1.0
 40
1.0
 40
1.0
 10
-13.94300654190992
 20
8.034626864618085
 30
0.0
 10
-14.03015397227232
 20
8.034839794774207
 30
0.0
 10
-14.19319235953048
 20
8.035238151778064
 30
0.0
 10
-14.41891193521515
 20
8.015961226661068
 30
0.0
 10
-14.61142566583881
 20
7.995234269509722
 30
0.0
 10
-14.72582111072957
 20
7.96804589322621
 30
0.0
 10
-14.77834938946517
 20
7.955561492215733
 30
0.0
  0
LINE
  5
7A
330
1F
100
AcDbEntity
  8
0
  6
Continuous
 62
     7
370
    25
100
AcDbLine
 10
-14.7783493895
 20
7.9555614922
 30
0.0
 11
-14.7783493895
 21
8.9868489583
 31
0.0
  0
LINE
  5
7B
330
1F
100
AcDbEntity
  8
0
  6
Continuous
 62
     7
370
    25
100
AcDbLine
 10
-14.7783493895
 20
8.9868489583
 30
0.0
 11
-13.5717430541
 21
8.9868489583
 31
0.0
  0
SPLINE
  5
7C
330
1F
100
AcDbEntity
  8
0
  6
Continuous
 62
     7
370
    25
100
AcDbSpline
210
0.0
220
0.0
230
1.0
 70
     8
 71
     3
 72
    15
 73
    11
 74
     0
 42
0.000000001
 43
0.00000001
 40
0.0
 40
0.0
 40
0.0
 40
0.0
 40
0.153647224703037
 40
0.2977049379067613
 40
0.4332990107354624
 40
0.5602452672568932
 40
0.6793863486275754
 40
0.7916247388592151
 40
0.8983452346743496
 40
1.0
 40
1.0
 40
1.0
 40
1.0
 10
-13.57174305410758
 20
8.986848958333331
 30
0.0
 10
-13.32526191526008
 20
8.98411355889571
 30
0.0
 10
-12.84768314820061
 20
8.978813483210645
 30
0.0
 10
-12.15451881546724
 20
8.922020628692247
 30
0.0
 10
-11.5079694788578
 20
8.834469607093522
 30
0.0
 10
-10.90757826564055
 20
8.712350299600137
 30
0.0
 10
-10.35470693160685
 20
8.552140634027404
 30
0.0
 10
-9.850647218582756
 20
8.350840356340065
 30
0.0
 10
-9.389023278981425
 20
8.1210563652951
 30
0.0
 10
-9.113492455180367
 20
7.931269003385266
 30
0.0
 10
-8.979076204997215
 20
7.83868224605574
 30
0.0
  0
SPLINE
  5
7D
330
1F
100
AcDbEntity
  8
0
  6
Continuous
 62
     7
370
    25
100
AcDbSpline
210
0.0
220
0.0
230
1.0
 70
     8
 71
     3
 72
    15
 73
    11
 74
     0
 42
0.000000001
 43
0.00000001
 40
0.0
 40
0.0
 40
0.0
 40
0.0
 40
0.1283182260644994
 40
0.2510311367748088
 40
0.3720690573397673
 40
0.4918179692745233
 40
0.6121655210512241
 40
0.7359558636367464
 40
0.8651477282606417
 40
1.0
 40
1.0
 40
1.0
 40
1.0
 10
-8.979076204997215
 20
7.83868224605574
 30
0.0
 10
-8.865467684185218
 20
7.749789691121958
 30
0.0
 10
-8.643213394974541
 20
7.575887668001499
 30
0.0
 10
-8.3556363779689
 20
7.270871412969305
 30
0.0
 10
-8.109762681704924
 20
6.944052313127374
 30
0.0
 10
-7.909064960155086
 20
6.590460721469459
 30
0.0
 10
-7.752243143813671
 20
6.211874527907202
 30
0.0
 10
-7.644402059357823
 20
5.806027982391383
 30
0.0
 10
-7.572007887411456
 20
5.375344516929228
 30
0.0
 10
-7.565896136740166
 20
5.078578112089644
 30
0.0
 10
-7.562774751529047
 20
4.927013966717054
 30
0.0
  0
SPLINE
  5
7E
330
1F
100
AcDbEntity
  8
0
  6
Continuous
 62
     7
370
    25
100
AcDbSpline
210
0.0
220
0.0
230
1.0
 70
     8
 71
     3
 72
    15
 73
    11
 74
     0
 42
0.000000001
 43
0.00000001
 40
0.0
 40
0.0
 40
0.0
 40
0.0
 40
0.1304013868002959
 40
0.2558750539720384
 40
0.3789673235213319
 40
0.5006468552882565
 40
0.6221028025898633
 40
0.7448141898210446
 40
0.870528320354746
 40
1.0
 40
1.0
 40
1.0
 40
1.0
 10
-7.562774751529047
 20
4.927013966717054
 30
0.0
 10
-7.565948708735882
 20
4.805369829219452
 30
0.0
 10
-7.572176682927965
 20
4.566678347393045
 30
0.0
 10
-7.625117517559397
 20
4.216264148337844
 30
0.0
 10
-7.712363730853802
 20
3.881884725817022
 30
0.0
 10
-7.826891318963534
 20
3.559222366101764
 30
0.0
 10
-7.985672388111709
 20
3.256429861389351
 30
0.0
 10
-8.170159259828992
 20
2.96436081663491
 30
0.0
 10
-8.396115927191158
 20
2.692605593414494
 30
0.0
 10
-8.566205029300994
 20
2.526093264594918
 30
0.0
 10
-8.652501840726641
 20
2.441611173373643
 30
0.0
  0
SPLINE
  5
7F
330
1F
100
AcDbEntity
  8
0
  6
Continuous
 62
     7
370
    25
100
AcDbSpline
210
0.0
220
0.0
230
1.0
 70
     8
 71
     3
 72
    15
 73
    11
 74
     0
 42
0.000000001
 43
0.00000001
 40
0.0
 40
0.0
 40
0.0
 40
0.0
 40
0.1140260145429364
 40
0.2295196571469979
 40
0.3474187550978965
 40
0.4686053031945764
 40
0.5938918863063148
 40
0.7226956526590648
 40
0.8583110051199246
 40
1.0
 40
1.0
 40
1.0
 40
1.0
 10
-8.652501840726643
 20
2.441611173373644
 30
0.0
 10
-8.745003865154013
 20
2.361830072861898
 30
0.0
 10
-8.93119850693884
 20
2.201241009833908
 30
0.0
 10
-9.23989411571087
 20
1.992411975370754
 30
0.0
 10
-9.57095226898543
 20
1.805954948902434
 30
0.0
 10
-9.926601244470941
 20
1.644695285917605
 30
0.0
 10
-10.30437964058769
 20
1.506621293582385
 30
0.0
 10
-10.70755088033537
 20
1.398168530420413
 30
0.0
 10
-11.13301395061966
 20
1.307056247427323
 30
0.0
 10
-11.42746863770131
 20
1.268470680236083
 30
0.0
 10
-11.57792061961356
 20
1.24875533756429
 30
0.0
  0
LINE
  5
80
330
1F
100
AcDbEntity
  8
0
  6
Continuous
 62
     7
370
    25
100
AcDbLine
 10
-11.5779206196
 20
1.2487553376
 30
0.0
 11
-11.5779206196
 21
1.2006285891
 31
0.0
  0
SPLINE
  5
81
330
1F
100
AcDbEntity
  8
0
  6
Continuous
 62
     7
370
    25
100
AcDbSpline
210
0.0
220
0.0
230
1.0
 70
     8
 71
     3
 72
    15
 73
    11
 74
     0
 42
0.000000001
 43
0.00000001
 40
0.0
 40
0.0
 40
0.0
 40
0.0
 40
0.1571512130449819
 40
0.3016417854215726
 40
0.4357595199799685
 40
0.5601900771253111
 40
0.6765727961103541
 40
0.7873265312660823
 40
0.8939502407651178
 40
1.0
 40
1.0
 40
1.0
 40
1.0
 10
-11.57792061961356
 20
1.200628589145467
 30
0.0
 10
-11.30202498126879
 20
1.158252568512656
 30
0.0
 10
-10.77246080338032
 20
1.076914484796534
 30
0.0
 10
-10.02157986305352
 20
0.8858855592950329
 30
0.0
 10
-9.344401458980776
 20
0.6515340030292618
 30
0.0
 10
-8.741536986862172
 20
0.366265121794542
 30
0.0
 10
-8.211281067736344
 20
0.0329140384116565
 30
0.0
 10
-7.76214290327798
 20
-0.3559129904311192
 30
0.0
 10
-7.37854812187258
 20
-0.7879635801166869
 30
0.0
 10
-7.191811650785838
 20
-1.117175064911757
 30
0.0
 10
-7.098695391776127
 20
-1.281336579310884
 30
0.0
  0
SPLINE
  5
82
330
1F
100
AcDbEntity
  8
0
  6
Continuous
 62
     7
370
    25
100
AcDbSpline
210
0.0
220
0.0
230
1.0
 70
     8
 71
     3
 72
    19
 73
    15
 74
     0
 42
0.000000001
 43
0.00000001
 40
0.0
 40
0.0
 40
0.0
 40
0.0
 40
0.0764470955570156
 40
0.1550008861001069
 40
0.2379752653534545
 40
0.3250876483954294
 40
0.4134476389534684
 40
0.4993014345569758
 40
0.5835482760552366
 40
0.6668990698548323
 40
0.7492969132700541
 40
0.8312790370544831
 40
0.9144996316242563
 40
1.0
 40
1.0
 40
1.0
 40
1.0
 10
-7.098695391776127
 20
-1.281336579310884
 30
0.0
 10
-7.038594397733533
 20
-1.404687250782155
 30
0.0
 10
-6.916736173242168
 20
-1.654787836550393
 30
0.0
 10
-6.804497688622003
 20
-2.068114702646364
 30
0.0
 10
-6.731421704253261
 20
-2.50804019966647
 30
0.0
 10
-6.710019567701234
 20
-2.971539264572068
 30
0.0
 10
-6.730654679927339
 20
-3.439649958812713
 30
0.0
 10
-6.790812280124491
 20
-3.899532696726516
 30
0.0
 10
-6.899144520262726
 20
-4.341230485517317
 30
0.0
 10
-7.045320586801573
 20
-4.765280003365375
 30
0.0
 10
-7.23821427735422
 20
-5.166304141921531
 30
0.0
 10
-7.478816196785035
 20
-5.539769439641209
 30
0.0
 10
-7.760001939864273
 20
-5.891892227138364
 30
0.0
 10
-7.982735188310448
 20
-6.096759873755106
 30
0.0
 10
-8.09560660902314
 20
-6.200577792691826
 30
0.0
  0
SPLINE
  5
83
330
1F
100
AcDbEntity
  8
0
  6
Continuous
 62
     7
370
    25
100
AcDbSpline
210
0.0
220
0.0
230
1.0
 70
     8
 71
     3
 72
    15
 73
    11
 74
     0
 42
0.000000001
 43
0.00000001
 40
0.0
 40
0.0
 40
0.0
 40
0.0
 40
0.1074451783079457
 40
0.2168781753485464
 40
0.3310230838600461
 40
0.4507528833551794
 40
0.5766146624346583
 40
0.7091521275168369
 40
0.8501007898707639
 40
1.0
 40
1.0
 40
1.0
 40
1.0
 10
-8.09560660902314
 20
-6.200577792691826
 30
0.0
 10
-8.227199876812026
 20
-6.306095808700411
 30
0.0
 10
-8.4928209894171
 20
-6.519084005460177
 30
0.0
 10
-8.944398030836037
 20
-6.778217673123504
 30
0.0
 10
-9.433834685181651
 20
-7.003748582083218
 30
0.0
 10
-9.969503512632443
 20
-7.182936464935398
 30
0.0
 10
-10.54463702873432
 20
-7.329460268375079
 30
0.0
 10
-11.16401051558871
 20
-7.425139121543674
 30
0.0
 10
-11.82521382214566
 20
-7.489486526659316
 30
0.0
 10
-12.28132067490533
 20
-7.496424340825712
 30
0.0
 10
-12.51639221378057
 20
-7.5
 30
0.0
  0
LINE
  5
84
330
1F
100
AcDbEntity
  8
0
  6
Continuous
 62
     7
370
    25
100
AcDbLine
 10
-12.5163922138
 20
-7.5
 30
0.0
 11
-14.7783493895
 21
-7.5
 31
0.0
  0
LINE
  5
85
330
1F
100
AcDbEntity
  8
0
  6
Continuous
 62
     7
370
    25
100
AcDbLine
 10
-14.7783493895
 20
-7.5
 30
0.0
 11
-14.7783493895
 21
-6.4790254085
 31
0.0
  0
SPLINE
  5
86
330
1F
100
AcDbEntity
  8
0
  6
Continuous
 62
     7
370
    25
100
AcDbSpline
210
0.0
220
0.0
230
1.0
 70
     8
 71
     3
 72
    11
 73
     7
 74
     0
 42
0.000000001
 43
0.00000001
 40
0.0
 40
0.0
 40
0.0
 40
0.0
 40
0.157297901933552
 40
0.375137262995907
 40
0.654844989030186
 40
1.0
 40
1.0
 40
1.0
 40
1.0
 10
-14.77834938946517
 20
-6.479025408543578
 30
0.0
 10
-14.72465473081447
 20
-6.490439941858833
 30
0.0
 10
-14.59659919392479
 20
-6.517662280705218
 30
0.0
 10
-14.36825431675551
 20
-6.532368591549405
 30
0.0
 10
-14.07502133599497
 20
-6.547853262041038
 30
0.0
 10
-13.85711424332396
 20
-6.547804719625994
 30
0.0
 10
-13.7367490486864
 20
-6.54777790628475
 30
0.0
  0
SPLINE
  5
87
330
1F
100
AcDbEntity
  8
0
  6
Continuous
 62
     7
370
    25
100
AcDbSpline
210
0.0
220
0.0
230
1.0
 70
     8
 71
     3
 72
    23
 73
    19
 74
     0
 42
0.000000001
 43
0.00000001
 40
0.0
 40
0.0
 40
0.0
 40
0.0
 40
0.0810855547441623
 40
0.1572279226532541
 40
0.2275494108257605
 40
0.2936439257922765
 40
0.3558174522115244
 40
0.4137170728185777
 40
0.4688331528841346
 40
0.521373982714986
 40
0.5729980095862361
 40
0.6258867438420296
 40
0.6797198561663408
 40
0.7366322746646347
 40
0.7959331794381315
 40
0.8592912705218939
 40
0.9275332189576136
 40
1.0
 40
1.0
 40
1.0
 40
1.0
 10
-13.7367490486864
 20
-6.547777906284751
 30
0.0
 10
-13.57509800907853
 20
-6.545059165677181
 30
0.0
 10
-13.26165059871702
 20
-6.539787425978171
 30
0.0
 10
-12.80936078721864
 20
-6.501716610734521
 30
0.0
 10
-12.38948076837823
 20
-6.441833147191265
 30
0.0
 10
-12.00373473174377
 20
-6.351338895800814
 30
0.0
 10
-11.64863509277651
 20
-6.241392342102109
 30
0.0
 10
-11.329454612862
 20
-6.097922141221335
 30
0.0
 10
-11.04228394926783
 20
-5.934050307499272
 30
0.0
 10
-10.78764187969165
 20
-5.74289696650002
 30
0.0
 10
-10.56339639538816
 20
-5.52301809728511
 30
0.0
 10
-10.37142413988294
 20
-5.271146683018623
 30
0.0
 10
-10.2081296658674
 20
-4.987967335802048
 30
0.0
 10
-10.07364753261956
 20
-4.675740396881384
 30
0.0
 10
-9.976844126574886
 20
-4.330458455511294
 30
0.0
 10
-9.899445042880835
 20
-3.957568627122462
 30
0.0
 10
-9.855575134591168
 20
-3.552360511595229
 30
0.0
 10
-9.851100034666088
 20
-3.271822024226108
 30
0.0
 10
-9.848795301423056
 20
-3.127341143661384
 30
0.0
  0
SPLINE
  5
88
330
1F
100
AcDbEntity
  8
0
  6
Continuous
 62
     7
370
    25
100
AcDbSpline
210
0.0
220
0.0
230
1.0
 70
     8
 71
     3
 72
    23
 73
    19
 74
     0
 42
0.000000001
 43
0.00000001
 40
0.0
 40
0.0
 40
0.0
 40
0.0
 40
0.0689987479044739
 40
0.1345251077089157
 40
0.1967075947558181
 40
0.2557789618297914
 40
0.3131623344866033
 40
0.3685809750884114
 40
0.4236287755137391
 40
0.4785559832854417
 40
0.5344406464602611
 40
0.5913599116100057
 40
0.6501136144237122
 40
0.7119396157104028
 40
0.7776478781265463
 40
0.847085177299563
 40
0.9212529381444301
 40
1.0
 40
1.0
 40
1.0
 40
1.0
 10
-9.848795301423056
 20
-3.127341143661384
 30
0.0
 10
-9.852723050598524
 20
-2.981751536341353
 30
0.0
 10
-9.860380883485796
 20
-2.697899173786293
 30
0.0
 10
-9.901620382754034
 20
-2.283898377762315
 30
0.0
 10
-9.98717294880151
 20
-1.898497243815121
 30
0.0
 10
-10.09463864575406
 20
-1.536374209466121
 30
0.0
 10
-10.24120139127109
 20
-1.20384218170294
 30
0.0
 10
-10.41126019057103
 20
-0.8919188535955497
 30
0.0
 10
-10.62526247182134
 20
-0.6148570725101264
 30
0.0
 10
-10.86224581311746
 20
-0.356396664484098
 30
0.0
 10
-11.13550618469117
 20
-0.1295321408738703
 30
0.0
 10
-11.44030703855908
 20
0.0673363546753845
 30
0.0
 10
-11.77700649048483
 20
0.2336693599303122
 30
0.0
 10
-12.1478600164262
 20
0.3662857298866858
 30
0.0
 10
-12.55023215768057
 20
0.4729155975708502
 30
0.0
 10
-12.98619374560643
 20
0.5474399331324842
 30
0.0
 10
-13.45390151153721
 20
0.5924933386805715
 30
0.0
 10
-13.77674879021094
 20
0.5968174379362083
 30
0.0
 10
-13.94300654190992
 20
0.5990442339102019
 30
0.0
  0
LINE
  5
89
330
1F
100
AcDbEntity
  8
0
  6
Continuous
 62
     7
370
    25
100
AcDbLine
 10
-13.9430065419
 20
0.5990442339
 30
0.0
 11
-14.7783493895
 21
0.5990442339
 31
0.0
  0
LINE
  5
8A
330
1F
100
AcDbEntity
  8
0
  6
Continuous
 62
     7
370
    25
100
AcDbLine
 10
-14.7783493895
 20
0.5990442339
 30
0.0
 11
-14.7783493895
 21
1.6200188254
 31
0.0
  0
LINE
  5
8B
330
1F
100
AcDbEntity
  8
0
  6
Continuous
 62
     7
370
    25
100
AcDbLine
 10
-14.7783493895
 20
1.6200188254
 30
0.0
 11
-14.3383334039
 21
1.6200188254
 31
0.0
  0
LINE
  5
8C
330
1F
100
AcDbEntity
  8
0
  6
Continuous
 62
     7
370
    25
100
AcDbLine
 10
4.7507975939
 20
-7.5
 30
0.0
 11
-3.3241832658
 21
-7.5
 31
0.0
  0
LINE
  5
8D
330
1F
100
AcDbEntity
  8
0
  6
Continuous
 62
     7
370
    25
100
AcDbLine
 10
-3.3241832658
 20
-7.5
 30
0.0
 11
-1.9216323119
 21
-5.5268033148
 31
0.0
  0
LINE
  5
8E
330
1F
100
AcDbEntity
  8
0
  6
Continuous
 62
     7
370
    25
100
AcDbLine
 10
-1.9216323119
 20
-5.5268033148
 30
0.0
 11
0.061877248
 21
-5.5268033148
 31
0.0
  0
SPLINE
  5
8F
330
1F
100
AcDbEntity
  8
0
  6
Continuous
 62
     7
370
    25
100
AcDbSpline
210
0.0
220
0.0
230
1.0
 70
     8
 71
     3
 72
    15
 73
    11
 74
     0
 42
0.000000001
 43
0.00000001
 40
0.0
 40
0.0
 40
0.0
 40
0.0
 40
0.1663275580851928
 40
0.3185701489465223
 40
0.4574823947074293
 40
0.5837937698512701
 40
0.6999478536483893
 40
0.8066148025984886
 40
0.9053375629639329
 40
1.0
 40
1.0
 40
1.0
 40
1.0
 10
0.0618772479670515
 20
-5.52680331482833
 30
0.0
 10
0.2441653612373852
 20
-5.524646529407813
 30
0.0
 10
0.5933050471934945
 20
-5.520515599689555
 30
0.0
 10
1.093201296568306
 20
-5.476231120876512
 30
0.0
 10
1.544901818373366
 20
-5.401329373360395
 30
0.0
 10
1.950782162191555
 20
-5.299708035516513
 30
0.0
 10
2.31095995845556
 20
-5.167445453581089
 30
0.0
 10
2.622560204562999
 20
-5.001496421491696
 30
0.0
 10
2.892137125378528
 20
-4.809468311093786
 30
0.0
 10
3.03449218799584
 20
-4.651773260580089
 30
0.0
 10
3.104175273013966
 20
-4.57458122111308
 30
0.0
  0
SPLINE
  5
90
330
1F
100
AcDbEntity
  8
0
  6
Continuous
 62
     7
370
    25
100
AcDbSpline
210
0.0
220
0.0
230
1.0
 70
     8
 71
     3
 72
    15
 73
    11
 74
     0
 42
0.000000001
 43
0.00000001
 40
0.0
 40
0.0
 40
0.0
 40
0.0
 40
0.1268187740888191
 40
0.2567333425674298
 40
0.3899891058508207
 40
0.5285669687637617
 40
0.66475013836422
 40
0.7880534153528528
 40
0.9004016591433573
 40
1.0
 40
1.0
 40
1.0
 40
1.0
 10
3.104175273013966
 20
-4.57458122111308
 30
0.0
 10
3.166511739339543
 20
-4.49317339375707
 30
0.0
 10
3.292706377937761
 20
-4.328370478901395
 30
0.0
 10
3.454424448160584
 20
-4.057574057373341
 30
0.0
 10
3.610597614284099
 20
-3.77262007119921
 30
0.0
 10
3.732369002387276
 20
-3.465853601672166
 30
0.0
 10
3.852177813419936
 20
-3.167567856487401
 30
0.0
 10
3.969090380006272
 20
-2.890827317451813
 30
0.0
 10
4.081564204531963
 20
-2.644411308630884
 30
0.0
 10
4.15798878056138
 20
-2.491191676789444
 30
0.0
 10
4.193902362211561
 20
-2.419190416927301
 30
0.0
  0
LINE
  5
91
330
1F
100
AcDbEntity
  8
0
  6
Continuous
 62
     7
370
    25
100
AcDbLine
 10
4.1939023622
 20
-2.4191904169
 30
0.0
 11
4.7507975939
 21
-2.4191904169
 31
0.0
  0
LINE
  5
92
330
1F
100
AcDbEntity
  8
0
  6
Continuous
 62
     7
370
    25
100
AcDbLine
 10
4.7507975939
 20
-2.4191904169
 30
0.0
 11
4.7507975939
 21
-7.5
 31
0.0
  0
SPLINE
  5
93
330
1F
100
AcDbEntity
  8
0
  6
Continuous
 62
     7
370
    25
100
AcDbSpline
210
0.0
220
0.0
230
1.0
 70
     8
 71
     3
 72
    15
 73
    11
 74
     0
 42
0.000000001
 43
0.00000001
 40
0.0
 40
0.0
 40
0.0
 40
0.0
 40
0.1807147209581333
 40
0.3442594991282935
 40
0.4924502352459442
 40
0.6253572237358883
 40
0.7421174518036173
 40
0.8437259142408302
 40
0.9293470413536797
 40
1.0
 40
1.0
 40
1.0
 40
1.0
 10
-1.08628946431054
 20
-3.718612624235474
 30
0.0
 10
-1.20206442626485
 20
-3.820548709723585
 30
0.0
 10
-1.422614419108109
 20
-4.01473579944809
 30
0.0
 10
-1.737455161293784
 20
-4.293241728615045
 30
0.0
 10
-2.016765576671009
 20
-4.550325620029336
 30
0.0
 10
-2.258512256753074
 20
-4.788855765846046
 30
0.0
 10
-2.474482064476385
 20
-4.996928574736624
 30
0.0
 10
-2.652457226913122
 20
-5.185846826976737
 30
0.0
 10
-2.798314580264574
 20
-5.350829764180749
 30
0.0
 10
-2.881110657357397
 20
-5.455443227078409
 30
0.0
 10
-2.918543529112806
 20
-5.502739940618919
 30
0.0
  0
LINE
  5
94
330
1F
100
AcDbEntity
  8
0
  6
Continuous
 62
     7
370
    25
100
AcDbLine
 10
-2.9185435291
 20
-5.5027399406
 30
0.0
 11
-4.3795341061
 21
-7.5
 31
0.0
  0
LINE
  5
95
330
1F
100
AcDbEntity
  8
0
  6
Continuous
 62
     7
370
    25
100
AcDbLine
 10
-4.3795341061
 20
-7.5
 30
0.0
 11
-5.0051818356
 21
-7.5
 31
0.0
  0
LINE
  5
96
330
1F
100
AcDbEntity
  8
0
  6
Continuous
 62
     7
370
    25
100
AcDbLine
 10
-5.0051818356
 20
-7.5
 30
0.0
 11
-4.7748609681
 21
-5.3067953221
 31
0.0
  0
SPLINE
  5
97
330
1F
100
AcDbEntity
  8
0
  6
Continuous
 62
     7
370
    25
100
AcDbSpline
210
0.0
220
0.0
230
1.0
 70
     8
 71
     3
 72
    23
 73
    19
 74
     0
 42
0.000000001
 43
0.00000001
 40
0.0
 40
0.0
 40
0.0
 40
0.0
 40
0.1068176738059518
 40
0.2069839962441737
 40
0.3002499518025615
 40
0.3871632800908563
 40
0.4671406389840545
 40
0.5405142858643002
 40
0.6075419143486439
 40
0.6676538710716157
 40
0.7225481998627123
 40
0.773632803748875
 40
0.8208838617282096
 40
0.8643405258723571
 40
0.904019066332717
 40
0.9398780172839724
 40
0.9716841940152137
 40
1.0
 40
1.0
 40
1.0
 40
1.0
 10
-4.774860968124483
 20
-5.306795322056576
 30
0.0
 10
-4.572339695994512
 20
-5.064764369631256
 30
0.0
 10
-4.17990780025724
 20
-4.595773312600906
 30
0.0
 10
-3.605768958929902
 20
-3.919564071528514
 30
0.0
 10
-3.068307367310735
 20
-3.2893768842509
 30
0.0
 10
-2.569119882655087
 20
-2.704907324485032
 30
0.0
 10
-2.099311894912871
 20
-2.17276037735115
 30
0.0
 10
-1.66965168471123
 20
-1.683582984361743
 30
0.0
 10
-1.276923111394593
 20
-1.240025651818887
 30
0.0
 10
-0.9112723790885007
 20
-0.8456257108456978
 30
0.0
 10
-0.5769378070862983
 20
-0.486425448117516
 30
0.0
 10
-0.2759110591475522
 20
-0.1482818129725971
 30
0.0
 10
0.0039557812922329
 20
0.1634296722893483
 30
0.0
 10
0.2553119558245777
 20
0.4554040322937457
 30
0.0
 10
0.4777088864560912
 20
0.7276955479261911
 30
0.0
 10
0.6775975103877674
 20
0.9739115915863704
 30
0.0
 10
0.8509886428269823
 20
1.198361448976384
 30
0.0
 10
0.9548640142061209
 20
1.342458123214268
 30
0.0
 10
1.003786467021125
 20
1.410323707256047
 30
0.0
  0
SPLINE
  5
98
330
1F
100
AcDbEntity
  8
0
  6
Continuous
 62
     7
370
    25
100
AcDbSpline
210
0.0
220
0.0
230
1.0
 70
     8
 71
     3
 72
    15
 73
    11
 74
     0
 42
0.000000001
 43
0.00000001
 40
0.0
 40
0.0
 40
0.0
 40
0.0
 40
0.1395674106371488
 40
0.272781111607898
 40
0.4023779892724579
 40
0.5272048981666924
 40
0.6484879319996734
 40
0.767076012601527
 40
0.8840005616620783
 40
1.0
 40
1.0
 40
1.0
 40
1.0
 10
1.003786467021125
 20
1.410323707256047
 30
0.0
 10
1.09614814757343
 20
1.547813077347711
 30
0.0
 10
1.276666807166054
 20
1.816532709220651
 30
0.0
 10
1.511885971889278
 20
2.232554186301265
 30
0.0
 10
1.710456349453736
 20
2.647673863190776
 30
0.0
 10
1.877871731571738
 20
3.061183006056365
 30
0.0
 10
2.006134656612256
 20
3.475106954785707
 30
0.0
 10
2.094469690084818
 20
3.889419062674187
 30
0.0
 10
2.153207380547884
 20
4.303118255995835
 30
0.0
 10
2.159254501996415
 20
4.579618045054331
 30
0.0
 10
2.162266053959892
 20
4.717318848606476
 30
0.0
  0
SPLINE
  5
99
330
1F
100
AcDbEntity
  8
0
  6
Continuous
 62
     7
370
    25
100
AcDbSpline
210
0.0
220
0.0
230
1.0
 70
     8
 71
     3
 72
    23
 73
    19
 74
     0
 42
0.000000001
 43
0.00000001
 40
0.0
 40
0.0
 40
0.0
 40
0.0
 40
0.0847732589390881
 40
0.1650905934063069
 40
0.2418433589579168
 40
0.3136689684809287
 40
0.38245437922623
 40
0.4470372856760546
 40
0.5089974087428257
 40
0.5679322820956414
 40
0.6242290816706687
 40
0.6787851762817925
 40
0.7327943836429459
 40
0.7852023413287165
 40
0.8376046342079326
 40
0.8903682486201329
 40
0.9441957638569112
 40
1.0
 40
1.0
 40
1.0
 40
1.0
 10
2.162266053959892
 20
4.717318848606476
 30
0.0
 10
2.161360849070904
 20
4.843413384112067
 30
0.0
 10
2.159598019445766
 20
5.088974566405042
 30
0.0
 10
2.133905945271807
 20
5.447895490079546
 30
0.0
 10
2.097329007548853
 20
5.786401870364822
 30
0.0
 10
2.04599417154189
 20
6.10569933134471
 30
0.0
 10
1.9789265084924
 20
6.403717665468716
 30
0.0
 10
1.891098547680294
 20
6.680850245773248
 30
0.0
 10
1.792713517615436
 20
6.938766912612274
 30
0.0
 10
1.678949342856408
 20
7.176727116911231
 30
0.0
 10
1.552294997177561
 20
7.395665723730892
 30
0.0
 10
1.405873030687534
 20
7.592789165887774
 30
0.0
 10
1.246250893138584
 20
7.771935255729372
 30
0.0
 10
1.067439603139506
 20
7.926739392534144
 30
0.0
 10
0.8793905775838426
 20
8.067569499177964
 30
0.0
 10
0.6699952640732941
 20
8.178499965601578
 30
0.0
 10
0.4495315136829038
 20
8.278198592688383
 30
0.0
 10
0.2928738744212066
 20
8.324090862814357
 30
0.0
 10
0.2131327429976326
 20
8.347450729340421
 30
0.0
  0
LINE
  5
9A
330
1F
100
AcDbEntity
  8
0
  6
Continuous
 62
     7
370
    25
100
AcDbLine
 10
0.213132743
 20
8.3474507293
 30
0.0
 11
0.213132743
 21
9.3477995715
 31
0.0
  0
SPLINE
  5
9B
330
1F
100
AcDbEntity
  8
0
  6
Continuous
 62
     7
370
    25
100
AcDbSpline
210
0.0
220
0.0
230
1.0
 70
     8
 71
     3
 72
    15
 73
    11
 74
     0
 42
0.000000001
 43
0.00000001
 40
0.0
 40
0.0
 40
0.0
 40
0.0
 40
0.1400871585629998
 40
0.2735708996479033
 40
0.4020625772963143
 40
0.5256526816062236
 40
0.6461073898349142
 40
0.7647847719360937
 40
0.8821313157146033
 40
1.0
 40
1.0
 40
1.0
 40
1.0
 10
0.2131327429976326
 20
9.34779957147449
 30
0.0
 10
0.3990617489777959
 20
9.338455882546317
 30
0.0
 10
0.7621554540568293
 20
9.320208946764824
 30
0.0
 10
1.290789840226061
 20
9.238560198051477
 30
0.0
 10
1.789973843046108
 20
9.122698547805504
 30
0.0
 10
2.261598113149696
 20
8.969886276186513
 30
0.0
 10
2.69987493156796
 20
8.767480471187246
 30
0.0
 10
3.110121159964359
 20
8.530234812023286
 30
0.0
 10
3.493433084121255
 20
8.255690428145979
 30
0.0
 10
3.719611500681231
 20
8.039722026587583
 30
0.0
 10
3.832951749070402
 20
7.931498118006324
 30
0.0
  0
SPLINE
  5
9C
330
1F
100
AcDbEntity
  8
0
  6
Continuous
 62
     7
370
    25
100
AcDbSpline
210
0.0
220
0.0
230
1.0
 70
     8
 71
     3
 72
    15
 73
    11
 74
     0
 42
0.000000001
 43
0.00000001
 40
0.0
 40
0.0
 40
0.0
 40
0.0
 40
0.126903939334217
 40
0.2507859227986493
 40
0.3728020318584345
 40
0.4941616830921335
 40
0.6170517813126597
 40
0.7407683129724255
 40
0.8683001746426249
 40
0.9999999999999999
 40
0.9999999999999999
 40
0.9999999999999999
 40
0.9999999999999999
 10
3.832951749070402
 20
7.931498118006324
 30
0.0
 10
3.93025949656491
 20
7.825629841230817
 30
0.0
 10
4.122557808019205
 20
7.616414322583083
 30
0.0
 10
4.370098217452131
 20
7.273293272111786
 30
0.0
 10
4.581277332903109
 20
6.914447271371385
 30
0.0
 10
4.754907327445048
 20
6.536917807307218
 30
0.0
 10
4.887714486253778
 20
6.141324758324297
 30
0.0
 10
4.986160534600177
 20
5.728601931395056
 30
0.0
 10
5.039930444674851
 20
5.297407063038383
 30
0.0
 10
5.048801659991386
 20
5.003924468610403
 30
0.0
 10
5.053308583976226
 20
4.854823844088823
 30
0.0
  0
SPLINE
  5
9D
330
1F
100
AcDbEntity
  8
0
  6
Continuous
 62
     7
370
    25
100
AcDbSpline
210
0.0
220
0.0
230
1.0
 70
     8
 71
     3
 72
    23
 73
    19
 74
     0
 42
0.000000001
 43
0.00000001
 40
0.0
 40
0.0
 40
0.0
 40
0.0
 40
0.0438111242737741
 40
0.0891694763065889
 40
0.1359494827740778
 40
0.1846384388060686
 40
0.2360027009076585
 40
0.289505361898342
 40
0.3460610844446482
 40
0.4055372339274266
 40
0.4677054301551736
 40
0.5334370099888001
 40
0.6023855460996558
 40
0.6748342237244874
 40
0.750656312718601
 40
0.8301668356937705
 40
0.9131669549651811
 40
1.0
 40
1.0
 40
1.0
 40
1.0
 10
5.053308583976226
 20
4.854823844088823
 30
0.0
 10
5.050498134352411
 20
4.721664905535418
 30
0.0
 10
5.044777981644716
 20
4.450644405304701
 30
0.0
 10
4.980751316356199
 20
4.041940277015702
 30
0.0
 10
4.890839620460154
 20
3.623414400871228
 30
0.0
 10
4.751014530533456
 20
3.199477826191509
 30
0.0
 10
4.586870796716258
 20
2.762609678326907
 30
0.0
 10
4.370670306595854
 20
2.322158267696196
 30
0.0
 10
4.129913307491645
 20
1.866863392732224
 30
0.0
 10
3.841469491803663
 20
1.408558409579477
 30
0.0
 10
3.52166270309139
 20
0.9377178173985186
 30
0.0
 10
3.158465331823852
 20
0.4626830670123634
 30
0.0
 10
2.764769076366202
 20
-0.0280835220788889
 30
0.0
 10
2.325185173512842
 20
-0.5201470820007096
 30
0.0
 10
1.855847961761951
 20
-1.028436161833221
 30
0.0
 10
1.340989747737081
 20
-1.537306918944951
 30
0.0
 10
0.7960688933448448
 20
-2.063209832642999
 30
0.0
 10
0.4103465528149738
 20
-2.405666195569756
 30
0.0
 10
0.2131327429976326
 20
-2.580758786619058
 30
0.0
  0
SPLINE
  5
9E
330
1F
100
AcDbEntity
  8
0
  6
Continuous
 62
     7
370
    25
100
AcDbSpline
210
0.0
220
0.0
230
1.0
 70
     8
 71
     3
 72
     9
 73
     5
 74
     0
 42
0.000000001
 43
0.00000001
 40
0.0
 40
0.0
 40
0.0
 40
0.0
 40
0.5148843543213422
 40
1.0
 40
1.0
 40
1.0
 40
1.0
 10
0.2131327429976326
 20
-2.580758786619058
 30
0.0
 10
-0.0105401284293285
 20
-2.775298043013197
 30
0.0
 10
-0.4449539332958201
 20
-3.153129015660554
 30
0.0
 10
-0.8767960816704993
 20
-3.533896405877166
 30
0.0
 10
-1.086289464310541
 20
-3.718612624235475
 30
0.0
  0
SPLINE
  5
9F
330
1F
100
AcDbEntity
  8
0
  6
Continuous
 62
     7
370
    25
100
AcDbSpline
210
0.0
220
0.0
230
1.0
 70
     8
 71
     3
 72
    15
 73
    11
 74
     0
 42
0.000000001
 43
0.00000001
 40
0.0
 40
0.0
 40
0.0
 40
0.0
 40
0.1218251374672074
 40
0.2419708266152358
 40
0.3624495276171884
 40
0.4844859023564514
 40
0.6072797225008463
 40
0.7341677124769824
 40
0.8647240620397053
 40
1.0
 40
1.0
 40
1.0
 40
1.0
 10
-3.592318006976303
 20
7.965874366876911
 30
0.0
 10
-3.499817916654923
 20
8.05796710177502
 30
0.0
 10
-3.316092917181204
 20
8.24088300609363
 30
0.0
 10
-3.014978014497919
 20
8.487065561318117
 30
0.0
 10
-2.690139207706091
 20
8.701222455846128
 30
0.0
 10
-2.342715081569187
 20
8.882447502477747
 30
0.0
 10
-1.974450655622733
 20
9.034912142004144
 30
0.0
 10
-1.58595563874339
 20
9.158555831434604
 30
0.0
 10
-1.175156581961704
 20
9.251670714487892
 30
0.0
 10
-0.8929902055505703
 20
9.290318651388064
 30
0.0
 10
-0.7494022253787918
 20
9.309985697716845
 30
0.0
  0
LINE
  5
A0
330
1F
100
AcDbEntity
  8
0
  6
Continuous
 62
     7
370
    25
100
AcDbLine
 10
-0.7494022254
 20
9.3099856977
 30
0.0
 11
-0.7494022254
 21
8.4299537266
 31
0.0
  0
SPLINE
  5
A1
330
1F
100
AcDbEntity
  8
0
  6
Continuous
 62
     7
370
    25
100
AcDbSpline
210
0.0
220
0.0
230
1.0
 70
     8
 71
     3
 72
    11
 73
     7
 74
     0
 42
0.000000001
 43
0.00000001
 40
0.0
 40
0.0
 40
0.0
 40
0.0
 40
0.2664957967513711
 40
0.5181495832131561
 40
0.7599966250416031
 40
1.0
 40
1.0
 40
1.0
 40
1.0
 10
-0.7494022253787918
 20
8.42995372662983
 30
0.0
 10
-0.9166758134854304
 20
8.41287333399718
 30
0.0
 10
-1.241906984170219
 20
8.379663810876707
 30
0.0
 10
-1.700281134063647
 20
8.2338568846126
 30
0.0
 10
-2.116546695984009
 20
8.026160509980281
 30
0.0
 10
-2.34899672985278
 20
7.829880415932253
 30
0.0
 10
-2.464777044021063
 20
7.732115874556921
 30
0.0
  0
SPLINE
  5
A2
330
1F
100
AcDbEntity
  8
0
  6
Continuous
 62
     7
370
    25
100
AcDbSpline
210
0.0
220
0.0
230
1.0
 70
     8
 71
     3
 72
    11
 73
     7
 74
     0
 42
0.000000001
 43
0.00000001
 40
0.0
 40
0.0
 40
0.0
 40
0.0
 40
0.2720463308248054
 40
0.5222705699868933
 40
0.7605363726240105
 40
1.0
 40
1.0
 40
1.0
 40
1.0
 10
-2.464777044021063
 20
7.732115874556921
 30
0.0
 10
-2.565076634634269
 20
7.630070766153501
 30
0.0
 10
-2.757630322824779
 20
7.434166058419919
 30
0.0
 10
-2.972883317926049
 20
7.094540484842218
 30
0.0
 10
-3.104882478876442
 20
6.730870586754252
 30
0.0
 10
-3.120440254954609
 20
6.479585743387172
 30
0.0
 10
-3.128238647223384
 20
6.353628294846399
 30
0.0
  0
SPLINE
  5
A3
330
1F
100
AcDbEntity
  8
0
  6
Continuous
 62
     7
370
    25
100
AcDbSpline
210
0.0
220
0.0
230
1.0
 70
     8
 71
     3
 72
    11
 73
     7
 74
     0
 42
0.000000001
 43
0.00000001
 40
0.0
 40
0.0
 40
0.0
 40
0.0
 40
0.2377854798575885
 40
0.4898322425827244
 40
0.7478652106026992
 40
1.0
 40
1.0
 40
1.0
 40
1.0
 10
-3.128238647223384
 20
6.353628294846399
 30
0.0
 10
-3.057079427314118
 20
6.29605493636087
 30
0.0
 10
-2.910493183740839
 20
6.177455233313922
 30
0.0
 10
-2.666651206678769
 20
6.0240864387244
 30
0.0
 10
-2.411973267620541
 20
5.878422985417052
 30
0.0
 10
-2.254060234023455
 20
5.761635720219036
 30
0.0
 10
-2.176016553508136
 20
5.703917191192311
 30
0.0
  0
SPLINE
  5
A4
330
1F
100
AcDbEntity
  8
0
  6
Continuous
 62
     7
370
    25
100
AcDbSpline
210
0.0
220
0.0
230
1.0
 70
     8
 71
     3
 72
    11
 73
     7
 74
     0
 42
0.000000001
 43
0.00000001
 40
0.0
 40
0.0
 40
0.0
 40
0.0
 40
0.2752392424951006
 40
0.5272517355272399
 40
0.7627828193896397
 40
1.0
 40
1.0
 40
1.0
 40
1.0
 10
-2.176016553508136
 20
5.703917191192311
 30
0.0
 10
-2.08991579303464
 20
5.632940386558117
 30
0.0
 10
-1.924980099351083
 20
5.496976331845884
 30
0.0
 10
-1.743664871506323
 20
5.244451788318129
 30
0.0
 10
-1.627046111568646
 20
4.970949324595536
 30
0.0
 10
-1.614902106159994
 20
4.779172837054032
 30
0.0
 10
-1.608808447143456
 20
4.68294259973589
 30
0.0
  0
SPLINE
  5
A5
330
1F
100
AcDbEntity
  8
0
  6
Continuous
 62
     7
370
    25
100
AcDbSpline
210
0.0
220
0.0
230
1.0
 70
     8
 71
     3
 72
    15
 73
    11
 74
     0
 42
0.000000001
 43
0.00000001
 40
0.0
 40
0.0
 40
0.0
 40
0.0
 40
0.1435323914852622
 40
0.2739788696349675
 40
0.3984148575872413
 40
0.5143268628254147
 40
0.6298832483241055
 40
0.746796968747767
 40
0.8685581993064354
 40
1.0
 40
1.0
 40
1.0
 40
1.0
 10
-1.608808447143456
 20
4.68294259973589
 30
0.0
 10
-1.611417127317461
 20
4.605979793340948
 30
0.0
 10
-1.616396653108936
 20
4.459070914572727
 30
0.0
 10
-1.655028517489049
 20
4.248445990856216
 30
0.0
 10
-1.71742774430401
 20
4.058508550199505
 30
0.0
 10
-1.815027633474331
 20
3.893615031793404
 30
0.0
 10
-1.930841655830745
 20
3.745868412491026
 30
0.0
 10
-2.079387614894106
 20
3.625872537641175
 30
0.0
 10
-2.250158784320854
 20
3.523210301457735
 30
0.0
 10
-2.377859685485764
 20
3.476513801009099
 30
0.0
 10
-2.444151294698711
 20
3.452272890168889
 30
0.0
  0
SPLINE
  5
A6
330
1F
100
AcDbEntity
  8
0
  6
Continuous
 62
     7
370
    25
100
AcDbSpline
210
0.0
220
0.0
230
1.0
 70
     8
 71
     3
 72
     9
 73
     5
 74
     0
 42
0.000000001
 43
0.00000001
 40
0.0
 40
0.0
 40
0.0
 40
0.0
 40
0.4912551313729613
 40
1.0
 40
1.0
 40
1.0
 40
1.0
 10
-2.444151294698711
 20
3.452272890168889
 30
0.0
 10
-2.526263836986658
 20
3.432221800766385
 30
0.0
 10
-2.693412304338966
 20
3.391405760134981
 30
0.0
 10
-2.865414528863897
 20
3.386179318029868
 30
0.0
 10
-2.952919777983392
 20
3.383520392427716
 30
0.0
  0
SPLINE
  5
A7
330
1F
100
AcDbEntity
  8
0
  6
Continuous
 62
     7
370
    25
100
AcDbSpline
210
0.0
220
0.0
230
1.0
 70
     8
 71
     3
 72
    23
 73
    19
 74
     0
 42
0.000000001
 43
0.00000001
 40
0.0
 40
0.0
 40
0.0
 40
0.0
 40
0.0655323074650697
 40
0.1250313216229731
 40
0.1819171615565378
 40
0.2393939751098258
 40
0.2984684679906185
 40
0.3593968195640846
 40
0.4243301531109982
 40
0.494500456894762
 40
0.5657584285025868
 40
0.633314098482068
 40
0.6972173944122292
 40
0.7580069304989342
 40
0.8180096458844236
 40
0.8778419904608523
 40
0.9386054633386428
 40
1.0
 40
1.0
 40
1.0
 40
1.0
 10
-2.952919777983392
 20
3.383520392427716
 30
0.0
 10
-3.079759256179628
 20
3.389538572280042
 30
0.0
 10
-3.321760617131197
 20
3.401020862616026
 30
0.0
 10
-3.661262144106822
 20
3.504173741349066
 30
0.0
 10
-3.956759635841408
 20
3.670961940715289
 30
0.0
 10
-4.194153144515163
 20
3.912113895444862
 30
0.0
 10
-4.384628174489584
 20
4.199334979301624
 30
0.0
 10
-4.519641092456605
 20
4.532584055335525
 30
0.0
 10
-4.596350929614694
 20
4.904983959010847
 30
0.0
 10
-4.620830929061554
 20
5.303883857618274
 30
0.0
 10
-4.601146605890931
 20
5.70745478846272
 30
0.0
 10
-4.556042372095286
 20
6.096849270452738
 30
0.0
 10
-4.473107945818592
 20
6.45958208855742
 30
0.0
 10
-4.357958650937951
 20
6.79777277055407
 30
0.0
 10
-4.213258304243656
 20
7.115923997607692
 30
0.0
 10
-4.035704214163621
 20
7.416713089648748
 30
0.0
 10
-3.83050780019743
 20
7.702988351843528
 30
0.0
 10
-3.671987574601376
 20
7.877944422989915
 30
0.0
 10
-3.592318006976303
 20
7.965874366876911
 30
0.0
  0
LINE
  5
A8
330
1F
100
AcDbEntity
  8
0
  6
Continuous
 62
     7
370
    25
100
AcDbLine
 10
-20.2544858345
 20
8.9868489583
 30
0.0
 11
-15.7443219827
 21
8.9868489583
 31
0.0
  0
LINE
  5
A9
330
1F
100
AcDbEntity
  8
0
  6
Continuous
 62
     7
370
    25
100
AcDbLine
 10
-15.7443219827
 20
8.9868489583
 30
0.0
 11
-15.7443219827
 21
-7.5
 31
0.0
  0
LINE
  5
AA
330
1F
100
AcDbEntity
  8
0
  6
Continuous
 62
     7
370
    25
100
AcDbLine
 10
-15.7443219827
 20
-7.5
 30
0.0
 11
-20.2544858345
 21
-7.5
 31
0.0
  0
LINE
  5
AB
330
1F
100
AcDbEntity
  8
0
  6
Continuous
 62
     7
370
    25
100
AcDbLine
 10
-20.2544858345
 20
-7.5
 30
0.0
 11
-20.2544858345
 21
-6.8159126475
 31
0.0
  0
SPLINE
  5
AC
330
1F
100
AcDbEntity
  8
0
  6
Continuous
 62
     7
370
    25
100
AcDbSpline
210
0.0
220
0.0
230
1.0
 70
     8
 71
     3
 72
    11
 73
     7
 74
     0
 42
0.000000001
 43
0.00000001
 40
0.0
 40
0.0
 40
0.0
 40
0.0
 40
0.2753442285522912
 40
0.533101327250183
 40
0.7746961835278825
 40
0.9999999999999999
 40
0.9999999999999999
 40
0.9999999999999999
 40
0.9999999999999999
 10
-20.25448583454962
 20
-6.815912647475327
 30
0.0
 10
-20.15224445414103
 20
-6.771004118081795
 30
0.0
 10
-19.95429218224382
 20
-6.684055512874337
 30
0.0
 10
-19.65212890109768
 20
-6.598740693035803
 30
0.0
 10
-19.37057962619636
 20
-6.513184389646936
 30
0.0
 10
-19.20160769908697
 20
-6.427538366573361
 30
0.0
 10
-19.12006962182026
 20
-6.386209536592994
 30
0.0
  0
SPLINE
  5
AD
330
1F
100
AcDbEntity
  8
0
  6
Continuous
 62
     7
370
    25
100
AcDbSpline
210
0.0
220
0.0
230
1.0
 70
     8
 71
     3
 72
    11
 73
     7
 74
     0
 42
0.000000001
 43
0.00000001
 40
0.0
 40
0.0
 40
0.0
 40
0.0
 40
0.2288373950996483
 40
0.4601531142471236
 40
0.7092547813095552
 40
1.0
 40
1.0
 40
1.0
 40
1.0
 10
-19.12006962182026
 20
-6.386209536592994
 30
0.0
 10
-19.04500825767462
 20
-6.334301407959442
 30
0.0
 10
-18.89407260987014
 20
-6.229922982243365
 30
0.0
 10
-18.73653670000083
 20
-5.98976930114309
 30
0.0
 10
-18.64665192402509
 20
-5.694664277515118
 30
0.0
 10
-18.63708132387742
 20
-5.480550275938616
 30
0.0
 10
-18.63192688785793
 20
-5.365234945136573
 30
0.0
  0
LINE
  5
AE
330
1F
100
AcDbEntity
  8
0
  6
Continuous
 62
     7
370
    25
100
AcDbLine
 10
-18.6319268879
 20
-5.3652349451
 30
0.0
 11
-18.6319268879
 21
6.8520839035
 31
0.0
  0
SPLINE
  5
AF
330
1F
100
AcDbEntity
  8
0
  6
Continuous
 62
     7
370
    25
100
AcDbSpline
210
0.0
220
0.0
230
1.0
 70
     8
 71
     3
 72
    11
 73
     7
 74
     0
 42
0.000000001
 43
0.00000001
 40
0.0
 40
0.0
 40
0.0
 40
0.0
 40
0.2907452186904441
 40
0.5398468857528758
 40
0.7711626049003525
 40
1.0
 40
1.0
 40
1.0
 40
1.0
 10
-18.63192688785793
 20
6.852083903469905
 30
0.0
 10
-18.63708132387742
 20
6.967399234271946
 30
0.0
 10
-18.64665192402508
 20
7.181513235848445
 30
0.0
 10
-18.73653670000084
 20
7.476618259476426
 30
0.0
 10
-18.89407260987015
 20
7.716771940576701
 30
0.0
 10
-19.04500825767462
 20
7.821150366292778
 30
0.0
 10
-19.12006962182026
 20
7.873058494926328
 30
0.0
  0
SPLINE
  5
B0
330
1F
100
AcDbEntity
  8
0
  6
Continuous
 62
     7
370
    25
100
AcDbSpline
210
0.0
220
0.0
230
1.0
 70
     8
 71
     3
 72
    11
 73
     7
 74
     0
 42
0.000000001
 43
0.00000001
 40
0.0
 40
0.0
 40
0.0
 40
0.0
 40
0.2253099038952565
 40
0.4660314364604587
 40
0.7246483319961531
 40
1.0
 40
1.0
 40
1.0
 40
1.0
 10
-19.12006962182026
 20
7.873058494926326
 30
0.0
 10
-19.20147927478157
 20
7.914781523991095
 30
0.0
 10
-19.36986715678496
 20
8.0010815171666
 30
0.0
 10
-19.65351954609685
 20
8.080124554527787
 30
0.0
 10
-19.95349927048619
 20
8.172259102325684
 30
0.0
 10
-20.1520824233516
 20
8.258361279939889
 30
0.0
 10
-20.25448583454962
 20
8.302761605808659
 30
0.0
  0
LINE
  5
B1
330
1F
100
AcDbEntity
  8
0
  6
Continuous
 62
     7
370
    25
100
AcDbLine
 10
-20.2544858345
 20
8.3027616058
 30
0.0
 11
-20.2544858345
 21
8.9868489583
 31
0.0
  0
SPLINE
  5
B2
330
1F
100
AcDbEntity
  8
0
  6
Continuous
 62
     7
370
    25
100
AcDbSpline
210
0.0
220
0.0
230
1.0
 70
     8
 71
     3
 72
    11
 73
     7
 74
     0
 42
0.000000001
 43
0.00000001
 40
0.0
 40
0.0
 40
0.0
 40
0.0
 40
0.2475788507837666
 40
0.4906208066778042
 40
0.7372861088213876
 40
1.0
 40
1.0
 40
1.0
 40
1.0
 10
8.635313716291357
 20
-7.290304881889422
 30
0.0
 10
8.566301351584519
 20
-7.216256918637526
 30
0.0
 10
8.429541277224278
 20
-7.06951792478371
 30
0.0
 10
8.289484605513572
 20
-6.800748597203413
 30
0.0
 10
8.198037401895998
 20
-6.505596821464134
 30
0.0
 10
8.189426140652214
 20
-6.297560363394378
 30
0.0
 10
8.184984856086672
 20
-6.190264918030651
 30
0.0
  0
SPLINE
  5
B3
330
1F
100
AcDbEntity
  8
0
  6
Continuous
 62
     7
370
    25
100
AcDbSpline
210
0.0
220
0.0
230
1.0
 70
     8
 71
     3
 72
    15
 73
    11
 74
     0
 42
0.000000001
 43
0.00000001
 40
0.0
 40
0.0
 40
0.0
 40
0.0
 40
0.1351135537013664
 40
0.2616104470067137
 40
0.3825867964317268
 40
0.5008795235083443
 40
0.6166182919152776
 40
0.7383264733027426
 40
0.864444794466661
 40
1.0
 40
1.0
 40
1.0
 40
1.0
 10
8.184984856086672
 20
-6.190264918030651
 30
0.0
 10
8.186605180518027
 20
-6.106269050412346
 30
0.0
 10
8.189742495666433
 20
-5.943634023263924
 30
0.0
 10
8.243068388747814
 20
-5.711499105071746
 30
0.0
 10
8.311157360493898
 20
-5.494366789063257
 30
0.0
 10
8.420165589482423
 20
-5.301560903173084
 30
0.0
 10
8.557176164594187
 20
-5.127300353183297
 30
0.0
 10
8.728191687934675
 20
-4.97942856302044
 30
0.0
 10
8.92143616744386
 20
-4.839123685590933
 30
0.0
 10
9.070368263892748
 20
-4.77355426172973
 30
0.0
 10
9.147519824463096
 20
-4.739587215691897
 30
0.0
  0
SPLINE
  5
B4
330
1F
100
AcDbEntity
  8
0
  6
Continuous
 62
     7
370
    25
100
AcDbSpline
210
0.0
220
0.0
230
1.0
 70
     8
 71
     3
 72
    13
 73
     9
 74
     0
 42
0.000000001
 43
0.00000001
 40
0.0
 40
0.0
 40
0.0
 40
0.0
 40
0.1667709464225895
 40
0.3382096683572204
 40
0.5116437506773504
 40
0.6789498518166027
 40
0.840793549914096
 40
1.0
 40
1.0
 40
1.0
 40
1.0
 10
9.147519824463096
 20
-4.739587215691897
 30
0.0
 10
9.246212008675341
 20
-4.705269258048093
 30
0.0
 10
9.44635868654627
 20
-4.635672812609704
 30
0.0
 10
9.76778611150993
 20
-4.614851494294272
 30
0.0
 10
10.0881057382878
 20
-4.640736539085769
 30
0.0
 10
10.38813916277047
 20
-4.737874070191284
 30
0.0
 10
10.66303863316132
 20
-4.875518513150907
 30
0.0
 10
10.81272809442572
 20
-5.00985697933889
 30
0.0
 10
10.88695801731478
 20
-5.076474454623646
 30
0.0
  0
SPLINE
  5
B5
330
1F
100
AcDbEntity
  8
0
  6
Continuous
 62
     7
370
    25
100
AcDbSpline
210
0.0
220
0.0
230
1.0
 70
     8
 71
     3
 72
    11
 73
     7
 74
     0
 42
0.000000001
 43
0.00000001
 40
0.0
 40
0.0
 40
0.0
 40
0.0
 40
0.2508609051898617
 40
0.4936413085196385
 40
0.7402203321351962
 40
0.9999999999999999
 40
0.9999999999999999
 40
0.9999999999999999
 40
0.9999999999999999
 10
10.88695801731478
 20
-5.076474454623646
 30
0.0
 10
10.95724911414177
 20
-5.152752791934037
 30
0.0
 10
11.09556715532356
 20
-5.30285245857243
 30
0.0
 10
11.23625496074921
 20
-5.576476361968447
 30
0.0
 10
11.32732544163067
 20
-5.873893789209907
 30
0.0
 10
11.33618119307395
 20
-6.082990839185006
 30
0.0
 10
11.34072450240652
 20
-6.190264918030651
 30
0.0
  0
SPLINE
  5
B6
330
1F
100
AcDbEntity
  8
0
  6
Continuous
 62
     7
370
    25
100
AcDbSpline
210
0.0
220
0.0
230
1.0
 70
     8
 71
     3
 72
    15
 73
    11
 74
     0
 42
0.000000001
 43
0.00000001
 40
0.0
 40
0.0
 40
0.0
 40
0.0
 40
0.1368789724900021
 40
0.2646588959786815
 40
0.3843069799746726
 40
0.5016028476419946
 40
0.6188538802942366
 40
0.7395084700188194
 40
0.8651722963266198
 40
1.0
 40
1.0
 40
1.0
 40
1.0
 10
11.34072450240653
 20
-6.190264918030651
 30
0.0
 10
11.3384854073391
 20
-6.274102179248792
 30
0.0
 10
11.33415606136465
 20
-6.436203607921412
 30
0.0
 10
11.28968867579769
 20
-6.668520428841992
 30
0.0
 10
11.21176702320526
 20
-6.878476876862638
 30
0.0
 10
11.10908462124339
 20
-7.070406766747689
 30
0.0
 10
10.97254419744922
 20
-7.24125358385396
 30
0.0
 10
10.80515757418267
 20
-7.388985731687316
 30
0.0
 10
10.61027458883402
 20
-7.519162815890454
 30
0.0
 10
10.46414009904816
 20
-7.5835520493459
 30
0.0
 10
10.38850240869127
 20
-7.616879246159995
 30
0.0
  0
SPLINE
  5
B7
330
1F
100
AcDbEntity
  8
0
  6
Continuous
 62
     7
370
    25
100
AcDbSpline
210
0.0
220
0.0
230
1.0
 70
     8
 71
     3
 72
    13
 73
     9
 74
     0
 42
0.000000001
 43
0.00000001
 40
0.0
 40
0.0
 40
0.0
 40
0.0
 40
0.1656946820014089
 40
0.3383800710655637
 40
0.5092416624832976
 40
0.6766963750116958
 40
0.8396177283998272
 40
1.0
 40
1.0
 40
1.0
 40
1.0
 10
10.38850240869127
 20
-7.616879246159995
 30
0.0
 10
10.28973231877603
 20
-7.649785646254755
 30
0.0
 10
10.08802499998357
 20
-7.716986777082132
 30
0.0
 10
9.76712528235242
 20
-7.737916795360322
 30
0.0
 10
9.446978501216375
 20
-7.713760303505115
 30
0.0
 10
9.143109089739106
 20
-7.627451362896238
 30
0.0
 10
8.86710997741781
 20
-7.486331915144168
 30
0.0
 10
8.712173536207747
 20
-7.355304215362212
 30
0.0
 10
8.635313716291357
 20
-7.290304881889422
 30
0.0
  0
LINE
  5
B8
330
1F
100
AcDbEntity
  8
0
  6
Continuous
 62
     7
370
    25
100
AcDbLine
 10
13.9498817917
 20
8.3027616058
 30
0.0
 11
13.9498817917
 21
8.9868489583
 31
0.0
  0
LINE
  5
B9
330
1F
100
AcDbEntity
  8
0
  6
Continuous
 62
     7
370
    25
100
AcDbLine
 10
13.9498817917
 20
8.9868489583
 30
0.0
 11
20.178858087
 21
8.9868489583
 31
0.0
  0
LINE
  5
BA
330
1F
100
AcDbEntity
  8
0
  6
Continuous
 62
     7
370
    25
100
AcDbLine
 10
20.178858087
 20
8.9868489583
 30
0.0
 11
20.178858087
 21
8.3027616058
 31
0.0
  0
SPLINE
  5
BB
330
1F
100
AcDbEntity
  8
0
  6
Continuous
 62
     7
370
    25
100
AcDbSpline
210
0.0
220
0.0
230
1.0
 70
     8
 71
     3
 72
    11
 73
     7
 74
     0
 42
0.000000001
 43
0.00000001
 40
0.0
 40
0.0
 40
0.0
 40
0.0
 40
0.2831561348370186
 40
0.5475908831254145
 40
0.7838637796914464
 40
1.0
 40
1.0
 40
1.0
 40
1.0
 10
20.17885808703433
 20
8.302761605808659
 30
0.0
 10
20.0706840996812
 20
8.258340938536664
 30
0.0
 10
19.86148824630514
 20
8.172436557780468
 30
0.0
 10
19.55104147055849
 20
8.08196204387638
 30
0.0
 10
19.26493976719927
 20
8.00232553935128
 30
0.0
 10
19.09944351628187
 20
7.914849662762734
 30
0.0
 10
19.02037850009556
 20
7.873058494926326
 30
0.0
  0
SPLINE
  5
BC
330
1F
100
AcDbEntity
  8
0
  6
Continuous
 62
     7
370
    25
100
AcDbSpline
210
0.0
220
0.0
230
1.0
 70
     8
 71
     3
 72
    11
 73
     7
 74
     0
 42
0.000000001
 43
0.00000001
 40
0.0
 40
0.0
 40
0.0
 40
0.0
 40
0.2300092453871227
 40
0.4618526956474041
 40
0.7106474031662398
 40
1.0
 40
1.0
 40
1.0
 40
1.0
 10
19.02037850009556
 20
7.873058494926328
 30
0.0
 10
18.94418837659294
 20
7.821194214595054
 30
0.0
 10
18.79120055272453
 20
7.717052063098075
 30
0.0
 10
18.63024716416441
 20
7.477084375314304
 30
0.0
 10
18.53565882149899
 20
7.182123667387732
 30
0.0
 10
18.5267259458501
 20
6.967489189453761
 30
0.0
 10
18.52192289147206
 20
6.852083903469905
 30
0.0
  0
LINE
  5
BD
330
1F
100
AcDbEntity
  8
0
  6
Continuous
 62
     7
370
    25
100
AcDbLine
 10
18.5219228915
 20
6.8520839035
 30
0.0
 11
18.5219228915
 21
-5.3652349451
 31
0.0
  0
SPLINE
  5
BE
330
1F
100
AcDbEntity
  8
0
  6
Continuous
 62
     7
370
    25
100
AcDbSpline
210
0.0
220
0.0
230
1.0
 70
     8
 71
     3
 72
    11
 73
     7
 74
     0
 42
0.000000001
 43
0.00000001
 40
0.0
 40
0.0
 40
0.0
 40
0.0
 40
0.2893525968337608
 40
0.5381473043525965
 40
0.7699907546128765
 40
1.0
 40
1.0
 40
1.0
 40
1.0
 10
18.52192289147206
 20
-5.365234945136573
 30
0.0
 10
18.5267259458501
 20
-5.480640231120429
 30
0.0
 10
18.53565882149899
 20
-5.695274709054399
 30
0.0
 10
18.63024716416442
 20
-5.990235416980974
 30
0.0
 10
18.79120055272453
 20
-6.230203104764739
 30
0.0
 10
18.94418837659294
 20
-6.33434525626172
 30
0.0
 10
19.02037850009556
 20
-6.386209536592994
 30
0.0
  0
SPLINE
  5
BF
330
1F
100
AcDbEntity
  8
0
  6
Continuous
 62
     7
370
    25
100
AcDbSpline
210
0.0
220
0.0
230
1.0
 70
     8
 71
     3
 72
    11
 73
     7
 74
     0
 42
0.000000001
 43
0.00000001
 40
0.0
 40
0.0
 40
0.0
 40
0.0
 40
0.2172089826043631
 40
0.4553058253928993
 40
0.7142436815166819
 40
1.0
 40
1.0
 40
1.0
 40
1.0
 10
19.02037850009556
 20
-6.386209536592994
 30
0.0
 10
19.10187127485225
 20
-6.427667596916832
 30
0.0
 10
19.27269356143205
 20
-6.514570523990133
 30
0.0
 10
19.56155422824223
 20
-6.599235289466796
 30
0.0
 10
19.87871963775699
 20
-6.686121857144954
 30
0.0
 10
20.09136427596182
 20
-6.771251901619392
 30
0.0
 10
20.20292146124374
 20
-6.815912647475327
 30
0.0
  0
LINE
  5
C0
330
1F
100
AcDbEntity
  8
0
  6
Continuous
 62
     7
370
    25
100
AcDbLine
 10
20.2029214612
 20
-6.8159126475
 30
0.0
 11
20.2029214612
 21
-7.5
 31
0.0
  0
LINE
  5
C1
330
1F
100
AcDbEntity
  8
0
  6
Continuous
 62
     7
370
    25
100
AcDbLine
 10
20.2029214612
 20
-7.5
 30
0.0
 11
13.9498817917
 21
-7.5
 31
0.0
  0
LINE
  5
C2
330
1F
100
AcDbEntity
  8
0
  6
Continuous
 62
     7
370
    25
100
AcDbLine
 10
13.9498817917
 20
-7.5
 30
0.0
 11
13.9498817917
 21
-6.8159126475
 31
0.0
  0
SPLINE
  5
C3
330
1F
100
AcDbEntity
  8
0
  6
Continuous
 62
     7
370
    25
100
AcDbSpline
210
0.0
220
0.0
230
1.0
 70
     8
 71
     3
 72
    11
 73
     7
 74
     0
 42
0.000000001
 43
0.00000001
 40
0.0
 40
0.0
 40
0.0
 40
0.0
 40
0.2802973192716627
 40
0.5386323768109874
 40
0.7785974705661185
 40
1.0
 40
1.0
 40
1.0
 40
1.0
 10
13.94988179168404
 20
-6.815912647475327
 30
0.0
 10
14.05793544107345
 20
-6.771121197656258
 30
0.0
 10
14.26557636373711
 20
-6.685047862600663
 30
0.0
 10
14.57860549045151
 20
-6.598965922606424
 30
0.0
 10
14.8671578946791
 20
-6.513858939504878
 30
0.0
 10
15.03943770646404
 20
-6.427602530379916
 30
0.0
 10
15.12211187817104
 20
-6.386209536592994
 30
0.0
  0
SPLINE
  5
C4
330
1F
100
AcDbEntity
  8
0
  6
Continuous
 62
     7
370
    25
100
AcDbSpline
210
0.0
220
0.0
230
1.0
 70
     8
 71
     3
 72
    11
 73
     7
 74
     0
 42
0.000000001
 43
0.00000001
 40
0.0
 40
0.0
 40
0.0
 40
0.0
 40
0.2333041146224026
 40
0.4638810893454498
 40
0.7122280300293803
 40
1.0
 40
1.0
 40
1.0
 40
1.0
 10
15.12211187817104
 20
-6.386209536592994
 30
0.0
 10
15.20102516843786
 20
-6.334799179480187
 30
0.0
 10
15.35792931525094
 20
-6.232579411518849
 30
0.0
 10
15.5181401953372
 20
-5.989365857817345
 30
0.0
 10
15.61839775933833
 20
-5.696118803911925
 30
0.0
 10
15.62652038723322
 20
-5.480807410022954
 30
0.0
 10
15.63088036145572
 20
-5.365234945136573
 30
0.0
  0
LINE
  5
C5
330
1F
100
AcDbEntity
  8
0
  6
Continuous
 62
     7
370
    25
100
AcDbLine
 10
15.6308803615
 20
-5.3652349451
 30
0.0
 11
15.6308803615
 21
6.8520839035
 31
0.0
  0
SPLINE
  5
C6
330
1F
100
AcDbEntity
  8
0
  6
Continuous
 62
     7
370
    25
100
AcDbSpline
210
0.0
220
0.0
230
1.0
 70
     8
 71
     3
 72
    11
 73
     7
 74
     0
 42
0.000000001
 43
0.00000001
 40
0.0
 40
0.0
 40
0.0
 40
0.0
 40
0.2877719699706192
 40
0.5361189106545498
 40
0.7666958853775983
 40
1.0
 40
1.0
 40
1.0
 40
1.0
 10
15.63088036145572
 20
6.852083903469905
 30
0.0
 10
15.62652038723322
 20
6.967656368356286
 30
0.0
 10
15.61839775933833
 20
7.182967762245254
 30
0.0
 10
15.5181401953372
 20
7.476214816150678
 30
0.0
 10
15.35792931525094
 20
7.719428369852181
 30
0.0
 10
15.20102516843786
 20
7.821648137813519
 30
0.0
 10
15.12211187817104
 20
7.873058494926326
 30
0.0
  0
SPLINE
  5
C7
330
1F
100
AcDbEntity
  8
0
  6
Continuous
 62
     7
370
    25
100
AcDbSpline
210
0.0
220
0.0
230
1.0
 70
     8
 71
     3
 72
    11
 73
     7
 74
     0
 42
0.000000001
 43
0.00000001
 40
0.0
 40
0.0
 40
0.0
 40
0.0
 40
0.2214097925984074
 40
0.4605465307237993
 40
0.7196934855057212
 40
1.0
 40
1.0
 40
1.0
 40
1.0
 10
15.12211187817104
 20
7.873058494926326
 30
0.0
 10
15.03956095862996
 20
7.91483976887011
 30
0.0
 10
14.86784976574853
 20
8.00174749114476
 30
0.0
 10
14.57724702487833
 20
8.080326531741008
 30
0.0
 10
14.26635983666421
 20
8.173302415783441
 30
0.0
 10
14.05809743950614
 20
8.258494680069843
 30
0.0
 10
13.94988179168404
 20
8.302761605808659
 30
0.0
  0
ENDSEC
  0
SECTION
  2
OBJECTS
  0
DICTIONARY
  5
C
330
0
100
AcDbDictionary
281
     1
  3
ACAD_DETAILVIEWSTYLE
350
CF
  3
ACAD_GROUP
350
D
  3
ACAD_LAYOUT
350
1A
  3
ACAD_MATERIAL
350
43
  3
ACAD_MLEADERSTYLE
350
6B
  3
ACAD_MLINESTYLE
350
17
  3
ACAD_PLOTSETTINGS
350
19
  3
ACAD_PLOTSTYLENAME
350
E
  3
ACAD_SCALELIST
350
47
  3
ACAD_SECTIONVIEWSTYLE
350
D0
  3
ACAD_TABLESTYLE
350
69
  3
ACAD_VISUALSTYLE
350
2A
  3
ACDB_RECOMPOSE_DATA
350
CC
  3
AcDbVariableDictionary
350
C8
  0
SUN
  5
6D
330
29
100
AcDbSun
 90
        1
290
     0
 63
     7
421
 16777215
 40
1.0
291
     1
 91
  2455826
 92
 54000000
292
     0
 70
     2
 71
   256
280
     1
  0
DICTIONARY
  5
CF
102
{ACAD_REACTORS
330
C
102
}
330
C
100
AcDbDictionary
281
     1
  0
DICTIONARY
  5
D
102
{ACAD_REACTORS
330
C
102
}
330
C
100
AcDbDictionary
281
     1
  0
DICTIONARY
  5
1A
102
{ACAD_REACTORS
330
C
102
}
330
C
100
AcDbDictionary
281
     1
  3
Layout1
350
1E
  3
Layout2
350
26
  3
Model
350
22
  0
DICTIONARY
  5
43
102
{ACAD_REACTORS
330
C
102
}
330
C
100
AcDbDictionary
281
     1
  3
ByBlock
350
45
  3
ByLayer
350
44
  3
Global
350
46
  0
DICTIONARY
  5
6B
102
{ACAD_REACTORS
330
C
102
}
330
C
100
AcDbDictionary
281
     1
  3
Standard
350
6C
  0
DICTIONARY
  5
17
102
{ACAD_REACTORS
330
C
102
}
330
C
100
AcDbDictionary
281
     1
  3
Standard
350
18
  0
DICTIONARY
  5
19
102
{ACAD_REACTORS
330
C
102
}
330
C
100
AcDbDictionary
281
     1
  0
ACDBDICTIONARYWDFLT
  5
E
102
{ACAD_REACTORS
330
C
102
}
330
C
100
AcDbDictionary
281
     1
  3
Normal
350
F
100
AcDbDictionaryWithDefault
340
F
  0
DICTIONARY
  5
47
102
{ACAD_REACTORS
330
C
102
}
330
C
100
AcDbDictionary
281
     1
  3
A0
350
48
  3
A1
350
49
  3
A2
350
4A
  3
A3
350
4B
  3
A4
350
4C
  3
A5
350
4D
  3
A6
350
4E
  3
A7
350
4F
  3
A8
350
50
  3
A9
350
51
  3
B0
350
52
  3
B1
350
53
  3
B2
350
54
  3
B3
350
55
  3
B4
350
56
  3
B5
350
57
  3
B6
350
58
  3
B7
350
59
  3
B8
350
5A
  3
B9
350
5B
  3
C0
350
5C
  3
C1
350
5D
  3
C2
350
5E
  3
C3
350
5F
  3
C4
350
60
  3
C5
350
61
  3
C6
350
62
  3
C7
350
63
  3
C8
350
64
  3
C9
350
65
  3
D0
350
66
  3
D1
350
67
  3
D2
350
68
  0
DICTIONARY
  5
D0
102
{ACAD_REACTORS
330
C
102
}
330
C
100
AcDbDictionary
281
     1
  0
DICTIONARY
  5
69
102
{ACAD_REACTORS
330
C
102
}
330
C
100
AcDbDictionary
281
     1
  3
Standard
350
6A
  0
DICTIONARY
  5
2A
102
{ACAD_REACTORS
330
C
102
}
330
C
100
AcDbDictionary
281
     1
  3
2dWireframe
350
2F
  3
Basic
350
32
  3
Brighten
350
36
  3
ColorChange
350
3A
  3
Conceptual
350
34
  3
Dim
350
35
  3
EdgeColorOff
350
3D
  3
Facepattern
350
39
  3
Flat
350
2B
  3
FlatWithEdges
350
2C
  3
Gouraud
350
2D
  3
GouraudWithEdges
350
2E
  3
Hidden
350
31
  3
JitterOff
350
3B
  3
Linepattern
350
38
  3
OverhangOff
350
3C
  3
Realistic
350
33
  3
Shaded
350
42
  3
Shaded with edges
350
41
  3
Shades of Gray
350
3E
  3
Sketchy
350
3F
  3
Thicken
350
37
  3
Wireframe
350
30
  3
X-Ray
350
40
  0
XRECORD
  5
CC
102
{ACAD_REACTORS
330
C
102
}
330
C
100
AcDbXrecord
280
     1
 90
        1
330
6A
  0
DICTIONARY
  5
C8
102
{ACAD_REACTORS
330
C
102
}
330
C
100
AcDbDictionary
281
     1
  3
CANNOSCALE
350
C9
  3
CENTEREXE
350
D1
  3
CENTERLTYPEFILE
350
D2
  3
CMLEADERSTYLE
350
CE
  3
CTABLESTYLE
350
CD
  0
LAYOUT
  5
1E
102
{ACAD_REACTORS
330
1A
102
}
330
1A
100
AcDbPlotSettings
  1

  2
none_device
  4

  6

 40
0.0
 41
0.0
 42
0.0
 43
0.0
 44
0.0
 45
0.0
 46
0.0
 47
0.0
 48
0.0
 49
0.0
140
0.0
141
0.0
142
1.0
143
1.0
 70
   688
 72
     1
 73
     0
 74
     5
  7

 75
    16
 76
     0
 77
     2
 78
   300
147
1.0
148
0.0
149
0.0
100
AcDbLayout
  1
Layout1
 70
     1
 71
     1
 10
0.0
 20
0.0
 11
420.0
 21
297.0
 12
0.0
 22
0.0
 32
0.0
 14
1.0000000000E+20
 24
1.0000000000E+20
 34
1.0000000000E+20
 15
-1.0000000000E+20
 25
-1.0000000000E+20
 35
-1.0000000000E+20
146
0.0
 13
0.0
 23
0.0
 33
0.0
 16
1.0
 26
0.0
 36
0.0
 17
0.0
 27
1.0
 37
0.0
 76
     0
330
1B
  0
LAYOUT
  5
26
102
{ACAD_REACTORS
330
1A
102
}
330
1A
100
AcDbPlotSettings
  1

  2
none_device
  4

  6

 40
0.0
 41
0.0
 42
0.0
 43
0.0
 44
0.0
 45
0.0
 46
0.0
 47
0.0
 48
0.0
 49
0.0
140
0.0
141
0.0
142
1.0
143
1.0
 70
   688
 72
     1
 73
     0
 74
     5
  7

 75
    16
 76
     0
 77
     2
 78
   300
147
1.0
148
0.0
149
0.0
100
AcDbLayout
  1
Layout2
 70
     1
 71
     2
 10
0.0
 20
0.0
 11
0.0
 21
0.0
 12
0.0
 22
0.0
 32
0.0
 14
0.0
 24
0.0
 34
0.0
 15
0.0
 25
0.0
 35
0.0
146
0.0
 13
0.0
 23
0.0
 33
0.0
 16
1.0
 26
0.0
 36
0.0
 17
0.0
 27
1.0
 37
0.0
 76
     0
330
23
  0
LAYOUT
  5
22
102
{ACAD_REACTORS
330
1A
102
}
330
1A
100
AcDbPlotSettings
  1

  2
none_device
  4
ANSI_A_(11.00_x_8.50_Inches)
  6

 40
6.35
 41
19.05
 42
6.35000508
 43
19.05000254
 44
279.4
 45
215.9
 46
133.34999746
 47
88.89999873
 48
0.0
 49
0.0
140
0.0
141
0.0
142
0.0726
143
1.0
 70
  1696
 72
     0
 73
     0
 74
     0
  7

 75
     0
 76
     0
 77
     2
 78
   300
147
0.0179189148
148
-1300.4909072572
149
0.0
100
AcDbLayout
  1
Model
 70
     1
 71
     0
 10
0.0
 20
0.0
 11
420.0
 21
297.0
 12
0.0
 22
0.0
 32
0.0
 14
-75.0
 24
-15.0
 34
0.0
 15
75.0
 25
15.0
 35
0.0
146
0.0
 13
0.0
 23
0.0
 33
0.0
 16
1.0
 26
0.0
 36
0.0
 17
0.0
 27
1.0
 37
0.0
 76
     0
330
1F
331
29
  0
MATERIAL
  5
45
102
{ACAD_REACTORS
330
43
102
}
330
43
100
AcDbMaterial
  1
ByBlock
 72
     1
 94
      127
  0
MATERIAL
  5
44
102
{ACAD_REACTORS
330
43
102
}
330
43
100
AcDbMaterial
  1
ByLayer
 72
     1
 94
      127
  0
MATERIAL
  5
46
102
{ACAD_REACTORS
330
43
102
}
330
43
100
AcDbMaterial
  1
Global
 72
     1
 94
      127
  0
MLEADERSTYLE
  5
6C
102
{ACAD_REACTORS
330
6B
102
}
330
6B
100
AcDbMLeaderStyle
179
     2
170
     2
171
     1
172
     0
 90
        2
 40
0.0
 41
0.0
173
     1
 91
-1056964608
340
14
 92
       -2
290
     1
 42
2.0
291
     1
 43
8.0
  3
Standard
341
0
 44
4.0
300

342
11
174
     1
178
     6
175
     1
176
     0
 93
-1056964608
 45
4.0
292
     0
297
     0
 46
4.0
343
0
 94
-1056964608
 47
1.0
 49
1.0
140
1.0
293
     1
141
0.0
294
     1
177
     0
142
1.0
295
     0
296
     0
143
3.75
271
     0
272
     9
273
     9
298
     0
  0
MLINESTYLE
  5
18
102
{ACAD_REACTORS
330
17
102
}
330
17
100
AcDbMlineStyle
  2
Standard
 70
     0
  3

 62
   256
 51
90.0
 52
90.0
 71
     2
 49
0.5
 62
   256
  6
BYLAYER
 49
-0.5
 62
   256
  6
BYLAYER
  0
ACDBPLACEHOLDER
  5
F
102
{ACAD_REACTORS
330
E
102
}
330
E
  0
SCALE
  5
48
102
{ACAD_REACTORS
330
47
102
}
330
47
100
AcDbScale
 70
     0
300
1:1
140
1.0
141
1.0
290
     1
  0
SCALE
  5
49
102
{ACAD_REACTORS
330
47
102
}
330
47
100
AcDbScale
 70
     0
300
1:2
140
1.0
141
2.0
290
     0
  0
SCALE
  5
4A
102
{ACAD_REACTORS
330
47
102
}
330
47
100
AcDbScale
 70
     0
300
1:4
140
1.0
141
4.0
290
     0
  0
SCALE
  5
4B
102
{ACAD_REACTORS
330
47
102
}
330
47
100
AcDbScale
 70
     0
300
1:5
140
1.0
141
5.0
290
     0
  0
SCALE
  5
4C
102
{ACAD_REACTORS
330
47
102
}
330
47
100
AcDbScale
 70
     0
300
1:8
140
1.0
141
8.0
290
     0
  0
SCALE
  5
4D
102
{ACAD_REACTORS
330
47
102
}
330
47
100
AcDbScale
 70
     0
300
1:10
140
1.0
141
10.0
290
     0
  0
SCALE
  5
4E
102
{ACAD_REACTORS
330
47
102
}
330
47
100
AcDbScale
 70
     0
300
1:16
140
1.0
141
16.0
290
     0
  0
SCALE
  5
4F
102
{ACAD_REACTORS
330
47
102
}
330
47
100
AcDbScale
 70
     0
300
1:20
140
1.0
141
20.0
290
     0
  0
SCALE
  5
50
102
{ACAD_REACTORS
330
47
102
}
330
47
100
AcDbScale
 70
     0
300
1:30
140
1.0
141
30.0
290
     0
  0
SCALE
  5
51
102
{ACAD_REACTORS
330
47
102
}
330
47
100
AcDbScale
 70
     0
300
1:40
140
1.0
141
40.0
290
     0
  0
SCALE
  5
52
102
{ACAD_REACTORS
330
47
102
}
330
47
100
AcDbScale
 70
     0
300
1:50
140
1.0
141
50.0
290
     0
  0
SCALE
  5
53
102
{ACAD_REACTORS
330
47
102
}
330
47
100
AcDbScale
 70
     0
300
1:100
140
1.0
141
100.0
290
     0
  0
SCALE
  5
54
102
{ACAD_REACTORS
330
47
102
}
330
47
100
AcDbScale
 70
     0
300
2:1
140
2.0
141
1.0
290
     0
  0
SCALE
  5
55
102
{ACAD_REACTORS
330
47
102
}
330
47
100
AcDbScale
 70
     0
300
4:1
140
4.0
141
1.0
290
     0
  0
SCALE
  5
56
102
{ACAD_REACTORS
330
47
102
}
330
47
100
AcDbScale
 70
     0
300
8:1
140
8.0
141
1.0
290
     0
  0
SCALE
  5
57
102
{ACAD_REACTORS
330
47
102
}
330
47
100
AcDbScale
 70
     0
300
10:1
140
10.0
141
1.0
290
     0
  0
SCALE
  5
58
102
{ACAD_REACTORS
330
47
102
}
330
47
100
AcDbScale
 70
     0
300
100:1
140
100.0
141
1.0
290
     0
  0
SCALE
  5
59
102
{ACAD_REACTORS
330
47
102
}
330
47
100
AcDbScale
 70
     0
300
1/128" = 1'-0"
140
0.0078125
141
12.0
290
     0
  0
SCALE
  5
5A
102
{ACAD_REACTORS
330
47
102
}
330
47
100
AcDbScale
 70
     0
300
1/64" = 1'-0"
140
0.015625
141
12.0
290
     0
  0
SCALE
  5
5B
102
{ACAD_REACTORS
330
47
102
}
330
47
100
AcDbScale
 70
     0
300
1/32" = 1'-0"
140
0.03125
141
12.0
290
     0
  0
SCALE
  5
5C
102
{ACAD_REACTORS
330
47
102
}
330
47
100
AcDbScale
 70
     0
300
1/16" = 1'-0"
140
0.0625
141
12.0
290
     0
  0
SCALE
  5
5D
102
{ACAD_REACTORS
330
47
102
}
330
47
100
AcDbScale
 70
     0
300
3/32" = 1'-0"
140
0.09375
141
12.0
290
     0
  0
SCALE
  5
5E
102
{ACAD_REACTORS
330
47
102
}
330
47
100
AcDbScale
 70
     0
300
1/8" = 1'-0"
140
0.125
141
12.0
290
     0
  0
SCALE
  5
5F
102
{ACAD_REACTORS
330
47
102
}
330
47
100
AcDbScale
 70
     0
300
3/16" = 1'-0"
140
0.1875
141
12.0
290
     0
  0
SCALE
  5
60
102
{ACAD_REACTORS
330
47
102
}
330
47
100
AcDbScale
 70
     0
300
1/4" = 1'-0"
140
0.25
141
12.0
290
     0
  0
SCALE
  5
61
102
{ACAD_REACTORS
330
47
102
}
330
47
100
AcDbScale
 70
     0
300
3/8" = 1'-0"
140
0.375
141
12.0
290
     0
  0
SCALE
  5
62
102
{ACAD_REACTORS
330
47
102
}
330
47
100
AcDbScale
 70
     0
300
1/2" = 1'-0"
140
0.5
141
12.0
290
     0
  0
SCALE
  5
63
102
{ACAD_REACTORS
330
47
102
}
330
47
100
AcDbScale
 70
     0
300
3/4" = 1'-0"
140
0.75
141
12.0
290
     0
  0
SCALE
  5
64
102
{ACAD_REACTORS
330
47
102
}
330
47
100
AcDbScale
 70
     0
300
1" = 1'-0"
140
1.0
141
12.0
290
     0
  0
SCALE
  5
65
102
{ACAD_REACTORS
330
47
102
}
330
47
100
AcDbScale
 70
     0
300
1-1/2" = 1'-0"
140
1.5
141
12.0
290
     0
  0
SCALE
  5
66
102
{ACAD_REACTORS
330
47
102
}
330
47
100
AcDbScale
 70
     0
300
3" = 1'-0"
140
3.0
141
12.0
290
     0
  0
SCALE
  5
67
102
{ACAD_REACTORS
330
47
102
}
330
47
100
AcDbScale
 70
     0
300
6" = 1'-0"
140
6.0
141
12.0
290
     0
  0
SCALE
  5
68
102
{ACAD_REACTORS
330
47
102
}
330
47
100
AcDbScale
 70
     0
300
1'-0" = 1'-0"
140
12.0
141
12.0
290
     0
  0
TABLESTYLE
  5
6A
102
{ACAD_REACTORS
330
69
102
}
102
{ACAD_XDICTIONARY
360
CA
102
}
330
69
100
AcDbTableStyle
  3
Standard
 70
     0
 71
     0
 40
0.06
 41
0.06
280
     0
281
     0
  7
Standard
140
4.5
170
     2
 62
     0
 63
   257
283
     0
 90
        4
 91
        0
  1

274
    -2
284
     1
 64
     0
275
    -2
285
     1
 65
     0
276
    -2
286
     1
 66
     0
277
    -2
287
     1
 67
     0
278
    -2
288
     1
 68
     0
279
    -2
289
     1
 69
     0
  7
Standard
140
6.0
170
     5
 62
     0
 63
   257
283
     0
 90
        4
 91
        0
  1

274
    -2
284
     1
 64
     0
275
    -2
285
     1
 65
     0
276
    -2
286
     1
 66
     0
277
    -2
287
     1
 67
     0
278
    -2
288
     1
 68
     0
279
    -2
289
     1
 69
     0
  7
Standard
140
4.5
170
     5
 62
     0
 63
   257
283
     0
 90
        4
 91
        0
  1

274
    -2
284
     1
 64
     0
275
    -2
285
     1
 65
     0
276
    -2
286
     1
 66
     0
277
    -2
287
     1
 67
     0
278
    -2
288
     1
 68
     0
279
    -2
289
     1
 69
     0
  0
VISUALSTYLE
  5
2F
102
{ACAD_REACTORS
330
2A
102
}
330
2A
100
AcDbVisualStyle
  2
2dWireframe
 70
     4
177
     3
291
     0
 70
    58
 90
        0
176
     1
 90
        2
176
     1
 90
        0
176
     1
 90
        0
176
     1
 40
0.6
176
     1
 40
30.0
176
     1
 62
     7
420
 16777215
176
     1
 90
        1
176
     1
 90
        4
176
     1
 62
     7
176
     1
 62
   257
176
     1
 90
        1
176
     1
 90
        1
176
     1
 40
1.0
176
     1
 90
        0
176
     1
 62
   257
176
     1
 40
1.0
176
     1
 90
        1
176
     1
 90
        6
176
     1
 90
        2
176
     1
 62
     7
176
     1
 90
        5
176
     1
 90
        0
176
     1
 90
        0
176
     1
290
     0
176
     1
 90
        1
176
     1
 40
0.0
176
     1
 90
        0
176
     1
290
     1
176
     1
290
     1
176
     1
290
     0
176
     1
290
     0
176
     1
290
     0
176
     1
290
     0
176
     1
290
     0
176
     1
290
     0
176
     1
290
     0
176
     1
 90
       50
176
     1
 40
0.0
176
     1
 40
1.0
176
     1
 90
        0
176
     1
 62
    18
420
        0
176
     1
 90
       50
176
     1
 90
        3
176
     1
 62
     5
420
      255
176
     1
290
     0
176
     1
 90
       50
176
     1
 90
       50
176
     1
 90
       50
176
     1
290
     0
176
     1
 90
       50
176
     1
 62
   256
176
     0
 40
1.0
176
     0
 90
        2
176
     1
  1
strokes_ogs.tif
176
     1
290
     0
176
     1
 40
1.0
176
     1
 40
1.0
176
     1
  0
VISUALSTYLE
  5
32
102
{ACAD_REACTORS
330
2A
102
}
330
2A
100
AcDbVisualStyle
  2
Basic
 70
     7
177
     3
291
     1
 70
    58
 90
        1
176
     1
 90
        0
176
     1
 90
        1
176
     1
 90
        0
176
     1
 40
0.6
176
     1
 40
30.0
176
     1
 62
     7
420
 16777215
176
     1
 90
        0
176
     1
 90
        4
176
     1
 62
     7
176
     1
 62
   257
176
     1
 90
        1
176
     1
 90
        1
176
     1
 40
1.0
176
     1
 90
        8
176
     1
 62
     7
176
     1
 40
1.0
176
     1
 90
        1
176
     1
 90
        6
176
     1
 90
        2
176
     1
 62
     7
176
     1
 90
        5
176
     1
 90
        0
176
     1
 90
        0
176
     1
290
     0
176
     1
 90
        1
176
     1
 40
0.0
176
     1
 90
        0
176
     1
290
     0
176
     1
290
     1
176
     1
290
     1
176
     1
290
     0
176
     1
290
     0
176
     1
290
     0
176
     1
290
     0
176
     1
290
     0
176
     1
290
     0
176
     1
 90
       50
176
     1
 40
0.0
176
     1
 40
1.0
176
     1
 90
        0
176
     1
 62
    18
420
        0
176
     1
 90
       50
176
     1
 90
        3
176
     1
 62
     5
420
      255
176
     1
290
     0
176
     1
 90
       50
176
     1
 90
       50
176
     1
 90
       50
176
     1
290
     0
176
     1
 90
       50
176
     1
 62
   256
176
     0
 40
1.0
176
     0
 90
        2
176
     1
  1
strokes_ogs.tif
176
     1
290
     0
176
     1
 40
1.0
176
     1
 40
1.0
176
     1
  0
VISUALSTYLE
  5
36
102
{ACAD_REACTORS
330
2A
102
}
330
2A
100
AcDbVisualStyle
  2
Brighten
 70
    12
177
     3
291
     1
 70
    58
 90
        2
176
     1
 90
        2
176
     1
 90
        0
176
     1
 90
        0
176
     1
 40
0.6
176
     1
 40
30.0
176
     1
 62
     7
420
 16777215
176
     1
 90
        1
176
     1
 90
        4
176
     1
 62
     7
176
     1
 62
   257
176
     1
 90
        1
176
     1
 90
        1
176
     1
 40
1.0
176
     1
 90
        8
176
     1
 62
     7
176
     1
 40
1.0
176
     1
 90
        1
176
     1
 90
        6
176
     1
 90
        2
176
     1
 62
     7
176
     1
 90
        5
176
     1
 90
        0
176
     1
 90
        0
176
     1
290
     0
176
     1
 90
        1
176
     1
 40
50.0
176
     1
 90
        0
176
     1
290
     0
176
     1
290
     1
176
     1
290
     1
176
     1
290
     0
176
     1
290
     0
176
     1
290
     0
176
     1
290
     0
176
     1
290
     0
176
     1
290
     0
176
     1
 90
       50
176
     1
 40
0.0
176
     1
 40
1.0
176
     1
 90
        0
176
     1
 62
    18
420
        0
176
     1
 90
       50
176
     1
 90
        3
176
     1
 62
     5
420
      255
176
     1
290
     0
176
     1
 90
       50
176
     1
 90
       50
176
     1
 90
       50
176
     1
290
     0
176
     1
 90
       50
176
     1
 62
   256
176
     0
 40
1.0
176
     0
 90
        2
176
     1
  1
strokes_ogs.tif
176
     1
290
     0
176
     1
 40
1.0
176
     1
 40
1.0
176
     1
  0
VISUALSTYLE
  5
3A
102
{ACAD_REACTORS
330
2A
102
}
330
2A
100
AcDbVisualStyle
  2
ColorChange
 70
    16
177
     3
291
     1
 70
    58
 90
        2
176
     1
 90
        2
176
     1
 90
        3
176
     1
 90
        0
176
     1
 40
0.6
176
     1
 40
30.0
176
     1
 62
     8
420
  8421504
176
     1
 90
        1
176
     1
 90
        4
176
     1
 62
     7
176
     1
 62
   257
176
     1
 90
        1
176
     1
 90
        1
176
     1
 40
1.0
176
     1
 90
        8
176
     1
 62
     8
420
  8421504
176
     1
 40
1.0
176
     1
 90
        1
176
     1
 90
        6
176
     1
 90
        2
176
     1
 62
     7
176
     1
 90
        5
176
     1
 90
        0
176
     1
 90
        0
176
     1
290
     0
176
     1
 90
        1
176
     1
 40
0.0
176
     1
 90
        0
176
     1
290
     0
176
     1
290
     1
176
     1
290
     1
176
     1
290
     0
176
     1
290
     0
176
     1
290
     0
176
     1
290
     0
176
     1
290
     0
176
     1
290
     0
176
     1
 90
       50
176
     1
 40
0.0
176
     1
 40
1.0
176
     1
 90
        0
176
     1
 62
    18
420
        0
176
     1
 90
       50
176
     1
 90
        3
176
     1
 62
     5
420
      255
176
     1
290
     0
176
     1
 90
       50
176
     1
 90
       50
176
     1
 90
       50
176
     1
290
     0
176
     1
 90
       50
176
     1
 62
   256
176
     0
 40
1.0
176
     0
 90
        2
176
     1
  1
strokes_ogs.tif
176
     1
290
     0
176
     1
 40
1.0
176
     1
 40
1.0
176
     1
  0
VISUALSTYLE
  5
34
102
{ACAD_REACTORS
330
2A
102
}
330
2A
100
AcDbVisualStyle
  2
Conceptual
 70
     9
177
     3
291
     0
 70
    58
 90
        3
176
     1
 90
        2
176
     1
 90
        0
176
     1
 90
        0
176
     1
 40
0.6
176
     1
 40
30.0
176
     1
 62
     7
420
 16777215
176
     1
 90
        2
176
     1
 90
        2
176
     1
 62
     7
176
     1
 62
   257
176
     1
 90
        1
176
     1
 90
        1
176
     1
 40
179.0
176
     1
 90
        8
176
     1
 62
     7
176
     1
 40
1.0
176
     1
 90
        1
176
     1
 90
        6
176
     1
 90
        2
176
     1
 62
     7
176
     1
 90
        3
176
     1
 90
        0
176
     1
 90
        0
176
     1
290
     0
176
     1
 90
        1
176
     1
 40
0.0
176
     1
 90
        0
176
     1
290
     0
176
     1
290
     1
176
     1
290
     1
176
     1
290
     0
176
     1
290
     0
176
     1
290
     0
176
     1
290
     0
176
     1
290
     0
176
     1
290
     0
176
     1
 90
       50
176
     1
 40
0.0
176
     1
 40
1.0
176
     1
 90
        0
176
     1
 62
    18
420
        0
176
     1
 90
       50
176
     1
 90
        3
176
     1
 62
     5
420
      255
176
     1
290
     0
176
     1
 90
       50
176
     1
 90
       50
176
     1
 90
       50
176
     1
290
     0
176
     1
 90
       50
176
     1
 62
   256
176
     0
 40
1.0
176
     0
 90
        2
176
     1
  1
strokes_ogs.tif
176
     1
290
     0
176
     1
 40
1.0
176
     1
 40
1.0
176
     1
  0
VISUALSTYLE
  5
35
102
{ACAD_REACTORS
330
2A
102
}
330
2A
100
AcDbVisualStyle
  2
Dim
 70
    11
177
     3
291
     1
 70
    58
 90
        2
176
     1
 90
        2
176
     1
 90
        0
176
     1
 90
        0
176
     1
 40
0.6
176
     1
 40
30.0
176
     1
 62
     7
420
 16777215
176
     1
 90
        1
176
     1
 90
        4
176
     1
 62
     7
176
     1
 62
   257
176
     1
 90
        1
176
     1
 90
        1
176
     1
 40
1.0
176
     1
 90
        8
176
     1
 62
     7
176
     1
 40
1.0
176
     1
 90
        1
176
     1
 90
        6
176
     1
 90
        2
176
     1
 62
     7
176
     1
 90
        5
176
     1
 90
        0
176
     1
 90
        0
176
     1
290
     0
176
     1
 90
        1
176
     1
 40
-50.0
176
     1
 90
        0
176
     1
290
     0
176
     1
290
     1
176
     1
290
     1
176
     1
290
     0
176
     1
290
     0
176
     1
290
     0
176
     1
290
     0
176
     1
290
     0
176
     1
290
     0
176
     1
 90
       50
176
     1
 40
0.0
176
     1
 40
1.0
176
     1
 90
        0
176
     1
 62
    18
420
        0
176
     1
 90
       50
176
     1
 90
        3
176
     1
 62
     5
420
      255
176
     1
290
     0
176
     1
 90
       50
176
     1
 90
       50
176
     1
 90
       50
176
     1
290
     0
176
     1
 90
       50
176
     1
 62
   256
176
     0
 40
1.0
176
     0
 90
        2
176
     1
  1
strokes_ogs.tif
176
     1
290
     0
176
     1
 40
1.0
176
     1
 40
1.0
176
     1
  0
VISUALSTYLE
  5
3D
102
{ACAD_REACTORS
330
2A
102
}
330
2A
100
AcDbVisualStyle
  2
EdgeColorOff
 70
    22
177
     3
291
     1
 70
    58
 90
        2
176
     0
 90
        2
176
     0
 90
        0
176
     0
 90
        0
176
     0
 40
0.6
176
     0
 40
30.0
176
     0
 62
     7
420
 16777215
176
     0
 90
        1
176
     0
 90
        4
176
     0
 62
     7
176
     0
 62
   257
176
     0
 90
        1
176
     0
 90
        1
176
     0
 40
1.0
176
     0
 90
        8
176
     2
 62
     7
176
     0
 40
1.0
176
     0
 90
        1
176
     0
 90
        6
176
     0
 90
        2
176
     0
 62
     7
176
     0
 90
        5
176
     0
 90
        0
176
     0
 90
        0
176
     0
290
     0
176
     0
 90
        1
176
     0
 40
0.0
176
     0
 90
        0
176
     0
290
     0
176
     0
290
     1
176
     0
290
     1
176
     0
290
     0
176
     0
290
     0
176
     0
290
     0
176
     0
290
     0
176
     0
290
     0
176
     0
290
     0
176
     0
 90
       50
176
     0
 40
0.0
176
     0
 40
1.0
176
     0
 90
        0
176
     0
 62
    18
420
        0
176
     0
 90
       50
176
     0
 90
        3
176
     0
 62
     5
420
      255
176
     0
290
     0
176
     0
 90
       50
176
     0
 90
       50
176
     0
 90
       50
176
     0
290
     0
176
     0
 90
       50
176
     0
 62
   256
176
     0
 40
1.0
176
     0
 90
        2
176
     0
  1
strokes_ogs.tif
176
     0
290
     0
176
     0
 40
1.0
176
     0
 40
1.0
176
     0
  0
VISUALSTYLE
  5
39
102
{ACAD_REACTORS
330
2A
102
}
330
2A
100
AcDbVisualStyle
  2
Facepattern
 70
    15
177
     3
291
     1
 70
    58
 90
        2
176
     1
 90
        2
176
     1
 90
        0
176
     1
 90
        0
176
     1
 40
0.6
176
     1
 40
30.0
176
     1
 62
     7
420
 16777215
176
     1
 90
        1
176
     1
 90
        4
176
     1
 62
     7
176
     1
 62
   257
176
     1
 90
        1
176
     1
 90
        1
176
     1
 40
1.0
176
     1
 90
        8
176
     1
 62
     7
176
     1
 40
1.0
176
     1
 90
        1
176
     1
 90
        6
176
     1
 90
        2
176
     1
 62
     7
176
     1
 90
        5
176
     1
 90
        0
176
     1
 90
        0
176
     1
290
     0
176
     1
 90
        1
176
     1
 40
0.0
176
     1
 90
        0
176
     1
290
     0
176
     1
290
     1
176
     1
290
     1
176
     1
290
     0
176
     1
290
     0
176
     1
290
     0
176
     1
290
     0
176
     1
290
     0
176
     1
290
     0
176
     1
 90
       50
176
     1
 40
0.0
176
     1
 40
1.0
176
     1
 90
        0
176
     1
 62
    18
420
        0
176
     1
 90
       50
176
     1
 90
        3
176
     1
 62
     5
420
      255
176
     1
290
     0
176
     1
 90
       50
176
     1
 90
       50
176
     1
 90
       50
176
     1
290
     0
176
     1
 90
       50
176
     1
 62
   256
176
     0
 40
1.0
176
     0
 90
        2
176
     1
  1
strokes_ogs.tif
176
     1
290
     0
176
     1
 40
1.0
176
     1
 40
1.0
176
     1
  0
VISUALSTYLE
  5
2B
102
{ACAD_REACTORS
330
2A
102
}
330
2A
100
AcDbVisualStyle
  2
Flat
 70
     0
177
     3
291
     1
 70
    58
 90
        2
176
     1
 90
        1
176
     1
 90
        1
176
     1
 90
        2
176
     1
 40
0.6
176
     1
 40
30.0
176
     1
 62
     7
420
 16777215
176
     1
 90
        0
176
     1
 90
        0
176
     1
 62
     7
176
     1
 62
   257
176
     1
 90
        1
176
     1
 90
        1
176
     1
 40
1.0
176
     1
 90
        8
176
     1
 62
     7
176
     1
 40
1.0
176
     1
 90
        1
176
     1
 90
        6
176
     1
 90
        2
176
     1
 62
     7
176
     1
 90
        5
176
     1
 90
        0
176
     1
 90
        0
176
     1
290
     0
176
     1
 90
       13
176
     1
 40
0.0
176
     1
 90
        0
176
     1
290
     0
176
     1
290
     1
176
     1
290
     1
176
     1
290
     0
176
     1
290
     0
176
     1
290
     0
176
     1
290
     0
176
     1
290
     0
176
     1
290
     0
176
     1
 90
       50
176
     1
 40
0.0
176
     1
 40
1.0
176
     1
 90
        0
176
     1
 62
    18
420
        0
176
     1
 90
       50
176
     1
 90
        3
176
     1
 62
     5
420
      255
176
     1
290
     0
176
     1
 90
       50
176
     1
 90
       50
176
     1
 90
       50
176
     1
290
     0
176
     1
 90
       50
176
     1
 62
   256
176
     0
 40
1.0
176
     0
 90
        2
176
     1
  1
strokes_ogs.tif
176
     1
290
     0
176
     1
 40
1.0
176
     1
 40
1.0
176
     1
  0
VISUALSTYLE
  5
2C
102
{ACAD_REACTORS
330
2A
102
}
330
2A
100
AcDbVisualStyle
  2
FlatWithEdges
 70
     1
177
     3
291
     1
 70
    58
 90
        2
176
     1
 90
        1
176
     1
 90
        1
176
     1
 90
        2
176
     1
 40
0.6
176
     1
 40
30.0
176
     1
 62
     7
420
 16777215
176
     1
 90
        1
176
     1
 90
        0
176
     1
 62
     7
176
     1
 62
   257
176
     1
 90
        1
176
     1
 90
        1
176
     1
 40
1.0
176
     1
 90
        0
176
     1
 62
   257
176
     1
 40
1.0
176
     1
 90
        1
176
     1
 90
        6
176
     1
 90
        2
176
     1
 62
     7
176
     1
 90
        5
176
     1
 90
        0
176
     1
 90
        0
176
     1
290
     0
176
     1
 90
       13
176
     1
 40
0.0
176
     1
 90
        0
176
     1
290
     0
176
     1
290
     1
176
     1
290
     1
176
     1
290
     0
176
     1
290
     0
176
     1
290
     0
176
     1
290
     0
176
     1
290
     0
176
     1
290
     0
176
     1
 90
       50
176
     1
 40
0.0
176
     1
 40
1.0
176
     1
 90
        0
176
     1
 62
    18
420
        0
176
     1
 90
       50
176
     1
 90
        3
176
     1
 62
     5
420
      255
176
     1
290
     0
176
     1
 90
       50
176
     1
 90
       50
176
     1
 90
       50
176
     1
290
     0
176
     1
 90
       50
176
     1
 62
   256
176
     0
 40
1.0
176
     0
 90
        2
176
     1
  1
strokes_ogs.tif
176
     1
290
     0
176
     1
 40
1.0
176
     1
 40
1.0
176
     1
  0
VISUALSTYLE
  5
2D
102
{ACAD_REACTORS
330
2A
102
}
330
2A
100
AcDbVisualStyle
  2
Gouraud
 70
     2
177
     3
291
     1
 70
    58
 90
        2
176
     1
 90
        2
176
     1
 90
        1
176
     1
 90
        2
176
     1
 40
0.6
176
     1
 40
30.0
176
     1
 62
     7
420
 16777215
176
     1
 90
        0
176
     1
 90
        0
176
     1
 62
     7
176
     1
 62
   257
176
     1
 90
        1
176
     1
 90
        1
176
     1
 40
1.0
176
     1
 90
        0
176
     1
 62
     7
176
     1
 40
1.0
176
     1
 90
        1
176
     1
 90
        6
176
     1
 90
        2
176
     1
 62
     7
176
     1
 90
        5
176
     1
 90
        0
176
     1
 90
        0
176
     1
290
     0
176
     1
 90
       13
176
     1
 40
0.0
176
     1
 90
        0
176
     1
290
     0
176
     1
290
     1
176
     1
290
     1
176
     1
290
     0
176
     1
290
     0
176
     1
290
     0
176
     1
290
     0
176
     1
290
     0
176
     1
290
     0
176
     1
 90
       50
176
     1
 40
0.0
176
     1
 40
1.0
176
     1
 90
        0
176
     1
 62
    18
420
        0
176
     1
 90
       50
176
     1
 90
        3
176
     1
 62
     5
420
      255
176
     1
290
     0
176
     1
 90
       50
176
     1
 90
       50
176
     1
 90
       50
176
     1
290
     0
176
     1
 90
       50
176
     1
 62
   256
176
     0
 40
1.0
176
     0
 90
        2
176
     1
  1
strokes_ogs.tif
176
     1
290
     0
176
     1
 40
1.0
176
     1
 40
1.0
176
     1
  0
VISUALSTYLE
  5
2E
102
{ACAD_REACTORS
330
2A
102
}
330
2A
100
AcDbVisualStyle
  2
GouraudWithEdges
 70
     3
177
     3
291
     1
 70
    58
 90
        2
176
     1
 90
        2
176
     1
 90
        1
176
     1
 90
        2
176
     1
 40
0.6
176
     1
 40
30.0
176
     1
 62
     7
420
 16777215
176
     1
 90
        1
176
     1
 90
        0
176
     1
 62
     7
176
     1
 62
   257
176
     1
 90
        1
176
     1
 90
        1
176
     1
 40
1.0
176
     1
 90
        0
176
     1
 62
   257
176
     1
 40
1.0
176
     1
 90
        1
176
     1
 90
        6
176
     1
 90
        2
176
     1
 62
     7
176
     1
 90
        5
176
     1
 90
        0
176
     1
 90
        0
176
     1
290
     0
176
     1
 90
       13
176
     1
 40
0.0
176
     1
 90
        0
176
     1
290
     0
176
     1
290
     1
176
     1
290
     1
176
     1
290
     0
176
     1
290
     0
176
     1
290
     0
176
     1
290
     0
176
     1
290
     0
176
     1
290
     0
176
     1
 90
       50
176
     1
 40
0.0
176
     1
 40
1.0
176
     1
 90
        0
176
     1
 62
    18
420
        0
176
     1
 90
       50
176
     1
 90
        3
176
     1
 62
     5
420
      255
176
     1
290
     0
176
     1
 90
       50
176
     1
 90
       50
176
     1
 90
       50
176
     1
290
     0
176
     1
 90
       50
176
     1
 62
   256
176
     0
 40
1.0
176
     0
 90
        2
176
     1
  1
strokes_ogs.tif
176
     1
290
     0
176
     1
 40
1.0
176
     1
 40
1.0
176
     1
  0
VISUALSTYLE
  5
31
102
{ACAD_REACTORS
330
2A
102
}
330
2A
100
AcDbVisualStyle
  2
Hidden
 70
     6
177
     3
291
     0
 70
    58
 90
        1
176
     1
 90
        2
176
     1
 90
        2
176
     1
 90
        0
176
     1
 40
0.6
176
     1
 40
30.0
176
     1
 62
     7
420
 16777215
176
     1
 90
        2
176
     1
 90
        2
176
     1
 62
     7
176
     1
 62
   257
176
     1
 90
        2
176
     1
 90
        1
176
     1
 40
40.0
176
     1
 90
        0
176
     1
 62
   257
176
     1
 40
1.0
176
     1
 90
        1
176
     1
 90
        6
176
     1
 90
        2
176
     1
 62
     7
176
     1
 90
        3
176
     1
 90
        0
176
     1
 90
        0
176
     1
290
     0
176
     1
 90
        1
176
     1
 40
0.0
176
     1
 90
        0
176
     1
290
     0
176
     1
290
     1
176
     1
290
     1
176
     1
290
     0
176
     1
290
     0
176
     1
290
     0
176
     1
290
     0
176
     1
290
     0
176
     1
290
     0
176
     1
 90
       50
176
     1
 40
0.0
176
     1
 40
1.0
176
     1
 90
        0
176
     1
 62
    18
420
        0
176
     1
 90
       50
176
     1
 90
        3
176
     1
 62
     5
420
      255
176
     1
290
     0
176
     1
 90
       50
176
     1
 90
       50
176
     1
 90
       50
176
     1
290
     0
176
     1
 90
       50
176
     1
 62
   256
176
     0
 40
1.0
176
     0
 90
        2
176
     1
  1
strokes_ogs.tif
176
     1
290
     0
176
     1
 40
1.0
176
     1
 40
1.0
176
     1
  0
VISUALSTYLE
  5
3B
102
{ACAD_REACTORS
330
2A
102
}
330
2A
100
AcDbVisualStyle
  2
JitterOff
 70
    20
177
     3
291
     1
 70
    58
 90
        2
176
     0
 90
        2
176
     0
 90
        0
176
     0
 90
        0
176
     0
 40
0.6
176
     0
 40
30.0
176
     0
 62
     7
420
 16777215
176
     0
 90
        1
176
     0
 90
        4
176
     0
 62
     7
176
     0
 62
   257
176
     0
 90
        1
176
     0
 90
        1
176
     0
 40
1.0
176
     0
 90
       10
176
     2
 62
     7
176
     0
 40
1.0
176
     0
 90
        1
176
     0
 90
        6
176
     0
 90
        2
176
     0
 62
     7
176
     0
 90
        5
176
     0
 90
        0
176
     0
 90
        0
176
     0
290
     0
176
     0
 90
        1
176
     0
 40
0.0
176
     0
 90
        0
176
     0
290
     0
176
     0
290
     1
176
     0
290
     1
176
     0
290
     0
176
     0
290
     0
176
     0
290
     0
176
     0
290
     0
176
     0
290
     0
176
     0
290
     0
176
     0
 90
       50
176
     0
 40
0.0
176
     0
 40
1.0
176
     0
 90
        0
176
     0
 62
    18
420
        0
176
     0
 90
       50
176
     0
 90
        3
176
     0
 62
     5
420
      255
176
     0
290
     0
176
     0
 90
       50
176
     0
 90
       50
176
     0
 90
       50
176
     0
290
     0
176
     0
 90
       50
176
     0
 62
   256
176
     0
 40
1.0
176
     0
 90
        2
176
     0
  1
strokes_ogs.tif
176
     0
290
     0
176
     0
 40
1.0
176
     0
 40
1.0
176
     0
  0
VISUALSTYLE
  5
38
102
{ACAD_REACTORS
330
2A
102
}
330
2A
100
AcDbVisualStyle
  2
Linepattern
 70
    14
177
     3
291
     1
 70
    58
 90
        2
176
     1
 90
        2
176
     1
 90
        0
176
     1
 90
        0
176
     1
 40
0.6
176
     1
 40
30.0
176
     1
 62
     7
420
 16777215
176
     1
 90
        1
176
     1
 90
        4
176
     1
 62
     7
176
     1
 62
   257
176
     1
 90
        7
176
     1
 90
        7
176
     1
 40
1.0
176
     1
 90
        8
176
     1
 62
     7
176
     1
 40
1.0
176
     1
 90
        1
176
     1
 90
        6
176
     1
 90
        2
176
     1
 62
     7
176
     1
 90
        5
176
     1
 90
        0
176
     1
 90
        0
176
     1
290
     0
176
     1
 90
        1
176
     1
 40
0.0
176
     1
 90
        0
176
     1
290
     0
176
     1
290
     1
176
     1
290
     1
176
     1
290
     0
176
     1
290
     0
176
     1
290
     0
176
     1
290
     0
176
     1
290
     0
176
     1
290
     0
176
     1
 90
       50
176
     1
 40
0.0
176
     1
 40
1.0
176
     1
 90
        0
176
     1
 62
    18
420
        0
176
     1
 90
       50
176
     1
 90
        3
176
     1
 62
     5
420
      255
176
     1
290
     0
176
     1
 90
       50
176
     1
 90
       50
176
     1
 90
       50
176
     1
290
     0
176
     1
 90
       50
176
     1
 62
   256
176
     0
 40
1.0
176
     0
 90
        2
176
     1
  1
strokes_ogs.tif
176
     1
290
     0
176
     1
 40
1.0
176
     1
 40
1.0
176
     1
  0
VISUALSTYLE
  5
3C
102
{ACAD_REACTORS
330
2A
102
}
330
2A
100
AcDbVisualStyle
  2
OverhangOff
 70
    21
177
     3
291
     1
 70
    58
 90
        2
176
     0
 90
        2
176
     0
 90
        0
176
     0
 90
        0
176
     0
 40
0.6
176
     0
 40
30.0
176
     0
 62
     7
420
 16777215
176
     0
 90
        1
176
     0
 90
        4
176
     0
 62
     7
176
     0
 62
   257
176
     0
 90
        1
176
     0
 90
        1
176
     0
 40
1.0
176
     0
 90
        9
176
     2
 62
     7
176
     0
 40
1.0
176
     0
 90
        1
176
     0
 90
        6
176
     0
 90
        2
176
     0
 62
     7
176
     0
 90
        5
176
     0
 90
        0
176
     0
 90
        0
176
     0
290
     0
176
     0
 90
        1
176
     0
 40
0.0
176
     0
 90
        0
176
     0
290
     0
176
     0
290
     1
176
     0
290
     1
176
     0
290
     0
176
     0
290
     0
176
     0
290
     0
176
     0
290
     0
176
     0
290
     0
176
     0
290
     0
176
     0
 90
       50
176
     0
 40
0.0
176
     0
 40
1.0
176
     0
 90
        0
176
     0
 62
    18
420
        0
176
     0
 90
       50
176
     0
 90
        3
176
     0
 62
     5
420
      255
176
     0
290
     0
176
     0
 90
       50
176
     0
 90
       50
176
     0
 90
       50
176
     0
290
     0
176
     0
 90
       50
176
     0
 62
   256
176
     0
 40
1.0
176
     0
 90
        2
176
     0
  1
strokes_ogs.tif
176
     0
290
     0
176
     0
 40
1.0
176
     0
 40
1.0
176
     0
  0
VISUALSTYLE
  5
33
102
{ACAD_REACTORS
330
2A
102
}
330
2A
100
AcDbVisualStyle
  2
Realistic
 70
     8
177
     3
291
     0
 70
    58
 90
        2
176
     1
 90
        3
176
     1
 90
        0
176
     1
 90
        2
176
     1
 40
0.6
176
     1
 40
30.0
176
     1
 62
     7
420
 16777215
176
     1
 90
        0
176
     1
 90
        0
176
     1
 62
     7
176
     1
 62
   257
176
     1
 90
        1
176
     1
 90
        1
176
     1
 40
1.0
176
     1
 90
        8
176
     1
 62
   257
176
     1
 40
1.0
176
     1
 90
        1
176
     1
 90
        6
176
     1
 90
        2
176
     1
 62
     7
176
     1
 90
        3
176
     1
 90
        0
176
     1
 90
        0
176
     1
290
     0
176
     1
 90
       13
176
     1
 40
0.0
176
     1
 90
        0
176
     1
290
     0
176
     1
290
     1
176
     1
290
     1
176
     1
290
     0
176
     1
290
     0
176
     1
290
     0
176
     1
290
     0
176
     1
290
     0
176
     1
290
     0
176
     1
 90
       50
176
     1
 40
0.0
176
     1
 40
1.0
176
     1
 90
        0
176
     1
 62
    18
420
        0
176
     1
 90
       50
176
     1
 90
        3
176
     1
 62
     5
420
      255
176
     1
290
     0
176
     1
 90
       50
176
     1
 90
       50
176
     1
 90
       50
176
     1
290
     0
176
     1
 90
       50
176
     1
 62
   256
176
     0
 40
1.0
176
     0
 90
        2
176
     1
  1
strokes_ogs.tif
176
     1
290
     0
176
     1
 40
1.0
176
     1
 40
1.0
176
     1
  0
VISUALSTYLE
  5
42
102
{ACAD_REACTORS
330
2A
102
}
330
2A
100
AcDbVisualStyle
  2
Shaded
 70
    27
177
     3
291
     0
 70
    58
 90
        2
176
     1
 90
        2
176
     1
 90
        1
176
     1
 90
        2
176
     1
 40
0.6
176
     1
 40
30.0
176
     1
 62
     7
420
 16777215
176
     1
 90
        0
176
     1
 90
        4
176
     1
 62
     7
176
     1
 62
   257
176
     1
 90
        1
176
     1
 90
        1
176
     1
 40
1.0
176
     1
 90
        8
176
     1
 62
   257
176
     1
 40
1.0
176
     1
 90
        1
176
     1
 90
        6
176
     1
 90
        2
176
     1
 62
     8
420
  7895160
176
     1
 90
        3
176
     1
 90
        0
176
     1
 90
        0
176
     1
290
     0
176
     1
 90
        5
176
     1
 40
0.0
176
     1
 90
        0
176
     1
290
     0
176
     1
290
     1
176
     1
290
     1
176
     1
290
     0
176
     1
290
     0
176
     1
290
     0
176
     1
290
     0
176
     1
290
     0
176
     1
290
     0
176
     1
 90
       50
176
     1
 40
0.0
176
     1
 40
1.0
176
     1
 90
        0
176
     1
 62
    18
420
        0
176
     1
 90
       50
176
     1
 90
        3
176
     1
 62
     5
420
      255
176
     1
290
     0
176
     1
 90
       50
176
     1
 90
       50
176
     1
 90
       50
176
     1
290
     0
176
     1
 90
       50
176
     1
 62
   256
176
     0
 40
1.0
176
     0
 90
        2
176
     1
  1
strokes_ogs.tif
176
     1
290
     0
176
     1
 40
1.0
176
     1
 40
1.0
176
     1
  0
VISUALSTYLE
  5
41
102
{ACAD_REACTORS
330
2A
102
}
330
2A
100
AcDbVisualStyle
  2
Shaded with edges
 70
    26
177
     3
291
     0
 70
    58
 90
        2
176
     1
 90
        2
176
     1
 90
        1
176
     1
 90
        2
176
     1
 40
0.6
176
     1
 40
30.0
176
     1
 62
     7
420
 16777215
176
     1
 90
        1
176
     1
 90
       10
176
     1
 62
     7
176
     1
 62
   257
176
     1
 90
        2
176
     1
 90
        1
176
     1
 40
1.0
176
     1
 90
        8
176
     1
 62
   257
176
     1
 40
1.0
176
     1
 90
        1
176
     1
 90
        6
176
     1
 90
        2
176
     1
 62
     7
176
     1
 90
        3
176
     1
 90
        0
176
     1
 90
        0
176
     1
290
     0
176
     1
 90
        5
176
     1
 40
0.0
176
     1
 90
        0
176
     1
290
     0
176
     1
290
     1
176
     1
290
     1
176
     1
290
     0
176
     1
290
     0
176
     1
290
     0
176
     1
290
     0
176
     1
290
     0
176
     1
290
     0
176
     1
 90
       50
176
     1
 40
0.0
176
     1
 40
1.0
176
     1
 90
        0
176
     1
 62
    18
420
        0
176
     1
 90
       50
176
     1
 90
        3
176
     1
 62
     5
420
      255
176
     1
290
     0
176
     1
 90
       50
176
     1
 90
       50
176
     1
 90
       50
176
     1
290
     0
176
     1
 90
       50
176
     1
 62
   256
176
     0
 40
1.0
176
     0
 90
        2
176
     1
  1
strokes_ogs.tif
176
     1
290
     0
176
     1
 40
1.0
176
     1
 40
1.0
176
     1
  0
VISUALSTYLE
  5
3E
102
{ACAD_REACTORS
330
2A
102
}
330
2A
100
AcDbVisualStyle
  2
Shades of Gray
 70
    23
177
     3
291
     0
 70
    58
 90
        2
176
     1
 90
        2
176
     1
 90
        3
176
     1
 90
        0
176
     1
 40
0.6
176
     1
 40
30.0
176
     1
 62
     7
420
 16777215
176
     1
 90
        2
176
     1
 90
        2
176
     1
 62
     7
176
     1
 62
     7
176
     1
 90
        1
176
     1
 90
        1
176
     1
 40
40.0
176
     1
 90
        8
176
     1
 62
     7
176
     1
 40
1.0
176
     1
 90
        1
176
     1
 90
        6
176
     1
 90
        2
176
     1
 62
     7
176
     1
 90
        3
176
     1
 90
        0
176
     1
 90
        0
176
     1
290
     0
176
     1
 90
        1
176
     1
 40
0.0
176
     1
 90
        0
176
     1
290
     0
176
     1
290
     1
176
     1
290
     1
176
     1
290
     0
176
     1
290
     0
176
     1
290
     0
176
     1
290
     0
176
     1
290
     0
176
     1
290
     0
176
     1
 90
       50
176
     1
 40
0.0
176
     1
 40
1.0
176
     1
 90
        0
176
     1
 62
    18
420
        0
176
     1
 90
       50
176
     1
 90
        3
176
     1
 62
     5
420
      255
176
     1
290
     0
176
     1
 90
       50
176
     1
 90
       50
176
     1
 90
       50
176
     1
290
     0
176
     1
 90
       50
176
     1
 62
   256
176
     0
 40
1.0
176
     0
 90
        2
176
     1
  1
strokes_ogs.tif
176
     1
290
     0
176
     1
 40
1.0
176
     1
 40
1.0
176
     1
  0
VISUALSTYLE
  5
3F
102
{ACAD_REACTORS
330
2A
102
}
330
2A
100
AcDbVisualStyle
  2
Sketchy
 70
    24
177
     3
291
     0
 70
    58
 90
        1
176
     1
 90
        2
176
     1
 90
        2
176
     1
 90
        0
176
     1
 40
0.6
176
     1
 40
30.0
176
     1
 62
     7
420
 16777215
176
     1
 90
        2
176
     1
 90
        2
176
     1
 62
     7
176
     1
 62
     7
176
     1
 90
        1
176
     1
 90
        1
176
     1
 40
40.0
176
     1
 90
       11
176
     1
 62
     7
176
     1
 40
1.0
176
     1
 90
        1
176
     1
 90
        6
176
     1
 90
        2
176
     1
 62
     7
176
     1
 90
        6
176
     1
 90
        0
176
     1
 90
        0
176
     1
290
     0
176
     1
 90
        1
176
     1
 40
0.0
176
     1
 90
        0
176
     1
290
     0
176
     1
290
     1
176
     1
290
     1
176
     1
290
     0
176
     1
290
     0
176
     1
290
     0
176
     1
290
     0
176
     1
290
     0
176
     1
290
     0
176
     1
 90
       50
176
     1
 40
0.0
176
     1
 40
1.0
176
     1
 90
        0
176
     1
 62
    18
420
        0
176
     1
 90
       50
176
     1
 90
        3
176
     1
 62
     5
420
      255
176
     1
290
     0
176
     1
 90
       50
176
     1
 90
       50
176
     1
 90
       50
176
     1
290
     0
176
     1
 90
       50
176
     1
 62
   256
176
     0
 40
1.0
176
     0
 90
        2
176
     1
  1
strokes_ogs.tif
176
     1
290
     0
176
     1
 40
1.0
176
     1
 40
1.0
176
     1
  0
VISUALSTYLE
  5
37
102
{ACAD_REACTORS
330
2A
102
}
330
2A
100
AcDbVisualStyle
  2
Thicken
 70
    13
177
     3
291
     1
 70
    58
 90
        2
176
     1
 90
        2
176
     1
 90
        0
176
     1
 90
        0
176
     1
 40
0.6
176
     1
 40
30.0
176
     1
 62
     7
420
 16777215
176
     1
 90
        1
176
     1
 90
        4
176
     1
 62
     7
176
     1
 62
   257
176
     1
 90
        1
176
     1
 90
        1
176
     1
 40
1.0
176
     1
 90
       12
176
     1
 62
     7
176
     1
 40
1.0
176
     1
 90
        1
176
     1
 90
        6
176
     1
 90
        2
176
     1
 62
     7
176
     1
 90
        5
176
     1
 90
        0
176
     1
 90
        0
176
     1
290
     0
176
     1
 90
        1
176
     1
 40
0.0
176
     1
 90
        0
176
     1
290
     0
176
     1
290
     1
176
     1
290
     1
176
     1
290
     0
176
     1
290
     0
176
     1
290
     0
176
     1
290
     0
176
     1
290
     0
176
     1
290
     0
176
     1
 90
       50
176
     1
 40
0.0
176
     1
 40
1.0
176
     1
 90
        0
176
     1
 62
    18
420
        0
176
     1
 90
       50
176
     1
 90
        3
176
     1
 62
     5
420
      255
176
     1
290
     0
176
     1
 90
       50
176
     1
 90
       50
176
     1
 90
       50
176
     1
290
     0
176
     1
 90
       50
176
     1
 62
   256
176
     0
 40
1.0
176
     0
 90
        2
176
     1
  1
strokes_ogs.tif
176
     1
290
     0
176
     1
 40
1.0
176
     1
 40
1.0
176
     1
  0
VISUALSTYLE
  5
30
102
{ACAD_REACTORS
330
2A
102
}
330
2A
100
AcDbVisualStyle
  2
Wireframe
 70
     5
177
     3
291
     0
 70
    58
 90
        0
176
     1
 90
        2
176
     1
 90
        0
176
     1
 90
        0
176
     1
 40
0.6
176
     1
 40
30.0
176
     1
 62
     7
420
 16777215
176
     1
 90
        1
176
     1
 90
        4
176
     1
 62
     7
176
     1
 62
   257
176
     1
 90
        1
176
     1
 90
        1
176
     1
 40
1.0
176
     1
 90
        0
176
     1
 62
   257
176
     1
 40
1.0
176
     1
 90
        1
176
     1
 90
        6
176
     1
 90
        2
176
     1
 62
     7
176
     1
 90
        3
176
     1
 90
        0
176
     1
 90
        0
176
     1
290
     0
176
     1
 90
        1
176
     1
 40
0.0
176
     1
 90
        0
176
     1
290
     0
176
     1
290
     1
176
     1
290
     1
176
     1
290
     0
176
     1
290
     0
176
     1
290
     0
176
     1
290
     0
176
     1
290
     0
176
     1
290
     0
176
     1
 90
       50
176
     1
 40
0.0
176
     1
 40
1.0
176
     1
 90
        0
176
     1
 62
    18
420
        0
176
     1
 90
       50
176
     1
 90
        3
176
     1
 62
     5
420
      255
176
     1
290
     0
176
     1
 90
       50
176
     1
 90
       50
176
     1
 90
       50
176
     1
290
     0
176
     1
 90
       50
176
     1
 62
   256
176
     0
 40
1.0
176
     0
 90
        2
176
     1
  1
strokes_ogs.tif
176
     1
290
     0
176
     1
 40
1.0
176
     1
 40
1.0
176
     1
  0
VISUALSTYLE
  5
40
102
{ACAD_REACTORS
330
2A
102
}
330
2A
100
AcDbVisualStyle
  2
X-Ray
 70
    25
177
     3
291
     0
 70
    58
 90
        2
176
     1
 90
        2
176
     1
 90
        1
176
     1
 90
        1
176
     1
 40
0.5
176
     1
 40
30.0
176
     1
 62
     7
420
 16777215
176
     1
 90
        1
176
     1
 90
        0
176
     1
 62
     7
176
     1
 62
   257
176
     1
 90
        1
176
     1
 90
        1
176
     1
 40
1.0
176
     1
 90
        8
176
     1
 62
     7
176
     1
 40
1.0
176
     1
 90
        1
176
     1
 90
        6
176
     1
 90
        2
176
     1
 62
     7
176
     1
 90
        3
176
     1
 90
        0
176
     1
 90
        0
176
     1
290
     0
176
     1
 90
       13
176
     1
 40
0.0
176
     1
 90
        0
176
     1
290
     0
176
     1
290
     1
176
     1
290
     1
176
     1
290
     0
176
     1
290
     0
176
     1
290
     0
176
     1
290
     0
176
     1
290
     0
176
     1
290
     0
176
     1
 90
       50
176
     1
 40
0.0
176
     1
 40
1.0
176
     1
 90
        0
176
     1
 62
    18
420
        0
176
     1
 90
       50
176
     1
 90
        3
176
     1
 62
     5
420
      255
176
     1
290
     0
176
     1
 90
       50
176
     1
 90
       50
176
     1
 90
       50
176
     1
290
     0
176
     1
 90
       50
176
     1
 62
   256
176
     0
 40
1.0
176
     0
 90
        2
176
     1
  1
strokes_ogs.tif
176
     1
290
     0
176
     1
 40
1.0
176
     1
 40
1.0
176
     1
  0
DICTIONARYVAR
  5
C9
102
{ACAD_REACTORS
330
C8
102
}
330
C8
100
DictionaryVariables
280
     0
  1
1:1
  0
DICTIONARYVAR
  5
D1
102
{ACAD_REACTORS
330
C8
102
}
330
C8
100
DictionaryVariables
280
     0
  1
3.500000
  0
DICTIONARYVAR
  5
D2
102
{ACAD_REACTORS
330
C8
102
}
330
C8
100
DictionaryVariables
280
     0
  1
acadiso.lin
  0
DICTIONARYVAR
  5
CE
102
{ACAD_REACTORS
330
C8
102
}
330
C8
100
DictionaryVariables
280
     0
  1
Standard
  0
DICTIONARYVAR
  5
CD
102
{ACAD_REACTORS
330
C8
102
}
330
C8
100
DictionaryVariables
280
     0
  1
Standard
  0
DICTIONARY
  5
CA
330
6A
100
AcDbDictionary
280
     1
281
     1
  3
ACAD_ROUNDTRIP_2008_TABLESTYLE_CELLSTYLEMAP
360
CB
  0
CELLSTYLEMAP
  5
CB
102
{ACAD_REACTORS
330
CA
102
}
330
CA
100
AcDbCellStyleMap
 90
        3
300
CELLSTYLE
  1
TABLEFORMAT_BEGIN
 90
        5
170
     1
 91
        0
 92
    32768
 62
   257
 93
        1
300
CONTENTFORMAT
  1
CONTENTFORMAT_BEGIN
 90
        0
 91
        0
 92
        4
 93
        0
300

 40
0.0
140
1.0
 94
        5
 62
     0
340
11
144
6.0
309
CONTENTFORMAT_END
171
     1
301
MARGIN
  1
CELLMARGIN_BEGIN
 40
1.5
 40
1.5
 40
1.5
 40
1.5
 40
1.5
 40
1.5
309
CELLMARGIN_END
 94
        6
 95
        1
302
GRIDFORMAT
  1
GRIDFORMAT_BEGIN
 90
        0
 91
        1
 62
     0
 92
       -2
340
14
 93
        0
 40
0.045
309
GRIDFORMAT_END
 95
        2
302
GRIDFORMAT
  1
GRIDFORMAT_BEGIN
 90
        0
 91
        1
 62
     0
 92
       -2
340
14
 93
        0
 40
0.045
309
GRIDFORMAT_END
 95
        4
302
GRIDFORMAT
  1
GRIDFORMAT_BEGIN
 90
        0
 91
        1
 62
     0
 92
       -2
340
14
 93
        0
 40
0.045
309
GRIDFORMAT_END
 95
        8
302
GRIDFORMAT
  1
GRIDFORMAT_BEGIN
 90
        0
 91
        1
 62
     0
 92
       -2
340
14
 93
        0
 40
0.045
309
GRIDFORMAT_END
 95
       16
302
GRIDFORMAT
  1
GRIDFORMAT_BEGIN
 90
        0
 91
        1
 62
     0
 92
       -2
340
14
 93
        0
 40
0.045
309
GRIDFORMAT_END
 95
       32
302
GRIDFORMAT
  1
GRIDFORMAT_BEGIN
 90
        0
 91
        1
 62
     0
 92
       -2
340
14
 93
        0
 40
0.045
309
GRIDFORMAT_END
309
TABLEFORMAT_END
  1
CELLSTYLE_BEGIN
 90
        1
 91
        1
300
_TITLE
309
CELLSTYLE_END
300
CELLSTYLE
  1
TABLEFORMAT_BEGIN
 90
        5
170
     1
 91
        0
 92
        0
 62
   257
 93
        1
300
CONTENTFORMAT
  1
CONTENTFORMAT_BEGIN
 90
        0
 91
        0
 92
        4
 93
        0
300

 40
0.0
140
1.0
 94
        5
 62
     0
340
11
144
4.5
309
CONTENTFORMAT_END
171
     1
301
MARGIN
  1
CELLMARGIN_BEGIN
 40
1.5
 40
1.5
 40
1.5
 40
1.5
 40
1.5
 40
1.5
309
CELLMARGIN_END
 94
        6
 95
        1
302
GRIDFORMAT
  1
GRIDFORMAT_BEGIN
 90
        0
 91
        1
 62
     0
 92
       -2
340
14
 93
        0
 40
0.045
309
GRIDFORMAT_END
 95
        2
302
GRIDFORMAT
  1
GRIDFORMAT_BEGIN
 90
        0
 91
        1
 62
     0
 92
       -2
340
14
 93
        0
 40
0.045
309
GRIDFORMAT_END
 95
        4
302
GRIDFORMAT
  1
GRIDFORMAT_BEGIN
 90
        0
 91
        1
 62
     0
 92
       -2
340
14
 93
        0
 40
0.045
309
GRIDFORMAT_END
 95
        8
302
GRIDFORMAT
  1
GRIDFORMAT_BEGIN
 90
        0
 91
        1
 62
     0
 92
       -2
340
14
 93
        0
 40
0.045
309
GRIDFORMAT_END
 95
       16
302
GRIDFORMAT
  1
GRIDFORMAT_BEGIN
 90
        0
 91
        1
 62
     0
 92
       -2
340
14
 93
        0
 40
0.045
309
GRIDFORMAT_END
 95
       32
302
GRIDFORMAT
  1
GRIDFORMAT_BEGIN
 90
        0
 91
        1
 62
     0
 92
       -2
340
14
 93
        0
 40
0.045
309
GRIDFORMAT_END
309
TABLEFORMAT_END
  1
CELLSTYLE_BEGIN
 90
        2
 91
        1
300
_HEADER
309
CELLSTYLE_END
300
CELLSTYLE
  1
TABLEFORMAT_BEGIN
 90
        5
170
     1
 91
        0
 92
        0
 62
   257
 93
        1
300
CONTENTFORMAT
  1
CONTENTFORMAT_BEGIN
 90
        0
 91
        0
 92
        4
 93
        0
300

 40
0.0
140
1.0
 94
        2
 62
     0
340
11
144
4.5
309
CONTENTFORMAT_END
171
     1
301
MARGIN
  1
CELLMARGIN_BEGIN
 40
1.5
 40
1.5
 40
1.5
 40
1.5
 40
1.5
 40
1.5
309
CELLMARGIN_END
 94
        6
 95
        1
302
GRIDFORMAT
  1
GRIDFORMAT_BEGIN
 90
        0
 91
        1
 62
     0
 92
       -2
340
14
 93
        0
 40
0.045
309
GRIDFORMAT_END
 95
        2
302
GRIDFORMAT
  1
GRIDFORMAT_BEGIN
 90
        0
 91
        1
 62
     0
 92
       -2
340
14
 93
        0
 40
0.045
309
GRIDFORMAT_END
 95
        4
302
GRIDFORMAT
  1
GRIDFORMAT_BEGIN
 90
        0
 91
        1
 62
     0
 92
       -2
340
14
 93
        0
 40
0.045
309
GRIDFORMAT_END
 95
        8
302
GRIDFORMAT
  1
GRIDFORMAT_BEGIN
 90
        0
 91
        1
 62
     0
 92
       -2
340
14
 93
        0
 40
0.045
309
GRIDFORMAT_END
 95
       16
302
GRIDFORMAT
  1
GRIDFORMAT_BEGIN
 90
        0
 91
        1
 62
     0
 92
       -2
340
14
 93
        0
 40
0.045
309
GRIDFORMAT_END
 95
       32
302
GRIDFORMAT
  1
GRIDFORMAT_BEGIN
 90
        0
 91
        1
 62
     0
 92
       -2
340
14
 93
        0
 40
0.045
309
GRIDFORMAT_END
309
TABLEFORMAT_END
  1
CELLSTYLE_BEGIN
 90
        3
 91
        2
300
_DATA
309
CELLSTYLE_END
  0
ENDSEC
  0
EOF
