  0
SECTION
  2
HEADER
  9
$ACADVER
  1
AC1027
  9
$ACADMAINTVER
 70
   105
  9
$DWGCODEPAGE
  3
ANSI_1252
  9
$REQUIREDVERSIONS
160
                 0
  9
$INSBASE
 10
0.0
 20
0.0
 30
0.0
  9
$EXTMIN
 10
-75.0
 20
-15.0
 30
0.0
  9
$EXTMAX
 10
75.0
 20
15.0
 30
0.0
  9
$LIMMIN
 10
0.0
 20
0.0
  9
$LIMMAX
 10
420.0
 20
297.0
  9
$ORTHOMODE
 70
     0
  9
$REGENMODE
 70
     1
  9
$FILLMODE
 70
     1
  9
$QTEXTMODE
 70
     0
  9
$MIRRTEXT
 70
     1
  9
$LTSCALE
 40
1.0
  9
$ATTMODE
 70
     1
  9
$TEXTSIZE
 40
3.5
  9
$TRACEWID
 40
1.0
  9
$TEXTSTYLE
  7
Standard
  9
$CLAYER
  8
0
  9
$CELTYPE
  6
ByLayer
  9
$CECOLOR
 62
   256
  9
$CELTSCALE
 40
1.0
  9
$DISPSILH
 70
     0
  9
$DIMSCALE
 40
1.0
  9
$DIMASZ
 40
3.302
  9
$DIMEXO
 40
1.0
  9
$DIMDLI
 40
3.75
  9
$DIMRND
 40
0.0
  9
$DIMDLE
 40
0.0
  9
$DIMEXE
 40
1.0
  9
$DIMTP
 40
0.0
  9
$DIMTM
 40
0.0
  9
$DIMTXT
 40
3.5
  9
$DIMCEN
 40
2.5
  9
$DIMTSZ
 40
0.0
  9
$DIMTOL
 70
     0
  9
$DIMLIM
 70
     0
  9
$DIMTIH
 70
     1
  9
$DIMTOH
 70
     1
  9
$DIMSE1
 70
     0
  9
$DIMSE2
 70
     0
  9
$DIMTAD
 70
     1
  9
$DIMZIN
 70
     1
  9
$DIMBLK
  1

  9
$DIMASO
 70
     1
  9
$DIMSHO
 70
     1
  9
$DIMPOST
  1

  9
$DIMAPOST
  1

  9
$DIMALT
 70
     0
  9
$DIMALTD
 70
     3
  9
$DIMALTF
 40
0.0393700787
  9
$DIMLFAC
 40
1.0
  9
$DIMTOFL
 70
     1
  9
$DIMTVP
 40
0.0
  9
$DIMTIX
 70
     0
  9
$DIMSOXD
 70
     0
  9
$DIMSAH
 70
     0
  9
$DIMBLK1
  1

  9
$DIMBLK2
  1

  9
$DIMSTYLE
  2
ISO-25
  9
$DIMCLRD
 70
     0
  9
$DIMCLRE
 70
     0
  9
$DIMCLRT
 70
     0
  9
$DIMTFAC
 40
1.0
  9
$DIMGAP
 40
1.524
  9
$DIMJUST
 70
     0
  9
$DIMSD1
 70
     0
  9
$DIMSD2
 70
     0
  9
$DIMTOLJ
 70
     0
  9
$DIMTZIN
 70
     1
  9
$DIMALTZ
 70
     0
  9
$DIMALTTZ
 70
     0
  9
$DIMUPT
 70
     0
  9
$DIMDEC
 70
     2
  9
$DIMTDEC
 70
     2
  9
$DIMALTU
 70
     2
  9
$DIMALTTD
 70
     3
  9
$DIMTXSTY
  7
Standard
  9
$DIMAUNIT
 70
     0
  9
$DIMADEC
 70
     2
  9
$DIMALTRND
 40
0.0
  9
$DIMAZIN
 70
     0
  9
$DIMDSEP
 70
    44
  9
$DIMATFIT
 70
     3
  9
$DIMFRAC
 70
     0
  9
$DIMLDRBLK
  1

  9
$DIMLUNIT
 70
     2
  9
$DIMLWD
 70
    -2
  9
$DIMLWE
 70
    -2
  9
$DIMTMOVE
 70
     0
  9
$DIMFXL
 40
1.0
  9
$DIMFXLON
 70
     0
  9
$DIMJOGANG
 40
0.7853981634
  9
$DIMTFILL
 70
     0
  9
$DIMTFILLCLR
 70
     0
  9
$DIMARCSYM
 70
     0
  9
$DIMLTYPE
  6

  9
$DIMLTEX1
  6

  9
$DIMLTEX2
  6

  9
$DIMTXTDIRECTION
 70
     0
  9
$LUNITS
 70
     2
  9
$LUPREC
 70
     2
  9
$SKETCHINC
 40
1.0
  9
$FILLETRAD
 40
10.0
  9
$AUNITS
 70
     0
  9
$AUPREC
 70
     2
  9
$MENU
  1
.
  9
$ELEVATION
 40
0.0
  9
$PELEVATION
 40
0.0
  9
$THICKNESS
 40
0.0
  9
$LIMCHECK
 70
     0
  9
$CHAMFERA
 40
0.0
  9
$CHAMFERB
 40
0.0
  9
$CHAMFERC
 40
0.0
  9
$CHAMFERD
 40
0.0
  9
$SKPOLY
 70
     0
  9
$TDCREATE
 40
2461229.445328796
  9
$TDUCREATE
 40
2461229.570328796
  9
$TDUPDATE
 40
2461229.445340845
  9
$TDUUPDATE
 40
2461229.570340845
  9
$TDINDWG
 40
0.0000000116
  9
$TDUSRTIMER
 40
0.0000000116
  9
$USRTIMER
 70
     1
  9
$ANGBASE
 50
0.0
  9
$ANGDIR
 70
     0
  9
$PDMODE
 70
     0
  9
$PDSIZE
 40
-1.0
  9
$PLINEWID
 40
0.0
  9
$SPLFRAME
 70
     0
  9
$SPLINETYPE
 70
     6
  9
$SPLINESEGS
 70
     8
  9
$HANDSEED
  5
FF
  9
$SURFTAB1
 70
     6
  9
$SURFTAB2
 70
     6
  9
$SURFTYPE
 70
     6
  9
$SURFU
 70
     6
  9
$SURFV
 70
     6
  9
$UCSBASE
  2

  9
$UCSNAME
  2

  9
$UCSORG
 10
0.0
 20
0.0
 30
0.0
  9
$UCSXDIR
 10
1.0
 20
0.0
 30
0.0
  9
$UCSYDIR
 10
0.0
 20
1.0
 30
0.0
  9
$UCSORTHOREF
  2

  9
$UCSORTHOVIEW
 70
     0
  9
$UCSORGTOP
 10
0.0
 20
0.0
 30
0.0
  9
$UCSORGBOTTOM
 10
0.0
 20
0.0
 30
0.0
  9
$UCSORGLEFT
 10
0.0
 20
0.0
 30
0.0
  9
$UCSORGRIGHT
 10
0.0
 20
0.0
 30
0.0
  9
$UCSORGFRONT
 10
0.0
 20
0.0
 30
0.0
  9
$UCSORGBACK
 10
0.0
 20
0.0
 30
0.0
  9
$PUCSBASE
  2

  9
$PUCSNAME
  2

  9
$PUCSORG
 10
0.0
 20
0.0
 30
0.0
  9
$PUCSXDIR
 10
1.0
 20
0.0
 30
0.0
  9
$PUCSYDIR
 10
0.0
 20
1.0
 30
0.0
  9
$PUCSORTHOREF
  2

  9
$PUCSORTHOVIEW
 70
     0
  9
$PUCSORGTOP
 10
0.0
 20
0.0
 30
0.0
  9
$PUCSORGBOTTOM
 10
0.0
 20
0.0
 30
0.0
  9
$PUCSORGLEFT
 10
0.0
 20
0.0
 30
0.0
  9
$PUCSORGRIGHT
 10
0.0
 20
0.0
 30
0.0
  9
$PUCSORGFRONT
 10
0.0
 20
0.0
 30
0.0
  9
$PUCSORGBACK
 10
0.0
 20
0.0
 30
0.0
  9
$USERI1
 70
     0
  9
$USERI2
 70
     0
  9
$USERI3
 70
     0
  9
$USERI4
 70
     0
  9
$USERI5
 70
     0
  9
$USERR1
 40
0.0
  9
$USERR2
 40
0.0
  9
$USERR3
 40
0.0
  9
$USERR4
 40
0.0
  9
$USERR5
 40
0.0
  9
$WORLDVIEW
 70
     1
  9
$SHADEDGE
 70
     3
  9
$SHADEDIF
 70
    70
  9
$TILEMODE
 70
     1
  9
$MAXACTVP
 70
    64
  9
$PINSBASE
 10
0.0
 20
0.0
 30
0.0
  9
$PLIMCHECK
 70
     0
  9
$PEXTMIN
 10
1.0000000000E+20
 20
1.0000000000E+20
 30
1.0000000000E+20
  9
$PEXTMAX
 10
-1.0000000000E+20
 20
-1.0000000000E+20
 30
-1.0000000000E+20
  9
$PLIMMIN
 10
0.0
 20
0.0
  9
$PLIMMAX
 10
420.0
 20
297.0
  9
$UNITMODE
 70
     0
  9
$VISRETAIN
 70
     1
  9
$PLINEGEN
 70
     0
  9
$PSLTSCALE
 70
     1
  9
$TREEDEPTH
 70
  3020
  9
$CMLSTYLE
  2
Standard
  9
$CMLJUST
 70
     0
  9
$CMLSCALE
 40
20.0
  9
$PROXYGRAPHICS
 70
     1
  9
$MEASUREMENT
 70
     1
  9
$CELWEIGHT
370
    -1
  9
$ENDCAPS
280
     0
  9
$JOINSTYLE
280
     0
  9
$LWDISPLAY
290
     1
  9
$INSUNITS
 70
     4
  9
$HYPERLINKBASE
  1

  9
$STYLESHEET
  1

  9
$XEDIT
290
     1
  9
$CEPSNTYPE
380
     0
  9
$PSTYLEMODE
290
     1
  9
$FINGERPRINTGUID
  2
{f458bd71-62be-454a-af26-30f14db1c4a8}
  9
$VERSIONGUID
  2
{FAEB1C32-E019-11D5-929B-00C0DF256EC4}
  9
$EXTNAMES
290
     1
  9
$PSVPSCALE
 40
0.0
  9
$OLESTARTUP
290
     0
  9
$SORTENTS
280
   127
  9
$INDEXCTL
280
     0
  9
$HIDETEXT
280
     1
  9
$XCLIPFRAME
280
     2
  9
$HALOGAP
280
     0
  9
$OBSCOLOR
 70
   257
  9
$OBSLTYPE
280
     0
  9
$INTERSECTIONDISPLAY
280
     0
  9
$INTERSECTIONCOLOR
 70
   257
  9
$DIMASSOC
280
     2
  9
$PROJECTNAME
  1

  9
$CAMERADISPLAY
290
     0
  9
$LENSLENGTH
 40
50.0
  9
$CAMERAHEIGHT
 40
0.0
  9
$STEPSPERSEC
 40
2.0
  9
$STEPSIZE
 40
6.0
  9
$3DDWFPREC
 40
2.0
  9
$PSOLWIDTH
 40
5.0
  9
$PSOLHEIGHT
 40
80.0
  9
$LOFTANG1
 40
1.5707963268
  9
$LOFTANG2
 40
1.5707963268
  9
$LOFTMAG1
 40
0.0
  9
$LOFTMAG2
 40
0.0
  9
$LOFTPARAM
 70
     7
  9
$LOFTNORMALS
280
     1
  9
$LATITUDE
 40
37.795
  9
$LONGITUDE
 40
-122.394
  9
$NORTHDIRECTION
 40
0.0
  9
$TIMEZONE
 70
 -8000
  9
$LIGHTGLYPHDISPLAY
280
     1
  9
$TILEMODELIGHTSYNCH
280
     1
  9
$CMATERIAL
347
44
  9
$SOLIDHIST
280
     0
  9
$SHOWHIST
280
     1
  9
$DWFFRAME
280
     2
  9
$DGNFRAME
280
     2
  9
$REALWORLDSCALE
290
     1
  9
$INTERFERECOLOR
 62
   256
  9
$CSHADOW
280
     0
  9
$SHADOWPLANELOCATION
 40
0.0
  0
ENDSEC
  0
SECTION
  2
CLASSES
  0
CLASS
  1
ACDBDICTIONARYWDFLT
  2
AcDbDictionaryWithDefault
  3
ObjectDBX Classes
 90
        0
 91
        3
280
     0
281
     0
  0
CLASS
  1
VISUALSTYLE
  2
AcDbVisualStyle
  3
ObjectDBX Classes
 90
     4095
 91
        3
280
     0
281
     0
  0
CLASS
  1
MATERIAL
  2
AcDbMaterial
  3
ObjectDBX Classes
 90
     1153
 91
        3
280
     0
281
     0
  0
CLASS
  1
SCALE
  2
AcDbScale
  3
ObjectDBX Classes
 90
     1153
 91
        3
280
     0
281
     0
  0
CLASS
  1
TABLESTYLE
  2
AcDbTableStyle
  3
ObjectDBX Classes
 90
     4095
 91
        3
280
     0
281
     0
  0
CLASS
  1
MLEADERSTYLE
  2
AcDbMLeaderStyle
  3
ACDB_MLEADERSTYLE_CLASS
 90
     4095
 91
        3
280
     0
281
     0
  0
CLASS
  1
SUN
  2
AcDbSun
  3
SCENEOE
 90
     1153
 91
        3
280
     0
281
     0
  0
CLASS
  1
DICTIONARYVAR
  2
AcDbDictionaryVar
  3
ObjectDBX Classes
 90
        0
 91
        3
280
     0
281
     0
  0
CLASS
  1
CELLSTYLEMAP
  2
AcDbCellStyleMap
  3
ObjectDBX Classes
 90
     1152
 91
        3
280
     0
281
     0
  0
ENDSEC
  0
SECTION
  2
TABLES
  0
TABLE
  2
VPORT
  5
8
330
0
100
AcDbSymbolTable
 70
     1
  0
VPORT
  5
29
330
8
100
AcDbSymbolTableRecord
100
AcDbViewportTableRecord
  2
*Active
 70
     0
 10
0.0
 20
0.0
 11
1.0
 21
1.0
 12
0.0
 22
0.0
 13
0.0
 23
0.0
 14
10.0
 24
10.0
 15
10.0
 25
10.0
 16
0.0
 26
0.0
 36
1.0
 17
0.0
 27
0.0
 37
0.0
 40
30.6
 41
5.0
 42
50.0
 43
0.0
 44
0.0
 50
0.0
 51
0.0
 71
     0
 72
   100
 73
     1
 74
     3
 75
     0
 76
     0
 77
     0
 78
     0
281
     0
 65
     1
110
0.0
120
0.0
130
0.0
111
1.0
121
0.0
131
0.0
112
0.0
122
1.0
132
0.0
 79
     0
146
0.0
348
2F
 60
     3
 61
     5
292
     1
282
     1
141
0.0
142
0.0
 63
   250
361
6D
  0
ENDTAB
  0
TABLE
  2
LTYPE
  5
5
330
0
100
AcDbSymbolTable
 70
     6
  0
LTYPE
  5
14
330
5
100
AcDbSymbolTableRecord
100
AcDbLinetypeTableRecord
  2
ByBlock
 70
     0
  3

 72
    65
 73
     0
 40
0.0
  0
LTYPE
  5
15
330
5
100
AcDbSymbolTableRecord
100
AcDbLinetypeTableRecord
  2
ByLayer
 70
     0
  3

 72
    65
 73
     0
 40
0.0
  0
LTYPE
  5
16
330
5
100
AcDbSymbolTableRecord
100
AcDbLinetypeTableRecord
  2
Continuous
 70
     0
  3
Solid line
 72
    65
 73
     0
 40
0.0
  0
LTYPE
  5
6E
330
5
100
AcDbSymbolTableRecord
100
AcDbLinetypeTableRecord
  2
HIDDEN
 70
     0
  3
Hidden __ __ __ __ __ __ __ __ __ __ __ __ __ __
 72
    65
 73
     2
 40
1.905
 49
1.27
 74
     0
 49
-0.635
 74
     0
  0
LTYPE
  5
6F
330
5
100
AcDbSymbolTableRecord
100
AcDbLinetypeTableRecord
  2
PHANTOM
 70
     0
  3
Phantom ______  __  __  ______  __  __  ______
 72
    65
 73
     6
 40
12.7
 49
6.35
 74
     0
 49
-1.27
 74
     0
 49
1.27
 74
     0
 49
-1.27
 74
     0
 49
1.27
 74
     0
 49
-1.27
 74
     0
  0
LTYPE
  5
70
330
5
100
AcDbSymbolTableRecord
100
AcDbLinetypeTableRecord
  2
CENTER
 70
     0
  3
Center ____ _ ____ _ ____ _ ____ _ ____ _ ____
 72
    65
 73
     4
 40
10.16
 49
6.35
 74
     0
 49
-1.27
 74
     0
 49
1.27
 74
     0
 49
-1.27
 74
     0
  0
LTYPE
  5
71
330
5
100
AcDbSymbolTableRecord
100
AcDbLinetypeTableRecord
  2
CENTERX2
 70
     0
  3
Center (2x) ________  __  ________  __  _____
 72
    65
 73
     4
 40
20.32
 49
12.7
 74
     0
 49
-2.54
 74
     0
 49
2.54
 74
     0
 49
-2.54
 74
     0
  0
LTYPE
  5
72
330
5
100
AcDbSymbolTableRecord
100
AcDbLinetypeTableRecord
  2
DOT2
 70
     0
  3
Dot (.5x) ........................................
 72
    65
 73
     2
 40
0.635
 49
0.0
 74
     0
 49
-0.635
 74
     0
  0
ENDTAB
  0
TABLE
  2
LAYER
  5
2
330
0
100
AcDbSymbolTable
 70
     1
  0
LAYER
  5
10
330
2
100
AcDbSymbolTableRecord
100
AcDbLayerTableRecord
  2
0
 70
     0
 62
     7
  6
Continuous
370
    -3
390
F
347
46
348
0
  0
ENDTAB
  0
TABLE
  2
STYLE
  5
3
330
0
100
AcDbSymbolTable
 70
     1
  0
STYLE
  5
11
330
3
100
AcDbSymbolTableRecord
100
AcDbTextStyleTableRecord
  2
Standard
 70
     0
 40
0.0
 41
1.0
 50
0.0
 71
     0
 42
3.5
  3
txt
  4

  0
ENDTAB
  0
TABLE
  2
VIEW
  5
6
330
0
100
AcDbSymbolTable
 70
     0
  0
ENDTAB
  0
TABLE
  2
UCS
  5
7
330
0
100
AcDbSymbolTable
 70
     0
  0
ENDTAB
  0
TABLE
  2
APPID
  5
9
330
0
100
AcDbSymbolTable
 70
     1
  0
APPID
  5
12
330
9
100
AcDbSymbolTableRecord
100
AcDbRegAppTableRecord
  2
ACAD
 70
     0
  0
ENDTAB
  0
TABLE
  2
DIMSTYLE
  5
A
330
0
100
AcDbSymbolTable
 70
     1
100
AcDbDimStyleTable
  0
DIMSTYLE
105
27
330
A
100
AcDbSymbolTableRecord
100
AcDbDimStyleTableRecord
  2
ISO-25
 70
     0
 41
2.5
 42
0.625
 43
3.75
 44
1.25
 73
     0
 74
     0
 77
     1
 78
     8
140
2.5
141
2.5
143
0.0393700787
147
0.625
171
     3
172
     1
178
     0
271
     2
272
     2
274
     3
278
    44
283
     0
284
     8
340
11
  0
ENDTAB
  0
TABLE
  2
BLOCK_RECORD
  5
1
330
0
100
AcDbSymbolTable
 70
     1
  0
BLOCK_RECORD
  5
1F
330
1
100
AcDbSymbolTableRecord
100
AcDbBlockTableRecord
  2
*Model_Space
340
22
 70
     0
280
     1
281
     0
  0
BLOCK_RECORD
  5
1B
330
1
100
AcDbSymbolTableRecord
100
AcDbBlockTableRecord
  2
*Paper_Space
340
1E
 70
     0
280
     1
281
     0
  0
BLOCK_RECORD
  5
23
330
1
100
AcDbSymbolTableRecord
100
AcDbBlockTableRecord
  2
*Paper_Space0
340
26
 70
     0
280
     1
281
     0
  0
ENDTAB
  0
ENDSEC
  0
SECTION
  2
BLOCKS
  0
BLOCK
  5
20
330
1F
100
AcDbEntity
  8
0
100
AcDbBlockBegin
  2
*Model_Space
 70
     0
 10
0.0
 20
0.0
 30
0.0
  3
*Model_Space
  1

  0
ENDBLK
  5
21
330
1F
100
AcDbEntity
  8
0
100
AcDbBlockEnd
  0
BLOCK
  5
1C
330
1B
100
AcDbEntity
 67
     1
  8
0
100
AcDbBlockBegin
  2
*Paper_Space
 70
     0
 10
0.0
 20
0.0
 30
0.0
  3
*Paper_Space
  1

  0
ENDBLK
  5
1D
330
1B
100
AcDbEntity
 67
     1
  8
0
100
AcDbBlockEnd
  0
BLOCK
  5
24
330
23
100
AcDbEntity
  8
0
100
AcDbBlockBegin
  2
*Paper_Space0
 70
     0
 10
0.0
 20
0.0
 30
0.0
  3
*Paper_Space0
  1

  0
ENDBLK
  5
25
330
23
100
AcDbEntity
  8
0
100
AcDbBlockEnd
  0
ENDSEC
  0
SECTION
  2
ENTITIES
  0
LINE
  5
73
330
1F
100
AcDbEntity
  8
0
  6
Continuous
 62
     7
370
    25
100
AcDbLine
 10
75.0
 20
-15.0
 30
0.0
 11
75.0
 21
15.0
 31
0.0
  0
LINE
  5
74
330
1F
100
AcDbEntity
  8
0
  6
Continuous
 62
     7
370
    25
100
AcDbLine
 10
75.0
 20
15.0
 30
0.0
 11
-75.0
 21
15.0
 31
0.0
  0
LINE
  5
75
330
1F
100
AcDbEntity
  8
0
  6
Continuous
 62
     7
370
    25
100
AcDbLine
 10
-75.0
 20
15.0
 30
0.0
 11
-75.0
 21
-15.0
 31
0.0
  0
LINE
  5
76
330
1F
100
AcDbEntity
  8
0
  6
Continuous
 62
     7
370
    25
100
AcDbLine
 10
-75.0
 20
-15.0
 30
0.0
 11
75.0
 21
-15.0
 31
0.0
  0
SPLINE
  5
77
330
1F
100
AcDbEntity
  8
0
  6
Continuous
 62
     7
370
    25
100
AcDbSpline
210
0.0
220
0.0
230
1.0
 70
     8
 71
     3
 72
    15
 73
    11
 74
     0
 42
0.000000001
 43
0.00000001
 40
0.0
 40
0.0
 40
0.0
 40
0.0
 40
0.1579758389313134
 40
0.3057145013712962
 40
0.443513679104683
 40
0.5709741853280564
 40
0.6888341381477285
 40
0.7996262499796952
 40
0.9032091946153793
 40
1.0
 40
1.0
 40
1.0
 40
1.0
 10
-34.38999937013482
 20
1.121563216743119
 30
0.0
 10
-34.22031623378243
 20
1.122714764298163
 30
0.0
 10
-33.89194579579637
 20
1.124943236632776
 30
0.0
 10
-33.41709041451944
 20
1.165437128111306
 30
0.0
 10
-32.9770145208451
 20
1.221219282944134
 30
0.0
 10
-32.57318980211339
 20
1.302475969056453
 30
0.0
 10
-32.20616744530236
 20
1.410916388344593
 30
0.0
 10
-31.8711328213784
 20
1.534673544781574
 30
0.0
 10
-31.57321212213898
 20
1.688797585540917
 30
0.0
 10
-31.39797406962431
 20
1.813948669913681
 30
0.0
 10
-31.31332509621732
 20
1.874403067008965
 30
0.0
  0
SPLINE
  5
78
330
1F
100
AcDbEntity
  8
0
  6
Continuous
 62
     7
370
    25
100
AcDbSpline
210
0.0
220
0.0
230
1.0
 70
     8
 71
     3
 72
    15
 73
    11
 74
     0
 42
0.000000001
 43
0.00000001
 40
0.0
 40
0.0
 40
0.0
 40
0.0
 40
0.1073782768885417
 40
0.2161454838835355
 40
0.3283125716886328
 40
0.4462874822911715
 40
0.5701951611563706
 40
0.7032785994113205
 40
0.8469919188389251
 40
1.0
 40
1.0
 40
1.0
 40
1.0
 10
-31.31332509621732
 20
1.874403067008965
 30
0.0
 10
-31.23077029041077
 20
1.947756081558442
 30
0.0
 10
-31.06459283846215
 20
2.095410926500406
 30
0.0
 10
-30.85544992897274
 20
2.361690462493092
 30
0.0
 10
-30.6736111218643
 20
2.659430856660535
 30
0.0
 10
-30.53230216853626
 20
2.995425888684392
 30
0.0
 10
-30.41646218844901
 20
3.363231731843195
 30
0.0
 10
-30.34043304441689
 20
3.768278466912283
 30
0.0
 10
-30.29181359020907
 20
4.207363097499197
 30
0.0
 10
-30.28536363152622
 20
4.512067489964275
 30
0.0
 10
-30.28203763009973
 20
4.669192100187656
 30
0.0
  0
SPLINE
  5
79
330
1F
100
AcDbEntity
  8
0
  6
Continuous
 62
     7
370
    25
100
AcDbSpline
210
0.0
220
0.0
230
1.0
 70
     8
 71
     3
 72
    23
 73
    19
 74
     0
 42
0.000000001
 43
0.00000001
 40
0.0
 40
0.0
 40
0.0
 40
0.0
 40
0.0771023558400216
 40
0.1500417855432216
 40
0.2185155210746735
 40
0.2829267660290024
 40
0.3439758609648733
 40
0.4020805444569378
 40
0.4584490976126533
 40
0.5131636318666439
 40
0.5676702100323544
 40
0.6223142764617591
 40
0.678480997832801
 40
0.7358480594740524
 40
0.7964838450187144
 40
0.8606837964265269
 40
0.9279895590574401
 40
1.0
 40
1.0
 40
1.0
 40
1.0
 10
-30.28203763009973
 20
4.669192100187656
 30
0.0
 10
-30.28479595735572
 20
4.807930502916115
 30
0.0
 10
-30.29016368369938
 20
5.077916516209723
 30
0.0
 10
-30.32817948271896
 20
5.469666278115465
 30
0.0
 10
-30.38940323015114
 20
5.835171452209504
 30
0.0
 10
-30.47384467019949
 20
6.174265930540287
 30
0.0
 10
-30.58769513847668
 20
6.485042637976043
 30
0.0
 10
-30.72652397397661
 20
6.769117595831498
 30
0.0
 10
-30.88598103302394
 20
7.029479324549929
 30
0.0
 10
-31.07906755174147
 20
7.257547492013426
 30
0.0
 10
-31.29222871185938
 20
7.46202962200022
 30
0.0
 10
-31.53210243362779
 20
7.639461052648035
 30
0.0
 10
-31.7975963225009
 20
7.786247442299046
 30
0.0
 10
-32.08714629554557
 20
7.907191238800452
 30
0.0
 10
-32.40077142343029
 20
8.005216179046167
 30
0.0
 10
-32.74155395590054
 20
8.066276774942603
 30
0.0
 10
-33.10547365667211
 20
8.110420439657858
 30
0.0
 10
-33.35627078042506
 20
8.114843598120109
 30
0.0
 10
-33.4859040248384
 20
8.11712986190749
 30
0.0
  0
SPLINE
  5
7A
330
1F
100
AcDbEntity
  8
0
  6
Continuous
 62
     7
370
    25
100
AcDbSpline
210
0.0
220
0.0
230
1.0
 70
     8
 71
     3
 72
     9
 73
     5
 74
     0
 42
0.000000001
 43
0.00000001
 40
0.0
 40
0.0
 40
0.0
 40
0.0
 40
0.5306400891717975
 40
1.0
 40
1.0
 40
1.0
 40
1.0
 10
-33.4859040248384
 20
8.11712986190749
 30
0.0
 10
-33.6466125985635
 20
8.115036128195525
 30
0.0
 10
-33.94947055634789
 20
8.111090452482943
 30
0.0
 10
-34.24928056922528
 20
8.068409903044733
 30
0.0
 10
-34.38999937013482
 20
8.048377364166317
 30
0.0
  0
LINE
  5
7B
330
1F
100
AcDbEntity
  8
0
  6
Continuous
 62
     7
370
    25
100
AcDbLine
 10
-34.3899993701
 20
8.0483773642
 30
0.0
 11
-34.3899993701
 21
8.9868489583
 31
0.0
  0
LINE
  5
7C
330
1F
100
AcDbEntity
  8
0
  6
Continuous
 62
     7
370
    25
100
AcDbLine
 10
-34.3899993701
 20
8.9868489583
 30
0.0
 11
-33.3793376533
 21
8.9868489583
 31
0.0
  0
SPLINE
  5
7D
330
1F
100
AcDbEntity
  8
0
  6
Continuous
 62
     7
370
    25
100
AcDbSpline
210
0.0
220
0.0
230
1.0
 70
     8
 71
     3
 72
    23
 73
    19
 74
     0
 42
0.000000001
 43
0.00000001
 40
0.0
 40
0.0
 40
0.0
 40
0.0
 40
0.0836971934062615
 40
0.1633548179099235
 40
0.2395856082817693
 40
0.3125670726505611
 40
0.3823792630000438
 40
0.4487829448242794
 40
0.5123619032234084
 40
0.5733095079971782
 40
0.6315802195539592
 40
0.6881901901866133
 40
0.742784579507336
 40
0.7954763107678438
 40
0.8474259936151061
 40
0.8986098424099731
 40
0.9491299088539341
 40
0.9999999999999999
 40
0.9999999999999999
 40
0.9999999999999999
 40
0.9999999999999999
 10
-33.37933765333958
 20
8.986848958333333
 30
0.0
 10
-33.19366620667368
 20
8.9847513194179
 30
0.0
 10
-32.83128457681472
 20
8.980657282221118
 30
0.0
 10
-32.30046020015075
 20
8.95219362870514
 30
0.0
 10
-31.79439221149478
 20
8.909532511685995
 30
0.0
 10
-31.31296167223608
 20
8.84294424571672
 30
0.0
 10
-30.85568054049097
 20
8.762800906947463
 30
0.0
 10
-30.42462447996336
 20
8.658523569558717
 30
0.0
 10
-30.01839216128248
 20
8.538329969451423
 30
0.0
 10
-29.63571080660719
 20
8.40303428014379
 30
0.0
 10
-29.28014500514297
 20
8.241997637253396
 30
0.0
 10
-28.94582458709389
 20
8.069406664539862
 30
0.0
 10
-28.63930461593987
 20
7.872774603339414
 30
0.0
 10
-28.35930715009334
 20
7.657037378240878
 30
0.0
 10
-28.09941926799361
 20
7.428410479042193
 30
0.0
 10
-27.86923298785466
 20
7.176210465558769
 30
0.0
 10
-27.66449875926844
 20
6.906011310523136
 30
0.0
 10
-27.54646780869243
 20
6.714441160625141
 30
0.0
 10
-27.48724859692103
 20
6.618325411149915
 30
0.0
  0
SPLINE
  5
7E
330
1F
100
AcDbEntity
  8
0
  6
Continuous
 62
     7
370
    25
100
AcDbSpline
210
0.0
220
0.0
230
1.0
 70
     8
 71
     3
 72
    19
 73
    15
 74
     0
 42
0.000000001
 43
0.00000001
 40
0.0
 40
0.0
 40
0.0
 40
0.0
 40
0.0836348394937691
 40
0.1682028689724612
 40
0.2543446751932708
 40
0.3440589036424164
 40
0.4337069284272013
 40
0.5186492950069815
 40
0.6000719417090835
 40
0.679368134653172
 40
0.75788366761895
 40
0.8364865857347182
 40
0.9166785463827288
 40
1.0
 40
1.0
 40
1.0
 40
1.0
 10
-27.48724859692103
 20
6.618325411149915
 30
0.0
 10
-27.41282206363819
 20
6.479370952155721
 30
0.0
 10
-27.26313855253656
 20
6.199911592864656
 30
0.0
 10
-27.11988295273142
 20
5.740852623370496
 30
0.0
 10
-27.02893953358821
 20
5.258624776312245
 30
0.0
 10
-27.00021533065812
 20
4.758567381301499
 30
0.0
 10
-27.02587087797101
 20
4.261520931055742
 30
0.0
 10
-27.09051195914342
 20
3.783226102482858
 30
0.0
 10
-27.21390655528386
 20
3.336714729354048
 30
0.0
 10
-27.37801567649818
 20
2.91663858044568
 30
0.0
 10
-27.5936290758973
 20
2.526275380675572
 30
0.0
 10
-27.85324931218808
 20
2.162072300293754
 30
0.0
 10
-28.16169410277226
 20
1.824891609615393
 30
0.0
 10
-28.39808067075112
 20
1.627690586191261
 30
0.0
 10
-28.51853606303863
 20
1.527202953416041
 30
0.0
  0
SPLINE
  5
7F
330
1F
100
AcDbEntity
  8
0
  6
Continuous
 62
     7
370
    25
100
AcDbSpline
210
0.0
220
0.0
230
1.0
 70
     8
 71
     3
 72
    15
 73
    11
 74
     0
 42
0.000000001
 43
0.00000001
 40
0.0
 40
0.0
 40
0.0
 40
0.0
 40
0.1087855865022621
 40
0.2203241330278135
 40
0.335466759197065
 40
0.4549250261778905
 40
0.581212743810296
 40
0.7135685921379057
 40
0.8527120819301435
 40
1.0
 40
1.0
 40
1.0
 40
1.0
 10
-28.51853606303864
 20
1.527202953416041
 30
0.0
 10
-28.65841418719011
 20
1.424103917784737
 30
0.0
 10
-28.94171023241197
 20
1.215296792026413
 30
0.0
 10
-29.41447315344463
 20
0.9612185119570017
 30
0.0
 10
-29.92072129674933
 20
0.7391658277882718
 30
0.0
 10
-30.46923138235757
 20
0.5610727939565178
 30
0.0
 10
-31.0565532390948
 20
0.4207163778061576
 30
0.0
 10
-31.68413362899702
 20
0.3222847697102418
 30
0.0
 10
-32.35036769934025
 20
0.2637338736763495
 30
0.0
 10
-32.80742417476448
 20
0.2558817937939182
 30
0.0
 10
-33.04245041440783
 20
0.251844120317278
 30
0.0
  0
LINE
  5
80
330
1F
100
AcDbEntity
  8
0
  6
Continuous
 62
     7
370
    25
100
AcDbLine
 10
-33.0424504144
 20
0.2518441203
 30
0.0
 11
-34.3899993701
 21
0.2518441203
 31
0.0
  0
LINE
  5
81
330
1F
100
AcDbEntity
  8
0
  6
Continuous
 62
     7
370
    25
100
AcDbLine
 10
-34.3899993701
 20
0.2518441203
 30
0.0
 11
-34.3899993701
 21
1.1215632167
 31
0.0
  0
LINE
  5
82
330
1F
100
AcDbEntity
  8
0
  6
Continuous
 62
     7
370
    25
100
AcDbLine
 10
24.95715668
 20
8.9868489583
 30
0.0
 11
29.6529522758
 21
8.9868489583
 31
0.0
  0
LINE
  5
83
330
1F
100
AcDbEntity
  8
0
  6
Continuous
 62
     7
370
    25
100
AcDbLine
 10
29.6529522758
 20
8.9868489583
 30
0.0
 11
29.6529522758
 21
-7.5
 31
0.0
  0
LINE
  5
84
330
1F
100
AcDbEntity
  8
0
  6
Continuous
 62
     7
370
    25
100
AcDbLine
 10
29.6529522758
 20
-7.5
 30
0.0
 11
24.95715668
 21
-7.5
 31
0.0
  0
LINE
  5
85
330
1F
100
AcDbEntity
  8
0
  6
Continuous
 62
     7
370
    25
100
AcDbLine
 10
24.95715668
 20
-7.5
 30
0.0
 11
24.95715668
 21
-6.8159126475
 31
0.0
  0
SPLINE
  5
86
330
1F
100
AcDbEntity
  8
0
  6
Continuous
 62
     7
370
    25
100
AcDbSpline
210
0.0
220
0.0
230
1.0
 70
     8
 71
     3
 72
    11
 73
     7
 74
     0
 42
0.000000001
 43
0.00000001
 40
0.0
 40
0.0
 40
0.0
 40
0.0
 40
0.2753442285522912
 40
0.533101327250183
 40
0.7746961835278825
 40
0.9999999999999999
 40
0.9999999999999999
 40
0.9999999999999999
 40
0.9999999999999999
 10
24.95715668004589
 20
-6.815912647475327
 30
0.0
 10
25.05939806045448
 20
-6.771004118081795
 30
0.0
 10
25.25735033235168
 20
-6.684055512874337
 30
0.0
 10
25.55951361349783
 20
-6.598740693035803
 30
0.0
 10
25.84106288839913
 20
-6.513184389646936
 30
0.0
 10
26.01003481550854
 20
-6.427538366573361
 30
0.0
 10
26.09157289277525
 20
-6.386209536592994
 30
0.0
  0
SPLINE
  5
87
330
1F
100
AcDbEntity
  8
0
  6
Continuous
 62
     7
370
    25
100
AcDbSpline
210
0.0
220
0.0
230
1.0
 70
     8
 71
     3
 72
    11
 73
     7
 74
     0
 42
0.000000001
 43
0.00000001
 40
0.0
 40
0.0
 40
0.0
 40
0.0
 40
0.2288373950996483
 40
0.4601531142471236
 40
0.7092547813095552
 40
1.0
 40
1.0
 40
1.0
 40
1.0
 10
26.09157289277525
 20
-6.386209536592994
 30
0.0
 10
26.16663425692089
 20
-6.334301407959442
 30
0.0
 10
26.31756990472536
 20
-6.229922982243365
 30
0.0
 10
26.47510581459467
 20
-5.98976930114309
 30
0.0
 10
26.56499059057045
 20
-5.694664277515118
 30
0.0
 10
26.5745611907181
 20
-5.480550275938616
 30
0.0
 10
26.57971562673758
 20
-5.365234945136573
 30
0.0
  0
LINE
  5
88
330
1F
100
AcDbEntity
  8
0
  6
Continuous
 62
     7
370
    25
100
AcDbLine
 10
26.5797156267
 20
-5.3652349451
 30
0.0
 11
26.5797156267
 21
6.8520839035
 31
0.0
  0
SPLINE
  5
89
330
1F
100
AcDbEntity
  8
0
  6
Continuous
 62
     7
370
    25
100
AcDbSpline
210
0.0
220
0.0
230
1.0
 70
     8
 71
     3
 72
    11
 73
     7
 74
     0
 42
0.000000001
 43
0.00000001
 40
0.0
 40
0.0
 40
0.0
 40
0.0
 40
0.2907452186904441
 40
0.5398468857528758
 40
0.7711626049003525
 40
1.0
 40
1.0
 40
1.0
 40
1.0
 10
26.57971562673758
 20
6.852083903469905
 30
0.0
 10
26.57456119071809
 20
6.967399234271946
 30
0.0
 10
26.56499059057042
 20
7.181513235848445
 30
0.0
 10
26.47510581459468
 20
7.476618259476426
 30
0.0
 10
26.31756990472537
 20
7.716771940576701
 30
0.0
 10
26.16663425692089
 20
7.821150366292778
 30
0.0
 10
26.09157289277525
 20
7.873058494926328
 30
0.0
  0
SPLINE
  5
8A
330
1F
100
AcDbEntity
  8
0
  6
Continuous
 62
     7
370
    25
100
AcDbSpline
210
0.0
220
0.0
230
1.0
 70
     8
 71
     3
 72
    11
 73
     7
 74
     0
 42
0.000000001
 43
0.00000001
 40
0.0
 40
0.0
 40
0.0
 40
0.0
 40
0.2253099038952565
 40
0.4660314364604587
 40
0.7246483319961531
 40
1.0
 40
1.0
 40
1.0
 40
1.0
 10
26.09157289277525
 20
7.873058494926326
 30
0.0
 10
26.01016323981394
 20
7.914781523991095
 30
0.0
 10
25.84177535781055
 20
8.0010815171666
 30
0.0
 10
25.55812296849865
 20
8.080124554527787
 30
0.0
 10
25.25814324410931
 20
8.172259102325684
 30
0.0
 10
25.0595600912439
 20
8.258361279939889
 30
0.0
 10
24.95715668004589
 20
8.302761605808659
 30
0.0
  0
LINE
  5
8B
330
1F
100
AcDbEntity
  8
0
  6
Continuous
 62
     7
370
    25
100
AcDbLine
 10
24.95715668
 20
8.3027616058
 30
0.0
 11
24.95715668
 21
8.9868489583
 31
0.0
  0
SPLINE
  5
8C
330
1F
100
AcDbEntity
  8
0
  6
Continuous
 62
     7
370
    25
100
AcDbSpline
210
0.0
220
0.0
230
1.0
 70
     8
 71
     3
 72
    15
 73
    11
 74
     0
 42
0.000000001
 43
0.00000001
 40
0.0
 40
0.0
 40
0.0
 40
0.0
 40
0.0923711690466973
 40
0.191918055978053
 40
0.3006526349961084
 40
0.418823079220438
 40
0.5473165492714311
 40
0.6866072746187974
 40
0.8371804214685322
 40
0.9999999999999999
 40
0.9999999999999999
 40
0.9999999999999999
 40
0.9999999999999999
 10
35.10846297153012
 20
-5.06272395507541
 30
0.0
 10
35.21236528473686
 20
-4.908172283111663
 30
0.0
 10
35.42824140894378
 20
-4.587062820737694
 30
0.0
 10
35.68099129738488
 20
-4.034659515726325
 30
0.0
 10
35.90116100238769
 20
-3.414846859202822
 30
0.0
 10
36.07652818997429
 20
-2.72022735730991
 30
0.0
 10
36.21712537826958
 20
-1.955564916233139
 30
0.0
 10
36.31438344976651
 20
-1.118428156087746
 30
0.0
 10
36.3722520894333
 20
-0.2084762112893323
 30
0.0
 10
36.3798660560344
 20
0.4224890167610187
 30
0.0
 10
36.38382180462887
 20
0.7502997289407839
 30
0.0
  0
SPLINE
  5
8D
330
1F
100
AcDbEntity
  8
0
  6
Continuous
 62
     7
370
    25
100
AcDbSpline
210
0.0
220
0.0
230
1.0
 70
     8
 71
     3
 72
    23
 73
    19
 74
     0
 42
0.000000001
 43
0.00000001
 40
0.0
 40
0.0
 40
0.0
 40
0.0
 40
0.0901013565282049
 40
0.1751536637335895
 40
0.2560991660726624
 40
0.332618298321179
 40
0.4049125812370166
 40
0.4730833850452735
 40
0.5374349307018741
 40
0.5980955313941676
 40
0.6553326450046778
 40
0.7096698104950118
 40
0.7619052285244311
 40
0.8112880230658566
 40
0.8592221259396358
 40
0.9065942666397003
 40
0.9531670846698771
 40
1.0
 40
1.0
 40
1.0
 40
1.0
 10
36.38382180462887
 20
0.7502997289407839
 30
0.0
 10
36.38229572820371
 20
0.9909813456287441
 30
0.0
 10
36.37932909276886
 20
1.458857397450709
 30
0.0
 10
36.34330517349328
 20
2.142164075606878
 30
0.0
 10
36.28918632321268
 20
2.787724015465064
 30
0.0
 10
36.2154530561538
 20
3.397211212210026
 30
0.0
 10
36.11496791892495
 20
3.96820684219671
 30
0.0
 10
35.99674214798413
 20
4.502623854567045
 30
0.0
 10
35.8519437316913
 20
4.998268840397291
 30
0.0
 10
35.68748787954629
 20
5.456732626883116
 30
0.0
 10
35.50287672420484
 20
5.878629541755156
 30
0.0
 10
35.29219689538026
 20
6.262820488701158
 30
0.0
 10
35.05946464781798
 20
6.608889157535012
 30
0.0
 10
34.80741235457165
 20
6.919756751986748
 30
0.0
 10
34.52952473438415
 20
7.189513206614621
 30
0.0
 10
34.23126504249024
 20
7.424444229166908
 30
0.0
 10
33.90826203341634
 20
7.619387834434566
 30
0.0
 10
33.67961250820625
 20
7.719656041513954
 30
0.0
 10
33.56496939724077
 20
7.769929748314567
 30
0.0
  0
SPLINE
  5
8E
330
1F
100
AcDbEntity
  8
0
  6
Continuous
 62
     7
370
    25
100
AcDbSpline
210
0.0
220
0.0
230
1.0
 70
     8
 71
     3
 72
    15
 73
    11
 74
     0
 42
0.000000001
 43
0.00000001
 40
0.0
 40
0.0
 40
0.0
 40
0.0
 40
0.1587732972993199
 40
0.3114777535322615
 40
0.4601525887782337
 40
0.6062298926136379
 40
0.7383622395962831
 40
0.8487136980556003
 40
0.9351590142971145
 40
1.0
 40
1.0
 40
1.0
 40
1.0
 10
33.56496939724077
 20
7.769929748314567
 30
0.0
 10
33.4156499473599
 20
7.822872195706314
 30
0.0
 10
33.12271853131774
 20
7.926733454876314
 30
0.0
 10
32.67648713151546
 20
8.037119598159814
 30
0.0
 10
32.23451469379264
 20
8.104573889880639
 30
0.0
 10
31.8084332441905
 20
8.12076183465195
 30
0.0
 10
31.42099853398916
 20
8.114417953976357
 30
0.0
 10
31.09295410885642
 20
8.107356843736683
 30
0.0
 10
30.83261820370053
 20
8.087092341200607
 30
0.0
 10
30.68303563731491
 20
8.067211237420288
 30
0.0
 10
30.6189248690315
 20
8.058690238827495
 30
0.0
  0
LINE
  5
8F
330
1F
100
AcDbEntity
  8
0
  6
Continuous
 62
     7
370
    25
100
AcDbLine
 10
30.618924869
 20
8.0586902388
 30
0.0
 11
30.618924869
 21
8.9868489583
 31
0.0
  0
LINE
  5
90
330
1F
100
AcDbEntity
  8
0
  6
Continuous
 62
     7
370
    25
100
AcDbLine
 10
30.618924869
 20
8.9868489583
 30
0.0
 11
31.7533410818
 21
8.9868489583
 31
0.0
  0
SPLINE
  5
91
330
1F
100
AcDbEntity
  8
0
  6
Continuous
 62
     7
370
    25
100
AcDbSpline
210
0.0
220
0.0
230
1.0
 70
     8
 71
     3
 72
    15
 73
    11
 74
     0
 42
0.000000001
 43
0.00000001
 40
0.0
 40
0.0
 40
0.0
 40
0.0
 40
0.1400115901945238
 40
0.2730361400627492
 40
0.4005558569924888
 40
0.5238660302513354
 40
0.6438399854557063
 40
0.7619884484257222
 40
0.8799883089775336
 40
1.0
 40
1.0
 40
1.0
 40
1.0
 10
31.75334108176086
 20
8.986848958333331
 30
0.0
 10
32.05509308409739
 20
8.981299987354749
 30
0.0
 10
32.64353866820729
 20
8.97047895735854
 30
0.0
 10
33.50033854148506
 20
8.855692326041774
 30
0.0
 10
34.30928419711482
 20
8.679870699869726
 30
0.0
 10
35.06908419289777
 20
8.428634401449907
 30
0.0
 10
35.77919918680096
 20
8.105052193372474
 30
0.0
 10
36.43514494034609
 20
7.704986310246247
 30
0.0
 10
37.04953954633815
 20
7.241508424229406
 30
0.0
 10
37.40911880848137
 20
6.875211890486173
 30
0.0
 10
37.59042813998646
 20
6.690515533778147
 30
0.0
  0
SPLINE
  5
92
330
1F
100
AcDbEntity
  8
0
  6
Continuous
 62
     7
370
    25
100
AcDbSpline
210
0.0
220
0.0
230
1.0
 70
     8
 71
     3
 72
    15
 73
    11
 74
     0
 42
0.000000001
 43
0.00000001
 40
0.0
 40
0.0
 40
0.0
 40
0.0
 40
0.1174476781797226
 40
0.2343680559387134
 40
0.3525203624525635
 40
0.4729179790183656
 40
0.5968676067563867
 40
0.7252754158163972
 40
0.8595753688358967
 40
0.9999999999999999
 40
0.9999999999999999
 40
0.9999999999999999
 40
0.9999999999999999
 10
37.59042813998646
 20
6.690515533778147
 30
0.0
 10
37.75634210484205
 20
6.500289112843208
 30
0.0
 10
38.08742513686914
 20
6.120690323376472
 30
0.0
 10
38.50733313662192
 20
5.488155270881204
 30
0.0
 10
38.86142462813761
 20
4.810860857864204
 30
0.0
 10
39.15692402827727
 20
4.089174839750828
 30
0.0
 10
39.37764411364212
 20
3.318323205282744
 30
0.0
 10
39.53824709630158
 20
2.503085967233081
 30
0.0
 10
39.64153534141108
 20
1.642143252195898
 30
0.0
 10
39.6513989458568
 20
1.051966679471576
 30
0.0
 10
39.65644069710872
 20
0.7502997289407839
 30
0.0
  0
SPLINE
  5
93
330
1F
100
AcDbEntity
  8
0
  6
Continuous
 62
     7
370
    25
100
AcDbSpline
210
0.0
220
0.0
230
1.0
 70
     8
 71
     3
 72
    15
 73
    11
 74
     0
 42
0.000000001
 43
0.00000001
 40
0.0
 40
0.0
 40
0.0
 40
0.0
 40
0.140665182292465
 40
0.2752151842993284
 40
0.4038785988376283
 40
0.527570792135053
 40
0.6482117969251051
 40
0.76611870961658
 40
0.882796252180403
 40
1.0
 40
1.0
 40
1.0
 40
1.0
 10
39.65644069710872
 20
0.7502997289407839
 30
0.0
 10
39.65140860201292
 20
0.4474848227123291
 30
0.0
 10
39.64156317362306
 20
-0.1449806251550234
 30
0.0
 10
39.53811923959281
 20
-1.009302521031457
 30
0.0
 10
39.37826604945379
 20
-1.8270461265104
 30
0.0
 10
39.15610038146611
 20
-2.5997055150718
 30
0.0
 10
38.86232630688465
 20
-3.323232426864252
 30
0.0
 10
38.5072263689792
 20
-4.001263861432616
 30
0.0
 10
38.08745185203402
 20
-4.633851987067884
 30
0.0
 10
37.75635102324387
 20
-5.013443700491543
 30
0.0
 10
37.59042813998646
 20
-5.203666575444815
 30
0.0
  0
SPLINE
  5
94
330
1F
100
AcDbEntity
  8
0
  6
Continuous
 62
     7
370
    25
100
AcDbSpline
210
0.0
220
0.0
230
1.0
 70
     8
 71
     3
 72
    15
 73
    11
 74
     0
 42
0.000000001
 43
0.00000001
 40
0.0
 40
0.0
 40
0.0
 40
0.0
 40
0.1200116910224666
 40
0.2380115515742779
 40
0.3561600145442936
 40
0.4761339697486647
 40
0.5994441430075113
 40
0.7269638599372509
 40
0.8599884098054763
 40
1.0
 40
1.0
 40
1.0
 40
1.0
 10
37.59042813998646
 20
-5.203666575444815
 30
0.0
 10
37.40911880848138
 20
-5.388362932152841
 30
0.0
 10
37.04953954633814
 20
-5.754659465896072
 30
0.0
 10
36.43514494034609
 20
-6.218137351912916
 30
0.0
 10
35.77919918680096
 20
-6.618203235039142
 30
0.0
 10
35.06908419289778
 20
-6.941785443116576
 30
0.0
 10
34.30928419711481
 20
-7.193021741536393
 30
0.0
 10
33.50033854148506
 20
-7.368843367708442
 30
0.0
 10
32.64353866820728
 20
-7.483629999025207
 30
0.0
 10
32.05509308409739
 20
-7.494451029021418
 30
0.0
 10
31.75334108176086
 20
-7.5
 30
0.0
  0
LINE
  5
95
330
1F
100
AcDbEntity
  8
0
  6
Continuous
 62
     7
370
    25
100
AcDbLine
 10
31.7533410818
 20
-7.5
 30
0.0
 11
30.618924869
 21
-7.5
 31
0.0
  0
LINE
  5
96
330
1F
100
AcDbEntity
  8
0
  6
Continuous
 62
     7
370
    25
100
AcDbLine
 10
30.618924869
 20
-7.5
 30
0.0
 11
30.618924869
 21
-6.5615284058
 31
0.0
  0
SPLINE
  5
97
330
1F
100
AcDbEntity
  8
0
  6
Continuous
 62
     7
370
    25
100
AcDbSpline
210
0.0
220
0.0
230
1.0
 70
     8
 71
     3
 72
    19
 73
    15
 74
     0
 42
0.000000001
 43
0.00000001
 40
0.0
 40
0.0
 40
0.0
 40
0.0
 40
0.0506674866551272
 40
0.1101857401303834
 40
0.1765450942349029
 40
0.2518570172219933
 40
0.3327992424029922
 40
0.4182148977520895
 40
0.5071943634059471
 40
0.6022410336568902
 40
0.6995827990572191
 40
0.7973112021174581
 40
0.8965831186598546
 40
1.0
 40
1.0
 40
1.0
 40
1.0
 10
30.61892486903151
 20
-6.561528405832987
 30
0.0
 10
30.70252005988219
 20
-6.570201543775423
 30
0.0
 10
30.88431313041515
 20
-6.589062872539271
 30
0.0
 10
31.17681136693524
 20
-6.604461668586625
 30
0.0
 10
31.51035567318642
 20
-6.614252767278555
 30
0.0
 10
31.87945847314415
 20
-6.619899098231799
 30
0.0
 10
32.28080416881208
 20
-6.604551662997803
 30
0.0
 10
32.69867154970567
 20
-6.530431768259193
 30
0.0
 10
33.13300946684559
 20
-6.424432196507759
 30
0.0
 10
33.57536664261536
 20
-6.272975525705331
 30
0.0
 10
34.01077253192992
 20
-6.065415510990721
 30
0.0
 10
34.42096794735328
 20
-5.797299148550589
 30
0.0
 10
34.78886881956365
 20
-5.457703207711073
 30
0.0
 10
35.00048905031817
 20
-5.196166505391262
 30
0.0
 10
35.10846297153012
 20
-5.06272395507541
 30
0.0
  0
SPLINE
  5
98
330
1F
100
AcDbEntity
  8
0
  6
Continuous
 62
     7
370
    25
100
AcDbSpline
210
0.0
220
0.0
230
1.0
 70
     8
 71
     3
 72
    11
 73
     7
 74
     0
 42
0.000000001
 43
0.00000001
 40
0.0
 40
0.0
 40
0.0
 40
0.0
 40
0.2475788507837664
 40
0.4906208066778046
 40
0.7372861088213879
 40
1.0
 40
1.0
 40
1.0
 40
1.0
 10
19.74571735126495
 20
-7.290304881889422
 30
0.0
 10
19.67670498655811
 20
-7.216256918637523
 30
0.0
 10
19.53994491219787
 20
-7.069517924783708
 30
0.0
 10
19.39988824048717
 20
-6.800748597203413
 30
0.0
 10
19.3084410368696
 20
-6.505596821464134
 30
0.0
 10
19.29982977562581
 20
-6.297560363394379
 30
0.0
 10
19.29538849106027
 20
-6.190264918030651
 30
0.0
  0
SPLINE
  5
99
330
1F
100
AcDbEntity
  8
0
  6
Continuous
 62
     7
370
    25
100
AcDbSpline
210
0.0
220
0.0
230
1.0
 70
     8
 71
     3
 72
    15
 73
    11
 74
     0
 42
0.000000001
 43
0.00000001
 40
0.0
 40
0.0
 40
0.0
 40
0.0
 40
0.1351135537013664
 40
0.2616104470067133
 40
0.3825867964317268
 40
0.5008795235083437
 40
0.6166182919152775
 40
0.7383264733027425
 40
0.8644447944666601
 40
0.9999999999999999
 40
0.9999999999999999
 40
0.9999999999999999
 40
0.9999999999999999
 10
19.29538849106027
 20
-6.190264918030651
 30
0.0
 10
19.29700881549162
 20
-6.106269050412344
 30
0.0
 10
19.30014613064003
 20
-5.943634023263923
 30
0.0
 10
19.35347202372142
 20
-5.711499105071749
 30
0.0
 10
19.42156099546749
 20
-5.494366789063257
 30
0.0
 10
19.53056922445602
 20
-5.301560903173081
 30
0.0
 10
19.66757979956779
 20
-5.127300353183299
 30
0.0
 10
19.83859532290827
 20
-4.979428563020439
 30
0.0
 10
20.03183980241745
 20
-4.839123685590931
 30
0.0
 10
20.18077189886634
 20
-4.773554261729729
 30
0.0
 10
20.25792345943669
 20
-4.739587215691897
 30
0.0
  0
SPLINE
  5
9A
330
1F
100
AcDbEntity
  8
0
  6
Continuous
 62
     7
370
    25
100
AcDbSpline
210
0.0
220
0.0
230
1.0
 70
     8
 71
     3
 72
    13
 73
     9
 74
     0
 42
0.000000001
 43
0.00000001
 40
0.0
 40
0.0
 40
0.0
 40
0.0
 40
0.1667709464225895
 40
0.3382096683572195
 40
0.5116437506773495
 40
0.6789498518166018
 40
0.8407935499140959
 40
0.9999999999999999
 40
0.9999999999999999
 40
0.9999999999999999
 40
0.9999999999999999
 10
20.25792345943669
 20
-4.739587215691897
 30
0.0
 10
20.35661564364893
 20
-4.705269258048093
 30
0.0
 10
20.55676232151987
 20
-4.635672812609704
 30
0.0
 10
20.87818974648352
 20
-4.614851494294271
 30
0.0
 10
21.19850937326139
 20
-4.640736539085769
 30
0.0
 10
21.49854279774407
 20
-4.737874070191284
 30
0.0
 10
21.77344226813491
 20
-4.875518513150906
 30
0.0
 10
21.92313172939931
 20
-5.00985697933889
 30
0.0
 10
21.99736165228838
 20
-5.076474454623646
 30
0.0
  0
SPLINE
  5
9B
330
1F
100
AcDbEntity
  8
0
  6
Continuous
 62
     7
370
    25
100
AcDbSpline
210
0.0
220
0.0
230
1.0
 70
     8
 71
     3
 72
    11
 73
     7
 74
     0
 42
0.000000001
 43
0.00000001
 40
0.0
 40
0.0
 40
0.0
 40
0.0
 40
0.2508609051898609
 40
0.4936413085196385
 40
0.7402203321351963
 40
1.0
 40
1.0
 40
1.0
 40
1.0
 10
21.99736165228838
 20
-5.076474454623646
 30
0.0
 10
22.06765274911536
 20
-5.152752791934037
 30
0.0
 10
22.20597079029715
 20
-5.302852458572431
 30
0.0
 10
22.34665859572281
 20
-5.576476361968447
 30
0.0
 10
22.43772907660427
 20
-5.87389378920991
 30
0.0
 10
22.44658482804755
 20
-6.082990839185006
 30
0.0
 10
22.45112813738012
 20
-6.190264918030651
 30
0.0
  0
SPLINE
  5
9C
330
1F
100
AcDbEntity
  8
0
  6
Continuous
 62
     7
370
    25
100
AcDbSpline
210
0.0
220
0.0
230
1.0
 70
     8
 71
     3
 72
    15
 73
    11
 74
     0
 42
0.000000001
 43
0.00000001
 40
0.0
 40
0.0
 40
0.0
 40
0.0
 40
0.136878972490002
 40
0.2646588959786814
 40
0.3843069799746724
 40
0.5016028476419944
 40
0.6188538802942352
 40
0.7395084700188193
 40
0.8651722963266181
 40
0.9999999999999999
 40
0.9999999999999999
 40
0.9999999999999999
 40
0.9999999999999999
 10
22.45112813738012
 20
-6.190264918030651
 30
0.0
 10
22.44888904231269
 20
-6.274102179248791
 30
0.0
 10
22.44455969633825
 20
-6.43620360792141
 30
0.0
 10
22.40009231077129
 20
-6.668520428841994
 30
0.0
 10
22.32217065817885
 20
-6.878476876862634
 30
0.0
 10
22.21948825621699
 20
-7.07040676674769
 30
0.0
 10
22.08294783242281
 20
-7.241253583853962
 30
0.0
 10
21.91556120915627
 20
-7.388985731687316
 30
0.0
 10
21.72067822380762
 20
-7.519162815890454
 30
0.0
 10
21.57454373402176
 20
-7.5835520493459
 30
0.0
 10
21.49890604366487
 20
-7.616879246159995
 30
0.0
  0
SPLINE
  5
9D
330
1F
100
AcDbEntity
  8
0
  6
Continuous
 62
     7
370
    25
100
AcDbSpline
210
0.0
220
0.0
230
1.0
 70
     8
 71
     3
 72
    13
 73
     9
 74
     0
 42
0.000000001
 43
0.00000001
 40
0.0
 40
0.0
 40
0.0
 40
0.0
 40
0.165694682001409
 40
0.338380071065564
 40
0.509241662483297
 40
0.6766963750116963
 40
0.8396177283998263
 40
0.9999999999999999
 40
0.9999999999999999
 40
0.9999999999999999
 40
0.9999999999999999
 10
21.49890604366487
 20
-7.616879246159995
 30
0.0
 10
21.40013595374962
 20
-7.649785646254755
 30
0.0
 10
21.19842863495716
 20
-7.716986777082132
 30
0.0
 10
20.87752891732603
 20
-7.737916795360323
 30
0.0
 10
20.55738213618997
 20
-7.713760303505115
 30
0.0
 10
20.2535127247127
 20
-7.62745136289624
 30
0.0
 10
19.97751361239141
 20
-7.486331915144164
 30
0.0
 10
19.82257717118134
 20
-7.355304215362209
 30
0.0
 10
19.74571735126495
 20
-7.290304881889422
 30
0.0
  0
SPLINE
  5
9E
330
1F
100
AcDbEntity
  8
0
  6
Continuous
 62
     7
370
    25
100
AcDbSpline
210
0.0
220
0.0
230
1.0
 70
     8
 71
     3
 72
    15
 73
    11
 74
     0
 42
0.000000001
 43
0.00000001
 40
0.0
 40
0.0
 40
0.0
 40
0.0
 40
0.1807147209581335
 40
0.344259499128294
 40
0.4924502352459446
 40
0.6253572237358884
 40
0.7421174518036174
 40
0.8437259142408304
 40
0.9293470413536798
 40
1.0
 40
1.0
 40
1.0
 40
1.0
 10
10.02411417066306
 20
-3.718612624235474
 30
0.0
 10
9.908339208708744
 20
-3.820548709723583
 30
0.0
 10
9.687789215865488
 20
-4.014735799448087
 30
0.0
 10
9.37294847367981
 20
-4.293241728615044
 30
0.0
 10
9.09363805830259
 20
-4.550325620029335
 30
0.0
 10
8.85189137822052
 20
-4.788855765846046
 30
0.0
 10
8.635921570497212
 20
-4.996928574736625
 30
0.0
 10
8.457946408060476
 20
-5.185846826976738
 30
0.0
 10
8.312089054709022
 20
-5.35082976418075
 30
0.0
 10
8.2292929776162
 20
-5.455443227078409
 30
0.0
 10
8.19186010586079
 20
-5.502739940618919
 30
0.0
  0
LINE
  5
9F
330
1F
100
AcDbEntity
  8
0
  6
Continuous
 62
     7
370
    25
100
AcDbLine
 10
8.1918601059
 20
-5.5027399406
 30
0.0
 11
6.7308695289
 21
-7.5
 31
0.0
  0
LINE
  5
A0
330
1F
100
AcDbEntity
  8
0
  6
Continuous
 62
     7
370
    25
100
AcDbLine
 10
6.7308695289
 20
-7.5
 30
0.0
 11
6.1052217994
 21
-7.5
 31
0.0
  0
LINE
  5
A1
330
1F
100
AcDbEntity
  8
0
  6
Continuous
 62
     7
370
    25
100
AcDbLine
 10
6.1052217994
 20
-7.5
 30
0.0
 11
6.3355426668
 21
-5.3067953221
 31
0.0
  0
SPLINE
  5
A2
330
1F
100
AcDbEntity
  8
0
  6
Continuous
 62
     7
370
    25
100
AcDbSpline
210
0.0
220
0.0
230
1.0
 70
     8
 71
     3
 72
    23
 73
    19
 74
     0
 42
0.000000001
 43
0.00000001
 40
0.0
 40
0.0
 40
0.0
 40
0.0
 40
0.1068176738059518
 40
0.2069839962441737
 40
0.3002499518025615
 40
0.3871632800908563
 40
0.4671406389840546
 40
0.5405142858643003
 40
0.607541914348644
 40
0.6676538710716159
 40
0.7225481998627125
 40
0.7736328037488752
 40
0.8208838617282097
 40
0.8643405258723572
 40
0.9040190663327171
 40
0.9398780172839722
 40
0.9716841940152136
 40
1.0
 40
1.0
 40
1.0
 40
1.0
 10
6.335542666849115
 20
-5.306795322056575
 30
0.0
 10
6.538063938979087
 20
-5.064764369631256
 30
0.0
 10
6.930495834716359
 20
-4.595773312600906
 30
0.0
 10
7.504634676043698
 20
-3.919564071528513
 30
0.0
 10
8.042096267662862
 20
-3.289376884250899
 30
0.0
 10
8.541283752318511
 20
-2.704907324485031
 30
0.0
 10
9.011091740060724
 20
-2.172760377351151
 30
0.0
 10
9.440751950262365
 20
-1.683582984361743
 30
0.0
 10
9.833480523579007
 20
-1.240025651818887
 30
0.0
 10
10.1991312558851
 20
-0.8456257108456988
 30
0.0
 10
10.5334658278873
 20
-0.486425448117515
 30
0.0
 10
10.83449257582605
 20
-0.1482818129725981
 30
0.0
 10
11.11435941626583
 20
0.1634296722893488
 30
0.0
 10
11.36571559079817
 20
0.4554040322937459
 30
0.0
 10
11.58811252142969
 20
0.7276955479261897
 30
0.0
 10
11.78800114536136
 20
0.9739115915863713
 30
0.0
 10
11.96139227780058
 20
1.198361448976385
 30
0.0
 10
12.06526764917972
 20
1.342458123214269
 30
0.0
 10
12.11419010199472
 20
1.410323707256047
 30
0.0
  0
SPLINE
  5
A3
330
1F
100
AcDbEntity
  8
0
  6
Continuous
 62
     7
370
    25
100
AcDbSpline
210
0.0
220
0.0
230
1.0
 70
     8
 71
     3
 72
    15
 73
    11
 74
     0
 42
0.000000001
 43
0.00000001
 40
0.0
 40
0.0
 40
0.0
 40
0.0
 40
0.1395674106371487
 40
0.2727811116078979
 40
0.4023779892724578
 40
0.5272048981666922
 40
0.6484879319996734
 40
0.7670760126015268
 40
0.8840005616620783
 40
1.0
 40
1.0
 40
1.0
 40
1.0
 10
12.11419010199472
 20
1.410323707256047
 30
0.0
 10
12.20655178254703
 20
1.547813077347712
 30
0.0
 10
12.38707044213965
 20
1.816532709220651
 30
0.0
 10
12.62228960686288
 20
2.232554186301265
 30
0.0
 10
12.82085998442733
 20
2.647673863190777
 30
0.0
 10
12.98827536654534
 20
3.061183006056365
 30
0.0
 10
13.11653829158585
 20
3.475106954785705
 30
0.0
 10
13.20487332505841
 20
3.889419062674189
 30
0.0
 10
13.26361101552148
 20
4.303118255995833
 30
0.0
 10
13.26965813697001
 20
4.579618045054331
 30
0.0
 10
13.27266968893349
 20
4.717318848606476
 30
0.0
  0
SPLINE
  5
A4
330
1F
100
AcDbEntity
  8
0
  6
Continuous
 62
     7
370
    25
100
AcDbSpline
210
0.0
220
0.0
230
1.0
 70
     8
 71
     3
 72
    23
 73
    19
 74
     0
 42
0.000000001
 43
0.00000001
 40
0.0
 40
0.0
 40
0.0
 40
0.0
 40
0.0847732589390881
 40
0.1650905934063068
 40
0.2418433589579167
 40
0.3136689684809286
 40
0.3824543792262299
 40
0.4470372856760546
 40
0.5089974087428256
 40
0.5679322820956414
 40
0.6242290816706686
 40
0.6787851762817924
 40
0.7327943836429458
 40
0.7852023413287164
 40
0.8376046342079324
 40
0.8903682486201326
 40
0.944195763856911
 40
1.0
 40
1.0
 40
1.0
 40
1.0
 10
13.27266968893349
 20
4.717318848606477
 30
0.0
 10
13.27176448404451
 20
4.843413384112069
 30
0.0
 10
13.27000165441936
 20
5.088974566405042
 30
0.0
 10
13.24430958024541
 20
5.44789549007955
 30
0.0
 10
13.20773264252244
 20
5.786401870364821
 30
0.0
 10
13.15639780651549
 20
6.105699331344709
 30
0.0
 10
13.089330143466
 20
6.403717665468717
 30
0.0
 10
13.00150218265389
 20
6.680850245773247
 30
0.0
 10
12.90311715258903
 20
6.938766912612272
 30
0.0
 10
12.78935297783001
 20
7.176727116911235
 30
0.0
 10
12.66269863215116
 20
7.39566572373089
 30
0.0
 10
12.51627666566113
 20
7.592789165887774
 30
0.0
 10
12.35665452811218
 20
7.771935255729372
 30
0.0
 10
12.17784323811311
 20
7.926739392534143
 30
0.0
 10
11.98979421255744
 20
8.067569499177962
 30
0.0
 10
11.78039889904689
 20
8.178499965601578
 30
0.0
 10
11.5599351486565
 20
8.278198592688382
 30
0.0
 10
11.40327750939481
 20
8.324090862814357
 30
0.0
 10
11.32353637797123
 20
8.347450729340421
 30
0.0
  0
LINE
  5
A5
330
1F
100
AcDbEntity
  8
0
  6
Continuous
 62
     7
370
    25
100
AcDbLine
 10
11.323536378
 20
8.3474507293
 30
0.0
 11
11.323536378
 21
9.3477995715
 31
0.0
  0
SPLINE
  5
A6
330
1F
100
AcDbEntity
  8
0
  6
Continuous
 62
     7
370
    25
100
AcDbSpline
210
0.0
220
0.0
230
1.0
 70
     8
 71
     3
 72
    15
 73
    11
 74
     0
 42
0.000000001
 43
0.00000001
 40
0.0
 40
0.0
 40
0.0
 40
0.0
 40
0.1400871585629996
 40
0.2735708996479033
 40
0.4020625772963143
 40
0.5256526816062234
 40
0.6461073898349141
 40
0.7647847719360935
 40
0.8821313157146035
 40
1.0
 40
1.0
 40
1.0
 40
1.0
 10
11.32353637797123
 20
9.34779957147449
 30
0.0
 10
11.50946538395139
 20
9.338455882546315
 30
0.0
 10
11.87255908903042
 20
9.320208946764822
 30
0.0
 10
12.40119347519966
 20
9.238560198051477
 30
0.0
 10
12.9003774780197
 20
9.122698547805504
 30
0.0
 10
13.37200174812329
 20
8.969886276186513
 30
0.0
 10
13.81027856654155
 20
8.767480471187248
 30
0.0
 10
14.22052479493795
 20
8.530234812023282
 30
0.0
 10
14.60383671909486
 20
8.255690428145979
 30
0.0
 10
14.83001513565483
 20
8.039722026587583
 30
0.0
 10
14.943355384044
 20
7.931498118006326
 30
0.0
  0
SPLINE
  5
A7
330
1F
100
AcDbEntity
  8
0
  6
Continuous
 62
     7
370
    25
100
AcDbSpline
210
0.0
220
0.0
230
1.0
 70
     8
 71
     3
 72
    15
 73
    11
 74
     0
 42
0.000000001
 43
0.00000001
 40
0.0
 40
0.0
 40
0.0
 40
0.0
 40
0.126903939334217
 40
0.2507859227986493
 40
0.3728020318584345
 40
0.4941616830921335
 40
0.6170517813126596
 40
0.7407683129724255
 40
0.8683001746426249
 40
0.9999999999999999
 40
0.9999999999999999
 40
0.9999999999999999
 40
0.9999999999999999
 10
14.943355384044
 20
7.931498118006324
 30
0.0
 10
15.04066313153851
 20
7.825629841230817
 30
0.0
 10
15.2329614429928
 20
7.616414322583083
 30
0.0
 10
15.48050185242573
 20
7.273293272111786
 30
0.0
 10
15.6916809678767
 20
6.914447271371386
 30
0.0
 10
15.86531096241865
 20
6.536917807307217
 30
0.0
 10
15.99811812122737
 20
6.141324758324297
 30
0.0
 10
16.09656416957378
 20
5.728601931395056
 30
0.0
 10
16.15033407964844
 20
5.297407063038383
 30
0.0
 10
16.15920529496498
 20
5.003924468610403
 30
0.0
 10
16.16371221894982
 20
4.854823844088823
 30
0.0
  0
SPLINE
  5
A8
330
1F
100
AcDbEntity
  8
0
  6
Continuous
 62
     7
370
    25
100
AcDbSpline
210
0.0
220
0.0
230
1.0
 70
     8
 71
     3
 72
    23
 73
    19
 74
     0
 42
0.000000001
 43
0.00000001
 40
0.0
 40
0.0
 40
0.0
 40
0.0
 40
0.0438111242737741
 40
0.0891694763065889
 40
0.1359494827740778
 40
0.1846384388060687
 40
0.2360027009076585
 40
0.289505361898342
 40
0.3460610844446482
 40
0.4055372339274265
 40
0.4677054301551736
 40
0.5334370099888
 40
0.6023855460996557
 40
0.6748342237244874
 40
0.7506563127186011
 40
0.8301668356937705
 40
0.9131669549651811
 40
1.0
 40
1.0
 40
1.0
 40
1.0
 10
16.16371221894982
 20
4.854823844088823
 30
0.0
 10
16.16090176932601
 20
4.721664905535418
 30
0.0
 10
16.15518161661831
 20
4.450644405304701
 30
0.0
 10
16.0911549513298
 20
4.041940277015702
 30
0.0
 10
16.00124325543375
 20
3.623414400871228
 30
0.0
 10
15.86141816550705
 20
3.199477826191508
 30
0.0
 10
15.69727443168986
 20
2.762609678326909
 30
0.0
 10
15.48107394156945
 20
2.322158267696194
 30
0.0
 10
15.24031694246524
 20
1.866863392732226
 30
0.0
 10
14.95187312677727
 20
1.408558409579476
 30
0.0
 10
14.63206633806498
 20
0.9377178173985192
 30
0.0
 10
14.26886896679745
 20
0.4626830670123628
 30
0.0
 10
13.8751727113398
 20
-0.0280835220788893
 30
0.0
 10
13.43558880848643
 20
-0.5201470820007095
 30
0.0
 10
12.96625159673555
 20
-1.02843616183322
 30
0.0
 10
12.45139338271068
 20
-1.537306918944951
 30
0.0
 10
11.90647252831844
 20
-2.063209832642998
 30
0.0
 10
11.52075018778857
 20
-2.405666195569757
 30
0.0
 10
11.32353637797123
 20
-2.580758786619058
 30
0.0
  0
SPLINE
  5
A9
330
1F
100
AcDbEntity
  8
0
  6
Continuous
 62
     7
370
    25
100
AcDbSpline
210
0.0
220
0.0
230
1.0
 70
     8
 71
     3
 72
     9
 73
     5
 74
     0
 42
0.000000001
 43
0.00000001
 40
0.0
 40
0.0
 40
0.0
 40
0.0
 40
0.5148843543213424
 40
1.0
 40
1.0
 40
1.0
 40
1.0
 10
11.32353637797123
 20
-2.580758786619058
 30
0.0
 10
11.09986350654427
 20
-2.775298043013197
 30
0.0
 10
10.66544970167778
 20
-3.153129015660554
 30
0.0
 10
10.2336075533031
 20
-3.533896405877166
 30
0.0
 10
10.02411417066306
 20
-3.718612624235475
 30
0.0
  0
LINE
  5
AA
330
1F
100
AcDbEntity
  8
0
  6
Continuous
 62
     7
370
    25
100
AcDbLine
 10
-39.8764486899
 20
8.9868489583
 30
0.0
 11
-35.3525343385
 21
8.9868489583
 31
0.0
  0
LINE
  5
AB
330
1F
100
AcDbEntity
  8
0
  6
Continuous
 62
     7
370
    25
100
AcDbLine
 10
-35.3525343385
 20
8.9868489583
 30
0.0
 11
-35.3525343385
 21
-4.7395872157
 31
0.0
  0
SPLINE
  5
AC
330
1F
100
AcDbEntity
  8
0
  6
Continuous
 62
     7
370
    25
100
AcDbSpline
210
0.0
220
0.0
230
1.0
 70
     8
 71
     3
 72
    19
 73
    15
 74
     0
 42
0.000000001
 43
0.00000001
 40
0.0
 40
0.0
 40
0.0
 40
0.0
 40
0.1080180100957468
 40
0.1969430952530369
 40
0.2677860304108698
 40
0.3198985457303296
 40
0.3982544910953884
 40
0.4690110675029251
 40
0.5436367837174457
 40
0.6241036399875661
 40
0.7115088226086426
 40
0.8055630471779147
 40
0.902519477274293
 40
1.0
 40
1.0
 40
1.0
 40
1.0
 10
-35.35253433851125
 20
-4.739587215691897
 30
0.0
 10
-35.35257753977546
 20
-4.862229678197819
 30
0.0
 10
-35.35265630618382
 20
-5.085836705895896
 30
0.0
 10
-35.33663961031832
 20
-5.389419135257607
 30
0.0
 10
-35.32305969871542
 20
-5.629647047917508
 30
0.0
 10
-35.29190319874275
 20
-5.856285975328572
 30
0.0
 10
-35.20944872010779
 20
-6.074474117573454
 30
0.0
 10
-35.03425680843373
 20
-6.266383663644595
 30
0.0
 10
-34.80567408966132
 20
-6.388468145173948
 30
0.0
 10
-34.54540864531053
 20
-6.479191308106548
 30
0.0
 10
-34.25554729617885
 20
-6.546995166087756
 30
0.0
 10
-33.94678815239063
 20
-6.612893234139344
 30
0.0
 10
-33.62671063661601
 20
-6.686698018984956
 30
0.0
 10
-33.42301857877349
 20
-6.772763776358883
 30
0.0
 10
-33.32089803025958
 20
-6.815912647475327
 30
0.0
  0
LINE
  5
AD
330
1F
100
AcDbEntity
  8
0
  6
Continuous
 62
     7
370
    25
100
AcDbLine
 10
-33.3208980303
 20
-6.8159126475
 30
0.0
 11
-33.3208980303
 21
-7.5
 31
0.0
  0
LINE
  5
AE
330
1F
100
AcDbEntity
  8
0
  6
Continuous
 62
     7
370
    25
100
AcDbLine
 10
-33.3208980303
 20
-7.5
 30
0.0
 11
-39.8764486899
 21
-7.5
 31
0.0
  0
LINE
  5
AF
330
1F
100
AcDbEntity
  8
0
  6
Continuous
 62
     7
370
    25
100
AcDbLine
 10
-39.8764486899
 20
-7.5
 30
0.0
 11
-39.8764486899
 21
-6.8159126475
 31
0.0
  0
SPLINE
  5
B0
330
1F
100
AcDbEntity
  8
0
  6
Continuous
 62
     7
370
    25
100
AcDbSpline
210
0.0
220
0.0
230
1.0
 70
     8
 71
     3
 72
    11
 73
     7
 74
     0
 42
0.000000001
 43
0.00000001
 40
0.0
 40
0.0
 40
0.0
 40
0.0
 40
0.2436141593811252
 40
0.4911858116483059
 40
0.7491302961805643
 40
1.0
 40
1.0
 40
1.0
 40
1.0
 10
-39.87644868988045
 20
-6.815912647475328
 30
0.0
 10
-39.80824257379395
 20
-6.772109041532272
 30
0.0
 10
-39.6707223386219
 20
-6.683790243507883
 30
0.0
 10
-39.42950740116319
 20
-6.617874630987894
 30
0.0
 10
-39.18687761947637
 20
-6.558686326550879
 30
0.0
 10
-39.02707854741561
 20
-6.505331759267115
 30
0.0
 10
-38.9482899703746
 20
-6.479025408543578
 30
0.0
  0
SPLINE
  5
B1
330
1F
100
AcDbEntity
  8
0
  6
Continuous
 62
     7
370
    25
100
AcDbSpline
210
0.0
220
0.0
230
1.0
 70
     8
 71
     3
 72
    13
 73
     9
 74
     0
 42
0.000000001
 43
0.00000001
 40
0.0
 40
0.0
 40
0.0
 40
0.0
 40
0.130200971072936
 40
0.2451421634845886
 40
0.3529368765865343
 40
0.4638223351321482
 40
0.7158583069620142
 40
1.0
 40
1.0
 40
1.0
 40
1.0
 10
-38.9482899703746
 20
-6.479025408543578
 30
0.0
 10
-38.8638799144443
 20
-6.447533517054457
 30
0.0
 10
-38.70495280691132
 20
-6.388240638143899
 30
0.0
 10
-38.50534101661101
 20
-6.241167801809984
 30
0.0
 10
-38.37521959708235
 20
-6.045273547592664
 30
0.0
 10
-38.29378722057015
 20
-5.727764306508652
 30
0.0
 10
-38.26657877149881
 20
-5.281093911726515
 30
0.0
 10
-38.25828496067605
 20
-4.911425639656555
 30
0.0
 10
-38.25388974318876
 20
-4.715523841482486
 30
0.0
  0
LINE
  5
B2
330
1F
100
AcDbEntity
  8
0
  6
Continuous
 62
     7
370
    25
100
AcDbLine
 10
-38.2538897432
 20
-4.7155238415
 30
0.0
 11
-38.2538897432
 21
6.2126856745
 31
0.0
  0
SPLINE
  5
B3
330
1F
100
AcDbEntity
  8
0
  6
Continuous
 62
     7
370
    25
100
AcDbSpline
210
0.0
220
0.0
230
1.0
 70
     8
 71
     3
 72
    15
 73
    11
 74
     0
 42
0.000000001
 43
0.00000001
 40
0.0
 40
0.0
 40
0.0
 40
0.0
 40
0.1919380613904789
 40
0.3646712788681435
 40
0.516377158128939
 40
0.6475501870701666
 40
0.7605336442027539
 40
0.8567083965289158
 40
0.9358834984492266
 40
0.9999999999999999
 40
0.9999999999999999
 40
0.9999999999999999
 40
0.9999999999999999
 10
-38.25388974318876
 20
6.212685674476994
 30
0.0
 10
-38.25420431515301
 20
6.314687995083634
 30
0.0
 10
-38.25480198379501
 20
6.508486538393226
 30
0.0
 10
-38.26839584430927
 20
6.782608433261139
 30
0.0
 10
-38.290934977786
 20
7.023845439669453
 30
0.0
 10
-38.32604213313428
 20
7.231309569350285
 30
0.0
 10
-38.36521760429368
 20
7.408188902587493
 30
0.0
 10
-38.41549331310483
 20
7.552986327383062
 30
0.0
 10
-38.474843602158
 20
7.667392999483195
 30
0.0
 10
-38.52881386192814
 20
7.721607735586119
 30
0.0
 10
-38.55296310836286
 20
7.745866374105155
 30
0.0
  0
SPLINE
  5
B4
330
1F
100
AcDbEntity
  8
0
  6
Continuous
 62
     7
370
    25
100
AcDbSpline
210
0.0
220
0.0
230
1.0
 70
     8
 71
     3
 72
    15
 73
    11
 74
     0
 42
0.000000001
 43
0.00000001
 40
0.0
 40
0.0
 40
0.0
 40
0.0
 40
0.1128910241286381
 40
0.2363736003555229
 40
0.3711931935609299
 40
0.5202777485136516
 40
0.6664075616549877
 40
0.794350722334113
 40
0.9040610775097639
 40
1.0
 40
1.0
 40
1.0
 40
1.0
 10
-38.55296310836287
 20
7.745866374105156
 30
0.0
 10
-38.59691200478677
 20
7.777954257909701
 30
0.0
 10
-38.68893312833978
 20
7.845140543809869
 30
0.0
 10
-38.8487285751772
 20
7.926910978332073
 30
0.0
 10
-39.03316721472255
 20
7.994375459573185
 30
0.0
 10
-39.23220080607709
 20
8.051650168588752
 30
0.0
 10
-39.42830176252384
 20
8.106723560570968
 30
0.0
 10
-39.60469200264942
 20
8.162406463876648
 30
0.0
 10
-39.75161924360051
 20
8.228447745674886
 30
0.0
 10
-39.83673890493213
 20
8.27912145124149
 30
0.0
 10
-39.87644868988045
 20
8.302761605808659
 30
0.0
  0
LINE
  5
B5
330
1F
100
AcDbEntity
  8
0
  6
Continuous
 62
     7
370
    25
100
AcDbLine
 10
-39.8764486899
 20
8.3027616058
 30
0.0
 11
-39.8764486899
 21
8.9868489583
 31
0.0
  0
SPLINE
  5
B6
330
1F
100
AcDbEntity
  8
0
  6
Continuous
 62
     7
370
    25
100
AcDbSpline
210
0.0
220
0.0
230
1.0
 70
     8
 71
     3
 72
    11
 73
     7
 74
     0
 42
0.000000001
 43
0.00000001
 40
0.0
 40
0.0
 40
0.0
 40
0.0
 40
0.2475788507837664
 40
0.4906208066778046
 40
0.7372861088213879
 40
1.0
 40
1.0
 40
1.0
 40
1.0
 10
-24.6958971886294
 20
-7.290304881889422
 30
0.0
 10
-24.76490955333623
 20
-7.216256918637523
 30
0.0
 10
-24.90166962769648
 20
-7.069517924783708
 30
0.0
 10
-25.04172629940719
 20
-6.800748597203413
 30
0.0
 10
-25.13317350302476
 20
-6.505596821464134
 30
0.0
 10
-25.14178476426854
 20
-6.297560363394379
 30
0.0
 10
-25.14622604883408
 20
-6.190264918030651
 30
0.0
  0
SPLINE
  5
B7
330
1F
100
AcDbEntity
  8
0
  6
Continuous
 62
     7
370
    25
100
AcDbSpline
210
0.0
220
0.0
230
1.0
 70
     8
 71
     3
 72
    15
 73
    11
 74
     0
 42
0.000000001
 43
0.00000001
 40
0.0
 40
0.0
 40
0.0
 40
0.0
 40
0.1351135537013664
 40
0.2616104470067133
 40
0.3825867964317268
 40
0.5008795235083437
 40
0.6166182919152775
 40
0.7383264733027425
 40
0.8644447944666601
 40
0.9999999999999999
 40
0.9999999999999999
 40
0.9999999999999999
 40
0.9999999999999999
 10
-25.14622604883408
 20
-6.190264918030651
 30
0.0
 10
-25.14460572440273
 20
-6.106269050412344
 30
0.0
 10
-25.14146840925432
 20
-5.943634023263923
 30
0.0
 10
-25.08814251617295
 20
-5.711499105071749
 30
0.0
 10
-25.02005354442685
 20
-5.494366789063257
 30
0.0
 10
-24.91104531543834
 20
-5.301560903173081
 30
0.0
 10
-24.77403474032657
 20
-5.127300353183299
 30
0.0
 10
-24.60301921698607
 20
-4.979428563020439
 30
0.0
 10
-24.4097747374769
 20
-4.839123685590931
 30
0.0
 10
-24.260842641028
 20
-4.773554261729729
 30
0.0
 10
-24.18369108045766
 20
-4.739587215691897
 30
0.0
  0
SPLINE
  5
B8
330
1F
100
AcDbEntity
  8
0
  6
Continuous
 62
     7
370
    25
100
AcDbSpline
210
0.0
220
0.0
230
1.0
 70
     8
 71
     3
 72
    13
 73
     9
 74
     0
 42
0.000000001
 43
0.00000001
 40
0.0
 40
0.0
 40
0.0
 40
0.0
 40
0.1667709464225895
 40
0.3382096683572195
 40
0.5116437506773495
 40
0.6789498518166018
 40
0.8407935499140959
 40
0.9999999999999999
 40
0.9999999999999999
 40
0.9999999999999999
 40
0.9999999999999999
 10
-24.18369108045766
 20
-4.739587215691897
 30
0.0
 10
-24.08499889624541
 20
-4.705269258048093
 30
0.0
 10
-23.88485221837448
 20
-4.635672812609704
 30
0.0
 10
-23.56342479341082
 20
-4.614851494294271
 30
0.0
 10
-23.24310516663295
 20
-4.640736539085769
 30
0.0
 10
-22.94307174215028
 20
-4.737874070191284
 30
0.0
 10
-22.66817227175944
 20
-4.875518513150906
 30
0.0
 10
-22.51848281049504
 20
-5.00985697933889
 30
0.0
 10
-22.44425288760598
 20
-5.076474454623646
 30
0.0
  0
SPLINE
  5
B9
330
1F
100
AcDbEntity
  8
0
  6
Continuous
 62
     7
370
    25
100
AcDbSpline
210
0.0
220
0.0
230
1.0
 70
     8
 71
     3
 72
    11
 73
     7
 74
     0
 42
0.000000001
 43
0.00000001
 40
0.0
 40
0.0
 40
0.0
 40
0.0
 40
0.2508609051898609
 40
0.4936413085196385
 40
0.7402203321351963
 40
1.0
 40
1.0
 40
1.0
 40
1.0
 10
-22.44425288760598
 20
-5.076474454623646
 30
0.0
 10
-22.37396179077899
 20
-5.152752791934037
 30
0.0
 10
-22.23564374959719
 20
-5.302852458572431
 30
0.0
 10
-22.09495594417154
 20
-5.576476361968447
 30
0.0
 10
-22.0038854632901
 20
-5.87389378920991
 30
0.0
 10
-21.9950297118468
 20
-6.082990839185006
 30
0.0
 10
-21.99048640251423
 20
-6.190264918030651
 30
0.0
  0
SPLINE
  5
BA
330
1F
100
AcDbEntity
  8
0
  6
Continuous
 62
     7
370
    25
100
AcDbSpline
210
0.0
220
0.0
230
1.0
 70
     8
 71
     3
 72
    15
 73
    11
 74
     0
 42
0.000000001
 43
0.00000001
 40
0.0
 40
0.0
 40
0.0
 40
0.0
 40
0.1368789724900021
 40
0.2646588959786815
 40
0.3843069799746726
 40
0.5016028476419946
 40
0.6188538802942366
 40
0.7395084700188194
 40
0.8651722963266198
 40
1.0
 40
1.0
 40
1.0
 40
1.0
 10
-21.99048640251424
 20
-6.190264918030651
 30
0.0
 10
-21.99272549758166
 20
-6.274102179248792
 30
0.0
 10
-21.99705484355611
 20
-6.436203607921412
 30
0.0
 10
-22.04152222912307
 20
-6.668520428841992
 30
0.0
 10
-22.1194438817155
 20
-6.878476876862638
 30
0.0
 10
-22.22212628367736
 20
-7.070406766747689
 30
0.0
 10
-22.35866670747155
 20
-7.24125358385396
 30
0.0
 10
-22.52605333073808
 20
-7.388985731687316
 30
0.0
 10
-22.72093631608674
 20
-7.519162815890454
 30
0.0
 10
-22.8670708058726
 20
-7.5835520493459
 30
0.0
 10
-22.94270849622948
 20
-7.616879246159995
 30
0.0
  0
SPLINE
  5
BB
330
1F
100
AcDbEntity
  8
0
  6
Continuous
 62
     7
370
    25
100
AcDbSpline
210
0.0
220
0.0
230
1.0
 70
     8
 71
     3
 72
    13
 73
     9
 74
     0
 42
0.000000001
 43
0.00000001
 40
0.0
 40
0.0
 40
0.0
 40
0.0
 40
0.165694682001409
 40
0.3383800710655639
 40
0.5092416624832969
 40
0.6766963750116962
 40
0.8396177283998277
 40
0.9999999999999999
 40
0.9999999999999999
 40
0.9999999999999999
 40
0.9999999999999999
 10
-22.94270849622948
 20
-7.616879246159995
 30
0.0
 10
-23.04147858614473
 20
-7.649785646254755
 30
0.0
 10
-23.2431859049372
 20
-7.716986777082132
 30
0.0
 10
-23.56408562256834
 20
-7.737916795360322
 30
0.0
 10
-23.88423240370438
 20
-7.713760303505117
 30
0.0
 10
-24.18810181518165
 20
-7.62745136289624
 30
0.0
 10
-24.46410092750295
 20
-7.486331915144167
 30
0.0
 10
-24.61903736871301
 20
-7.35530421536221
 30
0.0
 10
-24.6958971886294
 20
-7.290304881889423
 30
0.0
  0
LINE
  5
BC
330
1F
100
AcDbEntity
  8
0
  6
Continuous
 62
     7
370
    25
100
AcDbLine
 10
-6.1327227985
 20
7.3264761379
 30
0.0
 11
-9.3572149426
 21
-3.5914205034
 31
0.0
  0
LINE
  5
BD
330
1F
100
AcDbEntity
  8
0
  6
Continuous
 62
     7
370
    25
100
AcDbLine
 10
-9.3572149426
 20
-3.5914205034
 30
0.0
 11
-9.9725497974
 21
-1.5597841952
 31
0.0
  0
LINE
  5
BE
330
1F
100
AcDbEntity
  8
0
  6
Continuous
 62
     7
370
    25
100
AcDbLine
 10
-9.9725497974
 20
-1.5597841952
 30
0.0
 11
-6.8511863999
 21
8.9868489583
 31
0.0
  0
LINE
  5
BF
330
1F
100
AcDbEntity
  8
0
  6
Continuous
 62
     7
370
    25
100
AcDbLine
 10
-6.8511863999
 20
8.9868489583
 30
0.0
 11
-1.643184696
 21
8.9868489583
 31
0.0
  0
LINE
  5
C0
330
1F
100
AcDbEntity
  8
0
  6
Continuous
 62
     7
370
    25
100
AcDbLine
 10
-1.643184696
 20
8.9868489583
 30
0.0
 11
-1.643184696
 21
8.3027616058
 31
0.0
  0
SPLINE
  5
C1
330
1F
100
AcDbEntity
  8
0
  6
Continuous
 62
     7
370
    25
100
AcDbSpline
210
0.0
220
0.0
230
1.0
 70
     8
 71
     3
 72
    11
 73
     7
 74
     0
 42
0.000000001
 43
0.00000001
 40
0.0
 40
0.0
 40
0.0
 40
0.0
 40
0.2700669275242281
 40
0.5302067210455963
 40
0.7759415287240014
 40
1.0
 40
1.0
 40
1.0
 40
1.0
 10
-1.643184696014037
 20
8.302761605808659
 30
0.0
 10
-1.735138976432545
 20
8.259324093070328
 30
0.0
 10
-1.915667477103663
 20
8.174045745919507
 30
0.0
 10
-2.194445372339368
 20
8.086235273610487
 30
0.0
 10
-2.459198974751004
 20
8.012286059772729
 30
0.0
 10
-2.621249020752502
 20
7.941293310214042
 30
0.0
 10
-2.698535536341043
 20
7.907434743796912
 30
0.0
  0
SPLINE
  5
C2
330
1F
100
AcDbEntity
  8
0
  6
Continuous
 62
     7
370
    25
100
AcDbSpline
210
0.0
220
0.0
230
1.0
 70
     8
 71
     3
 72
    11
 73
     7
 74
     0
 42
0.000000001
 43
0.00000001
 40
0.0
 40
0.0
 40
0.0
 40
0.0
 40
0.2486490687230565
 40
0.4815721572808008
 40
0.7269518069659956
 40
1.0
 40
1.0
 40
1.0
 40
1.0
 10
-2.698535536341043
 20
7.907434743796912
 30
0.0
 10
-2.773089771402357
 20
7.861174507588924
 30
0.0
 10
-2.917483008012003
 20
7.771579795405167
 30
0.0
 10
-3.075826320918292
 20
7.56569705554535
 30
0.0
 10
-3.171990362475923
 20
7.31612323951685
 30
0.0
 10
-3.181611146966002
 20
7.133762383505046
 30
0.0
 10
-3.186678270303375
 20
7.037715647371072
 30
0.0
  0
LINE
  5
C3
330
1F
100
AcDbEntity
  8
0
  6
Continuous
 62
     7
370
    25
100
AcDbLine
 10
-3.1866782703
 20
7.0377156474
 30
0.0
 11
-3.1866782703
 21
-5.3652349451
 31
0.0
  0
SPLINE
  5
C4
330
1F
100
AcDbEntity
  8
0
  6
Continuous
 62
     7
370
    25
100
AcDbSpline
210
0.0
220
0.0
230
1.0
 70
     8
 71
     3
 72
    11
 73
     7
 74
     0
 42
0.000000001
 43
0.00000001
 40
0.0
 40
0.0
 40
0.0
 40
0.0
 40
0.2827886496622459
 40
0.5341430303764002
 40
0.7636002613796649
 40
0.9999999999999999
 40
0.9999999999999999
 40
0.9999999999999999
 40
0.9999999999999999
 10
-3.186678270303376
 20
-5.365234945136574
 30
0.0
 10
-3.181977087757155
 20
-5.476164701732381
 30
0.0
 10
-3.173097297515961
 20
-5.68569346612151
 30
0.0
 10
-3.074538202238759
 20
-5.97106653010864
 30
0.0
 10
-2.91523603251524
 20
-6.208780677027222
 30
0.0
 10
-2.762361447974139
 20
-6.310518943695584
 30
0.0
 10
-2.68478503679281
 20
-6.362146162383583
 30
0.0
  0
SPLINE
  5
C5
330
1F
100
AcDbEntity
  8
0
  6
Continuous
 62
     7
370
    25
100
AcDbSpline
210
0.0
220
0.0
230
1.0
 70
     8
 71
     3
 72
    11
 73
     7
 74
     0
 42
0.000000001
 43
0.00000001
 40
0.0
 40
0.0
 40
0.0
 40
0.0
 40
0.2179140359102448
 40
0.4573084078369778
 40
0.7180140834723685
 40
0.9999999999999999
 40
0.9999999999999999
 40
0.9999999999999999
 40
0.9999999999999999
 10
-2.68478503679281
 20
-6.362146162383583
 30
0.0
 10
-2.606481933711624
 20
-6.402819981412863
 30
0.0
 10
-2.442157193227715
 20
-6.488176940377134
 30
0.0
 10
-2.168340486744623
 20
-6.58663809543554
 30
0.0
 10
-1.867011442681722
 20
-6.683228481048303
 30
0.0
 10
-1.665426490111704
 20
-6.770543317180344
 30
0.0
 10
-1.560681698724628
 20
-6.815912647475327
 30
0.0
  0
LINE
  5
C6
330
1F
100
AcDbEntity
  8
0
  6
Continuous
 62
     7
370
    25
100
AcDbLine
 10
-1.5606816987
 20
-6.8159126475
 30
0.0
 11
-1.5606816987
 21
-7.5
 31
0.0
  0
LINE
  5
C7
330
1F
100
AcDbEntity
  8
0
  6
Continuous
 62
     7
370
    25
100
AcDbLine
 10
-1.5606816987
 20
-7.5
 30
0.0
 11
-7.6280896244
 21
-7.5
 31
0.0
  0
LINE
  5
C8
330
1F
100
AcDbEntity
  8
0
  6
Continuous
 62
     7
370
    25
100
AcDbLine
 10
-7.6280896244
 20
-7.5
 30
0.0
 11
-7.6280896244
 21
-6.8159126475
 31
0.0
  0
SPLINE
  5
C9
330
1F
100
AcDbEntity
  8
0
  6
Continuous
 62
     7
370
    25
100
AcDbSpline
210
0.0
220
0.0
230
1.0
 70
     8
 71
     3
 72
    11
 73
     7
 74
     0
 42
0.000000001
 43
0.00000001
 40
0.0
 40
0.0
 40
0.0
 40
0.0
 40
0.2697270178375241
 40
0.5244823596081193
 40
0.770803647510527
 40
1.0
 40
1.0
 40
1.0
 40
1.0
 10
-7.628089624383162
 20
-6.815912647475327
 30
0.0
 10
-7.536072552773617
 20
-6.770467706691637
 30
0.0
 10
-7.357145980163544
 20
-6.68210032708846
 30
0.0
 10
-7.080870823397779
 20
-6.583933561118045
 30
0.0
 10
-6.820373384450093
 20
-6.486952129560097
 30
0.0
 10
-6.660236551388556
 20
-6.402737200357473
 30
0.0
 10
-6.583051658717331
 20
-6.362146162383584
 30
0.0
  0
SPLINE
  5
CA
330
1F
100
AcDbEntity
  8
0
  6
Continuous
 62
     7
370
    25
100
AcDbSpline
210
0.0
220
0.0
230
1.0
 70
     8
 71
     3
 72
    11
 73
     7
 74
     0
 42
0.000000001
 43
0.00000001
 40
0.0
 40
0.0
 40
0.0
 40
0.0
 40
0.2366152892828966
 40
0.4708779679323695
 40
0.7192705005794233
 40
1.0
 40
1.0
 40
1.0
 40
1.0
 10
-6.58305165871733
 20
-6.362146162383583
 30
0.0
 10
-6.507083354635528
 20
-6.308901659236672
 30
0.0
 10
-6.355902081600636
 20
-6.202942050618944
 30
0.0
 10
-6.193538893392282
 20
-5.9676007912063
 30
0.0
 10
-6.09924701277131
 20
-5.681539050211669
 30
0.0
 10
-6.089674706191349
 20
-5.474879601755585
 30
0.0
 10
-6.084596050093825
 20
-5.365234945136574
 30
0.0
  0
LINE
  5
CB
330
1F
100
AcDbEntity
  8
0
  6
Continuous
 62
     7
370
    25
100
AcDbLine
 10
-6.0845960501
 20
-5.3652349451
 30
0.0
 11
-6.0845960501
 21
7.3264761379
 31
0.0
  0
LINE
  5
CC
330
1F
100
AcDbEntity
  8
0
  6
Continuous
 62
     7
370
    25
100
AcDbLine
 10
-6.0845960501
 20
7.3264761379
 30
0.0
 11
-6.1327227985
 21
7.3264761379
 31
0.0
  0
LINE
  5
CD
330
1F
100
AcDbEntity
  8
0
  6
Continuous
 62
     7
370
    25
100
AcDbLine
 10
-17.8618989132
 20
-5.0524110804
 30
0.0
 11
-17.8618989132
 21
6.7008284084
 31
0.0
  0
LINE
  5
CE
330
1F
100
AcDbEntity
  8
0
  6
Continuous
 62
     7
370
    25
100
AcDbLine
 10
-17.8618989132
 20
6.7008284084
 30
0.0
 11
-16.5384133316
 21
6.2023727998
 31
0.0
  0
LINE
  5
CF
330
1F
100
AcDbEntity
  8
0
  6
Continuous
 62
     7
370
    25
100
AcDbLine
 10
-16.5384133316
 20
6.2023727998
 30
0.0
 11
-16.5384133316
 21
-5.0283477062
 31
0.0
  0
SPLINE
  5
D0
330
1F
100
AcDbEntity
  8
0
  6
Continuous
 62
     7
370
    25
100
AcDbSpline
210
0.0
220
0.0
230
1.0
 70
     8
 71
     3
 72
    11
 73
     7
 74
     0
 42
0.000000001
 43
0.00000001
 40
0.0
 40
0.0
 40
0.0
 40
0.0
 40
0.2930462955654336
 40
0.5469108595150007
 40
0.776446951743549
 40
1.0
 40
1.0
 40
1.0
 40
1.0
 10
-16.53841333163921
 20
-5.028347706204824
 30
0.0
 10
-16.53275820514969
 20
-5.168974544216922
 30
0.0
 10
-16.52220407040765
 20
-5.43142572006159
 30
0.0
 10
-16.42112573028797
 20
-5.791712376834333
 30
0.0
 10
-16.25691063893621
 20
-6.095224879145707
 30
0.0
 10
-16.08861709007279
 20
-6.234827135374388
 30
0.0
 10
-16.00558147414512
 20
-6.303706539303586
 30
0.0
  0
SPLINE
  5
D1
330
1F
100
AcDbEntity
  8
0
  6
Continuous
 62
     7
370
    25
100
AcDbSpline
210
0.0
220
0.0
230
1.0
 70
     8
 71
     3
 72
    11
 73
     7
 74
     0
 42
0.000000001
 43
0.00000001
 40
0.0
 40
0.0
 40
0.0
 40
0.0
 40
0.2341904908234977
 40
0.4772282784453745
 40
0.7334063612263982
 40
1.0
 40
1.0
 40
1.0
 40
1.0
 10
-16.00558147414512
 20
-6.303706539303586
 30
0.0
 10
-15.919833894896
 20
-6.355674278437117
 30
0.0
 10
-15.74509934661432
 20
-6.461573004701306
 30
0.0
 10
-15.45093310390039
 20
-6.57272081958653
 30
0.0
 10
-15.13961401113103
 20
-6.673726277953359
 30
0.0
 10
-14.93678595841004
 20
-6.7678918151207
 30
0.0
 10
-14.83335138765811
 20
-6.815912647475327
 30
0.0
  0
LINE
  5
D2
330
1F
100
AcDbEntity
  8
0
  6
Continuous
 62
     7
370
    25
100
AcDbLine
 10
-14.8333513877
 20
-6.8159126475
 30
0.0
 11
-14.8333513877
 21
-7.5
 31
0.0
  0
LINE
  5
D3
330
1F
100
AcDbEntity
  8
0
  6
Continuous
 62
     7
370
    25
100
AcDbLine
 10
-14.8333513877
 20
-7.5
 30
0.0
 11
-19.4844578598
 21
-7.5
 31
0.0
  0
LINE
  5
D4
330
1F
100
AcDbEntity
  8
0
  6
Continuous
 62
     7
370
    25
100
AcDbLine
 10
-19.4844578598
 20
-7.5
 30
0.0
 11
-19.4844578598
 21
-6.8159126475
 31
0.0
  0
SPLINE
  5
D5
330
1F
100
AcDbEntity
  8
0
  6
Continuous
 62
     7
370
    25
100
AcDbSpline
210
0.0
220
0.0
230
1.0
 70
     8
 71
     3
 72
    11
 73
     7
 74
     0
 42
0.000000001
 43
0.00000001
 40
0.0
 40
0.0
 40
0.0
 40
0.0
 40
0.2592296520827468
 40
0.5125789200349211
 40
0.7598072957986376
 40
1.0
 40
1.0
 40
1.0
 40
1.0
 10
-19.48445785984848
 20
-6.815912647475327
 30
0.0
 10
-19.39136081404719
 20
-6.771275750480671
 30
0.0
 10
-19.20727854254827
 20
-6.683014503083221
 30
0.0
 10
-18.9193749768553
 20
-6.591120691449643
 30
0.0
 10
-18.63980608389483
 20
-6.493724286499472
 30
0.0
 10
-18.47563262202042
 20
-6.389461628408122
 30
0.0
 10
-18.39473077065088
 20
-6.338082788174173
 30
0.0
  0
SPLINE
  5
D6
330
1F
100
AcDbEntity
  8
0
  6
Continuous
 62
     7
370
    25
100
AcDbSpline
210
0.0
220
0.0
230
1.0
 70
     8
 71
     3
 72
    11
 73
     7
 74
     0
 42
0.000000001
 43
0.00000001
 40
0.0
 40
0.0
 40
0.0
 40
0.0
 40
0.2184892341027054
 40
0.4481979859299218
 40
0.7022615352361952
 40
1.0
 40
1.0
 40
1.0
 40
1.0
 10
-18.39473077065088
 20
-6.338082788174173
 30
0.0
 10
-18.31139594635674
 20
-6.27178297686931
 30
0.0
 10
-18.1404470180956
 20
-6.135778829953743
 30
0.0
 10
-17.97971079745113
 20
-5.828834224180548
 30
0.0
 10
-17.87736641209014
 20
-5.4636806165678
 30
0.0
 10
-17.86731980774733
 20
-5.196548721114495
 30
0.0
 10
-17.86189891315679
 20
-5.052411080414234
 30
0.0
  0
LINE
  5
D7
330
1F
100
AcDbEntity
  8
0
  6
Continuous
 62
     7
370
    25
100
AcDbLine
 10
-10.5191321544
 20
-7.5
 30
0.0
 11
-11.8873068594
 21
-7.5
 31
0.0
  0
LINE
  5
D8
330
1F
100
AcDbEntity
  8
0
  6
Continuous
 62
     7
370
    25
100
AcDbLine
 10
-11.8873068594
 20
-7.5
 30
0.0
 11
-16.4937242081
 21
7.0824047709
 31
0.0
  0
SPLINE
  5
D9
330
1F
100
AcDbEntity
  8
0
  6
Continuous
 62
     7
370
    25
100
AcDbSpline
210
0.0
220
0.0
230
1.0
 70
     8
 71
     3
 72
    15
 73
    11
 74
     0
 42
0.000000001
 43
0.00000001
 40
0.0
 40
0.0
 40
0.0
 40
0.0
 40
0.1926547126992123
 40
0.3665242824903416
 40
0.5208350938126843
 40
0.6553902635712378
 40
0.7713694863085857
 40
0.8662313534193035
 40
0.9433684162597643
 40
1.0
 40
1.0
 40
1.0
 40
1.0
 10
-16.49372420810744
 20
7.082404770902835
 30
0.0
 10
-16.68760570351038
 20
7.156302705541005
 30
0.0
 10
-17.05646393176284
 20
7.296893024310222
 30
0.0
 10
-17.57708788529909
 20
7.505683577725431
 30
0.0
 10
-18.04246443837669
 20
7.684068524025629
 30
0.0
 10
-18.44445519114757
 20
7.852992695557394
 30
0.0
 10
-18.79020311473662
 20
7.990249808994892
 30
0.0
 10
-19.07550164982631
 20
8.111952319212755
 30
0.0
 10
-19.29985080856657
 20
8.213487851783794
 30
0.0
 10
-19.42954936700639
 20
8.276208517777503
 30
0.0
 10
-19.48445785984848
 20
8.30276160580866
 30
0.0
  0
LINE
  5
DA
330
1F
100
AcDbEntity
  8
0
  6
Continuous
 62
     7
370
    25
100
AcDbLine
 10
-19.4844578598
 20
8.3027616058
 30
0.0
 11
-19.4844578598
 21
8.9868489583
 31
0.0
  0
LINE
  5
DB
330
1F
100
AcDbEntity
  8
0
  6
Continuous
 62
     7
370
    25
100
AcDbLine
 10
-19.4844578598
 20
8.9868489583
 30
0.0
 11
-14.2523927817
 21
8.9868489583
 31
0.0
  0
LINE
  5
DC
330
1F
100
AcDbEntity
  8
0
  6
Continuous
 62
     7
370
    25
100
AcDbLine
 10
-14.2523927817
 20
8.9868489583
 30
0.0
 11
-9.8109814277
 21
-5.1108507035
 31
0.0
  0
LINE
  5
DD
330
1F
100
AcDbEntity
  8
0
  6
Continuous
 62
     7
370
    25
100
AcDbLine
 10
-9.8109814277
 20
-5.1108507035
 30
0.0
 11
-10.5191321544
 21
-7.5
 31
0.0
  0
SPLINE
  5
DE
330
1F
100
AcDbEntity
  8
0
  6
Continuous
 62
     7
370
    25
100
AcDbSpline
210
0.0
220
0.0
230
1.0
 70
     8
 71
     3
 72
    11
 73
     7
 74
     0
 42
0.000000001
 43
0.00000001
 40
0.0
 40
0.0
 40
0.0
 40
0.0
 40
0.2475788507837666
 40
0.4906208066778042
 40
0.7372861088213877
 40
1.0
 40
1.0
 40
1.0
 40
1.0
 10
1.26504595843759
 20
-7.290304881889422
 30
0.0
 10
1.196033593730752
 20
-7.216256918637526
 30
0.0
 10
1.059273519370509
 20
-7.069517924783712
 30
0.0
 10
0.9192168476598052
 20
-6.800748597203411
 30
0.0
 10
0.8277696440422327
 20
-6.505596821464134
 30
0.0
 10
0.8191583827984481
 20
-6.297560363394379
 30
0.0
 10
0.8147170982329055
 20
-6.190264918030651
 30
0.0
  0
SPLINE
  5
DF
330
1F
100
AcDbEntity
  8
0
  6
Continuous
 62
     7
370
    25
100
AcDbSpline
210
0.0
220
0.0
230
1.0
 70
     8
 71
     3
 72
    15
 73
    11
 74
     0
 42
0.000000001
 43
0.00000001
 40
0.0
 40
0.0
 40
0.0
 40
0.0
 40
0.1351135537013664
 40
0.2616104470067137
 40
0.3825867964317267
 40
0.5008795235083442
 40
0.6166182919152778
 40
0.7383264733027425
 40
0.8644447944666609
 40
1.0
 40
1.0
 40
1.0
 40
1.0
 10
0.8147170982329055
 20
-6.190264918030651
 30
0.0
 10
0.8163374226642587
 20
-6.106269050412346
 30
0.0
 10
0.8194747378126643
 20
-5.943634023263922
 30
0.0
 10
0.8728006308940502
 20
-5.711499105071751
 30
0.0
 10
0.9408896026401302
 20
-5.494366789063256
 30
0.0
 10
1.049897831628655
 20
-5.301560903173081
 30
0.0
 10
1.186908406740422
 20
-5.127300353183299
 30
0.0
 10
1.357923930080911
 20
-4.979428563020439
 30
0.0
 10
1.55116840959009
 20
-4.839123685590931
 30
0.0
 10
1.70010050603898
 20
-4.773554261729728
 30
0.0
 10
1.77725206660933
 20
-4.739587215691897
 30
0.0
  0
SPLINE
  5
E0
330
1F
100
AcDbEntity
  8
0
  6
Continuous
 62
     7
370
    25
100
AcDbSpline
210
0.0
220
0.0
230
1.0
 70
     8
 71
     3
 72
    13
 73
     9
 74
     0
 42
0.000000001
 43
0.00000001
 40
0.0
 40
0.0
 40
0.0
 40
0.0
 40
0.1667709464225898
 40
0.3382096683572207
 40
0.5116437506773504
 40
0.6789498518166027
 40
0.840793549914096
 40
1.0
 40
1.0
 40
1.0
 40
1.0
 10
1.77725206660933
 20
-4.739587215691897
 30
0.0
 10
1.875944250821573
 20
-4.705269258048093
 30
0.0
 10
2.076090928692505
 20
-4.635672812609704
 30
0.0
 10
2.397518353656162
 20
-4.614851494294271
 30
0.0
 10
2.717837980434033
 20
-4.640736539085769
 30
0.0
 10
3.017871404916707
 20
-4.737874070191284
 30
0.0
 10
3.292770875307549
 20
-4.875518513150907
 30
0.0
 10
3.442460336571947
 20
-5.00985697933889
 30
0.0
 10
3.516690259461012
 20
-5.076474454623646
 30
0.0
  0
SPLINE
  5
E1
330
1F
100
AcDbEntity
  8
0
  6
Continuous
 62
     7
370
    25
100
AcDbSpline
210
0.0
220
0.0
230
1.0
 70
     8
 71
     3
 72
    11
 73
     7
 74
     0
 42
0.000000001
 43
0.00000001
 40
0.0
 40
0.0
 40
0.0
 40
0.0
 40
0.2508609051898614
 40
0.4936413085196386
 40
0.7402203321351963
 40
1.0
 40
1.0
 40
1.0
 40
1.0
 10
3.516690259461012
 20
-5.076474454623646
 30
0.0
 10
3.586981356287999
 20
-5.152752791934038
 30
0.0
 10
3.725299397469796
 20
-5.302852458572432
 30
0.0
 10
3.865987202895443
 20
-5.576476361968445
 30
0.0
 10
3.957057683776901
 20
-5.873893789209909
 30
0.0
 10
3.965913435220186
 20
-6.082990839185006
 30
0.0
 10
3.970456744552755
 20
-6.190264918030651
 30
0.0
  0
SPLINE
  5
E2
330
1F
100
AcDbEntity
  8
0
  6
Continuous
 62
     7
370
    25
100
AcDbSpline
210
0.0
220
0.0
230
1.0
 70
     8
 71
     3
 72
    15
 73
    11
 74
     0
 42
0.000000001
 43
0.00000001
 40
0.0
 40
0.0
 40
0.0
 40
0.0
 40
0.136878972490002
 40
0.2646588959786815
 40
0.3843069799746724
 40
0.5016028476419945
 40
0.6188538802942362
 40
0.7395084700188196
 40
0.8651722963266193
 40
1.0
 40
1.0
 40
1.0
 40
1.0
 10
3.970456744552755
 20
-6.190264918030651
 30
0.0
 10
3.968217649485331
 20
-6.27410217924879
 30
0.0
 10
3.963888303510884
 20
-6.436203607921409
 30
0.0
 10
3.919420917943924
 20
-6.668520428841997
 30
0.0
 10
3.841499265351491
 20
-6.878476876862633
 30
0.0
 10
3.738816863389629
 20
-7.070406766747692
 30
0.0
 10
3.602276439595447
 20
-7.241253583853959
 30
0.0
 10
3.434889816328902
 20
-7.388985731687317
 30
0.0
 10
3.240006830980255
 20
-7.519162815890454
 30
0.0
 10
3.093872341194395
 20
-7.583552049345902
 30
0.0
 10
3.018234650837506
 20
-7.616879246159995
 30
0.0
  0
SPLINE
  5
E3
330
1F
100
AcDbEntity
  8
0
  6
Continuous
 62
     7
370
    25
100
AcDbSpline
210
0.0
220
0.0
230
1.0
 70
     8
 71
     3
 72
    13
 73
     9
 74
     0
 42
0.000000001
 43
0.00000001
 40
0.0
 40
0.0
 40
0.0
 40
0.0
 40
0.1656946820014089
 40
0.3383800710655634
 40
0.5092416624832974
 40
0.6766963750116956
 40
0.8396177283998268
 40
1.0
 40
1.0
 40
1.0
 40
1.0
 10
3.018234650837506
 20
-7.616879246159995
 30
0.0
 10
2.91946456092226
 20
-7.649785646254758
 30
0.0
 10
2.7177572421298
 20
-7.716986777082132
 30
0.0
 10
2.396857524498655
 20
-7.73791679536032
 30
0.0
 10
2.07671074336261
 20
-7.713760303505117
 30
0.0
 10
1.772841331885341
 20
-7.627451362896239
 30
0.0
 10
1.496842219564042
 20
-7.486331915144167
 30
0.0
 10
1.341905778353979
 20
-7.355304215362209
 30
0.0
 10
1.26504595843759
 20
-7.290304881889422
 30
0.0
  0
SPLINE
  5
E4
330
1F
100
AcDbEntity
  8
0
  6
Continuous
 62
     7
370
    25
100
AcDbSpline
210
0.0
220
0.0
230
1.0
 70
     8
 71
     3
 72
    15
 73
    11
 74
     0
 42
0.000000001
 43
0.00000001
 40
0.0
 40
0.0
 40
0.0
 40
0.0
 40
0.1218251374672074
 40
0.2419708266152358
 40
0.3624495276171885
 40
0.4844859023564513
 40
0.6072797225008462
 40
0.7341677124769829
 40
0.8647240620397059
 40
0.9999999999999999
 40
0.9999999999999999
 40
0.9999999999999999
 40
0.9999999999999999
 10
7.518085627997293
 20
7.965874366876911
 30
0.0
 10
7.610585718318674
 20
8.057967101775018
 30
0.0
 10
7.794310717792395
 20
8.24088300609363
 30
0.0
 10
8.095425620475678
 20
8.487065561318119
 30
0.0
 10
8.420264427267504
 20
8.701222455846125
 30
0.0
 10
8.767688553404412
 20
8.882447502477747
 30
0.0
 10
9.135952979350863
 20
9.034912142004146
 30
0.0
 10
9.524447996230208
 20
9.1585558314346
 30
0.0
 10
9.93524705301189
 20
9.251670714487894
 30
0.0
 10
10.21741342942303
 20
9.290318651388068
 30
0.0
 10
10.3610014095948
 20
9.309985697716845
 30
0.0
  0
LINE
  5
E5
330
1F
100
AcDbEntity
  8
0
  6
Continuous
 62
     7
370
    25
100
AcDbLine
 10
10.3610014096
 20
9.3099856977
 30
0.0
 11
10.3610014096
 21
8.4299537266
 31
0.0
  0
SPLINE
  5
E6
330
1F
100
AcDbEntity
  8
0
  6
Continuous
 62
     7
370
    25
100
AcDbSpline
210
0.0
220
0.0
230
1.0
 70
     8
 71
     3
 72
    11
 73
     7
 74
     0
 42
0.000000001
 43
0.00000001
 40
0.0
 40
0.0
 40
0.0
 40
0.0
 40
0.2664957967513703
 40
0.5181495832131557
 40
0.7599966250416028
 40
1.0
 40
1.0
 40
1.0
 40
1.0
 10
10.3610014095948
 20
8.42995372662983
 30
0.0
 10
10.19372782148817
 20
8.41287333399718
 30
0.0
 10
9.868496650803378
 20
8.379663810876709
 30
0.0
 10
9.410122500909951
 20
8.2338568846126
 30
0.0
 10
8.993856938989591
 20
8.026160509980281
 30
0.0
 10
8.761406905120817
 20
7.829880415932253
 30
0.0
 10
8.645626590952533
 20
7.732115874556921
 30
0.0
  0
SPLINE
  5
E7
330
1F
100
AcDbEntity
  8
0
  6
Continuous
 62
     7
370
    25
100
AcDbSpline
210
0.0
220
0.0
230
1.0
 70
     8
 71
     3
 72
    11
 73
     7
 74
     0
 42
0.000000001
 43
0.00000001
 40
0.0
 40
0.0
 40
0.0
 40
0.0
 40
0.2720463308248056
 40
0.5222705699868933
 40
0.7605363726240104
 40
1.0
 40
1.0
 40
1.0
 40
1.0
 10
8.645626590952533
 20
7.732115874556921
 30
0.0
 10
8.545327000339325
 20
7.630070766153503
 30
0.0
 10
8.352773312148816
 20
7.434166058419918
 30
0.0
 10
8.137520317047548
 20
7.094540484842219
 30
0.0
 10
8.005521156097155
 20
6.730870586754252
 30
0.0
 10
7.989963380018987
 20
6.479585743387172
 30
0.0
 10
7.982164987750211
 20
6.353628294846399
 30
0.0
  0
SPLINE
  5
E8
330
1F
100
AcDbEntity
  8
0
  6
Continuous
 62
     7
370
    25
100
AcDbSpline
210
0.0
220
0.0
230
1.0
 70
     8
 71
     3
 72
    11
 73
     7
 74
     0
 42
0.000000001
 43
0.00000001
 40
0.0
 40
0.0
 40
0.0
 40
0.0
 40
0.2377854798575886
 40
0.4898322425827239
 40
0.7478652106026986
 40
1.0
 40
1.0
 40
1.0
 40
1.0
 10
7.982164987750211
 20
6.353628294846399
 30
0.0
 10
8.053324207659479
 20
6.29605493636087
 30
0.0
 10
8.199910451232755
 20
6.177455233313921
 30
0.0
 10
8.443752428294832
 20
6.024086438724404
 30
0.0
 10
8.698430367353051
 20
5.87842298541705
 30
0.0
 10
8.856343400950141
 20
5.761635720219036
 30
0.0
 10
8.934387081465461
 20
5.703917191192311
 30
0.0
  0
SPLINE
  5
E9
330
1F
100
AcDbEntity
  8
0
  6
Continuous
 62
     7
370
    25
100
AcDbSpline
210
0.0
220
0.0
230
1.0
 70
     8
 71
     3
 72
    11
 73
     7
 74
     0
 42
0.000000001
 43
0.00000001
 40
0.0
 40
0.0
 40
0.0
 40
0.0
 40
0.2752392424951004
 40
0.5272517355272401
 40
0.7627828193896398
 40
1.0
 40
1.0
 40
1.0
 40
1.0
 10
8.934387081465461
 20
5.703917191192311
 30
0.0
 10
9.020487841938955
 20
5.632940386558115
 30
0.0
 10
9.185423535622512
 20
5.496976331845882
 30
0.0
 10
9.366738763467275
 20
5.244451788318131
 30
0.0
 10
9.48335752340495
 20
4.970949324595535
 30
0.0
 10
9.495501528813604
 20
4.779172837054033
 30
0.0
 10
9.501595187830143
 20
4.682942599735891
 30
0.0
  0
SPLINE
  5
EA
330
1F
100
AcDbEntity
  8
0
  6
Continuous
 62
     7
370
    25
100
AcDbSpline
210
0.0
220
0.0
230
1.0
 70
     8
 71
     3
 72
    15
 73
    11
 74
     0
 42
0.000000001
 43
0.00000001
 40
0.0
 40
0.0
 40
0.0
 40
0.0
 40
0.1435323914852621
 40
0.2739788696349675
 40
0.3984148575872411
 40
0.5143268628254145
 40
0.6298832483241056
 40
0.7467969687477674
 40
0.8685581993064354
 40
1.0
 40
1.0
 40
1.0
 40
1.0
 10
9.50159518783014
 20
4.68294259973589
 30
0.0
 10
9.498986507656133
 20
4.605979793340946
 30
0.0
 10
9.494006981864661
 20
4.459070914572726
 30
0.0
 10
9.455375117484545
 20
4.248445990856217
 30
0.0
 10
9.392975890669586
 20
4.058508550199504
 30
0.0
 10
9.295376001499267
 20
3.893615031793404
 30
0.0
 10
9.179561979142852
 20
3.745868412491024
 30
0.0
 10
9.031016020079486
 20
3.625872537641175
 30
0.0
 10
8.860244850652748
 20
3.523210301457735
 30
0.0
 10
8.732543949487832
 20
3.4765138010091
 30
0.0
 10
8.666252340274886
 20
3.452272890168889
 30
0.0
  0
SPLINE
  5
EB
330
1F
100
AcDbEntity
  8
0
  6
Continuous
 62
     7
370
    25
100
AcDbSpline
210
0.0
220
0.0
230
1.0
 70
     8
 71
     3
 72
     9
 73
     5
 74
     0
 42
0.000000001
 43
0.00000001
 40
0.0
 40
0.0
 40
0.0
 40
0.0
 40
0.4912551313729618
 40
1.0
 40
1.0
 40
1.0
 40
1.0
 10
8.666252340274886
 20
3.452272890168889
 30
0.0
 10
8.58413979798694
 20
3.432221800766385
 30
0.0
 10
8.416991330634634
 20
3.391405760134981
 30
0.0
 10
8.244989106109701
 20
3.386179318029868
 30
0.0
 10
8.157483856990204
 20
3.383520392427716
 30
0.0
  0
SPLINE
  5
EC
330
1F
100
AcDbEntity
  8
0
  6
Continuous
 62
     7
370
    25
100
AcDbSpline
210
0.0
220
0.0
230
1.0
 70
     8
 71
     3
 72
    23
 73
    19
 74
     0
 42
0.000000001
 43
0.00000001
 40
0.0
 40
0.0
 40
0.0
 40
0.0
 40
0.0655323074650698
 40
0.1250313216229731
 40
0.1819171615565378
 40
0.2393939751098258
 40
0.2984684679906184
 40
0.3593968195640846
 40
0.4243301531109981
 40
0.494500456894762
 40
0.5657584285025868
 40
0.633314098482068
 40
0.6972173944122291
 40
0.7580069304989341
 40
0.8180096458844236
 40
0.8778419904608523
 40
0.9386054633386428
 40
1.0
 40
1.0
 40
1.0
 40
1.0
 10
8.157483856990204
 20
3.383520392427716
 30
0.0
 10
8.03064437879397
 20
3.389538572280041
 30
0.0
 10
7.7886430178424
 20
3.401020862616027
 30
0.0
 10
7.449141490866777
 20
3.504173741349066
 30
0.0
 10
7.153643999132194
 20
3.670961940715289
 30
0.0
 10
6.916250490458429
 20
3.912113895444862
 30
0.0
 10
6.725775460484019
 20
4.199334979301625
 30
0.0
 10
6.590762542516985
 20
4.532584055335523
 30
0.0
 10
6.514052705358906
 20
4.904983959010849
 30
0.0
 10
6.489572705912043
 20
5.30388385761827
 30
0.0
 10
6.509257029082664
 20
5.707454788462721
 30
0.0
 10
6.554361262878311
 20
6.096849270452738
 30
0.0
 10
6.637295689155001
 20
6.45958208855742
 30
0.0
 10
6.752444984035646
 20
6.797772770554071
 30
0.0
 10
6.897145330729944
 20
7.115923997607689
 30
0.0
 10
7.074699420809972
 20
7.416713089648748
 30
0.0
 10
7.27989583477617
 20
7.70298835184353
 30
0.0
 10
7.438416060372219
 20
7.877944422989915
 30
0.0
 10
7.518085627997293
 20
7.965874366876911
 30
0.0
  0
LINE
  5
ED
330
1F
100
AcDbEntity
  8
0
  6
Continuous
 62
     7
370
    25
100
AcDbLine
 10
15.8612012289
 20
-7.5
 30
0.0
 11
7.7862203692
 21
-7.5
 31
0.0
  0
LINE
  5
EE
330
1F
100
AcDbEntity
  8
0
  6
Continuous
 62
     7
370
    25
100
AcDbLine
 10
7.7862203692
 20
-7.5
 30
0.0
 11
9.1887713231
 21
-5.5268033148
 31
0.0
  0
LINE
  5
EF
330
1F
100
AcDbEntity
  8
0
  6
Continuous
 62
     7
370
    25
100
AcDbLine
 10
9.1887713231
 20
-5.5268033148
 30
0.0
 11
11.1722808829
 21
-5.5268033148
 31
0.0
  0
SPLINE
  5
F0
330
1F
100
AcDbEntity
  8
0
  6
Continuous
 62
     7
370
    25
100
AcDbSpline
210
0.0
220
0.0
230
1.0
 70
     8
 71
     3
 72
    15
 73
    11
 74
     0
 42
0.000000001
 43
0.00000001
 40
0.0
 40
0.0
 40
0.0
 40
0.0
 40
0.166327558085193
 40
0.3185701489465227
 40
0.4574823947074297
 40
0.5837937698512705
 40
0.6999478536483896
 40
0.8066148025984886
 40
0.9053375629639333
 40
1.0
 40
1.0
 40
1.0
 40
1.0
 10
11.17228088294065
 20
-5.526803314828329
 30
0.0
 10
11.35456899621098
 20
-5.524646529407812
 30
0.0
 10
11.70370868216709
 20
-5.520515599689553
 30
0.0
 10
12.2036049315419
 20
-5.476231120876515
 30
0.0
 10
12.65530545334696
 20
-5.401329373360392
 30
0.0
 10
13.06118579716515
 20
-5.299708035516513
 30
0.0
 10
13.42136359342916
 20
-5.16744545358109
 30
0.0
 10
13.73296383953659
 20
-5.001496421491693
 30
0.0
 10
14.00254076035213
 20
-4.809468311093789
 30
0.0
 10
14.14489582296944
 20
-4.651773260580089
 30
0.0
 10
14.21457890798756
 20
-4.57458122111308
 30
0.0
  0
SPLINE
  5
F1
330
1F
100
AcDbEntity
  8
0
  6
Continuous
 62
     7
370
    25
100
AcDbSpline
210
0.0
220
0.0
230
1.0
 70
     8
 71
     3
 72
    15
 73
    11
 74
     0
 42
0.000000001
 43
0.00000001
 40
0.0
 40
0.0
 40
0.0
 40
0.0
 40
0.1268187740888191
 40
0.2567333425674301
 40
0.3899891058508206
 40
0.5285669687637619
 40
0.6647501383642199
 40
0.7880534153528527
 40
0.9004016591433572
 40
1.0
 40
1.0
 40
1.0
 40
1.0
 10
14.21457890798756
 20
-4.57458122111308
 30
0.0
 10
14.27691537431314
 20
-4.49317339375707
 30
0.0
 10
14.40311001291136
 20
-4.328370478901395
 30
0.0
 10
14.56482808313418
 20
-4.057574057373341
 30
0.0
 10
14.7210012492577
 20
-3.77262007119921
 30
0.0
 10
14.84277263736087
 20
-3.465853601672166
 30
0.0
 10
14.96258144839354
 20
-3.167567856487402
 30
0.0
 10
15.07949401497987
 20
-2.890827317451813
 30
0.0
 10
15.19196783950556
 20
-2.644411308630883
 30
0.0
 10
15.26839241553498
 20
-2.491191676789444
 30
0.0
 10
15.30430599718516
 20
-2.419190416927301
 30
0.0
  0
LINE
  5
F2
330
1F
100
AcDbEntity
  8
0
  6
Continuous
 62
     7
370
    25
100
AcDbLine
 10
15.3043059972
 20
-2.4191904169
 30
0.0
 11
15.8612012289
 21
-2.4191904169
 31
0.0
  0
LINE
  5
F3
330
1F
100
AcDbEntity
  8
0
  6
Continuous
 62
     7
370
    25
100
AcDbLine
 10
15.8612012289
 20
-2.4191904169
 30
0.0
 11
15.8612012289
 21
-7.5
 31
0.0
  0
ENDSEC
  0
SECTION
  2
OBJECTS
  0
DICTIONARY
  5
C
330
0
100
AcDbDictionary
281
     1
  3
ACAD_DETAILVIEWSTYLE
350
FB
  3
ACAD_GROUP
350
D
  3
ACAD_LAYOUT
350
1A
  3
ACAD_MATERIAL
350
43
  3
ACAD_MLEADERSTYLE
350
6B
  3
ACAD_MLINESTYLE
350
17
  3
ACAD_PLOTSETTINGS
350
19
  3
ACAD_PLOTSTYLENAME
350
E
  3
ACAD_SCALELIST
350
47
  3
ACAD_SECTIONVIEWSTYLE
350
FC
  3
ACAD_TABLESTYLE
350
69
  3
ACAD_VISUALSTYLE
350
2A
  3
ACDB_RECOMPOSE_DATA
350
F8
  3
AcDbVariableDictionary
350
F4
  0
SUN
  5
6D
330
29
100
AcDbSun
 90
        1
290
     0
 63
     7
421
 16777215
 40
1.0
291
     1
 91
  2455826
 92
 54000000
292
     0
 70
     2
 71
   256
280
     1
  0
DICTIONARY
  5
FB
102
{ACAD_REACTORS
330
C
102
}
330
C
100
AcDbDictionary
281
     1
  0
DICTIONARY
  5
D
102
{ACAD_REACTORS
330
C
102
}
330
C
100
AcDbDictionary
281
     1
  0
DICTIONARY
  5
1A
102
{ACAD_REACTORS
330
C
102
}
330
C
100
AcDbDictionary
281
     1
  3
Layout1
350
1E
  3
Layout2
350
26
  3
Model
350
22
  0
DICTIONARY
  5
43
102
{ACAD_REACTORS
330
C
102
}
330
C
100
AcDbDictionary
281
     1
  3
ByBlock
350
45
  3
ByLayer
350
44
  3
Global
350
46
  0
DICTIONARY
  5
6B
102
{ACAD_REACTORS
330
C
102
}
330
C
100
AcDbDictionary
281
     1
  3
Standard
350
6C
  0
DICTIONARY
  5
17
102
{ACAD_REACTORS
330
C
102
}
330
C
100
AcDbDictionary
281
     1
  3
Standard
350
18
  0
DICTIONARY
  5
19
102
{ACAD_REACTORS
330
C
102
}
330
C
100
AcDbDictionary
281
     1
  0
ACDBDICTIONARYWDFLT
  5
E
102
{ACAD_REACTORS
330
C
102
}
330
C
100
AcDbDictionary
281
     1
  3
Normal
350
F
100
AcDbDictionaryWithDefault
340
F
  0
DICTIONARY
  5
47
102
{ACAD_REACTORS
330
C
102
}
330
C
100
AcDbDictionary
281
     1
  3
A0
350
48
  3
A1
350
49
  3
A2
350
4A
  3
A3
350
4B
  3
A4
350
4C
  3
A5
350
4D
  3
A6
350
4E
  3
A7
350
4F
  3
A8
350
50
  3
A9
350
51
  3
B0
350
52
  3
B1
350
53
  3
B2
350
54
  3
B3
350
55
  3
B4
350
56
  3
B5
350
57
  3
B6
350
58
  3
B7
350
59
  3
B8
350
5A
  3
B9
350
5B
  3
C0
350
5C
  3
C1
350
5D
  3
C2
350
5E
  3
C3
350
5F
  3
C4
350
60
  3
C5
350
61
  3
C6
350
62
  3
C7
350
63
  3
C8
350
64
  3
C9
350
65
  3
D0
350
66
  3
D1
350
67
  3
D2
350
68
  0
DICTIONARY
  5
FC
102
{ACAD_REACTORS
330
C
102
}
330
C
100
AcDbDictionary
281
     1
  0
DICTIONARY
  5
69
102
{ACAD_REACTORS
330
C
102
}
330
C
100
AcDbDictionary
281
     1
  3
Standard
350
6A
  0
DICTIONARY
  5
2A
102
{ACAD_REACTORS
330
C
102
}
330
C
100
AcDbDictionary
281
     1
  3
2dWireframe
350
2F
  3
Basic
350
32
  3
Brighten
350
36
  3
ColorChange
350
3A
  3
Conceptual
350
34
  3
Dim
350
35
  3
EdgeColorOff
350
3D
  3
Facepattern
350
39
  3
Flat
350
2B
  3
FlatWithEdges
350
2C
  3
Gouraud
350
2D
  3
GouraudWithEdges
350
2E
  3
Hidden
350
31
  3
JitterOff
350
3B
  3
Linepattern
350
38
  3
OverhangOff
350
3C
  3
Realistic
350
33
  3
Shaded
350
42
  3
Shaded with edges
350
41
  3
Shades of Gray
350
3E
  3
Sketchy
350
3F
  3
Thicken
350
37
  3
Wireframe
350
30
  3
X-Ray
350
40
  0
XRECORD
  5
F8
102
{ACAD_REACTORS
330
C
102
}
330
C
100
AcDbXrecord
280
     1
 90
        1
330
6A
  0
DICTIONARY
  5
F4
102
{ACAD_REACTORS
330
C
102
}
330
C
100
AcDbDictionary
281
     1
  3
CANNOSCALE
350
F5
  3
CENTEREXE
350
FD
  3
CENTERLTYPEFILE
350
FE
  3
CMLEADERSTYLE
350
FA
  3
CTABLESTYLE
350
F9
  0
LAYOUT
  5
1E
102
{ACAD_REACTORS
330
1A
102
}
330
1A
100
AcDbPlotSettings
  1

  2
none_device
  4

  6

 40
0.0
 41
0.0
 42
0.0
 43
0.0
 44
0.0
 45
0.0
 46
0.0
 47
0.0
 48
0.0
 49
0.0
140
0.0
141
0.0
142
1.0
143
1.0
 70
   688
 72
     1
 73
     0
 74
     5
  7

 75
    16
 76
     0
 77
     2
 78
   300
147
1.0
148
0.0
149
0.0
100
AcDbLayout
  1
Layout1
 70
     1
 71
     1
 10
0.0
 20
0.0
 11
420.0
 21
297.0
 12
0.0
 22
0.0
 32
0.0
 14
1.0000000000E+20
 24
1.0000000000E+20
 34
1.0000000000E+20
 15
-1.0000000000E+20
 25
-1.0000000000E+20
 35
-1.0000000000E+20
146
0.0
 13
0.0
 23
0.0
 33
0.0
 16
1.0
 26
0.0
 36
0.0
 17
0.0
 27
1.0
 37
0.0
 76
     0
330
1B
  0
LAYOUT
  5
26
102
{ACAD_REACTORS
330
1A
102
}
330
1A
100
AcDbPlotSettings
  1

  2
none_device
  4

  6

 40
0.0
 41
0.0
 42
0.0
 43
0.0
 44
0.0
 45
0.0
 46
0.0
 47
0.0
 48
0.0
 49
0.0
140
0.0
141
0.0
142
1.0
143
1.0
 70
   688
 72
     1
 73
     0
 74
     5
  7

 75
    16
 76
     0
 77
     2
 78
   300
147
1.0
148
0.0
149
0.0
100
AcDbLayout
  1
Layout2
 70
     1
 71
     2
 10
0.0
 20
0.0
 11
0.0
 21
0.0
 12
0.0
 22
0.0
 32
0.0
 14
0.0
 24
0.0
 34
0.0
 15
0.0
 25
0.0
 35
0.0
146
0.0
 13
0.0
 23
0.0
 33
0.0
 16
1.0
 26
0.0
 36
0.0
 17
0.0
 27
1.0
 37
0.0
 76
     0
330
23
  0
LAYOUT
  5
22
102
{ACAD_REACTORS
330
1A
102
}
330
1A
100
AcDbPlotSettings
  1

  2
none_device
  4
ANSI_A_(11.00_x_8.50_Inches)
  6

 40
6.35
 41
19.05
 42
6.35000508
 43
19.05000254
 44
279.4
 45
215.9
 46
133.34999746
 47
88.89999873
 48
0.0
 49
0.0
140
0.0
141
0.0
142
0.0726
143
1.0
 70
  1696
 72
     0
 73
     0
 74
     0
  7

 75
     0
 76
     0
 77
     2
 78
   300
147
0.0179189148
148
-1300.4909072572
149
0.0
100
AcDbLayout
  1
Model
 70
     1
 71
     0
 10
0.0
 20
0.0
 11
420.0
 21
297.0
 12
0.0
 22
0.0
 32
0.0
 14
-75.0
 24
-15.0
 34
0.0
 15
75.0
 25
15.0
 35
0.0
146
0.0
 13
0.0
 23
0.0
 33
0.0
 16
1.0
 26
0.0
 36
0.0
 17
0.0
 27
1.0
 37
0.0
 76
     0
330
1F
331
29
  0
MATERIAL
  5
45
102
{ACAD_REACTORS
330
43
102
}
330
43
100
AcDbMaterial
  1
ByBlock
 72
     1
 94
      127
  0
MATERIAL
  5
44
102
{ACAD_REACTORS
330
43
102
}
330
43
100
AcDbMaterial
  1
ByLayer
 72
     1
 94
      127
  0
MATERIAL
  5
46
102
{ACAD_REACTORS
330
43
102
}
330
43
100
AcDbMaterial
  1
Global
 72
     1
 94
      127
  0
MLEADERSTYLE
  5
6C
102
{ACAD_REACTORS
330
6B
102
}
330
6B
100
AcDbMLeaderStyle
179
     2
170
     2
171
     1
172
     0
 90
        2
 40
0.0
 41
0.0
173
     1
 91
-1056964608
340
14
 92
       -2
290
     1
 42
2.0
291
     1
 43
8.0
  3
Standard
341
0
 44
4.0
300

342
11
174
     1
178
     6
175
     1
176
     0
 93
-1056964608
 45
4.0
292
     0
297
     0
 46
4.0
343
0
 94
-1056964608
 47
1.0
 49
1.0
140
1.0
293
     1
141
0.0
294
     1
177
     0
142
1.0
295
     0
296
     0
143
3.75
271
     0
272
     9
273
     9
298
     0
  0
MLINESTYLE
  5
18
102
{ACAD_REACTORS
330
17
102
}
330
17
100
AcDbMlineStyle
  2
Standard
 70
     0
  3

 62
   256
 51
90.0
 52
90.0
 71
     2
 49
0.5
 62
   256
  6
BYLAYER
 49
-0.5
 62
   256
  6
BYLAYER
  0
ACDBPLACEHOLDER
  5
F
102
{ACAD_REACTORS
330
E
102
}
330
E
  0
SCALE
  5
48
102
{ACAD_REACTORS
330
47
102
}
330
47
100
AcDbScale
 70
     0
300
1:1
140
1.0
141
1.0
290
     1
  0
SCALE
  5
49
102
{ACAD_REACTORS
330
47
102
}
330
47
100
AcDbScale
 70
     0
300
1:2
140
1.0
141
2.0
290
     0
  0
SCALE
  5
4A
102
{ACAD_REACTORS
330
47
102
}
330
47
100
AcDbScale
 70
     0
300
1:4
140
1.0
141
4.0
290
     0
  0
SCALE
  5
4B
102
{ACAD_REACTORS
330
47
102
}
330
47
100
AcDbScale
 70
     0
300
1:5
140
1.0
141
5.0
290
     0
  0
SCALE
  5
4C
102
{ACAD_REACTORS
330
47
102
}
330
47
100
AcDbScale
 70
     0
300
1:8
140
1.0
141
8.0
290
     0
  0
SCALE
  5
4D
102
{ACAD_REACTORS
330
47
102
}
330
47
100
AcDbScale
 70
     0
300
1:10
140
1.0
141
10.0
290
     0
  0
SCALE
  5
4E
102
{ACAD_REACTORS
330
47
102
}
330
47
100
AcDbScale
 70
     0
300
1:16
140
1.0
141
16.0
290
     0
  0
SCALE
  5
4F
102
{ACAD_REACTORS
330
47
102
}
330
47
100
AcDbScale
 70
     0
300
1:20
140
1.0
141
20.0
290
     0
  0
SCALE
  5
50
102
{ACAD_REACTORS
330
47
102
}
330
47
100
AcDbScale
 70
     0
300
1:30
140
1.0
141
30.0
290
     0
  0
SCALE
  5
51
102
{ACAD_REACTORS
330
47
102
}
330
47
100
AcDbScale
 70
     0
300
1:40
140
1.0
141
40.0
290
     0
  0
SCALE
  5
52
102
{ACAD_REACTORS
330
47
102
}
330
47
100
AcDbScale
 70
     0
300
1:50
140
1.0
141
50.0
290
     0
  0
SCALE
  5
53
102
{ACAD_REACTORS
330
47
102
}
330
47
100
AcDbScale
 70
     0
300
1:100
140
1.0
141
100.0
290
     0
  0
SCALE
  5
54
102
{ACAD_REACTORS
330
47
102
}
330
47
100
AcDbScale
 70
     0
300
2:1
140
2.0
141
1.0
290
     0
  0
SCALE
  5
55
102
{ACAD_REACTORS
330
47
102
}
330
47
100
AcDbScale
 70
     0
300
4:1
140
4.0
141
1.0
290
     0
  0
SCALE
  5
56
102
{ACAD_REACTORS
330
47
102
}
330
47
100
AcDbScale
 70
     0
300
8:1
140
8.0
141
1.0
290
     0
  0
SCALE
  5
57
102
{ACAD_REACTORS
330
47
102
}
330
47
100
AcDbScale
 70
     0
300
10:1
140
10.0
141
1.0
290
     0
  0
SCALE
  5
58
102
{ACAD_REACTORS
330
47
102
}
330
47
100
AcDbScale
 70
     0
300
100:1
140
100.0
141
1.0
290
     0
  0
SCALE
  5
59
102
{ACAD_REACTORS
330
47
102
}
330
47
100
AcDbScale
 70
     0
300
1/128" = 1'-0"
140
0.0078125
141
12.0
290
     0
  0
SCALE
  5
5A
102
{ACAD_REACTORS
330
47
102
}
330
47
100
AcDbScale
 70
     0
300
1/64" = 1'-0"
140
0.015625
141
12.0
290
     0
  0
SCALE
  5
5B
102
{ACAD_REACTORS
330
47
102
}
330
47
100
AcDbScale
 70
     0
300
1/32" = 1'-0"
140
0.03125
141
12.0
290
     0
  0
SCALE
  5
5C
102
{ACAD_REACTORS
330
47
102
}
330
47
100
AcDbScale
 70
     0
300
1/16" = 1'-0"
140
0.0625
141
12.0
290
     0
  0
SCALE
  5
5D
102
{ACAD_REACTORS
330
47
102
}
330
47
100
AcDbScale
 70
     0
300
3/32" = 1'-0"
140
0.09375
141
12.0
290
     0
  0
SCALE
  5
5E
102
{ACAD_REACTORS
330
47
102
}
330
47
100
AcDbScale
 70
     0
300
1/8" = 1'-0"
140
0.125
141
12.0
290
     0
  0
SCALE
  5
5F
102
{ACAD_REACTORS
330
47
102
}
330
47
100
AcDbScale
 70
     0
300
3/16" = 1'-0"
140
0.1875
141
12.0
290
     0
  0
SCALE
  5
60
102
{ACAD_REACTORS
330
47
102
}
330
47
100
AcDbScale
 70
     0
300
1/4" = 1'-0"
140
0.25
141
12.0
290
     0
  0
SCALE
  5
61
102
{ACAD_REACTORS
330
47
102
}
330
47
100
AcDbScale
 70
     0
300
3/8" = 1'-0"
140
0.375
141
12.0
290
     0
  0
SCALE
  5
62
102
{ACAD_REACTORS
330
47
102
}
330
47
100
AcDbScale
 70
     0
300
1/2" = 1'-0"
140
0.5
141
12.0
290
     0
  0
SCALE
  5
63
102
{ACAD_REACTORS
330
47
102
}
330
47
100
AcDbScale
 70
     0
300
3/4" = 1'-0"
140
0.75
141
12.0
290
     0
  0
SCALE
  5
64
102
{ACAD_REACTORS
330
47
102
}
330
47
100
AcDbScale
 70
     0
300
1" = 1'-0"
140
1.0
141
12.0
290
     0
  0
SCALE
  5
65
102
{ACAD_REACTORS
330
47
102
}
330
47
100
AcDbScale
 70
     0
300
1-1/2" = 1'-0"
140
1.5
141
12.0
290
     0
  0
SCALE
  5
66
102
{ACAD_REACTORS
330
47
102
}
330
47
100
AcDbScale
 70
     0
300
3" = 1'-0"
140
3.0
141
12.0
290
     0
  0
SCALE
  5
67
102
{ACAD_REACTORS
330
47
102
}
330
47
100
AcDbScale
 70
     0
300
6" = 1'-0"
140
6.0
141
12.0
290
     0
  0
SCALE
  5
68
102
{ACAD_REACTORS
330
47
102
}
330
47
100
AcDbScale
 70
     0
300
1'-0" = 1'-0"
140
12.0
141
12.0
290
     0
  0
TABLESTYLE
  5
6A
102
{ACAD_REACTORS
330
69
102
}
102
{ACAD_XDICTIONARY
360
F6
102
}
330
69
100
AcDbTableStyle
  3
Standard
 70
     0
 71
     0
 40
0.06
 41
0.06
280
     0
281
     0
  7
Standard
140
4.5
170
     2
 62
     0
 63
   257
283
     0
 90
        4
 91
        0
  1

274
    -2
284
     1
 64
     0
275
    -2
285
     1
 65
     0
276
    -2
286
     1
 66
     0
277
    -2
287
     1
 67
     0
278
    -2
288
     1
 68
     0
279
    -2
289
     1
 69
     0
  7
Standard
140
6.0
170
     5
 62
     0
 63
   257
283
     0
 90
        4
 91
        0
  1

274
    -2
284
     1
 64
     0
275
    -2
285
     1
 65
     0
276
    -2
286
     1
 66
     0
277
    -2
287
     1
 67
     0
278
    -2
288
     1
 68
     0
279
    -2
289
     1
 69
     0
  7
Standard
140
4.5
170
     5
 62
     0
 63
   257
283
     0
 90
        4
 91
        0
  1

274
    -2
284
     1
 64
     0
275
    -2
285
     1
 65
     0
276
    -2
286
     1
 66
     0
277
    -2
287
     1
 67
     0
278
    -2
288
     1
 68
     0
279
    -2
289
     1
 69
     0
  0
VISUALSTYLE
  5
2F
102
{ACAD_REACTORS
330
2A
102
}
330
2A
100
AcDbVisualStyle
  2
2dWireframe
 70
     4
177
     3
291
     0
 70
    58
 90
        0
176
     1
 90
        2
176
     1
 90
        0
176
     1
 90
        0
176
     1
 40
0.6
176
     1
 40
30.0
176
     1
 62
     7
420
 16777215
176
     1
 90
        1
176
     1
 90
        4
176
     1
 62
     7
176
     1
 62
   257
176
     1
 90
        1
176
     1
 90
        1
176
     1
 40
1.0
176
     1
 90
        0
176
     1
 62
   257
176
     1
 40
1.0
176
     1
 90
        1
176
     1
 90
        6
176
     1
 90
        2
176
     1
 62
     7
176
     1
 90
        5
176
     1
 90
        0
176
     1
 90
        0
176
     1
290
     0
176
     1
 90
        1
176
     1
 40
0.0
176
     1
 90
        0
176
     1
290
     1
176
     1
290
     1
176
     1
290
     0
176
     1
290
     0
176
     1
290
     0
176
     1
290
     0
176
     1
290
     0
176
     1
290
     0
176
     1
290
     0
176
     1
 90
       50
176
     1
 40
0.0
176
     1
 40
1.0
176
     1
 90
        0
176
     1
 62
    18
420
        0
176
     1
 90
       50
176
     1
 90
        3
176
     1
 62
     5
420
      255
176
     1
290
     0
176
     1
 90
       50
176
     1
 90
       50
176
     1
 90
       50
176
     1
290
     0
176
     1
 90
       50
176
     1
 62
   256
176
     0
 40
1.0
176
     0
 90
        2
176
     1
  1
strokes_ogs.tif
176
     1
290
     0
176
     1
 40
1.0
176
     1
 40
1.0
176
     1
  0
VISUALSTYLE
  5
32
102
{ACAD_REACTORS
330
2A
102
}
330
2A
100
AcDbVisualStyle
  2
Basic
 70
     7
177
     3
291
     1
 70
    58
 90
        1
176
     1
 90
        0
176
     1
 90
        1
176
     1
 90
        0
176
     1
 40
0.6
176
     1
 40
30.0
176
     1
 62
     7
420
 16777215
176
     1
 90
        0
176
     1
 90
        4
176
     1
 62
     7
176
     1
 62
   257
176
     1
 90
        1
176
     1
 90
        1
176
     1
 40
1.0
176
     1
 90
        8
176
     1
 62
     7
176
     1
 40
1.0
176
     1
 90
        1
176
     1
 90
        6
176
     1
 90
        2
176
     1
 62
     7
176
     1
 90
        5
176
     1
 90
        0
176
     1
 90
        0
176
     1
290
     0
176
     1
 90
        1
176
     1
 40
0.0
176
     1
 90
        0
176
     1
290
     0
176
     1
290
     1
176
     1
290
     1
176
     1
290
     0
176
     1
290
     0
176
     1
290
     0
176
     1
290
     0
176
     1
290
     0
176
     1
290
     0
176
     1
 90
       50
176
     1
 40
0.0
176
     1
 40
1.0
176
     1
 90
        0
176
     1
 62
    18
420
        0
176
     1
 90
       50
176
     1
 90
        3
176
     1
 62
     5
420
      255
176
     1
290
     0
176
     1
 90
       50
176
     1
 90
       50
176
     1
 90
       50
176
     1
290
     0
176
     1
 90
       50
176
     1
 62
   256
176
     0
 40
1.0
176
     0
 90
        2
176
     1
  1
strokes_ogs.tif
176
     1
290
     0
176
     1
 40
1.0
176
     1
 40
1.0
176
     1
  0
VISUALSTYLE
  5
36
102
{ACAD_REACTORS
330
2A
102
}
330
2A
100
AcDbVisualStyle
  2
Brighten
 70
    12
177
     3
291
     1
 70
    58
 90
        2
176
     1
 90
        2
176
     1
 90
        0
176
     1
 90
        0
176
     1
 40
0.6
176
     1
 40
30.0
176
     1
 62
     7
420
 16777215
176
     1
 90
        1
176
     1
 90
        4
176
     1
 62
     7
176
     1
 62
   257
176
     1
 90
        1
176
     1
 90
        1
176
     1
 40
1.0
176
     1
 90
        8
176
     1
 62
     7
176
     1
 40
1.0
176
     1
 90
        1
176
     1
 90
        6
176
     1
 90
        2
176
     1
 62
     7
176
     1
 90
        5
176
     1
 90
        0
176
     1
 90
        0
176
     1
290
     0
176
     1
 90
        1
176
     1
 40
50.0
176
     1
 90
        0
176
     1
290
     0
176
     1
290
     1
176
     1
290
     1
176
     1
290
     0
176
     1
290
     0
176
     1
290
     0
176
     1
290
     0
176
     1
290
     0
176
     1
290
     0
176
     1
 90
       50
176
     1
 40
0.0
176
     1
 40
1.0
176
     1
 90
        0
176
     1
 62
    18
420
        0
176
     1
 90
       50
176
     1
 90
        3
176
     1
 62
     5
420
      255
176
     1
290
     0
176
     1
 90
       50
176
     1
 90
       50
176
     1
 90
       50
176
     1
290
     0
176
     1
 90
       50
176
     1
 62
   256
176
     0
 40
1.0
176
     0
 90
        2
176
     1
  1
strokes_ogs.tif
176
     1
290
     0
176
     1
 40
1.0
176
     1
 40
1.0
176
     1
  0
VISUALSTYLE
  5
3A
102
{ACAD_REACTORS
330
2A
102
}
330
2A
100
AcDbVisualStyle
  2
ColorChange
 70
    16
177
     3
291
     1
 70
    58
 90
        2
176
     1
 90
        2
176
     1
 90
        3
176
     1
 90
        0
176
     1
 40
0.6
176
     1
 40
30.0
176
     1
 62
     8
420
  8421504
176
     1
 90
        1
176
     1
 90
        4
176
     1
 62
     7
176
     1
 62
   257
176
     1
 90
        1
176
     1
 90
        1
176
     1
 40
1.0
176
     1
 90
        8
176
     1
 62
     8
420
  8421504
176
     1
 40
1.0
176
     1
 90
        1
176
     1
 90
        6
176
     1
 90
        2
176
     1
 62
     7
176
     1
 90
        5
176
     1
 90
        0
176
     1
 90
        0
176
     1
290
     0
176
     1
 90
        1
176
     1
 40
0.0
176
     1
 90
        0
176
     1
290
     0
176
     1
290
     1
176
     1
290
     1
176
     1
290
     0
176
     1
290
     0
176
     1
290
     0
176
     1
290
     0
176
     1
290
     0
176
     1
290
     0
176
     1
 90
       50
176
     1
 40
0.0
176
     1
 40
1.0
176
     1
 90
        0
176
     1
 62
    18
420
        0
176
     1
 90
       50
176
     1
 90
        3
176
     1
 62
     5
420
      255
176
     1
290
     0
176
     1
 90
       50
176
     1
 90
       50
176
     1
 90
       50
176
     1
290
     0
176
     1
 90
       50
176
     1
 62
   256
176
     0
 40
1.0
176
     0
 90
        2
176
     1
  1
strokes_ogs.tif
176
     1
290
     0
176
     1
 40
1.0
176
     1
 40
1.0
176
     1
  0
VISUALSTYLE
  5
34
102
{ACAD_REACTORS
330
2A
102
}
330
2A
100
AcDbVisualStyle
  2
Conceptual
 70
     9
177
     3
291
     0
 70
    58
 90
        3
176
     1
 90
        2
176
     1
 90
        0
176
     1
 90
        0
176
     1
 40
0.6
176
     1
 40
30.0
176
     1
 62
     7
420
 16777215
176
     1
 90
        2
176
     1
 90
        2
176
     1
 62
     7
176
     1
 62
   257
176
     1
 90
        1
176
     1
 90
        1
176
     1
 40
179.0
176
     1
 90
        8
176
     1
 62
     7
176
     1
 40
1.0
176
     1
 90
        1
176
     1
 90
        6
176
     1
 90
        2
176
     1
 62
     7
176
     1
 90
        3
176
     1
 90
        0
176
     1
 90
        0
176
     1
290
     0
176
     1
 90
        1
176
     1
 40
0.0
176
     1
 90
        0
176
     1
290
     0
176
     1
290
     1
176
     1
290
     1
176
     1
290
     0
176
     1
290
     0
176
     1
290
     0
176
     1
290
     0
176
     1
290
     0
176
     1
290
     0
176
     1
 90
       50
176
     1
 40
0.0
176
     1
 40
1.0
176
     1
 90
        0
176
     1
 62
    18
420
        0
176
     1
 90
       50
176
     1
 90
        3
176
     1
 62
     5
420
      255
176
     1
290
     0
176
     1
 90
       50
176
     1
 90
       50
176
     1
 90
       50
176
     1
290
     0
176
     1
 90
       50
176
     1
 62
   256
176
     0
 40
1.0
176
     0
 90
        2
176
     1
  1
strokes_ogs.tif
176
     1
290
     0
176
     1
 40
1.0
176
     1
 40
1.0
176
     1
  0
VISUALSTYLE
  5
35
102
{ACAD_REACTORS
330
2A
102
}
330
2A
100
AcDbVisualStyle
  2
Dim
 70
    11
177
     3
291
     1
 70
    58
 90
        2
176
     1
 90
        2
176
     1
 90
        0
176
     1
 90
        0
176
     1
 40
0.6
176
     1
 40
30.0
176
     1
 62
     7
420
 16777215
176
     1
 90
        1
176
     1
 90
        4
176
     1
 62
     7
176
     1
 62
   257
176
     1
 90
        1
176
     1
 90
        1
176
     1
 40
1.0
176
     1
 90
        8
176
     1
 62
     7
176
     1
 40
1.0
176
     1
 90
        1
176
     1
 90
        6
176
     1
 90
        2
176
     1
 62
     7
176
     1
 90
        5
176
     1
 90
        0
176
     1
 90
        0
176
     1
290
     0
176
     1
 90
        1
176
     1
 40
-50.0
176
     1
 90
        0
176
     1
290
     0
176
     1
290
     1
176
     1
290
     1
176
     1
290
     0
176
     1
290
     0
176
     1
290
     0
176
     1
290
     0
176
     1
290
     0
176
     1
290
     0
176
     1
 90
       50
176
     1
 40
0.0
176
     1
 40
1.0
176
     1
 90
        0
176
     1
 62
    18
420
        0
176
     1
 90
       50
176
     1
 90
        3
176
     1
 62
     5
420
      255
176
     1
290
     0
176
     1
 90
       50
176
     1
 90
       50
176
     1
 90
       50
176
     1
290
     0
176
     1
 90
       50
176
     1
 62
   256
176
     0
 40
1.0
176
     0
 90
        2
176
     1
  1
strokes_ogs.tif
176
     1
290
     0
176
     1
 40
1.0
176
     1
 40
1.0
176
     1
  0
VISUALSTYLE
  5
3D
102
{ACAD_REACTORS
330
2A
102
}
330
2A
100
AcDbVisualStyle
  2
EdgeColorOff
 70
    22
177
     3
291
     1
 70
    58
 90
        2
176
     0
 90
        2
176
     0
 90
        0
176
     0
 90
        0
176
     0
 40
0.6
176
     0
 40
30.0
176
     0
 62
     7
420
 16777215
176
     0
 90
        1
176
     0
 90
        4
176
     0
 62
     7
176
     0
 62
   257
176
     0
 90
        1
176
     0
 90
        1
176
     0
 40
1.0
176
     0
 90
        8
176
     2
 62
     7
176
     0
 40
1.0
176
     0
 90
        1
176
     0
 90
        6
176
     0
 90
        2
176
     0
 62
     7
176
     0
 90
        5
176
     0
 90
        0
176
     0
 90
        0
176
     0
290
     0
176
     0
 90
        1
176
     0
 40
0.0
176
     0
 90
        0
176
     0
290
     0
176
     0
290
     1
176
     0
290
     1
176
     0
290
     0
176
     0
290
     0
176
     0
290
     0
176
     0
290
     0
176
     0
290
     0
176
     0
290
     0
176
     0
 90
       50
176
     0
 40
0.0
176
     0
 40
1.0
176
     0
 90
        0
176
     0
 62
    18
420
        0
176
     0
 90
       50
176
     0
 90
        3
176
     0
 62
     5
420
      255
176
     0
290
     0
176
     0
 90
       50
176
     0
 90
       50
176
     0
 90
       50
176
     0
290
     0
176
     0
 90
       50
176
     0
 62
   256
176
     0
 40
1.0
176
     0
 90
        2
176
     0
  1
strokes_ogs.tif
176
     0
290
     0
176
     0
 40
1.0
176
     0
 40
1.0
176
     0
  0
VISUALSTYLE
  5
39
102
{ACAD_REACTORS
330
2A
102
}
330
2A
100
AcDbVisualStyle
  2
Facepattern
 70
    15
177
     3
291
     1
 70
    58
 90
        2
176
     1
 90
        2
176
     1
 90
        0
176
     1
 90
        0
176
     1
 40
0.6
176
     1
 40
30.0
176
     1
 62
     7
420
 16777215
176
     1
 90
        1
176
     1
 90
        4
176
     1
 62
     7
176
     1
 62
   257
176
     1
 90
        1
176
     1
 90
        1
176
     1
 40
1.0
176
     1
 90
        8
176
     1
 62
     7
176
     1
 40
1.0
176
     1
 90
        1
176
     1
 90
        6
176
     1
 90
        2
176
     1
 62
     7
176
     1
 90
        5
176
     1
 90
        0
176
     1
 90
        0
176
     1
290
     0
176
     1
 90
        1
176
     1
 40
0.0
176
     1
 90
        0
176
     1
290
     0
176
     1
290
     1
176
     1
290
     1
176
     1
290
     0
176
     1
290
     0
176
     1
290
     0
176
     1
290
     0
176
     1
290
     0
176
     1
290
     0
176
     1
 90
       50
176
     1
 40
0.0
176
     1
 40
1.0
176
     1
 90
        0
176
     1
 62
    18
420
        0
176
     1
 90
       50
176
     1
 90
        3
176
     1
 62
     5
420
      255
176
     1
290
     0
176
     1
 90
       50
176
     1
 90
       50
176
     1
 90
       50
176
     1
290
     0
176
     1
 90
       50
176
     1
 62
   256
176
     0
 40
1.0
176
     0
 90
        2
176
     1
  1
strokes_ogs.tif
176
     1
290
     0
176
     1
 40
1.0
176
     1
 40
1.0
176
     1
  0
VISUALSTYLE
  5
2B
102
{ACAD_REACTORS
330
2A
102
}
330
2A
100
AcDbVisualStyle
  2
Flat
 70
     0
177
     3
291
     1
 70
    58
 90
        2
176
     1
 90
        1
176
     1
 90
        1
176
     1
 90
        2
176
     1
 40
0.6
176
     1
 40
30.0
176
     1
 62
     7
420
 16777215
176
     1
 90
        0
176
     1
 90
        0
176
     1
 62
     7
176
     1
 62
   257
176
     1
 90
        1
176
     1
 90
        1
176
     1
 40
1.0
176
     1
 90
        8
176
     1
 62
     7
176
     1
 40
1.0
176
     1
 90
        1
176
     1
 90
        6
176
     1
 90
        2
176
     1
 62
     7
176
     1
 90
        5
176
     1
 90
        0
176
     1
 90
        0
176
     1
290
     0
176
     1
 90
       13
176
     1
 40
0.0
176
     1
 90
        0
176
     1
290
     0
176
     1
290
     1
176
     1
290
     1
176
     1
290
     0
176
     1
290
     0
176
     1
290
     0
176
     1
290
     0
176
     1
290
     0
176
     1
290
     0
176
     1
 90
       50
176
     1
 40
0.0
176
     1
 40
1.0
176
     1
 90
        0
176
     1
 62
    18
420
        0
176
     1
 90
       50
176
     1
 90
        3
176
     1
 62
     5
420
      255
176
     1
290
     0
176
     1
 90
       50
176
     1
 90
       50
176
     1
 90
       50
176
     1
290
     0
176
     1
 90
       50
176
     1
 62
   256
176
     0
 40
1.0
176
     0
 90
        2
176
     1
  1
strokes_ogs.tif
176
     1
290
     0
176
     1
 40
1.0
176
     1
 40
1.0
176
     1
  0
VISUALSTYLE
  5
2C
102
{ACAD_REACTORS
330
2A
102
}
330
2A
100
AcDbVisualStyle
  2
FlatWithEdges
 70
     1
177
     3
291
     1
 70
    58
 90
        2
176
     1
 90
        1
176
     1
 90
        1
176
     1
 90
        2
176
     1
 40
0.6
176
     1
 40
30.0
176
     1
 62
     7
420
 16777215
176
     1
 90
        1
176
     1
 90
        0
176
     1
 62
     7
176
     1
 62
   257
176
     1
 90
        1
176
     1
 90
        1
176
     1
 40
1.0
176
     1
 90
        0
176
     1
 62
   257
176
     1
 40
1.0
176
     1
 90
        1
176
     1
 90
        6
176
     1
 90
        2
176
     1
 62
     7
176
     1
 90
        5
176
     1
 90
        0
176
     1
 90
        0
176
     1
290
     0
176
     1
 90
       13
176
     1
 40
0.0
176
     1
 90
        0
176
     1
290
     0
176
     1
290
     1
176
     1
290
     1
176
     1
290
     0
176
     1
290
     0
176
     1
290
     0
176
     1
290
     0
176
     1
290
     0
176
     1
290
     0
176
     1
 90
       50
176
     1
 40
0.0
176
     1
 40
1.0
176
     1
 90
        0
176
     1
 62
    18
420
        0
176
     1
 90
       50
176
     1
 90
        3
176
     1
 62
     5
420
      255
176
     1
290
     0
176
     1
 90
       50
176
     1
 90
       50
176
     1
 90
       50
176
     1
290
     0
176
     1
 90
       50
176
     1
 62
   256
176
     0
 40
1.0
176
     0
 90
        2
176
     1
  1
strokes_ogs.tif
176
     1
290
     0
176
     1
 40
1.0
176
     1
 40
1.0
176
     1
  0
VISUALSTYLE
  5
2D
102
{ACAD_REACTORS
330
2A
102
}
330
2A
100
AcDbVisualStyle
  2
Gouraud
 70
     2
177
     3
291
     1
 70
    58
 90
        2
176
     1
 90
        2
176
     1
 90
        1
176
     1
 90
        2
176
     1
 40
0.6
176
     1
 40
30.0
176
     1
 62
     7
420
 16777215
176
     1
 90
        0
176
     1
 90
        0
176
     1
 62
     7
176
     1
 62
   257
176
     1
 90
        1
176
     1
 90
        1
176
     1
 40
1.0
176
     1
 90
        0
176
     1
 62
     7
176
     1
 40
1.0
176
     1
 90
        1
176
     1
 90
        6
176
     1
 90
        2
176
     1
 62
     7
176
     1
 90
        5
176
     1
 90
        0
176
     1
 90
        0
176
     1
290
     0
176
     1
 90
       13
176
     1
 40
0.0
176
     1
 90
        0
176
     1
290
     0
176
     1
290
     1
176
     1
290
     1
176
     1
290
     0
176
     1
290
     0
176
     1
290
     0
176
     1
290
     0
176
     1
290
     0
176
     1
290
     0
176
     1
 90
       50
176
     1
 40
0.0
176
     1
 40
1.0
176
     1
 90
        0
176
     1
 62
    18
420
        0
176
     1
 90
       50
176
     1
 90
        3
176
     1
 62
     5
420
      255
176
     1
290
     0
176
     1
 90
       50
176
     1
 90
       50
176
     1
 90
       50
176
     1
290
     0
176
     1
 90
       50
176
     1
 62
   256
176
     0
 40
1.0
176
     0
 90
        2
176
     1
  1
strokes_ogs.tif
176
     1
290
     0
176
     1
 40
1.0
176
     1
 40
1.0
176
     1
  0
VISUALSTYLE
  5
2E
102
{ACAD_REACTORS
330
2A
102
}
330
2A
100
AcDbVisualStyle
  2
GouraudWithEdges
 70
     3
177
     3
291
     1
 70
    58
 90
        2
176
     1
 90
        2
176
     1
 90
        1
176
     1
 90
        2
176
     1
 40
0.6
176
     1
 40
30.0
176
     1
 62
     7
420
 16777215
176
     1
 90
        1
176
     1
 90
        0
176
     1
 62
     7
176
     1
 62
   257
176
     1
 90
        1
176
     1
 90
        1
176
     1
 40
1.0
176
     1
 90
        0
176
     1
 62
   257
176
     1
 40
1.0
176
     1
 90
        1
176
     1
 90
        6
176
     1
 90
        2
176
     1
 62
     7
176
     1
 90
        5
176
     1
 90
        0
176
     1
 90
        0
176
     1
290
     0
176
     1
 90
       13
176
     1
 40
0.0
176
     1
 90
        0
176
     1
290
     0
176
     1
290
     1
176
     1
290
     1
176
     1
290
     0
176
     1
290
     0
176
     1
290
     0
176
     1
290
     0
176
     1
290
     0
176
     1
290
     0
176
     1
 90
       50
176
     1
 40
0.0
176
     1
 40
1.0
176
     1
 90
        0
176
     1
 62
    18
420
        0
176
     1
 90
       50
176
     1
 90
        3
176
     1
 62
     5
420
      255
176
     1
290
     0
176
     1
 90
       50
176
     1
 90
       50
176
     1
 90
       50
176
     1
290
     0
176
     1
 90
       50
176
     1
 62
   256
176
     0
 40
1.0
176
     0
 90
        2
176
     1
  1
strokes_ogs.tif
176
     1
290
     0
176
     1
 40
1.0
176
     1
 40
1.0
176
     1
  0
VISUALSTYLE
  5
31
102
{ACAD_REACTORS
330
2A
102
}
330
2A
100
AcDbVisualStyle
  2
Hidden
 70
     6
177
     3
291
     0
 70
    58
 90
        1
176
     1
 90
        2
176
     1
 90
        2
176
     1
 90
        0
176
     1
 40
0.6
176
     1
 40
30.0
176
     1
 62
     7
420
 16777215
176
     1
 90
        2
176
     1
 90
        2
176
     1
 62
     7
176
     1
 62
   257
176
     1
 90
        2
176
     1
 90
        1
176
     1
 40
40.0
176
     1
 90
        0
176
     1
 62
   257
176
     1
 40
1.0
176
     1
 90
        1
176
     1
 90
        6
176
     1
 90
        2
176
     1
 62
     7
176
     1
 90
        3
176
     1
 90
        0
176
     1
 90
        0
176
     1
290
     0
176
     1
 90
        1
176
     1
 40
0.0
176
     1
 90
        0
176
     1
290
     0
176
     1
290
     1
176
     1
290
     1
176
     1
290
     0
176
     1
290
     0
176
     1
290
     0
176
     1
290
     0
176
     1
290
     0
176
     1
290
     0
176
     1
 90
       50
176
     1
 40
0.0
176
     1
 40
1.0
176
     1
 90
        0
176
     1
 62
    18
420
        0
176
     1
 90
       50
176
     1
 90
        3
176
     1
 62
     5
420
      255
176
     1
290
     0
176
     1
 90
       50
176
     1
 90
       50
176
     1
 90
       50
176
     1
290
     0
176
     1
 90
       50
176
     1
 62
   256
176
     0
 40
1.0
176
     0
 90
        2
176
     1
  1
strokes_ogs.tif
176
     1
290
     0
176
     1
 40
1.0
176
     1
 40
1.0
176
     1
  0
VISUALSTYLE
  5
3B
102
{ACAD_REACTORS
330
2A
102
}
330
2A
100
AcDbVisualStyle
  2
JitterOff
 70
    20
177
     3
291
     1
 70
    58
 90
        2
176
     0
 90
        2
176
     0
 90
        0
176
     0
 90
        0
176
     0
 40
0.6
176
     0
 40
30.0
176
     0
 62
     7
420
 16777215
176
     0
 90
        1
176
     0
 90
        4
176
     0
 62
     7
176
     0
 62
   257
176
     0
 90
        1
176
     0
 90
        1
176
     0
 40
1.0
176
     0
 90
       10
176
     2
 62
     7
176
     0
 40
1.0
176
     0
 90
        1
176
     0
 90
        6
176
     0
 90
        2
176
     0
 62
     7
176
     0
 90
        5
176
     0
 90
        0
176
     0
 90
        0
176
     0
290
     0
176
     0
 90
        1
176
     0
 40
0.0
176
     0
 90
        0
176
     0
290
     0
176
     0
290
     1
176
     0
290
     1
176
     0
290
     0
176
     0
290
     0
176
     0
290
     0
176
     0
290
     0
176
     0
290
     0
176
     0
290
     0
176
     0
 90
       50
176
     0
 40
0.0
176
     0
 40
1.0
176
     0
 90
        0
176
     0
 62
    18
420
        0
176
     0
 90
       50
176
     0
 90
        3
176
     0
 62
     5
420
      255
176
     0
290
     0
176
     0
 90
       50
176
     0
 90
       50
176
     0
 90
       50
176
     0
290
     0
176
     0
 90
       50
176
     0
 62
   256
176
     0
 40
1.0
176
     0
 90
        2
176
     0
  1
strokes_ogs.tif
176
     0
290
     0
176
     0
 40
1.0
176
     0
 40
1.0
176
     0
  0
VISUALSTYLE
  5
38
102
{ACAD_REACTORS
330
2A
102
}
330
2A
100
AcDbVisualStyle
  2
Linepattern
 70
    14
177
     3
291
     1
 70
    58
 90
        2
176
     1
 90
        2
176
     1
 90
        0
176
     1
 90
        0
176
     1
 40
0.6
176
     1
 40
30.0
176
     1
 62
     7
420
 16777215
176
     1
 90
        1
176
     1
 90
        4
176
     1
 62
     7
176
     1
 62
   257
176
     1
 90
        7
176
     1
 90
        7
176
     1
 40
1.0
176
     1
 90
        8
176
     1
 62
     7
176
     1
 40
1.0
176
     1
 90
        1
176
     1
 90
        6
176
     1
 90
        2
176
     1
 62
     7
176
     1
 90
        5
176
     1
 90
        0
176
     1
 90
        0
176
     1
290
     0
176
     1
 90
        1
176
     1
 40
0.0
176
     1
 90
        0
176
     1
290
     0
176
     1
290
     1
176
     1
290
     1
176
     1
290
     0
176
     1
290
     0
176
     1
290
     0
176
     1
290
     0
176
     1
290
     0
176
     1
290
     0
176
     1
 90
       50
176
     1
 40
0.0
176
     1
 40
1.0
176
     1
 90
        0
176
     1
 62
    18
420
        0
176
     1
 90
       50
176
     1
 90
        3
176
     1
 62
     5
420
      255
176
     1
290
     0
176
     1
 90
       50
176
     1
 90
       50
176
     1
 90
       50
176
     1
290
     0
176
     1
 90
       50
176
     1
 62
   256
176
     0
 40
1.0
176
     0
 90
        2
176
     1
  1
strokes_ogs.tif
176
     1
290
     0
176
     1
 40
1.0
176
     1
 40
1.0
176
     1
  0
VISUALSTYLE
  5
3C
102
{ACAD_REACTORS
330
2A
102
}
330
2A
100
AcDbVisualStyle
  2
OverhangOff
 70
    21
177
     3
291
     1
 70
    58
 90
        2
176
     0
 90
        2
176
     0
 90
        0
176
     0
 90
        0
176
     0
 40
0.6
176
     0
 40
30.0
176
     0
 62
     7
420
 16777215
176
     0
 90
        1
176
     0
 90
        4
176
     0
 62
     7
176
     0
 62
   257
176
     0
 90
        1
176
     0
 90
        1
176
     0
 40
1.0
176
     0
 90
        9
176
     2
 62
     7
176
     0
 40
1.0
176
     0
 90
        1
176
     0
 90
        6
176
     0
 90
        2
176
     0
 62
     7
176
     0
 90
        5
176
     0
 90
        0
176
     0
 90
        0
176
     0
290
     0
176
     0
 90
        1
176
     0
 40
0.0
176
     0
 90
        0
176
     0
290
     0
176
     0
290
     1
176
     0
290
     1
176
     0
290
     0
176
     0
290
     0
176
     0
290
     0
176
     0
290
     0
176
     0
290
     0
176
     0
290
     0
176
     0
 90
       50
176
     0
 40
0.0
176
     0
 40
1.0
176
     0
 90
        0
176
     0
 62
    18
420
        0
176
     0
 90
       50
176
     0
 90
        3
176
     0
 62
     5
420
      255
176
     0
290
     0
176
     0
 90
       50
176
     0
 90
       50
176
     0
 90
       50
176
     0
290
     0
176
     0
 90
       50
176
     0
 62
   256
176
     0
 40
1.0
176
     0
 90
        2
176
     0
  1
strokes_ogs.tif
176
     0
290
     0
176
     0
 40
1.0
176
     0
 40
1.0
176
     0
  0
VISUALSTYLE
  5
33
102
{ACAD_REACTORS
330
2A
102
}
330
2A
100
AcDbVisualStyle
  2
Realistic
 70
     8
177
     3
291
     0
 70
    58
 90
        2
176
     1
 90
        3
176
     1
 90
        0
176
     1
 90
        2
176
     1
 40
0.6
176
     1
 40
30.0
176
     1
 62
     7
420
 16777215
176
     1
 90
        0
176
     1
 90
        0
176
     1
 62
     7
176
     1
 62
   257
176
     1
 90
        1
176
     1
 90
        1
176
     1
 40
1.0
176
     1
 90
        8
176
     1
 62
   257
176
     1
 40
1.0
176
     1
 90
        1
176
     1
 90
        6
176
     1
 90
        2
176
     1
 62
     7
176
     1
 90
        3
176
     1
 90
        0
176
     1
 90
        0
176
     1
290
     0
176
     1
 90
       13
176
     1
 40
0.0
176
     1
 90
        0
176
     1
290
     0
176
     1
290
     1
176
     1
290
     1
176
     1
290
     0
176
     1
290
     0
176
     1
290
     0
176
     1
290
     0
176
     1
290
     0
176
     1
290
     0
176
     1
 90
       50
176
     1
 40
0.0
176
     1
 40
1.0
176
     1
 90
        0
176
     1
 62
    18
420
        0
176
     1
 90
       50
176
     1
 90
        3
176
     1
 62
     5
420
      255
176
     1
290
     0
176
     1
 90
       50
176
     1
 90
       50
176
     1
 90
       50
176
     1
290
     0
176
     1
 90
       50
176
     1
 62
   256
176
     0
 40
1.0
176
     0
 90
        2
176
     1
  1
strokes_ogs.tif
176
     1
290
     0
176
     1
 40
1.0
176
     1
 40
1.0
176
     1
  0
VISUALSTYLE
  5
42
102
{ACAD_REACTORS
330
2A
102
}
330
2A
100
AcDbVisualStyle
  2
Shaded
 70
    27
177
     3
291
     0
 70
    58
 90
        2
176
     1
 90
        2
176
     1
 90
        1
176
     1
 90
        2
176
     1
 40
0.6
176
     1
 40
30.0
176
     1
 62
     7
420
 16777215
176
     1
 90
        0
176
     1
 90
        4
176
     1
 62
     7
176
     1
 62
   257
176
     1
 90
        1
176
     1
 90
        1
176
     1
 40
1.0
176
     1
 90
        8
176
     1
 62
   257
176
     1
 40
1.0
176
     1
 90
        1
176
     1
 90
        6
176
     1
 90
        2
176
     1
 62
     8
420
  7895160
176
     1
 90
        3
176
     1
 90
        0
176
     1
 90
        0
176
     1
290
     0
176
     1
 90
        5
176
     1
 40
0.0
176
     1
 90
        0
176
     1
290
     0
176
     1
290
     1
176
     1
290
     1
176
     1
290
     0
176
     1
290
     0
176
     1
290
     0
176
     1
290
     0
176
     1
290
     0
176
     1
290
     0
176
     1
 90
       50
176
     1
 40
0.0
176
     1
 40
1.0
176
     1
 90
        0
176
     1
 62
    18
420
        0
176
     1
 90
       50
176
     1
 90
        3
176
     1
 62
     5
420
      255
176
     1
290
     0
176
     1
 90
       50
176
     1
 90
       50
176
     1
 90
       50
176
     1
290
     0
176
     1
 90
       50
176
     1
 62
   256
176
     0
 40
1.0
176
     0
 90
        2
176
     1
  1
strokes_ogs.tif
176
     1
290
     0
176
     1
 40
1.0
176
     1
 40
1.0
176
     1
  0
VISUALSTYLE
  5
41
102
{ACAD_REACTORS
330
2A
102
}
330
2A
100
AcDbVisualStyle
  2
Shaded with edges
 70
    26
177
     3
291
     0
 70
    58
 90
        2
176
     1
 90
        2
176
     1
 90
        1
176
     1
 90
        2
176
     1
 40
0.6
176
     1
 40
30.0
176
     1
 62
     7
420
 16777215
176
     1
 90
        1
176
     1
 90
       10
176
     1
 62
     7
176
     1
 62
   257
176
     1
 90
        2
176
     1
 90
        1
176
     1
 40
1.0
176
     1
 90
        8
176
     1
 62
   257
176
     1
 40
1.0
176
     1
 90
        1
176
     1
 90
        6
176
     1
 90
        2
176
     1
 62
     7
176
     1
 90
        3
176
     1
 90
        0
176
     1
 90
        0
176
     1
290
     0
176
     1
 90
        5
176
     1
 40
0.0
176
     1
 90
        0
176
     1
290
     0
176
     1
290
     1
176
     1
290
     1
176
     1
290
     0
176
     1
290
     0
176
     1
290
     0
176
     1
290
     0
176
     1
290
     0
176
     1
290
     0
176
     1
 90
       50
176
     1
 40
0.0
176
     1
 40
1.0
176
     1
 90
        0
176
     1
 62
    18
420
        0
176
     1
 90
       50
176
     1
 90
        3
176
     1
 62
     5
420
      255
176
     1
290
     0
176
     1
 90
       50
176
     1
 90
       50
176
     1
 90
       50
176
     1
290
     0
176
     1
 90
       50
176
     1
 62
   256
176
     0
 40
1.0
176
     0
 90
        2
176
     1
  1
strokes_ogs.tif
176
     1
290
     0
176
     1
 40
1.0
176
     1
 40
1.0
176
     1
  0
VISUALSTYLE
  5
3E
102
{ACAD_REACTORS
330
2A
102
}
330
2A
100
AcDbVisualStyle
  2
Shades of Gray
 70
    23
177
     3
291
     0
 70
    58
 90
        2
176
     1
 90
        2
176
     1
 90
        3
176
     1
 90
        0
176
     1
 40
0.6
176
     1
 40
30.0
176
     1
 62
     7
420
 16777215
176
     1
 90
        2
176
     1
 90
        2
176
     1
 62
     7
176
     1
 62
     7
176
     1
 90
        1
176
     1
 90
        1
176
     1
 40
40.0
176
     1
 90
        8
176
     1
 62
     7
176
     1
 40
1.0
176
     1
 90
        1
176
     1
 90
        6
176
     1
 90
        2
176
     1
 62
     7
176
     1
 90
        3
176
     1
 90
        0
176
     1
 90
        0
176
     1
290
     0
176
     1
 90
        1
176
     1
 40
0.0
176
     1
 90
        0
176
     1
290
     0
176
     1
290
     1
176
     1
290
     1
176
     1
290
     0
176
     1
290
     0
176
     1
290
     0
176
     1
290
     0
176
     1
290
     0
176
     1
290
     0
176
     1
 90
       50
176
     1
 40
0.0
176
     1
 40
1.0
176
     1
 90
        0
176
     1
 62
    18
420
        0
176
     1
 90
       50
176
     1
 90
        3
176
     1
 62
     5
420
      255
176
     1
290
     0
176
     1
 90
       50
176
     1
 90
       50
176
     1
 90
       50
176
     1
290
     0
176
     1
 90
       50
176
     1
 62
   256
176
     0
 40
1.0
176
     0
 90
        2
176
     1
  1
strokes_ogs.tif
176
     1
290
     0
176
     1
 40
1.0
176
     1
 40
1.0
176
     1
  0
VISUALSTYLE
  5
3F
102
{ACAD_REACTORS
330
2A
102
}
330
2A
100
AcDbVisualStyle
  2
Sketchy
 70
    24
177
     3
291
     0
 70
    58
 90
        1
176
     1
 90
        2
176
     1
 90
        2
176
     1
 90
        0
176
     1
 40
0.6
176
     1
 40
30.0
176
     1
 62
     7
420
 16777215
176
     1
 90
        2
176
     1
 90
        2
176
     1
 62
     7
176
     1
 62
     7
176
     1
 90
        1
176
     1
 90
        1
176
     1
 40
40.0
176
     1
 90
       11
176
     1
 62
     7
176
     1
 40
1.0
176
     1
 90
        1
176
     1
 90
        6
176
     1
 90
        2
176
     1
 62
     7
176
     1
 90
        6
176
     1
 90
        0
176
     1
 90
        0
176
     1
290
     0
176
     1
 90
        1
176
     1
 40
0.0
176
     1
 90
        0
176
     1
290
     0
176
     1
290
     1
176
     1
290
     1
176
     1
290
     0
176
     1
290
     0
176
     1
290
     0
176
     1
290
     0
176
     1
290
     0
176
     1
290
     0
176
     1
 90
       50
176
     1
 40
0.0
176
     1
 40
1.0
176
     1
 90
        0
176
     1
 62
    18
420
        0
176
     1
 90
       50
176
     1
 90
        3
176
     1
 62
     5
420
      255
176
     1
290
     0
176
     1
 90
       50
176
     1
 90
       50
176
     1
 90
       50
176
     1
290
     0
176
     1
 90
       50
176
     1
 62
   256
176
     0
 40
1.0
176
     0
 90
        2
176
     1
  1
strokes_ogs.tif
176
     1
290
     0
176
     1
 40
1.0
176
     1
 40
1.0
176
     1
  0
VISUALSTYLE
  5
37
102
{ACAD_REACTORS
330
2A
102
}
330
2A
100
AcDbVisualStyle
  2
Thicken
 70
    13
177
     3
291
     1
 70
    58
 90
        2
176
     1
 90
        2
176
     1
 90
        0
176
     1
 90
        0
176
     1
 40
0.6
176
     1
 40
30.0
176
     1
 62
     7
420
 16777215
176
     1
 90
        1
176
     1
 90
        4
176
     1
 62
     7
176
     1
 62
   257
176
     1
 90
        1
176
     1
 90
        1
176
     1
 40
1.0
176
     1
 90
       12
176
     1
 62
     7
176
     1
 40
1.0
176
     1
 90
        1
176
     1
 90
        6
176
     1
 90
        2
176
     1
 62
     7
176
     1
 90
        5
176
     1
 90
        0
176
     1
 90
        0
176
     1
290
     0
176
     1
 90
        1
176
     1
 40
0.0
176
     1
 90
        0
176
     1
290
     0
176
     1
290
     1
176
     1
290
     1
176
     1
290
     0
176
     1
290
     0
176
     1
290
     0
176
     1
290
     0
176
     1
290
     0
176
     1
290
     0
176
     1
 90
       50
176
     1
 40
0.0
176
     1
 40
1.0
176
     1
 90
        0
176
     1
 62
    18
420
        0
176
     1
 90
       50
176
     1
 90
        3
176
     1
 62
     5
420
      255
176
     1
290
     0
176
     1
 90
       50
176
     1
 90
       50
176
     1
 90
       50
176
     1
290
     0
176
     1
 90
       50
176
     1
 62
   256
176
     0
 40
1.0
176
     0
 90
        2
176
     1
  1
strokes_ogs.tif
176
     1
290
     0
176
     1
 40
1.0
176
     1
 40
1.0
176
     1
  0
VISUALSTYLE
  5
30
102
{ACAD_REACTORS
330
2A
102
}
330
2A
100
AcDbVisualStyle
  2
Wireframe
 70
     5
177
     3
291
     0
 70
    58
 90
        0
176
     1
 90
        2
176
     1
 90
        0
176
     1
 90
        0
176
     1
 40
0.6
176
     1
 40
30.0
176
     1
 62
     7
420
 16777215
176
     1
 90
        1
176
     1
 90
        4
176
     1
 62
     7
176
     1
 62
   257
176
     1
 90
        1
176
     1
 90
        1
176
     1
 40
1.0
176
     1
 90
        0
176
     1
 62
   257
176
     1
 40
1.0
176
     1
 90
        1
176
     1
 90
        6
176
     1
 90
        2
176
     1
 62
     7
176
     1
 90
        3
176
     1
 90
        0
176
     1
 90
        0
176
     1
290
     0
176
     1
 90
        1
176
     1
 40
0.0
176
     1
 90
        0
176
     1
290
     0
176
     1
290
     1
176
     1
290
     1
176
     1
290
     0
176
     1
290
     0
176
     1
290
     0
176
     1
290
     0
176
     1
290
     0
176
     1
290
     0
176
     1
 90
       50
176
     1
 40
0.0
176
     1
 40
1.0
176
     1
 90
        0
176
     1
 62
    18
420
        0
176
     1
 90
       50
176
     1
 90
        3
176
     1
 62
     5
420
      255
176
     1
290
     0
176
     1
 90
       50
176
     1
 90
       50
176
     1
 90
       50
176
     1
290
     0
176
     1
 90
       50
176
     1
 62
   256
176
     0
 40
1.0
176
     0
 90
        2
176
     1
  1
strokes_ogs.tif
176
     1
290
     0
176
     1
 40
1.0
176
     1
 40
1.0
176
     1
  0
VISUALSTYLE
  5
40
102
{ACAD_REACTORS
330
2A
102
}
330
2A
100
AcDbVisualStyle
  2
X-Ray
 70
    25
177
     3
291
     0
 70
    58
 90
        2
176
     1
 90
        2
176
     1
 90
        1
176
     1
 90
        1
176
     1
 40
0.5
176
     1
 40
30.0
176
     1
 62
     7
420
 16777215
176
     1
 90
        1
176
     1
 90
        0
176
     1
 62
     7
176
     1
 62
   257
176
     1
 90
        1
176
     1
 90
        1
176
     1
 40
1.0
176
     1
 90
        8
176
     1
 62
     7
176
     1
 40
1.0
176
     1
 90
        1
176
     1
 90
        6
176
     1
 90
        2
176
     1
 62
     7
176
     1
 90
        3
176
     1
 90
        0
176
     1
 90
        0
176
     1
290
     0
176
     1
 90
       13
176
     1
 40
0.0
176
     1
 90
        0
176
     1
290
     0
176
     1
290
     1
176
     1
290
     1
176
     1
290
     0
176
     1
290
     0
176
     1
290
     0
176
     1
290
     0
176
     1
290
     0
176
     1
290
     0
176
     1
 90
       50
176
     1
 40
0.0
176
     1
 40
1.0
176
     1
 90
        0
176
     1
 62
    18
420
        0
176
     1
 90
       50
176
     1
 90
        3
176
     1
 62
     5
420
      255
176
     1
290
     0
176
     1
 90
       50
176
     1
 90
       50
176
     1
 90
       50
176
     1
290
     0
176
     1
 90
       50
176
     1
 62
   256
176
     0
 40
1.0
176
     0
 90
        2
176
     1
  1
strokes_ogs.tif
176
     1
290
     0
176
     1
 40
1.0
176
     1
 40
1.0
176
     1
  0
DICTIONARYVAR
  5
F5
102
{ACAD_REACTORS
330
F4
102
}
330
F4
100
DictionaryVariables
280
     0
  1
1:1
  0
DICTIONARYVAR
  5
FD
102
{ACAD_REACTORS
330
F4
102
}
330
F4
100
DictionaryVariables
280
     0
  1
3.500000
  0
DICTIONARYVAR
  5
FE
102
{ACAD_REACTORS
330
F4
102
}
330
F4
100
DictionaryVariables
280
     0
  1
acadiso.lin
  0
DICTIONARYVAR
  5
FA
102
{ACAD_REACTORS
330
F4
102
}
330
F4
100
DictionaryVariables
280
     0
  1
Standard
  0
DICTIONARYVAR
  5
F9
102
{ACAD_REACTORS
330
F4
102
}
330
F4
100
DictionaryVariables
280
     0
  1
Standard
  0
DICTIONARY
  5
F6
330
6A
100
AcDbDictionary
280
     1
281
     1
  3
ACAD_ROUNDTRIP_2008_TABLESTYLE_CELLSTYLEMAP
360
F7
  0
CELLSTYLEMAP
  5
F7
102
{ACAD_REACTORS
330
F6
102
}
330
F6
100
AcDbCellStyleMap
 90
        3
300
CELLSTYLE
  1
TABLEFORMAT_BEGIN
 90
        5
170
     1
 91
        0
 92
    32768
 62
   257
 93
        1
300
CONTENTFORMAT
  1
CONTENTFORMAT_BEGIN
 90
        0
 91
        0
 92
        4
 93
        0
300

 40
0.0
140
1.0
 94
        5
 62
     0
340
11
144
6.0
309
CONTENTFORMAT_END
171
     1
301
MARGIN
  1
CELLMARGIN_BEGIN
 40
1.5
 40
1.5
 40
1.5
 40
1.5
 40
1.5
 40
1.5
309
CELLMARGIN_END
 94
        6
 95
        1
302
GRIDFORMAT
  1
GRIDFORMAT_BEGIN
 90
        0
 91
        1
 62
     0
 92
       -2
340
14
 93
        0
 40
0.045
309
GRIDFORMAT_END
 95
        2
302
GRIDFORMAT
  1
GRIDFORMAT_BEGIN
 90
        0
 91
        1
 62
     0
 92
       -2
340
14
 93
        0
 40
0.045
309
GRIDFORMAT_END
 95
        4
302
GRIDFORMAT
  1
GRIDFORMAT_BEGIN
 90
        0
 91
        1
 62
     0
 92
       -2
340
14
 93
        0
 40
0.045
309
GRIDFORMAT_END
 95
        8
302
GRIDFORMAT
  1
GRIDFORMAT_BEGIN
 90
        0
 91
        1
 62
     0
 92
       -2
340
14
 93
        0
 40
0.045
309
GRIDFORMAT_END
 95
       16
302
GRIDFORMAT
  1
GRIDFORMAT_BEGIN
 90
        0
 91
        1
 62
     0
 92
       -2
340
14
 93
        0
 40
0.045
309
GRIDFORMAT_END
 95
       32
302
GRIDFORMAT
  1
GRIDFORMAT_BEGIN
 90
        0
 91
        1
 62
     0
 92
       -2
340
14
 93
        0
 40
0.045
309
GRIDFORMAT_END
309
TABLEFORMAT_END
  1
CELLSTYLE_BEGIN
 90
        1
 91
        1
300
_TITLE
309
CELLSTYLE_END
300
CELLSTYLE
  1
TABLEFORMAT_BEGIN
 90
        5
170
     1
 91
        0
 92
        0
 62
   257
 93
        1
300
CONTENTFORMAT
  1
CONTENTFORMAT_BEGIN
 90
        0
 91
        0
 92
        4
 93
        0
300

 40
0.0
140
1.0
 94
        5
 62
     0
340
11
144
4.5
309
CONTENTFORMAT_END
171
     1
301
MARGIN
  1
CELLMARGIN_BEGIN
 40
1.5
 40
1.5
 40
1.5
 40
1.5
 40
1.5
 40
1.5
309
CELLMARGIN_END
 94
        6
 95
        1
302
GRIDFORMAT
  1
GRIDFORMAT_BEGIN
 90
        0
 91
        1
 62
     0
 92
       -2
340
14
 93
        0
 40
0.045
309
GRIDFORMAT_END
 95
        2
302
GRIDFORMAT
  1
GRIDFORMAT_BEGIN
 90
        0
 91
        1
 62
     0
 92
       -2
340
14
 93
        0
 40
0.045
309
GRIDFORMAT_END
 95
        4
302
GRIDFORMAT
  1
GRIDFORMAT_BEGIN
 90
        0
 91
        1
 62
     0
 92
       -2
340
14
 93
        0
 40
0.045
309
GRIDFORMAT_END
 95
        8
302
GRIDFORMAT
  1
GRIDFORMAT_BEGIN
 90
        0
 91
        1
 62
     0
 92
       -2
340
14
 93
        0
 40
0.045
309
GRIDFORMAT_END
 95
       16
302
GRIDFORMAT
  1
GRIDFORMAT_BEGIN
 90
        0
 91
        1
 62
     0
 92
       -2
340
14
 93
        0
 40
0.045
309
GRIDFORMAT_END
 95
       32
302
GRIDFORMAT
  1
GRIDFORMAT_BEGIN
 90
        0
 91
        1
 62
     0
 92
       -2
340
14
 93
        0
 40
0.045
309
GRIDFORMAT_END
309
TABLEFORMAT_END
  1
CELLSTYLE_BEGIN
 90
        2
 91
        1
300
_HEADER
309
CELLSTYLE_END
300
CELLSTYLE
  1
TABLEFORMAT_BEGIN
 90
        5
170
     1
 91
        0
 92
        0
 62
   257
 93
        1
300
CONTENTFORMAT
  1
CONTENTFORMAT_BEGIN
 90
        0
 91
        0
 92
        4
 93
        0
300

 40
0.0
140
1.0
 94
        2
 62
     0
340
11
144
4.5
309
CONTENTFORMAT_END
171
     1
301
MARGIN
  1
CELLMARGIN_BEGIN
 40
1.5
 40
1.5
 40
1.5
 40
1.5
 40
1.5
 40
1.5
309
CELLMARGIN_END
 94
        6
 95
        1
302
GRIDFORMAT
  1
GRIDFORMAT_BEGIN
 90
        0
 91
        1
 62
     0
 92
       -2
340
14
 93
        0
 40
0.045
309
GRIDFORMAT_END
 95
        2
302
GRIDFORMAT
  1
GRIDFORMAT_BEGIN
 90
        0
 91
        1
 62
     0
 92
       -2
340
14
 93
        0
 40
0.045
309
GRIDFORMAT_END
 95
        4
302
GRIDFORMAT
  1
GRIDFORMAT_BEGIN
 90
        0
 91
        1
 62
     0
 92
       -2
340
14
 93
        0
 40
0.045
309
GRIDFORMAT_END
 95
        8
302
GRIDFORMAT
  1
GRIDFORMAT_BEGIN
 90
        0
 91
        1
 62
     0
 92
       -2
340
14
 93
        0
 40
0.045
309
GRIDFORMAT_END
 95
       16
302
GRIDFORMAT
  1
GRIDFORMAT_BEGIN
 90
        0
 91
        1
 62
     0
 92
       -2
340
14
 93
        0
 40
0.045
309
GRIDFORMAT_END
 95
       32
302
GRIDFORMAT
  1
GRIDFORMAT_BEGIN
 90
        0
 91
        1
 62
     0
 92
       -2
340
14
 93
        0
 40
0.045
309
GRIDFORMAT_END
309
TABLEFORMAT_END
  1
CELLSTYLE_BEGIN
 90
        3
 91
        2
300
_DATA
309
CELLSTYLE_END
  0
ENDSEC
  0
EOF
