  0
SECTION
  2
HEADER
  9
$ACADVER
  1
AC1027
  9
$ACADMAINTVER
 70
   105
  9
$DWGCODEPAGE
  3
ANSI_1252
  9
$REQUIREDVERSIONS
160
                 0
  9
$INSBASE
 10
0.0
 20
0.0
 30
0.0
  9
$EXTMIN
 10
-75.0
 20
-15.0
 30
0.0
  9
$EXTMAX
 10
75.0
 20
15.0
 30
0.0
  9
$LIMMIN
 10
0.0
 20
0.0
  9
$LIMMAX
 10
420.0
 20
297.0
  9
$ORTHOMODE
 70
     0
  9
$REGENMODE
 70
     1
  9
$FILLMODE
 70
     1
  9
$QTEXTMODE
 70
     0
  9
$MIRRTEXT
 70
     1
  9
$LTSCALE
 40
1.0
  9
$ATTMODE
 70
     1
  9
$TEXTSIZE
 40
3.5
  9
$TRACEWID
 40
1.0
  9
$TEXTSTYLE
  7
Standard
  9
$CLAYER
  8
0
  9
$CELTYPE
  6
ByLayer
  9
$CECOLOR
 62
   256
  9
$CELTSCALE
 40
1.0
  9
$DISPSILH
 70
     0
  9
$DIMSCALE
 40
1.0
  9
$DIMASZ
 40
3.302
  9
$DIMEXO
 40
1.0
  9
$DIMDLI
 40
3.75
  9
$DIMRND
 40
0.0
  9
$DIMDLE
 40
0.0
  9
$DIMEXE
 40
1.0
  9
$DIMTP
 40
0.0
  9
$DIMTM
 40
0.0
  9
$DIMTXT
 40
3.5
  9
$DIMCEN
 40
2.5
  9
$DIMTSZ
 40
0.0
  9
$DIMTOL
 70
     0
  9
$DIMLIM
 70
     0
  9
$DIMTIH
 70
     1
  9
$DIMTOH
 70
     1
  9
$DIMSE1
 70
     0
  9
$DIMSE2
 70
     0
  9
$DIMTAD
 70
     1
  9
$DIMZIN
 70
     1
  9
$DIMBLK
  1

  9
$DIMASO
 70
     1
  9
$DIMSHO
 70
     1
  9
$DIMPOST
  1

  9
$DIMAPOST
  1

  9
$DIMALT
 70
     0
  9
$DIMALTD
 70
     3
  9
$DIMALTF
 40
0.0393700787
  9
$DIMLFAC
 40
1.0
  9
$DIMTOFL
 70
     1
  9
$DIMTVP
 40
0.0
  9
$DIMTIX
 70
     0
  9
$DIMSOXD
 70
     0
  9
$DIMSAH
 70
     0
  9
$DIMBLK1
  1

  9
$DIMBLK2
  1

  9
$DIMSTYLE
  2
ISO-25
  9
$DIMCLRD
 70
     0
  9
$DIMCLRE
 70
     0
  9
$DIMCLRT
 70
     0
  9
$DIMTFAC
 40
1.0
  9
$DIMGAP
 40
1.524
  9
$DIMJUST
 70
     0
  9
$DIMSD1
 70
     0
  9
$DIMSD2
 70
     0
  9
$DIMTOLJ
 70
     0
  9
$DIMTZIN
 70
     1
  9
$DIMALTZ
 70
     0
  9
$DIMALTTZ
 70
     0
  9
$DIMUPT
 70
     0
  9
$DIMDEC
 70
     2
  9
$DIMTDEC
 70
     2
  9
$DIMALTU
 70
     2
  9
$DIMALTTD
 70
     3
  9
$DIMTXSTY
  7
Standard
  9
$DIMAUNIT
 70
     0
  9
$DIMADEC
 70
     2
  9
$DIMALTRND
 40
0.0
  9
$DIMAZIN
 70
     0
  9
$DIMDSEP
 70
    44
  9
$DIMATFIT
 70
     3
  9
$DIMFRAC
 70
     0
  9
$DIMLDRBLK
  1

  9
$DIMLUNIT
 70
     2
  9
$DIMLWD
 70
    -2
  9
$DIMLWE
 70
    -2
  9
$DIMTMOVE
 70
     0
  9
$DIMFXL
 40
1.0
  9
$DIMFXLON
 70
     0
  9
$DIMJOGANG
 40
0.7853981634
  9
$DIMTFILL
 70
     0
  9
$DIMTFILLCLR
 70
     0
  9
$DIMARCSYM
 70
     0
  9
$DIMLTYPE
  6

  9
$DIMLTEX1
  6

  9
$DIMLTEX2
  6

  9
$DIMTXTDIRECTION
 70
     0
  9
$LUNITS
 70
     2
  9
$LUPREC
 70
     2
  9
$SKETCHINC
 40
1.0
  9
$FILLETRAD
 40
10.0
  9
$AUNITS
 70
     0
  9
$AUPREC
 70
     2
  9
$MENU
  1
.
  9
$ELEVATION
 40
0.0
  9
$PELEVATION
 40
0.0
  9
$THICKNESS
 40
0.0
  9
$LIMCHECK
 70
     0
  9
$CHAMFERA
 40
0.0
  9
$CHAMFERB
 40
0.0
  9
$CHAMFERC
 40
0.0
  9
$CHAMFERD
 40
0.0
  9
$SKPOLY
 70
     0
  9
$TDCREATE
 40
2461229.451443588
  9
$TDUCREATE
 40
2461229.576443588
  9
$TDUPDATE
 40
2461229.451455764
  9
$TDUUPDATE
 40
2461229.576455764
  9
$TDINDWG
 40
0.0000000116
  9
$TDUSRTIMER
 40
0.0000000116
  9
$USRTIMER
 70
     1
  9
$ANGBASE
 50
0.0
  9
$ANGDIR
 70
     0
  9
$PDMODE
 70
     0
  9
$PDSIZE
 40
-1.0
  9
$PLINEWID
 40
0.0
  9
$SPLFRAME
 70
     0
  9
$SPLINETYPE
 70
     6
  9
$SPLINESEGS
 70
     8
  9
$HANDSEED
  5
DD
  9
$SURFTAB1
 70
     6
  9
$SURFTAB2
 70
     6
  9
$SURFTYPE
 70
     6
  9
$SURFU
 70
     6
  9
$SURFV
 70
     6
  9
$UCSBASE
  2

  9
$UCSNAME
  2

  9
$UCSORG
 10
0.0
 20
0.0
 30
0.0
  9
$UCSXDIR
 10
1.0
 20
0.0
 30
0.0
  9
$UCSYDIR
 10
0.0
 20
1.0
 30
0.0
  9
$UCSORTHOREF
  2

  9
$UCSORTHOVIEW
 70
     0
  9
$UCSORGTOP
 10
0.0
 20
0.0
 30
0.0
  9
$UCSORGBOTTOM
 10
0.0
 20
0.0
 30
0.0
  9
$UCSORGLEFT
 10
0.0
 20
0.0
 30
0.0
  9
$UCSORGRIGHT
 10
0.0
 20
0.0
 30
0.0
  9
$UCSORGFRONT
 10
0.0
 20
0.0
 30
0.0
  9
$UCSORGBACK
 10
0.0
 20
0.0
 30
0.0
  9
$PUCSBASE
  2

  9
$PUCSNAME
  2

  9
$PUCSORG
 10
0.0
 20
0.0
 30
0.0
  9
$PUCSXDIR
 10
1.0
 20
0.0
 30
0.0
  9
$PUCSYDIR
 10
0.0
 20
1.0
 30
0.0
  9
$PUCSORTHOREF
  2

  9
$PUCSORTHOVIEW
 70
     0
  9
$PUCSORGTOP
 10
0.0
 20
0.0
 30
0.0
  9
$PUCSORGBOTTOM
 10
0.0
 20
0.0
 30
0.0
  9
$PUCSORGLEFT
 10
0.0
 20
0.0
 30
0.0
  9
$PUCSORGRIGHT
 10
0.0
 20
0.0
 30
0.0
  9
$PUCSORGFRONT
 10
0.0
 20
0.0
 30
0.0
  9
$PUCSORGBACK
 10
0.0
 20
0.0
 30
0.0
  9
$USERI1
 70
     0
  9
$USERI2
 70
     0
  9
$USERI3
 70
     0
  9
$USERI4
 70
     0
  9
$USERI5
 70
     0
  9
$USERR1
 40
0.0
  9
$USERR2
 40
0.0
  9
$USERR3
 40
0.0
  9
$USERR4
 40
0.0
  9
$USERR5
 40
0.0
  9
$WORLDVIEW
 70
     1
  9
$SHADEDGE
 70
     3
  9
$SHADEDIF
 70
    70
  9
$TILEMODE
 70
     1
  9
$MAXACTVP
 70
    64
  9
$PINSBASE
 10
0.0
 20
0.0
 30
0.0
  9
$PLIMCHECK
 70
     0
  9
$PEXTMIN
 10
1.0000000000E+20
 20
1.0000000000E+20
 30
1.0000000000E+20
  9
$PEXTMAX
 10
-1.0000000000E+20
 20
-1.0000000000E+20
 30
-1.0000000000E+20
  9
$PLIMMIN
 10
0.0
 20
0.0
  9
$PLIMMAX
 10
420.0
 20
297.0
  9
$UNITMODE
 70
     0
  9
$VISRETAIN
 70
     1
  9
$PLINEGEN
 70
     0
  9
$PSLTSCALE
 70
     1
  9
$TREEDEPTH
 70
  3020
  9
$CMLSTYLE
  2
Standard
  9
$CMLJUST
 70
     0
  9
$CMLSCALE
 40
20.0
  9
$PROXYGRAPHICS
 70
     1
  9
$MEASUREMENT
 70
     1
  9
$CELWEIGHT
370
    -1
  9
$ENDCAPS
280
     0
  9
$JOINSTYLE
280
     0
  9
$LWDISPLAY
290
     1
  9
$INSUNITS
 70
     4
  9
$HYPERLINKBASE
  1

  9
$STYLESHEET
  1

  9
$XEDIT
290
     1
  9
$CEPSNTYPE
380
     0
  9
$PSTYLEMODE
290
     1
  9
$FINGERPRINTGUID
  2
{581cc1a4-6dad-4af6-904d-10efa4b3c6a6}
  9
$VERSIONGUID
  2
{FAEB1C32-E019-11D5-929B-00C0DF256EC4}
  9
$EXTNAMES
290
     1
  9
$PSVPSCALE
 40
0.0
  9
$OLESTARTUP
290
     0
  9
$SORTENTS
280
   127
  9
$INDEXCTL
280
     0
  9
$HIDETEXT
280
     1
  9
$XCLIPFRAME
280
     2
  9
$HALOGAP
280
     0
  9
$OBSCOLOR
 70
   257
  9
$OBSLTYPE
280
     0
  9
$INTERSECTIONDISPLAY
280
     0
  9
$INTERSECTIONCOLOR
 70
   257
  9
$DIMASSOC
280
     2
  9
$PROJECTNAME
  1

  9
$CAMERADISPLAY
290
     0
  9
$LENSLENGTH
 40
50.0
  9
$CAMERAHEIGHT
 40
0.0
  9
$STEPSPERSEC
 40
2.0
  9
$STEPSIZE
 40
6.0
  9
$3DDWFPREC
 40
2.0
  9
$PSOLWIDTH
 40
5.0
  9
$PSOLHEIGHT
 40
80.0
  9
$LOFTANG1
 40
1.5707963268
  9
$LOFTANG2
 40
1.5707963268
  9
$LOFTMAG1
 40
0.0
  9
$LOFTMAG2
 40
0.0
  9
$LOFTPARAM
 70
     7
  9
$LOFTNORMALS
280
     1
  9
$LATITUDE
 40
37.795
  9
$LONGITUDE
 40
-122.394
  9
$NORTHDIRECTION
 40
0.0
  9
$TIMEZONE
 70
 -8000
  9
$LIGHTGLYPHDISPLAY
280
     1
  9
$TILEMODELIGHTSYNCH
280
     1
  9
$CMATERIAL
347
44
  9
$SOLIDHIST
280
     0
  9
$SHOWHIST
280
     1
  9
$DWFFRAME
280
     2
  9
$DGNFRAME
280
     2
  9
$REALWORLDSCALE
290
     1
  9
$INTERFERECOLOR
 62
   256
  9
$CSHADOW
280
     0
  9
$SHADOWPLANELOCATION
 40
0.0
  0
ENDSEC
  0
SECTION
  2
CLASSES
  0
CLASS
  1
ACDBDICTIONARYWDFLT
  2
AcDbDictionaryWithDefault
  3
ObjectDBX Classes
 90
        0
 91
        3
280
     0
281
     0
  0
CLASS
  1
VISUALSTYLE
  2
AcDbVisualStyle
  3
ObjectDBX Classes
 90
     4095
 91
        3
280
     0
281
     0
  0
CLASS
  1
MATERIAL
  2
AcDbMaterial
  3
ObjectDBX Classes
 90
     1153
 91
        3
280
     0
281
     0
  0
CLASS
  1
SCALE
  2
AcDbScale
  3
ObjectDBX Classes
 90
     1153
 91
        3
280
     0
281
     0
  0
CLASS
  1
TABLESTYLE
  2
AcDbTableStyle
  3
ObjectDBX Classes
 90
     4095
 91
        3
280
     0
281
     0
  0
CLASS
  1
MLEADERSTYLE
  2
AcDbMLeaderStyle
  3
ACDB_MLEADERSTYLE_CLASS
 90
     4095
 91
        3
280
     0
281
     0
  0
CLASS
  1
SUN
  2
AcDbSun
  3
SCENEOE
 90
     1153
 91
        3
280
     0
281
     0
  0
CLASS
  1
DICTIONARYVAR
  2
AcDbDictionaryVar
  3
ObjectDBX Classes
 90
        0
 91
        3
280
     0
281
     0
  0
CLASS
  1
CELLSTYLEMAP
  2
AcDbCellStyleMap
  3
ObjectDBX Classes
 90
     1152
 91
        3
280
     0
281
     0
  0
ENDSEC
  0
SECTION
  2
TABLES
  0
TABLE
  2
VPORT
  5
8
330
0
100
AcDbSymbolTable
 70
     1
  0
VPORT
  5
29
330
8
100
AcDbSymbolTableRecord
100
AcDbViewportTableRecord
  2
*Active
 70
     0
 10
0.0
 20
0.0
 11
1.0
 21
1.0
 12
0.0
 22
0.0
 13
0.0
 23
0.0
 14
10.0
 24
10.0
 15
10.0
 25
10.0
 16
0.0
 26
0.0
 36
1.0
 17
0.0
 27
0.0
 37
0.0
 40
30.6
 41
5.0
 42
50.0
 43
0.0
 44
0.0
 50
0.0
 51
0.0
 71
     0
 72
   100
 73
     1
 74
     3
 75
     0
 76
     0
 77
     0
 78
     0
281
     0
 65
     1
110
0.0
120
0.0
130
0.0
111
1.0
121
0.0
131
0.0
112
0.0
122
1.0
132
0.0
 79
     0
146
0.0
348
2F
 60
     3
 61
     5
292
     1
282
     1
141
0.0
142
0.0
 63
   250
361
6D
  0
ENDTAB
  0
TABLE
  2
LTYPE
  5
5
330
0
100
AcDbSymbolTable
 70
     6
  0
LTYPE
  5
14
330
5
100
AcDbSymbolTableRecord
100
AcDbLinetypeTableRecord
  2
ByBlock
 70
     0
  3

 72
    65
 73
     0
 40
0.0
  0
LTYPE
  5
15
330
5
100
AcDbSymbolTableRecord
100
AcDbLinetypeTableRecord
  2
ByLayer
 70
     0
  3

 72
    65
 73
     0
 40
0.0
  0
LTYPE
  5
16
330
5
100
AcDbSymbolTableRecord
100
AcDbLinetypeTableRecord
  2
Continuous
 70
     0
  3
Solid line
 72
    65
 73
     0
 40
0.0
  0
LTYPE
  5
6E
330
5
100
AcDbSymbolTableRecord
100
AcDbLinetypeTableRecord
  2
HIDDEN
 70
     0
  3
Hidden __ __ __ __ __ __ __ __ __ __ __ __ __ __
 72
    65
 73
     2
 40
1.905
 49
1.27
 74
     0
 49
-0.635
 74
     0
  0
LTYPE
  5
6F
330
5
100
AcDbSymbolTableRecord
100
AcDbLinetypeTableRecord
  2
PHANTOM
 70
     0
  3
Phantom ______  __  __  ______  __  __  ______
 72
    65
 73
     6
 40
12.7
 49
6.35
 74
     0
 49
-1.27
 74
     0
 49
1.27
 74
     0
 49
-1.27
 74
     0
 49
1.27
 74
     0
 49
-1.27
 74
     0
  0
LTYPE
  5
70
330
5
100
AcDbSymbolTableRecord
100
AcDbLinetypeTableRecord
  2
CENTER
 70
     0
  3
Center ____ _ ____ _ ____ _ ____ _ ____ _ ____
 72
    65
 73
     4
 40
10.16
 49
6.35
 74
     0
 49
-1.27
 74
     0
 49
1.27
 74
     0
 49
-1.27
 74
     0
  0
LTYPE
  5
71
330
5
100
AcDbSymbolTableRecord
100
AcDbLinetypeTableRecord
  2
CENTERX2
 70
     0
  3
Center (2x) ________  __  ________  __  _____
 72
    65
 73
     4
 40
20.32
 49
12.7
 74
     0
 49
-2.54
 74
     0
 49
2.54
 74
     0
 49
-2.54
 74
     0
  0
LTYPE
  5
72
330
5
100
AcDbSymbolTableRecord
100
AcDbLinetypeTableRecord
  2
DOT2
 70
     0
  3
Dot (.5x) ........................................
 72
    65
 73
     2
 40
0.635
 49
0.0
 74
     0
 49
-0.635
 74
     0
  0
ENDTAB
  0
TABLE
  2
LAYER
  5
2
330
0
100
AcDbSymbolTable
 70
     1
  0
LAYER
  5
10
330
2
100
AcDbSymbolTableRecord
100
AcDbLayerTableRecord
  2
0
 70
     0
 62
     7
  6
Continuous
370
    -3
390
F
347
46
348
0
  0
ENDTAB
  0
TABLE
  2
STYLE
  5
3
330
0
100
AcDbSymbolTable
 70
     1
  0
STYLE
  5
11
330
3
100
AcDbSymbolTableRecord
100
AcDbTextStyleTableRecord
  2
Standard
 70
     0
 40
0.0
 41
1.0
 50
0.0
 71
     0
 42
3.5
  3
txt
  4

  0
ENDTAB
  0
TABLE
  2
VIEW
  5
6
330
0
100
AcDbSymbolTable
 70
     0
  0
ENDTAB
  0
TABLE
  2
UCS
  5
7
330
0
100
AcDbSymbolTable
 70
     0
  0
ENDTAB
  0
TABLE
  2
APPID
  5
9
330
0
100
AcDbSymbolTable
 70
     1
  0
APPID
  5
12
330
9
100
AcDbSymbolTableRecord
100
AcDbRegAppTableRecord
  2
ACAD
 70
     0
  0
ENDTAB
  0
TABLE
  2
DIMSTYLE
  5
A
330
0
100
AcDbSymbolTable
 70
     1
100
AcDbDimStyleTable
  0
DIMSTYLE
105
27
330
A
100
AcDbSymbolTableRecord
100
AcDbDimStyleTableRecord
  2
ISO-25
 70
     0
 41
2.5
 42
0.625
 43
3.75
 44
1.25
 73
     0
 74
     0
 77
     1
 78
     8
140
2.5
141
2.5
143
0.0393700787
147
0.625
171
     3
172
     1
178
     0
271
     2
272
     2
274
     3
278
    44
283
     0
284
     8
340
11
  0
ENDTAB
  0
TABLE
  2
BLOCK_RECORD
  5
1
330
0
100
AcDbSymbolTable
 70
     1
  0
BLOCK_RECORD
  5
1F
330
1
100
AcDbSymbolTableRecord
100
AcDbBlockTableRecord
  2
*Model_Space
340
22
 70
     0
280
     1
281
     0
  0
BLOCK_RECORD
  5
1B
330
1
100
AcDbSymbolTableRecord
100
AcDbBlockTableRecord
  2
*Paper_Space
340
1E
 70
     0
280
     1
281
     0
  0
BLOCK_RECORD
  5
23
330
1
100
AcDbSymbolTableRecord
100
AcDbBlockTableRecord
  2
*Paper_Space0
340
26
 70
     0
280
     1
281
     0
  0
ENDTAB
  0
ENDSEC
  0
SECTION
  2
BLOCKS
  0
BLOCK
  5
20
330
1F
100
AcDbEntity
  8
0
100
AcDbBlockBegin
  2
*Model_Space
 70
     0
 10
0.0
 20
0.0
 30
0.0
  3
*Model_Space
  1

  0
ENDBLK
  5
21
330
1F
100
AcDbEntity
  8
0
100
AcDbBlockEnd
  0
BLOCK
  5
1C
330
1B
100
AcDbEntity
 67
     1
  8
0
100
AcDbBlockBegin
  2
*Paper_Space
 70
     0
 10
0.0
 20
0.0
 30
0.0
  3
*Paper_Space
  1

  0
ENDBLK
  5
1D
330
1B
100
AcDbEntity
 67
     1
  8
0
100
AcDbBlockEnd
  0
BLOCK
  5
24
330
23
100
AcDbEntity
  8
0
100
AcDbBlockBegin
  2
*Paper_Space0
 70
     0
 10
0.0
 20
0.0
 30
0.0
  3
*Paper_Space0
  1

  0
ENDBLK
  5
25
330
23
100
AcDbEntity
  8
0
100
AcDbBlockEnd
  0
ENDSEC
  0
SECTION
  2
ENTITIES
  0
LINE
  5
73
330
1F
100
AcDbEntity
  8
0
  6
Continuous
 62
     7
370
    25
100
AcDbLine
 10
75.0
 20
-15.0
 30
0.0
 11
75.0
 21
15.0
 31
0.0
  0
LINE
  5
74
330
1F
100
AcDbEntity
  8
0
  6
Continuous
 62
     7
370
    25
100
AcDbLine
 10
75.0
 20
15.0
 30
0.0
 11
-75.0
 21
15.0
 31
0.0
  0
LINE
  5
75
330
1F
100
AcDbEntity
  8
0
  6
Continuous
 62
     7
370
    25
100
AcDbLine
 10
-75.0
 20
15.0
 30
0.0
 11
-75.0
 21
-15.0
 31
0.0
  0
LINE
  5
76
330
1F
100
AcDbEntity
  8
0
  6
Continuous
 62
     7
370
    25
100
AcDbLine
 10
-75.0
 20
-15.0
 30
0.0
 11
75.0
 21
-15.0
 31
0.0
  0
SPLINE
  5
77
330
1F
100
AcDbEntity
  8
0
  6
Continuous
 62
     7
370
    25
100
AcDbSpline
210
0.0
220
0.0
230
1.0
 70
     8
 71
     3
 72
    23
 73
    19
 74
     0
 42
0.000000001
 43
0.00000001
 40
0.0
 40
0.0
 40
0.0
 40
0.0
 40
0.0784461550548299
 40
0.1522617289642865
 40
0.2212449727755535
 40
0.2863179264206421
 40
0.3479222527369604
 40
0.4068365367914438
 40
0.4632620686442439
 40
0.5181743771826249
 40
0.572319413599433
 40
0.6269611405833355
 40
0.6821223002908543
 40
0.7394712803166041
 40
0.7991449634971216
 40
0.8623368564737953
 40
0.9289006263105329
 40
1.0
 40
1.0
 40
1.0
 40
1.0
 10
-18.62848926297089
 20
1.620018825366625
 30
0.0
 10
-18.48174685474356
 20
1.622856226180125
 30
0.0
 10
-18.19692406421343
 20
1.628363539487274
 30
0.0
 10
-17.78421667732807
 20
1.665041477869041
 30
0.0
 10
-17.40057283009143
 20
1.730776364422359
 30
0.0
 10
-17.04512020749521
 20
1.819576341646904
 30
0.0
 10
-16.71621974718229
 20
1.932265138610087
 30
0.0
 10
-16.41545377625309
 20
2.072403445890429
 30
0.0
 10
-16.14549873872941
 20
2.242805511718658
 30
0.0
 10
-15.90292454166685
 20
2.436119215048209
 30
0.0
 10
-15.68718326806514
 20
2.65455785055255
 30
0.0
 10
-15.50104407402117
 20
2.899405963442225
 30
0.0
 10
-15.34502790596897
 20
3.171308358169806
 30
0.0
 10
-15.21845839907717
 20
3.468192690003113
 30
0.0
 10
-15.11851722774111
 20
3.790716047555232
 30
0.0
 10
-15.04667646910876
 20
4.138246310516224
 30
0.0
 10
-15.00577309413514
 20
4.5123669288888
 30
0.0
 10
-15.00088299113674
 20
4.769927412738511
 30
0.0
 10
-14.99835738223694
 20
4.902950592507645
 30
0.0
  0
SPLINE
  5
78
330
1F
100
AcDbEntity
  8
0
  6
Continuous
 62
     7
370
    25
100
AcDbSpline
210
0.0
220
0.0
230
1.0
 70
     8
 71
     3
 72
    23
 73
    19
 74
     0
 42
0.000000001
 43
0.00000001
 40
0.0
 40
0.0
 40
0.0
 40
0.0
 40
0.0732560878441966
 40
0.1428567218472891
 40
0.2078604517320823
 40
0.2695678950549162
 40
0.3277775208238987
 40
0.384347108769879
 40
0.4397417850989255
 40
0.4939115600029197
 40
0.5491340597557238
 40
0.6048794396969652
 40
0.6623231159641466
 40
0.7221463338538491
 40
0.7855949481063947
 40
0.8525620655744698
 40
0.9240835105836809
 40
1.0
 40
1.0
 40
1.0
 40
1.0
 10
-14.99835738223694
 20
4.902950592507645
 30
0.0
 10
-15.00111590085878
 20
5.029097273108932
 30
0.0
 10
-15.00649528896247
 20
5.275095957900079
 30
0.0
 10
-15.04461701399266
 20
5.631363586899737
 30
0.0
 10
-15.104958229618
 20
5.96434470224832
 30
0.0
 10
-15.19411375139053
 20
6.270676429667132
 30
0.0
 10
-15.30908882111534
 20
6.552432774126811
 30
0.0
 10
-15.44567064676533
 20
6.812348277946569
 30
0.0
 10
-15.61103898909055
 20
7.04685153676727
 30
0.0
 10
-15.80372997377203
 20
7.255979261839462
 30
0.0
 10
-16.01961080330694
 20
7.442189695248466
 30
0.0
 10
-16.26331841469001
 20
7.600715382966216
 30
0.0
 10
-16.52970613863518
 20
7.735176518267875
 30
0.0
 10
-16.82117222770379
 20
7.845767804770739
 30
0.0
 10
-17.13806266610758
 20
7.930295180450447
 30
0.0
 10
-17.48046262619565
 20
7.993140028806372
 30
0.0
 10
-17.84868314009078
 20
8.025286259331615
 30
0.0
 10
-18.10248079082379
 20
8.03145206310677
 30
0.0
 10
-18.23316240095914
 20
8.034626864618083
 30
0.0
  0
SPLINE
  5
79
330
1F
100
AcDbEntity
  8
0
  6
Continuous
 62
     7
370
    25
100
AcDbSpline
210
0.0
220
0.0
230
1.0
 70
     8
 71
     3
 72
    11
 73
     7
 74
     0
 42
0.000000001
 43
0.00000001
 40
0.0
 40
0.0
 40
0.0
 40
0.0
 40
0.3105937880944612
 40
0.5810694600258968
 40
0.8076348215121087
 40
0.9999999999999999
 40
0.9999999999999999
 40
0.9999999999999999
 40
0.9999999999999999
 10
-18.23316240095914
 20
8.034626864618083
 30
0.0
 10
-18.32030983132153
 20
8.034839794774205
 30
0.0
 10
-18.4833482185797
 20
8.035238151778058
 30
0.0
 10
-18.70906779426438
 20
8.015961226661071
 30
0.0
 10
-18.90158152488803
 20
7.995234269509722
 30
0.0
 10
-19.0159769697788
 20
7.968045893226212
 30
0.0
 10
-19.06850524851439
 20
7.955561492215733
 30
0.0
  0
LINE
  5
7A
330
1F
100
AcDbEntity
  8
0
  6
Continuous
 62
     7
370
    25
100
AcDbLine
 10
-19.0685052485
 20
7.9555614922
 30
0.0
 11
-19.0685052485
 21
8.9868489583
 31
0.0
  0
LINE
  5
7B
330
1F
100
AcDbEntity
  8
0
  6
Continuous
 62
     7
370
    25
100
AcDbLine
 10
-19.0685052485
 20
8.9868489583
 30
0.0
 11
-17.8618989132
 21
8.9868489583
 31
0.0
  0
SPLINE
  5
7C
330
1F
100
AcDbEntity
  8
0
  6
Continuous
 62
     7
370
    25
100
AcDbSpline
210
0.0
220
0.0
230
1.0
 70
     8
 71
     3
 72
    15
 73
    11
 74
     0
 42
0.000000001
 43
0.00000001
 40
0.0
 40
0.0
 40
0.0
 40
0.0
 40
0.1536472247030367
 40
0.2977049379067609
 40
0.433299010735462
 40
0.5602452672568932
 40
0.6793863486275754
 40
0.7916247388592151
 40
0.8983452346743496
 40
1.0
 40
1.0
 40
1.0
 40
1.0
 10
-17.8618989131568
 20
8.986848958333331
 30
0.0
 10
-17.6154177743093
 20
8.98411355889571
 30
0.0
 10
-17.13783900724983
 20
8.978813483210642
 30
0.0
 10
-16.44467467451646
 20
8.922020628692248
 30
0.0
 10
-15.79812533790703
 20
8.834469607093524
 30
0.0
 10
-15.19773412468977
 20
8.71235029960014
 30
0.0
 10
-14.64486279065607
 20
8.552140634027403
 30
0.0
 10
-14.14080307763198
 20
8.350840356340065
 30
0.0
 10
-13.67917913803064
 20
8.1210563652951
 30
0.0
 10
-13.40364831422959
 20
7.931269003385266
 30
0.0
 10
-13.26923206404644
 20
7.83868224605574
 30
0.0
  0
SPLINE
  5
7D
330
1F
100
AcDbEntity
  8
0
  6
Continuous
 62
     7
370
    25
100
AcDbSpline
210
0.0
220
0.0
230
1.0
 70
     8
 71
     3
 72
    15
 73
    11
 74
     0
 42
0.000000001
 43
0.00000001
 40
0.0
 40
0.0
 40
0.0
 40
0.0
 40
0.1283182260644994
 40
0.2510311367748088
 40
0.3720690573397673
 40
0.4918179692745233
 40
0.6121655210512241
 40
0.7359558636367464
 40
0.8651477282606417
 40
1.0
 40
1.0
 40
1.0
 40
1.0
 10
-13.26923206404644
 20
7.83868224605574
 30
0.0
 10
-13.15562354323444
 20
7.749789691121958
 30
0.0
 10
-12.93336925402376
 20
7.575887668001499
 30
0.0
 10
-12.64579223701812
 20
7.270871412969305
 30
0.0
 10
-12.39991854075414
 20
6.944052313127374
 30
0.0
 10
-12.19922081920431
 20
6.590460721469459
 30
0.0
 10
-12.04239900286289
 20
6.211874527907202
 30
0.0
 10
-11.93455791840705
 20
5.806027982391383
 30
0.0
 10
-11.86216374646068
 20
5.375344516929228
 30
0.0
 10
-11.85605199578939
 20
5.078578112089644
 30
0.0
 10
-11.85293061057827
 20
4.927013966717054
 30
0.0
  0
SPLINE
  5
7E
330
1F
100
AcDbEntity
  8
0
  6
Continuous
 62
     7
370
    25
100
AcDbSpline
210
0.0
220
0.0
230
1.0
 70
     8
 71
     3
 72
    15
 73
    11
 74
     0
 42
0.000000001
 43
0.00000001
 40
0.0
 40
0.0
 40
0.0
 40
0.0
 40
0.1304013868002959
 40
0.2558750539720384
 40
0.3789673235213319
 40
0.5006468552882565
 40
0.6221028025898633
 40
0.7448141898210446
 40
0.870528320354746
 40
1.0
 40
1.0
 40
1.0
 40
1.0
 10
-11.85293061057827
 20
4.927013966717054
 30
0.0
 10
-11.8561045677851
 20
4.805369829219452
 30
0.0
 10
-11.86233254197718
 20
4.566678347393045
 30
0.0
 10
-11.91527337660862
 20
4.216264148337844
 30
0.0
 10
-12.00251958990302
 20
3.881884725817022
 30
0.0
 10
-12.11704717801275
 20
3.559222366101764
 30
0.0
 10
-12.27582824716093
 20
3.256429861389351
 30
0.0
 10
-12.46031511887821
 20
2.96436081663491
 30
0.0
 10
-12.68627178624038
 20
2.692605593414494
 30
0.0
 10
-12.85636088835022
 20
2.526093264594918
 30
0.0
 10
-12.94265769977586
 20
2.441611173373643
 30
0.0
  0
SPLINE
  5
7F
330
1F
100
AcDbEntity
  8
0
  6
Continuous
 62
     7
370
    25
100
AcDbSpline
210
0.0
220
0.0
230
1.0
 70
     8
 71
     3
 72
    15
 73
    11
 74
     0
 42
0.000000001
 43
0.00000001
 40
0.0
 40
0.0
 40
0.0
 40
0.0
 40
0.1140260145429364
 40
0.2295196571469979
 40
0.3474187550978965
 40
0.4686053031945764
 40
0.5938918863063148
 40
0.7226956526590648
 40
0.8583110051199246
 40
1.0
 40
1.0
 40
1.0
 40
1.0
 10
-12.94265769977586
 20
2.441611173373644
 30
0.0
 10
-13.03515972420323
 20
2.361830072861898
 30
0.0
 10
-13.22135436598806
 20
2.201241009833908
 30
0.0
 10
-13.53004997476009
 20
1.992411975370754
 30
0.0
 10
-13.86110812803465
 20
1.805954948902434
 30
0.0
 10
-14.21675710352016
 20
1.644695285917605
 30
0.0
 10
-14.59453549963692
 20
1.506621293582385
 30
0.0
 10
-14.99770673938459
 20
1.398168530420413
 30
0.0
 10
-15.42316980966888
 20
1.307056247427323
 30
0.0
 10
-15.71762449675053
 20
1.268470680236083
 30
0.0
 10
-15.86807647866278
 20
1.24875533756429
 30
0.0
  0
LINE
  5
80
330
1F
100
AcDbEntity
  8
0
  6
Continuous
 62
     7
370
    25
100
AcDbLine
 10
-15.8680764787
 20
1.2487553376
 30
0.0
 11
-15.8680764787
 21
1.2006285891
 31
0.0
  0
SPLINE
  5
81
330
1F
100
AcDbEntity
  8
0
  6
Continuous
 62
     7
370
    25
100
AcDbSpline
210
0.0
220
0.0
230
1.0
 70
     8
 71
     3
 72
    15
 73
    11
 74
     0
 42
0.000000001
 43
0.00000001
 40
0.0
 40
0.0
 40
0.0
 40
0.0
 40
0.1571512130449819
 40
0.3016417854215726
 40
0.4357595199799685
 40
0.5601900771253111
 40
0.6765727961103541
 40
0.7873265312660823
 40
0.8939502407651178
 40
1.0
 40
1.0
 40
1.0
 40
1.0
 10
-15.86807647866278
 20
1.200628589145467
 30
0.0
 10
-15.59218084031801
 20
1.158252568512656
 30
0.0
 10
-15.06261666242954
 20
1.076914484796534
 30
0.0
 10
-14.31173572210274
 20
0.8858855592950329
 30
0.0
 10
-13.63455731803
 20
0.6515340030292618
 30
0.0
 10
-13.03169284591139
 20
0.366265121794542
 30
0.0
 10
-12.50143692678556
 20
0.0329140384116565
 30
0.0
 10
-12.0522987623272
 20
-0.3559129904311192
 30
0.0
 10
-11.6687039809218
 20
-0.7879635801166869
 30
0.0
 10
-11.48196750983506
 20
-1.117175064911757
 30
0.0
 10
-11.38885125082535
 20
-1.281336579310884
 30
0.0
  0
SPLINE
  5
82
330
1F
100
AcDbEntity
  8
0
  6
Continuous
 62
     7
370
    25
100
AcDbSpline
210
0.0
220
0.0
230
1.0
 70
     8
 71
     3
 72
    19
 73
    15
 74
     0
 42
0.000000001
 43
0.00000001
 40
0.0
 40
0.0
 40
0.0
 40
0.0
 40
0.0764470955570156
 40
0.1550008861001069
 40
0.2379752653534545
 40
0.3250876483954294
 40
0.4134476389534684
 40
0.4993014345569758
 40
0.5835482760552366
 40
0.6668990698548323
 40
0.7492969132700541
 40
0.8312790370544831
 40
0.9144996316242563
 40
1.0
 40
1.0
 40
1.0
 40
1.0
 10
-11.38885125082535
 20
-1.281336579310884
 30
0.0
 10
-11.32875025678275
 20
-1.404687250782155
 30
0.0
 10
-11.20689203229139
 20
-1.654787836550393
 30
0.0
 10
-11.09465354767122
 20
-2.068114702646364
 30
0.0
 10
-11.02157756330248
 20
-2.50804019966647
 30
0.0
 10
-11.00017542675045
 20
-2.971539264572068
 30
0.0
 10
-11.02081053897656
 20
-3.439649958812713
 30
0.0
 10
-11.08096813917371
 20
-3.899532696726516
 30
0.0
 10
-11.18930037931195
 20
-4.341230485517317
 30
0.0
 10
-11.3354764458508
 20
-4.765280003365375
 30
0.0
 10
-11.52837013640344
 20
-5.166304141921531
 30
0.0
 10
-11.76897205583426
 20
-5.539769439641209
 30
0.0
 10
-12.0501577989135
 20
-5.891892227138364
 30
0.0
 10
-12.27289104735967
 20
-6.096759873755106
 30
0.0
 10
-12.38576246807236
 20
-6.200577792691826
 30
0.0
  0
SPLINE
  5
83
330
1F
100
AcDbEntity
  8
0
  6
Continuous
 62
     7
370
    25
100
AcDbSpline
210
0.0
220
0.0
230
1.0
 70
     8
 71
     3
 72
    15
 73
    11
 74
     0
 42
0.000000001
 43
0.00000001
 40
0.0
 40
0.0
 40
0.0
 40
0.0
 40
0.1074451783079457
 40
0.2168781753485464
 40
0.3310230838600461
 40
0.4507528833551794
 40
0.5766146624346583
 40
0.7091521275168369
 40
0.8501007898707634
 40
1.0
 40
1.0
 40
1.0
 40
1.0
 10
-12.38576246807236
 20
-6.200577792691826
 30
0.0
 10
-12.51735573586125
 20
-6.306095808700411
 30
0.0
 10
-12.78297684846632
 20
-6.519084005460177
 30
0.0
 10
-13.23455388988526
 20
-6.778217673123504
 30
0.0
 10
-13.72399054423087
 20
-7.003748582083218
 30
0.0
 10
-14.25965937168166
 20
-7.182936464935398
 30
0.0
 10
-14.83479288778355
 20
-7.32946026837508
 30
0.0
 10
-15.45416637463793
 20
-7.425139121543674
 30
0.0
 10
-16.11536968119488
 20
-7.489486526659316
 30
0.0
 10
-16.57147653395455
 20
-7.496424340825711
 30
0.0
 10
-16.80654807282979
 20
-7.5
 30
0.0
  0
LINE
  5
84
330
1F
100
AcDbEntity
  8
0
  6
Continuous
 62
     7
370
    25
100
AcDbLine
 10
-16.8065480728
 20
-7.5
 30
0.0
 11
-19.0685052485
 21
-7.5
 31
0.0
  0
LINE
  5
85
330
1F
100
AcDbEntity
  8
0
  6
Continuous
 62
     7
370
    25
100
AcDbLine
 10
-19.0685052485
 20
-7.5
 30
0.0
 11
-19.0685052485
 21
-6.4790254085
 31
0.0
  0
SPLINE
  5
86
330
1F
100
AcDbEntity
  8
0
  6
Continuous
 62
     7
370
    25
100
AcDbSpline
210
0.0
220
0.0
230
1.0
 70
     8
 71
     3
 72
    11
 73
     7
 74
     0
 42
0.000000001
 43
0.00000001
 40
0.0
 40
0.0
 40
0.0
 40
0.0
 40
0.1572979019335518
 40
0.375137262995908
 40
0.6548449890301848
 40
1.0
 40
1.0
 40
1.0
 40
1.0
 10
-19.06850524851439
 20
-6.479025408543578
 30
0.0
 10
-19.0148105898637
 20
-6.490439941858833
 30
0.0
 10
-18.88675505297401
 20
-6.517662280705217
 30
0.0
 10
-18.65841017580473
 20
-6.532368591549404
 30
0.0
 10
-18.3651771950442
 20
-6.547853262041039
 30
0.0
 10
-18.14727010237319
 20
-6.547804719625993
 30
0.0
 10
-18.02690490773562
 20
-6.54777790628475
 30
0.0
  0
SPLINE
  5
87
330
1F
100
AcDbEntity
  8
0
  6
Continuous
 62
     7
370
    25
100
AcDbSpline
210
0.0
220
0.0
230
1.0
 70
     8
 71
     3
 72
    23
 73
    19
 74
     0
 42
0.000000001
 43
0.00000001
 40
0.0
 40
0.0
 40
0.0
 40
0.0
 40
0.0810855547441626
 40
0.1572279226532538
 40
0.2275494108257602
 40
0.2936439257922768
 40
0.3558174522115245
 40
0.4137170728185777
 40
0.4688331528841347
 40
0.5213739827149861
 40
0.5729980095862363
 40
0.6258867438420296
 40
0.6797198561663409
 40
0.7366322746646348
 40
0.7959331794381316
 40
0.8592912705218939
 40
0.9275332189576136
 40
1.0
 40
1.0
 40
1.0
 40
1.0
 10
-18.02690490773562
 20
-6.54777790628475
 30
0.0
 10
-17.86525386812775
 20
-6.545059165677181
 30
0.0
 10
-17.55180645776624
 20
-6.539787425978169
 30
0.0
 10
-17.09951664626786
 20
-6.501716610734519
 30
0.0
 10
-16.67963662742746
 20
-6.441833147191264
 30
0.0
 10
-16.29389059079299
 20
-6.351338895800813
 30
0.0
 10
-15.93879095182573
 20
-6.241392342102108
 30
0.0
 10
-15.61961047191123
 20
-6.097922141221337
 30
0.0
 10
-15.33243980831705
 20
-5.934050307499272
 30
0.0
 10
-15.07779773874086
 20
-5.742896966500019
 30
0.0
 10
-14.85355225443739
 20
-5.523018097285111
 30
0.0
 10
-14.66157999893216
 20
-5.271146683018623
 30
0.0
 10
-14.49828552491662
 20
-4.987967335802049
 30
0.0
 10
-14.36380339166879
 20
-4.675740396881383
 30
0.0
 10
-14.26699998562411
 20
-4.330458455511294
 30
0.0
 10
-14.18960090193006
 20
-3.957568627122462
 30
0.0
 10
-14.14573099364039
 20
-3.552360511595228
 30
0.0
 10
-14.14125589371531
 20
-3.271822024226108
 30
0.0
 10
-14.13895116047228
 20
-3.127341143661384
 30
0.0
  0
SPLINE
  5
88
330
1F
100
AcDbEntity
  8
0
  6
Continuous
 62
     7
370
    25
100
AcDbSpline
210
0.0
220
0.0
230
1.0
 70
     8
 71
     3
 72
    23
 73
    19
 74
     0
 42
0.000000001
 43
0.00000001
 40
0.0
 40
0.0
 40
0.0
 40
0.0
 40
0.0689987479044739
 40
0.1345251077089157
 40
0.1967075947558181
 40
0.2557789618297914
 40
0.3131623344866034
 40
0.3685809750884115
 40
0.4236287755137392
 40
0.4785559832854417
 40
0.5344406464602612
 40
0.5913599116100058
 40
0.6501136144237123
 40
0.7119396157104032
 40
0.7776478781265468
 40
0.8470851772995631
 40
0.9212529381444303
 40
0.9999999999999999
 40
0.9999999999999999
 40
0.9999999999999999
 40
0.9999999999999999
 10
-14.13895116047228
 20
-3.127341143661384
 30
0.0
 10
-14.14287890964774
 20
-2.981751536341353
 30
0.0
 10
-14.15053674253502
 20
-2.697899173786293
 30
0.0
 10
-14.19177624180326
 20
-2.283898377762315
 30
0.0
 10
-14.27732880785073
 20
-1.898497243815121
 30
0.0
 10
-14.38479450480328
 20
-1.536374209466121
 30
0.0
 10
-14.53135725032031
 20
-1.20384218170294
 30
0.0
 10
-14.70141604962025
 20
-0.8919188535955497
 30
0.0
 10
-14.91541833087055
 20
-0.6148570725101263
 30
0.0
 10
-15.15240167216668
 20
-0.3563966644840978
 30
0.0
 10
-15.42566204374038
 20
-0.1295321408738704
 30
0.0
 10
-15.7304628976083
 20
0.0673363546753844
 30
0.0
 10
-16.06716234953406
 20
0.2336693599303128
 30
0.0
 10
-16.43801587547542
 20
0.3662857298866854
 30
0.0
 10
-16.84038801672979
 20
0.4729155975708499
 30
0.0
 10
-17.27634960465565
 20
0.5474399331324845
 30
0.0
 10
-17.74405737058644
 20
0.5924933386805713
 30
0.0
 10
-18.06690464926016
 20
0.5968174379362082
 30
0.0
 10
-18.23316240095914
 20
0.5990442339102019
 30
0.0
  0
LINE
  5
89
330
1F
100
AcDbEntity
  8
0
  6
Continuous
 62
     7
370
    25
100
AcDbLine
 10
-18.233162401
 20
0.5990442339
 30
0.0
 11
-19.0685052485
 21
0.5990442339
 31
0.0
  0
LINE
  5
8A
330
1F
100
AcDbEntity
  8
0
  6
Continuous
 62
     7
370
    25
100
AcDbLine
 10
-19.0685052485
 20
0.5990442339
 30
0.0
 11
-19.0685052485
 21
1.6200188254
 31
0.0
  0
LINE
  5
8B
330
1F
100
AcDbEntity
  8
0
  6
Continuous
 62
     7
370
    25
100
AcDbLine
 10
-19.0685052485
 20
1.6200188254
 30
0.0
 11
-18.628489263
 21
1.6200188254
 31
0.0
  0
SPLINE
  5
8C
330
1F
100
AcDbEntity
  8
0
  6
Continuous
 62
     7
370
    25
100
AcDbSpline
210
0.0
220
0.0
230
1.0
 70
     8
 71
     3
 72
    15
 73
    11
 74
     0
 42
0.000000001
 43
0.00000001
 40
0.0
 40
0.0
 40
0.0
 40
0.0
 40
0.1440399786396219
 40
0.2805435460075769
 40
0.4104719198931033
 40
0.5361506004151118
 40
0.6570043790391477
 40
0.7732394750247121
 40
0.8872179199283838
 40
0.9999999999999999
 40
0.9999999999999999
 40
0.9999999999999999
 40
0.9999999999999999
 10
-4.991431336009168
 20
-7.847200113592922
 30
0.0
 10
-5.148555686318718
 20
-7.836317673083574
 30
0.0
 10
-5.454583379576459
 20
-7.815122179453658
 30
0.0
 10
-5.900019460142954
 20
-7.75543440584555
 30
0.0
 10
-6.318156434134104
 20
-7.659341869438547
 30
0.0
 10
-6.714497357253413
 20
-7.546522479442824
 30
0.0
 10
-7.082504262977199
 20
-7.396684681777655
 30
0.0
 10
-7.425849580956815
 20
-7.224433889547096
 30
0.0
 10
-7.745013155166159
 20
-7.025682651195241
 30
0.0
 10
-7.937829719106429
 20
-6.869519098380787
 30
0.0
 10
-8.03372936105608
 20
-6.791849273265913
 30
0.0
  0
SPLINE
  5
8D
330
1F
100
AcDbEntity
  8
0
  6
Continuous
 62
     7
370
    25
100
AcDbSpline
210
0.0
220
0.0
230
1.0
 70
     8
 71
     3
 72
    15
 73
    11
 74
     0
 42
0.000000001
 43
0.00000001
 40
0.0
 40
0.0
 40
0.0
 40
0.0
 40
0.1313371077455278
 40
0.2575407357988355
 40
0.380000947265091
 40
0.5013892611713373
 40
0.6214786694710336
 40
0.7452810257759346
 40
0.8699791354319226
 40
1.0
 40
1.0
 40
1.0
 40
1.0
 10
-8.03372936105608
 20
-6.791849273265913
 30
0.0
 10
-8.11915639834619
 20
-6.713386489735525
 30
0.0
 10
-8.286671447356081
 20
-6.559527741434213
 30
0.0
 10
-8.503574054035056
 20
-6.302749354575354
 30
0.0
 10
-8.689005165860223
 20
-6.033116848600717
 30
0.0
 10
-8.835263342201802
 20
-5.74640298231586
 30
0.0
 10
-8.954961444461977
 20
-5.446623442961329
 30
0.0
 10
-9.04079188424391
 20
-5.132080407855453
 30
0.0
 10
-9.089012881556046
 20
-4.800664466739334
 30
0.0
 10
-9.095885142303947
 20
-4.575880295462369
 30
0.0
 10
-9.099393076044265
 20
-4.461139599840142
 30
0.0
  0
SPLINE
  5
8E
330
1F
100
AcDbEntity
  8
0
  6
Continuous
 62
     7
370
    25
100
AcDbSpline
210
0.0
220
0.0
230
1.0
 70
     8
 71
     3
 72
    15
 73
    11
 74
     0
 42
0.000000001
 43
0.00000001
 40
0.0
 40
0.0
 40
0.0
 40
0.0
 40
0.1570232482166996
 40
0.295567011218429
 40
0.4183237471197409
 40
0.5307290770918056
 40
0.63873901606517
 40
0.7490240211286325
 40
0.8675988644648214
 40
1.0
 40
1.0
 40
1.0
 40
1.0
 10
-9.099393076044265
 20
-4.461139599840142
 30
0.0
 10
-9.09349858616735
 20
-4.28663130908394
 30
0.0
 10
-9.082403307121956
 20
-3.9581519627615
 30
0.0
 10
-9.000229917189445
 20
-3.498290706840573
 30
0.0
 10
-8.852468830960513
 20
-3.107410293752813
 30
0.0
 10
-8.643519424569355
 20
-2.78431897191706
 30
0.0
 10
-8.370600696816503
 20
-2.532235530022843
 30
0.0
 10
-8.03751779859021
 20
-2.353692637528193
 30
0.0
 10
-7.645583099638911
 20
-2.250437673822455
 30
0.0
 10
-7.366330558720995
 20
-2.239387917360634
 30
0.0
 10
-7.219012262823179
 20
-2.233558673026131
 30
0.0
  0
SPLINE
  5
8F
330
1F
100
AcDbEntity
  8
0
  6
Continuous
 62
     7
370
    25
100
AcDbSpline
210
0.0
220
0.0
230
1.0
 70
     8
 71
     3
 72
    11
 73
     7
 74
     0
 42
0.000000001
 43
0.00000001
 40
0.0
 40
0.0
 40
0.0
 40
0.0
 40
0.2422489353492837
 40
0.4833070735096315
 40
0.7284130413666778
 40
1.0
 40
1.0
 40
1.0
 40
1.0
 10
-7.219012262823179
 20
-2.233558673026131
 30
0.0
 10
-7.127595962785642
 20
-2.23915235801459
 30
0.0
 10
-6.945212728041938
 20
-2.250312231712317
 30
0.0
 10
-6.686391511730677
 20
-2.352062675052188
 30
0.0
 10
-6.450276016922767
 20
-2.51657563725841
 30
0.0
 10
-6.323246987061738
 20
-2.664548730622995
 30
0.0
 10
-6.256477294446754
 20
-2.742327156310813
 30
0.0
  0
SPLINE
  5
90
330
1F
100
AcDbEntity
  8
0
  6
Continuous
 62
     7
370
    25
100
AcDbSpline
210
0.0
220
0.0
230
1.0
 70
     8
 71
     3
 72
    17
 73
    13
 74
     0
 42
0.000000001
 43
0.00000001
 40
0.0
 40
0.0
 40
0.0
 40
0.0
 40
0.1254849014963053
 40
0.2409211298748319
 40
0.3480787422625987
 40
0.4501726292398309
 40
0.5443199528950226
 40
0.6267809579232753
 40
0.7015197919915658
 40
0.7663566381569843
 40
0.8840163236219418
 40
1.0
 40
1.0
 40
1.0
 40
1.0
 10
-6.256477294446754
 20
-2.742327156310813
 30
0.0
 10
-6.203922622809635
 20
-2.821284381886004
 30
0.0
 10
-6.103021791553947
 20
-2.972876037699013
 30
0.0
 10
-5.99137127449236
 20
-3.211928375192624
 30
0.0
 10
-5.922488513987526
 20
-3.448709188887125
 30
0.0
 10
-5.905055076511402
 20
-3.678333204789496
 30
0.0
 10
-5.913591084519007
 20
-3.888682914516441
 30
0.0
 10
-5.932324126983745
 20
-4.077715335130125
 30
0.0
 10
-5.968781443953928
 20
-4.24202382347675
 30
0.0
 10
-6.037916060254729
 20
-4.423737676736548
 30
0.0
 10
-6.149713983464672
 20
-4.62278035032291
 30
0.0
 10
-6.276193951298871
 20
-4.746783098048308
 30
0.0
 10
-6.338980291736164
 20
-4.808339713433067
 30
0.0
  0
SPLINE
  5
91
330
1F
100
AcDbEntity
  8
0
  6
Continuous
 62
     7
370
    25
100
AcDbSpline
210
0.0
220
0.0
230
1.0
 70
     8
 71
     3
 72
    11
 73
     7
 74
     0
 42
0.000000001
 43
0.00000001
 40
0.0
 40
0.0
 40
0.0
 40
0.0
 40
0.2077840464141891
 40
0.4410887057938092
 40
0.7068053552710074
 40
1.0
 40
1.0
 40
1.0
 40
1.0
 10
-6.338980291736163
 20
-4.808339713433067
 30
0.0
 10
-6.400828709388035
 20
-4.857059826667
 30
0.0
 10
-6.532121938912877
 20
-4.960483992589952
 30
0.0
 10
-6.767955518835183
 20
-5.088534504126336
 30
0.0
 10
-7.04121814514249
 20
-5.212082469394742
 30
0.0
 10
-7.241263990955
 20
-5.280970693852374
 30
0.0
 10
-7.346204383644349
 20
-5.317108196717748
 30
0.0
  0
SPLINE
  5
92
330
1F
100
AcDbEntity
  8
0
  6
Continuous
 62
     7
370
    25
100
AcDbSpline
210
0.0
220
0.0
230
1.0
 70
     8
 71
     3
 72
    11
 73
     7
 74
     0
 42
0.000000001
 43
0.00000001
 40
0.0
 40
0.0
 40
0.0
 40
0.0
 40
0.2412066194973851
 40
0.4790219195856558
 40
0.7262498956582585
 40
1.0
 40
1.0
 40
1.0
 40
1.0
 10
-7.346204383644349
 20
-5.317108196717748
 30
0.0
 10
-7.334884065580786
 20
-5.429630021719221
 30
0.0
 10
-7.312402590982671
 20
-5.653091636163313
 30
0.0
 10
-7.17305900627132
 20
-5.967273325838629
 30
0.0
 10
-6.95683259294647
 20
-6.251965511038462
 30
0.0
 10
-6.763634024412144
 20
-6.400812918001382
 30
0.0
 10
-6.662117031119676
 20
-6.479025408543575
 30
0.0
  0
SPLINE
  5
93
330
1F
100
AcDbEntity
  8
0
  6
Continuous
 62
     7
370
    25
100
AcDbSpline
210
0.0
220
0.0
230
1.0
 70
     8
 71
     3
 72
    11
 73
     7
 74
     0
 42
0.000000001
 43
0.00000001
 40
0.0
 40
0.0
 40
0.0
 40
0.0
 40
0.2344600262766724
 40
0.4738992732390617
 40
0.7286944874369891
 40
1.0
 40
1.0
 40
1.0
 40
1.0
 10
-6.662117031119676
 20
-6.479025408543575
 30
0.0
 10
-6.545195438836699
 20
-6.55329165111442
 30
0.0
 10
-6.308869193852527
 20
-6.703401326266413
 30
0.0
 10
-5.903088641317149
 20
-6.851902391210457
 30
0.0
 10
-5.461198514105776
 20
-6.949856735697902
 30
0.0
 10
-5.151262572276937
 20
-6.968082269736241
 30
0.0
 10
-4.991431336009168
 20
-6.977481017167081
 30
0.0
  0
LINE
  5
94
330
1F
100
AcDbEntity
  8
0
  6
Continuous
 62
     7
370
    25
100
AcDbLine
 10
-4.991431336
 20
-6.9774810172
 30
0.0
 11
-4.991431336
 21
-7.8472001136
 31
0.0
  0
SPLINE
  5
95
330
1F
100
AcDbEntity
  8
0
  6
Continuous
 62
     7
370
    25
100
AcDbSpline
210
0.0
220
0.0
230
1.0
 70
     8
 71
     3
 72
    23
 73
    19
 74
     0
 42
0.000000001
 43
0.00000001
 40
0.0
 40
0.0
 40
0.0
 40
0.0
 40
0.0661066964165347
 40
0.1290314851081115
 40
0.189304328878095
 40
0.2484584300597481
 40
0.3050882823092696
 40
0.3620977939619239
 40
0.4177234032419783
 40
0.4738378808673302
 40
0.5314031219934383
 40
0.5905454582383836
 40
0.6510803903922636
 40
0.7144459885969896
 40
0.7807471400797569
 40
0.8499925516884097
 40
0.9231592569313491
 40
0.9999999999999999
 40
0.9999999999999999
 40
0.9999999999999999
 40
0.9999999999999999
 10
0.5637704814776268
 20
5.263901205648806
 30
0.0
 10
0.5611698621728656
 20
5.135465355641111
 30
0.0
 10
0.5560937989404844
 20
4.884775646943604
 30
0.0
 10
0.5153972701813666
 20
4.518625268731546
 30
0.0
 10
0.4418201241518842
 20
4.171613700144992
 30
0.0
 10
0.3430573801408396
 20
3.843826029702901
 30
0.0
 10
0.2189436539855772
 20
3.531251789322958
 30
0.0
 10
0.0608749810696403
 20
3.242078559738581
 30
0.0
 10
-0.1235007774991621
 20
2.970531985529058
 30
0.0
 10
-0.334318590723113
 20
2.717193773427977
 30
0.0
 10
-0.5768129250845295
 20
2.484372712145828
 30
0.0
 10
-0.8437433022302816
 20
2.265825355753924
 30
0.0
 10
-1.144520974647499
 20
2.075354522778227
 30
0.0
 10
-1.466206015343202
 20
1.892614643686682
 30
0.0
 10
-1.823095430182079
 20
1.743060912110209
 30
0.0
 10
-2.202015482503807
 20
1.598600040504256
 30
0.0
 10
-2.611439735398843
 20
1.479105385091902
 30
0.0
 10
-2.896352532017382
 20
1.41770992383243
 30
0.0
 10
-3.042298025046907
 20
1.386260333046638
 30
0.0
  0
LINE
  5
96
330
1F
100
AcDbEntity
  8
0
  6
Continuous
 62
     7
370
    25
100
AcDbLine
 10
-3.042298025
 20
1.386260333
 30
0.0
 11
-3.042298025
 21
1.3415712095
 31
0.0
  0
SPLINE
  5
97
330
1F
100
AcDbEntity
  8
0
  6
Continuous
 62
     7
370
    25
100
AcDbSpline
210
0.0
220
0.0
230
1.0
 70
     8
 71
     3
 72
    23
 73
    19
 74
     0
 42
0.000000001
 43
0.00000001
 40
0.0
 40
0.0
 40
0.0
 40
0.0
 40
0.0771050645619196
 40
0.1497573593923792
 40
0.2194082976317195
 40
0.2852145680250495
 40
0.3487471568250532
 40
0.4092587171050152
 40
0.4672578038548156
 40
0.5244583900182308
 40
0.5806631524259392
 40
0.636587728567998
 40
0.6930161398978052
 40
0.750023421677494
 40
0.8089304069790502
 40
0.8697591991067968
 40
0.9334452995422577
 40
1.0
 40
1.0
 40
1.0
 40
1.0
 10
-3.042298025046907
 20
1.341571209514875
 30
0.0
 10
-2.879159837145291
 20
1.310284794924387
 30
0.0
 10
-2.562304590670734
 20
1.249518736812029
 30
0.0
 10
-2.105111703877093
 20
1.128259129446113
 30
0.0
 10
-1.680053594685608
 20
0.9849825613309031
 30
0.0
 10
-1.284303268307646
 20
0.81935531665867
 30
0.0
 10
-0.9206368879245409
 20
0.6313627182241084
 30
0.0
 10
-0.5886857100717087
 20
0.4216536863167785
 30
0.0
 10
-0.289490731582046
 20
0.1888313889542694
 30
0.0
 10
-0.0215023694687324
 20
-0.065765590520418
 30
0.0
 10
0.2190740915951924
 20
-0.3410382683188809
 30
0.0
 10
0.420624461848972
 20
-0.6438272116879309
 30
0.0
 10
0.5983761311544044
 20
-0.9629869080405482
 30
0.0
 10
0.7393677666396258
 20
-1.307285447709468
 30
0.0
 10
0.8486596149212441
 20
-1.672413366243798
 30
0.0
 10
0.9288338157125209
 20
-2.05985163729916
 30
0.0
 10
0.9718343328803928
 20
-2.469783601091917
 30
0.0
 10
0.9793302228770907
 20
-2.750257124843051
 30
0.0
 10
0.9831607176987827
 20
-2.893582651341394
 30
0.0
  0
SPLINE
  5
98
330
1F
100
AcDbEntity
  8
0
  6
Continuous
 62
     7
370
    25
100
AcDbSpline
210
0.0
220
0.0
230
1.0
 70
     8
 71
     3
 72
    15
 73
    11
 74
     0
 42
0.000000001
 43
0.00000001
 40
0.0
 40
0.0
 40
0.0
 40
0.0
 40
0.1309277606647082
 40
0.2574282937738882
 40
0.3805427185978993
 40
0.5023160594045479
 40
0.6243052426610877
 40
0.7470607124127008
 40
0.8721615058211504
 40
1.0
 40
1.0
 40
1.0
 40
1.0
 10
0.9831607176987827
 20
-2.893582651341394
 30
0.0
 10
0.9796609160564289
 20
-3.056534622647526
 30
0.0
 10
0.9727796560336179
 20
-3.376928462177514
 30
0.0
 10
0.9047380604434812
 20
-3.846474202603286
 30
0.0
 10
0.7982880623619162
 20
-4.296556702871563
 30
0.0
 10
0.6501572691710507
 20
-4.729030414059311
 30
0.0
 10
0.4575347324667147
 20
-5.143371897863498
 30
0.0
 10
0.2168832713287992
 20
-5.536208256602577
 30
0.0
 10
-0.0601808900893527
 20
-5.91377636566729
 30
0.0
 10
-0.2759577976203871
 20
-6.143109665667869
 30
0.0
 10
-0.3850139873505642
 20
-6.259017415771821
 30
0.0
  0
SPLINE
  5
99
330
1F
100
AcDbEntity
  8
0
  6
Continuous
 62
     7
370
    25
100
AcDbSpline
210
0.0
220
0.0
230
1.0
 70
     8
 71
     3
 72
    15
 73
    11
 74
     0
 42
0.000000001
 43
0.00000001
 40
0.0
 40
0.0
 40
0.0
 40
0.0
 40
0.121654429316261
 40
0.2425611364468064
 40
0.3630937299352701
 40
0.483884763804581
 40
0.6076568591664954
 40
0.7344247393451224
 40
0.8646102313313477
 40
1.0
 40
1.0
 40
1.0
 40
1.0
 10
-0.3850139873505642
 20
-6.259017415771821
 30
0.0
 10
-0.5042883330057149
 20
-6.372701384409262
 30
0.0
 10
-0.7421039307909032
 20
-6.599370588181482
 30
0.0
 10
-1.137162973055688
 20
-6.893434793136283
 30
0.0
 10
-1.553546602972029
 20
-7.153087566171529
 30
0.0
 10
-1.997449076081975
 20
-7.372477934569186
 30
0.0
 10
-2.47031602538863
 20
-7.544629248135121
 30
0.0
 10
-2.965815883246144
 20
-7.687347763500788
 30
0.0
 10
-3.488133450583693
 20
-7.788561916787911
 30
0.0
 10
-3.846302473179215
 20
-7.820569720676029
 30
0.0
 10
-4.028896367632743
 20
-7.836887238931746
 30
0.0
  0
LINE
  5
9A
330
1F
100
AcDbEntity
  8
0
  6
Continuous
 62
     7
370
    25
100
AcDbLine
 10
-4.0288963676
 20
-7.8368872389
 30
0.0
 11
-4.0288963676
 21
-6.8846651452
 31
0.0
  0
SPLINE
  5
9B
330
1F
100
AcDbEntity
  8
0
  6
Continuous
 62
     7
370
    25
100
AcDbSpline
210
0.0
220
0.0
230
1.0
 70
     8
 71
     3
 72
    23
 73
    19
 74
     0
 42
0.000000001
 43
0.00000001
 40
0.0
 40
0.0
 40
0.0
 40
0.0
 40
0.0578558672862603
 40
0.1129317022312748
 40
0.1673846091908815
 40
0.2202311066403285
 40
0.2737000586189612
 40
0.3273844479960694
 40
0.3819737873524982
 40
0.4383931327745078
 40
0.4963730023680583
 40
0.5576939895204078
 40
0.6215717885311235
 40
0.6894936292398728
 40
0.7607331771557401
 40
0.8365123397113281
 40
0.9161726511624919
 40
1.0
 40
1.0
 40
1.0
 40
1.0
 10
-4.028896367632743
 20
-6.884665145216497
 30
0.0
 10
-3.93898584541452
 20
-6.862398374691648
 30
0.0
 10
-3.76348509157796
 20
-6.818934774256407
 30
0.0
 10
-3.512379826776897
 20
-6.724076507781252
 30
0.0
 10
-3.279385838324142
 20
-6.608227556181304
 30
0.0
 10
-3.062737921303926
 20
-6.468499759218845
 30
0.0
 10
-2.864086879169085
 20
-6.306502431421991
 30
0.0
 10
-2.679183895445912
 20
-6.124469053581706
 30
0.0
 10
-2.519163107173431
 20
-5.91451988878429
 30
0.0
 10
-2.369292880366143
 20
-5.689036443033956
 30
0.0
 10
-2.243272687959157
 20
-5.437223060792037
 30
0.0
 10
-2.12840156832797
 20
-5.167256560945292
 30
0.0
 10
-2.037903342837103
 20
-4.871485311842692
 30
0.0
 10
-1.956862621925388
 20
-4.55667566412775
 30
0.0
 10
-1.901524990267496
 20
-4.217000763649445
 30
0.0
 10
-1.854659746622086
 20
-3.857256292364745
 30
0.0
 10
-1.83299522780434
 20
-3.47479584333129
 30
0.0
 10
-1.827960395874919
 20
-3.213296609499367
 30
0.0
 10
-1.825378815028141
 20
-3.079214395242561
 30
0.0
  0
SPLINE
  5
9C
330
1F
100
AcDbEntity
  8
0
  6
Continuous
 62
     7
370
    25
100
AcDbSpline
210
0.0
220
0.0
230
1.0
 70
     8
 71
     3
 72
    15
 73
    11
 74
     0
 42
0.000000001
 43
0.00000001
 40
0.0
 40
0.0
 40
0.0
 40
0.0
 40
0.1550632155322978
 40
0.299946523947803
 40
0.4361626399321886
 40
0.5624398437903447
 40
0.6810982679106078
 40
0.7925714148924495
 40
0.897990781490375
 40
1.0
 40
1.0
 40
1.0
 40
1.0
 10
-1.825378815028141
 20
-3.079214395242561
 30
0.0
 10
-1.827719975687599
 20
-2.912957130156646
 30
0.0
 10
-1.832248599703277
 20
-2.591357396961369
 30
0.0
 10
-1.875435194287176
 20
-2.125428430350344
 30
0.0
 10
-1.938069781761445
 20
-1.693030517871055
 30
0.0
 10
-2.029552231891924
 20
-1.29417060538002
 30
0.0
 10
-2.154133523637238
 20
-0.9322288367117431
 30
0.0
 10
-2.302252145045071
 20
-0.6042432343991496
 30
0.0
 10
-2.471740571082369
 20
-0.3056728203164333
 30
0.0
 10
-2.614552831157683
 20
-0.1347320919925253
 30
0.0
 10
-2.684785036792807
 20
-0.0506668697438815
 30
0.0
  0
SPLINE
  5
9D
330
1F
100
AcDbEntity
  8
0
  6
Continuous
 62
     7
370
    25
100
AcDbSpline
210
0.0
220
0.0
230
1.0
 70
     8
 71
     3
 72
    15
 73
    11
 74
     0
 42
0.000000001
 43
0.00000001
 40
0.0
 40
0.0
 40
0.0
 40
0.0
 40
0.1240878150479652
 40
0.2440655417466215
 40
0.3653270967811492
 40
0.4852705522884282
 40
0.607780115038331
 40
0.7322538619308829
 40
0.8640847405911074
 40
1.0
 40
1.0
 40
1.0
 40
1.0
 10
-2.684785036792807
 20
-0.0506668697438815
 30
0.0
 10
-2.744376992543124
 20
0.0112250953476572
 30
0.0
 10
-2.861587074438107
 20
0.132959014056681
 30
0.0
 10
-3.056825853928325
 20
0.2950133525768909
 30
0.0
 10
-3.270105708842453
 20
0.4262602367921748
 30
0.0
 10
-3.495231099360224
 20
0.5404458219862657
 30
0.0
 10
-3.737320171568272
 20
0.6190884693034542
 30
0.0
 10
-3.991453858598076
 20
0.6850987657208406
 30
0.0
 10
-4.261891093439967
 20
0.7164154582953844
 30
0.0
 10
-4.447090297030178
 20
0.722929598883367
 30
0.0
 10
-4.541102475804482
 20
0.7262363547313753
 30
0.0
  0
LINE
  5
9E
330
1F
100
AcDbEntity
  8
0
  6
Continuous
 62
     7
370
    25
100
AcDbLine
 10
-4.5411024758
 20
0.7262363547
 30
0.0
 11
-5.0739343333
 21
0.7159234801
 31
0.0
  0
SPLINE
  5
9F
330
1F
100
AcDbEntity
  8
0
  6
Continuous
 62
     7
370
    25
100
AcDbSpline
210
0.0
220
0.0
230
1.0
 70
     8
 71
     3
 72
     9
 73
     5
 74
     0
 42
0.000000001
 43
0.00000001
 40
0.0
 40
0.0
 40
0.0
 40
0.0
 40
0.5004516715519554
 40
1.0
 40
1.0
 40
1.0
 40
1.0
 10
-5.073934333298575
 20
0.7159234800702
 30
0.0
 10
-5.127766087262516
 20
0.7119129186378768
 30
0.0
 10
-5.235332425880197
 20
0.7038990350596964
 30
0.0
 10
-5.343190668081223
 20
0.7027479854369619
 30
0.0
 10
-5.397071072682089
 20
0.702172980521964
 30
0.0
  0
SPLINE
  5
A0
330
1F
100
AcDbEntity
  8
0
  6
Continuous
 62
     7
370
    25
100
AcDbSpline
210
0.0
220
0.0
230
1.0
 70
     8
 71
     3
 72
    23
 73
    19
 74
     0
 42
0.000000001
 43
0.00000001
 40
0.0
 40
0.0
 40
0.0
 40
0.0
 40
0.0818580841048223
 40
0.1538643646866115
 40
0.2188049204250361
 40
0.275839555541902
 40
0.329809857111777
 40
0.3827920604496431
 40
0.4379726089047258
 40
0.4999999999999997
 40
0.5620273910952744
 40
0.6172079395503571
 40
0.6701901428882225
 40
0.7241604444580981
 40
0.781195079574964
 40
0.8461356353133885
 40
0.9181419158951778
 40
1.0
 40
1.0
 40
1.0
 40
1.0
 10
-5.397071072682089
 20
0.702172980521964
 30
0.0
 10
-5.448786791199745
 20
0.7028786953921158
 30
0.0
 10
-5.545994125833197
 20
0.7042051907692459
 30
0.0
 10
-5.681947950740534
 20
0.7299975021980363
 30
0.0
 10
-5.799881915160067
 20
0.7645515693761955
 30
0.0
 10
-5.896786819696417
 20
0.8211620590996311
 30
0.0
 10
-5.970609288869216
 20
0.8950747035885815
 30
0.0
 10
-6.023729380866485
 20
0.983615415430221
 30
0.0
 10
-6.055042404688698
 20
1.087332510382211
 30
0.0
 10
-6.063438171877107
 20
1.200628589145471
 30
0.0
 10
-6.055042404688701
 20
1.313924667908729
 30
0.0
 10
-6.023729380866486
 20
1.41764176286072
 30
0.0
 10
-5.970609288869215
 20
1.506182474702359
 30
0.0
 10
-5.896786819696417
 20
1.58009511919131
 30
0.0
 10
-5.799881915160068
 20
1.636705608914746
 30
0.0
 10
-5.681947950740532
 20
1.671259676092905
 30
0.0
 10
-5.545994125833201
 20
1.697051987521696
 30
0.0
 10
-5.448786791199745
 20
1.698378482898825
 30
0.0
 10
-5.397071072682089
 20
1.699084197768976
 30
0.0
  0
SPLINE
  5
A1
330
1F
100
AcDbEntity
  8
0
  6
Continuous
 62
     7
370
    25
100
AcDbSpline
210
0.0
220
0.0
230
1.0
 70
     8
 71
     3
 72
    17
 73
    13
 74
     0
 42
0.000000001
 43
0.00000001
 40
0.0
 40
0.0
 40
0.0
 40
0.0
 40
0.1542958292918735
 40
0.2806527055903119
 40
0.3781307618940236
 40
0.4483887582670371
 40
0.5666874178881772
 40
0.6974759479691782
 40
0.7675103786683314
 40
0.8408369331986816
 40
0.9177910085567852
 40
1.0
 40
1.0
 40
1.0
 40
1.0
 10
-5.397071072682089
 20
1.699084197768976
 30
0.0
 10
-5.252648834635849
 20
1.707634266077231
 30
0.0
 10
-4.989955461515487
 20
1.723186208179014
 30
0.0
 10
-4.63658334345334
 20
1.752389882068412
 30
0.0
 10
-4.3628167680116
 20
1.787074666439445
 30
0.0
 10
-4.100613999087146
 20
1.846321914539013
 30
0.0
 10
-3.821582753857648
 20
1.957063526995993
 30
0.0
 10
-3.545336011209455
 20
2.07190873634174
 30
0.0
 10
-3.3187052367662
 20
2.194751880527976
 30
0.0
 10
-3.154328403571993
 20
2.320924584314475
 30
0.0
 10
-2.994789455215081
 20
2.469971436345199
 30
0.0
 10
-2.896909290826359
 20
2.582744982302672
 30
0.0
 10
-2.846353406484564
 20
2.640993416823048
 30
0.0
  0
SPLINE
  5
A2
330
1F
100
AcDbEntity
  8
0
  6
Continuous
 62
     7
370
    25
100
AcDbSpline
210
0.0
220
0.0
230
1.0
 70
     8
 71
     3
 72
    15
 73
    11
 74
     0
 42
0.000000001
 43
0.00000001
 40
0.0
 40
0.0
 40
0.0
 40
0.0
 40
0.109876903386975
 40
0.2212280671640396
 40
0.3359640450175708
 40
0.4563644874571999
 40
0.5817539180224396
 40
0.7131255334510679
 40
0.8528122647558508
 40
1.0
 40
1.0
 40
1.0
 40
1.0
 10
-2.846353406484564
 20
2.640993416823049
 30
0.0
 10
-2.788345119584253
 20
2.714177804735245
 30
0.0
 10
-2.671550226436815
 20
2.861528523451603
 30
0.0
 10
-2.528541581493344
 20
3.109263193119601
 30
0.0
 10
-2.403464075060104
 20
3.375770632512424
 30
0.0
 10
-2.300791268269515
 20
3.664627269321351
 30
0.0
 10
-2.221737446059514
 20
3.975368694862784
 30
0.0
 10
-2.168355672122379
 20
4.307919096740449
 30
0.0
 10
-2.13242610070661
 20
4.661526992973652
 30
0.0
 10
-2.129428034116275
 20
4.905147464190926
 30
0.0
 10
-2.127889805089304
 20
5.030142713328817
 30
0.0
  0
SPLINE
  5
A3
330
1F
100
AcDbEntity
  8
0
  6
Continuous
 62
     7
370
    25
100
AcDbSpline
210
0.0
220
0.0
230
1.0
 70
     8
 71
     3
 72
    15
 73
    11
 74
     0
 42
0.000000001
 43
0.00000001
 40
0.0
 40
0.0
 40
0.0
 40
0.0
 40
0.1644084873434578
 40
0.3114801389476237
 40
0.4438377074941003
 40
0.5639588235830916
 40
0.6749338730223807
 40
0.781337767208715
 40
0.8878751650132027
 40
1.0
 40
1.0
 40
1.0
 40
1.0
 10
-2.127889805089304
 20
5.030142713328817
 30
0.0
 10
-2.133378718783873
 20
5.261928273999878
 30
0.0
 10
-2.143777741534347
 20
5.701057663305993
 30
0.0
 10
-2.232612571804822
 20
6.321894924482964
 30
0.0
 10
-2.377872741502716
 20
6.86736779922423
 30
0.0
 10
-2.581788446437204
 20
7.340050638099236
 30
0.0
 10
-2.854181647033867
 20
7.734217156287011
 30
0.0
 10
-3.187341063724504
 20
8.050327719738384
 30
0.0
 10
-3.581521981835531
 20
8.293381059066899
 30
0.0
 10
-3.877252654588664
 20
8.383660538939456
 30
0.0
 10
-4.028896367632743
 20
8.429953726629835
 30
0.0
  0
LINE
  5
A4
330
1F
100
AcDbEntity
  8
0
  6
Continuous
 62
     7
370
    25
100
AcDbLine
 10
-4.0288963676
 20
8.4299537266
 30
0.0
 11
-4.0288963676
 21
9.3340490719
 31
0.0
  0
SPLINE
  5
A5
330
1F
100
AcDbEntity
  8
0
  6
Continuous
 62
     7
370
    25
100
AcDbSpline
210
0.0
220
0.0
230
1.0
 70
     8
 71
     3
 72
    15
 73
    11
 74
     0
 42
0.000000001
 43
0.00000001
 40
0.0
 40
0.0
 40
0.0
 40
0.0
 40
0.1391963813875902
 40
0.2728030266482402
 40
0.401689631457506
 40
0.5255544528259674
 40
0.646876323874235
 40
0.7651309642206164
 40
0.8826640837901392
 40
1.0
 40
1.0
 40
1.0
 40
1.0
 10
-4.028896367632743
 20
9.33404907192626
 30
0.0
 10
-3.860234957740158
 20
9.322600183453332
 30
0.0
 10
-3.529685106955325
 20
9.300162161745885
 30
0.0
 10
-3.046661242915583
 20
9.228071784623111
 30
0.0
 10
-2.589530271866385
 20
9.121138041828717
 30
0.0
 10
-2.155502051236481
 20
8.985122039911245
 30
0.0
 10
-1.750300690514364
 20
8.8084740753417
 30
0.0
 10
-1.368840827247597
 20
8.601388028299603
 30
0.0
 10
-1.012729237546877
 20
8.360830228899184
 30
0.0
 10
-0.795865702329964
 20
8.175393918956667
 30
0.0
 10
-0.6875249774117264
 20
8.082753613036907
 30
0.0
  0
SPLINE
  5
A6
330
1F
100
AcDbEntity
  8
0
  6
Continuous
 62
     7
370
    25
100
AcDbSpline
210
0.0
220
0.0
230
1.0
 70
     8
 71
     3
 72
    15
 73
    11
 74
     0
 42
0.000000001
 43
0.00000001
 40
0.0
 40
0.0
 40
0.0
 40
0.0
 40
0.1299213283560635
 40
0.2558522678534826
 40
0.3790543251415227
 40
0.5003789716191734
 40
0.621819101248037
 40
0.7444985700430465
 40
0.8701416245634593
 40
1.0
 40
1.0
 40
1.0
 40
1.0
 10
-0.6875249774117264
 20
8.082753613036907
 30
0.0
 10
-0.5880495410814616
 20
7.987314166137643
 30
0.0
 10
-0.3921539456249429
 20
7.799366588624136
 30
0.0
 10
-0.1377118348632461
 20
7.487133100743972
 30
0.0
 10
0.0814968284734349
 20
7.160354530241295
 30
0.0
 10
0.2568965557593258
 20
6.813343963465183
 30
0.0
 10
0.3965185042906884
 20
6.451031513267444
 30
0.0
 10
0.491313474863145
 20
6.069879941275229
 30
0.0
 10
0.5517724065819309
 20
5.672614513288093
 30
0.0
 10
0.5597273755477541
 20
5.401629233861654
 30
0.0
 10
0.5637704814776268
 20
5.263901205648806
 30
0.0
  0
SPLINE
  5
A7
330
1F
100
AcDbEntity
  8
0
  6
Continuous
 62
     7
370
    25
100
AcDbSpline
210
0.0
220
0.0
230
1.0
 70
     8
 71
     3
 72
    15
 73
    11
 74
     0
 42
0.000000001
 43
0.00000001
 40
0.0
 40
0.0
 40
0.0
 40
0.0
 40
0.122322032916091
 40
0.243458970300534
 40
0.3643639735359529
 40
0.48649374327064
 40
0.6106169077033564
 40
0.7360375256160112
 40
0.8660428787343526
 40
1.0
 40
1.0
 40
1.0
 40
1.0
 10
-7.696842122124332
 20
8.117129861907493
 30
0.0
 10
-7.605469865632057
 20
8.199094405342526
 30
0.0
 10
-7.423610596706191
 20
8.362229393129512
 30
0.0
 10
-7.125761728866248
 20
8.575195662437164
 30
0.0
 10
-6.811170665066656
 20
8.761410100995326
 30
0.0
 10
-6.479998098849362
 20
8.923173367269328
 30
0.0
 10
-6.133258106506925
 20
9.061162333427841
 30
0.0
 10
-5.768438772070614
 20
9.170850203713028
 30
0.0
 10
-5.387380346541801
 20
9.258596319523564
 30
0.0
 10
-5.124725072228268
 20
9.292685787781112
 30
0.0
 10
-4.991431336009168
 20
9.309985697716849
 30
0.0
  0
LINE
  5
A8
330
1F
100
AcDbEntity
  8
0
  6
Continuous
 62
     7
370
    25
100
AcDbLine
 10
-4.991431336
 20
9.3099856977
 30
0.0
 11
-4.991431336
 21
8.4987062244
 31
0.0
  0
SPLINE
  5
A9
330
1F
100
AcDbEntity
  8
0
  6
Continuous
 62
     7
370
    25
100
AcDbSpline
210
0.0
220
0.0
230
1.0
 70
     8
 71
     3
 72
    15
 73
    11
 74
     0
 42
0.000000001
 43
0.00000001
 40
0.0
 40
0.0
 40
0.0
 40
0.0
 40
0.1339077153369313
 40
0.2620198586774563
 40
0.3849592934647472
 40
0.5057838788532322
 40
0.6247330177642606
 40
0.7429319423209706
 40
0.8664851687822084
 40
1.0
 40
1.0
 40
1.0
 40
1.0
 10
-4.991431336009168
 20
8.498706224371006
 30
0.0
 10
-5.120493655146216
 20
8.484235117830941
 30
0.0
 10
-5.373032431838704
 20
8.455919219221265
 30
0.0
 10
-5.731838742988256
 20
8.349128919702247
 30
0.0
 10
-6.063082613292461
 20
8.205475994776592
 30
0.0
 10
-6.360227761515399
 20
8.015849991193488
 30
0.0
 10
-6.620589011429428
 20
7.783173519519981
 30
0.0
 10
-6.818959541919739
 20
7.492386753452753
 30
0.0
 10
-6.963537209465145
 20
7.155953956170873
 30
0.0
 10
-7.009505643859861
 20
6.910706767897679
 30
0.0
 10
-7.033380518922012
 20
6.783331405728735
 30
0.0
  0
SPLINE
  5
AA
330
1F
100
AcDbEntity
  8
0
  6
Continuous
 62
     7
370
    25
100
AcDbSpline
210
0.0
220
0.0
230
1.0
 70
     8
 71
     3
 72
    11
 73
     7
 74
     0
 42
0.000000001
 43
0.00000001
 40
0.0
 40
0.0
 40
0.0
 40
0.0
 40
0.3201563612988861
 40
0.5897644089603087
 40
0.816871009426514
 40
1.0
 40
1.0
 40
1.0
 40
1.0
 10
-7.033380518922013
 20
6.783331405728735
 30
0.0
 10
-6.943458970349202
 20
6.749057874356734
 30
0.0
 10
-6.777813256699519
 20
6.685922133774895
 30
0.0
 10
-6.556041383581539
 20
6.580868513538682
 30
0.0
 10
-6.374886029186298
 20
6.485231456693197
 30
0.0
 10
-6.27638481824033
 20
6.410881470683304
 30
0.0
 10
-6.232413920237343
 20
6.377691669055811
 30
0.0
  0
SPLINE
  5
AB
330
1F
100
AcDbEntity
  8
0
  6
Continuous
 62
     7
370
    25
100
AcDbSpline
210
0.0
220
0.0
230
1.0
 70
     8
 71
     3
 72
    35
 73
    31
 74
     0
 42
0.000000001
 43
0.00000001
 40
0.0
 40
0.0
 40
0.0
 40
0.0
 40
0.0344606114589832
 40
0.0672236187375032
 40
0.1010501202843051
 40
0.1366069617047838
 40
0.1717191073810469
 40
0.2043003797397362
 40
0.2349343690107479
 40
0.265007751252547
 40
0.2950811334943462
 40
0.3257151227653579
 40
0.3586654557973293
 40
0.3945365619407288
 40
0.4308510458075446
 40
0.4649334569526427
 40
0.4984956261430256
 40
0.5330066309189017
 40
0.5684001794377479
 40
0.6053785739094233
 40
0.6452550913720311
 40
0.6891245427953856
 40
0.7340701849902469
 40
0.7759414794854739
 40
0.8156305215824439
 40
0.8527340283404167
 40
0.8893345199982413
 40
0.9255371684093952
 40
0.9623270967002829
 40
1.0
 40
1.0
 40
1.0
 40
1.0
 10
-6.232413920237343
 20
6.377691669055811
 30
0.0
 10
-6.15776107489275
 20
6.305127605876478
 30
0.0
 10
-6.012132944669703
 20
6.163574142061199
 30
0.0
 10
-5.855151578915859
 20
5.898217017732684
 30
0.0
 10
-5.767577117718187
 20
5.600923991430734
 30
0.0
 10
-5.738734023581847
 20
5.285806610286282
 30
0.0
 10
-5.762739238248994
 20
4.974798550850071
 30
0.0
 10
-5.831191194427818
 20
4.68450571390104
 30
0.0
 10
-5.959552837002279
 20
4.432342984618959
 30
0.0
 10
-6.12787722685802
 20
4.214008024073118
 30
0.0
 10
-6.346209615116163
 20
4.045739287024048
 30
0.0
 10
-6.599322716575311
 20
3.91664016763607
 30
0.0
 10
-6.893303045557033
 20
3.848753065129818
 30
0.0
 10
-7.210026361592121
 20
3.824744154187944
 30
0.0
 10
-7.530211989036133
 20
3.85415414423787
 30
0.0
 10
-7.83420928581076
 20
3.938509207326064
 30
0.0
 10
-8.104252832481288
 20
4.091580618489109
 30
0.0
 10
-8.339382308012485
 20
4.299062268339704
 30
0.0
 10
-8.532015635133483
 20
4.560515751860186
 30
0.0
 10
-8.664769863473582
 20
4.873917724581923
 30
0.0
 10
-8.747562989148575
 20
5.229632764176303
 30
0.0
 10
-8.769264923079945
 20
5.617936050915246
 30
0.0
 10
-8.751633416613105
 20
6.011354163399353
 30
0.0
 10
-8.702483959111216
 20
6.389847081905453
 30
0.0
 10
-8.612865768833686
 20
6.736616720453321
 30
0.0
 10
-8.491086433107935
 20
7.05641640601218
 30
0.0
 10
-8.334874882710904
 20
7.3491353790083
 30
0.0
 10
-8.149660324654818
 20
7.622596576724789
 30
0.0
 10
-7.941173790809388
 20
7.883591085915957
 30
0.0
 10
-7.778927314114499
 20
8.038670629145798
 30
0.0
 10
-7.696842122124332
 20
8.117129861907493
 30
0.0
  0
LINE
  5
AC
330
1F
100
AcDbEntity
  8
0
  6
Continuous
 62
     7
370
    25
100
AcDbLine
 10
-24.5446416936
 20
8.9868489583
 30
0.0
 11
-20.0344778418
 21
8.9868489583
 31
0.0
  0
LINE
  5
AD
330
1F
100
AcDbEntity
  8
0
  6
Continuous
 62
     7
370
    25
100
AcDbLine
 10
-20.0344778418
 20
8.9868489583
 30
0.0
 11
-20.0344778418
 21
-7.5
 31
0.0
  0
LINE
  5
AE
330
1F
100
AcDbEntity
  8
0
  6
Continuous
 62
     7
370
    25
100
AcDbLine
 10
-20.0344778418
 20
-7.5
 30
0.0
 11
-24.5446416936
 21
-7.5
 31
0.0
  0
LINE
  5
AF
330
1F
100
AcDbEntity
  8
0
  6
Continuous
 62
     7
370
    25
100
AcDbLine
 10
-24.5446416936
 20
-7.5
 30
0.0
 11
-24.5446416936
 21
-6.8159126475
 31
0.0
  0
SPLINE
  5
B0
330
1F
100
AcDbEntity
  8
0
  6
Continuous
 62
     7
370
    25
100
AcDbSpline
210
0.0
220
0.0
230
1.0
 70
     8
 71
     3
 72
    11
 73
     7
 74
     0
 42
0.000000001
 43
0.00000001
 40
0.0
 40
0.0
 40
0.0
 40
0.0
 40
0.275344228552292
 40
0.5331013272501843
 40
0.7746961835278845
 40
1.0
 40
1.0
 40
1.0
 40
1.0
 10
-24.54464169359884
 20
-6.815912647475327
 30
0.0
 10
-24.44240031319025
 20
-6.771004118081795
 30
0.0
 10
-24.24444804129304
 20
-6.684055512874338
 30
0.0
 10
-23.9422847601469
 20
-6.598740693035805
 30
0.0
 10
-23.66073548524559
 20
-6.513184389646936
 30
0.0
 10
-23.49176355813618
 20
-6.42753836657336
 30
0.0
 10
-23.41022548086948
 20
-6.386209536592994
 30
0.0
  0
SPLINE
  5
B1
330
1F
100
AcDbEntity
  8
0
  6
Continuous
 62
     7
370
    25
100
AcDbSpline
210
0.0
220
0.0
230
1.0
 70
     8
 71
     3
 72
    11
 73
     7
 74
     0
 42
0.000000001
 43
0.00000001
 40
0.0
 40
0.0
 40
0.0
 40
0.0
 40
0.2288373950996523
 40
0.4601531142471253
 40
0.7092547813095562
 40
1.0
 40
1.0
 40
1.0
 40
1.0
 10
-23.41022548086948
 20
-6.386209536592994
 30
0.0
 10
-23.33516411672385
 20
-6.334301407959445
 30
0.0
 10
-23.18422846891937
 20
-6.229922982243372
 30
0.0
 10
-23.02669255905005
 20
-5.989769301143088
 30
0.0
 10
-22.9368077830743
 20
-5.694664277515114
 30
0.0
 10
-22.92723718292664
 20
-5.480550275938615
 30
0.0
 10
-22.92208274690715
 20
-5.365234945136573
 30
0.0
  0
LINE
  5
B2
330
1F
100
AcDbEntity
  8
0
  6
Continuous
 62
     7
370
    25
100
AcDbLine
 10
-22.9220827469
 20
-5.3652349451
 30
0.0
 11
-22.9220827469
 21
6.8520839035
 31
0.0
  0
SPLINE
  5
B3
330
1F
100
AcDbEntity
  8
0
  6
Continuous
 62
     7
370
    25
100
AcDbSpline
210
0.0
220
0.0
230
1.0
 70
     8
 71
     3
 72
    11
 73
     7
 74
     0
 42
0.000000001
 43
0.00000001
 40
0.0
 40
0.0
 40
0.0
 40
0.0
 40
0.2907452186904432
 40
0.5398468857528742
 40
0.7711626049003486
 40
1.0
 40
1.0
 40
1.0
 40
1.0
 10
-22.92208274690715
 20
6.852083903469905
 30
0.0
 10
-22.92723718292664
 20
6.967399234271946
 30
0.0
 10
-22.9368077830743
 20
7.181513235848448
 30
0.0
 10
-23.02669255905005
 20
7.476618259476418
 30
0.0
 10
-23.18422846891936
 20
7.716771940576707
 30
0.0
 10
-23.33516411672385
 20
7.821150366292778
 30
0.0
 10
-23.41022548086948
 20
7.873058494926326
 30
0.0
  0
SPLINE
  5
B4
330
1F
100
AcDbEntity
  8
0
  6
Continuous
 62
     7
370
    25
100
AcDbSpline
210
0.0
220
0.0
230
1.0
 70
     8
 71
     3
 72
    11
 73
     7
 74
     0
 42
0.000000001
 43
0.00000001
 40
0.0
 40
0.0
 40
0.0
 40
0.0
 40
0.2253099038952545
 40
0.4660314364604574
 40
0.7246483319961524
 40
1.0
 40
1.0
 40
1.0
 40
1.0
 10
-23.41022548086948
 20
7.873058494926326
 30
0.0
 10
-23.4916351338308
 20
7.914781523991095
 30
0.0
 10
-23.66002301583418
 20
8.001081517166606
 30
0.0
 10
-23.94367540514608
 20
8.080124554527787
 30
0.0
 10
-24.24365512953541
 20
8.172259102325686
 30
0.0
 10
-24.44223828240082
 20
8.258361279939889
 30
0.0
 10
-24.54464169359884
 20
8.302761605808659
 30
0.0
  0
LINE
  5
B5
330
1F
100
AcDbEntity
  8
0
  6
Continuous
 62
     7
370
    25
100
AcDbLine
 10
-24.5446416936
 20
8.3027616058
 30
0.0
 11
-24.5446416936
 21
8.9868489583
 31
0.0
  0
LINE
  5
B6
330
1F
100
AcDbEntity
  8
0
  6
Continuous
 62
     7
370
    25
100
AcDbLine
 10
9.556597186
 20
8.9868489583
 30
0.0
 11
14.2523927817
 21
8.9868489583
 31
0.0
  0
LINE
  5
B7
330
1F
100
AcDbEntity
  8
0
  6
Continuous
 62
     7
370
    25
100
AcDbLine
 10
14.2523927817
 20
8.9868489583
 30
0.0
 11
14.2523927817
 21
-7.5
 31
0.0
  0
LINE
  5
B8
330
1F
100
AcDbEntity
  8
0
  6
Continuous
 62
     7
370
    25
100
AcDbLine
 10
14.2523927817
 20
-7.5
 30
0.0
 11
9.556597186
 21
-7.5
 31
0.0
  0
LINE
  5
B9
330
1F
100
AcDbEntity
  8
0
  6
Continuous
 62
     7
370
    25
100
AcDbLine
 10
9.556597186
 20
-7.5
 30
0.0
 11
9.556597186
 21
-6.8159126475
 31
0.0
  0
SPLINE
  5
BA
330
1F
100
AcDbEntity
  8
0
  6
Continuous
 62
     7
370
    25
100
AcDbSpline
210
0.0
220
0.0
230
1.0
 70
     8
 71
     3
 72
    11
 73
     7
 74
     0
 42
0.000000001
 43
0.00000001
 40
0.0
 40
0.0
 40
0.0
 40
0.0
 40
0.2753442285522906
 40
0.533101327250183
 40
0.7746961835278845
 40
1.0
 40
1.0
 40
1.0
 40
1.0
 10
9.556597186023076
 20
-6.815912647475328
 30
0.0
 10
9.658838566431665
 20
-6.771004118081795
 30
0.0
 10
9.856790838328877
 20
-6.684055512874338
 30
0.0
 10
10.15895411947501
 20
-6.598740693035804
 30
0.0
 10
10.44050339437632
 20
-6.513184389646938
 30
0.0
 10
10.60947532148572
 20
-6.427538366573361
 30
0.0
 10
10.69101339875243
 20
-6.386209536592994
 30
0.0
  0
SPLINE
  5
BB
330
1F
100
AcDbEntity
  8
0
  6
Continuous
 62
     7
370
    25
100
AcDbSpline
210
0.0
220
0.0
230
1.0
 70
     8
 71
     3
 72
    11
 73
     7
 74
     0
 42
0.000000001
 43
0.00000001
 40
0.0
 40
0.0
 40
0.0
 40
0.0
 40
0.2288373950996504
 40
0.4601531142471239
 40
0.7092547813095557
 40
1.0
 40
1.0
 40
1.0
 40
1.0
 10
10.69101339875243
 20
-6.386209536592994
 30
0.0
 10
10.76607476289808
 20
-6.334301407959445
 30
0.0
 10
10.91701041070255
 20
-6.229922982243371
 30
0.0
 10
11.07454632057185
 20
-5.989769301143088
 30
0.0
 10
11.16443109654762
 20
-5.694664277515117
 30
0.0
 10
11.17400169669528
 20
-5.480550275938616
 30
0.0
 10
11.17915613271476
 20
-5.365234945136573
 30
0.0
  0
LINE
  5
BC
330
1F
100
AcDbEntity
  8
0
  6
Continuous
 62
     7
370
    25
100
AcDbLine
 10
11.1791561327
 20
-5.3652349451
 30
0.0
 11
11.1791561327
 21
6.8520839035
 31
0.0
  0
SPLINE
  5
BD
330
1F
100
AcDbEntity
  8
0
  6
Continuous
 62
     7
370
    25
100
AcDbSpline
210
0.0
220
0.0
230
1.0
 70
     8
 71
     3
 72
    11
 73
     7
 74
     0
 42
0.000000001
 43
0.00000001
 40
0.0
 40
0.0
 40
0.0
 40
0.0
 40
0.2907452186904438
 40
0.5398468857528756
 40
0.7711626049003504
 40
1.0
 40
1.0
 40
1.0
 40
1.0
 10
11.17915613271476
 20
6.852083903469905
 30
0.0
 10
11.17400169669528
 20
6.967399234271947
 30
0.0
 10
11.16443109654761
 20
7.181513235848446
 30
0.0
 10
11.07454632057186
 20
7.476618259476424
 30
0.0
 10
10.91701041070255
 20
7.716771940576704
 30
0.0
 10
10.76607476289808
 20
7.821150366292776
 30
0.0
 10
10.69101339875243
 20
7.873058494926326
 30
0.0
  0
SPLINE
  5
BE
330
1F
100
AcDbEntity
  8
0
  6
Continuous
 62
     7
370
    25
100
AcDbSpline
210
0.0
220
0.0
230
1.0
 70
     8
 71
     3
 72
    11
 73
     7
 74
     0
 42
0.000000001
 43
0.00000001
 40
0.0
 40
0.0
 40
0.0
 40
0.0
 40
0.2253099038952545
 40
0.4660314364604586
 40
0.7246483319961536
 40
1.0
 40
1.0
 40
1.0
 40
1.0
 10
10.69101339875243
 20
7.873058494926326
 30
0.0
 10
10.60960374579112
 20
7.914781523991093
 30
0.0
 10
10.44121586378773
 20
8.001081517166602
 30
0.0
 10
10.15756347447584
 20
8.080124554527789
 30
0.0
 10
9.857583750086496
 20
8.172259102325688
 30
0.0
 10
9.659000597221086
 20
8.258361279939889
 30
0.0
 10
9.556597186023074
 20
8.302761605808659
 30
0.0
  0
LINE
  5
BF
330
1F
100
AcDbEntity
  8
0
  6
Continuous
 62
     7
370
    25
100
AcDbLine
 10
9.556597186
 20
8.3027616058
 30
0.0
 11
9.556597186
 21
8.9868489583
 31
0.0
  0
SPLINE
  5
C0
330
1F
100
AcDbEntity
  8
0
  6
Continuous
 62
     7
370
    25
100
AcDbSpline
210
0.0
220
0.0
230
1.0
 70
     8
 71
     3
 72
    15
 73
    11
 74
     0
 42
0.000000001
 43
0.00000001
 40
0.0
 40
0.0
 40
0.0
 40
0.0
 40
0.0923711690466973
 40
0.1919180559780528
 40
0.3006526349961085
 40
0.418823079220438
 40
0.5473165492714311
 40
0.6866072746187974
 40
0.8371804214685322
 40
0.9999999999999999
 40
0.9999999999999999
 40
0.9999999999999999
 40
0.9999999999999999
 10
19.7079034775073
 20
-5.06272395507541
 30
0.0
 10
19.81180579071405
 20
-4.908172283111663
 30
0.0
 10
20.02768191492096
 20
-4.587062820737695
 30
0.0
 10
20.28043180336207
 20
-4.034659515726324
 30
0.0
 10
20.50060150836488
 20
-3.414846859202825
 30
0.0
 10
20.67596869595147
 20
-2.72022735730991
 30
0.0
 10
20.81656588424677
 20
-1.955564916233139
 30
0.0
 10
20.91382395574369
 20
-1.118428156087746
 30
0.0
 10
20.97169259541048
 20
-0.2084762112893323
 30
0.0
 10
20.97930656201159
 20
0.4224890167610187
 30
0.0
 10
20.98326231060606
 20
0.7502997289407839
 30
0.0
  0
SPLINE
  5
C1
330
1F
100
AcDbEntity
  8
0
  6
Continuous
 62
     7
370
    25
100
AcDbSpline
210
0.0
220
0.0
230
1.0
 70
     8
 71
     3
 72
    23
 73
    19
 74
     0
 42
0.000000001
 43
0.00000001
 40
0.0
 40
0.0
 40
0.0
 40
0.0
 40
0.0901013565282049
 40
0.1751536637335895
 40
0.2560991660726624
 40
0.332618298321179
 40
0.4049125812370166
 40
0.4730833850452736
 40
0.5374349307018741
 40
0.5980955313941676
 40
0.6553326450046776
 40
0.7096698104950118
 40
0.7619052285244311
 40
0.8112880230658566
 40
0.8592221259396355
 40
0.9065942666397008
 40
0.9531670846698771
 40
1.0
 40
1.0
 40
1.0
 40
1.0
 10
20.98326231060606
 20
0.7502997289407839
 30
0.0
 10
20.98173623418089
 20
0.9909813456287441
 30
0.0
 10
20.97876959874604
 20
1.458857397450709
 30
0.0
 10
20.94274567947046
 20
2.142164075606878
 30
0.0
 10
20.88862682918987
 20
2.787724015465065
 30
0.0
 10
20.81489356213097
 20
3.397211212210026
 30
0.0
 10
20.71440842490215
 20
3.968206842196712
 30
0.0
 10
20.5961826539613
 20
4.502623854567044
 30
0.0
 10
20.4513842376685
 20
4.998268840397294
 30
0.0
 10
20.28692838552346
 20
5.456732626883111
 30
0.0
 10
20.10231723018203
 20
5.878629541755158
 30
0.0
 10
19.89163740135743
 20
6.262820488701154
 30
0.0
 10
19.65890515379519
 20
6.608889157535013
 30
0.0
 10
19.40685286054882
 20
6.919756751986744
 30
0.0
 10
19.12896524036134
 20
7.189513206614624
 30
0.0
 10
18.83070554846742
 20
7.424444229166903
 30
0.0
 10
18.50770253939353
 20
7.619387834434572
 30
0.0
 10
18.27905301418344
 20
7.719656041513953
 30
0.0
 10
18.16440990321796
 20
7.769929748314567
 30
0.0
  0
SPLINE
  5
C2
330
1F
100
AcDbEntity
  8
0
  6
Continuous
 62
     7
370
    25
100
AcDbSpline
210
0.0
220
0.0
230
1.0
 70
     8
 71
     3
 72
    15
 73
    11
 74
     0
 42
0.000000001
 43
0.00000001
 40
0.0
 40
0.0
 40
0.0
 40
0.0
 40
0.1587732972993199
 40
0.3114777535322604
 40
0.4601525887782337
 40
0.6062298926136391
 40
0.7383622395962831
 40
0.8487136980556003
 40
0.9351590142971145
 40
1.0
 40
1.0
 40
1.0
 40
1.0
 10
18.16440990321796
 20
7.769929748314567
 30
0.0
 10
18.01509045333708
 20
7.822872195706312
 30
0.0
 10
17.72215903729493
 20
7.926733454876316
 30
0.0
 10
17.27592763749264
 20
8.037119598159816
 30
0.0
 10
16.83395519976982
 20
8.104573889880635
 30
0.0
 10
16.40787375016768
 20
8.120761834651946
 30
0.0
 10
16.02043903996634
 20
8.114417953976355
 30
0.0
 10
15.6923946148336
 20
8.107356843736683
 30
0.0
 10
15.43205870967772
 20
8.08709234120061
 30
0.0
 10
15.28247614329209
 20
8.067211237420288
 30
0.0
 10
15.21836537500868
 20
8.058690238827495
 30
0.0
  0
LINE
  5
C3
330
1F
100
AcDbEntity
  8
0
  6
Continuous
 62
     7
370
    25
100
AcDbLine
 10
15.218365375
 20
8.0586902388
 30
0.0
 11
15.218365375
 21
8.9868489583
 31
0.0
  0
LINE
  5
C4
330
1F
100
AcDbEntity
  8
0
  6
Continuous
 62
     7
370
    25
100
AcDbLine
 10
15.218365375
 20
8.9868489583
 30
0.0
 11
16.3527815877
 21
8.9868489583
 31
0.0
  0
SPLINE
  5
C5
330
1F
100
AcDbEntity
  8
0
  6
Continuous
 62
     7
370
    25
100
AcDbSpline
210
0.0
220
0.0
230
1.0
 70
     8
 71
     3
 72
    15
 73
    11
 74
     0
 42
0.000000001
 43
0.00000001
 40
0.0
 40
0.0
 40
0.0
 40
0.0
 40
0.1400115901945237
 40
0.2730361400627491
 40
0.4005558569924887
 40
0.5238660302513352
 40
0.6438399854557061
 40
0.7619884484257219
 40
0.8799883089775332
 40
1.0
 40
1.0
 40
1.0
 40
1.0
 10
16.35278158773804
 20
8.986848958333331
 30
0.0
 10
16.65453359007457
 20
8.98129998735475
 30
0.0
 10
17.24297917418448
 20
8.97047895735854
 30
0.0
 10
18.09977904746222
 20
8.85569232604177
 30
0.0
 10
18.90872470309201
 20
8.679870699869728
 30
0.0
 10
19.66852469887496
 20
8.42863440144991
 30
0.0
 10
20.37863969277814
 20
8.105052193372474
 30
0.0
 10
21.03458544632327
 20
7.704986310246245
 30
0.0
 10
21.64898005231533
 20
7.241508424229405
 30
0.0
 10
22.00855931445856
 20
6.875211890486174
 30
0.0
 10
22.18986864596365
 20
6.690515533778147
 30
0.0
  0
SPLINE
  5
C6
330
1F
100
AcDbEntity
  8
0
  6
Continuous
 62
     7
370
    25
100
AcDbSpline
210
0.0
220
0.0
230
1.0
 70
     8
 71
     3
 72
    15
 73
    11
 74
     0
 42
0.000000001
 43
0.00000001
 40
0.0
 40
0.0
 40
0.0
 40
0.0
 40
0.1174476781797223
 40
0.2343680559387132
 40
0.3525203624525632
 40
0.4729179790183655
 40
0.5968676067563868
 40
0.7252754158163972
 40
0.8595753688358966
 40
1.0
 40
1.0
 40
1.0
 40
1.0
 10
22.18986864596365
 20
6.690515533778147
 30
0.0
 10
22.35578261081922
 20
6.500289112843206
 30
0.0
 10
22.68686564284633
 20
6.12069032337647
 30
0.0
 10
23.1067736425991
 20
5.488155270881204
 30
0.0
 10
23.46086513411481
 20
4.810860857864207
 30
0.0
 10
23.75636453425444
 20
4.089174839750825
 30
0.0
 10
23.97708461961931
 20
3.318323205282746
 30
0.0
 10
24.13768760227877
 20
2.50308596723308
 30
0.0
 10
24.24097584738825
 20
1.642143252195896
 30
0.0
 10
24.25083945183398
 20
1.051966679471576
 30
0.0
 10
24.2558812030859
 20
0.7502997289407839
 30
0.0
  0
SPLINE
  5
C7
330
1F
100
AcDbEntity
  8
0
  6
Continuous
 62
     7
370
    25
100
AcDbSpline
210
0.0
220
0.0
230
1.0
 70
     8
 71
     3
 72
    15
 73
    11
 74
     0
 42
0.000000001
 43
0.00000001
 40
0.0
 40
0.0
 40
0.0
 40
0.0
 40
0.1406651822924651
 40
0.2752151842993284
 40
0.4038785988376282
 40
0.527570792135053
 40
0.6482117969251052
 40
0.7661187096165801
 40
0.8827962521804031
 40
0.9999999999999999
 40
0.9999999999999999
 40
0.9999999999999999
 40
0.9999999999999999
 10
24.2558812030859
 20
0.7502997289407839
 30
0.0
 10
24.2508491079901
 20
0.4474848227123289
 30
0.0
 10
24.24100367960025
 20
-0.1449806251550234
 30
0.0
 10
24.13755974556997
 20
-1.009302521031456
 30
0.0
 10
23.97770655543101
 20
-1.827046126510402
 30
0.0
 10
23.75554088744327
 20
-2.599705515071799
 30
0.0
 10
23.46176681286183
 20
-3.323232426864251
 30
0.0
 10
23.10666687495639
 20
-4.001263861432616
 30
0.0
 10
22.6868923580112
 20
-4.633851987067883
 30
0.0
 10
22.35579152922106
 20
-5.013443700491544
 30
0.0
 10
22.18986864596365
 20
-5.203666575444815
 30
0.0
  0
SPLINE
  5
C8
330
1F
100
AcDbEntity
  8
0
  6
Continuous
 62
     7
370
    25
100
AcDbSpline
210
0.0
220
0.0
230
1.0
 70
     8
 71
     3
 72
    15
 73
    11
 74
     0
 42
0.000000001
 43
0.00000001
 40
0.0
 40
0.0
 40
0.0
 40
0.0
 40
0.1200116910224669
 40
0.2380115515742782
 40
0.3561600145442939
 40
0.4761339697486649
 40
0.5994441430075115
 40
0.726963859937251
 40
0.8599884098054764
 40
1.0
 40
1.0
 40
1.0
 40
1.0
 10
22.18986864596365
 20
-5.203666575444815
 30
0.0
 10
22.00855931445857
 20
-5.388362932152842
 30
0.0
 10
21.64898005231533
 20
-5.754659465896073
 30
0.0
 10
21.03458544632327
 20
-6.218137351912915
 30
0.0
 10
20.37863969277815
 20
-6.618203235039142
 30
0.0
 10
19.66852469887496
 20
-6.941785443116576
 30
0.0
 10
18.908724703092
 20
-7.193021741536393
 30
0.0
 10
18.09977904746222
 20
-7.368843367708438
 30
0.0
 10
17.24297917418448
 20
-7.48362999902521
 30
0.0
 10
16.65453359007458
 20
-7.494451029021418
 30
0.0
 10
16.35278158773805
 20
-7.500000000000001
 30
0.0
  0
LINE
  5
C9
330
1F
100
AcDbEntity
  8
0
  6
Continuous
 62
     7
370
    25
100
AcDbLine
 10
16.3527815877
 20
-7.5
 30
0.0
 11
15.218365375
 21
-7.5
 31
0.0
  0
LINE
  5
CA
330
1F
100
AcDbEntity
  8
0
  6
Continuous
 62
     7
370
    25
100
AcDbLine
 10
15.218365375
 20
-7.5
 30
0.0
 11
15.218365375
 21
-6.5615284058
 31
0.0
  0
SPLINE
  5
CB
330
1F
100
AcDbEntity
  8
0
  6
Continuous
 62
     7
370
    25
100
AcDbSpline
210
0.0
220
0.0
230
1.0
 70
     8
 71
     3
 72
    19
 73
    15
 74
     0
 42
0.000000001
 43
0.00000001
 40
0.0
 40
0.0
 40
0.0
 40
0.0
 40
0.0506674866551272
 40
0.1101857401303834
 40
0.1765450942349036
 40
0.2518570172219933
 40
0.3327992424029922
 40
0.4182148977520895
 40
0.5071943634059479
 40
0.6022410336568896
 40
0.6995827990572191
 40
0.7973112021174575
 40
0.8965831186598546
 40
1.0
 40
1.0
 40
1.0
 40
1.0
 10
15.21836537500869
 20
-6.561528405832987
 30
0.0
 10
15.30196056585937
 20
-6.570201543775423
 30
0.0
 10
15.48375363639233
 20
-6.58906287253927
 30
0.0
 10
15.77625187291243
 20
-6.604461668586628
 30
0.0
 10
16.10979617916359
 20
-6.614252767278553
 30
0.0
 10
16.47889897912134
 20
-6.619899098231798
 30
0.0
 10
16.88024467478926
 20
-6.604551662997802
 30
0.0
 10
17.29811205568286
 20
-6.530431768259191
 30
0.0
 10
17.73244997282277
 20
-6.424432196507761
 30
0.0
 10
18.17480714859254
 20
-6.272975525705327
 30
0.0
 10
18.6102130379071
 20
-6.065415510990721
 30
0.0
 10
19.02040845333046
 20
-5.797299148550588
 30
0.0
 10
19.38830932554083
 20
-5.457703207711074
 30
0.0
 10
19.59992955629535
 20
-5.196166505391263
 30
0.0
 10
19.7079034775073
 20
-5.06272395507541
 30
0.0
  0
SPLINE
  5
CC
330
1F
100
AcDbEntity
  8
0
  6
Continuous
 62
     7
370
    25
100
AcDbSpline
210
0.0
220
0.0
230
1.0
 70
     8
 71
     3
 72
    11
 73
     7
 74
     0
 42
0.000000001
 43
0.00000001
 40
0.0
 40
0.0
 40
0.0
 40
0.0
 40
0.2475788507837666
 40
0.4906208066778042
 40
0.7372861088213876
 40
1.0
 40
1.0
 40
1.0
 40
1.0
 10
4.345157857242148
 20
-7.290304881889422
 30
0.0
 10
4.27614549253531
 20
-7.216256918637526
 30
0.0
 10
4.139385418175067
 20
-7.06951792478371
 30
0.0
 10
3.999328746464363
 20
-6.800748597203413
 30
0.0
 10
3.90788154284679
 20
-6.505596821464134
 30
0.0
 10
3.899270281603006
 20
-6.297560363394378
 30
0.0
 10
3.894828997037463
 20
-6.190264918030651
 30
0.0
  0
SPLINE
  5
CD
330
1F
100
AcDbEntity
  8
0
  6
Continuous
 62
     7
370
    25
100
AcDbSpline
210
0.0
220
0.0
230
1.0
 70
     8
 71
     3
 72
    15
 73
    11
 74
     0
 42
0.000000001
 43
0.00000001
 40
0.0
 40
0.0
 40
0.0
 40
0.0
 40
0.1351135537013664
 40
0.2616104470067137
 40
0.3825867964317268
 40
0.5008795235083443
 40
0.6166182919152776
 40
0.7383264733027426
 40
0.864444794466661
 40
1.0
 40
1.0
 40
1.0
 40
1.0
 10
3.894828997037463
 20
-6.190264918030651
 30
0.0
 10
3.896449321468816
 20
-6.106269050412346
 30
0.0
 10
3.899586636617222
 20
-5.943634023263924
 30
0.0
 10
3.952912529698607
 20
-5.711499105071748
 30
0.0
 10
4.021001501444688
 20
-5.494366789063257
 30
0.0
 10
4.130009730433214
 20
-5.301560903173084
 30
0.0
 10
4.26702030554498
 20
-5.127300353183297
 30
0.0
 10
4.438035828885467
 20
-4.97942856302044
 30
0.0
 10
4.63128030839465
 20
-4.839123685590933
 30
0.0
 10
4.78021240484354
 20
-4.77355426172973
 30
0.0
 10
4.857363965413888
 20
-4.739587215691897
 30
0.0
  0
SPLINE
  5
CE
330
1F
100
AcDbEntity
  8
0
  6
Continuous
 62
     7
370
    25
100
AcDbSpline
210
0.0
220
0.0
230
1.0
 70
     8
 71
     3
 72
    13
 73
     9
 74
     0
 42
0.000000001
 43
0.00000001
 40
0.0
 40
0.0
 40
0.0
 40
0.0
 40
0.1667709464225895
 40
0.3382096683572204
 40
0.5116437506773504
 40
0.6789498518166027
 40
0.840793549914096
 40
1.0
 40
1.0
 40
1.0
 40
1.0
 10
4.857363965413888
 20
-4.739587215691897
 30
0.0
 10
4.956056149626131
 20
-4.705269258048093
 30
0.0
 10
5.156202827497063
 20
-4.635672812609704
 30
0.0
 10
5.477630252460719
 20
-4.614851494294272
 30
0.0
 10
5.797949879238591
 20
-4.640736539085769
 30
0.0
 10
6.097983303721263
 20
-4.737874070191284
 30
0.0
 10
6.372882774112107
 20
-4.875518513150907
 30
0.0
 10
6.522572235376504
 20
-5.00985697933889
 30
0.0
 10
6.59680215826557
 20
-5.076474454623646
 30
0.0
  0
SPLINE
  5
CF
330
1F
100
AcDbEntity
  8
0
  6
Continuous
 62
     7
370
    25
100
AcDbSpline
210
0.0
220
0.0
230
1.0
 70
     8
 71
     3
 72
    11
 73
     7
 74
     0
 42
0.000000001
 43
0.00000001
 40
0.0
 40
0.0
 40
0.0
 40
0.0
 40
0.2508609051898614
 40
0.4936413085196386
 40
0.7402203321351963
 40
1.0
 40
1.0
 40
1.0
 40
1.0
 10
6.59680215826557
 20
-5.076474454623646
 30
0.0
 10
6.667093255092557
 20
-5.152752791934038
 30
0.0
 10
6.805411296274353
 20
-5.302852458572432
 30
0.0
 10
6.946099101700001
 20
-5.576476361968445
 30
0.0
 10
7.037169582581458
 20
-5.873893789209909
 30
0.0
 10
7.046025334024745
 20
-6.082990839185006
 30
0.0
 10
7.050568643357312
 20
-6.190264918030651
 30
0.0
  0
SPLINE
  5
D0
330
1F
100
AcDbEntity
  8
0
  6
Continuous
 62
     7
370
    25
100
AcDbSpline
210
0.0
220
0.0
230
1.0
 70
     8
 71
     3
 72
    15
 73
    11
 74
     0
 42
0.000000001
 43
0.00000001
 40
0.0
 40
0.0
 40
0.0
 40
0.0
 40
0.136878972490002
 40
0.2646588959786815
 40
0.3843069799746724
 40
0.5016028476419945
 40
0.6188538802942362
 40
0.7395084700188196
 40
0.8651722963266193
 40
1.0
 40
1.0
 40
1.0
 40
1.0
 10
7.050568643357312
 20
-6.190264918030651
 30
0.0
 10
7.048329548289888
 20
-6.27410217924879
 30
0.0
 10
7.044000202315442
 20
-6.436203607921409
 30
0.0
 10
6.999532816748482
 20
-6.668520428841997
 30
0.0
 10
6.92161116415605
 20
-6.878476876862633
 30
0.0
 10
6.818928762194188
 20
-7.070406766747692
 30
0.0
 10
6.682388338400004
 20
-7.241253583853959
 30
0.0
 10
6.51500171513346
 20
-7.388985731687317
 30
0.0
 10
6.320118729784813
 20
-7.519162815890454
 30
0.0
 10
6.173984239998952
 20
-7.583552049345902
 30
0.0
 10
6.098346549642064
 20
-7.616879246159995
 30
0.0
  0
SPLINE
  5
D1
330
1F
100
AcDbEntity
  8
0
  6
Continuous
 62
     7
370
    25
100
AcDbSpline
210
0.0
220
0.0
230
1.0
 70
     8
 71
     3
 72
    13
 73
     9
 74
     0
 42
0.000000001
 43
0.00000001
 40
0.0
 40
0.0
 40
0.0
 40
0.0
 40
0.1656946820014089
 40
0.3383800710655637
 40
0.5092416624832976
 40
0.6766963750116958
 40
0.8396177283998268
 40
1.0
 40
1.0
 40
1.0
 40
1.0
 10
6.098346549642064
 20
-7.616879246159995
 30
0.0
 10
5.999576459726818
 20
-7.649785646254755
 30
0.0
 10
5.797869140934359
 20
-7.716986777082132
 30
0.0
 10
5.476969423303212
 20
-7.737916795360322
 30
0.0
 10
5.156822642167166
 20
-7.713760303505117
 30
0.0
 10
4.852953230689898
 20
-7.627451362896238
 30
0.0
 10
4.576954118368601
 20
-7.486331915144168
 30
0.0
 10
4.422017677158536
 20
-7.35530421536221
 30
0.0
 10
4.345157857242148
 20
-7.290304881889422
 30
0.0
  0
ENDSEC
  0
SECTION
  2
OBJECTS
  0
DICTIONARY
  5
C
330
0
100
AcDbDictionary
281
     1
  3
ACAD_DETAILVIEWSTYLE
350
D9
  3
ACAD_GROUP
350
D
  3
ACAD_LAYOUT
350
1A
  3
ACAD_MATERIAL
350
43
  3
ACAD_MLEADERSTYLE
350
6B
  3
ACAD_MLINESTYLE
350
17
  3
ACAD_PLOTSETTINGS
350
19
  3
ACAD_PLOTSTYLENAME
350
E
  3
ACAD_SCALELIST
350
47
  3
ACAD_SECTIONVIEWSTYLE
350
DA
  3
ACAD_TABLESTYLE
350
69
  3
ACAD_VISUALSTYLE
350
2A
  3
ACDB_RECOMPOSE_DATA
350
D6
  3
AcDbVariableDictionary
350
D2
  0
SUN
  5
6D
330
29
100
AcDbSun
 90
        1
290
     0
 63
     7
421
 16777215
 40
1.0
291
     1
 91
  2455826
 92
 54000000
292
     0
 70
     2
 71
   256
280
     1
  0
DICTIONARY
  5
D9
102
{ACAD_REACTORS
330
C
102
}
330
C
100
AcDbDictionary
281
     1
  0
DICTIONARY
  5
D
102
{ACAD_REACTORS
330
C
102
}
330
C
100
AcDbDictionary
281
     1
  0
DICTIONARY
  5
1A
102
{ACAD_REACTORS
330
C
102
}
330
C
100
AcDbDictionary
281
     1
  3
Layout1
350
1E
  3
Layout2
350
26
  3
Model
350
22
  0
DICTIONARY
  5
43
102
{ACAD_REACTORS
330
C
102
}
330
C
100
AcDbDictionary
281
     1
  3
ByBlock
350
45
  3
ByLayer
350
44
  3
Global
350
46
  0
DICTIONARY
  5
6B
102
{ACAD_REACTORS
330
C
102
}
330
C
100
AcDbDictionary
281
     1
  3
Standard
350
6C
  0
DICTIONARY
  5
17
102
{ACAD_REACTORS
330
C
102
}
330
C
100
AcDbDictionary
281
     1
  3
Standard
350
18
  0
DICTIONARY
  5
19
102
{ACAD_REACTORS
330
C
102
}
330
C
100
AcDbDictionary
281
     1
  0
ACDBDICTIONARYWDFLT
  5
E
102
{ACAD_REACTORS
330
C
102
}
330
C
100
AcDbDictionary
281
     1
  3
Normal
350
F
100
AcDbDictionaryWithDefault
340
F
  0
DICTIONARY
  5
47
102
{ACAD_REACTORS
330
C
102
}
330
C
100
AcDbDictionary
281
     1
  3
A0
350
48
  3
A1
350
49
  3
A2
350
4A
  3
A3
350
4B
  3
A4
350
4C
  3
A5
350
4D
  3
A6
350
4E
  3
A7
350
4F
  3
A8
350
50
  3
A9
350
51
  3
B0
350
52
  3
B1
350
53
  3
B2
350
54
  3
B3
350
55
  3
B4
350
56
  3
B5
350
57
  3
B6
350
58
  3
B7
350
59
  3
B8
350
5A
  3
B9
350
5B
  3
C0
350
5C
  3
C1
350
5D
  3
C2
350
5E
  3
C3
350
5F
  3
C4
350
60
  3
C5
350
61
  3
C6
350
62
  3
C7
350
63
  3
C8
350
64
  3
C9
350
65
  3
D0
350
66
  3
D1
350
67
  3
D2
350
68
  0
DICTIONARY
  5
DA
102
{ACAD_REACTORS
330
C
102
}
330
C
100
AcDbDictionary
281
     1
  0
DICTIONARY
  5
69
102
{ACAD_REACTORS
330
C
102
}
330
C
100
AcDbDictionary
281
     1
  3
Standard
350
6A
  0
DICTIONARY
  5
2A
102
{ACAD_REACTORS
330
C
102
}
330
C
100
AcDbDictionary
281
     1
  3
2dWireframe
350
2F
  3
Basic
350
32
  3
Brighten
350
36
  3
ColorChange
350
3A
  3
Conceptual
350
34
  3
Dim
350
35
  3
EdgeColorOff
350
3D
  3
Facepattern
350
39
  3
Flat
350
2B
  3
FlatWithEdges
350
2C
  3
Gouraud
350
2D
  3
GouraudWithEdges
350
2E
  3
Hidden
350
31
  3
JitterOff
350
3B
  3
Linepattern
350
38
  3
OverhangOff
350
3C
  3
Realistic
350
33
  3
Shaded
350
42
  3
Shaded with edges
350
41
  3
Shades of Gray
350
3E
  3
Sketchy
350
3F
  3
Thicken
350
37
  3
Wireframe
350
30
  3
X-Ray
350
40
  0
XRECORD
  5
D6
102
{ACAD_REACTORS
330
C
102
}
330
C
100
AcDbXrecord
280
     1
 90
        1
330
6A
  0
DICTIONARY
  5
D2
102
{ACAD_REACTORS
330
C
102
}
330
C
100
AcDbDictionary
281
     1
  3
CANNOSCALE
350
D3
  3
CENTEREXE
350
DB
  3
CENTERLTYPEFILE
350
DC
  3
CMLEADERSTYLE
350
D8
  3
CTABLESTYLE
350
D7
  0
LAYOUT
  5
1E
102
{ACAD_REACTORS
330
1A
102
}
330
1A
100
AcDbPlotSettings
  1

  2
none_device
  4

  6

 40
0.0
 41
0.0
 42
0.0
 43
0.0
 44
0.0
 45
0.0
 46
0.0
 47
0.0
 48
0.0
 49
0.0
140
0.0
141
0.0
142
1.0
143
1.0
 70
   688
 72
     1
 73
     0
 74
     5
  7

 75
    16
 76
     0
 77
     2
 78
   300
147
1.0
148
0.0
149
0.0
100
AcDbLayout
  1
Layout1
 70
     1
 71
     1
 10
0.0
 20
0.0
 11
420.0
 21
297.0
 12
0.0
 22
0.0
 32
0.0
 14
1.0000000000E+20
 24
1.0000000000E+20
 34
1.0000000000E+20
 15
-1.0000000000E+20
 25
-1.0000000000E+20
 35
-1.0000000000E+20
146
0.0
 13
0.0
 23
0.0
 33
0.0
 16
1.0
 26
0.0
 36
0.0
 17
0.0
 27
1.0
 37
0.0
 76
     0
330
1B
  0
LAYOUT
  5
26
102
{ACAD_REACTORS
330
1A
102
}
330
1A
100
AcDbPlotSettings
  1

  2
none_device
  4

  6

 40
0.0
 41
0.0
 42
0.0
 43
0.0
 44
0.0
 45
0.0
 46
0.0
 47
0.0
 48
0.0
 49
0.0
140
0.0
141
0.0
142
1.0
143
1.0
 70
   688
 72
     1
 73
     0
 74
     5
  7

 75
    16
 76
     0
 77
     2
 78
   300
147
1.0
148
0.0
149
0.0
100
AcDbLayout
  1
Layout2
 70
     1
 71
     2
 10
0.0
 20
0.0
 11
0.0
 21
0.0
 12
0.0
 22
0.0
 32
0.0
 14
0.0
 24
0.0
 34
0.0
 15
0.0
 25
0.0
 35
0.0
146
0.0
 13
0.0
 23
0.0
 33
0.0
 16
1.0
 26
0.0
 36
0.0
 17
0.0
 27
1.0
 37
0.0
 76
     0
330
23
  0
LAYOUT
  5
22
102
{ACAD_REACTORS
330
1A
102
}
330
1A
100
AcDbPlotSettings
  1

  2
none_device
  4
ANSI_A_(11.00_x_8.50_Inches)
  6

 40
6.35
 41
19.05
 42
6.35000508
 43
19.05000254
 44
279.4
 45
215.9
 46
133.34999746
 47
88.89999873
 48
0.0
 49
0.0
140
0.0
141
0.0
142
0.0726
143
1.0
 70
  1696
 72
     0
 73
     0
 74
     0
  7

 75
     0
 76
     0
 77
     2
 78
   300
147
0.0179189148
148
-1300.4909072572
149
0.0
100
AcDbLayout
  1
Model
 70
     1
 71
     0
 10
0.0
 20
0.0
 11
420.0
 21
297.0
 12
0.0
 22
0.0
 32
0.0
 14
-75.0
 24
-15.0
 34
0.0
 15
75.0
 25
15.0
 35
0.0
146
0.0
 13
0.0
 23
0.0
 33
0.0
 16
1.0
 26
0.0
 36
0.0
 17
0.0
 27
1.0
 37
0.0
 76
     0
330
1F
331
29
  0
MATERIAL
  5
45
102
{ACAD_REACTORS
330
43
102
}
330
43
100
AcDbMaterial
  1
ByBlock
 72
     1
 94
      127
  0
MATERIAL
  5
44
102
{ACAD_REACTORS
330
43
102
}
330
43
100
AcDbMaterial
  1
ByLayer
 72
     1
 94
      127
  0
MATERIAL
  5
46
102
{ACAD_REACTORS
330
43
102
}
330
43
100
AcDbMaterial
  1
Global
 72
     1
 94
      127
  0
MLEADERSTYLE
  5
6C
102
{ACAD_REACTORS
330
6B
102
}
330
6B
100
AcDbMLeaderStyle
179
     2
170
     2
171
     1
172
     0
 90
        2
 40
0.0
 41
0.0
173
     1
 91
-1056964608
340
14
 92
       -2
290
     1
 42
2.0
291
     1
 43
8.0
  3
Standard
341
0
 44
4.0
300

342
11
174
     1
178
     6
175
     1
176
     0
 93
-1056964608
 45
4.0
292
     0
297
     0
 46
4.0
343
0
 94
-1056964608
 47
1.0
 49
1.0
140
1.0
293
     1
141
0.0
294
     1
177
     0
142
1.0
295
     0
296
     0
143
3.75
271
     0
272
     9
273
     9
298
     0
  0
MLINESTYLE
  5
18
102
{ACAD_REACTORS
330
17
102
}
330
17
100
AcDbMlineStyle
  2
Standard
 70
     0
  3

 62
   256
 51
90.0
 52
90.0
 71
     2
 49
0.5
 62
   256
  6
BYLAYER
 49
-0.5
 62
   256
  6
BYLAYER
  0
ACDBPLACEHOLDER
  5
F
102
{ACAD_REACTORS
330
E
102
}
330
E
  0
SCALE
  5
48
102
{ACAD_REACTORS
330
47
102
}
330
47
100
AcDbScale
 70
     0
300
1:1
140
1.0
141
1.0
290
     1
  0
SCALE
  5
49
102
{ACAD_REACTORS
330
47
102
}
330
47
100
AcDbScale
 70
     0
300
1:2
140
1.0
141
2.0
290
     0
  0
SCALE
  5
4A
102
{ACAD_REACTORS
330
47
102
}
330
47
100
AcDbScale
 70
     0
300
1:4
140
1.0
141
4.0
290
     0
  0
SCALE
  5
4B
102
{ACAD_REACTORS
330
47
102
}
330
47
100
AcDbScale
 70
     0
300
1:5
140
1.0
141
5.0
290
     0
  0
SCALE
  5
4C
102
{ACAD_REACTORS
330
47
102
}
330
47
100
AcDbScale
 70
     0
300
1:8
140
1.0
141
8.0
290
     0
  0
SCALE
  5
4D
102
{ACAD_REACTORS
330
47
102
}
330
47
100
AcDbScale
 70
     0
300
1:10
140
1.0
141
10.0
290
     0
  0
SCALE
  5
4E
102
{ACAD_REACTORS
330
47
102
}
330
47
100
AcDbScale
 70
     0
300
1:16
140
1.0
141
16.0
290
     0
  0
SCALE
  5
4F
102
{ACAD_REACTORS
330
47
102
}
330
47
100
AcDbScale
 70
     0
300
1:20
140
1.0
141
20.0
290
     0
  0
SCALE
  5
50
102
{ACAD_REACTORS
330
47
102
}
330
47
100
AcDbScale
 70
     0
300
1:30
140
1.0
141
30.0
290
     0
  0
SCALE
  5
51
102
{ACAD_REACTORS
330
47
102
}
330
47
100
AcDbScale
 70
     0
300
1:40
140
1.0
141
40.0
290
     0
  0
SCALE
  5
52
102
{ACAD_REACTORS
330
47
102
}
330
47
100
AcDbScale
 70
     0
300
1:50
140
1.0
141
50.0
290
     0
  0
SCALE
  5
53
102
{ACAD_REACTORS
330
47
102
}
330
47
100
AcDbScale
 70
     0
300
1:100
140
1.0
141
100.0
290
     0
  0
SCALE
  5
54
102
{ACAD_REACTORS
330
47
102
}
330
47
100
AcDbScale
 70
     0
300
2:1
140
2.0
141
1.0
290
     0
  0
SCALE
  5
55
102
{ACAD_REACTORS
330
47
102
}
330
47
100
AcDbScale
 70
     0
300
4:1
140
4.0
141
1.0
290
     0
  0
SCALE
  5
56
102
{ACAD_REACTORS
330
47
102
}
330
47
100
AcDbScale
 70
     0
300
8:1
140
8.0
141
1.0
290
     0
  0
SCALE
  5
57
102
{ACAD_REACTORS
330
47
102
}
330
47
100
AcDbScale
 70
     0
300
10:1
140
10.0
141
1.0
290
     0
  0
SCALE
  5
58
102
{ACAD_REACTORS
330
47
102
}
330
47
100
AcDbScale
 70
     0
300
100:1
140
100.0
141
1.0
290
     0
  0
SCALE
  5
59
102
{ACAD_REACTORS
330
47
102
}
330
47
100
AcDbScale
 70
     0
300
1/128" = 1'-0"
140
0.0078125
141
12.0
290
     0
  0
SCALE
  5
5A
102
{ACAD_REACTORS
330
47
102
}
330
47
100
AcDbScale
 70
     0
300
1/64" = 1'-0"
140
0.015625
141
12.0
290
     0
  0
SCALE
  5
5B
102
{ACAD_REACTORS
330
47
102
}
330
47
100
AcDbScale
 70
     0
300
1/32" = 1'-0"
140
0.03125
141
12.0
290
     0
  0
SCALE
  5
5C
102
{ACAD_REACTORS
330
47
102
}
330
47
100
AcDbScale
 70
     0
300
1/16" = 1'-0"
140
0.0625
141
12.0
290
     0
  0
SCALE
  5
5D
102
{ACAD_REACTORS
330
47
102
}
330
47
100
AcDbScale
 70
     0
300
3/32" = 1'-0"
140
0.09375
141
12.0
290
     0
  0
SCALE
  5
5E
102
{ACAD_REACTORS
330
47
102
}
330
47
100
AcDbScale
 70
     0
300
1/8" = 1'-0"
140
0.125
141
12.0
290
     0
  0
SCALE
  5
5F
102
{ACAD_REACTORS
330
47
102
}
330
47
100
AcDbScale
 70
     0
300
3/16" = 1'-0"
140
0.1875
141
12.0
290
     0
  0
SCALE
  5
60
102
{ACAD_REACTORS
330
47
102
}
330
47
100
AcDbScale
 70
     0
300
1/4" = 1'-0"
140
0.25
141
12.0
290
     0
  0
SCALE
  5
61
102
{ACAD_REACTORS
330
47
102
}
330
47
100
AcDbScale
 70
     0
300
3/8" = 1'-0"
140
0.375
141
12.0
290
     0
  0
SCALE
  5
62
102
{ACAD_REACTORS
330
47
102
}
330
47
100
AcDbScale
 70
     0
300
1/2" = 1'-0"
140
0.5
141
12.0
290
     0
  0
SCALE
  5
63
102
{ACAD_REACTORS
330
47
102
}
330
47
100
AcDbScale
 70
     0
300
3/4" = 1'-0"
140
0.75
141
12.0
290
     0
  0
SCALE
  5
64
102
{ACAD_REACTORS
330
47
102
}
330
47
100
AcDbScale
 70
     0
300
1" = 1'-0"
140
1.0
141
12.0
290
     0
  0
SCALE
  5
65
102
{ACAD_REACTORS
330
47
102
}
330
47
100
AcDbScale
 70
     0
300
1-1/2" = 1'-0"
140
1.5
141
12.0
290
     0
  0
SCALE
  5
66
102
{ACAD_REACTORS
330
47
102
}
330
47
100
AcDbScale
 70
     0
300
3" = 1'-0"
140
3.0
141
12.0
290
     0
  0
SCALE
  5
67
102
{ACAD_REACTORS
330
47
102
}
330
47
100
AcDbScale
 70
     0
300
6" = 1'-0"
140
6.0
141
12.0
290
     0
  0
SCALE
  5
68
102
{ACAD_REACTORS
330
47
102
}
330
47
100
AcDbScale
 70
     0
300
1'-0" = 1'-0"
140
12.0
141
12.0
290
     0
  0
TABLESTYLE
  5
6A
102
{ACAD_REACTORS
330
69
102
}
102
{ACAD_XDICTIONARY
360
D4
102
}
330
69
100
AcDbTableStyle
  3
Standard
 70
     0
 71
     0
 40
0.06
 41
0.06
280
     0
281
     0
  7
Standard
140
4.5
170
     2
 62
     0
 63
   257
283
     0
 90
        4
 91
        0
  1

274
    -2
284
     1
 64
     0
275
    -2
285
     1
 65
     0
276
    -2
286
     1
 66
     0
277
    -2
287
     1
 67
     0
278
    -2
288
     1
 68
     0
279
    -2
289
     1
 69
     0
  7
Standard
140
6.0
170
     5
 62
     0
 63
   257
283
     0
 90
        4
 91
        0
  1

274
    -2
284
     1
 64
     0
275
    -2
285
     1
 65
     0
276
    -2
286
     1
 66
     0
277
    -2
287
     1
 67
     0
278
    -2
288
     1
 68
     0
279
    -2
289
     1
 69
     0
  7
Standard
140
4.5
170
     5
 62
     0
 63
   257
283
     0
 90
        4
 91
        0
  1

274
    -2
284
     1
 64
     0
275
    -2
285
     1
 65
     0
276
    -2
286
     1
 66
     0
277
    -2
287
     1
 67
     0
278
    -2
288
     1
 68
     0
279
    -2
289
     1
 69
     0
  0
VISUALSTYLE
  5
2F
102
{ACAD_REACTORS
330
2A
102
}
330
2A
100
AcDbVisualStyle
  2
2dWireframe
 70
     4
177
     3
291
     0
 70
    58
 90
        0
176
     1
 90
        2
176
     1
 90
        0
176
     1
 90
        0
176
     1
 40
0.6
176
     1
 40
30.0
176
     1
 62
     7
420
 16777215
176
     1
 90
        1
176
     1
 90
        4
176
     1
 62
     7
176
     1
 62
   257
176
     1
 90
        1
176
     1
 90
        1
176
     1
 40
1.0
176
     1
 90
        0
176
     1
 62
   257
176
     1
 40
1.0
176
     1
 90
        1
176
     1
 90
        6
176
     1
 90
        2
176
     1
 62
     7
176
     1
 90
        5
176
     1
 90
        0
176
     1
 90
        0
176
     1
290
     0
176
     1
 90
        1
176
     1
 40
0.0
176
     1
 90
        0
176
     1
290
     1
176
     1
290
     1
176
     1
290
     0
176
     1
290
     0
176
     1
290
     0
176
     1
290
     0
176
     1
290
     0
176
     1
290
     0
176
     1
290
     0
176
     1
 90
       50
176
     1
 40
0.0
176
     1
 40
1.0
176
     1
 90
        0
176
     1
 62
    18
420
        0
176
     1
 90
       50
176
     1
 90
        3
176
     1
 62
     5
420
      255
176
     1
290
     0
176
     1
 90
       50
176
     1
 90
       50
176
     1
 90
       50
176
     1
290
     0
176
     1
 90
       50
176
     1
 62
   256
176
     0
 40
1.0
176
     0
 90
        2
176
     1
  1
strokes_ogs.tif
176
     1
290
     0
176
     1
 40
1.0
176
     1
 40
1.0
176
     1
  0
VISUALSTYLE
  5
32
102
{ACAD_REACTORS
330
2A
102
}
330
2A
100
AcDbVisualStyle
  2
Basic
 70
     7
177
     3
291
     1
 70
    58
 90
        1
176
     1
 90
        0
176
     1
 90
        1
176
     1
 90
        0
176
     1
 40
0.6
176
     1
 40
30.0
176
     1
 62
     7
420
 16777215
176
     1
 90
        0
176
     1
 90
        4
176
     1
 62
     7
176
     1
 62
   257
176
     1
 90
        1
176
     1
 90
        1
176
     1
 40
1.0
176
     1
 90
        8
176
     1
 62
     7
176
     1
 40
1.0
176
     1
 90
        1
176
     1
 90
        6
176
     1
 90
        2
176
     1
 62
     7
176
     1
 90
        5
176
     1
 90
        0
176
     1
 90
        0
176
     1
290
     0
176
     1
 90
        1
176
     1
 40
0.0
176
     1
 90
        0
176
     1
290
     0
176
     1
290
     1
176
     1
290
     1
176
     1
290
     0
176
     1
290
     0
176
     1
290
     0
176
     1
290
     0
176
     1
290
     0
176
     1
290
     0
176
     1
 90
       50
176
     1
 40
0.0
176
     1
 40
1.0
176
     1
 90
        0
176
     1
 62
    18
420
        0
176
     1
 90
       50
176
     1
 90
        3
176
     1
 62
     5
420
      255
176
     1
290
     0
176
     1
 90
       50
176
     1
 90
       50
176
     1
 90
       50
176
     1
290
     0
176
     1
 90
       50
176
     1
 62
   256
176
     0
 40
1.0
176
     0
 90
        2
176
     1
  1
strokes_ogs.tif
176
     1
290
     0
176
     1
 40
1.0
176
     1
 40
1.0
176
     1
  0
VISUALSTYLE
  5
36
102
{ACAD_REACTORS
330
2A
102
}
330
2A
100
AcDbVisualStyle
  2
Brighten
 70
    12
177
     3
291
     1
 70
    58
 90
        2
176
     1
 90
        2
176
     1
 90
        0
176
     1
 90
        0
176
     1
 40
0.6
176
     1
 40
30.0
176
     1
 62
     7
420
 16777215
176
     1
 90
        1
176
     1
 90
        4
176
     1
 62
     7
176
     1
 62
   257
176
     1
 90
        1
176
     1
 90
        1
176
     1
 40
1.0
176
     1
 90
        8
176
     1
 62
     7
176
     1
 40
1.0
176
     1
 90
        1
176
     1
 90
        6
176
     1
 90
        2
176
     1
 62
     7
176
     1
 90
        5
176
     1
 90
        0
176
     1
 90
        0
176
     1
290
     0
176
     1
 90
        1
176
     1
 40
50.0
176
     1
 90
        0
176
     1
290
     0
176
     1
290
     1
176
     1
290
     1
176
     1
290
     0
176
     1
290
     0
176
     1
290
     0
176
     1
290
     0
176
     1
290
     0
176
     1
290
     0
176
     1
 90
       50
176
     1
 40
0.0
176
     1
 40
1.0
176
     1
 90
        0
176
     1
 62
    18
420
        0
176
     1
 90
       50
176
     1
 90
        3
176
     1
 62
     5
420
      255
176
     1
290
     0
176
     1
 90
       50
176
     1
 90
       50
176
     1
 90
       50
176
     1
290
     0
176
     1
 90
       50
176
     1
 62
   256
176
     0
 40
1.0
176
     0
 90
        2
176
     1
  1
strokes_ogs.tif
176
     1
290
     0
176
     1
 40
1.0
176
     1
 40
1.0
176
     1
  0
VISUALSTYLE
  5
3A
102
{ACAD_REACTORS
330
2A
102
}
330
2A
100
AcDbVisualStyle
  2
ColorChange
 70
    16
177
     3
291
     1
 70
    58
 90
        2
176
     1
 90
        2
176
     1
 90
        3
176
     1
 90
        0
176
     1
 40
0.6
176
     1
 40
30.0
176
     1
 62
     8
420
  8421504
176
     1
 90
        1
176
     1
 90
        4
176
     1
 62
     7
176
     1
 62
   257
176
     1
 90
        1
176
     1
 90
        1
176
     1
 40
1.0
176
     1
 90
        8
176
     1
 62
     8
420
  8421504
176
     1
 40
1.0
176
     1
 90
        1
176
     1
 90
        6
176
     1
 90
        2
176
     1
 62
     7
176
     1
 90
        5
176
     1
 90
        0
176
     1
 90
        0
176
     1
290
     0
176
     1
 90
        1
176
     1
 40
0.0
176
     1
 90
        0
176
     1
290
     0
176
     1
290
     1
176
     1
290
     1
176
     1
290
     0
176
     1
290
     0
176
     1
290
     0
176
     1
290
     0
176
     1
290
     0
176
     1
290
     0
176
     1
 90
       50
176
     1
 40
0.0
176
     1
 40
1.0
176
     1
 90
        0
176
     1
 62
    18
420
        0
176
     1
 90
       50
176
     1
 90
        3
176
     1
 62
     5
420
      255
176
     1
290
     0
176
     1
 90
       50
176
     1
 90
       50
176
     1
 90
       50
176
     1
290
     0
176
     1
 90
       50
176
     1
 62
   256
176
     0
 40
1.0
176
     0
 90
        2
176
     1
  1
strokes_ogs.tif
176
     1
290
     0
176
     1
 40
1.0
176
     1
 40
1.0
176
     1
  0
VISUALSTYLE
  5
34
102
{ACAD_REACTORS
330
2A
102
}
330
2A
100
AcDbVisualStyle
  2
Conceptual
 70
     9
177
     3
291
     0
 70
    58
 90
        3
176
     1
 90
        2
176
     1
 90
        0
176
     1
 90
        0
176
     1
 40
0.6
176
     1
 40
30.0
176
     1
 62
     7
420
 16777215
176
     1
 90
        2
176
     1
 90
        2
176
     1
 62
     7
176
     1
 62
   257
176
     1
 90
        1
176
     1
 90
        1
176
     1
 40
179.0
176
     1
 90
        8
176
     1
 62
     7
176
     1
 40
1.0
176
     1
 90
        1
176
     1
 90
        6
176
     1
 90
        2
176
     1
 62
     7
176
     1
 90
        3
176
     1
 90
        0
176
     1
 90
        0
176
     1
290
     0
176
     1
 90
        1
176
     1
 40
0.0
176
     1
 90
        0
176
     1
290
     0
176
     1
290
     1
176
     1
290
     1
176
     1
290
     0
176
     1
290
     0
176
     1
290
     0
176
     1
290
     0
176
     1
290
     0
176
     1
290
     0
176
     1
 90
       50
176
     1
 40
0.0
176
     1
 40
1.0
176
     1
 90
        0
176
     1
 62
    18
420
        0
176
     1
 90
       50
176
     1
 90
        3
176
     1
 62
     5
420
      255
176
     1
290
     0
176
     1
 90
       50
176
     1
 90
       50
176
     1
 90
       50
176
     1
290
     0
176
     1
 90
       50
176
     1
 62
   256
176
     0
 40
1.0
176
     0
 90
        2
176
     1
  1
strokes_ogs.tif
176
     1
290
     0
176
     1
 40
1.0
176
     1
 40
1.0
176
     1
  0
VISUALSTYLE
  5
35
102
{ACAD_REACTORS
330
2A
102
}
330
2A
100
AcDbVisualStyle
  2
Dim
 70
    11
177
     3
291
     1
 70
    58
 90
        2
176
     1
 90
        2
176
     1
 90
        0
176
     1
 90
        0
176
     1
 40
0.6
176
     1
 40
30.0
176
     1
 62
     7
420
 16777215
176
     1
 90
        1
176
     1
 90
        4
176
     1
 62
     7
176
     1
 62
   257
176
     1
 90
        1
176
     1
 90
        1
176
     1
 40
1.0
176
     1
 90
        8
176
     1
 62
     7
176
     1
 40
1.0
176
     1
 90
        1
176
     1
 90
        6
176
     1
 90
        2
176
     1
 62
     7
176
     1
 90
        5
176
     1
 90
        0
176
     1
 90
        0
176
     1
290
     0
176
     1
 90
        1
176
     1
 40
-50.0
176
     1
 90
        0
176
     1
290
     0
176
     1
290
     1
176
     1
290
     1
176
     1
290
     0
176
     1
290
     0
176
     1
290
     0
176
     1
290
     0
176
     1
290
     0
176
     1
290
     0
176
     1
 90
       50
176
     1
 40
0.0
176
     1
 40
1.0
176
     1
 90
        0
176
     1
 62
    18
420
        0
176
     1
 90
       50
176
     1
 90
        3
176
     1
 62
     5
420
      255
176
     1
290
     0
176
     1
 90
       50
176
     1
 90
       50
176
     1
 90
       50
176
     1
290
     0
176
     1
 90
       50
176
     1
 62
   256
176
     0
 40
1.0
176
     0
 90
        2
176
     1
  1
strokes_ogs.tif
176
     1
290
     0
176
     1
 40
1.0
176
     1
 40
1.0
176
     1
  0
VISUALSTYLE
  5
3D
102
{ACAD_REACTORS
330
2A
102
}
330
2A
100
AcDbVisualStyle
  2
EdgeColorOff
 70
    22
177
     3
291
     1
 70
    58
 90
        2
176
     0
 90
        2
176
     0
 90
        0
176
     0
 90
        0
176
     0
 40
0.6
176
     0
 40
30.0
176
     0
 62
     7
420
 16777215
176
     0
 90
        1
176
     0
 90
        4
176
     0
 62
     7
176
     0
 62
   257
176
     0
 90
        1
176
     0
 90
        1
176
     0
 40
1.0
176
     0
 90
        8
176
     2
 62
     7
176
     0
 40
1.0
176
     0
 90
        1
176
     0
 90
        6
176
     0
 90
        2
176
     0
 62
     7
176
     0
 90
        5
176
     0
 90
        0
176
     0
 90
        0
176
     0
290
     0
176
     0
 90
        1
176
     0
 40
0.0
176
     0
 90
        0
176
     0
290
     0
176
     0
290
     1
176
     0
290
     1
176
     0
290
     0
176
     0
290
     0
176
     0
290
     0
176
     0
290
     0
176
     0
290
     0
176
     0
290
     0
176
     0
 90
       50
176
     0
 40
0.0
176
     0
 40
1.0
176
     0
 90
        0
176
     0
 62
    18
420
        0
176
     0
 90
       50
176
     0
 90
        3
176
     0
 62
     5
420
      255
176
     0
290
     0
176
     0
 90
       50
176
     0
 90
       50
176
     0
 90
       50
176
     0
290
     0
176
     0
 90
       50
176
     0
 62
   256
176
     0
 40
1.0
176
     0
 90
        2
176
     0
  1
strokes_ogs.tif
176
     0
290
     0
176
     0
 40
1.0
176
     0
 40
1.0
176
     0
  0
VISUALSTYLE
  5
39
102
{ACAD_REACTORS
330
2A
102
}
330
2A
100
AcDbVisualStyle
  2
Facepattern
 70
    15
177
     3
291
     1
 70
    58
 90
        2
176
     1
 90
        2
176
     1
 90
        0
176
     1
 90
        0
176
     1
 40
0.6
176
     1
 40
30.0
176
     1
 62
     7
420
 16777215
176
     1
 90
        1
176
     1
 90
        4
176
     1
 62
     7
176
     1
 62
   257
176
     1
 90
        1
176
     1
 90
        1
176
     1
 40
1.0
176
     1
 90
        8
176
     1
 62
     7
176
     1
 40
1.0
176
     1
 90
        1
176
     1
 90
        6
176
     1
 90
        2
176
     1
 62
     7
176
     1
 90
        5
176
     1
 90
        0
176
     1
 90
        0
176
     1
290
     0
176
     1
 90
        1
176
     1
 40
0.0
176
     1
 90
        0
176
     1
290
     0
176
     1
290
     1
176
     1
290
     1
176
     1
290
     0
176
     1
290
     0
176
     1
290
     0
176
     1
290
     0
176
     1
290
     0
176
     1
290
     0
176
     1
 90
       50
176
     1
 40
0.0
176
     1
 40
1.0
176
     1
 90
        0
176
     1
 62
    18
420
        0
176
     1
 90
       50
176
     1
 90
        3
176
     1
 62
     5
420
      255
176
     1
290
     0
176
     1
 90
       50
176
     1
 90
       50
176
     1
 90
       50
176
     1
290
     0
176
     1
 90
       50
176
     1
 62
   256
176
     0
 40
1.0
176
     0
 90
        2
176
     1
  1
strokes_ogs.tif
176
     1
290
     0
176
     1
 40
1.0
176
     1
 40
1.0
176
     1
  0
VISUALSTYLE
  5
2B
102
{ACAD_REACTORS
330
2A
102
}
330
2A
100
AcDbVisualStyle
  2
Flat
 70
     0
177
     3
291
     1
 70
    58
 90
        2
176
     1
 90
        1
176
     1
 90
        1
176
     1
 90
        2
176
     1
 40
0.6
176
     1
 40
30.0
176
     1
 62
     7
420
 16777215
176
     1
 90
        0
176
     1
 90
        0
176
     1
 62
     7
176
     1
 62
   257
176
     1
 90
        1
176
     1
 90
        1
176
     1
 40
1.0
176
     1
 90
        8
176
     1
 62
     7
176
     1
 40
1.0
176
     1
 90
        1
176
     1
 90
        6
176
     1
 90
        2
176
     1
 62
     7
176
     1
 90
        5
176
     1
 90
        0
176
     1
 90
        0
176
     1
290
     0
176
     1
 90
       13
176
     1
 40
0.0
176
     1
 90
        0
176
     1
290
     0
176
     1
290
     1
176
     1
290
     1
176
     1
290
     0
176
     1
290
     0
176
     1
290
     0
176
     1
290
     0
176
     1
290
     0
176
     1
290
     0
176
     1
 90
       50
176
     1
 40
0.0
176
     1
 40
1.0
176
     1
 90
        0
176
     1
 62
    18
420
        0
176
     1
 90
       50
176
     1
 90
        3
176
     1
 62
     5
420
      255
176
     1
290
     0
176
     1
 90
       50
176
     1
 90
       50
176
     1
 90
       50
176
     1
290
     0
176
     1
 90
       50
176
     1
 62
   256
176
     0
 40
1.0
176
     0
 90
        2
176
     1
  1
strokes_ogs.tif
176
     1
290
     0
176
     1
 40
1.0
176
     1
 40
1.0
176
     1
  0
VISUALSTYLE
  5
2C
102
{ACAD_REACTORS
330
2A
102
}
330
2A
100
AcDbVisualStyle
  2
FlatWithEdges
 70
     1
177
     3
291
     1
 70
    58
 90
        2
176
     1
 90
        1
176
     1
 90
        1
176
     1
 90
        2
176
     1
 40
0.6
176
     1
 40
30.0
176
     1
 62
     7
420
 16777215
176
     1
 90
        1
176
     1
 90
        0
176
     1
 62
     7
176
     1
 62
   257
176
     1
 90
        1
176
     1
 90
        1
176
     1
 40
1.0
176
     1
 90
        0
176
     1
 62
   257
176
     1
 40
1.0
176
     1
 90
        1
176
     1
 90
        6
176
     1
 90
        2
176
     1
 62
     7
176
     1
 90
        5
176
     1
 90
        0
176
     1
 90
        0
176
     1
290
     0
176
     1
 90
       13
176
     1
 40
0.0
176
     1
 90
        0
176
     1
290
     0
176
     1
290
     1
176
     1
290
     1
176
     1
290
     0
176
     1
290
     0
176
     1
290
     0
176
     1
290
     0
176
     1
290
     0
176
     1
290
     0
176
     1
 90
       50
176
     1
 40
0.0
176
     1
 40
1.0
176
     1
 90
        0
176
     1
 62
    18
420
        0
176
     1
 90
       50
176
     1
 90
        3
176
     1
 62
     5
420
      255
176
     1
290
     0
176
     1
 90
       50
176
     1
 90
       50
176
     1
 90
       50
176
     1
290
     0
176
     1
 90
       50
176
     1
 62
   256
176
     0
 40
1.0
176
     0
 90
        2
176
     1
  1
strokes_ogs.tif
176
     1
290
     0
176
     1
 40
1.0
176
     1
 40
1.0
176
     1
  0
VISUALSTYLE
  5
2D
102
{ACAD_REACTORS
330
2A
102
}
330
2A
100
AcDbVisualStyle
  2
Gouraud
 70
     2
177
     3
291
     1
 70
    58
 90
        2
176
     1
 90
        2
176
     1
 90
        1
176
     1
 90
        2
176
     1
 40
0.6
176
     1
 40
30.0
176
     1
 62
     7
420
 16777215
176
     1
 90
        0
176
     1
 90
        0
176
     1
 62
     7
176
     1
 62
   257
176
     1
 90
        1
176
     1
 90
        1
176
     1
 40
1.0
176
     1
 90
        0
176
     1
 62
     7
176
     1
 40
1.0
176
     1
 90
        1
176
     1
 90
        6
176
     1
 90
        2
176
     1
 62
     7
176
     1
 90
        5
176
     1
 90
        0
176
     1
 90
        0
176
     1
290
     0
176
     1
 90
       13
176
     1
 40
0.0
176
     1
 90
        0
176
     1
290
     0
176
     1
290
     1
176
     1
290
     1
176
     1
290
     0
176
     1
290
     0
176
     1
290
     0
176
     1
290
     0
176
     1
290
     0
176
     1
290
     0
176
     1
 90
       50
176
     1
 40
0.0
176
     1
 40
1.0
176
     1
 90
        0
176
     1
 62
    18
420
        0
176
     1
 90
       50
176
     1
 90
        3
176
     1
 62
     5
420
      255
176
     1
290
     0
176
     1
 90
       50
176
     1
 90
       50
176
     1
 90
       50
176
     1
290
     0
176
     1
 90
       50
176
     1
 62
   256
176
     0
 40
1.0
176
     0
 90
        2
176
     1
  1
strokes_ogs.tif
176
     1
290
     0
176
     1
 40
1.0
176
     1
 40
1.0
176
     1
  0
VISUALSTYLE
  5
2E
102
{ACAD_REACTORS
330
2A
102
}
330
2A
100
AcDbVisualStyle
  2
GouraudWithEdges
 70
     3
177
     3
291
     1
 70
    58
 90
        2
176
     1
 90
        2
176
     1
 90
        1
176
     1
 90
        2
176
     1
 40
0.6
176
     1
 40
30.0
176
     1
 62
     7
420
 16777215
176
     1
 90
        1
176
     1
 90
        0
176
     1
 62
     7
176
     1
 62
   257
176
     1
 90
        1
176
     1
 90
        1
176
     1
 40
1.0
176
     1
 90
        0
176
     1
 62
   257
176
     1
 40
1.0
176
     1
 90
        1
176
     1
 90
        6
176
     1
 90
        2
176
     1
 62
     7
176
     1
 90
        5
176
     1
 90
        0
176
     1
 90
        0
176
     1
290
     0
176
     1
 90
       13
176
     1
 40
0.0
176
     1
 90
        0
176
     1
290
     0
176
     1
290
     1
176
     1
290
     1
176
     1
290
     0
176
     1
290
     0
176
     1
290
     0
176
     1
290
     0
176
     1
290
     0
176
     1
290
     0
176
     1
 90
       50
176
     1
 40
0.0
176
     1
 40
1.0
176
     1
 90
        0
176
     1
 62
    18
420
        0
176
     1
 90
       50
176
     1
 90
        3
176
     1
 62
     5
420
      255
176
     1
290
     0
176
     1
 90
       50
176
     1
 90
       50
176
     1
 90
       50
176
     1
290
     0
176
     1
 90
       50
176
     1
 62
   256
176
     0
 40
1.0
176
     0
 90
        2
176
     1
  1
strokes_ogs.tif
176
     1
290
     0
176
     1
 40
1.0
176
     1
 40
1.0
176
     1
  0
VISUALSTYLE
  5
31
102
{ACAD_REACTORS
330
2A
102
}
330
2A
100
AcDbVisualStyle
  2
Hidden
 70
     6
177
     3
291
     0
 70
    58
 90
        1
176
     1
 90
        2
176
     1
 90
        2
176
     1
 90
        0
176
     1
 40
0.6
176
     1
 40
30.0
176
     1
 62
     7
420
 16777215
176
     1
 90
        2
176
     1
 90
        2
176
     1
 62
     7
176
     1
 62
   257
176
     1
 90
        2
176
     1
 90
        1
176
     1
 40
40.0
176
     1
 90
        0
176
     1
 62
   257
176
     1
 40
1.0
176
     1
 90
        1
176
     1
 90
        6
176
     1
 90
        2
176
     1
 62
     7
176
     1
 90
        3
176
     1
 90
        0
176
     1
 90
        0
176
     1
290
     0
176
     1
 90
        1
176
     1
 40
0.0
176
     1
 90
        0
176
     1
290
     0
176
     1
290
     1
176
     1
290
     1
176
     1
290
     0
176
     1
290
     0
176
     1
290
     0
176
     1
290
     0
176
     1
290
     0
176
     1
290
     0
176
     1
 90
       50
176
     1
 40
0.0
176
     1
 40
1.0
176
     1
 90
        0
176
     1
 62
    18
420
        0
176
     1
 90
       50
176
     1
 90
        3
176
     1
 62
     5
420
      255
176
     1
290
     0
176
     1
 90
       50
176
     1
 90
       50
176
     1
 90
       50
176
     1
290
     0
176
     1
 90
       50
176
     1
 62
   256
176
     0
 40
1.0
176
     0
 90
        2
176
     1
  1
strokes_ogs.tif
176
     1
290
     0
176
     1
 40
1.0
176
     1
 40
1.0
176
     1
  0
VISUALSTYLE
  5
3B
102
{ACAD_REACTORS
330
2A
102
}
330
2A
100
AcDbVisualStyle
  2
JitterOff
 70
    20
177
     3
291
     1
 70
    58
 90
        2
176
     0
 90
        2
176
     0
 90
        0
176
     0
 90
        0
176
     0
 40
0.6
176
     0
 40
30.0
176
     0
 62
     7
420
 16777215
176
     0
 90
        1
176
     0
 90
        4
176
     0
 62
     7
176
     0
 62
   257
176
     0
 90
        1
176
     0
 90
        1
176
     0
 40
1.0
176
     0
 90
       10
176
     2
 62
     7
176
     0
 40
1.0
176
     0
 90
        1
176
     0
 90
        6
176
     0
 90
        2
176
     0
 62
     7
176
     0
 90
        5
176
     0
 90
        0
176
     0
 90
        0
176
     0
290
     0
176
     0
 90
        1
176
     0
 40
0.0
176
     0
 90
        0
176
     0
290
     0
176
     0
290
     1
176
     0
290
     1
176
     0
290
     0
176
     0
290
     0
176
     0
290
     0
176
     0
290
     0
176
     0
290
     0
176
     0
290
     0
176
     0
 90
       50
176
     0
 40
0.0
176
     0
 40
1.0
176
     0
 90
        0
176
     0
 62
    18
420
        0
176
     0
 90
       50
176
     0
 90
        3
176
     0
 62
     5
420
      255
176
     0
290
     0
176
     0
 90
       50
176
     0
 90
       50
176
     0
 90
       50
176
     0
290
     0
176
     0
 90
       50
176
     0
 62
   256
176
     0
 40
1.0
176
     0
 90
        2
176
     0
  1
strokes_ogs.tif
176
     0
290
     0
176
     0
 40
1.0
176
     0
 40
1.0
176
     0
  0
VISUALSTYLE
  5
38
102
{ACAD_REACTORS
330
2A
102
}
330
2A
100
AcDbVisualStyle
  2
Linepattern
 70
    14
177
     3
291
     1
 70
    58
 90
        2
176
     1
 90
        2
176
     1
 90
        0
176
     1
 90
        0
176
     1
 40
0.6
176
     1
 40
30.0
176
     1
 62
     7
420
 16777215
176
     1
 90
        1
176
     1
 90
        4
176
     1
 62
     7
176
     1
 62
   257
176
     1
 90
        7
176
     1
 90
        7
176
     1
 40
1.0
176
     1
 90
        8
176
     1
 62
     7
176
     1
 40
1.0
176
     1
 90
        1
176
     1
 90
        6
176
     1
 90
        2
176
     1
 62
     7
176
     1
 90
        5
176
     1
 90
        0
176
     1
 90
        0
176
     1
290
     0
176
     1
 90
        1
176
     1
 40
0.0
176
     1
 90
        0
176
     1
290
     0
176
     1
290
     1
176
     1
290
     1
176
     1
290
     0
176
     1
290
     0
176
     1
290
     0
176
     1
290
     0
176
     1
290
     0
176
     1
290
     0
176
     1
 90
       50
176
     1
 40
0.0
176
     1
 40
1.0
176
     1
 90
        0
176
     1
 62
    18
420
        0
176
     1
 90
       50
176
     1
 90
        3
176
     1
 62
     5
420
      255
176
     1
290
     0
176
     1
 90
       50
176
     1
 90
       50
176
     1
 90
       50
176
     1
290
     0
176
     1
 90
       50
176
     1
 62
   256
176
     0
 40
1.0
176
     0
 90
        2
176
     1
  1
strokes_ogs.tif
176
     1
290
     0
176
     1
 40
1.0
176
     1
 40
1.0
176
     1
  0
VISUALSTYLE
  5
3C
102
{ACAD_REACTORS
330
2A
102
}
330
2A
100
AcDbVisualStyle
  2
OverhangOff
 70
    21
177
     3
291
     1
 70
    58
 90
        2
176
     0
 90
        2
176
     0
 90
        0
176
     0
 90
        0
176
     0
 40
0.6
176
     0
 40
30.0
176
     0
 62
     7
420
 16777215
176
     0
 90
        1
176
     0
 90
        4
176
     0
 62
     7
176
     0
 62
   257
176
     0
 90
        1
176
     0
 90
        1
176
     0
 40
1.0
176
     0
 90
        9
176
     2
 62
     7
176
     0
 40
1.0
176
     0
 90
        1
176
     0
 90
        6
176
     0
 90
        2
176
     0
 62
     7
176
     0
 90
        5
176
     0
 90
        0
176
     0
 90
        0
176
     0
290
     0
176
     0
 90
        1
176
     0
 40
0.0
176
     0
 90
        0
176
     0
290
     0
176
     0
290
     1
176
     0
290
     1
176
     0
290
     0
176
     0
290
     0
176
     0
290
     0
176
     0
290
     0
176
     0
290
     0
176
     0
290
     0
176
     0
 90
       50
176
     0
 40
0.0
176
     0
 40
1.0
176
     0
 90
        0
176
     0
 62
    18
420
        0
176
     0
 90
       50
176
     0
 90
        3
176
     0
 62
     5
420
      255
176
     0
290
     0
176
     0
 90
       50
176
     0
 90
       50
176
     0
 90
       50
176
     0
290
     0
176
     0
 90
       50
176
     0
 62
   256
176
     0
 40
1.0
176
     0
 90
        2
176
     0
  1
strokes_ogs.tif
176
     0
290
     0
176
     0
 40
1.0
176
     0
 40
1.0
176
     0
  0
VISUALSTYLE
  5
33
102
{ACAD_REACTORS
330
2A
102
}
330
2A
100
AcDbVisualStyle
  2
Realistic
 70
     8
177
     3
291
     0
 70
    58
 90
        2
176
     1
 90
        3
176
     1
 90
        0
176
     1
 90
        2
176
     1
 40
0.6
176
     1
 40
30.0
176
     1
 62
     7
420
 16777215
176
     1
 90
        0
176
     1
 90
        0
176
     1
 62
     7
176
     1
 62
   257
176
     1
 90
        1
176
     1
 90
        1
176
     1
 40
1.0
176
     1
 90
        8
176
     1
 62
   257
176
     1
 40
1.0
176
     1
 90
        1
176
     1
 90
        6
176
     1
 90
        2
176
     1
 62
     7
176
     1
 90
        3
176
     1
 90
        0
176
     1
 90
        0
176
     1
290
     0
176
     1
 90
       13
176
     1
 40
0.0
176
     1
 90
        0
176
     1
290
     0
176
     1
290
     1
176
     1
290
     1
176
     1
290
     0
176
     1
290
     0
176
     1
290
     0
176
     1
290
     0
176
     1
290
     0
176
     1
290
     0
176
     1
 90
       50
176
     1
 40
0.0
176
     1
 40
1.0
176
     1
 90
        0
176
     1
 62
    18
420
        0
176
     1
 90
       50
176
     1
 90
        3
176
     1
 62
     5
420
      255
176
     1
290
     0
176
     1
 90
       50
176
     1
 90
       50
176
     1
 90
       50
176
     1
290
     0
176
     1
 90
       50
176
     1
 62
   256
176
     0
 40
1.0
176
     0
 90
        2
176
     1
  1
strokes_ogs.tif
176
     1
290
     0
176
     1
 40
1.0
176
     1
 40
1.0
176
     1
  0
VISUALSTYLE
  5
42
102
{ACAD_REACTORS
330
2A
102
}
330
2A
100
AcDbVisualStyle
  2
Shaded
 70
    27
177
     3
291
     0
 70
    58
 90
        2
176
     1
 90
        2
176
     1
 90
        1
176
     1
 90
        2
176
     1
 40
0.6
176
     1
 40
30.0
176
     1
 62
     7
420
 16777215
176
     1
 90
        0
176
     1
 90
        4
176
     1
 62
     7
176
     1
 62
   257
176
     1
 90
        1
176
     1
 90
        1
176
     1
 40
1.0
176
     1
 90
        8
176
     1
 62
   257
176
     1
 40
1.0
176
     1
 90
        1
176
     1
 90
        6
176
     1
 90
        2
176
     1
 62
     8
420
  7895160
176
     1
 90
        3
176
     1
 90
        0
176
     1
 90
        0
176
     1
290
     0
176
     1
 90
        5
176
     1
 40
0.0
176
     1
 90
        0
176
     1
290
     0
176
     1
290
     1
176
     1
290
     1
176
     1
290
     0
176
     1
290
     0
176
     1
290
     0
176
     1
290
     0
176
     1
290
     0
176
     1
290
     0
176
     1
 90
       50
176
     1
 40
0.0
176
     1
 40
1.0
176
     1
 90
        0
176
     1
 62
    18
420
        0
176
     1
 90
       50
176
     1
 90
        3
176
     1
 62
     5
420
      255
176
     1
290
     0
176
     1
 90
       50
176
     1
 90
       50
176
     1
 90
       50
176
     1
290
     0
176
     1
 90
       50
176
     1
 62
   256
176
     0
 40
1.0
176
     0
 90
        2
176
     1
  1
strokes_ogs.tif
176
     1
290
     0
176
     1
 40
1.0
176
     1
 40
1.0
176
     1
  0
VISUALSTYLE
  5
41
102
{ACAD_REACTORS
330
2A
102
}
330
2A
100
AcDbVisualStyle
  2
Shaded with edges
 70
    26
177
     3
291
     0
 70
    58
 90
        2
176
     1
 90
        2
176
     1
 90
        1
176
     1
 90
        2
176
     1
 40
0.6
176
     1
 40
30.0
176
     1
 62
     7
420
 16777215
176
     1
 90
        1
176
     1
 90
       10
176
     1
 62
     7
176
     1
 62
   257
176
     1
 90
        2
176
     1
 90
        1
176
     1
 40
1.0
176
     1
 90
        8
176
     1
 62
   257
176
     1
 40
1.0
176
     1
 90
        1
176
     1
 90
        6
176
     1
 90
        2
176
     1
 62
     7
176
     1
 90
        3
176
     1
 90
        0
176
     1
 90
        0
176
     1
290
     0
176
     1
 90
        5
176
     1
 40
0.0
176
     1
 90
        0
176
     1
290
     0
176
     1
290
     1
176
     1
290
     1
176
     1
290
     0
176
     1
290
     0
176
     1
290
     0
176
     1
290
     0
176
     1
290
     0
176
     1
290
     0
176
     1
 90
       50
176
     1
 40
0.0
176
     1
 40
1.0
176
     1
 90
        0
176
     1
 62
    18
420
        0
176
     1
 90
       50
176
     1
 90
        3
176
     1
 62
     5
420
      255
176
     1
290
     0
176
     1
 90
       50
176
     1
 90
       50
176
     1
 90
       50
176
     1
290
     0
176
     1
 90
       50
176
     1
 62
   256
176
     0
 40
1.0
176
     0
 90
        2
176
     1
  1
strokes_ogs.tif
176
     1
290
     0
176
     1
 40
1.0
176
     1
 40
1.0
176
     1
  0
VISUALSTYLE
  5
3E
102
{ACAD_REACTORS
330
2A
102
}
330
2A
100
AcDbVisualStyle
  2
Shades of Gray
 70
    23
177
     3
291
     0
 70
    58
 90
        2
176
     1
 90
        2
176
     1
 90
        3
176
     1
 90
        0
176
     1
 40
0.6
176
     1
 40
30.0
176
     1
 62
     7
420
 16777215
176
     1
 90
        2
176
     1
 90
        2
176
     1
 62
     7
176
     1
 62
     7
176
     1
 90
        1
176
     1
 90
        1
176
     1
 40
40.0
176
     1
 90
        8
176
     1
 62
     7
176
     1
 40
1.0
176
     1
 90
        1
176
     1
 90
        6
176
     1
 90
        2
176
     1
 62
     7
176
     1
 90
        3
176
     1
 90
        0
176
     1
 90
        0
176
     1
290
     0
176
     1
 90
        1
176
     1
 40
0.0
176
     1
 90
        0
176
     1
290
     0
176
     1
290
     1
176
     1
290
     1
176
     1
290
     0
176
     1
290
     0
176
     1
290
     0
176
     1
290
     0
176
     1
290
     0
176
     1
290
     0
176
     1
 90
       50
176
     1
 40
0.0
176
     1
 40
1.0
176
     1
 90
        0
176
     1
 62
    18
420
        0
176
     1
 90
       50
176
     1
 90
        3
176
     1
 62
     5
420
      255
176
     1
290
     0
176
     1
 90
       50
176
     1
 90
       50
176
     1
 90
       50
176
     1
290
     0
176
     1
 90
       50
176
     1
 62
   256
176
     0
 40
1.0
176
     0
 90
        2
176
     1
  1
strokes_ogs.tif
176
     1
290
     0
176
     1
 40
1.0
176
     1
 40
1.0
176
     1
  0
VISUALSTYLE
  5
3F
102
{ACAD_REACTORS
330
2A
102
}
330
2A
100
AcDbVisualStyle
  2
Sketchy
 70
    24
177
     3
291
     0
 70
    58
 90
        1
176
     1
 90
        2
176
     1
 90
        2
176
     1
 90
        0
176
     1
 40
0.6
176
     1
 40
30.0
176
     1
 62
     7
420
 16777215
176
     1
 90
        2
176
     1
 90
        2
176
     1
 62
     7
176
     1
 62
     7
176
     1
 90
        1
176
     1
 90
        1
176
     1
 40
40.0
176
     1
 90
       11
176
     1
 62
     7
176
     1
 40
1.0
176
     1
 90
        1
176
     1
 90
        6
176
     1
 90
        2
176
     1
 62
     7
176
     1
 90
        6
176
     1
 90
        0
176
     1
 90
        0
176
     1
290
     0
176
     1
 90
        1
176
     1
 40
0.0
176
     1
 90
        0
176
     1
290
     0
176
     1
290
     1
176
     1
290
     1
176
     1
290
     0
176
     1
290
     0
176
     1
290
     0
176
     1
290
     0
176
     1
290
     0
176
     1
290
     0
176
     1
 90
       50
176
     1
 40
0.0
176
     1
 40
1.0
176
     1
 90
        0
176
     1
 62
    18
420
        0
176
     1
 90
       50
176
     1
 90
        3
176
     1
 62
     5
420
      255
176
     1
290
     0
176
     1
 90
       50
176
     1
 90
       50
176
     1
 90
       50
176
     1
290
     0
176
     1
 90
       50
176
     1
 62
   256
176
     0
 40
1.0
176
     0
 90
        2
176
     1
  1
strokes_ogs.tif
176
     1
290
     0
176
     1
 40
1.0
176
     1
 40
1.0
176
     1
  0
VISUALSTYLE
  5
37
102
{ACAD_REACTORS
330
2A
102
}
330
2A
100
AcDbVisualStyle
  2
Thicken
 70
    13
177
     3
291
     1
 70
    58
 90
        2
176
     1
 90
        2
176
     1
 90
        0
176
     1
 90
        0
176
     1
 40
0.6
176
     1
 40
30.0
176
     1
 62
     7
420
 16777215
176
     1
 90
        1
176
     1
 90
        4
176
     1
 62
     7
176
     1
 62
   257
176
     1
 90
        1
176
     1
 90
        1
176
     1
 40
1.0
176
     1
 90
       12
176
     1
 62
     7
176
     1
 40
1.0
176
     1
 90
        1
176
     1
 90
        6
176
     1
 90
        2
176
     1
 62
     7
176
     1
 90
        5
176
     1
 90
        0
176
     1
 90
        0
176
     1
290
     0
176
     1
 90
        1
176
     1
 40
0.0
176
     1
 90
        0
176
     1
290
     0
176
     1
290
     1
176
     1
290
     1
176
     1
290
     0
176
     1
290
     0
176
     1
290
     0
176
     1
290
     0
176
     1
290
     0
176
     1
290
     0
176
     1
 90
       50
176
     1
 40
0.0
176
     1
 40
1.0
176
     1
 90
        0
176
     1
 62
    18
420
        0
176
     1
 90
       50
176
     1
 90
        3
176
     1
 62
     5
420
      255
176
     1
290
     0
176
     1
 90
       50
176
     1
 90
       50
176
     1
 90
       50
176
     1
290
     0
176
     1
 90
       50
176
     1
 62
   256
176
     0
 40
1.0
176
     0
 90
        2
176
     1
  1
strokes_ogs.tif
176
     1
290
     0
176
     1
 40
1.0
176
     1
 40
1.0
176
     1
  0
VISUALSTYLE
  5
30
102
{ACAD_REACTORS
330
2A
102
}
330
2A
100
AcDbVisualStyle
  2
Wireframe
 70
     5
177
     3
291
     0
 70
    58
 90
        0
176
     1
 90
        2
176
     1
 90
        0
176
     1
 90
        0
176
     1
 40
0.6
176
     1
 40
30.0
176
     1
 62
     7
420
 16777215
176
     1
 90
        1
176
     1
 90
        4
176
     1
 62
     7
176
     1
 62
   257
176
     1
 90
        1
176
     1
 90
        1
176
     1
 40
1.0
176
     1
 90
        0
176
     1
 62
   257
176
     1
 40
1.0
176
     1
 90
        1
176
     1
 90
        6
176
     1
 90
        2
176
     1
 62
     7
176
     1
 90
        3
176
     1
 90
        0
176
     1
 90
        0
176
     1
290
     0
176
     1
 90
        1
176
     1
 40
0.0
176
     1
 90
        0
176
     1
290
     0
176
     1
290
     1
176
     1
290
     1
176
     1
290
     0
176
     1
290
     0
176
     1
290
     0
176
     1
290
     0
176
     1
290
     0
176
     1
290
     0
176
     1
 90
       50
176
     1
 40
0.0
176
     1
 40
1.0
176
     1
 90
        0
176
     1
 62
    18
420
        0
176
     1
 90
       50
176
     1
 90
        3
176
     1
 62
     5
420
      255
176
     1
290
     0
176
     1
 90
       50
176
     1
 90
       50
176
     1
 90
       50
176
     1
290
     0
176
     1
 90
       50
176
     1
 62
   256
176
     0
 40
1.0
176
     0
 90
        2
176
     1
  1
strokes_ogs.tif
176
     1
290
     0
176
     1
 40
1.0
176
     1
 40
1.0
176
     1
  0
VISUALSTYLE
  5
40
102
{ACAD_REACTORS
330
2A
102
}
330
2A
100
AcDbVisualStyle
  2
X-Ray
 70
    25
177
     3
291
     0
 70
    58
 90
        2
176
     1
 90
        2
176
     1
 90
        1
176
     1
 90
        1
176
     1
 40
0.5
176
     1
 40
30.0
176
     1
 62
     7
420
 16777215
176
     1
 90
        1
176
     1
 90
        0
176
     1
 62
     7
176
     1
 62
   257
176
     1
 90
        1
176
     1
 90
        1
176
     1
 40
1.0
176
     1
 90
        8
176
     1
 62
     7
176
     1
 40
1.0
176
     1
 90
        1
176
     1
 90
        6
176
     1
 90
        2
176
     1
 62
     7
176
     1
 90
        3
176
     1
 90
        0
176
     1
 90
        0
176
     1
290
     0
176
     1
 90
       13
176
     1
 40
0.0
176
     1
 90
        0
176
     1
290
     0
176
     1
290
     1
176
     1
290
     1
176
     1
290
     0
176
     1
290
     0
176
     1
290
     0
176
     1
290
     0
176
     1
290
     0
176
     1
290
     0
176
     1
 90
       50
176
     1
 40
0.0
176
     1
 40
1.0
176
     1
 90
        0
176
     1
 62
    18
420
        0
176
     1
 90
       50
176
     1
 90
        3
176
     1
 62
     5
420
      255
176
     1
290
     0
176
     1
 90
       50
176
     1
 90
       50
176
     1
 90
       50
176
     1
290
     0
176
     1
 90
       50
176
     1
 62
   256
176
     0
 40
1.0
176
     0
 90
        2
176
     1
  1
strokes_ogs.tif
176
     1
290
     0
176
     1
 40
1.0
176
     1
 40
1.0
176
     1
  0
DICTIONARYVAR
  5
D3
102
{ACAD_REACTORS
330
D2
102
}
330
D2
100
DictionaryVariables
280
     0
  1
1:1
  0
DICTIONARYVAR
  5
DB
102
{ACAD_REACTORS
330
D2
102
}
330
D2
100
DictionaryVariables
280
     0
  1
3.500000
  0
DICTIONARYVAR
  5
DC
102
{ACAD_REACTORS
330
D2
102
}
330
D2
100
DictionaryVariables
280
     0
  1
acadiso.lin
  0
DICTIONARYVAR
  5
D8
102
{ACAD_REACTORS
330
D2
102
}
330
D2
100
DictionaryVariables
280
     0
  1
Standard
  0
DICTIONARYVAR
  5
D7
102
{ACAD_REACTORS
330
D2
102
}
330
D2
100
DictionaryVariables
280
     0
  1
Standard
  0
DICTIONARY
  5
D4
330
6A
100
AcDbDictionary
280
     1
281
     1
  3
ACAD_ROUNDTRIP_2008_TABLESTYLE_CELLSTYLEMAP
360
D5
  0
CELLSTYLEMAP
  5
D5
102
{ACAD_REACTORS
330
D4
102
}
330
D4
100
AcDbCellStyleMap
 90
        3
300
CELLSTYLE
  1
TABLEFORMAT_BEGIN
 90
        5
170
     1
 91
        0
 92
    32768
 62
   257
 93
        1
300
CONTENTFORMAT
  1
CONTENTFORMAT_BEGIN
 90
        0
 91
        0
 92
        4
 93
        0
300

 40
0.0
140
1.0
 94
        5
 62
     0
340
11
144
6.0
309
CONTENTFORMAT_END
171
     1
301
MARGIN
  1
CELLMARGIN_BEGIN
 40
1.5
 40
1.5
 40
1.5
 40
1.5
 40
1.5
 40
1.5
309
CELLMARGIN_END
 94
        6
 95
        1
302
GRIDFORMAT
  1
GRIDFORMAT_BEGIN
 90
        0
 91
        1
 62
     0
 92
       -2
340
14
 93
        0
 40
0.045
309
GRIDFORMAT_END
 95
        2
302
GRIDFORMAT
  1
GRIDFORMAT_BEGIN
 90
        0
 91
        1
 62
     0
 92
       -2
340
14
 93
        0
 40
0.045
309
GRIDFORMAT_END
 95
        4
302
GRIDFORMAT
  1
GRIDFORMAT_BEGIN
 90
        0
 91
        1
 62
     0
 92
       -2
340
14
 93
        0
 40
0.045
309
GRIDFORMAT_END
 95
        8
302
GRIDFORMAT
  1
GRIDFORMAT_BEGIN
 90
        0
 91
        1
 62
     0
 92
       -2
340
14
 93
        0
 40
0.045
309
GRIDFORMAT_END
 95
       16
302
GRIDFORMAT
  1
GRIDFORMAT_BEGIN
 90
        0
 91
        1
 62
     0
 92
       -2
340
14
 93
        0
 40
0.045
309
GRIDFORMAT_END
 95
       32
302
GRIDFORMAT
  1
GRIDFORMAT_BEGIN
 90
        0
 91
        1
 62
     0
 92
       -2
340
14
 93
        0
 40
0.045
309
GRIDFORMAT_END
309
TABLEFORMAT_END
  1
CELLSTYLE_BEGIN
 90
        1
 91
        1
300
_TITLE
309
CELLSTYLE_END
300
CELLSTYLE
  1
TABLEFORMAT_BEGIN
 90
        5
170
     1
 91
        0
 92
        0
 62
   257
 93
        1
300
CONTENTFORMAT
  1
CONTENTFORMAT_BEGIN
 90
        0
 91
        0
 92
        4
 93
        0
300

 40
0.0
140
1.0
 94
        5
 62
     0
340
11
144
4.5
309
CONTENTFORMAT_END
171
     1
301
MARGIN
  1
CELLMARGIN_BEGIN
 40
1.5
 40
1.5
 40
1.5
 40
1.5
 40
1.5
 40
1.5
309
CELLMARGIN_END
 94
        6
 95
        1
302
GRIDFORMAT
  1
GRIDFORMAT_BEGIN
 90
        0
 91
        1
 62
     0
 92
       -2
340
14
 93
        0
 40
0.045
309
GRIDFORMAT_END
 95
        2
302
GRIDFORMAT
  1
GRIDFORMAT_BEGIN
 90
        0
 91
        1
 62
     0
 92
       -2
340
14
 93
        0
 40
0.045
309
GRIDFORMAT_END
 95
        4
302
GRIDFORMAT
  1
GRIDFORMAT_BEGIN
 90
        0
 91
        1
 62
     0
 92
       -2
340
14
 93
        0
 40
0.045
309
GRIDFORMAT_END
 95
        8
302
GRIDFORMAT
  1
GRIDFORMAT_BEGIN
 90
        0
 91
        1
 62
     0
 92
       -2
340
14
 93
        0
 40
0.045
309
GRIDFORMAT_END
 95
       16
302
GRIDFORMAT
  1
GRIDFORMAT_BEGIN
 90
        0
 91
        1
 62
     0
 92
       -2
340
14
 93
        0
 40
0.045
309
GRIDFORMAT_END
 95
       32
302
GRIDFORMAT
  1
GRIDFORMAT_BEGIN
 90
        0
 91
        1
 62
     0
 92
       -2
340
14
 93
        0
 40
0.045
309
GRIDFORMAT_END
309
TABLEFORMAT_END
  1
CELLSTYLE_BEGIN
 90
        2
 91
        1
300
_HEADER
309
CELLSTYLE_END
300
CELLSTYLE
  1
TABLEFORMAT_BEGIN
 90
        5
170
     1
 91
        0
 92
        0
 62
   257
 93
        1
300
CONTENTFORMAT
  1
CONTENTFORMAT_BEGIN
 90
        0
 91
        0
 92
        4
 93
        0
300

 40
0.0
140
1.0
 94
        2
 62
     0
340
11
144
4.5
309
CONTENTFORMAT_END
171
     1
301
MARGIN
  1
CELLMARGIN_BEGIN
 40
1.5
 40
1.5
 40
1.5
 40
1.5
 40
1.5
 40
1.5
309
CELLMARGIN_END
 94
        6
 95
        1
302
GRIDFORMAT
  1
GRIDFORMAT_BEGIN
 90
        0
 91
        1
 62
     0
 92
       -2
340
14
 93
        0
 40
0.045
309
GRIDFORMAT_END
 95
        2
302
GRIDFORMAT
  1
GRIDFORMAT_BEGIN
 90
        0
 91
        1
 62
     0
 92
       -2
340
14
 93
        0
 40
0.045
309
GRIDFORMAT_END
 95
        4
302
GRIDFORMAT
  1
GRIDFORMAT_BEGIN
 90
        0
 91
        1
 62
     0
 92
       -2
340
14
 93
        0
 40
0.045
309
GRIDFORMAT_END
 95
        8
302
GRIDFORMAT
  1
GRIDFORMAT_BEGIN
 90
        0
 91
        1
 62
     0
 92
       -2
340
14
 93
        0
 40
0.045
309
GRIDFORMAT_END
 95
       16
302
GRIDFORMAT
  1
GRIDFORMAT_BEGIN
 90
        0
 91
        1
 62
     0
 92
       -2
340
14
 93
        0
 40
0.045
309
GRIDFORMAT_END
 95
       32
302
GRIDFORMAT
  1
GRIDFORMAT_BEGIN
 90
        0
 91
        1
 62
     0
 92
       -2
340
14
 93
        0
 40
0.045
309
GRIDFORMAT_END
309
TABLEFORMAT_END
  1
CELLSTYLE_BEGIN
 90
        3
 91
        2
300
_DATA
309
CELLSTYLE_END
  0
ENDSEC
  0
EOF
