  0
SECTION
  2
HEADER
  9
$ACADVER
  1
AC1027
  9
$ACADMAINTVER
 70
   105
  9
$DWGCODEPAGE
  3
ANSI_1252
  9
$REQUIREDVERSIONS
160
                 0
  9
$INSBASE
 10
0.0
 20
0.0
 30
0.0
  9
$EXTMIN
 10
-75.0
 20
-15.0
 30
0.0
  9
$EXTMAX
 10
75.0
 20
15.0
 30
0.0
  9
$LIMMIN
 10
0.0
 20
0.0
  9
$LIMMAX
 10
420.0
 20
297.0
  9
$ORTHOMODE
 70
     0
  9
$REGENMODE
 70
     1
  9
$FILLMODE
 70
     1
  9
$QTEXTMODE
 70
     0
  9
$MIRRTEXT
 70
     1
  9
$LTSCALE
 40
1.0
  9
$ATTMODE
 70
     1
  9
$TEXTSIZE
 40
3.5
  9
$TRACEWID
 40
1.0
  9
$TEXTSTYLE
  7
Standard
  9
$CLAYER
  8
0
  9
$CELTYPE
  6
ByLayer
  9
$CECOLOR
 62
   256
  9
$CELTSCALE
 40
1.0
  9
$DISPSILH
 70
     0
  9
$DIMSCALE
 40
1.0
  9
$DIMASZ
 40
3.302
  9
$DIMEXO
 40
1.0
  9
$DIMDLI
 40
3.75
  9
$DIMRND
 40
0.0
  9
$DIMDLE
 40
0.0
  9
$DIMEXE
 40
1.0
  9
$DIMTP
 40
0.0
  9
$DIMTM
 40
0.0
  9
$DIMTXT
 40
3.5
  9
$DIMCEN
 40
2.5
  9
$DIMTSZ
 40
0.0
  9
$DIMTOL
 70
     0
  9
$DIMLIM
 70
     0
  9
$DIMTIH
 70
     1
  9
$DIMTOH
 70
     1
  9
$DIMSE1
 70
     0
  9
$DIMSE2
 70
     0
  9
$DIMTAD
 70
     1
  9
$DIMZIN
 70
     1
  9
$DIMBLK
  1

  9
$DIMASO
 70
     1
  9
$DIMSHO
 70
     1
  9
$DIMPOST
  1

  9
$DIMAPOST
  1

  9
$DIMALT
 70
     0
  9
$DIMALTD
 70
     3
  9
$DIMALTF
 40
0.0393700787
  9
$DIMLFAC
 40
1.0
  9
$DIMTOFL
 70
     1
  9
$DIMTVP
 40
0.0
  9
$DIMTIX
 70
     0
  9
$DIMSOXD
 70
     0
  9
$DIMSAH
 70
     0
  9
$DIMBLK1
  1

  9
$DIMBLK2
  1

  9
$DIMSTYLE
  2
ISO-25
  9
$DIMCLRD
 70
     0
  9
$DIMCLRE
 70
     0
  9
$DIMCLRT
 70
     0
  9
$DIMTFAC
 40
1.0
  9
$DIMGAP
 40
1.524
  9
$DIMJUST
 70
     0
  9
$DIMSD1
 70
     0
  9
$DIMSD2
 70
     0
  9
$DIMTOLJ
 70
     0
  9
$DIMTZIN
 70
     1
  9
$DIMALTZ
 70
     0
  9
$DIMALTTZ
 70
     0
  9
$DIMUPT
 70
     0
  9
$DIMDEC
 70
     2
  9
$DIMTDEC
 70
     2
  9
$DIMALTU
 70
     2
  9
$DIMALTTD
 70
     3
  9
$DIMTXSTY
  7
Standard
  9
$DIMAUNIT
 70
     0
  9
$DIMADEC
 70
     2
  9
$DIMALTRND
 40
0.0
  9
$DIMAZIN
 70
     0
  9
$DIMDSEP
 70
    44
  9
$DIMATFIT
 70
     3
  9
$DIMFRAC
 70
     0
  9
$DIMLDRBLK
  1

  9
$DIMLUNIT
 70
     2
  9
$DIMLWD
 70
    -2
  9
$DIMLWE
 70
    -2
  9
$DIMTMOVE
 70
     0
  9
$DIMFXL
 40
1.0
  9
$DIMFXLON
 70
     0
  9
$DIMJOGANG
 40
0.7853981634
  9
$DIMTFILL
 70
     0
  9
$DIMTFILLCLR
 70
     0
  9
$DIMARCSYM
 70
     0
  9
$DIMLTYPE
  6

  9
$DIMLTEX1
  6

  9
$DIMLTEX2
  6

  9
$DIMTXTDIRECTION
 70
     0
  9
$LUNITS
 70
     2
  9
$LUPREC
 70
     2
  9
$SKETCHINC
 40
1.0
  9
$FILLETRAD
 40
10.0
  9
$AUNITS
 70
     0
  9
$AUPREC
 70
     2
  9
$MENU
  1
.
  9
$ELEVATION
 40
0.0
  9
$PELEVATION
 40
0.0
  9
$THICKNESS
 40
0.0
  9
$LIMCHECK
 70
     0
  9
$CHAMFERA
 40
0.0
  9
$CHAMFERB
 40
0.0
  9
$CHAMFERC
 40
0.0
  9
$CHAMFERD
 40
0.0
  9
$SKPOLY
 70
     0
  9
$TDCREATE
 40
2461229.45403257
  9
$TDUCREATE
 40
2461229.57903257
  9
$TDUPDATE
 40
2461229.454044572
  9
$TDUUPDATE
 40
2461229.579044572
  9
$TDINDWG
 40
0.0000000116
  9
$TDUSRTIMER
 40
0.0000000116
  9
$USRTIMER
 70
     1
  9
$ANGBASE
 50
0.0
  9
$ANGDIR
 70
     0
  9
$PDMODE
 70
     0
  9
$PDSIZE
 40
-1.0
  9
$PLINEWID
 40
0.0
  9
$SPLFRAME
 70
     0
  9
$SPLINETYPE
 70
     6
  9
$SPLINESEGS
 70
     8
  9
$HANDSEED
  5
D9
  9
$SURFTAB1
 70
     6
  9
$SURFTAB2
 70
     6
  9
$SURFTYPE
 70
     6
  9
$SURFU
 70
     6
  9
$SURFV
 70
     6
  9
$UCSBASE
  2

  9
$UCSNAME
  2

  9
$UCSORG
 10
0.0
 20
0.0
 30
0.0
  9
$UCSXDIR
 10
1.0
 20
0.0
 30
0.0
  9
$UCSYDIR
 10
0.0
 20
1.0
 30
0.0
  9
$UCSORTHOREF
  2

  9
$UCSORTHOVIEW
 70
     0
  9
$UCSORGTOP
 10
0.0
 20
0.0
 30
0.0
  9
$UCSORGBOTTOM
 10
0.0
 20
0.0
 30
0.0
  9
$UCSORGLEFT
 10
0.0
 20
0.0
 30
0.0
  9
$UCSORGRIGHT
 10
0.0
 20
0.0
 30
0.0
  9
$UCSORGFRONT
 10
0.0
 20
0.0
 30
0.0
  9
$UCSORGBACK
 10
0.0
 20
0.0
 30
0.0
  9
$PUCSBASE
  2

  9
$PUCSNAME
  2

  9
$PUCSORG
 10
0.0
 20
0.0
 30
0.0
  9
$PUCSXDIR
 10
1.0
 20
0.0
 30
0.0
  9
$PUCSYDIR
 10
0.0
 20
1.0
 30
0.0
  9
$PUCSORTHOREF
  2

  9
$PUCSORTHOVIEW
 70
     0
  9
$PUCSORGTOP
 10
0.0
 20
0.0
 30
0.0
  9
$PUCSORGBOTTOM
 10
0.0
 20
0.0
 30
0.0
  9
$PUCSORGLEFT
 10
0.0
 20
0.0
 30
0.0
  9
$PUCSORGRIGHT
 10
0.0
 20
0.0
 30
0.0
  9
$PUCSORGFRONT
 10
0.0
 20
0.0
 30
0.0
  9
$PUCSORGBACK
 10
0.0
 20
0.0
 30
0.0
  9
$USERI1
 70
     0
  9
$USERI2
 70
     0
  9
$USERI3
 70
     0
  9
$USERI4
 70
     0
  9
$USERI5
 70
     0
  9
$USERR1
 40
0.0
  9
$USERR2
 40
0.0
  9
$USERR3
 40
0.0
  9
$USERR4
 40
0.0
  9
$USERR5
 40
0.0
  9
$WORLDVIEW
 70
     1
  9
$SHADEDGE
 70
     3
  9
$SHADEDIF
 70
    70
  9
$TILEMODE
 70
     1
  9
$MAXACTVP
 70
    64
  9
$PINSBASE
 10
0.0
 20
0.0
 30
0.0
  9
$PLIMCHECK
 70
     0
  9
$PEXTMIN
 10
1.0000000000E+20
 20
1.0000000000E+20
 30
1.0000000000E+20
  9
$PEXTMAX
 10
-1.0000000000E+20
 20
-1.0000000000E+20
 30
-1.0000000000E+20
  9
$PLIMMIN
 10
0.0
 20
0.0
  9
$PLIMMAX
 10
420.0
 20
297.0
  9
$UNITMODE
 70
     0
  9
$VISRETAIN
 70
     1
  9
$PLINEGEN
 70
     0
  9
$PSLTSCALE
 70
     1
  9
$TREEDEPTH
 70
  3020
  9
$CMLSTYLE
  2
Standard
  9
$CMLJUST
 70
     0
  9
$CMLSCALE
 40
20.0
  9
$PROXYGRAPHICS
 70
     1
  9
$MEASUREMENT
 70
     1
  9
$CELWEIGHT
370
    -1
  9
$ENDCAPS
280
     0
  9
$JOINSTYLE
280
     0
  9
$LWDISPLAY
290
     1
  9
$INSUNITS
 70
     4
  9
$HYPERLINKBASE
  1

  9
$STYLESHEET
  1

  9
$XEDIT
290
     1
  9
$CEPSNTYPE
380
     0
  9
$PSTYLEMODE
290
     1
  9
$FINGERPRINTGUID
  2
{814d57e5-3bee-4da1-9fb5-3dd21db5c1c2}
  9
$VERSIONGUID
  2
{FAEB1C32-E019-11D5-929B-00C0DF256EC4}
  9
$EXTNAMES
290
     1
  9
$PSVPSCALE
 40
0.0
  9
$OLESTARTUP
290
     0
  9
$SORTENTS
280
   127
  9
$INDEXCTL
280
     0
  9
$HIDETEXT
280
     1
  9
$XCLIPFRAME
280
     2
  9
$HALOGAP
280
     0
  9
$OBSCOLOR
 70
   257
  9
$OBSLTYPE
280
     0
  9
$INTERSECTIONDISPLAY
280
     0
  9
$INTERSECTIONCOLOR
 70
   257
  9
$DIMASSOC
280
     2
  9
$PROJECTNAME
  1

  9
$CAMERADISPLAY
290
     0
  9
$LENSLENGTH
 40
50.0
  9
$CAMERAHEIGHT
 40
0.0
  9
$STEPSPERSEC
 40
2.0
  9
$STEPSIZE
 40
6.0
  9
$3DDWFPREC
 40
2.0
  9
$PSOLWIDTH
 40
5.0
  9
$PSOLHEIGHT
 40
80.0
  9
$LOFTANG1
 40
1.5707963268
  9
$LOFTANG2
 40
1.5707963268
  9
$LOFTMAG1
 40
0.0
  9
$LOFTMAG2
 40
0.0
  9
$LOFTPARAM
 70
     7
  9
$LOFTNORMALS
280
     1
  9
$LATITUDE
 40
37.795
  9
$LONGITUDE
 40
-122.394
  9
$NORTHDIRECTION
 40
0.0
  9
$TIMEZONE
 70
 -8000
  9
$LIGHTGLYPHDISPLAY
280
     1
  9
$TILEMODELIGHTSYNCH
280
     1
  9
$CMATERIAL
347
44
  9
$SOLIDHIST
280
     0
  9
$SHOWHIST
280
     1
  9
$DWFFRAME
280
     2
  9
$DGNFRAME
280
     2
  9
$REALWORLDSCALE
290
     1
  9
$INTERFERECOLOR
 62
   256
  9
$CSHADOW
280
     0
  9
$SHADOWPLANELOCATION
 40
0.0
  0
ENDSEC
  0
SECTION
  2
CLASSES
  0
CLASS
  1
ACDBDICTIONARYWDFLT
  2
AcDbDictionaryWithDefault
  3
ObjectDBX Classes
 90
        0
 91
        3
280
     0
281
     0
  0
CLASS
  1
VISUALSTYLE
  2
AcDbVisualStyle
  3
ObjectDBX Classes
 90
     4095
 91
        3
280
     0
281
     0
  0
CLASS
  1
MATERIAL
  2
AcDbMaterial
  3
ObjectDBX Classes
 90
     1153
 91
        3
280
     0
281
     0
  0
CLASS
  1
SCALE
  2
AcDbScale
  3
ObjectDBX Classes
 90
     1153
 91
        3
280
     0
281
     0
  0
CLASS
  1
TABLESTYLE
  2
AcDbTableStyle
  3
ObjectDBX Classes
 90
     4095
 91
        3
280
     0
281
     0
  0
CLASS
  1
MLEADERSTYLE
  2
AcDbMLeaderStyle
  3
ACDB_MLEADERSTYLE_CLASS
 90
     4095
 91
        3
280
     0
281
     0
  0
CLASS
  1
SUN
  2
AcDbSun
  3
SCENEOE
 90
     1153
 91
        3
280
     0
281
     0
  0
CLASS
  1
DICTIONARYVAR
  2
AcDbDictionaryVar
  3
ObjectDBX Classes
 90
        0
 91
        3
280
     0
281
     0
  0
CLASS
  1
CELLSTYLEMAP
  2
AcDbCellStyleMap
  3
ObjectDBX Classes
 90
     1152
 91
        3
280
     0
281
     0
  0
ENDSEC
  0
SECTION
  2
TABLES
  0
TABLE
  2
VPORT
  5
8
330
0
100
AcDbSymbolTable
 70
     1
  0
VPORT
  5
29
330
8
100
AcDbSymbolTableRecord
100
AcDbViewportTableRecord
  2
*Active
 70
     0
 10
0.0
 20
0.0
 11
1.0
 21
1.0
 12
0.0
 22
0.0
 13
0.0
 23
0.0
 14
10.0
 24
10.0
 15
10.0
 25
10.0
 16
0.0
 26
0.0
 36
1.0
 17
0.0
 27
0.0
 37
0.0
 40
30.6
 41
5.0
 42
50.0
 43
0.0
 44
0.0
 50
0.0
 51
0.0
 71
     0
 72
   100
 73
     1
 74
     3
 75
     0
 76
     0
 77
     0
 78
     0
281
     0
 65
     1
110
0.0
120
0.0
130
0.0
111
1.0
121
0.0
131
0.0
112
0.0
122
1.0
132
0.0
 79
     0
146
0.0
348
2F
 60
     3
 61
     5
292
     1
282
     1
141
0.0
142
0.0
 63
   250
361
6D
  0
ENDTAB
  0
TABLE
  2
LTYPE
  5
5
330
0
100
AcDbSymbolTable
 70
     6
  0
LTYPE
  5
14
330
5
100
AcDbSymbolTableRecord
100
AcDbLinetypeTableRecord
  2
ByBlock
 70
     0
  3

 72
    65
 73
     0
 40
0.0
  0
LTYPE
  5
15
330
5
100
AcDbSymbolTableRecord
100
AcDbLinetypeTableRecord
  2
ByLayer
 70
     0
  3

 72
    65
 73
     0
 40
0.0
  0
LTYPE
  5
16
330
5
100
AcDbSymbolTableRecord
100
AcDbLinetypeTableRecord
  2
Continuous
 70
     0
  3
Solid line
 72
    65
 73
     0
 40
0.0
  0
LTYPE
  5
6E
330
5
100
AcDbSymbolTableRecord
100
AcDbLinetypeTableRecord
  2
HIDDEN
 70
     0
  3
Hidden __ __ __ __ __ __ __ __ __ __ __ __ __ __
 72
    65
 73
     2
 40
1.905
 49
1.27
 74
     0
 49
-0.635
 74
     0
  0
LTYPE
  5
6F
330
5
100
AcDbSymbolTableRecord
100
AcDbLinetypeTableRecord
  2
PHANTOM
 70
     0
  3
Phantom ______  __  __  ______  __  __  ______
 72
    65
 73
     6
 40
12.7
 49
6.35
 74
     0
 49
-1.27
 74
     0
 49
1.27
 74
     0
 49
-1.27
 74
     0
 49
1.27
 74
     0
 49
-1.27
 74
     0
  0
LTYPE
  5
70
330
5
100
AcDbSymbolTableRecord
100
AcDbLinetypeTableRecord
  2
CENTER
 70
     0
  3
Center ____ _ ____ _ ____ _ ____ _ ____ _ ____
 72
    65
 73
     4
 40
10.16
 49
6.35
 74
     0
 49
-1.27
 74
     0
 49
1.27
 74
     0
 49
-1.27
 74
     0
  0
LTYPE
  5
71
330
5
100
AcDbSymbolTableRecord
100
AcDbLinetypeTableRecord
  2
CENTERX2
 70
     0
  3
Center (2x) ________  __  ________  __  _____
 72
    65
 73
     4
 40
20.32
 49
12.7
 74
     0
 49
-2.54
 74
     0
 49
2.54
 74
     0
 49
-2.54
 74
     0
  0
LTYPE
  5
72
330
5
100
AcDbSymbolTableRecord
100
AcDbLinetypeTableRecord
  2
DOT2
 70
     0
  3
Dot (.5x) ........................................
 72
    65
 73
     2
 40
0.635
 49
0.0
 74
     0
 49
-0.635
 74
     0
  0
ENDTAB
  0
TABLE
  2
LAYER
  5
2
330
0
100
AcDbSymbolTable
 70
     1
  0
LAYER
  5
10
330
2
100
AcDbSymbolTableRecord
100
AcDbLayerTableRecord
  2
0
 70
     0
 62
     7
  6
Continuous
370
    -3
390
F
347
46
348
0
  0
ENDTAB
  0
TABLE
  2
STYLE
  5
3
330
0
100
AcDbSymbolTable
 70
     1
  0
STYLE
  5
11
330
3
100
AcDbSymbolTableRecord
100
AcDbTextStyleTableRecord
  2
Standard
 70
     0
 40
0.0
 41
1.0
 50
0.0
 71
     0
 42
3.5
  3
txt
  4

  0
ENDTAB
  0
TABLE
  2
VIEW
  5
6
330
0
100
AcDbSymbolTable
 70
     0
  0
ENDTAB
  0
TABLE
  2
UCS
  5
7
330
0
100
AcDbSymbolTable
 70
     0
  0
ENDTAB
  0
TABLE
  2
APPID
  5
9
330
0
100
AcDbSymbolTable
 70
     1
  0
APPID
  5
12
330
9
100
AcDbSymbolTableRecord
100
AcDbRegAppTableRecord
  2
ACAD
 70
     0
  0
ENDTAB
  0
TABLE
  2
DIMSTYLE
  5
A
330
0
100
AcDbSymbolTable
 70
     1
100
AcDbDimStyleTable
  0
DIMSTYLE
105
27
330
A
100
AcDbSymbolTableRecord
100
AcDbDimStyleTableRecord
  2
ISO-25
 70
     0
 41
2.5
 42
0.625
 43
3.75
 44
1.25
 73
     0
 74
     0
 77
     1
 78
     8
140
2.5
141
2.5
143
0.0393700787
147
0.625
171
     3
172
     1
178
     0
271
     2
272
     2
274
     3
278
    44
283
     0
284
     8
340
11
  0
ENDTAB
  0
TABLE
  2
BLOCK_RECORD
  5
1
330
0
100
AcDbSymbolTable
 70
     1
  0
BLOCK_RECORD
  5
1F
330
1
100
AcDbSymbolTableRecord
100
AcDbBlockTableRecord
  2
*Model_Space
340
22
 70
     0
280
     1
281
     0
  0
BLOCK_RECORD
  5
1B
330
1
100
AcDbSymbolTableRecord
100
AcDbBlockTableRecord
  2
*Paper_Space
340
1E
 70
     0
280
     1
281
     0
  0
BLOCK_RECORD
  5
23
330
1
100
AcDbSymbolTableRecord
100
AcDbBlockTableRecord
  2
*Paper_Space0
340
26
 70
     0
280
     1
281
     0
  0
ENDTAB
  0
ENDSEC
  0
SECTION
  2
BLOCKS
  0
BLOCK
  5
20
330
1F
100
AcDbEntity
  8
0
100
AcDbBlockBegin
  2
*Model_Space
 70
     0
 10
0.0
 20
0.0
 30
0.0
  3
*Model_Space
  1

  0
ENDBLK
  5
21
330
1F
100
AcDbEntity
  8
0
100
AcDbBlockEnd
  0
BLOCK
  5
1C
330
1B
100
AcDbEntity
 67
     1
  8
0
100
AcDbBlockBegin
  2
*Paper_Space
 70
     0
 10
0.0
 20
0.0
 30
0.0
  3
*Paper_Space
  1

  0
ENDBLK
  5
1D
330
1B
100
AcDbEntity
 67
     1
  8
0
100
AcDbBlockEnd
  0
BLOCK
  5
24
330
23
100
AcDbEntity
  8
0
100
AcDbBlockBegin
  2
*Paper_Space0
 70
     0
 10
0.0
 20
0.0
 30
0.0
  3
*Paper_Space0
  1

  0
ENDBLK
  5
25
330
23
100
AcDbEntity
  8
0
100
AcDbBlockEnd
  0
ENDSEC
  0
SECTION
  2
ENTITIES
  0
LINE
  5
73
330
1F
100
AcDbEntity
  8
0
  6
Continuous
 62
     7
370
    25
100
AcDbLine
 10
75.0
 20
-15.0
 30
0.0
 11
75.0
 21
15.0
 31
0.0
  0
LINE
  5
74
330
1F
100
AcDbEntity
  8
0
  6
Continuous
 62
     7
370
    25
100
AcDbLine
 10
75.0
 20
15.0
 30
0.0
 11
-75.0
 21
15.0
 31
0.0
  0
LINE
  5
75
330
1F
100
AcDbEntity
  8
0
  6
Continuous
 62
     7
370
    25
100
AcDbLine
 10
-75.0
 20
15.0
 30
0.0
 11
-75.0
 21
-15.0
 31
0.0
  0
LINE
  5
76
330
1F
100
AcDbEntity
  8
0
  6
Continuous
 62
     7
370
    25
100
AcDbLine
 10
-75.0
 20
-15.0
 30
0.0
 11
75.0
 21
-15.0
 31
0.0
  0
SPLINE
  5
77
330
1F
100
AcDbEntity
  8
0
  6
Continuous
 62
     7
370
    25
100
AcDbSpline
210
0.0
220
0.0
230
1.0
 70
     8
 71
     3
 72
    23
 73
    19
 74
     0
 42
0.000000001
 43
0.00000001
 40
0.0
 40
0.0
 40
0.0
 40
0.0
 40
0.0784461550548299
 40
0.1522617289642865
 40
0.2212449727755535
 40
0.2863179264206421
 40
0.3479222527369604
 40
0.4068365367914438
 40
0.4632620686442439
 40
0.5181743771826249
 40
0.572319413599433
 40
0.6269611405833355
 40
0.6821223002908543
 40
0.7394712803166041
 40
0.7991449634971216
 40
0.8623368564737953
 40
0.9289006263105329
 40
1.0
 40
1.0
 40
1.0
 40
1.0
 10
-18.62848926297089
 20
1.620018825366625
 30
0.0
 10
-18.48174685474356
 20
1.622856226180125
 30
0.0
 10
-18.19692406421343
 20
1.628363539487274
 30
0.0
 10
-17.78421667732807
 20
1.665041477869041
 30
0.0
 10
-17.40057283009143
 20
1.730776364422359
 30
0.0
 10
-17.04512020749521
 20
1.819576341646904
 30
0.0
 10
-16.71621974718229
 20
1.932265138610087
 30
0.0
 10
-16.41545377625309
 20
2.072403445890429
 30
0.0
 10
-16.14549873872941
 20
2.242805511718658
 30
0.0
 10
-15.90292454166685
 20
2.436119215048209
 30
0.0
 10
-15.68718326806514
 20
2.65455785055255
 30
0.0
 10
-15.50104407402117
 20
2.899405963442225
 30
0.0
 10
-15.34502790596897
 20
3.171308358169806
 30
0.0
 10
-15.21845839907717
 20
3.468192690003113
 30
0.0
 10
-15.11851722774111
 20
3.790716047555232
 30
0.0
 10
-15.04667646910876
 20
4.138246310516224
 30
0.0
 10
-15.00577309413514
 20
4.5123669288888
 30
0.0
 10
-15.00088299113674
 20
4.769927412738511
 30
0.0
 10
-14.99835738223694
 20
4.902950592507645
 30
0.0
  0
SPLINE
  5
78
330
1F
100
AcDbEntity
  8
0
  6
Continuous
 62
     7
370
    25
100
AcDbSpline
210
0.0
220
0.0
230
1.0
 70
     8
 71
     3
 72
    23
 73
    19
 74
     0
 42
0.000000001
 43
0.00000001
 40
0.0
 40
0.0
 40
0.0
 40
0.0
 40
0.0732560878441966
 40
0.1428567218472891
 40
0.2078604517320823
 40
0.2695678950549162
 40
0.3277775208238987
 40
0.384347108769879
 40
0.4397417850989255
 40
0.4939115600029197
 40
0.5491340597557238
 40
0.6048794396969652
 40
0.6623231159641466
 40
0.7221463338538491
 40
0.7855949481063947
 40
0.8525620655744698
 40
0.9240835105836809
 40
1.0
 40
1.0
 40
1.0
 40
1.0
 10
-14.99835738223694
 20
4.902950592507645
 30
0.0
 10
-15.00111590085878
 20
5.029097273108932
 30
0.0
 10
-15.00649528896247
 20
5.275095957900079
 30
0.0
 10
-15.04461701399266
 20
5.631363586899737
 30
0.0
 10
-15.104958229618
 20
5.96434470224832
 30
0.0
 10
-15.19411375139053
 20
6.270676429667132
 30
0.0
 10
-15.30908882111534
 20
6.552432774126811
 30
0.0
 10
-15.44567064676533
 20
6.812348277946569
 30
0.0
 10
-15.61103898909055
 20
7.04685153676727
 30
0.0
 10
-15.80372997377203
 20
7.255979261839462
 30
0.0
 10
-16.01961080330694
 20
7.442189695248466
 30
0.0
 10
-16.26331841469001
 20
7.600715382966216
 30
0.0
 10
-16.52970613863518
 20
7.735176518267875
 30
0.0
 10
-16.82117222770379
 20
7.845767804770739
 30
0.0
 10
-17.13806266610758
 20
7.930295180450447
 30
0.0
 10
-17.48046262619565
 20
7.993140028806372
 30
0.0
 10
-17.84868314009078
 20
8.025286259331615
 30
0.0
 10
-18.10248079082379
 20
8.03145206310677
 30
0.0
 10
-18.23316240095914
 20
8.034626864618083
 30
0.0
  0
SPLINE
  5
79
330
1F
100
AcDbEntity
  8
0
  6
Continuous
 62
     7
370
    25
100
AcDbSpline
210
0.0
220
0.0
230
1.0
 70
     8
 71
     3
 72
    11
 73
     7
 74
     0
 42
0.000000001
 43
0.00000001
 40
0.0
 40
0.0
 40
0.0
 40
0.0
 40
0.3105937880944612
 40
0.5810694600258968
 40
0.8076348215121087
 40
0.9999999999999999
 40
0.9999999999999999
 40
0.9999999999999999
 40
0.9999999999999999
 10
-18.23316240095914
 20
8.034626864618083
 30
0.0
 10
-18.32030983132153
 20
8.034839794774205
 30
0.0
 10
-18.4833482185797
 20
8.035238151778058
 30
0.0
 10
-18.70906779426438
 20
8.015961226661071
 30
0.0
 10
-18.90158152488803
 20
7.995234269509722
 30
0.0
 10
-19.0159769697788
 20
7.968045893226212
 30
0.0
 10
-19.06850524851439
 20
7.955561492215733
 30
0.0
  0
LINE
  5
7A
330
1F
100
AcDbEntity
  8
0
  6
Continuous
 62
     7
370
    25
100
AcDbLine
 10
-19.0685052485
 20
7.9555614922
 30
0.0
 11
-19.0685052485
 21
8.9868489583
 31
0.0
  0
LINE
  5
7B
330
1F
100
AcDbEntity
  8
0
  6
Continuous
 62
     7
370
    25
100
AcDbLine
 10
-19.0685052485
 20
8.9868489583
 30
0.0
 11
-17.8618989132
 21
8.9868489583
 31
0.0
  0
SPLINE
  5
7C
330
1F
100
AcDbEntity
  8
0
  6
Continuous
 62
     7
370
    25
100
AcDbSpline
210
0.0
220
0.0
230
1.0
 70
     8
 71
     3
 72
    15
 73
    11
 74
     0
 42
0.000000001
 43
0.00000001
 40
0.0
 40
0.0
 40
0.0
 40
0.0
 40
0.1536472247030367
 40
0.2977049379067609
 40
0.433299010735462
 40
0.5602452672568932
 40
0.6793863486275754
 40
0.7916247388592151
 40
0.8983452346743496
 40
1.0
 40
1.0
 40
1.0
 40
1.0
 10
-17.8618989131568
 20
8.986848958333331
 30
0.0
 10
-17.6154177743093
 20
8.98411355889571
 30
0.0
 10
-17.13783900724983
 20
8.978813483210642
 30
0.0
 10
-16.44467467451646
 20
8.922020628692248
 30
0.0
 10
-15.79812533790703
 20
8.834469607093524
 30
0.0
 10
-15.19773412468977
 20
8.71235029960014
 30
0.0
 10
-14.64486279065607
 20
8.552140634027403
 30
0.0
 10
-14.14080307763198
 20
8.350840356340065
 30
0.0
 10
-13.67917913803064
 20
8.1210563652951
 30
0.0
 10
-13.40364831422959
 20
7.931269003385266
 30
0.0
 10
-13.26923206404644
 20
7.83868224605574
 30
0.0
  0
SPLINE
  5
7D
330
1F
100
AcDbEntity
  8
0
  6
Continuous
 62
     7
370
    25
100
AcDbSpline
210
0.0
220
0.0
230
1.0
 70
     8
 71
     3
 72
    15
 73
    11
 74
     0
 42
0.000000001
 43
0.00000001
 40
0.0
 40
0.0
 40
0.0
 40
0.0
 40
0.1283182260644994
 40
0.2510311367748088
 40
0.3720690573397673
 40
0.4918179692745233
 40
0.6121655210512241
 40
0.7359558636367464
 40
0.8651477282606417
 40
1.0
 40
1.0
 40
1.0
 40
1.0
 10
-13.26923206404644
 20
7.83868224605574
 30
0.0
 10
-13.15562354323444
 20
7.749789691121958
 30
0.0
 10
-12.93336925402376
 20
7.575887668001499
 30
0.0
 10
-12.64579223701812
 20
7.270871412969305
 30
0.0
 10
-12.39991854075414
 20
6.944052313127374
 30
0.0
 10
-12.19922081920431
 20
6.590460721469459
 30
0.0
 10
-12.04239900286289
 20
6.211874527907202
 30
0.0
 10
-11.93455791840705
 20
5.806027982391383
 30
0.0
 10
-11.86216374646068
 20
5.375344516929228
 30
0.0
 10
-11.85605199578939
 20
5.078578112089644
 30
0.0
 10
-11.85293061057827
 20
4.927013966717054
 30
0.0
  0
SPLINE
  5
7E
330
1F
100
AcDbEntity
  8
0
  6
Continuous
 62
     7
370
    25
100
AcDbSpline
210
0.0
220
0.0
230
1.0
 70
     8
 71
     3
 72
    15
 73
    11
 74
     0
 42
0.000000001
 43
0.00000001
 40
0.0
 40
0.0
 40
0.0
 40
0.0
 40
0.1304013868002959
 40
0.2558750539720384
 40
0.3789673235213319
 40
0.5006468552882565
 40
0.6221028025898633
 40
0.7448141898210446
 40
0.870528320354746
 40
1.0
 40
1.0
 40
1.0
 40
1.0
 10
-11.85293061057827
 20
4.927013966717054
 30
0.0
 10
-11.8561045677851
 20
4.805369829219452
 30
0.0
 10
-11.86233254197718
 20
4.566678347393045
 30
0.0
 10
-11.91527337660862
 20
4.216264148337844
 30
0.0
 10
-12.00251958990302
 20
3.881884725817022
 30
0.0
 10
-12.11704717801275
 20
3.559222366101764
 30
0.0
 10
-12.27582824716093
 20
3.256429861389351
 30
0.0
 10
-12.46031511887821
 20
2.96436081663491
 30
0.0
 10
-12.68627178624038
 20
2.692605593414494
 30
0.0
 10
-12.85636088835022
 20
2.526093264594918
 30
0.0
 10
-12.94265769977586
 20
2.441611173373643
 30
0.0
  0
SPLINE
  5
7F
330
1F
100
AcDbEntity
  8
0
  6
Continuous
 62
     7
370
    25
100
AcDbSpline
210
0.0
220
0.0
230
1.0
 70
     8
 71
     3
 72
    15
 73
    11
 74
     0
 42
0.000000001
 43
0.00000001
 40
0.0
 40
0.0
 40
0.0
 40
0.0
 40
0.1140260145429364
 40
0.2295196571469979
 40
0.3474187550978965
 40
0.4686053031945764
 40
0.5938918863063148
 40
0.7226956526590648
 40
0.8583110051199246
 40
1.0
 40
1.0
 40
1.0
 40
1.0
 10
-12.94265769977586
 20
2.441611173373644
 30
0.0
 10
-13.03515972420323
 20
2.361830072861898
 30
0.0
 10
-13.22135436598806
 20
2.201241009833908
 30
0.0
 10
-13.53004997476009
 20
1.992411975370754
 30
0.0
 10
-13.86110812803465
 20
1.805954948902434
 30
0.0
 10
-14.21675710352016
 20
1.644695285917605
 30
0.0
 10
-14.59453549963692
 20
1.506621293582385
 30
0.0
 10
-14.99770673938459
 20
1.398168530420413
 30
0.0
 10
-15.42316980966888
 20
1.307056247427323
 30
0.0
 10
-15.71762449675053
 20
1.268470680236083
 30
0.0
 10
-15.86807647866278
 20
1.24875533756429
 30
0.0
  0
LINE
  5
80
330
1F
100
AcDbEntity
  8
0
  6
Continuous
 62
     7
370
    25
100
AcDbLine
 10
-15.8680764787
 20
1.2487553376
 30
0.0
 11
-15.8680764787
 21
1.2006285891
 31
0.0
  0
SPLINE
  5
81
330
1F
100
AcDbEntity
  8
0
  6
Continuous
 62
     7
370
    25
100
AcDbSpline
210
0.0
220
0.0
230
1.0
 70
     8
 71
     3
 72
    15
 73
    11
 74
     0
 42
0.000000001
 43
0.00000001
 40
0.0
 40
0.0
 40
0.0
 40
0.0
 40
0.1571512130449819
 40
0.3016417854215726
 40
0.4357595199799685
 40
0.5601900771253111
 40
0.6765727961103541
 40
0.7873265312660823
 40
0.8939502407651178
 40
1.0
 40
1.0
 40
1.0
 40
1.0
 10
-15.86807647866278
 20
1.200628589145467
 30
0.0
 10
-15.59218084031801
 20
1.158252568512656
 30
0.0
 10
-15.06261666242954
 20
1.076914484796534
 30
0.0
 10
-14.31173572210274
 20
0.8858855592950329
 30
0.0
 10
-13.63455731803
 20
0.6515340030292618
 30
0.0
 10
-13.03169284591139
 20
0.366265121794542
 30
0.0
 10
-12.50143692678556
 20
0.0329140384116565
 30
0.0
 10
-12.0522987623272
 20
-0.3559129904311192
 30
0.0
 10
-11.6687039809218
 20
-0.7879635801166869
 30
0.0
 10
-11.48196750983506
 20
-1.117175064911757
 30
0.0
 10
-11.38885125082535
 20
-1.281336579310884
 30
0.0
  0
SPLINE
  5
82
330
1F
100
AcDbEntity
  8
0
  6
Continuous
 62
     7
370
    25
100
AcDbSpline
210
0.0
220
0.0
230
1.0
 70
     8
 71
     3
 72
    19
 73
    15
 74
     0
 42
0.000000001
 43
0.00000001
 40
0.0
 40
0.0
 40
0.0
 40
0.0
 40
0.0764470955570156
 40
0.1550008861001069
 40
0.2379752653534545
 40
0.3250876483954294
 40
0.4134476389534684
 40
0.4993014345569758
 40
0.5835482760552366
 40
0.6668990698548323
 40
0.7492969132700541
 40
0.8312790370544831
 40
0.9144996316242563
 40
1.0
 40
1.0
 40
1.0
 40
1.0
 10
-11.38885125082535
 20
-1.281336579310884
 30
0.0
 10
-11.32875025678275
 20
-1.404687250782155
 30
0.0
 10
-11.20689203229139
 20
-1.654787836550393
 30
0.0
 10
-11.09465354767122
 20
-2.068114702646364
 30
0.0
 10
-11.02157756330248
 20
-2.50804019966647
 30
0.0
 10
-11.00017542675045
 20
-2.971539264572068
 30
0.0
 10
-11.02081053897656
 20
-3.439649958812713
 30
0.0
 10
-11.08096813917371
 20
-3.899532696726516
 30
0.0
 10
-11.18930037931195
 20
-4.341230485517317
 30
0.0
 10
-11.3354764458508
 20
-4.765280003365375
 30
0.0
 10
-11.52837013640344
 20
-5.166304141921531
 30
0.0
 10
-11.76897205583426
 20
-5.539769439641209
 30
0.0
 10
-12.0501577989135
 20
-5.891892227138364
 30
0.0
 10
-12.27289104735967
 20
-6.096759873755106
 30
0.0
 10
-12.38576246807236
 20
-6.200577792691826
 30
0.0
  0
SPLINE
  5
83
330
1F
100
AcDbEntity
  8
0
  6
Continuous
 62
     7
370
    25
100
AcDbSpline
210
0.0
220
0.0
230
1.0
 70
     8
 71
     3
 72
    15
 73
    11
 74
     0
 42
0.000000001
 43
0.00000001
 40
0.0
 40
0.0
 40
0.0
 40
0.0
 40
0.1074451783079457
 40
0.2168781753485464
 40
0.3310230838600461
 40
0.4507528833551794
 40
0.5766146624346583
 40
0.7091521275168369
 40
0.8501007898707634
 40
1.0
 40
1.0
 40
1.0
 40
1.0
 10
-12.38576246807236
 20
-6.200577792691826
 30
0.0
 10
-12.51735573586125
 20
-6.306095808700411
 30
0.0
 10
-12.78297684846632
 20
-6.519084005460177
 30
0.0
 10
-13.23455388988526
 20
-6.778217673123504
 30
0.0
 10
-13.72399054423087
 20
-7.003748582083218
 30
0.0
 10
-14.25965937168166
 20
-7.182936464935398
 30
0.0
 10
-14.83479288778355
 20
-7.32946026837508
 30
0.0
 10
-15.45416637463793
 20
-7.425139121543674
 30
0.0
 10
-16.11536968119488
 20
-7.489486526659316
 30
0.0
 10
-16.57147653395455
 20
-7.496424340825711
 30
0.0
 10
-16.80654807282979
 20
-7.5
 30
0.0
  0
LINE
  5
84
330
1F
100
AcDbEntity
  8
0
  6
Continuous
 62
     7
370
    25
100
AcDbLine
 10
-16.8065480728
 20
-7.5
 30
0.0
 11
-19.0685052485
 21
-7.5
 31
0.0
  0
LINE
  5
85
330
1F
100
AcDbEntity
  8
0
  6
Continuous
 62
     7
370
    25
100
AcDbLine
 10
-19.0685052485
 20
-7.5
 30
0.0
 11
-19.0685052485
 21
-6.4790254085
 31
0.0
  0
SPLINE
  5
86
330
1F
100
AcDbEntity
  8
0
  6
Continuous
 62
     7
370
    25
100
AcDbSpline
210
0.0
220
0.0
230
1.0
 70
     8
 71
     3
 72
    11
 73
     7
 74
     0
 42
0.000000001
 43
0.00000001
 40
0.0
 40
0.0
 40
0.0
 40
0.0
 40
0.1572979019335518
 40
0.375137262995908
 40
0.6548449890301848
 40
1.0
 40
1.0
 40
1.0
 40
1.0
 10
-19.06850524851439
 20
-6.479025408543578
 30
0.0
 10
-19.0148105898637
 20
-6.490439941858833
 30
0.0
 10
-18.88675505297401
 20
-6.517662280705217
 30
0.0
 10
-18.65841017580473
 20
-6.532368591549404
 30
0.0
 10
-18.3651771950442
 20
-6.547853262041039
 30
0.0
 10
-18.14727010237319
 20
-6.547804719625993
 30
0.0
 10
-18.02690490773562
 20
-6.54777790628475
 30
0.0
  0
SPLINE
  5
87
330
1F
100
AcDbEntity
  8
0
  6
Continuous
 62
     7
370
    25
100
AcDbSpline
210
0.0
220
0.0
230
1.0
 70
     8
 71
     3
 72
    23
 73
    19
 74
     0
 42
0.000000001
 43
0.00000001
 40
0.0
 40
0.0
 40
0.0
 40
0.0
 40
0.0810855547441626
 40
0.1572279226532538
 40
0.2275494108257602
 40
0.2936439257922768
 40
0.3558174522115245
 40
0.4137170728185777
 40
0.4688331528841347
 40
0.5213739827149861
 40
0.5729980095862363
 40
0.6258867438420296
 40
0.6797198561663409
 40
0.7366322746646348
 40
0.7959331794381316
 40
0.8592912705218939
 40
0.9275332189576136
 40
1.0
 40
1.0
 40
1.0
 40
1.0
 10
-18.02690490773562
 20
-6.54777790628475
 30
0.0
 10
-17.86525386812775
 20
-6.545059165677181
 30
0.0
 10
-17.55180645776624
 20
-6.539787425978169
 30
0.0
 10
-17.09951664626786
 20
-6.501716610734519
 30
0.0
 10
-16.67963662742746
 20
-6.441833147191264
 30
0.0
 10
-16.29389059079299
 20
-6.351338895800813
 30
0.0
 10
-15.93879095182573
 20
-6.241392342102108
 30
0.0
 10
-15.61961047191123
 20
-6.097922141221337
 30
0.0
 10
-15.33243980831705
 20
-5.934050307499272
 30
0.0
 10
-15.07779773874086
 20
-5.742896966500019
 30
0.0
 10
-14.85355225443739
 20
-5.523018097285111
 30
0.0
 10
-14.66157999893216
 20
-5.271146683018623
 30
0.0
 10
-14.49828552491662
 20
-4.987967335802049
 30
0.0
 10
-14.36380339166879
 20
-4.675740396881383
 30
0.0
 10
-14.26699998562411
 20
-4.330458455511294
 30
0.0
 10
-14.18960090193006
 20
-3.957568627122462
 30
0.0
 10
-14.14573099364039
 20
-3.552360511595228
 30
0.0
 10
-14.14125589371531
 20
-3.271822024226108
 30
0.0
 10
-14.13895116047228
 20
-3.127341143661384
 30
0.0
  0
SPLINE
  5
88
330
1F
100
AcDbEntity
  8
0
  6
Continuous
 62
     7
370
    25
100
AcDbSpline
210
0.0
220
0.0
230
1.0
 70
     8
 71
     3
 72
    23
 73
    19
 74
     0
 42
0.000000001
 43
0.00000001
 40
0.0
 40
0.0
 40
0.0
 40
0.0
 40
0.0689987479044739
 40
0.1345251077089157
 40
0.1967075947558181
 40
0.2557789618297914
 40
0.3131623344866034
 40
0.3685809750884115
 40
0.4236287755137392
 40
0.4785559832854417
 40
0.5344406464602612
 40
0.5913599116100058
 40
0.6501136144237123
 40
0.7119396157104032
 40
0.7776478781265468
 40
0.8470851772995631
 40
0.9212529381444303
 40
0.9999999999999999
 40
0.9999999999999999
 40
0.9999999999999999
 40
0.9999999999999999
 10
-14.13895116047228
 20
-3.127341143661384
 30
0.0
 10
-14.14287890964774
 20
-2.981751536341353
 30
0.0
 10
-14.15053674253502
 20
-2.697899173786293
 30
0.0
 10
-14.19177624180326
 20
-2.283898377762315
 30
0.0
 10
-14.27732880785073
 20
-1.898497243815121
 30
0.0
 10
-14.38479450480328
 20
-1.536374209466121
 30
0.0
 10
-14.53135725032031
 20
-1.20384218170294
 30
0.0
 10
-14.70141604962025
 20
-0.8919188535955497
 30
0.0
 10
-14.91541833087055
 20
-0.6148570725101263
 30
0.0
 10
-15.15240167216668
 20
-0.3563966644840978
 30
0.0
 10
-15.42566204374038
 20
-0.1295321408738704
 30
0.0
 10
-15.7304628976083
 20
0.0673363546753844
 30
0.0
 10
-16.06716234953406
 20
0.2336693599303128
 30
0.0
 10
-16.43801587547542
 20
0.3662857298866854
 30
0.0
 10
-16.84038801672979
 20
0.4729155975708499
 30
0.0
 10
-17.27634960465565
 20
0.5474399331324845
 30
0.0
 10
-17.74405737058644
 20
0.5924933386805713
 30
0.0
 10
-18.06690464926016
 20
0.5968174379362082
 30
0.0
 10
-18.23316240095914
 20
0.5990442339102019
 30
0.0
  0
LINE
  5
89
330
1F
100
AcDbEntity
  8
0
  6
Continuous
 62
     7
370
    25
100
AcDbLine
 10
-18.233162401
 20
0.5990442339
 30
0.0
 11
-19.0685052485
 21
0.5990442339
 31
0.0
  0
LINE
  5
8A
330
1F
100
AcDbEntity
  8
0
  6
Continuous
 62
     7
370
    25
100
AcDbLine
 10
-19.0685052485
 20
0.5990442339
 30
0.0
 11
-19.0685052485
 21
1.6200188254
 31
0.0
  0
LINE
  5
8B
330
1F
100
AcDbEntity
  8
0
  6
Continuous
 62
     7
370
    25
100
AcDbLine
 10
-19.0685052485
 20
1.6200188254
 30
0.0
 11
-18.628489263
 21
1.6200188254
 31
0.0
  0
SPLINE
  5
8C
330
1F
100
AcDbEntity
  8
0
  6
Continuous
 62
     7
370
    25
100
AcDbSpline
210
0.0
220
0.0
230
1.0
 70
     8
 71
     3
 72
     9
 73
     5
 74
     0
 42
0.000000001
 43
0.00000001
 40
0.0
 40
0.0
 40
0.0
 40
0.0
 40
0.528685889029083
 40
1.0
 40
1.0
 40
1.0
 40
1.0
 10
-0.5706457312517309
 20
9.138104453363917
 30
0.0
 10
-0.516144147131696
 20
9.163271753431413
 30
0.0
 10
-0.413055365586712
 20
9.210875255983218
 30
0.0
 10
-0.3168943905412678
 20
9.271227811844902
 30
0.0
 10
-0.2715723660776277
 20
9.299672823055676
 30
0.0
  0
SPLINE
  5
8D
330
1F
100
AcDbEntity
  8
0
  6
Continuous
 62
     7
370
    25
100
AcDbSpline
210
0.0
220
0.0
230
1.0
 70
     8
 71
     3
 72
    21
 73
    17
 74
     0
 42
0.000000001
 43
0.00000001
 40
0.0
 40
0.0
 40
0.0
 40
0.0
 40
0.0670830053178653
 40
0.1248855080884089
 40
0.1714583864865183
 40
0.2114503219304655
 40
0.2743521787979372
 40
0.3173616757095534
 40
0.3603711726211686
 40
0.4297573006443778
 40
0.4758887199949531
 40
0.5312759867441691
 40
0.5962768527987637
 40
0.6710785014629194
 40
0.8304926845100495
 40
1.0
 40
1.0
 40
1.0
 40
1.0
 10
-0.2715723660776277
 20
9.299672823055674
 30
0.0
 10
-0.2232647650265894
 20
9.335642236836874
 30
0.0
 10
-0.1333326089878912
 20
9.4026049272295
 30
0.0
 10
0.0039128654684971
 20
9.471797700037694
 30
0.0
 10
0.1233009926991623
 20
9.524024446345466
 30
0.0
 10
0.2581592431136624
 20
9.537984226613867
 30
0.0
 10
0.3870581982030027
 20
9.528959518960072
 30
0.0
 10
0.5226393930402241
 20
9.48766522059591
 30
0.0
 10
0.5887273813865299
 20
9.352987021862482
 30
0.0
 10
0.5900214968137477
 20
9.210352410878636
 30
0.0
 10
0.581667356130398
 20
9.057564359831897
 30
0.0
 10
0.5643035175988481
 20
8.909294781192942
 30
0.0
 10
0.5321884113512404
 20
8.73734850315803
 30
0.0
 10
0.4733627468204155
 20
8.47607006846653
 30
0.0
 10
0.3626467618393554
 20
8.128879113715406
 30
0.0
 10
0.2095348580243175
 20
7.8761226102269
 30
0.0
 10
0.1306297457082349
 20
7.745866374105158
 30
0.0
  0
SPLINE
  5
8E
330
1F
100
AcDbEntity
  8
0
  6
Continuous
 62
     7
370
    25
100
AcDbSpline
210
0.0
220
0.0
230
1.0
 70
     8
 71
     3
 72
    25
 73
    21
 74
     0
 42
0.000000001
 43
0.00000001
 40
0.0
 40
0.0
 40
0.0
 40
0.0
 40
0.0335275067678791
 40
0.0683958889362501
 40
0.1043028852300015
 40
0.1422725609160958
 40
0.1810450154996624
 40
0.2217064656241899
 40
0.2640436350121048
 40
0.3092387400347501
 40
0.4067692910893506
 40
0.5135678042520523
 40
0.5454542942550552
 40
0.5855959033273782
 40
0.6339635688250551
 40
0.6906501031126473
 40
0.755561911553266
 40
0.8287757932746309
 40
0.910254933629777
 40
1.0
 40
1.0
 40
1.0
 40
1.0
 10
0.1306297457082349
 20
7.745866374105158
 30
0.0
 10
0.0852244519515953
 20
7.680437597251224
 30
0.0
 10
-0.0074020427769713
 20
7.546963331302416
 30
0.0
 10
-0.1786538280431764
 20
7.367401708190984
 30
0.0
 10
-0.3686439526302642
 20
7.192698565016394
 30
0.0
 10
-0.5834355055905195
 20
7.032841121643766
 30
0.0
 10
-0.8228624404981676
 20
6.889580450994019
 30
0.0
 10
-1.087811144092766
 20
6.772438478521468
 30
0.0
 10
-1.380405066269138
 20
6.68672157373731
 30
0.0
 10
-1.813354220668457
 20
6.611063691030928
 30
0.0
 10
-2.403986987311734
 20
6.562298973333785
 30
0.0
 10
-2.964257732825872
 20
6.547028418246536
 30
0.0
 10
-3.388519441426783
 20
6.551530531988612
 30
0.0
 10
-3.673626725664103
 20
6.568957205967656
 30
0.0
 10
-4.017849580504731
 20
6.581954373038945
 30
0.0
 10
-4.419499724962074
 20
6.618077620439291
 30
0.0
 10
-4.880582823657364
 20
6.648853317129114
 30
0.0
 10
-5.399396282200699
 20
6.69594402705012
 30
0.0
 10
-5.976971295496644
 20
6.746818346972099
 30
0.0
 10
-6.381392252551398
 20
6.784307615231561
 30
0.0
 10
-6.593364533378502
 20
6.803957155051085
 30
0.0
  0
LINE
  5
8F
330
1F
100
AcDbEntity
  8
0
  6
Continuous
 62
     7
370
    25
100
AcDbLine
 10
-6.5933645334
 20
6.8039571551
 30
0.0
 11
-6.9749408958
 21
2.0944110598
 31
0.0
  0
LINE
  5
90
330
1F
100
AcDbEntity
  8
0
  6
Continuous
 62
     7
370
    25
100
AcDbLine
 10
-6.9749408958
 20
2.0944110598
 30
0.0
 11
-7.0127547696
 21
0.9703077217
 31
0.0
  0
SPLINE
  5
91
330
1F
100
AcDbEntity
  8
0
  6
Continuous
 62
     7
370
    25
100
AcDbSpline
210
0.0
220
0.0
230
1.0
 70
     8
 71
     3
 72
    11
 73
     7
 74
     0
 42
0.000000001
 43
0.00000001
 40
0.0
 40
0.0
 40
0.0
 40
0.0
 40
0.2506085858732324
 40
0.5119979142528387
 40
0.7631195172154291
 40
0.9999999999999999
 40
0.9999999999999999
 40
0.9999999999999999
 40
0.9999999999999999
 10
-7.01275476959966
 20
0.9703077217125397
 30
0.0
 10
-7.048675009698949
 20
0.930193564898324
 30
0.0
 10
-7.122060715724203
 20
0.848239610490398
 30
0.0
 10
-7.202624110756115
 20
0.704862748347055
 30
0.0
 10
-7.271147993690939
 20
0.5597893718980094
 30
0.0
 10
-7.321677108937989
 20
0.468188991084914
 30
0.0
 10
-7.346204383644349
 20
0.4237253646702131
 30
0.0
  0
SPLINE
  5
92
330
1F
100
AcDbEntity
  8
0
  6
Continuous
 62
     7
370
    25
100
AcDbSpline
210
0.0
220
0.0
230
1.0
 70
     8
 71
     3
 72
    11
 73
     7
 74
     0
 42
0.000000001
 43
0.00000001
 40
0.0
 40
0.0
 40
0.0
 40
0.0
 40
0.334631614812256
 40
0.5995783991208465
 40
0.8149784896936739
 40
1.0
 40
1.0
 40
1.0
 40
1.0
 10
-7.346204383644349
 20
0.4237253646702131
 30
0.0
 10
-7.375725675124735
 20
0.3767839367887563
 30
0.0
 10
-7.428620643508761
 20
0.2926763243104756
 30
0.0
 10
-7.519072848627093
 20
0.1928373223516148
 30
0.0
 10
-7.610342856733168
 20
0.1258926736889265
 30
0.0
 10
-7.67655880729034
 20
0.1156392610622174
 30
0.0
 10
-7.707154996785509
 20
0.1109014999478757
 30
0.0
  0
SPLINE
  5
93
330
1F
100
AcDbEntity
  8
0
  6
Continuous
 62
     7
370
    25
100
AcDbSpline
210
0.0
220
0.0
230
1.0
 70
     8
 71
     3
 72
    15
 73
    11
 74
     0
 42
0.000000001
 43
0.00000001
 40
0.0
 40
0.0
 40
0.0
 40
0.0
 40
0.1209745875384878
 40
0.2301459296716196
 40
0.3355330656901646
 40
0.4409677483549437
 40
0.5544608032287156
 40
0.6846158685522395
 40
0.8319307676099104
 40
1.0
 40
1.0
 40
1.0
 40
1.0
 10
-7.707154996785509
 20
0.1109014999478757
 30
0.0
 10
-7.75090497143619
 20
0.1138792121958293
 30
0.0
 10
-7.834136324350597
 20
0.1195441073407028
 30
0.0
 10
-7.952208109044361
 20
0.1532221108040213
 30
0.0
 10
-8.051485000915973
 20
0.2165992510731144
 30
0.0
 10
-8.127537368686022
 20
0.3074000834926188
 30
0.0
 10
-8.191935370098292
 20
0.416837699307408
 30
0.0
 10
-8.235389363082017
 20
0.5527041683721059
 30
0.0
 10
-8.257119049992895
 20
0.7129299802811079
 30
0.0
 10
-8.261640652019931
 20
0.8270107239862649
 30
0.0
 10
-8.26405022848901
 20
0.8878047244231324
 30
0.0
  0
SPLINE
  5
94
330
1F
100
AcDbEntity
  8
0
  6
Continuous
 62
     7
370
    25
100
AcDbSpline
210
0.0
220
0.0
230
1.0
 70
     8
 71
     3
 72
    15
 73
    11
 74
     0
 42
0.000000001
 43
0.00000001
 40
0.0
 40
0.0
 40
0.0
 40
0.0
 40
0.1099963240178737
 40
0.2302391333160082
 40
0.3617028867731134
 40
0.5034847383785729
 40
0.6454179585519872
 40
0.7755657144334541
 40
0.8936764431972912
 40
1.0
 40
1.0
 40
1.0
 40
1.0
 10
-8.264050228489012
 20
0.8878047244231325
 30
0.0
 10
-8.262529249402668
 20
1.036784164727028
 30
0.0
 10
-8.25934560749683
 20
1.348620924034541
 30
0.0
 10
-8.238428607423792
 20
1.838188603955069
 30
0.0
 10
-8.198354074520196
 20
2.369666616090254
 30
0.0
 10
-8.151675441678362
 20
2.930050350982208
 30
0.0
 10
-8.098813831494608
 20
3.488119655144513
 30
0.0
 10
-8.040006730995517
 20
4.013350853218988
 30
0.0
 10
-7.999101601664177
 20
4.491896495659832
 30
0.0
 10
-7.966616068632252
 20
4.794141306228417
 30
0.0
 10
-7.951226363766674
 20
4.937326841378234
 30
0.0
  0
SPLINE
  5
95
330
1F
100
AcDbEntity
  8
0
  6
Continuous
 62
     7
370
    25
100
AcDbSpline
210
0.0
220
0.0
230
1.0
 70
     8
 71
     3
 72
    15
 73
    11
 74
     0
 42
0.000000001
 43
0.00000001
 40
0.0
 40
0.0
 40
0.0
 40
0.0
 40
0.0980515426058774
 40
0.204142612840027
 40
0.3174729802409692
 40
0.43897906063056
 40
0.5677226827257713
 40
0.7037065760999748
 40
0.8477989467328483
 40
1.0
 40
1.0
 40
1.0
 40
1.0
 10
-7.951226363766674
 20
4.937326841378234
 30
0.0
 10
-7.938446970589761
 20
5.075962027555033
 30
0.0
 10
-7.91184036508095
 20
5.364599497048542
 30
0.0
 10
-7.873997429074976
 20
5.813792088495136
 30
0.0
 10
-7.838265433570029
 20
6.29656336088858
 30
0.0
 10
-7.791267450766866
 20
6.810678427899088
 30
0.0
 10
-7.747184899481257
 20
7.357318973793735
 30
0.0
 10
-7.703105138667119
 20
7.936122982409432
 30
0.0
 10
-7.65478049971683
 20
8.548005614310183
 30
0.0
 10
-7.621250208620312
 20
8.967371979918447
 30
0.0
 10
-7.604026250173749
 20
9.182793576895678
 30
0.0
  0
SPLINE
  5
96
330
1F
100
AcDbEntity
  8
0
  6
Continuous
 62
     7
370
    25
100
AcDbSpline
210
0.0
220
0.0
230
1.0
 70
     8
 71
     3
 72
    11
 73
     7
 74
     0
 42
0.000000001
 43
0.00000001
 40
0.0
 40
0.0
 40
0.0
 40
0.0
 40
0.2904874897325936
 40
0.5537283886730149
 40
0.7901144579452177
 40
1.0
 40
1.0
 40
1.0
 40
1.0
 10
-7.604026250173749
 20
9.182793576895678
 30
0.0
 10
-7.27430856146702
 20
9.134631149970422
 30
0.0
 10
-6.645799414127712
 20
9.042823743460584
 30
0.0
 10
-5.744402703830938
 20
8.948025597601584
 30
0.0
 10
-4.932745152642767
 20
8.884545074846862
 30
0.0
 10
-4.420884513065787
 20
8.874631945724575
 30
0.0
 10
-4.180151862663323
 20
8.86996971217334
 30
0.0
  0
SPLINE
  5
97
330
1F
100
AcDbEntity
  8
0
  6
Continuous
 62
     7
370
    25
100
AcDbSpline
210
0.0
220
0.0
230
1.0
 70
     8
 71
     3
 72
    15
 73
    11
 74
     0
 42
0.000000001
 43
0.00000001
 40
0.0
 40
0.0
 40
0.0
 40
0.0
 40
0.2015646753132617
 40
0.3804559175055771
 40
0.5385904156229698
 40
0.6741794314312002
 40
0.7871863475830557
 40
0.878992332234066
 40
0.9497122297097268
 40
1.0
 40
1.0
 40
1.0
 40
1.0
 10
-4.180151862663323
 20
8.86996971217334
 30
0.0
 10
-3.936065940167902
 20
8.870122333100001
 30
0.0
 10
-3.475350621628746
 20
8.870410407062336
 30
0.0
 10
-2.823361640956311
 20
8.88584672004124
 30
0.0
 10
-2.25119962509954
 20
8.902956942313939
 30
0.0
 10
-1.759935914897458
 20
8.9368413483744
 30
0.0
 10
-1.348337410561614
 20
8.965197968131497
 30
0.0
 10
-1.0186373867602
 20
9.01525839280297
 30
0.0
 10
-0.7642640320092858
 20
9.062688280243798
 30
0.0
 10
-0.6274868984361953
 20
9.115964277110116
 30
0.0
 10
-0.5706457312517309
 20
9.138104453363917
 30
0.0
  0
SPLINE
  5
98
330
1F
100
AcDbEntity
  8
0
  6
Continuous
 62
     7
370
    25
100
AcDbSpline
210
0.0
220
0.0
230
1.0
 70
     8
 71
     3
 72
    11
 73
     7
 74
     0
 42
0.000000001
 43
0.00000001
 40
0.0
 40
0.0
 40
0.0
 40
0.0
 40
0.2443338085564896
 40
0.4894424620026991
 40
0.7408524825185799
 40
1.0
 40
1.0
 40
1.0
 40
1.0
 10
-4.692357970835063
 20
1.977531813620728
 30
0.0
 10
-4.803787628295937
 20
1.973389254353219
 30
0.0
 10
-5.027000315111471
 20
1.965090998705092
 30
0.0
 10
-5.359771638916538
 20
1.902736101948816
 30
0.0
 10
-5.692191881317342
 20
1.80915714339616
 30
0.0
 10
-5.904594923066784
 20
1.71334170788157
 30
0.0
 10
-6.012405927465589
 20
1.664707948898389
 30
0.0
  0
LINE
  5
99
330
1F
100
AcDbEntity
  8
0
  6
Continuous
 62
     7
370
    25
100
AcDbLine
 10
-6.0124059275
 20
1.6647079489
 30
0.0
 11
-6.0124059275
 21
2.6169300426
 31
0.0
  0
SPLINE
  5
9A
330
1F
100
AcDbEntity
  8
0
  6
Continuous
 62
     7
370
    25
100
AcDbSpline
210
0.0
220
0.0
230
1.0
 70
     8
 71
     3
 72
    19
 73
    15
 74
     0
 42
0.000000001
 43
0.00000001
 40
0.0
 40
0.0
 40
0.0
 40
0.0
 40
0.0760693705869217
 40
0.1554198905777331
 40
0.2388297945457339
 40
0.3279803386035937
 40
0.4187528809684216
 40
0.5069785894730607
 40
0.5928354481405115
 40
0.6781787968555477
 40
0.7615597201828584
 40
0.8425513237027397
 40
0.9217169771518844
 40
1.0
 40
1.0
 40
1.0
 40
1.0
 10
-6.012405927465589
 20
2.616930042613639
 30
0.0
 10
-5.868507883351652
 20
2.684191822170438
 30
0.0
 10
-5.574504947636773
 20
2.821616627162562
 30
0.0
 10
-5.091387315867816
 20
2.951224866726514
 30
0.0
 10
-4.571382156835322
 20
3.029618576245763
 30
0.0
 10
-4.022062901289599
 20
3.054743219893538
 30
0.0
 10
-3.462772495045191
 20
3.032035703673924
 30
0.0
 10
-2.914898413825143
 20
2.956383815685311
 30
0.0
 10
-2.387944536021844
 20
2.831427180452906
 30
0.0
 10
-1.884122042611636
 20
2.661548596033873
 30
0.0
 10
-1.410637897188826
 20
2.443242519790492
 30
0.0
 10
-0.9679757744065176
 20
2.193384090546859
 30
0.0
 10
-0.5622520599991674
 20
1.903804283209752
 30
0.0
 10
-0.3198859612049741
 20
1.682115228609511
 30
0.0
 10
-0.1993822434493958
 20
1.571892076947805
 30
0.0
  0
SPLINE
  5
9B
330
1F
100
AcDbEntity
  8
0
  6
Continuous
 62
     7
370
    25
100
AcDbSpline
210
0.0
220
0.0
230
1.0
 70
     8
 71
     3
 72
    15
 73
    11
 74
     0
 42
0.000000001
 43
0.00000001
 40
0.0
 40
0.0
 40
0.0
 40
0.0
 40
0.1245239482040965
 40
0.2470688596770281
 40
0.3679071963611175
 40
0.48890703187094
 40
0.6116907449567922
 40
0.7369963576821231
 40
0.8655681191033135
 40
1.0
 40
1.0
 40
1.0
 40
1.0
 10
-0.1993822434493958
 20
1.571892076947805
 30
0.0
 10
-0.085802631818994
 20
1.452555125000747
 30
0.0
 10
0.1395514910850525
 20
1.215777821838413
 30
0.0
 10
0.4323936637998183
 20
0.8258110352733612
 30
0.0
 10
0.6782187335121873
 20
0.4103478722388987
 30
0.0
 10
0.8772649428625944
 20
-0.0295116003572293
 30
0.0
 10
1.038360577006811
 20
-0.4912395817747993
 30
0.0
 10
1.144434434529826
 20
-0.9785442933836139
 30
0.0
 10
1.218246901080976
 20
-1.487632139000851
 30
0.0
 10
1.22419286181018
 20
-1.835659639898167
 30
0.0
 10
1.227232084679949
 20
-2.013550680254376
 30
0.0
  0
SPLINE
  5
9C
330
1F
100
AcDbEntity
  8
0
  6
Continuous
 62
     7
370
    25
100
AcDbSpline
210
0.0
220
0.0
230
1.0
 70
     8
 71
     3
 72
    15
 73
    11
 74
     0
 42
0.000000001
 43
0.00000001
 40
0.0
 40
0.0
 40
0.0
 40
0.0
 40
0.1328957207534764
 40
0.260913002437932
 40
0.3864788626425219
 40
0.5096781977155346
 40
0.6314620320982965
 40
0.7531879103161524
 40
0.8755415579142339
 40
1.0
 40
1.0
 40
1.0
 40
1.0
 10
1.227232084679949
 20
-2.013550680254376
 30
0.0
 10
1.223785732939964
 20
-2.199399826124621
 30
0.0
 10
1.217019540809484
 20
-2.564275823444966
 30
0.0
 10
1.148265011382378
 20
-3.101026679478957
 30
0.0
 10
1.043121717489898
 20
-3.6175859738333
 30
0.0
 10
0.8944884059548736
 20
-4.114438979172056
 30
0.0
 10
0.7058837208257378
 20
-4.59195269526358
 30
0.0
 10
0.4695616990890032
 20
-5.046160747050365
 30
0.0
 10
0.1957680540472483
 20
-5.483757598063462
 30
0.0
 10
-0.0212136779579395
 20
-5.752325043837978
 30
0.0
 10
-0.1306297457082228
 20
-5.887753927969487
 30
0.0
  0
SPLINE
  5
9D
330
1F
100
AcDbEntity
  8
0
  6
Continuous
 62
     7
370
    25
100
AcDbSpline
210
0.0
220
0.0
230
1.0
 70
     8
 71
     3
 72
    15
 73
    11
 74
     0
 42
0.000000001
 43
0.00000001
 40
0.0
 40
0.0
 40
0.0
 40
0.0
 40
0.1232029668171588
 40
0.2444782336513769
 40
0.3650444374637937
 40
0.4857339406475963
 40
0.608880083893364
 40
0.7347178672949664
 40
0.8644423963420466
 40
1.0
 40
1.0
 40
1.0
 40
1.0
 10
-0.1306297457082228
 20
-5.887753927969486
 30
0.0
 10
-0.2536500978039689
 20
-6.025987038359855
 30
0.0
 10
-0.4977659593008185
 20
-6.300290389435218
 30
0.0
 10
-0.9156419394730682
 20
-6.656602136813237
 30
0.0
 10
-1.359432225444071
 20
-6.972383079019177
 30
0.0
 10
-1.838508994449438
 20
-7.238113069138134
 30
0.0
 10
-2.348341811929712
 20
-7.45883621295703
 30
0.0
 10
-2.890955803134096
 20
-7.630278161102847
 30
0.0
 10
-3.46535376616789
 20
-7.755567226151665
 30
0.0
 10
-3.861066000789981
 20
-7.80028580804334
 30
0.0
 10
-4.063272616503329
 20
-7.823136739383511
 30
0.0
  0
LINE
  5
9E
330
1F
100
AcDbEntity
  8
0
  6
Continuous
 62
     7
370
    25
100
AcDbLine
 10
-4.0632726165
 20
-7.8231367394
 30
0.0
 11
-4.0632726165
 21
-6.8846651452
 31
0.0
  0
SPLINE
  5
9F
330
1F
100
AcDbEntity
  8
0
  6
Continuous
 62
     7
370
    25
100
AcDbSpline
210
0.0
220
0.0
230
1.0
 70
     8
 71
     3
 72
    23
 73
    19
 74
     0
 42
0.000000001
 43
0.00000001
 40
0.0
 40
0.0
 40
0.0
 40
0.0
 40
0.0528481523568801
 40
0.1035744363355758
 40
0.1531060476177331
 40
0.2027927109057233
 40
0.2530109935459058
 40
0.3039821942645025
 40
0.3577340342641717
 40
0.4133677719981496
 40
0.4718705244369335
 40
0.5344891051986601
 40
0.600579611399011
 40
0.6710865421693004
 40
0.7464109269565096
 40
0.8261455997042579
 40
0.9104097386010106
 40
1.0
 40
1.0
 40
1.0
 40
1.0
 10
-4.06327261650333
 20
-6.884665145216498
 30
0.0
 10
-3.96530543080178
 20
-6.863921307990334
 30
0.0
 10
-3.773304469824009
 20
-6.823266504514368
 30
0.0
 10
-3.499156273835176
 20
-6.726144365603619
 30
0.0
 10
-3.245187148394473
 20
-6.597566683695971
 30
0.0
 10
-3.010847839700187
 20
-6.437801685729886
 30
0.0
 10
-2.793273171728162
 20
-6.251869078930769
 30
0.0
 10
-2.593881737211448
 20
-6.035484414364878
 30
0.0
 10
-2.418688741543572
 20
-5.787000991803259
 30
0.0
 10
-2.252942501412659
 20
-5.515060663368084
 30
0.0
 10
-2.118739173167872
 20
-5.207787211589886
 30
0.0
 10
-1.993742645281764
 20
-4.875956963227464
 30
0.0
 10
-1.891053175722016
 20
-4.512510531729656
 30
0.0
 10
-1.809909187489019
 20
-4.11933229594084
 30
0.0
 10
-1.745457513716762
 20
-3.697001372467212
 30
0.0
 10
-1.696914817894422
 20
-3.246317968105616
 30
0.0
 10
-1.670275851915272
 20
-2.76671299034866
 30
0.0
 10
-1.666009151742986
 20
-2.437555582437839
 30
0.0
 10
-1.663810445336384
 20
-2.267934921896717
 30
0.0
  0
SPLINE
  5
A0
330
1F
100
AcDbEntity
  8
0
  6
Continuous
 62
     7
370
    25
100
AcDbSpline
210
0.0
220
0.0
230
1.0
 70
     8
 71
     3
 72
    23
 73
    19
 74
     0
 42
0.000000001
 43
0.00000001
 40
0.0
 40
0.0
 40
0.0
 40
0.0
 40
0.0847098294742907
 40
0.1649730530758149
 40
0.2398801848644635
 40
0.3108912407294775
 40
0.3779578814161569
 40
0.441940736077269
 40
0.5022722014669185
 40
0.5609065935355204
 40
0.6173630359377924
 40
0.671459586108104
 40
0.7244864507817178
 40
0.7770741620169025
 40
0.8302166657379726
 40
0.8842027792533399
 40
0.9409454297401916
 40
1.0
 40
1.0
 40
1.0
 40
1.0
 10
-1.663810445336384
 20
-2.267934921896717
 30
0.0
 10
-1.666593373522443
 20
-2.10171348652946
 30
0.0
 10
-1.67201314785317
 20
-1.777995945727382
 30
0.0
 10
-1.709683871501293
 20
-1.308443214985851
 30
0.0
 10
-1.771624923500315
 20
-0.8687873026791517
 30
0.0
 10
-1.855209718171399
 20
-0.4588392521711158
 30
0.0
 10
-1.970111602469373
 20
-0.0788914953101039
 30
0.0
 10
-2.105532979399015
 20
0.2718446502360448
 30
0.0
 10
-2.268446247961738
 20
0.5925224454891969
 30
0.0
 10
-2.457626132535315
 20
0.8809258523456085
 30
0.0
 10
-2.667280317439354
 20
1.138819280309375
 30
0.0
 10
-2.894198681617627
 20
1.367369890956595
 30
0.0
 10
-3.148915481981411
 20
1.551535179406393
 30
0.0
 10
-3.418128242678273
 20
1.709478977823642
 30
0.0
 10
-3.708808999398575
 20
1.829264850884287
 30
0.0
 10
-4.019009181112585
 20
1.916153661876278
 30
0.0
 10
-4.349138900744426
 20
1.968037131968927
 30
0.0
 10
-4.576438914058437
 20
1.974325072977848
 30
0.0
 10
-4.692357970835063
 20
1.977531813620728
 30
0.0
  0
SPLINE
  5
A1
330
1F
100
AcDbEntity
  8
0
  6
Continuous
 62
     7
370
    25
100
AcDbSpline
210
0.0
220
0.0
230
1.0
 70
     8
 71
     3
 72
    15
 73
    11
 74
     0
 42
0.000000001
 43
0.00000001
 40
0.0
 40
0.0
 40
0.0
 40
0.0
 40
0.1102598296335573
 40
0.2187995942744068
 40
0.3330720230518519
 40
0.4596869874387049
 40
0.5922897999045278
 40
0.7245610779102072
 40
0.8595167594662652
 40
1.0
 40
1.0
 40
1.0
 40
1.0
 10
-7.39433113206317
 20
-5.238042824315399
 30
0.0
 10
-7.382514649900319
 20
-5.356509333313793
 30
0.0
 10
-7.359066023944928
 20
-5.591594261252641
 30
0.0
 10
-7.20616390785057
 20
-5.92091260797212
 30
0.0
 10
-6.976963013386934
 20
-6.221033693621436
 30
0.0
 10
-6.662266785558326
 20
-6.473923080244746
 30
0.0
 10
-6.299519834429488
 20
-6.688159204577503
 30
0.0
 10
-5.899402747313016
 20
-6.847133830677912
 30
0.0
 10
-5.471940623268813
 20
-6.94990729521703
 30
0.0
 10
-5.176494950387578
 20
-6.968167625957809
 30
0.0
 10
-5.025807584879754
 20
-6.977481017167081
 30
0.0
  0
LINE
  5
A2
330
1F
100
AcDbEntity
  8
0
  6
Continuous
 62
     7
370
    25
100
AcDbLine
 10
-5.0258075849
 20
-6.9774810172
 30
0.0
 11
-5.0258075849
 21
-7.8609506131
 31
0.0
  0
SPLINE
  5
A3
330
1F
100
AcDbEntity
  8
0
  6
Continuous
 62
     7
370
    25
100
AcDbSpline
210
0.0
220
0.0
230
1.0
 70
     8
 71
     3
 72
    15
 73
    11
 74
     0
 42
0.000000001
 43
0.00000001
 40
0.0
 40
0.0
 40
0.0
 40
0.0
 40
0.1385193755599752
 40
0.2717436714912099
 40
0.4002397142453241
 40
0.5250319712589817
 40
0.6462919316992931
 40
0.7647103376026353
 40
0.8826815158230086
 40
1.0
 40
1.0
 40
1.0
 40
1.0
 10
-5.025807584879754
 20
-7.860950613141156
 30
0.0
 10
-5.176149644687358
 20
-7.853093904660293
 30
0.0
 10
-5.47108674750429
 20
-7.837680820391067
 30
0.0
 10
-5.90153441507611
 20
-7.773212130696893
 30
0.0
 10
-6.312773469539234
 20
-7.686356863123967
 30
0.0
 10
-6.700956143607583
 20
-7.563302811901305
 30
0.0
 10
-7.071504793064338
 20
-7.422237481794076
 30
0.0
 10
-7.416467177160755
 20
-7.242547286638082
 30
0.0
 10
-7.746050591250909
 20
-7.043478883706971
 30
0.0
 10
-7.944895553016241
 20
-6.882452163694677
 30
0.0
 10
-8.04404223571726
 20
-6.80216214792709
 30
0.0
  0
SPLINE
  5
A4
330
1F
100
AcDbEntity
  8
0
  6
Continuous
 62
     7
370
    25
100
AcDbSpline
210
0.0
220
0.0
230
1.0
 70
     8
 71
     3
 72
    15
 73
    11
 74
     0
 42
0.000000001
 43
0.00000001
 40
0.0
 40
0.0
 40
0.0
 40
0.0
 40
0.1404167870786915
 40
0.2741577856607304
 40
0.4016491473002741
 40
0.5247104973476753
 40
0.6433787842791229
 40
0.7615792574829934
 40
0.8802164142232096
 40
1.0
 40
1.0
 40
1.0
 40
1.0
 10
-8.044042235717258
 20
-6.802162147927089
 30
0.0
 10
-8.132618322532933
 20
-6.723525011776646
 30
0.0
 10
-8.305559352797847
 20
-6.569989358624117
 30
0.0
 10
-8.533965721569325
 20
-6.318681756525043
 30
0.0
 10
-8.722560984732892
 20
-6.054718676139824
 30
0.0
 10
-8.883948854279968
 20
-5.787713863506322
 30
0.0
 10
-9.004023829006385
 20
-5.508184685810118
 30
0.0
 10
-9.095845762538445
 20
-5.222261825645343
 30
0.0
 10
-9.14773760962938
 20
-4.924812247748712
 30
0.0
 10
-9.154456899551448
 20
-4.723731689417379
 30
0.0
 10
-9.157832699124263
 20
-4.622707969531899
 30
0.0
  0
SPLINE
  5
A5
330
1F
100
AcDbEntity
  8
0
  6
Continuous
 62
     7
370
    25
100
AcDbSpline
210
0.0
220
0.0
230
1.0
 70
     8
 71
     3
 72
    15
 73
    11
 74
     0
 42
0.000000001
 43
0.00000001
 40
0.0
 40
0.0
 40
0.0
 40
0.0
 40
0.1612009911616797
 40
0.3036037872293955
 40
0.4293364923260778
 40
0.5423907166585482
 40
0.6500172206332842
 40
0.7574485923467582
 40
0.8725106307783514
 40
1.0
 40
1.0
 40
1.0
 40
1.0
 10
-9.157832699124263
 20
-4.622707969531899
 30
0.0
 10
-9.152865908582832
 20
-4.453950038485456
 30
0.0
 10
-9.14351152181457
 20
-4.136113611913427
 30
0.0
 10
-9.067076663356243
 20
-3.691380149684869
 30
0.0
 10
-8.934482736226473
 20
-3.312895583098074
 30
0.0
 10
-8.74662408917936
 20
-2.999239591854137
 30
0.0
 10
-8.500065441857418
 20
-2.754622438595313
 30
0.0
 10
-8.196927013230079
 20
-2.581526493684246
 30
0.0
 10
-7.840474591873082
 20
-2.481807084447714
 30
0.0
 10
-7.586345541162551
 20
-2.470056079418116
 30
0.0
 10
-7.452770755143168
 20
-2.463879540459061
 30
0.0
  0
SPLINE
  5
A6
330
1F
100
AcDbEntity
  8
0
  6
Continuous
 62
     7
370
    25
100
AcDbSpline
210
0.0
220
0.0
230
1.0
 70
     8
 71
     3
 72
    21
 73
    17
 74
     0
 42
0.000000001
 43
0.00000001
 40
0.0
 40
0.0
 40
0.0
 40
0.0
 40
0.0898400454565834
 40
0.1727240988684086
 40
0.2528259240772618
 40
0.332907906548052
 40
0.410182187227368
 40
0.483089573546027
 40
0.5546993238939464
 40
0.6271109342348486
 40
0.697134811455581
 40
0.7562466958891843
 40
0.8071745275296336
 40
0.8496143872300078
 40
0.9250009363212331
 40
1.0
 40
1.0
 40
1.0
 40
1.0
 10
-7.452770755143169
 20
-2.463879540459061
 30
0.0
 10
-7.352666943581363
 20
-2.468373195199427
 30
0.0
 10
-7.160209999048073
 20
-2.477012577133293
 30
0.0
 10
-6.885198537181795
 20
-2.546914285286791
 30
0.0
 10
-6.640353666570804
 20
-2.666087928844277
 30
0.0
 10
-6.428400879341061
 20
-2.826836103325092
 30
0.0
 10
-6.25621208979886
 20
-3.018908510307987
 30
0.0
 10
-6.129229376656849
 20
-3.232356435568497
 30
0.0
 10
-6.050290677221226
 20
-3.463181874750902
 30
0.0
 10
-6.032217671087679
 20
-3.702359485834536
 30
0.0
 10
-6.039581125101778
 20
-3.926665936361302
 30
0.0
 10
-6.062116057027563
 20
-4.126163912248532
 30
0.0
 10
-6.101691538083882
 20
-4.291902465025201
 30
0.0
 10
-6.174437250832631
 20
-4.465870469104689
 30
0.0
 10
-6.30078400733016
 20
-4.643147527144015
 30
0.0
 10
-6.427193763263205
 20
-4.753370318468257
 30
0.0
 10
-6.490235786766743
 20
-4.808339713433067
 30
0.0
  0
SPLINE
  5
A7
330
1F
100
AcDbEntity
  8
0
  6
Continuous
 62
     7
370
    25
100
AcDbSpline
210
0.0
220
0.0
230
1.0
 70
     8
 71
     3
 72
    11
 73
     7
 74
     0
 42
0.000000001
 43
0.00000001
 40
0.0
 40
0.0
 40
0.0
 40
0.0
 40
0.1757427500024726
 40
0.3993884674527552
 40
0.6768925352190018
 40
1.0
 40
1.0
 40
1.0
 40
1.0
 10
-6.490235786766743
 20
-4.808339713433067
 30
0.0
 10
-6.538880290788944
 20
-4.841483281495284
 30
0.0
 10
-6.649428543340773
 20
-4.916804504442458
 30
0.0
 10
-6.853282120436609
 20
-5.016650284169486
 30
0.0
 10
-7.104603357949365
 20
-5.13010763775698
 30
0.0
 10
-7.292987317719935
 20
-5.200288199163782
 30
0.0
 10
-7.39433113206317
 20
-5.238042824315399
 30
0.0
  0
LINE
  5
A8
330
1F
100
AcDbEntity
  8
0
  6
Continuous
 62
     7
370
    25
100
AcDbLine
 10
-24.5446416936
 20
8.9868489583
 30
0.0
 11
-20.0344778418
 21
8.9868489583
 31
0.0
  0
LINE
  5
A9
330
1F
100
AcDbEntity
  8
0
  6
Continuous
 62
     7
370
    25
100
AcDbLine
 10
-20.0344778418
 20
8.9868489583
 30
0.0
 11
-20.0344778418
 21
-7.5
 31
0.0
  0
LINE
  5
AA
330
1F
100
AcDbEntity
  8
0
  6
Continuous
 62
     7
370
    25
100
AcDbLine
 10
-20.0344778418
 20
-7.5
 30
0.0
 11
-24.5446416936
 21
-7.5
 31
0.0
  0
LINE
  5
AB
330
1F
100
AcDbEntity
  8
0
  6
Continuous
 62
     7
370
    25
100
AcDbLine
 10
-24.5446416936
 20
-7.5
 30
0.0
 11
-24.5446416936
 21
-6.8159126475
 31
0.0
  0
SPLINE
  5
AC
330
1F
100
AcDbEntity
  8
0
  6
Continuous
 62
     7
370
    25
100
AcDbSpline
210
0.0
220
0.0
230
1.0
 70
     8
 71
     3
 72
    11
 73
     7
 74
     0
 42
0.000000001
 43
0.00000001
 40
0.0
 40
0.0
 40
0.0
 40
0.0
 40
0.275344228552292
 40
0.5331013272501843
 40
0.7746961835278845
 40
1.0
 40
1.0
 40
1.0
 40
1.0
 10
-24.54464169359884
 20
-6.815912647475327
 30
0.0
 10
-24.44240031319025
 20
-6.771004118081795
 30
0.0
 10
-24.24444804129304
 20
-6.684055512874338
 30
0.0
 10
-23.9422847601469
 20
-6.598740693035805
 30
0.0
 10
-23.66073548524559
 20
-6.513184389646936
 30
0.0
 10
-23.49176355813618
 20
-6.42753836657336
 30
0.0
 10
-23.41022548086948
 20
-6.386209536592994
 30
0.0
  0
SPLINE
  5
AD
330
1F
100
AcDbEntity
  8
0
  6
Continuous
 62
     7
370
    25
100
AcDbSpline
210
0.0
220
0.0
230
1.0
 70
     8
 71
     3
 72
    11
 73
     7
 74
     0
 42
0.000000001
 43
0.00000001
 40
0.0
 40
0.0
 40
0.0
 40
0.0
 40
0.2288373950996523
 40
0.4601531142471253
 40
0.7092547813095562
 40
1.0
 40
1.0
 40
1.0
 40
1.0
 10
-23.41022548086948
 20
-6.386209536592994
 30
0.0
 10
-23.33516411672385
 20
-6.334301407959445
 30
0.0
 10
-23.18422846891937
 20
-6.229922982243372
 30
0.0
 10
-23.02669255905005
 20
-5.989769301143088
 30
0.0
 10
-22.9368077830743
 20
-5.694664277515114
 30
0.0
 10
-22.92723718292664
 20
-5.480550275938615
 30
0.0
 10
-22.92208274690715
 20
-5.365234945136573
 30
0.0
  0
LINE
  5
AE
330
1F
100
AcDbEntity
  8
0
  6
Continuous
 62
     7
370
    25
100
AcDbLine
 10
-22.9220827469
 20
-5.3652349451
 30
0.0
 11
-22.9220827469
 21
6.8520839035
 31
0.0
  0
SPLINE
  5
AF
330
1F
100
AcDbEntity
  8
0
  6
Continuous
 62
     7
370
    25
100
AcDbSpline
210
0.0
220
0.0
230
1.0
 70
     8
 71
     3
 72
    11
 73
     7
 74
     0
 42
0.000000001
 43
0.00000001
 40
0.0
 40
0.0
 40
0.0
 40
0.0
 40
0.2907452186904432
 40
0.5398468857528742
 40
0.7711626049003486
 40
1.0
 40
1.0
 40
1.0
 40
1.0
 10
-22.92208274690715
 20
6.852083903469905
 30
0.0
 10
-22.92723718292664
 20
6.967399234271946
 30
0.0
 10
-22.9368077830743
 20
7.181513235848448
 30
0.0
 10
-23.02669255905005
 20
7.476618259476418
 30
0.0
 10
-23.18422846891936
 20
7.716771940576707
 30
0.0
 10
-23.33516411672385
 20
7.821150366292778
 30
0.0
 10
-23.41022548086948
 20
7.873058494926326
 30
0.0
  0
SPLINE
  5
B0
330
1F
100
AcDbEntity
  8
0
  6
Continuous
 62
     7
370
    25
100
AcDbSpline
210
0.0
220
0.0
230
1.0
 70
     8
 71
     3
 72
    11
 73
     7
 74
     0
 42
0.000000001
 43
0.00000001
 40
0.0
 40
0.0
 40
0.0
 40
0.0
 40
0.2253099038952545
 40
0.4660314364604574
 40
0.7246483319961524
 40
1.0
 40
1.0
 40
1.0
 40
1.0
 10
-23.41022548086948
 20
7.873058494926326
 30
0.0
 10
-23.4916351338308
 20
7.914781523991095
 30
0.0
 10
-23.66002301583418
 20
8.001081517166606
 30
0.0
 10
-23.94367540514608
 20
8.080124554527787
 30
0.0
 10
-24.24365512953541
 20
8.172259102325686
 30
0.0
 10
-24.44223828240082
 20
8.258361279939889
 30
0.0
 10
-24.54464169359884
 20
8.302761605808659
 30
0.0
  0
LINE
  5
B1
330
1F
100
AcDbEntity
  8
0
  6
Continuous
 62
     7
370
    25
100
AcDbLine
 10
-24.5446416936
 20
8.3027616058
 30
0.0
 11
-24.5446416936
 21
8.9868489583
 31
0.0
  0
LINE
  5
B2
330
1F
100
AcDbEntity
  8
0
  6
Continuous
 62
     7
370
    25
100
AcDbLine
 10
9.556597186
 20
8.9868489583
 30
0.0
 11
14.2523927817
 21
8.9868489583
 31
0.0
  0
LINE
  5
B3
330
1F
100
AcDbEntity
  8
0
  6
Continuous
 62
     7
370
    25
100
AcDbLine
 10
14.2523927817
 20
8.9868489583
 30
0.0
 11
14.2523927817
 21
-7.5
 31
0.0
  0
LINE
  5
B4
330
1F
100
AcDbEntity
  8
0
  6
Continuous
 62
     7
370
    25
100
AcDbLine
 10
14.2523927817
 20
-7.5
 30
0.0
 11
9.556597186
 21
-7.5
 31
0.0
  0
LINE
  5
B5
330
1F
100
AcDbEntity
  8
0
  6
Continuous
 62
     7
370
    25
100
AcDbLine
 10
9.556597186
 20
-7.5
 30
0.0
 11
9.556597186
 21
-6.8159126475
 31
0.0
  0
SPLINE
  5
B6
330
1F
100
AcDbEntity
  8
0
  6
Continuous
 62
     7
370
    25
100
AcDbSpline
210
0.0
220
0.0
230
1.0
 70
     8
 71
     3
 72
    11
 73
     7
 74
     0
 42
0.000000001
 43
0.00000001
 40
0.0
 40
0.0
 40
0.0
 40
0.0
 40
0.2753442285522906
 40
0.533101327250183
 40
0.7746961835278845
 40
1.0
 40
1.0
 40
1.0
 40
1.0
 10
9.556597186023076
 20
-6.815912647475328
 30
0.0
 10
9.658838566431665
 20
-6.771004118081795
 30
0.0
 10
9.856790838328877
 20
-6.684055512874338
 30
0.0
 10
10.15895411947501
 20
-6.598740693035804
 30
0.0
 10
10.44050339437632
 20
-6.513184389646938
 30
0.0
 10
10.60947532148572
 20
-6.427538366573361
 30
0.0
 10
10.69101339875243
 20
-6.386209536592994
 30
0.0
  0
SPLINE
  5
B7
330
1F
100
AcDbEntity
  8
0
  6
Continuous
 62
     7
370
    25
100
AcDbSpline
210
0.0
220
0.0
230
1.0
 70
     8
 71
     3
 72
    11
 73
     7
 74
     0
 42
0.000000001
 43
0.00000001
 40
0.0
 40
0.0
 40
0.0
 40
0.0
 40
0.2288373950996504
 40
0.4601531142471239
 40
0.7092547813095557
 40
1.0
 40
1.0
 40
1.0
 40
1.0
 10
10.69101339875243
 20
-6.386209536592994
 30
0.0
 10
10.76607476289808
 20
-6.334301407959445
 30
0.0
 10
10.91701041070255
 20
-6.229922982243371
 30
0.0
 10
11.07454632057185
 20
-5.989769301143088
 30
0.0
 10
11.16443109654762
 20
-5.694664277515117
 30
0.0
 10
11.17400169669528
 20
-5.480550275938616
 30
0.0
 10
11.17915613271476
 20
-5.365234945136573
 30
0.0
  0
LINE
  5
B8
330
1F
100
AcDbEntity
  8
0
  6
Continuous
 62
     7
370
    25
100
AcDbLine
 10
11.1791561327
 20
-5.3652349451
 30
0.0
 11
11.1791561327
 21
6.8520839035
 31
0.0
  0
SPLINE
  5
B9
330
1F
100
AcDbEntity
  8
0
  6
Continuous
 62
     7
370
    25
100
AcDbSpline
210
0.0
220
0.0
230
1.0
 70
     8
 71
     3
 72
    11
 73
     7
 74
     0
 42
0.000000001
 43
0.00000001
 40
0.0
 40
0.0
 40
0.0
 40
0.0
 40
0.2907452186904438
 40
0.5398468857528756
 40
0.7711626049003504
 40
1.0
 40
1.0
 40
1.0
 40
1.0
 10
11.17915613271476
 20
6.852083903469905
 30
0.0
 10
11.17400169669528
 20
6.967399234271947
 30
0.0
 10
11.16443109654761
 20
7.181513235848446
 30
0.0
 10
11.07454632057186
 20
7.476618259476424
 30
0.0
 10
10.91701041070255
 20
7.716771940576704
 30
0.0
 10
10.76607476289808
 20
7.821150366292776
 30
0.0
 10
10.69101339875243
 20
7.873058494926326
 30
0.0
  0
SPLINE
  5
BA
330
1F
100
AcDbEntity
  8
0
  6
Continuous
 62
     7
370
    25
100
AcDbSpline
210
0.0
220
0.0
230
1.0
 70
     8
 71
     3
 72
    11
 73
     7
 74
     0
 42
0.000000001
 43
0.00000001
 40
0.0
 40
0.0
 40
0.0
 40
0.0
 40
0.2253099038952545
 40
0.4660314364604586
 40
0.7246483319961536
 40
1.0
 40
1.0
 40
1.0
 40
1.0
 10
10.69101339875243
 20
7.873058494926326
 30
0.0
 10
10.60960374579112
 20
7.914781523991093
 30
0.0
 10
10.44121586378773
 20
8.001081517166602
 30
0.0
 10
10.15756347447584
 20
8.080124554527789
 30
0.0
 10
9.857583750086496
 20
8.172259102325688
 30
0.0
 10
9.659000597221086
 20
8.258361279939889
 30
0.0
 10
9.556597186023074
 20
8.302761605808659
 30
0.0
  0
LINE
  5
BB
330
1F
100
AcDbEntity
  8
0
  6
Continuous
 62
     7
370
    25
100
AcDbLine
 10
9.556597186
 20
8.3027616058
 30
0.0
 11
9.556597186
 21
8.9868489583
 31
0.0
  0
SPLINE
  5
BC
330
1F
100
AcDbEntity
  8
0
  6
Continuous
 62
     7
370
    25
100
AcDbSpline
210
0.0
220
0.0
230
1.0
 70
     8
 71
     3
 72
    15
 73
    11
 74
     0
 42
0.000000001
 43
0.00000001
 40
0.0
 40
0.0
 40
0.0
 40
0.0
 40
0.0923711690466973
 40
0.1919180559780528
 40
0.3006526349961085
 40
0.418823079220438
 40
0.5473165492714311
 40
0.6866072746187974
 40
0.8371804214685322
 40
0.9999999999999999
 40
0.9999999999999999
 40
0.9999999999999999
 40
0.9999999999999999
 10
19.7079034775073
 20
-5.06272395507541
 30
0.0
 10
19.81180579071405
 20
-4.908172283111663
 30
0.0
 10
20.02768191492096
 20
-4.587062820737695
 30
0.0
 10
20.28043180336207
 20
-4.034659515726324
 30
0.0
 10
20.50060150836488
 20
-3.414846859202825
 30
0.0
 10
20.67596869595147
 20
-2.72022735730991
 30
0.0
 10
20.81656588424677
 20
-1.955564916233139
 30
0.0
 10
20.91382395574369
 20
-1.118428156087746
 30
0.0
 10
20.97169259541048
 20
-0.2084762112893323
 30
0.0
 10
20.97930656201159
 20
0.4224890167610187
 30
0.0
 10
20.98326231060606
 20
0.7502997289407839
 30
0.0
  0
SPLINE
  5
BD
330
1F
100
AcDbEntity
  8
0
  6
Continuous
 62
     7
370
    25
100
AcDbSpline
210
0.0
220
0.0
230
1.0
 70
     8
 71
     3
 72
    23
 73
    19
 74
     0
 42
0.000000001
 43
0.00000001
 40
0.0
 40
0.0
 40
0.0
 40
0.0
 40
0.0901013565282049
 40
0.1751536637335895
 40
0.2560991660726624
 40
0.332618298321179
 40
0.4049125812370166
 40
0.4730833850452736
 40
0.5374349307018741
 40
0.5980955313941676
 40
0.6553326450046776
 40
0.7096698104950118
 40
0.7619052285244311
 40
0.8112880230658566
 40
0.8592221259396355
 40
0.9065942666397008
 40
0.9531670846698771
 40
1.0
 40
1.0
 40
1.0
 40
1.0
 10
20.98326231060606
 20
0.7502997289407839
 30
0.0
 10
20.98173623418089
 20
0.9909813456287441
 30
0.0
 10
20.97876959874604
 20
1.458857397450709
 30
0.0
 10
20.94274567947046
 20
2.142164075606878
 30
0.0
 10
20.88862682918987
 20
2.787724015465065
 30
0.0
 10
20.81489356213097
 20
3.397211212210026
 30
0.0
 10
20.71440842490215
 20
3.968206842196712
 30
0.0
 10
20.5961826539613
 20
4.502623854567044
 30
0.0
 10
20.4513842376685
 20
4.998268840397294
 30
0.0
 10
20.28692838552346
 20
5.456732626883111
 30
0.0
 10
20.10231723018203
 20
5.878629541755158
 30
0.0
 10
19.89163740135743
 20
6.262820488701154
 30
0.0
 10
19.65890515379519
 20
6.608889157535013
 30
0.0
 10
19.40685286054882
 20
6.919756751986744
 30
0.0
 10
19.12896524036134
 20
7.189513206614624
 30
0.0
 10
18.83070554846742
 20
7.424444229166903
 30
0.0
 10
18.50770253939353
 20
7.619387834434572
 30
0.0
 10
18.27905301418344
 20
7.719656041513953
 30
0.0
 10
18.16440990321796
 20
7.769929748314567
 30
0.0
  0
SPLINE
  5
BE
330
1F
100
AcDbEntity
  8
0
  6
Continuous
 62
     7
370
    25
100
AcDbSpline
210
0.0
220
0.0
230
1.0
 70
     8
 71
     3
 72
    15
 73
    11
 74
     0
 42
0.000000001
 43
0.00000001
 40
0.0
 40
0.0
 40
0.0
 40
0.0
 40
0.1587732972993199
 40
0.3114777535322604
 40
0.4601525887782337
 40
0.6062298926136391
 40
0.7383622395962831
 40
0.8487136980556003
 40
0.9351590142971145
 40
1.0
 40
1.0
 40
1.0
 40
1.0
 10
18.16440990321796
 20
7.769929748314567
 30
0.0
 10
18.01509045333708
 20
7.822872195706312
 30
0.0
 10
17.72215903729493
 20
7.926733454876316
 30
0.0
 10
17.27592763749264
 20
8.037119598159816
 30
0.0
 10
16.83395519976982
 20
8.104573889880635
 30
0.0
 10
16.40787375016768
 20
8.120761834651946
 30
0.0
 10
16.02043903996634
 20
8.114417953976355
 30
0.0
 10
15.6923946148336
 20
8.107356843736683
 30
0.0
 10
15.43205870967772
 20
8.08709234120061
 30
0.0
 10
15.28247614329209
 20
8.067211237420288
 30
0.0
 10
15.21836537500868
 20
8.058690238827495
 30
0.0
  0
LINE
  5
BF
330
1F
100
AcDbEntity
  8
0
  6
Continuous
 62
     7
370
    25
100
AcDbLine
 10
15.218365375
 20
8.0586902388
 30
0.0
 11
15.218365375
 21
8.9868489583
 31
0.0
  0
LINE
  5
C0
330
1F
100
AcDbEntity
  8
0
  6
Continuous
 62
     7
370
    25
100
AcDbLine
 10
15.218365375
 20
8.9868489583
 30
0.0
 11
16.3527815877
 21
8.9868489583
 31
0.0
  0
SPLINE
  5
C1
330
1F
100
AcDbEntity
  8
0
  6
Continuous
 62
     7
370
    25
100
AcDbSpline
210
0.0
220
0.0
230
1.0
 70
     8
 71
     3
 72
    15
 73
    11
 74
     0
 42
0.000000001
 43
0.00000001
 40
0.0
 40
0.0
 40
0.0
 40
0.0
 40
0.1400115901945237
 40
0.2730361400627491
 40
0.4005558569924887
 40
0.5238660302513352
 40
0.6438399854557061
 40
0.7619884484257219
 40
0.8799883089775332
 40
1.0
 40
1.0
 40
1.0
 40
1.0
 10
16.35278158773804
 20
8.986848958333331
 30
0.0
 10
16.65453359007457
 20
8.98129998735475
 30
0.0
 10
17.24297917418448
 20
8.97047895735854
 30
0.0
 10
18.09977904746222
 20
8.85569232604177
 30
0.0
 10
18.90872470309201
 20
8.679870699869728
 30
0.0
 10
19.66852469887496
 20
8.42863440144991
 30
0.0
 10
20.37863969277814
 20
8.105052193372474
 30
0.0
 10
21.03458544632327
 20
7.704986310246245
 30
0.0
 10
21.64898005231533
 20
7.241508424229405
 30
0.0
 10
22.00855931445856
 20
6.875211890486174
 30
0.0
 10
22.18986864596365
 20
6.690515533778147
 30
0.0
  0
SPLINE
  5
C2
330
1F
100
AcDbEntity
  8
0
  6
Continuous
 62
     7
370
    25
100
AcDbSpline
210
0.0
220
0.0
230
1.0
 70
     8
 71
     3
 72
    15
 73
    11
 74
     0
 42
0.000000001
 43
0.00000001
 40
0.0
 40
0.0
 40
0.0
 40
0.0
 40
0.1174476781797223
 40
0.2343680559387132
 40
0.3525203624525632
 40
0.4729179790183655
 40
0.5968676067563868
 40
0.7252754158163972
 40
0.8595753688358966
 40
1.0
 40
1.0
 40
1.0
 40
1.0
 10
22.18986864596365
 20
6.690515533778147
 30
0.0
 10
22.35578261081922
 20
6.500289112843206
 30
0.0
 10
22.68686564284633
 20
6.12069032337647
 30
0.0
 10
23.1067736425991
 20
5.488155270881204
 30
0.0
 10
23.46086513411481
 20
4.810860857864207
 30
0.0
 10
23.75636453425444
 20
4.089174839750825
 30
0.0
 10
23.97708461961931
 20
3.318323205282746
 30
0.0
 10
24.13768760227877
 20
2.50308596723308
 30
0.0
 10
24.24097584738825
 20
1.642143252195896
 30
0.0
 10
24.25083945183398
 20
1.051966679471576
 30
0.0
 10
24.2558812030859
 20
0.7502997289407839
 30
0.0
  0
SPLINE
  5
C3
330
1F
100
AcDbEntity
  8
0
  6
Continuous
 62
     7
370
    25
100
AcDbSpline
210
0.0
220
0.0
230
1.0
 70
     8
 71
     3
 72
    15
 73
    11
 74
     0
 42
0.000000001
 43
0.00000001
 40
0.0
 40
0.0
 40
0.0
 40
0.0
 40
0.1406651822924651
 40
0.2752151842993284
 40
0.4038785988376282
 40
0.527570792135053
 40
0.6482117969251052
 40
0.7661187096165801
 40
0.8827962521804031
 40
0.9999999999999999
 40
0.9999999999999999
 40
0.9999999999999999
 40
0.9999999999999999
 10
24.2558812030859
 20
0.7502997289407839
 30
0.0
 10
24.2508491079901
 20
0.4474848227123289
 30
0.0
 10
24.24100367960025
 20
-0.1449806251550234
 30
0.0
 10
24.13755974556997
 20
-1.009302521031456
 30
0.0
 10
23.97770655543101
 20
-1.827046126510402
 30
0.0
 10
23.75554088744327
 20
-2.599705515071799
 30
0.0
 10
23.46176681286183
 20
-3.323232426864251
 30
0.0
 10
23.10666687495639
 20
-4.001263861432616
 30
0.0
 10
22.6868923580112
 20
-4.633851987067883
 30
0.0
 10
22.35579152922106
 20
-5.013443700491544
 30
0.0
 10
22.18986864596365
 20
-5.203666575444815
 30
0.0
  0
SPLINE
  5
C4
330
1F
100
AcDbEntity
  8
0
  6
Continuous
 62
     7
370
    25
100
AcDbSpline
210
0.0
220
0.0
230
1.0
 70
     8
 71
     3
 72
    15
 73
    11
 74
     0
 42
0.000000001
 43
0.00000001
 40
0.0
 40
0.0
 40
0.0
 40
0.0
 40
0.1200116910224669
 40
0.2380115515742782
 40
0.3561600145442939
 40
0.4761339697486649
 40
0.5994441430075115
 40
0.726963859937251
 40
0.8599884098054764
 40
1.0
 40
1.0
 40
1.0
 40
1.0
 10
22.18986864596365
 20
-5.203666575444815
 30
0.0
 10
22.00855931445857
 20
-5.388362932152842
 30
0.0
 10
21.64898005231533
 20
-5.754659465896073
 30
0.0
 10
21.03458544632327
 20
-6.218137351912915
 30
0.0
 10
20.37863969277815
 20
-6.618203235039142
 30
0.0
 10
19.66852469887496
 20
-6.941785443116576
 30
0.0
 10
18.908724703092
 20
-7.193021741536393
 30
0.0
 10
18.09977904746222
 20
-7.368843367708438
 30
0.0
 10
17.24297917418448
 20
-7.48362999902521
 30
0.0
 10
16.65453359007458
 20
-7.494451029021418
 30
0.0
 10
16.35278158773805
 20
-7.500000000000001
 30
0.0
  0
LINE
  5
C5
330
1F
100
AcDbEntity
  8
0
  6
Continuous
 62
     7
370
    25
100
AcDbLine
 10
16.3527815877
 20
-7.5
 30
0.0
 11
15.218365375
 21
-7.5
 31
0.0
  0
LINE
  5
C6
330
1F
100
AcDbEntity
  8
0
  6
Continuous
 62
     7
370
    25
100
AcDbLine
 10
15.218365375
 20
-7.5
 30
0.0
 11
15.218365375
 21
-6.5615284058
 31
0.0
  0
SPLINE
  5
C7
330
1F
100
AcDbEntity
  8
0
  6
Continuous
 62
     7
370
    25
100
AcDbSpline
210
0.0
220
0.0
230
1.0
 70
     8
 71
     3
 72
    19
 73
    15
 74
     0
 42
0.000000001
 43
0.00000001
 40
0.0
 40
0.0
 40
0.0
 40
0.0
 40
0.0506674866551272
 40
0.1101857401303834
 40
0.1765450942349036
 40
0.2518570172219933
 40
0.3327992424029922
 40
0.4182148977520895
 40
0.5071943634059479
 40
0.6022410336568896
 40
0.6995827990572191
 40
0.7973112021174575
 40
0.8965831186598546
 40
1.0
 40
1.0
 40
1.0
 40
1.0
 10
15.21836537500869
 20
-6.561528405832987
 30
0.0
 10
15.30196056585937
 20
-6.570201543775423
 30
0.0
 10
15.48375363639233
 20
-6.58906287253927
 30
0.0
 10
15.77625187291243
 20
-6.604461668586628
 30
0.0
 10
16.10979617916359
 20
-6.614252767278553
 30
0.0
 10
16.47889897912134
 20
-6.619899098231798
 30
0.0
 10
16.88024467478926
 20
-6.604551662997802
 30
0.0
 10
17.29811205568286
 20
-6.530431768259191
 30
0.0
 10
17.73244997282277
 20
-6.424432196507761
 30
0.0
 10
18.17480714859254
 20
-6.272975525705327
 30
0.0
 10
18.6102130379071
 20
-6.065415510990721
 30
0.0
 10
19.02040845333046
 20
-5.797299148550588
 30
0.0
 10
19.38830932554083
 20
-5.457703207711074
 30
0.0
 10
19.59992955629535
 20
-5.196166505391263
 30
0.0
 10
19.7079034775073
 20
-5.06272395507541
 30
0.0
  0
SPLINE
  5
C8
330
1F
100
AcDbEntity
  8
0
  6
Continuous
 62
     7
370
    25
100
AcDbSpline
210
0.0
220
0.0
230
1.0
 70
     8
 71
     3
 72
    11
 73
     7
 74
     0
 42
0.000000001
 43
0.00000001
 40
0.0
 40
0.0
 40
0.0
 40
0.0
 40
0.2475788507837666
 40
0.4906208066778042
 40
0.7372861088213876
 40
1.0
 40
1.0
 40
1.0
 40
1.0
 10
4.345157857242148
 20
-7.290304881889422
 30
0.0
 10
4.27614549253531
 20
-7.216256918637526
 30
0.0
 10
4.139385418175067
 20
-7.06951792478371
 30
0.0
 10
3.999328746464363
 20
-6.800748597203413
 30
0.0
 10
3.90788154284679
 20
-6.505596821464134
 30
0.0
 10
3.899270281603006
 20
-6.297560363394378
 30
0.0
 10
3.894828997037463
 20
-6.190264918030651
 30
0.0
  0
SPLINE
  5
C9
330
1F
100
AcDbEntity
  8
0
  6
Continuous
 62
     7
370
    25
100
AcDbSpline
210
0.0
220
0.0
230
1.0
 70
     8
 71
     3
 72
    15
 73
    11
 74
     0
 42
0.000000001
 43
0.00000001
 40
0.0
 40
0.0
 40
0.0
 40
0.0
 40
0.1351135537013664
 40
0.2616104470067137
 40
0.3825867964317268
 40
0.5008795235083443
 40
0.6166182919152776
 40
0.7383264733027426
 40
0.864444794466661
 40
1.0
 40
1.0
 40
1.0
 40
1.0
 10
3.894828997037463
 20
-6.190264918030651
 30
0.0
 10
3.896449321468816
 20
-6.106269050412346
 30
0.0
 10
3.899586636617222
 20
-5.943634023263924
 30
0.0
 10
3.952912529698607
 20
-5.711499105071748
 30
0.0
 10
4.021001501444688
 20
-5.494366789063257
 30
0.0
 10
4.130009730433214
 20
-5.301560903173084
 30
0.0
 10
4.26702030554498
 20
-5.127300353183297
 30
0.0
 10
4.438035828885467
 20
-4.97942856302044
 30
0.0
 10
4.63128030839465
 20
-4.839123685590933
 30
0.0
 10
4.78021240484354
 20
-4.77355426172973
 30
0.0
 10
4.857363965413888
 20
-4.739587215691897
 30
0.0
  0
SPLINE
  5
CA
330
1F
100
AcDbEntity
  8
0
  6
Continuous
 62
     7
370
    25
100
AcDbSpline
210
0.0
220
0.0
230
1.0
 70
     8
 71
     3
 72
    13
 73
     9
 74
     0
 42
0.000000001
 43
0.00000001
 40
0.0
 40
0.0
 40
0.0
 40
0.0
 40
0.1667709464225895
 40
0.3382096683572204
 40
0.5116437506773504
 40
0.6789498518166027
 40
0.840793549914096
 40
1.0
 40
1.0
 40
1.0
 40
1.0
 10
4.857363965413888
 20
-4.739587215691897
 30
0.0
 10
4.956056149626131
 20
-4.705269258048093
 30
0.0
 10
5.156202827497063
 20
-4.635672812609704
 30
0.0
 10
5.477630252460719
 20
-4.614851494294272
 30
0.0
 10
5.797949879238591
 20
-4.640736539085769
 30
0.0
 10
6.097983303721263
 20
-4.737874070191284
 30
0.0
 10
6.372882774112107
 20
-4.875518513150907
 30
0.0
 10
6.522572235376504
 20
-5.00985697933889
 30
0.0
 10
6.59680215826557
 20
-5.076474454623646
 30
0.0
  0
SPLINE
  5
CB
330
1F
100
AcDbEntity
  8
0
  6
Continuous
 62
     7
370
    25
100
AcDbSpline
210
0.0
220
0.0
230
1.0
 70
     8
 71
     3
 72
    11
 73
     7
 74
     0
 42
0.000000001
 43
0.00000001
 40
0.0
 40
0.0
 40
0.0
 40
0.0
 40
0.2508609051898614
 40
0.4936413085196386
 40
0.7402203321351963
 40
1.0
 40
1.0
 40
1.0
 40
1.0
 10
6.59680215826557
 20
-5.076474454623646
 30
0.0
 10
6.667093255092557
 20
-5.152752791934038
 30
0.0
 10
6.805411296274353
 20
-5.302852458572432
 30
0.0
 10
6.946099101700001
 20
-5.576476361968445
 30
0.0
 10
7.037169582581458
 20
-5.873893789209909
 30
0.0
 10
7.046025334024745
 20
-6.082990839185006
 30
0.0
 10
7.050568643357312
 20
-6.190264918030651
 30
0.0
  0
SPLINE
  5
CC
330
1F
100
AcDbEntity
  8
0
  6
Continuous
 62
     7
370
    25
100
AcDbSpline
210
0.0
220
0.0
230
1.0
 70
     8
 71
     3
 72
    15
 73
    11
 74
     0
 42
0.000000001
 43
0.00000001
 40
0.0
 40
0.0
 40
0.0
 40
0.0
 40
0.136878972490002
 40
0.2646588959786815
 40
0.3843069799746724
 40
0.5016028476419945
 40
0.6188538802942362
 40
0.7395084700188196
 40
0.8651722963266193
 40
1.0
 40
1.0
 40
1.0
 40
1.0
 10
7.050568643357312
 20
-6.190264918030651
 30
0.0
 10
7.048329548289888
 20
-6.27410217924879
 30
0.0
 10
7.044000202315442
 20
-6.436203607921409
 30
0.0
 10
6.999532816748482
 20
-6.668520428841997
 30
0.0
 10
6.92161116415605
 20
-6.878476876862633
 30
0.0
 10
6.818928762194188
 20
-7.070406766747692
 30
0.0
 10
6.682388338400004
 20
-7.241253583853959
 30
0.0
 10
6.51500171513346
 20
-7.388985731687317
 30
0.0
 10
6.320118729784813
 20
-7.519162815890454
 30
0.0
 10
6.173984239998952
 20
-7.583552049345902
 30
0.0
 10
6.098346549642064
 20
-7.616879246159995
 30
0.0
  0
SPLINE
  5
CD
330
1F
100
AcDbEntity
  8
0
  6
Continuous
 62
     7
370
    25
100
AcDbSpline
210
0.0
220
0.0
230
1.0
 70
     8
 71
     3
 72
    13
 73
     9
 74
     0
 42
0.000000001
 43
0.00000001
 40
0.0
 40
0.0
 40
0.0
 40
0.0
 40
0.1656946820014089
 40
0.3383800710655637
 40
0.5092416624832976
 40
0.6766963750116958
 40
0.8396177283998268
 40
1.0
 40
1.0
 40
1.0
 40
1.0
 10
6.098346549642064
 20
-7.616879246159995
 30
0.0
 10
5.999576459726818
 20
-7.649785646254755
 30
0.0
 10
5.797869140934359
 20
-7.716986777082132
 30
0.0
 10
5.476969423303212
 20
-7.737916795360322
 30
0.0
 10
5.156822642167166
 20
-7.713760303505117
 30
0.0
 10
4.852953230689898
 20
-7.627451362896238
 30
0.0
 10
4.576954118368601
 20
-7.486331915144168
 30
0.0
 10
4.422017677158536
 20
-7.35530421536221
 30
0.0
 10
4.345157857242148
 20
-7.290304881889422
 30
0.0
  0
ENDSEC
  0
SECTION
  2
OBJECTS
  0
DICTIONARY
  5
C
330
0
100
AcDbDictionary
281
     1
  3
ACAD_DETAILVIEWSTYLE
350
D5
  3
ACAD_GROUP
350
D
  3
ACAD_LAYOUT
350
1A
  3
ACAD_MATERIAL
350
43
  3
ACAD_MLEADERSTYLE
350
6B
  3
ACAD_MLINESTYLE
350
17
  3
ACAD_PLOTSETTINGS
350
19
  3
ACAD_PLOTSTYLENAME
350
E
  3
ACAD_SCALELIST
350
47
  3
ACAD_SECTIONVIEWSTYLE
350
D6
  3
ACAD_TABLESTYLE
350
69
  3
ACAD_VISUALSTYLE
350
2A
  3
ACDB_RECOMPOSE_DATA
350
D2
  3
AcDbVariableDictionary
350
CE
  0
SUN
  5
6D
330
29
100
AcDbSun
 90
        1
290
     0
 63
     7
421
 16777215
 40
1.0
291
     1
 91
  2455826
 92
 54000000
292
     0
 70
     2
 71
   256
280
     1
  0
DICTIONARY
  5
D5
102
{ACAD_REACTORS
330
C
102
}
330
C
100
AcDbDictionary
281
     1
  0
DICTIONARY
  5
D
102
{ACAD_REACTORS
330
C
102
}
330
C
100
AcDbDictionary
281
     1
  0
DICTIONARY
  5
1A
102
{ACAD_REACTORS
330
C
102
}
330
C
100
AcDbDictionary
281
     1
  3
Layout1
350
1E
  3
Layout2
350
26
  3
Model
350
22
  0
DICTIONARY
  5
43
102
{ACAD_REACTORS
330
C
102
}
330
C
100
AcDbDictionary
281
     1
  3
ByBlock
350
45
  3
ByLayer
350
44
  3
Global
350
46
  0
DICTIONARY
  5
6B
102
{ACAD_REACTORS
330
C
102
}
330
C
100
AcDbDictionary
281
     1
  3
Standard
350
6C
  0
DICTIONARY
  5
17
102
{ACAD_REACTORS
330
C
102
}
330
C
100
AcDbDictionary
281
     1
  3
Standard
350
18
  0
DICTIONARY
  5
19
102
{ACAD_REACTORS
330
C
102
}
330
C
100
AcDbDictionary
281
     1
  0
ACDBDICTIONARYWDFLT
  5
E
102
{ACAD_REACTORS
330
C
102
}
330
C
100
AcDbDictionary
281
     1
  3
Normal
350
F
100
AcDbDictionaryWithDefault
340
F
  0
DICTIONARY
  5
47
102
{ACAD_REACTORS
330
C
102
}
330
C
100
AcDbDictionary
281
     1
  3
A0
350
48
  3
A1
350
49
  3
A2
350
4A
  3
A3
350
4B
  3
A4
350
4C
  3
A5
350
4D
  3
A6
350
4E
  3
A7
350
4F
  3
A8
350
50
  3
A9
350
51
  3
B0
350
52
  3
B1
350
53
  3
B2
350
54
  3
B3
350
55
  3
B4
350
56
  3
B5
350
57
  3
B6
350
58
  3
B7
350
59
  3
B8
350
5A
  3
B9
350
5B
  3
C0
350
5C
  3
C1
350
5D
  3
C2
350
5E
  3
C3
350
5F
  3
C4
350
60
  3
C5
350
61
  3
C6
350
62
  3
C7
350
63
  3
C8
350
64
  3
C9
350
65
  3
D0
350
66
  3
D1
350
67
  3
D2
350
68
  0
DICTIONARY
  5
D6
102
{ACAD_REACTORS
330
C
102
}
330
C
100
AcDbDictionary
281
     1
  0
DICTIONARY
  5
69
102
{ACAD_REACTORS
330
C
102
}
330
C
100
AcDbDictionary
281
     1
  3
Standard
350
6A
  0
DICTIONARY
  5
2A
102
{ACAD_REACTORS
330
C
102
}
330
C
100
AcDbDictionary
281
     1
  3
2dWireframe
350
2F
  3
Basic
350
32
  3
Brighten
350
36
  3
ColorChange
350
3A
  3
Conceptual
350
34
  3
Dim
350
35
  3
EdgeColorOff
350
3D
  3
Facepattern
350
39
  3
Flat
350
2B
  3
FlatWithEdges
350
2C
  3
Gouraud
350
2D
  3
GouraudWithEdges
350
2E
  3
Hidden
350
31
  3
JitterOff
350
3B
  3
Linepattern
350
38
  3
OverhangOff
350
3C
  3
Realistic
350
33
  3
Shaded
350
42
  3
Shaded with edges
350
41
  3
Shades of Gray
350
3E
  3
Sketchy
350
3F
  3
Thicken
350
37
  3
Wireframe
350
30
  3
X-Ray
350
40
  0
XRECORD
  5
D2
102
{ACAD_REACTORS
330
C
102
}
330
C
100
AcDbXrecord
280
     1
 90
        1
330
6A
  0
DICTIONARY
  5
CE
102
{ACAD_REACTORS
330
C
102
}
330
C
100
AcDbDictionary
281
     1
  3
CANNOSCALE
350
CF
  3
CENTEREXE
350
D7
  3
CENTERLTYPEFILE
350
D8
  3
CMLEADERSTYLE
350
D4
  3
CTABLESTYLE
350
D3
  0
LAYOUT
  5
1E
102
{ACAD_REACTORS
330
1A
102
}
330
1A
100
AcDbPlotSettings
  1

  2
none_device
  4

  6

 40
0.0
 41
0.0
 42
0.0
 43
0.0
 44
0.0
 45
0.0
 46
0.0
 47
0.0
 48
0.0
 49
0.0
140
0.0
141
0.0
142
1.0
143
1.0
 70
   688
 72
     1
 73
     0
 74
     5
  7

 75
    16
 76
     0
 77
     2
 78
   300
147
1.0
148
0.0
149
0.0
100
AcDbLayout
  1
Layout1
 70
     1
 71
     1
 10
0.0
 20
0.0
 11
420.0
 21
297.0
 12
0.0
 22
0.0
 32
0.0
 14
1.0000000000E+20
 24
1.0000000000E+20
 34
1.0000000000E+20
 15
-1.0000000000E+20
 25
-1.0000000000E+20
 35
-1.0000000000E+20
146
0.0
 13
0.0
 23
0.0
 33
0.0
 16
1.0
 26
0.0
 36
0.0
 17
0.0
 27
1.0
 37
0.0
 76
     0
330
1B
  0
LAYOUT
  5
26
102
{ACAD_REACTORS
330
1A
102
}
330
1A
100
AcDbPlotSettings
  1

  2
none_device
  4

  6

 40
0.0
 41
0.0
 42
0.0
 43
0.0
 44
0.0
 45
0.0
 46
0.0
 47
0.0
 48
0.0
 49
0.0
140
0.0
141
0.0
142
1.0
143
1.0
 70
   688
 72
     1
 73
     0
 74
     5
  7

 75
    16
 76
     0
 77
     2
 78
   300
147
1.0
148
0.0
149
0.0
100
AcDbLayout
  1
Layout2
 70
     1
 71
     2
 10
0.0
 20
0.0
 11
0.0
 21
0.0
 12
0.0
 22
0.0
 32
0.0
 14
0.0
 24
0.0
 34
0.0
 15
0.0
 25
0.0
 35
0.0
146
0.0
 13
0.0
 23
0.0
 33
0.0
 16
1.0
 26
0.0
 36
0.0
 17
0.0
 27
1.0
 37
0.0
 76
     0
330
23
  0
LAYOUT
  5
22
102
{ACAD_REACTORS
330
1A
102
}
330
1A
100
AcDbPlotSettings
  1

  2
none_device
  4
ANSI_A_(11.00_x_8.50_Inches)
  6

 40
6.35
 41
19.05
 42
6.35000508
 43
19.05000254
 44
279.4
 45
215.9
 46
133.34999746
 47
88.89999873
 48
0.0
 49
0.0
140
0.0
141
0.0
142
0.0726
143
1.0
 70
  1696
 72
     0
 73
     0
 74
     0
  7

 75
     0
 76
     0
 77
     2
 78
   300
147
0.0179189148
148
-1300.4909072572
149
0.0
100
AcDbLayout
  1
Model
 70
     1
 71
     0
 10
0.0
 20
0.0
 11
420.0
 21
297.0
 12
0.0
 22
0.0
 32
0.0
 14
-75.0
 24
-15.0
 34
0.0
 15
75.0
 25
15.0
 35
0.0
146
0.0
 13
0.0
 23
0.0
 33
0.0
 16
1.0
 26
0.0
 36
0.0
 17
0.0
 27
1.0
 37
0.0
 76
     0
330
1F
331
29
  0
MATERIAL
  5
45
102
{ACAD_REACTORS
330
43
102
}
330
43
100
AcDbMaterial
  1
ByBlock
 72
     1
 94
      127
  0
MATERIAL
  5
44
102
{ACAD_REACTORS
330
43
102
}
330
43
100
AcDbMaterial
  1
ByLayer
 72
     1
 94
      127
  0
MATERIAL
  5
46
102
{ACAD_REACTORS
330
43
102
}
330
43
100
AcDbMaterial
  1
Global
 72
     1
 94
      127
  0
MLEADERSTYLE
  5
6C
102
{ACAD_REACTORS
330
6B
102
}
330
6B
100
AcDbMLeaderStyle
179
     2
170
     2
171
     1
172
     0
 90
        2
 40
0.0
 41
0.0
173
     1
 91
-1056964608
340
14
 92
       -2
290
     1
 42
2.0
291
     1
 43
8.0
  3
Standard
341
0
 44
4.0
300

342
11
174
     1
178
     6
175
     1
176
     0
 93
-1056964608
 45
4.0
292
     0
297
     0
 46
4.0
343
0
 94
-1056964608
 47
1.0
 49
1.0
140
1.0
293
     1
141
0.0
294
     1
177
     0
142
1.0
295
     0
296
     0
143
3.75
271
     0
272
     9
273
     9
298
     0
  0
MLINESTYLE
  5
18
102
{ACAD_REACTORS
330
17
102
}
330
17
100
AcDbMlineStyle
  2
Standard
 70
     0
  3

 62
   256
 51
90.0
 52
90.0
 71
     2
 49
0.5
 62
   256
  6
BYLAYER
 49
-0.5
 62
   256
  6
BYLAYER
  0
ACDBPLACEHOLDER
  5
F
102
{ACAD_REACTORS
330
E
102
}
330
E
  0
SCALE
  5
48
102
{ACAD_REACTORS
330
47
102
}
330
47
100
AcDbScale
 70
     0
300
1:1
140
1.0
141
1.0
290
     1
  0
SCALE
  5
49
102
{ACAD_REACTORS
330
47
102
}
330
47
100
AcDbScale
 70
     0
300
1:2
140
1.0
141
2.0
290
     0
  0
SCALE
  5
4A
102
{ACAD_REACTORS
330
47
102
}
330
47
100
AcDbScale
 70
     0
300
1:4
140
1.0
141
4.0
290
     0
  0
SCALE
  5
4B
102
{ACAD_REACTORS
330
47
102
}
330
47
100
AcDbScale
 70
     0
300
1:5
140
1.0
141
5.0
290
     0
  0
SCALE
  5
4C
102
{ACAD_REACTORS
330
47
102
}
330
47
100
AcDbScale
 70
     0
300
1:8
140
1.0
141
8.0
290
     0
  0
SCALE
  5
4D
102
{ACAD_REACTORS
330
47
102
}
330
47
100
AcDbScale
 70
     0
300
1:10
140
1.0
141
10.0
290
     0
  0
SCALE
  5
4E
102
{ACAD_REACTORS
330
47
102
}
330
47
100
AcDbScale
 70
     0
300
1:16
140
1.0
141
16.0
290
     0
  0
SCALE
  5
4F
102
{ACAD_REACTORS
330
47
102
}
330
47
100
AcDbScale
 70
     0
300
1:20
140
1.0
141
20.0
290
     0
  0
SCALE
  5
50
102
{ACAD_REACTORS
330
47
102
}
330
47
100
AcDbScale
 70
     0
300
1:30
140
1.0
141
30.0
290
     0
  0
SCALE
  5
51
102
{ACAD_REACTORS
330
47
102
}
330
47
100
AcDbScale
 70
     0
300
1:40
140
1.0
141
40.0
290
     0
  0
SCALE
  5
52
102
{ACAD_REACTORS
330
47
102
}
330
47
100
AcDbScale
 70
     0
300
1:50
140
1.0
141
50.0
290
     0
  0
SCALE
  5
53
102
{ACAD_REACTORS
330
47
102
}
330
47
100
AcDbScale
 70
     0
300
1:100
140
1.0
141
100.0
290
     0
  0
SCALE
  5
54
102
{ACAD_REACTORS
330
47
102
}
330
47
100
AcDbScale
 70
     0
300
2:1
140
2.0
141
1.0
290
     0
  0
SCALE
  5
55
102
{ACAD_REACTORS
330
47
102
}
330
47
100
AcDbScale
 70
     0
300
4:1
140
4.0
141
1.0
290
     0
  0
SCALE
  5
56
102
{ACAD_REACTORS
330
47
102
}
330
47
100
AcDbScale
 70
     0
300
8:1
140
8.0
141
1.0
290
     0
  0
SCALE
  5
57
102
{ACAD_REACTORS
330
47
102
}
330
47
100
AcDbScale
 70
     0
300
10:1
140
10.0
141
1.0
290
     0
  0
SCALE
  5
58
102
{ACAD_REACTORS
330
47
102
}
330
47
100
AcDbScale
 70
     0
300
100:1
140
100.0
141
1.0
290
     0
  0
SCALE
  5
59
102
{ACAD_REACTORS
330
47
102
}
330
47
100
AcDbScale
 70
     0
300
1/128" = 1'-0"
140
0.0078125
141
12.0
290
     0
  0
SCALE
  5
5A
102
{ACAD_REACTORS
330
47
102
}
330
47
100
AcDbScale
 70
     0
300
1/64" = 1'-0"
140
0.015625
141
12.0
290
     0
  0
SCALE
  5
5B
102
{ACAD_REACTORS
330
47
102
}
330
47
100
AcDbScale
 70
     0
300
1/32" = 1'-0"
140
0.03125
141
12.0
290
     0
  0
SCALE
  5
5C
102
{ACAD_REACTORS
330
47
102
}
330
47
100
AcDbScale
 70
     0
300
1/16" = 1'-0"
140
0.0625
141
12.0
290
     0
  0
SCALE
  5
5D
102
{ACAD_REACTORS
330
47
102
}
330
47
100
AcDbScale
 70
     0
300
3/32" = 1'-0"
140
0.09375
141
12.0
290
     0
  0
SCALE
  5
5E
102
{ACAD_REACTORS
330
47
102
}
330
47
100
AcDbScale
 70
     0
300
1/8" = 1'-0"
140
0.125
141
12.0
290
     0
  0
SCALE
  5
5F
102
{ACAD_REACTORS
330
47
102
}
330
47
100
AcDbScale
 70
     0
300
3/16" = 1'-0"
140
0.1875
141
12.0
290
     0
  0
SCALE
  5
60
102
{ACAD_REACTORS
330
47
102
}
330
47
100
AcDbScale
 70
     0
300
1/4" = 1'-0"
140
0.25
141
12.0
290
     0
  0
SCALE
  5
61
102
{ACAD_REACTORS
330
47
102
}
330
47
100
AcDbScale
 70
     0
300
3/8" = 1'-0"
140
0.375
141
12.0
290
     0
  0
SCALE
  5
62
102
{ACAD_REACTORS
330
47
102
}
330
47
100
AcDbScale
 70
     0
300
1/2" = 1'-0"
140
0.5
141
12.0
290
     0
  0
SCALE
  5
63
102
{ACAD_REACTORS
330
47
102
}
330
47
100
AcDbScale
 70
     0
300
3/4" = 1'-0"
140
0.75
141
12.0
290
     0
  0
SCALE
  5
64
102
{ACAD_REACTORS
330
47
102
}
330
47
100
AcDbScale
 70
     0
300
1" = 1'-0"
140
1.0
141
12.0
290
     0
  0
SCALE
  5
65
102
{ACAD_REACTORS
330
47
102
}
330
47
100
AcDbScale
 70
     0
300
1-1/2" = 1'-0"
140
1.5
141
12.0
290
     0
  0
SCALE
  5
66
102
{ACAD_REACTORS
330
47
102
}
330
47
100
AcDbScale
 70
     0
300
3" = 1'-0"
140
3.0
141
12.0
290
     0
  0
SCALE
  5
67
102
{ACAD_REACTORS
330
47
102
}
330
47
100
AcDbScale
 70
     0
300
6" = 1'-0"
140
6.0
141
12.0
290
     0
  0
SCALE
  5
68
102
{ACAD_REACTORS
330
47
102
}
330
47
100
AcDbScale
 70
     0
300
1'-0" = 1'-0"
140
12.0
141
12.0
290
     0
  0
TABLESTYLE
  5
6A
102
{ACAD_REACTORS
330
69
102
}
102
{ACAD_XDICTIONARY
360
D0
102
}
330
69
100
AcDbTableStyle
  3
Standard
 70
     0
 71
     0
 40
0.06
 41
0.06
280
     0
281
     0
  7
Standard
140
4.5
170
     2
 62
     0
 63
   257
283
     0
 90
        4
 91
        0
  1

274
    -2
284
     1
 64
     0
275
    -2
285
     1
 65
     0
276
    -2
286
     1
 66
     0
277
    -2
287
     1
 67
     0
278
    -2
288
     1
 68
     0
279
    -2
289
     1
 69
     0
  7
Standard
140
6.0
170
     5
 62
     0
 63
   257
283
     0
 90
        4
 91
        0
  1

274
    -2
284
     1
 64
     0
275
    -2
285
     1
 65
     0
276
    -2
286
     1
 66
     0
277
    -2
287
     1
 67
     0
278
    -2
288
     1
 68
     0
279
    -2
289
     1
 69
     0
  7
Standard
140
4.5
170
     5
 62
     0
 63
   257
283
     0
 90
        4
 91
        0
  1

274
    -2
284
     1
 64
     0
275
    -2
285
     1
 65
     0
276
    -2
286
     1
 66
     0
277
    -2
287
     1
 67
     0
278
    -2
288
     1
 68
     0
279
    -2
289
     1
 69
     0
  0
VISUALSTYLE
  5
2F
102
{ACAD_REACTORS
330
2A
102
}
330
2A
100
AcDbVisualStyle
  2
2dWireframe
 70
     4
177
     3
291
     0
 70
    58
 90
        0
176
     1
 90
        2
176
     1
 90
        0
176
     1
 90
        0
176
     1
 40
0.6
176
     1
 40
30.0
176
     1
 62
     7
420
 16777215
176
     1
 90
        1
176
     1
 90
        4
176
     1
 62
     7
176
     1
 62
   257
176
     1
 90
        1
176
     1
 90
        1
176
     1
 40
1.0
176
     1
 90
        0
176
     1
 62
   257
176
     1
 40
1.0
176
     1
 90
        1
176
     1
 90
        6
176
     1
 90
        2
176
     1
 62
     7
176
     1
 90
        5
176
     1
 90
        0
176
     1
 90
        0
176
     1
290
     0
176
     1
 90
        1
176
     1
 40
0.0
176
     1
 90
        0
176
     1
290
     1
176
     1
290
     1
176
     1
290
     0
176
     1
290
     0
176
     1
290
     0
176
     1
290
     0
176
     1
290
     0
176
     1
290
     0
176
     1
290
     0
176
     1
 90
       50
176
     1
 40
0.0
176
     1
 40
1.0
176
     1
 90
        0
176
     1
 62
    18
420
        0
176
     1
 90
       50
176
     1
 90
        3
176
     1
 62
     5
420
      255
176
     1
290
     0
176
     1
 90
       50
176
     1
 90
       50
176
     1
 90
       50
176
     1
290
     0
176
     1
 90
       50
176
     1
 62
   256
176
     0
 40
1.0
176
     0
 90
        2
176
     1
  1
strokes_ogs.tif
176
     1
290
     0
176
     1
 40
1.0
176
     1
 40
1.0
176
     1
  0
VISUALSTYLE
  5
32
102
{ACAD_REACTORS
330
2A
102
}
330
2A
100
AcDbVisualStyle
  2
Basic
 70
     7
177
     3
291
     1
 70
    58
 90
        1
176
     1
 90
        0
176
     1
 90
        1
176
     1
 90
        0
176
     1
 40
0.6
176
     1
 40
30.0
176
     1
 62
     7
420
 16777215
176
     1
 90
        0
176
     1
 90
        4
176
     1
 62
     7
176
     1
 62
   257
176
     1
 90
        1
176
     1
 90
        1
176
     1
 40
1.0
176
     1
 90
        8
176
     1
 62
     7
176
     1
 40
1.0
176
     1
 90
        1
176
     1
 90
        6
176
     1
 90
        2
176
     1
 62
     7
176
     1
 90
        5
176
     1
 90
        0
176
     1
 90
        0
176
     1
290
     0
176
     1
 90
        1
176
     1
 40
0.0
176
     1
 90
        0
176
     1
290
     0
176
     1
290
     1
176
     1
290
     1
176
     1
290
     0
176
     1
290
     0
176
     1
290
     0
176
     1
290
     0
176
     1
290
     0
176
     1
290
     0
176
     1
 90
       50
176
     1
 40
0.0
176
     1
 40
1.0
176
     1
 90
        0
176
     1
 62
    18
420
        0
176
     1
 90
       50
176
     1
 90
        3
176
     1
 62
     5
420
      255
176
     1
290
     0
176
     1
 90
       50
176
     1
 90
       50
176
     1
 90
       50
176
     1
290
     0
176
     1
 90
       50
176
     1
 62
   256
176
     0
 40
1.0
176
     0
 90
        2
176
     1
  1
strokes_ogs.tif
176
     1
290
     0
176
     1
 40
1.0
176
     1
 40
1.0
176
     1
  0
VISUALSTYLE
  5
36
102
{ACAD_REACTORS
330
2A
102
}
330
2A
100
AcDbVisualStyle
  2
Brighten
 70
    12
177
     3
291
     1
 70
    58
 90
        2
176
     1
 90
        2
176
     1
 90
        0
176
     1
 90
        0
176
     1
 40
0.6
176
     1
 40
30.0
176
     1
 62
     7
420
 16777215
176
     1
 90
        1
176
     1
 90
        4
176
     1
 62
     7
176
     1
 62
   257
176
     1
 90
        1
176
     1
 90
        1
176
     1
 40
1.0
176
     1
 90
        8
176
     1
 62
     7
176
     1
 40
1.0
176
     1
 90
        1
176
     1
 90
        6
176
     1
 90
        2
176
     1
 62
     7
176
     1
 90
        5
176
     1
 90
        0
176
     1
 90
        0
176
     1
290
     0
176
     1
 90
        1
176
     1
 40
50.0
176
     1
 90
        0
176
     1
290
     0
176
     1
290
     1
176
     1
290
     1
176
     1
290
     0
176
     1
290
     0
176
     1
290
     0
176
     1
290
     0
176
     1
290
     0
176
     1
290
     0
176
     1
 90
       50
176
     1
 40
0.0
176
     1
 40
1.0
176
     1
 90
        0
176
     1
 62
    18
420
        0
176
     1
 90
       50
176
     1
 90
        3
176
     1
 62
     5
420
      255
176
     1
290
     0
176
     1
 90
       50
176
     1
 90
       50
176
     1
 90
       50
176
     1
290
     0
176
     1
 90
       50
176
     1
 62
   256
176
     0
 40
1.0
176
     0
 90
        2
176
     1
  1
strokes_ogs.tif
176
     1
290
     0
176
     1
 40
1.0
176
     1
 40
1.0
176
     1
  0
VISUALSTYLE
  5
3A
102
{ACAD_REACTORS
330
2A
102
}
330
2A
100
AcDbVisualStyle
  2
ColorChange
 70
    16
177
     3
291
     1
 70
    58
 90
        2
176
     1
 90
        2
176
     1
 90
        3
176
     1
 90
        0
176
     1
 40
0.6
176
     1
 40
30.0
176
     1
 62
     8
420
  8421504
176
     1
 90
        1
176
     1
 90
        4
176
     1
 62
     7
176
     1
 62
   257
176
     1
 90
        1
176
     1
 90
        1
176
     1
 40
1.0
176
     1
 90
        8
176
     1
 62
     8
420
  8421504
176
     1
 40
1.0
176
     1
 90
        1
176
     1
 90
        6
176
     1
 90
        2
176
     1
 62
     7
176
     1
 90
        5
176
     1
 90
        0
176
     1
 90
        0
176
     1
290
     0
176
     1
 90
        1
176
     1
 40
0.0
176
     1
 90
        0
176
     1
290
     0
176
     1
290
     1
176
     1
290
     1
176
     1
290
     0
176
     1
290
     0
176
     1
290
     0
176
     1
290
     0
176
     1
290
     0
176
     1
290
     0
176
     1
 90
       50
176
     1
 40
0.0
176
     1
 40
1.0
176
     1
 90
        0
176
     1
 62
    18
420
        0
176
     1
 90
       50
176
     1
 90
        3
176
     1
 62
     5
420
      255
176
     1
290
     0
176
     1
 90
       50
176
     1
 90
       50
176
     1
 90
       50
176
     1
290
     0
176
     1
 90
       50
176
     1
 62
   256
176
     0
 40
1.0
176
     0
 90
        2
176
     1
  1
strokes_ogs.tif
176
     1
290
     0
176
     1
 40
1.0
176
     1
 40
1.0
176
     1
  0
VISUALSTYLE
  5
34
102
{ACAD_REACTORS
330
2A
102
}
330
2A
100
AcDbVisualStyle
  2
Conceptual
 70
     9
177
     3
291
     0
 70
    58
 90
        3
176
     1
 90
        2
176
     1
 90
        0
176
     1
 90
        0
176
     1
 40
0.6
176
     1
 40
30.0
176
     1
 62
     7
420
 16777215
176
     1
 90
        2
176
     1
 90
        2
176
     1
 62
     7
176
     1
 62
   257
176
     1
 90
        1
176
     1
 90
        1
176
     1
 40
179.0
176
     1
 90
        8
176
     1
 62
     7
176
     1
 40
1.0
176
     1
 90
        1
176
     1
 90
        6
176
     1
 90
        2
176
     1
 62
     7
176
     1
 90
        3
176
     1
 90
        0
176
     1
 90
        0
176
     1
290
     0
176
     1
 90
        1
176
     1
 40
0.0
176
     1
 90
        0
176
     1
290
     0
176
     1
290
     1
176
     1
290
     1
176
     1
290
     0
176
     1
290
     0
176
     1
290
     0
176
     1
290
     0
176
     1
290
     0
176
     1
290
     0
176
     1
 90
       50
176
     1
 40
0.0
176
     1
 40
1.0
176
     1
 90
        0
176
     1
 62
    18
420
        0
176
     1
 90
       50
176
     1
 90
        3
176
     1
 62
     5
420
      255
176
     1
290
     0
176
     1
 90
       50
176
     1
 90
       50
176
     1
 90
       50
176
     1
290
     0
176
     1
 90
       50
176
     1
 62
   256
176
     0
 40
1.0
176
     0
 90
        2
176
     1
  1
strokes_ogs.tif
176
     1
290
     0
176
     1
 40
1.0
176
     1
 40
1.0
176
     1
  0
VISUALSTYLE
  5
35
102
{ACAD_REACTORS
330
2A
102
}
330
2A
100
AcDbVisualStyle
  2
Dim
 70
    11
177
     3
291
     1
 70
    58
 90
        2
176
     1
 90
        2
176
     1
 90
        0
176
     1
 90
        0
176
     1
 40
0.6
176
     1
 40
30.0
176
     1
 62
     7
420
 16777215
176
     1
 90
        1
176
     1
 90
        4
176
     1
 62
     7
176
     1
 62
   257
176
     1
 90
        1
176
     1
 90
        1
176
     1
 40
1.0
176
     1
 90
        8
176
     1
 62
     7
176
     1
 40
1.0
176
     1
 90
        1
176
     1
 90
        6
176
     1
 90
        2
176
     1
 62
     7
176
     1
 90
        5
176
     1
 90
        0
176
     1
 90
        0
176
     1
290
     0
176
     1
 90
        1
176
     1
 40
-50.0
176
     1
 90
        0
176
     1
290
     0
176
     1
290
     1
176
     1
290
     1
176
     1
290
     0
176
     1
290
     0
176
     1
290
     0
176
     1
290
     0
176
     1
290
     0
176
     1
290
     0
176
     1
 90
       50
176
     1
 40
0.0
176
     1
 40
1.0
176
     1
 90
        0
176
     1
 62
    18
420
        0
176
     1
 90
       50
176
     1
 90
        3
176
     1
 62
     5
420
      255
176
     1
290
     0
176
     1
 90
       50
176
     1
 90
       50
176
     1
 90
       50
176
     1
290
     0
176
     1
 90
       50
176
     1
 62
   256
176
     0
 40
1.0
176
     0
 90
        2
176
     1
  1
strokes_ogs.tif
176
     1
290
     0
176
     1
 40
1.0
176
     1
 40
1.0
176
     1
  0
VISUALSTYLE
  5
3D
102
{ACAD_REACTORS
330
2A
102
}
330
2A
100
AcDbVisualStyle
  2
EdgeColorOff
 70
    22
177
     3
291
     1
 70
    58
 90
        2
176
     0
 90
        2
176
     0
 90
        0
176
     0
 90
        0
176
     0
 40
0.6
176
     0
 40
30.0
176
     0
 62
     7
420
 16777215
176
     0
 90
        1
176
     0
 90
        4
176
     0
 62
     7
176
     0
 62
   257
176
     0
 90
        1
176
     0
 90
        1
176
     0
 40
1.0
176
     0
 90
        8
176
     2
 62
     7
176
     0
 40
1.0
176
     0
 90
        1
176
     0
 90
        6
176
     0
 90
        2
176
     0
 62
     7
176
     0
 90
        5
176
     0
 90
        0
176
     0
 90
        0
176
     0
290
     0
176
     0
 90
        1
176
     0
 40
0.0
176
     0
 90
        0
176
     0
290
     0
176
     0
290
     1
176
     0
290
     1
176
     0
290
     0
176
     0
290
     0
176
     0
290
     0
176
     0
290
     0
176
     0
290
     0
176
     0
290
     0
176
     0
 90
       50
176
     0
 40
0.0
176
     0
 40
1.0
176
     0
 90
        0
176
     0
 62
    18
420
        0
176
     0
 90
       50
176
     0
 90
        3
176
     0
 62
     5
420
      255
176
     0
290
     0
176
     0
 90
       50
176
     0
 90
       50
176
     0
 90
       50
176
     0
290
     0
176
     0
 90
       50
176
     0
 62
   256
176
     0
 40
1.0
176
     0
 90
        2
176
     0
  1
strokes_ogs.tif
176
     0
290
     0
176
     0
 40
1.0
176
     0
 40
1.0
176
     0
  0
VISUALSTYLE
  5
39
102
{ACAD_REACTORS
330
2A
102
}
330
2A
100
AcDbVisualStyle
  2
Facepattern
 70
    15
177
     3
291
     1
 70
    58
 90
        2
176
     1
 90
        2
176
     1
 90
        0
176
     1
 90
        0
176
     1
 40
0.6
176
     1
 40
30.0
176
     1
 62
     7
420
 16777215
176
     1
 90
        1
176
     1
 90
        4
176
     1
 62
     7
176
     1
 62
   257
176
     1
 90
        1
176
     1
 90
        1
176
     1
 40
1.0
176
     1
 90
        8
176
     1
 62
     7
176
     1
 40
1.0
176
     1
 90
        1
176
     1
 90
        6
176
     1
 90
        2
176
     1
 62
     7
176
     1
 90
        5
176
     1
 90
        0
176
     1
 90
        0
176
     1
290
     0
176
     1
 90
        1
176
     1
 40
0.0
176
     1
 90
        0
176
     1
290
     0
176
     1
290
     1
176
     1
290
     1
176
     1
290
     0
176
     1
290
     0
176
     1
290
     0
176
     1
290
     0
176
     1
290
     0
176
     1
290
     0
176
     1
 90
       50
176
     1
 40
0.0
176
     1
 40
1.0
176
     1
 90
        0
176
     1
 62
    18
420
        0
176
     1
 90
       50
176
     1
 90
        3
176
     1
 62
     5
420
      255
176
     1
290
     0
176
     1
 90
       50
176
     1
 90
       50
176
     1
 90
       50
176
     1
290
     0
176
     1
 90
       50
176
     1
 62
   256
176
     0
 40
1.0
176
     0
 90
        2
176
     1
  1
strokes_ogs.tif
176
     1
290
     0
176
     1
 40
1.0
176
     1
 40
1.0
176
     1
  0
VISUALSTYLE
  5
2B
102
{ACAD_REACTORS
330
2A
102
}
330
2A
100
AcDbVisualStyle
  2
Flat
 70
     0
177
     3
291
     1
 70
    58
 90
        2
176
     1
 90
        1
176
     1
 90
        1
176
     1
 90
        2
176
     1
 40
0.6
176
     1
 40
30.0
176
     1
 62
     7
420
 16777215
176
     1
 90
        0
176
     1
 90
        0
176
     1
 62
     7
176
     1
 62
   257
176
     1
 90
        1
176
     1
 90
        1
176
     1
 40
1.0
176
     1
 90
        8
176
     1
 62
     7
176
     1
 40
1.0
176
     1
 90
        1
176
     1
 90
        6
176
     1
 90
        2
176
     1
 62
     7
176
     1
 90
        5
176
     1
 90
        0
176
     1
 90
        0
176
     1
290
     0
176
     1
 90
       13
176
     1
 40
0.0
176
     1
 90
        0
176
     1
290
     0
176
     1
290
     1
176
     1
290
     1
176
     1
290
     0
176
     1
290
     0
176
     1
290
     0
176
     1
290
     0
176
     1
290
     0
176
     1
290
     0
176
     1
 90
       50
176
     1
 40
0.0
176
     1
 40
1.0
176
     1
 90
        0
176
     1
 62
    18
420
        0
176
     1
 90
       50
176
     1
 90
        3
176
     1
 62
     5
420
      255
176
     1
290
     0
176
     1
 90
       50
176
     1
 90
       50
176
     1
 90
       50
176
     1
290
     0
176
     1
 90
       50
176
     1
 62
   256
176
     0
 40
1.0
176
     0
 90
        2
176
     1
  1
strokes_ogs.tif
176
     1
290
     0
176
     1
 40
1.0
176
     1
 40
1.0
176
     1
  0
VISUALSTYLE
  5
2C
102
{ACAD_REACTORS
330
2A
102
}
330
2A
100
AcDbVisualStyle
  2
FlatWithEdges
 70
     1
177
     3
291
     1
 70
    58
 90
        2
176
     1
 90
        1
176
     1
 90
        1
176
     1
 90
        2
176
     1
 40
0.6
176
     1
 40
30.0
176
     1
 62
     7
420
 16777215
176
     1
 90
        1
176
     1
 90
        0
176
     1
 62
     7
176
     1
 62
   257
176
     1
 90
        1
176
     1
 90
        1
176
     1
 40
1.0
176
     1
 90
        0
176
     1
 62
   257
176
     1
 40
1.0
176
     1
 90
        1
176
     1
 90
        6
176
     1
 90
        2
176
     1
 62
     7
176
     1
 90
        5
176
     1
 90
        0
176
     1
 90
        0
176
     1
290
     0
176
     1
 90
       13
176
     1
 40
0.0
176
     1
 90
        0
176
     1
290
     0
176
     1
290
     1
176
     1
290
     1
176
     1
290
     0
176
     1
290
     0
176
     1
290
     0
176
     1
290
     0
176
     1
290
     0
176
     1
290
     0
176
     1
 90
       50
176
     1
 40
0.0
176
     1
 40
1.0
176
     1
 90
        0
176
     1
 62
    18
420
        0
176
     1
 90
       50
176
     1
 90
        3
176
     1
 62
     5
420
      255
176
     1
290
     0
176
     1
 90
       50
176
     1
 90
       50
176
     1
 90
       50
176
     1
290
     0
176
     1
 90
       50
176
     1
 62
   256
176
     0
 40
1.0
176
     0
 90
        2
176
     1
  1
strokes_ogs.tif
176
     1
290
     0
176
     1
 40
1.0
176
     1
 40
1.0
176
     1
  0
VISUALSTYLE
  5
2D
102
{ACAD_REACTORS
330
2A
102
}
330
2A
100
AcDbVisualStyle
  2
Gouraud
 70
     2
177
     3
291
     1
 70
    58
 90
        2
176
     1
 90
        2
176
     1
 90
        1
176
     1
 90
        2
176
     1
 40
0.6
176
     1
 40
30.0
176
     1
 62
     7
420
 16777215
176
     1
 90
        0
176
     1
 90
        0
176
     1
 62
     7
176
     1
 62
   257
176
     1
 90
        1
176
     1
 90
        1
176
     1
 40
1.0
176
     1
 90
        0
176
     1
 62
     7
176
     1
 40
1.0
176
     1
 90
        1
176
     1
 90
        6
176
     1
 90
        2
176
     1
 62
     7
176
     1
 90
        5
176
     1
 90
        0
176
     1
 90
        0
176
     1
290
     0
176
     1
 90
       13
176
     1
 40
0.0
176
     1
 90
        0
176
     1
290
     0
176
     1
290
     1
176
     1
290
     1
176
     1
290
     0
176
     1
290
     0
176
     1
290
     0
176
     1
290
     0
176
     1
290
     0
176
     1
290
     0
176
     1
 90
       50
176
     1
 40
0.0
176
     1
 40
1.0
176
     1
 90
        0
176
     1
 62
    18
420
        0
176
     1
 90
       50
176
     1
 90
        3
176
     1
 62
     5
420
      255
176
     1
290
     0
176
     1
 90
       50
176
     1
 90
       50
176
     1
 90
       50
176
     1
290
     0
176
     1
 90
       50
176
     1
 62
   256
176
     0
 40
1.0
176
     0
 90
        2
176
     1
  1
strokes_ogs.tif
176
     1
290
     0
176
     1
 40
1.0
176
     1
 40
1.0
176
     1
  0
VISUALSTYLE
  5
2E
102
{ACAD_REACTORS
330
2A
102
}
330
2A
100
AcDbVisualStyle
  2
GouraudWithEdges
 70
     3
177
     3
291
     1
 70
    58
 90
        2
176
     1
 90
        2
176
     1
 90
        1
176
     1
 90
        2
176
     1
 40
0.6
176
     1
 40
30.0
176
     1
 62
     7
420
 16777215
176
     1
 90
        1
176
     1
 90
        0
176
     1
 62
     7
176
     1
 62
   257
176
     1
 90
        1
176
     1
 90
        1
176
     1
 40
1.0
176
     1
 90
        0
176
     1
 62
   257
176
     1
 40
1.0
176
     1
 90
        1
176
     1
 90
        6
176
     1
 90
        2
176
     1
 62
     7
176
     1
 90
        5
176
     1
 90
        0
176
     1
 90
        0
176
     1
290
     0
176
     1
 90
       13
176
     1
 40
0.0
176
     1
 90
        0
176
     1
290
     0
176
     1
290
     1
176
     1
290
     1
176
     1
290
     0
176
     1
290
     0
176
     1
290
     0
176
     1
290
     0
176
     1
290
     0
176
     1
290
     0
176
     1
 90
       50
176
     1
 40
0.0
176
     1
 40
1.0
176
     1
 90
        0
176
     1
 62
    18
420
        0
176
     1
 90
       50
176
     1
 90
        3
176
     1
 62
     5
420
      255
176
     1
290
     0
176
     1
 90
       50
176
     1
 90
       50
176
     1
 90
       50
176
     1
290
     0
176
     1
 90
       50
176
     1
 62
   256
176
     0
 40
1.0
176
     0
 90
        2
176
     1
  1
strokes_ogs.tif
176
     1
290
     0
176
     1
 40
1.0
176
     1
 40
1.0
176
     1
  0
VISUALSTYLE
  5
31
102
{ACAD_REACTORS
330
2A
102
}
330
2A
100
AcDbVisualStyle
  2
Hidden
 70
     6
177
     3
291
     0
 70
    58
 90
        1
176
     1
 90
        2
176
     1
 90
        2
176
     1
 90
        0
176
     1
 40
0.6
176
     1
 40
30.0
176
     1
 62
     7
420
 16777215
176
     1
 90
        2
176
     1
 90
        2
176
     1
 62
     7
176
     1
 62
   257
176
     1
 90
        2
176
     1
 90
        1
176
     1
 40
40.0
176
     1
 90
        0
176
     1
 62
   257
176
     1
 40
1.0
176
     1
 90
        1
176
     1
 90
        6
176
     1
 90
        2
176
     1
 62
     7
176
     1
 90
        3
176
     1
 90
        0
176
     1
 90
        0
176
     1
290
     0
176
     1
 90
        1
176
     1
 40
0.0
176
     1
 90
        0
176
     1
290
     0
176
     1
290
     1
176
     1
290
     1
176
     1
290
     0
176
     1
290
     0
176
     1
290
     0
176
     1
290
     0
176
     1
290
     0
176
     1
290
     0
176
     1
 90
       50
176
     1
 40
0.0
176
     1
 40
1.0
176
     1
 90
        0
176
     1
 62
    18
420
        0
176
     1
 90
       50
176
     1
 90
        3
176
     1
 62
     5
420
      255
176
     1
290
     0
176
     1
 90
       50
176
     1
 90
       50
176
     1
 90
       50
176
     1
290
     0
176
     1
 90
       50
176
     1
 62
   256
176
     0
 40
1.0
176
     0
 90
        2
176
     1
  1
strokes_ogs.tif
176
     1
290
     0
176
     1
 40
1.0
176
     1
 40
1.0
176
     1
  0
VISUALSTYLE
  5
3B
102
{ACAD_REACTORS
330
2A
102
}
330
2A
100
AcDbVisualStyle
  2
JitterOff
 70
    20
177
     3
291
     1
 70
    58
 90
        2
176
     0
 90
        2
176
     0
 90
        0
176
     0
 90
        0
176
     0
 40
0.6
176
     0
 40
30.0
176
     0
 62
     7
420
 16777215
176
     0
 90
        1
176
     0
 90
        4
176
     0
 62
     7
176
     0
 62
   257
176
     0
 90
        1
176
     0
 90
        1
176
     0
 40
1.0
176
     0
 90
       10
176
     2
 62
     7
176
     0
 40
1.0
176
     0
 90
        1
176
     0
 90
        6
176
     0
 90
        2
176
     0
 62
     7
176
     0
 90
        5
176
     0
 90
        0
176
     0
 90
        0
176
     0
290
     0
176
     0
 90
        1
176
     0
 40
0.0
176
     0
 90
        0
176
     0
290
     0
176
     0
290
     1
176
     0
290
     1
176
     0
290
     0
176
     0
290
     0
176
     0
290
     0
176
     0
290
     0
176
     0
290
     0
176
     0
290
     0
176
     0
 90
       50
176
     0
 40
0.0
176
     0
 40
1.0
176
     0
 90
        0
176
     0
 62
    18
420
        0
176
     0
 90
       50
176
     0
 90
        3
176
     0
 62
     5
420
      255
176
     0
290
     0
176
     0
 90
       50
176
     0
 90
       50
176
     0
 90
       50
176
     0
290
     0
176
     0
 90
       50
176
     0
 62
   256
176
     0
 40
1.0
176
     0
 90
        2
176
     0
  1
strokes_ogs.tif
176
     0
290
     0
176
     0
 40
1.0
176
     0
 40
1.0
176
     0
  0
VISUALSTYLE
  5
38
102
{ACAD_REACTORS
330
2A
102
}
330
2A
100
AcDbVisualStyle
  2
Linepattern
 70
    14
177
     3
291
     1
 70
    58
 90
        2
176
     1
 90
        2
176
     1
 90
        0
176
     1
 90
        0
176
     1
 40
0.6
176
     1
 40
30.0
176
     1
 62
     7
420
 16777215
176
     1
 90
        1
176
     1
 90
        4
176
     1
 62
     7
176
     1
 62
   257
176
     1
 90
        7
176
     1
 90
        7
176
     1
 40
1.0
176
     1
 90
        8
176
     1
 62
     7
176
     1
 40
1.0
176
     1
 90
        1
176
     1
 90
        6
176
     1
 90
        2
176
     1
 62
     7
176
     1
 90
        5
176
     1
 90
        0
176
     1
 90
        0
176
     1
290
     0
176
     1
 90
        1
176
     1
 40
0.0
176
     1
 90
        0
176
     1
290
     0
176
     1
290
     1
176
     1
290
     1
176
     1
290
     0
176
     1
290
     0
176
     1
290
     0
176
     1
290
     0
176
     1
290
     0
176
     1
290
     0
176
     1
 90
       50
176
     1
 40
0.0
176
     1
 40
1.0
176
     1
 90
        0
176
     1
 62
    18
420
        0
176
     1
 90
       50
176
     1
 90
        3
176
     1
 62
     5
420
      255
176
     1
290
     0
176
     1
 90
       50
176
     1
 90
       50
176
     1
 90
       50
176
     1
290
     0
176
     1
 90
       50
176
     1
 62
   256
176
     0
 40
1.0
176
     0
 90
        2
176
     1
  1
strokes_ogs.tif
176
     1
290
     0
176
     1
 40
1.0
176
     1
 40
1.0
176
     1
  0
VISUALSTYLE
  5
3C
102
{ACAD_REACTORS
330
2A
102
}
330
2A
100
AcDbVisualStyle
  2
OverhangOff
 70
    21
177
     3
291
     1
 70
    58
 90
        2
176
     0
 90
        2
176
     0
 90
        0
176
     0
 90
        0
176
     0
 40
0.6
176
     0
 40
30.0
176
     0
 62
     7
420
 16777215
176
     0
 90
        1
176
     0
 90
        4
176
     0
 62
     7
176
     0
 62
   257
176
     0
 90
        1
176
     0
 90
        1
176
     0
 40
1.0
176
     0
 90
        9
176
     2
 62
     7
176
     0
 40
1.0
176
     0
 90
        1
176
     0
 90
        6
176
     0
 90
        2
176
     0
 62
     7
176
     0
 90
        5
176
     0
 90
        0
176
     0
 90
        0
176
     0
290
     0
176
     0
 90
        1
176
     0
 40
0.0
176
     0
 90
        0
176
     0
290
     0
176
     0
290
     1
176
     0
290
     1
176
     0
290
     0
176
     0
290
     0
176
     0
290
     0
176
     0
290
     0
176
     0
290
     0
176
     0
290
     0
176
     0
 90
       50
176
     0
 40
0.0
176
     0
 40
1.0
176
     0
 90
        0
176
     0
 62
    18
420
        0
176
     0
 90
       50
176
     0
 90
        3
176
     0
 62
     5
420
      255
176
     0
290
     0
176
     0
 90
       50
176
     0
 90
       50
176
     0
 90
       50
176
     0
290
     0
176
     0
 90
       50
176
     0
 62
   256
176
     0
 40
1.0
176
     0
 90
        2
176
     0
  1
strokes_ogs.tif
176
     0
290
     0
176
     0
 40
1.0
176
     0
 40
1.0
176
     0
  0
VISUALSTYLE
  5
33
102
{ACAD_REACTORS
330
2A
102
}
330
2A
100
AcDbVisualStyle
  2
Realistic
 70
     8
177
     3
291
     0
 70
    58
 90
        2
176
     1
 90
        3
176
     1
 90
        0
176
     1
 90
        2
176
     1
 40
0.6
176
     1
 40
30.0
176
     1
 62
     7
420
 16777215
176
     1
 90
        0
176
     1
 90
        0
176
     1
 62
     7
176
     1
 62
   257
176
     1
 90
        1
176
     1
 90
        1
176
     1
 40
1.0
176
     1
 90
        8
176
     1
 62
   257
176
     1
 40
1.0
176
     1
 90
        1
176
     1
 90
        6
176
     1
 90
        2
176
     1
 62
     7
176
     1
 90
        3
176
     1
 90
        0
176
     1
 90
        0
176
     1
290
     0
176
     1
 90
       13
176
     1
 40
0.0
176
     1
 90
        0
176
     1
290
     0
176
     1
290
     1
176
     1
290
     1
176
     1
290
     0
176
     1
290
     0
176
     1
290
     0
176
     1
290
     0
176
     1
290
     0
176
     1
290
     0
176
     1
 90
       50
176
     1
 40
0.0
176
     1
 40
1.0
176
     1
 90
        0
176
     1
 62
    18
420
        0
176
     1
 90
       50
176
     1
 90
        3
176
     1
 62
     5
420
      255
176
     1
290
     0
176
     1
 90
       50
176
     1
 90
       50
176
     1
 90
       50
176
     1
290
     0
176
     1
 90
       50
176
     1
 62
   256
176
     0
 40
1.0
176
     0
 90
        2
176
     1
  1
strokes_ogs.tif
176
     1
290
     0
176
     1
 40
1.0
176
     1
 40
1.0
176
     1
  0
VISUALSTYLE
  5
42
102
{ACAD_REACTORS
330
2A
102
}
330
2A
100
AcDbVisualStyle
  2
Shaded
 70
    27
177
     3
291
     0
 70
    58
 90
        2
176
     1
 90
        2
176
     1
 90
        1
176
     1
 90
        2
176
     1
 40
0.6
176
     1
 40
30.0
176
     1
 62
     7
420
 16777215
176
     1
 90
        0
176
     1
 90
        4
176
     1
 62
     7
176
     1
 62
   257
176
     1
 90
        1
176
     1
 90
        1
176
     1
 40
1.0
176
     1
 90
        8
176
     1
 62
   257
176
     1
 40
1.0
176
     1
 90
        1
176
     1
 90
        6
176
     1
 90
        2
176
     1
 62
     8
420
  7895160
176
     1
 90
        3
176
     1
 90
        0
176
     1
 90
        0
176
     1
290
     0
176
     1
 90
        5
176
     1
 40
0.0
176
     1
 90
        0
176
     1
290
     0
176
     1
290
     1
176
     1
290
     1
176
     1
290
     0
176
     1
290
     0
176
     1
290
     0
176
     1
290
     0
176
     1
290
     0
176
     1
290
     0
176
     1
 90
       50
176
     1
 40
0.0
176
     1
 40
1.0
176
     1
 90
        0
176
     1
 62
    18
420
        0
176
     1
 90
       50
176
     1
 90
        3
176
     1
 62
     5
420
      255
176
     1
290
     0
176
     1
 90
       50
176
     1
 90
       50
176
     1
 90
       50
176
     1
290
     0
176
     1
 90
       50
176
     1
 62
   256
176
     0
 40
1.0
176
     0
 90
        2
176
     1
  1
strokes_ogs.tif
176
     1
290
     0
176
     1
 40
1.0
176
     1
 40
1.0
176
     1
  0
VISUALSTYLE
  5
41
102
{ACAD_REACTORS
330
2A
102
}
330
2A
100
AcDbVisualStyle
  2
Shaded with edges
 70
    26
177
     3
291
     0
 70
    58
 90
        2
176
     1
 90
        2
176
     1
 90
        1
176
     1
 90
        2
176
     1
 40
0.6
176
     1
 40
30.0
176
     1
 62
     7
420
 16777215
176
     1
 90
        1
176
     1
 90
       10
176
     1
 62
     7
176
     1
 62
   257
176
     1
 90
        2
176
     1
 90
        1
176
     1
 40
1.0
176
     1
 90
        8
176
     1
 62
   257
176
     1
 40
1.0
176
     1
 90
        1
176
     1
 90
        6
176
     1
 90
        2
176
     1
 62
     7
176
     1
 90
        3
176
     1
 90
        0
176
     1
 90
        0
176
     1
290
     0
176
     1
 90
        5
176
     1
 40
0.0
176
     1
 90
        0
176
     1
290
     0
176
     1
290
     1
176
     1
290
     1
176
     1
290
     0
176
     1
290
     0
176
     1
290
     0
176
     1
290
     0
176
     1
290
     0
176
     1
290
     0
176
     1
 90
       50
176
     1
 40
0.0
176
     1
 40
1.0
176
     1
 90
        0
176
     1
 62
    18
420
        0
176
     1
 90
       50
176
     1
 90
        3
176
     1
 62
     5
420
      255
176
     1
290
     0
176
     1
 90
       50
176
     1
 90
       50
176
     1
 90
       50
176
     1
290
     0
176
     1
 90
       50
176
     1
 62
   256
176
     0
 40
1.0
176
     0
 90
        2
176
     1
  1
strokes_ogs.tif
176
     1
290
     0
176
     1
 40
1.0
176
     1
 40
1.0
176
     1
  0
VISUALSTYLE
  5
3E
102
{ACAD_REACTORS
330
2A
102
}
330
2A
100
AcDbVisualStyle
  2
Shades of Gray
 70
    23
177
     3
291
     0
 70
    58
 90
        2
176
     1
 90
        2
176
     1
 90
        3
176
     1
 90
        0
176
     1
 40
0.6
176
     1
 40
30.0
176
     1
 62
     7
420
 16777215
176
     1
 90
        2
176
     1
 90
        2
176
     1
 62
     7
176
     1
 62
     7
176
     1
 90
        1
176
     1
 90
        1
176
     1
 40
40.0
176
     1
 90
        8
176
     1
 62
     7
176
     1
 40
1.0
176
     1
 90
        1
176
     1
 90
        6
176
     1
 90
        2
176
     1
 62
     7
176
     1
 90
        3
176
     1
 90
        0
176
     1
 90
        0
176
     1
290
     0
176
     1
 90
        1
176
     1
 40
0.0
176
     1
 90
        0
176
     1
290
     0
176
     1
290
     1
176
     1
290
     1
176
     1
290
     0
176
     1
290
     0
176
     1
290
     0
176
     1
290
     0
176
     1
290
     0
176
     1
290
     0
176
     1
 90
       50
176
     1
 40
0.0
176
     1
 40
1.0
176
     1
 90
        0
176
     1
 62
    18
420
        0
176
     1
 90
       50
176
     1
 90
        3
176
     1
 62
     5
420
      255
176
     1
290
     0
176
     1
 90
       50
176
     1
 90
       50
176
     1
 90
       50
176
     1
290
     0
176
     1
 90
       50
176
     1
 62
   256
176
     0
 40
1.0
176
     0
 90
        2
176
     1
  1
strokes_ogs.tif
176
     1
290
     0
176
     1
 40
1.0
176
     1
 40
1.0
176
     1
  0
VISUALSTYLE
  5
3F
102
{ACAD_REACTORS
330
2A
102
}
330
2A
100
AcDbVisualStyle
  2
Sketchy
 70
    24
177
     3
291
     0
 70
    58
 90
        1
176
     1
 90
        2
176
     1
 90
        2
176
     1
 90
        0
176
     1
 40
0.6
176
     1
 40
30.0
176
     1
 62
     7
420
 16777215
176
     1
 90
        2
176
     1
 90
        2
176
     1
 62
     7
176
     1
 62
     7
176
     1
 90
        1
176
     1
 90
        1
176
     1
 40
40.0
176
     1
 90
       11
176
     1
 62
     7
176
     1
 40
1.0
176
     1
 90
        1
176
     1
 90
        6
176
     1
 90
        2
176
     1
 62
     7
176
     1
 90
        6
176
     1
 90
        0
176
     1
 90
        0
176
     1
290
     0
176
     1
 90
        1
176
     1
 40
0.0
176
     1
 90
        0
176
     1
290
     0
176
     1
290
     1
176
     1
290
     1
176
     1
290
     0
176
     1
290
     0
176
     1
290
     0
176
     1
290
     0
176
     1
290
     0
176
     1
290
     0
176
     1
 90
       50
176
     1
 40
0.0
176
     1
 40
1.0
176
     1
 90
        0
176
     1
 62
    18
420
        0
176
     1
 90
       50
176
     1
 90
        3
176
     1
 62
     5
420
      255
176
     1
290
     0
176
     1
 90
       50
176
     1
 90
       50
176
     1
 90
       50
176
     1
290
     0
176
     1
 90
       50
176
     1
 62
   256
176
     0
 40
1.0
176
     0
 90
        2
176
     1
  1
strokes_ogs.tif
176
     1
290
     0
176
     1
 40
1.0
176
     1
 40
1.0
176
     1
  0
VISUALSTYLE
  5
37
102
{ACAD_REACTORS
330
2A
102
}
330
2A
100
AcDbVisualStyle
  2
Thicken
 70
    13
177
     3
291
     1
 70
    58
 90
        2
176
     1
 90
        2
176
     1
 90
        0
176
     1
 90
        0
176
     1
 40
0.6
176
     1
 40
30.0
176
     1
 62
     7
420
 16777215
176
     1
 90
        1
176
     1
 90
        4
176
     1
 62
     7
176
     1
 62
   257
176
     1
 90
        1
176
     1
 90
        1
176
     1
 40
1.0
176
     1
 90
       12
176
     1
 62
     7
176
     1
 40
1.0
176
     1
 90
        1
176
     1
 90
        6
176
     1
 90
        2
176
     1
 62
     7
176
     1
 90
        5
176
     1
 90
        0
176
     1
 90
        0
176
     1
290
     0
176
     1
 90
        1
176
     1
 40
0.0
176
     1
 90
        0
176
     1
290
     0
176
     1
290
     1
176
     1
290
     1
176
     1
290
     0
176
     1
290
     0
176
     1
290
     0
176
     1
290
     0
176
     1
290
     0
176
     1
290
     0
176
     1
 90
       50
176
     1
 40
0.0
176
     1
 40
1.0
176
     1
 90
        0
176
     1
 62
    18
420
        0
176
     1
 90
       50
176
     1
 90
        3
176
     1
 62
     5
420
      255
176
     1
290
     0
176
     1
 90
       50
176
     1
 90
       50
176
     1
 90
       50
176
     1
290
     0
176
     1
 90
       50
176
     1
 62
   256
176
     0
 40
1.0
176
     0
 90
        2
176
     1
  1
strokes_ogs.tif
176
     1
290
     0
176
     1
 40
1.0
176
     1
 40
1.0
176
     1
  0
VISUALSTYLE
  5
30
102
{ACAD_REACTORS
330
2A
102
}
330
2A
100
AcDbVisualStyle
  2
Wireframe
 70
     5
177
     3
291
     0
 70
    58
 90
        0
176
     1
 90
        2
176
     1
 90
        0
176
     1
 90
        0
176
     1
 40
0.6
176
     1
 40
30.0
176
     1
 62
     7
420
 16777215
176
     1
 90
        1
176
     1
 90
        4
176
     1
 62
     7
176
     1
 62
   257
176
     1
 90
        1
176
     1
 90
        1
176
     1
 40
1.0
176
     1
 90
        0
176
     1
 62
   257
176
     1
 40
1.0
176
     1
 90
        1
176
     1
 90
        6
176
     1
 90
        2
176
     1
 62
     7
176
     1
 90
        3
176
     1
 90
        0
176
     1
 90
        0
176
     1
290
     0
176
     1
 90
        1
176
     1
 40
0.0
176
     1
 90
        0
176
     1
290
     0
176
     1
290
     1
176
     1
290
     1
176
     1
290
     0
176
     1
290
     0
176
     1
290
     0
176
     1
290
     0
176
     1
290
     0
176
     1
290
     0
176
     1
 90
       50
176
     1
 40
0.0
176
     1
 40
1.0
176
     1
 90
        0
176
     1
 62
    18
420
        0
176
     1
 90
       50
176
     1
 90
        3
176
     1
 62
     5
420
      255
176
     1
290
     0
176
     1
 90
       50
176
     1
 90
       50
176
     1
 90
       50
176
     1
290
     0
176
     1
 90
       50
176
     1
 62
   256
176
     0
 40
1.0
176
     0
 90
        2
176
     1
  1
strokes_ogs.tif
176
     1
290
     0
176
     1
 40
1.0
176
     1
 40
1.0
176
     1
  0
VISUALSTYLE
  5
40
102
{ACAD_REACTORS
330
2A
102
}
330
2A
100
AcDbVisualStyle
  2
X-Ray
 70
    25
177
     3
291
     0
 70
    58
 90
        2
176
     1
 90
        2
176
     1
 90
        1
176
     1
 90
        1
176
     1
 40
0.5
176
     1
 40
30.0
176
     1
 62
     7
420
 16777215
176
     1
 90
        1
176
     1
 90
        0
176
     1
 62
     7
176
     1
 62
   257
176
     1
 90
        1
176
     1
 90
        1
176
     1
 40
1.0
176
     1
 90
        8
176
     1
 62
     7
176
     1
 40
1.0
176
     1
 90
        1
176
     1
 90
        6
176
     1
 90
        2
176
     1
 62
     7
176
     1
 90
        3
176
     1
 90
        0
176
     1
 90
        0
176
     1
290
     0
176
     1
 90
       13
176
     1
 40
0.0
176
     1
 90
        0
176
     1
290
     0
176
     1
290
     1
176
     1
290
     1
176
     1
290
     0
176
     1
290
     0
176
     1
290
     0
176
     1
290
     0
176
     1
290
     0
176
     1
290
     0
176
     1
 90
       50
176
     1
 40
0.0
176
     1
 40
1.0
176
     1
 90
        0
176
     1
 62
    18
420
        0
176
     1
 90
       50
176
     1
 90
        3
176
     1
 62
     5
420
      255
176
     1
290
     0
176
     1
 90
       50
176
     1
 90
       50
176
     1
 90
       50
176
     1
290
     0
176
     1
 90
       50
176
     1
 62
   256
176
     0
 40
1.0
176
     0
 90
        2
176
     1
  1
strokes_ogs.tif
176
     1
290
     0
176
     1
 40
1.0
176
     1
 40
1.0
176
     1
  0
DICTIONARYVAR
  5
CF
102
{ACAD_REACTORS
330
CE
102
}
330
CE
100
DictionaryVariables
280
     0
  1
1:1
  0
DICTIONARYVAR
  5
D7
102
{ACAD_REACTORS
330
CE
102
}
330
CE
100
DictionaryVariables
280
     0
  1
3.500000
  0
DICTIONARYVAR
  5
D8
102
{ACAD_REACTORS
330
CE
102
}
330
CE
100
DictionaryVariables
280
     0
  1
acadiso.lin
  0
DICTIONARYVAR
  5
D4
102
{ACAD_REACTORS
330
CE
102
}
330
CE
100
DictionaryVariables
280
     0
  1
Standard
  0
DICTIONARYVAR
  5
D3
102
{ACAD_REACTORS
330
CE
102
}
330
CE
100
DictionaryVariables
280
     0
  1
Standard
  0
DICTIONARY
  5
D0
330
6A
100
AcDbDictionary
280
     1
281
     1
  3
ACAD_ROUNDTRIP_2008_TABLESTYLE_CELLSTYLEMAP
360
D1
  0
CELLSTYLEMAP
  5
D1
102
{ACAD_REACTORS
330
D0
102
}
330
D0
100
AcDbCellStyleMap
 90
        3
300
CELLSTYLE
  1
TABLEFORMAT_BEGIN
 90
        5
170
     1
 91
        0
 92
    32768
 62
   257
 93
        1
300
CONTENTFORMAT
  1
CONTENTFORMAT_BEGIN
 90
        0
 91
        0
 92
        4
 93
        0
300

 40
0.0
140
1.0
 94
        5
 62
     0
340
11
144
6.0
309
CONTENTFORMAT_END
171
     1
301
MARGIN
  1
CELLMARGIN_BEGIN
 40
1.5
 40
1.5
 40
1.5
 40
1.5
 40
1.5
 40
1.5
309
CELLMARGIN_END
 94
        6
 95
        1
302
GRIDFORMAT
  1
GRIDFORMAT_BEGIN
 90
        0
 91
        1
 62
     0
 92
       -2
340
14
 93
        0
 40
0.045
309
GRIDFORMAT_END
 95
        2
302
GRIDFORMAT
  1
GRIDFORMAT_BEGIN
 90
        0
 91
        1
 62
     0
 92
       -2
340
14
 93
        0
 40
0.045
309
GRIDFORMAT_END
 95
        4
302
GRIDFORMAT
  1
GRIDFORMAT_BEGIN
 90
        0
 91
        1
 62
     0
 92
       -2
340
14
 93
        0
 40
0.045
309
GRIDFORMAT_END
 95
        8
302
GRIDFORMAT
  1
GRIDFORMAT_BEGIN
 90
        0
 91
        1
 62
     0
 92
       -2
340
14
 93
        0
 40
0.045
309
GRIDFORMAT_END
 95
       16
302
GRIDFORMAT
  1
GRIDFORMAT_BEGIN
 90
        0
 91
        1
 62
     0
 92
       -2
340
14
 93
        0
 40
0.045
309
GRIDFORMAT_END
 95
       32
302
GRIDFORMAT
  1
GRIDFORMAT_BEGIN
 90
        0
 91
        1
 62
     0
 92
       -2
340
14
 93
        0
 40
0.045
309
GRIDFORMAT_END
309
TABLEFORMAT_END
  1
CELLSTYLE_BEGIN
 90
        1
 91
        1
300
_TITLE
309
CELLSTYLE_END
300
CELLSTYLE
  1
TABLEFORMAT_BEGIN
 90
        5
170
     1
 91
        0
 92
        0
 62
   257
 93
        1
300
CONTENTFORMAT
  1
CONTENTFORMAT_BEGIN
 90
        0
 91
        0
 92
        4
 93
        0
300

 40
0.0
140
1.0
 94
        5
 62
     0
340
11
144
4.5
309
CONTENTFORMAT_END
171
     1
301
MARGIN
  1
CELLMARGIN_BEGIN
 40
1.5
 40
1.5
 40
1.5
 40
1.5
 40
1.5
 40
1.5
309
CELLMARGIN_END
 94
        6
 95
        1
302
GRIDFORMAT
  1
GRIDFORMAT_BEGIN
 90
        0
 91
        1
 62
     0
 92
       -2
340
14
 93
        0
 40
0.045
309
GRIDFORMAT_END
 95
        2
302
GRIDFORMAT
  1
GRIDFORMAT_BEGIN
 90
        0
 91
        1
 62
     0
 92
       -2
340
14
 93
        0
 40
0.045
309
GRIDFORMAT_END
 95
        4
302
GRIDFORMAT
  1
GRIDFORMAT_BEGIN
 90
        0
 91
        1
 62
     0
 92
       -2
340
14
 93
        0
 40
0.045
309
GRIDFORMAT_END
 95
        8
302
GRIDFORMAT
  1
GRIDFORMAT_BEGIN
 90
        0
 91
        1
 62
     0
 92
       -2
340
14
 93
        0
 40
0.045
309
GRIDFORMAT_END
 95
       16
302
GRIDFORMAT
  1
GRIDFORMAT_BEGIN
 90
        0
 91
        1
 62
     0
 92
       -2
340
14
 93
        0
 40
0.045
309
GRIDFORMAT_END
 95
       32
302
GRIDFORMAT
  1
GRIDFORMAT_BEGIN
 90
        0
 91
        1
 62
     0
 92
       -2
340
14
 93
        0
 40
0.045
309
GRIDFORMAT_END
309
TABLEFORMAT_END
  1
CELLSTYLE_BEGIN
 90
        2
 91
        1
300
_HEADER
309
CELLSTYLE_END
300
CELLSTYLE
  1
TABLEFORMAT_BEGIN
 90
        5
170
     1
 91
        0
 92
        0
 62
   257
 93
        1
300
CONTENTFORMAT
  1
CONTENTFORMAT_BEGIN
 90
        0
 91
        0
 92
        4
 93
        0
300

 40
0.0
140
1.0
 94
        2
 62
     0
340
11
144
4.5
309
CONTENTFORMAT_END
171
     1
301
MARGIN
  1
CELLMARGIN_BEGIN
 40
1.5
 40
1.5
 40
1.5
 40
1.5
 40
1.5
 40
1.5
309
CELLMARGIN_END
 94
        6
 95
        1
302
GRIDFORMAT
  1
GRIDFORMAT_BEGIN
 90
        0
 91
        1
 62
     0
 92
       -2
340
14
 93
        0
 40
0.045
309
GRIDFORMAT_END
 95
        2
302
GRIDFORMAT
  1
GRIDFORMAT_BEGIN
 90
        0
 91
        1
 62
     0
 92
       -2
340
14
 93
        0
 40
0.045
309
GRIDFORMAT_END
 95
        4
302
GRIDFORMAT
  1
GRIDFORMAT_BEGIN
 90
        0
 91
        1
 62
     0
 92
       -2
340
14
 93
        0
 40
0.045
309
GRIDFORMAT_END
 95
        8
302
GRIDFORMAT
  1
GRIDFORMAT_BEGIN
 90
        0
 91
        1
 62
     0
 92
       -2
340
14
 93
        0
 40
0.045
309
GRIDFORMAT_END
 95
       16
302
GRIDFORMAT
  1
GRIDFORMAT_BEGIN
 90
        0
 91
        1
 62
     0
 92
       -2
340
14
 93
        0
 40
0.045
309
GRIDFORMAT_END
 95
       32
302
GRIDFORMAT
  1
GRIDFORMAT_BEGIN
 90
        0
 91
        1
 62
     0
 92
       -2
340
14
 93
        0
 40
0.045
309
GRIDFORMAT_END
309
TABLEFORMAT_END
  1
CELLSTYLE_BEGIN
 90
        3
 91
        2
300
_DATA
309
CELLSTYLE_END
  0
ENDSEC
  0
EOF
